<svg xmlns="http://www.w3.org/2000/svg" width="83" height="84" viewBox="0 0 83 84">
  <g id="_01_smart_contract" data-name="01 smart contract" transform="translate(-9)">
    <ellipse id="Ellipse_64" data-name="Ellipse 64" cx="41.5" cy="42" rx="41.5" ry="42" transform="translate(9)" fill="#e4fcfe"/>
    <g id="contract" transform="translate(3.873 531.776)">
      <path id="Path_2047" data-name="Path 2047" d="M28.879-511.64a2.558,2.558,0,0,0-1.677,1.849c-.069.318-.086,5.4-.069,17.943l.026,17.5.181.4a3.038,3.038,0,0,0,1.315,1.315c.378.172.542.181,3.207.206l2.8.026.034,1.35a3.917,3.917,0,0,0,.215,1.745A2.974,2.974,0,0,0,36.222-468l.4.181H64.56l.4-.181a3.038,3.038,0,0,0,1.315-1.315l.181-.4v-35.509l-.181-.4a3.038,3.038,0,0,0-1.315-1.315c-.378-.172-.542-.181-3.207-.206l-2.8-.026-.034-1.35a3.917,3.917,0,0,0-.215-1.745,2.974,2.974,0,0,0-1.307-1.315l-.4-.181-13.842-.017C30.195-511.786,29.283-511.778,28.879-511.64Zm28.046,1.849.241.232.043,7.222.043,7.222.224.215a1.092,1.092,0,0,0,.524.267c.258.043.353.009.593-.206l.292-.258.026-5.176.017-5.167,2.665.026,2.665.026.232.241.241.232v34.907l-.241.232-.232.241H36.918l-.232-.241c-.241-.232-.241-.258-.267-1.436l-.034-1.2H52.11l.335-.249c.576-.43,6.294-6.233,6.388-6.483.138-.344.129-8.692,0-8.942a.86.86,0,0,0-.765-.49.86.86,0,0,0-.765.49,32.031,32.031,0,0,0-.095,3.972v3.792h-2.2a16.113,16.113,0,0,0-2.562.1,2.554,2.554,0,0,0-1.324,1.324,16.107,16.107,0,0,0-.1,2.562v2.2l-10.833-.017-10.833-.026-.232-.241-.241-.232V-492.1c0-17.324,0-17.445.172-17.634A1.331,1.331,0,0,1,29.4-510c.095-.034,6.276-.06,13.731-.052l13.567.017Zm-2.554,32.774-1.591,1.591-.026-1.47a5.23,5.23,0,0,1,.077-1.591c.077-.095.43-.12,1.616-.12h1.513Z" transform="translate(0)" fill="#16becf"/>
      <path id="Path_2048" data-name="Path 2048" d="M87.136-435.666a.852.852,0,0,0-.267,1.367l.224.232h20.635l.224-.232a.836.836,0,0,0,0-1.169l-.224-.232-10.214-.017C91.9-435.726,87.23-435.7,87.136-435.666Z" transform="translate(-54.387 -69.517)" fill="#16becf"/>
      <path id="Path_2049" data-name="Path 2049" d="M87.136-383.666a.852.852,0,0,0-.267,1.367l.224.232h20.635l.224-.232a.836.836,0,0,0,0-1.169l-.224-.232-10.214-.017C91.9-383.726,87.23-383.7,87.136-383.666Z" transform="translate(-54.387 -117.046)" fill="#16becf"/>
      <path id="Path_2050" data-name="Path 2050" d="M87.136-331.666a.852.852,0,0,0-.267,1.367l.224.232h20.635l.224-.232a.836.836,0,0,0,0-1.169l-.224-.232-10.214-.017C91.9-331.726,87.23-331.7,87.136-331.666Z" transform="translate(-54.387 -164.576)" fill="#16becf"/>
      <path id="Path_2051" data-name="Path 2051" d="M377.541-285.794a.806.806,0,0,0,.052,1.29.847.847,0,0,0,1.315-.86.893.893,0,0,0-.825-.636A.775.775,0,0,0,377.541-285.794Z" transform="translate(-320.014 -206.364)" fill="#16becf"/>
      <path id="Path_2052" data-name="Path 2052" d="M87.136-279.923a.852.852,0,0,0-.267,1.367l.224.232,4.815.026,4.806.017L97-278.53a.65.65,0,0,0,.284-.61.65.65,0,0,0-.284-.61L96.722-280l-4.712.009C89.423-279.991,87.23-279.957,87.136-279.923Z" transform="translate(-54.387 -211.848)" fill="#16becf"/>
      <path id="Path_2053" data-name="Path 2053" d="M238.491-279.571a.822.822,0,0,0,.034,1.436.822.822,0,0,0,1.229-.731A.842.842,0,0,0,238.491-279.571Z" transform="translate(-192.82 -212.131)" fill="#16becf"/>
      <path id="Path_2054" data-name="Path 2054" d="M83.919-227.527a3.249,3.249,0,0,0-2.1,1.763,2.3,2.3,0,0,0-.232,1.247,2.331,2.331,0,0,0,.241,1.255,3.257,3.257,0,0,0,1.556,1.556,2.38,2.38,0,0,0,1.247.241,2.38,2.38,0,0,0,1.247-.241,3.257,3.257,0,0,0,1.556-1.556,2.348,2.348,0,0,0,.241-1.255,2.348,2.348,0,0,0-.241-1.255,3.071,3.071,0,0,0-2.605-1.8A4.127,4.127,0,0,0,83.919-227.527Zm1.513,1.917a1.36,1.36,0,0,1-.249,2.339,1.369,1.369,0,0,1-1.9-1.384A1.358,1.358,0,0,1,85.432-225.61Z" transform="translate(-49.778 -259.765)" fill="#16becf"/>
      <path id="Path_2055" data-name="Path 2055" d="M170.55-201.657a1.015,1.015,0,0,0-.55.782.865.865,0,0,0,.249.524l.249.284h6.551l.232-.241a.8.8,0,0,0,0-1.152l-.232-.241-3.164-.017C172.149-201.726,170.645-201.7,170.55-201.657Z" transform="translate(-130.588 -283.399)" fill="#16becf"/>
    </g>
  </g>
</svg>
