<svg xmlns="http://www.w3.org/2000/svg" width="83" height="84" viewBox="0 0 83 84">
  <g id="_02_Ownership" data-name="02 Ownership" transform="translate(-9)">
    <ellipse id="Ellipse_64" data-name="Ellipse 64" cx="41.5" cy="42" rx="41.5" ry="42" transform="translate(9)" fill="#e4fcfe"/>
    <g id="key" transform="translate(-6.926 526)">
      <path id="Path_2056" data-name="Path 2056" d="M46.627-503.8c-.2.195-.2.195-.2,1.948v1.745H44.671a12.131,12.131,0,0,0-2.094.1,2.411,2.411,0,0,0-1.25,1.25,33.932,33.932,0,0,0-.1,4.107v3.782l-.243.1a2.215,2.215,0,0,0-.958,1.12c-.138.471-.138,18.895,0,19.366a2.411,2.411,0,0,0,1.25,1.25,37.622,37.622,0,0,0,4.359.1h4.026l.3.592a8.436,8.436,0,0,0,5.065,4.221,8.209,8.209,0,0,0,6.29-.576,6.993,6.993,0,0,0,2.053-1.493,7.69,7.69,0,0,0,1.591-2.159l.292-.584H69.28a37.718,37.718,0,0,0,4.367-.1,2.411,2.411,0,0,0,1.25-1.25c.138-.471.138-18.895,0-19.366a2.215,2.215,0,0,0-.958-1.12l-.243-.1V-492.7a12.467,12.467,0,0,0-.1-2.143,2.218,2.218,0,0,0-.446-.714c-.536-.6-.763-.649-2.881-.649H68.5v-2.232l-2.784-2.776L62.941-504H46.822Zm15.381,3.49v2.4l.2.195.195.2h4.8v6.493H47.723V-502.7H62.008Zm2.8.041,1.461,1.461H63.306v-1.461c0-.8.008-1.461.024-1.461S64-501.07,64.808-500.266ZM46.424-494.91v3.9h-3.9v-7.394l.2-.195c.195-.2.195-.2,1.948-.2h1.745Zm25.77.2c.2.195.2.195.2,1.948v1.745H68.5v-3.9h1.745C72-494.91,72-494.91,72.194-494.707Zm-27.352,6.29,1.307,1.3H68.777l1.307-1.3,1.307-1.3h.95c.909,0,.966.008,1.153.2l.2.195v18.684l-.2.195-.195.2H69.467c-3.247,0-3.815-.016-3.782-.114a8.38,8.38,0,0,0,.195-2.313A8.421,8.421,0,0,0,60-480.219l-.592-.179v-5.673l-.2-.195c-.187-.195-.243-.2-1.112-.2h-.909l-.836.836-.836.836v1.842c0,1.688.016,1.875.162,2.167l.162.325-.219.049a8.543,8.543,0,0,0-5.17,3.547,8.354,8.354,0,0,0-1.4,4.2,8.38,8.38,0,0,0,.195,2.313c.032.1-.536.114-3.782.114H41.627l-.195-.2-.2-.195v-18.684l.2-.195c.187-.195.243-.2,1.153-.2h.95Zm24.025-.649-.649.649H46.708l-.649-.649-.649-.649H69.515Zm-10.754,8.6c0,3.117.032,4.764.089,4.886a1.746,1.746,0,0,0,.682.5,3.215,3.215,0,0,1,1.526,1.583,2.251,2.251,0,0,1,.26,1.315,2.251,2.251,0,0,1-.26,1.315,3.119,3.119,0,0,1-1.55,1.591,2.245,2.245,0,0,1-1.4.3,2.245,2.245,0,0,1-1.4-.3,3.119,3.119,0,0,1-1.55-1.591,2.251,2.251,0,0,1-.26-1.315,2.251,2.251,0,0,1,.26-1.315A3.189,3.189,0,0,1,56-475.057a2.8,2.8,0,0,0,.69-.479c.1-.138.122-.446.122-1.575v-1.4l.325-.649a3.574,3.574,0,0,0,.325-.812,3.575,3.575,0,0,0-.325-.812l-.325-.649v-2.792l.463-.471c.3-.3.536-.471.649-.471h.187Zm-2.581,2.8-.024,1.38-.373.2a4.549,4.549,0,0,0-1.721,1.891,4.513,4.513,0,0,0,2.751,6.355,5.408,5.408,0,0,0,2.6,0,4.629,4.629,0,0,0,3.052-3.052,5.407,5.407,0,0,0,0-2.6,4.768,4.768,0,0,0-2.021-2.6l-.381-.2v-1.355c0-1.1.024-1.364.114-1.364a6.954,6.954,0,0,1,1.851.86,7.283,7.283,0,0,1,2.654,3.182,6.447,6.447,0,0,1,.536,2.776,6.447,6.447,0,0,1-.536,2.776,7.345,7.345,0,0,1-3.693,3.758,6.274,6.274,0,0,1-2.873.56,5.67,5.67,0,0,1-3.06-.69,7.087,7.087,0,0,1-3.847-4.659,8.429,8.429,0,0,1,0-3.49,7.2,7.2,0,0,1,4.57-4.983,4.278,4.278,0,0,1,.43-.138S55.547-478.417,55.531-477.662Z" fill="#16becf"/>
      <path id="Path_2057" data-name="Path 2057" d="M184-455.351v.649h9.09V-456H184Z" transform="translate(-132.381 -44.104)" fill="#16becf"/>
      <path id="Path_2058" data-name="Path 2058" d="M168-407.351v.649h14.285V-408H168Z" transform="translate(-117.68 -88.208)" fill="#16becf"/>
      <path id="Path_2059" data-name="Path 2059" d="M240.952-119.915a1.285,1.285,0,0,0-.373,2.086,1.224,1.224,0,0,0,1.8,0A1.286,1.286,0,0,0,240.952-119.915Z" transform="translate(-184.017 -352.804)" fill="#16becf"/>
    </g>
    <g id="key-2" data-name="key" transform="translate(-6.926 526)">
      <path id="Path_2056-2" data-name="Path 2056" d="M46.627-503.8c-.2.195-.2.195-.2,1.948v1.745H44.671a12.131,12.131,0,0,0-2.094.1,2.411,2.411,0,0,0-1.25,1.25,33.932,33.932,0,0,0-.1,4.107v3.782l-.243.1a2.215,2.215,0,0,0-.958,1.12c-.138.471-.138,18.895,0,19.366a2.411,2.411,0,0,0,1.25,1.25,37.622,37.622,0,0,0,4.359.1h4.026l.3.592a8.436,8.436,0,0,0,5.065,4.221,8.209,8.209,0,0,0,6.29-.576,6.993,6.993,0,0,0,2.053-1.493,7.69,7.69,0,0,0,1.591-2.159l.292-.584H69.28a37.718,37.718,0,0,0,4.367-.1,2.411,2.411,0,0,0,1.25-1.25c.138-.471.138-18.895,0-19.366a2.215,2.215,0,0,0-.958-1.12l-.243-.1V-492.7a12.467,12.467,0,0,0-.1-2.143,2.218,2.218,0,0,0-.446-.714c-.536-.6-.763-.649-2.881-.649H68.5v-2.232l-2.784-2.776L62.941-504H46.822Zm15.381,3.49v2.4l.2.195.195.2h4.8v6.493H47.723V-502.7H62.008Zm2.8.041,1.461,1.461H63.306v-1.461c0-.8.008-1.461.024-1.461S64-501.07,64.808-500.266ZM46.424-494.91v3.9h-3.9v-7.394l.2-.195c.195-.2.195-.2,1.948-.2h1.745Zm25.77.2c.2.195.2.195.2,1.948v1.745H68.5v-3.9h1.745C72-494.91,72-494.91,72.194-494.707Zm-27.352,6.29,1.307,1.3H68.777l1.307-1.3,1.307-1.3h.95c.909,0,.966.008,1.153.2l.2.195v18.684l-.2.195-.195.2H69.467c-3.247,0-3.815-.016-3.782-.114a8.38,8.38,0,0,0,.195-2.313A8.421,8.421,0,0,0,60-480.219l-.592-.179v-5.673l-.2-.195c-.187-.195-.243-.2-1.112-.2h-.909l-.836.836-.836.836v1.842c0,1.688.016,1.875.162,2.167l.162.325-.219.049a8.543,8.543,0,0,0-5.17,3.547,8.354,8.354,0,0,0-1.4,4.2,8.38,8.38,0,0,0,.195,2.313c.032.1-.536.114-3.782.114H41.627l-.195-.2-.2-.195v-18.684l.2-.195c.187-.195.243-.2,1.153-.2h.95Zm24.025-.649-.649.649H46.708l-.649-.649-.649-.649H69.515Zm-10.754,8.6c0,3.117.032,4.764.089,4.886a1.746,1.746,0,0,0,.682.5,3.215,3.215,0,0,1,1.526,1.583,2.251,2.251,0,0,1,.26,1.315,2.251,2.251,0,0,1-.26,1.315,3.119,3.119,0,0,1-1.55,1.591,2.245,2.245,0,0,1-1.4.3,2.245,2.245,0,0,1-1.4-.3,3.119,3.119,0,0,1-1.55-1.591,2.251,2.251,0,0,1-.26-1.315,2.251,2.251,0,0,1,.26-1.315A3.189,3.189,0,0,1,56-475.057a2.8,2.8,0,0,0,.69-.479c.1-.138.122-.446.122-1.575v-1.4l.325-.649a3.574,3.574,0,0,0,.325-.812,3.575,3.575,0,0,0-.325-.812l-.325-.649v-2.792l.463-.471c.3-.3.536-.471.649-.471h.187Zm-2.581,2.8-.024,1.38-.373.2a4.549,4.549,0,0,0-1.721,1.891,4.513,4.513,0,0,0,2.751,6.355,5.408,5.408,0,0,0,2.6,0,4.629,4.629,0,0,0,3.052-3.052,5.407,5.407,0,0,0,0-2.6,4.768,4.768,0,0,0-2.021-2.6l-.381-.2v-1.355c0-1.1.024-1.364.114-1.364a6.954,6.954,0,0,1,1.851.86,7.283,7.283,0,0,1,2.654,3.182,6.447,6.447,0,0,1,.536,2.776,6.447,6.447,0,0,1-.536,2.776,7.345,7.345,0,0,1-3.693,3.758,6.274,6.274,0,0,1-2.873.56,5.67,5.67,0,0,1-3.06-.69,7.087,7.087,0,0,1-3.847-4.659,8.429,8.429,0,0,1,0-3.49,7.2,7.2,0,0,1,4.57-4.983,4.278,4.278,0,0,1,.43-.138S55.547-478.417,55.531-477.662Z" fill="#16becf"/>
      <path id="Path_2057-2" data-name="Path 2057" d="M184-455.351v.649h9.09V-456H184Z" transform="translate(-132.381 -44.104)" fill="#16becf"/>
      <path id="Path_2058-2" data-name="Path 2058" d="M168-407.351v.649h14.285V-408H168Z" transform="translate(-117.68 -88.208)" fill="#16becf"/>
      <path id="Path_2059-2" data-name="Path 2059" d="M240.952-119.915a1.285,1.285,0,0,0-.373,2.086,1.224,1.224,0,0,0,1.8,0A1.286,1.286,0,0,0,240.952-119.915Z" transform="translate(-184.017 -352.804)" fill="#16becf"/>
    </g>
  </g>
</svg>
