<svg xmlns="http://www.w3.org/2000/svg" width="83" height="84" viewBox="0 0 83 84">
  <g id="_03_Fraud_prevention" data-name="03 Fraud prevention" transform="translate(-9)">
    <ellipse id="Ellipse_64" data-name="Ellipse 64" cx="41.5" cy="42" rx="41.5" ry="42" transform="translate(9)" fill="#e4fcfe"/>
    <g id="fraud" transform="translate(29.961 533.708)">
      <path id="Path_2062" data-name="Path 2062" d="M15.638-511.684a17.16,17.16,0,0,0-9.553,3.934A17.189,17.189,0,0,0,.116-496.729a24.64,24.64,0,0,0,.048,4.405,17.216,17.216,0,0,0,3.416,8.108,21.528,21.528,0,0,0,3.144,3.12,17.439,17.439,0,0,0,8.4,3.36,24.608,24.608,0,0,0,3.91,0,17.649,17.649,0,0,0,7.254-2.594,8.032,8.032,0,0,1,.718-.439,4.7,4.7,0,0,1,.607.567c.614.63.91.79,1.413.79.327,0,.375.04,1.157.814s.822.83.822,1.165a1.774,1.774,0,0,0,.112.6c.064.144,1.293,1.428,2.769,2.9,3.1,3.08,3.064,3.056,4.3,3.056a2.387,2.387,0,0,0,2.011-.806,2.872,2.872,0,0,0,.535-2.921c-.16-.431-.375-.67-2.889-3.2-2.857-2.865-3.088-3.049-3.631-2.945-.207.04-.311-.04-1.077-.806-.678-.678-.838-.886-.806-1.022.1-.4-.128-.846-.766-1.508l-.63-.638.447-.678a20.3,20.3,0,0,0,1.843-3.847,17.1,17.1,0,0,0-2.689-15.9,23.933,23.933,0,0,0-2.713-2.769,17.213,17.213,0,0,0-8.148-3.615A27.922,27.922,0,0,0,15.638-511.684Zm3.583,1.6a15.55,15.55,0,0,1,9.026,4.589,15.563,15.563,0,0,1,4.246,8.491,19.078,19.078,0,0,1-.04,4.908,15.637,15.637,0,0,1-13.287,12.888,19.427,19.427,0,0,1-4.2,0,15.657,15.657,0,0,1-10.079-5.746,15.723,15.723,0,0,1-3.352-10.829,15.634,15.634,0,0,1,4.166-9.5A15.58,15.58,0,0,1,19.221-510.088Zm10.7,28.283-.918.918-.4-.407-.407-.4.9-.918.9-.926.423.407.415.407Zm2.195,1.317.67.678-.431.439-.431.439-.7-.694-.7-.694.415-.423a3.671,3.671,0,0,1,.463-.423A8.741,8.741,0,0,1,32.118-480.489Zm2.155,3.033-.918.918-.439-.439-.439-.439.918-.918.918-.918.439.439.439.439Zm5.115,3.464a1.289,1.289,0,0,1-1.221,1.684,1.581,1.581,0,0,1-.607-.112,23.254,23.254,0,0,1-1.692-1.6L34.392-475.5l.918-.918.918-.918L37.76-475.8A10.1,10.1,0,0,1,39.388-473.993Z" transform="translate(0)" fill="#16becf"/>
      <path id="Path_2063" data-name="Path 2063" d="M46.839-476.763a14.479,14.479,0,0,0-8.882,4.661,14.383,14.383,0,0,0-.064,19.009,14.562,14.562,0,0,0,7.278,4.413,15.151,15.151,0,0,0,6.951-.008,14.3,14.3,0,0,0,10.51-16.847,14.437,14.437,0,0,0-4.525-7.765,14.378,14.378,0,0,0-7.757-3.464A20.636,20.636,0,0,0,46.839-476.763Zm4.349,1.588a12.9,12.9,0,0,1,8.97,6.927,12.745,12.745,0,0,1,0,11.38,12.945,12.945,0,0,1-8.986,6.919,16.068,16.068,0,0,1-4.03.16,13.111,13.111,0,0,1-8.946-5.275,16.763,16.763,0,0,1-1.772-3.471,12.784,12.784,0,0,1,.6-9.521,12.961,12.961,0,0,1,9.7-7.238A16.789,16.789,0,0,1,51.188-475.175Z" transform="translate(-31.56 -32.088)" fill="#16becf"/>
      <path id="Path_2064" data-name="Path 2064" d="M107.875-434.691a1.458,1.458,0,0,0-.5.287,6.348,6.348,0,0,0-.9,2.2l-.215.846-.726.3c-1.947.79-2.929,1.828-2.929,3.112a1.871,1.871,0,0,0,.215.966,4.771,4.771,0,0,0,1.716,1.66c.3.176.495.335.495.415s-.04.144-.088.144a1.393,1.393,0,0,0-.359.128c-.527.247-.758,1.221-.6,2.5a3.6,3.6,0,0,0,1.006,2.155c.407.431.439.487.439.854a4.373,4.373,0,0,0,1.516,3.176,17.013,17.013,0,0,1,1.141,1.309c1.125,1.54,1.548,1.732,3.647,1.676,1.676-.048,2-.207,2.889-1.413a21.078,21.078,0,0,1,1.381-1.6,4.325,4.325,0,0,0,1.357-2.195,4.6,4.6,0,0,0,.12-.91c0-.415.016-.447.439-.894a4.1,4.1,0,0,0,1.045-3.248c-.064-.782-.263-1.229-.63-1.4a1.544,1.544,0,0,0-.367-.136c-.048,0-.088-.064-.088-.144s.207-.247.559-.447c2.051-1.149,2.474-3.056,1.006-4.461a5.964,5.964,0,0,0-2.059-1.253l-.718-.287-.192-.742a6.423,6.423,0,0,0-.95-2.3,1.513,1.513,0,0,0-1.213-.383,2.68,2.68,0,0,0-.766.407,9.517,9.517,0,0,1-1.014.614,1.923,1.923,0,0,1-1.077.255,2.954,2.954,0,0,1-1.915-.774C108.817-434.81,108.45-434.9,107.875-434.691Zm1.947,2.306a3.885,3.885,0,0,0,2.4.279,5.764,5.764,0,0,0,1.9-.894c.192-.16.375-.271.415-.247a5.9,5.9,0,0,1,.335.894,14.193,14.193,0,0,1,.575,2.785l.048.487-.423.223a8.321,8.321,0,0,1-7.278-.024l-.391-.192.056-.495a13.959,13.959,0,0,1,.8-3.432l.128-.3.5.367A6.722,6.722,0,0,0,109.822-432.384ZM106-429.057c-.032.814.024.91.854,1.341a9.4,9.4,0,0,0,4.637,1.125,9.66,9.66,0,0,0,4.4-1.037c.974-.495,1.029-.567,1.029-1.4v-.686l.583.3a2.849,2.849,0,0,1,1.365,1.285,1.361,1.361,0,0,1-.694,1.205c-2.3,1.716-7.773,2.155-11.532.918a4.057,4.057,0,0,1-2.49-1.588c-.168-.351-.168-.351-.016-.7a2.831,2.831,0,0,1,1.317-1.141,4.478,4.478,0,0,1,.535-.271A2.379,2.379,0,0,1,106-429.057Zm2.322,4.972a14.314,14.314,0,0,0,1.572.176l.878.056v.455c0,.431-.016.463-.215.543a4.19,4.19,0,0,1-1.636.279,2.008,2.008,0,0,1-1.2-.247c-.718-.351-1.117-.782-1.181-1.277l-.048-.391.559.144C107.364-424.268,107.939-424.149,108.322-424.085Zm8.068-.024a2.1,2.1,0,0,1-1.245,1.309,2.306,2.306,0,0,1-1.133.231,4.5,4.5,0,0,1-1.66-.287c-.112-.056-.144-.176-.144-.535v-.463l.822-.056a15.763,15.763,0,0,0,2.809-.439,4.48,4.48,0,0,1,.583-.128A1.63,1.63,0,0,1,116.39-424.109Zm-9.417,2.546a5.179,5.179,0,0,0,3.934.12l.527-.192.591.2a4.671,4.671,0,0,0,5.052-.974l.495-.535-.056.511c-.088.846-.351,1.237-1.277,1.947-.207.16-.215.192-.231,1.077-.024,1.205-.128,1.428-1.141,2.49a18.968,18.968,0,0,0-1.325,1.548c-.71.974-.79,1.013-2.195.974a3.309,3.309,0,0,1-1.277-.144,5.17,5.17,0,0,1-.67-.8,16.559,16.559,0,0,0-1.221-1.436c-1.157-1.205-1.253-1.413-1.269-2.7-.008-.814-.016-.83-.231-1a2.52,2.52,0,0,1-1.285-2l-.048-.463.487.527A3.5,3.5,0,0,0,106.973-421.563Z" transform="translate(-94.376 -70.777)" fill="#16becf"/>
      <path id="Path_2065" data-name="Path 2065" d="M214.49-229.81a2.4,2.4,0,0,1-.726.367c-.6.136-.838.559-.615,1.053.207.447.79.487,1.652.1.942-.423,1.325-1.133.854-1.6C215.36-230.193,214.929-230.161,214.49-229.81Z" transform="translate(-196.027 -259.138)" fill="#16becf"/>
    </g>
  </g>
</svg>
