<?xml version="1.0" encoding="UTF-8"?>
<svg width="74px" height="60px" viewBox="0 0 74 60" version="1.1" xmlns="http://www.w3.org/2000/svg" xmlns:xlink="http://www.w3.org/1999/xlink">
    <!-- Generator: sketchtool 60.1 (101010) - https://sketch.com -->
    <title>04A6BA02-033B-40DF-9008-F690AFEDACAF</title>
    <desc>Created with sketchtool.</desc>
    <g id="Services-/-Blockchain-Development-&amp;-Consulting" stroke="none" stroke-width="1" fill="none" fill-rule="evenodd">
        <g id="Blockchain-Development-&amp;-Consulting-/-1440px" transform="translate(-134.000000, -899.000000)" fill="#FFFFFF">
            <g id="Module-|-Quote" transform="translate(70.000000, 819.000000)">
                <g id="SVG/&quot;" transform="translate(64.000000, 80.000000)">
                    <path d="M28.6121,0 L28.6121,13.6236 C23.7036,14.3079 20.0378,16.1742 17.6146,19.2224 C15.2536,22.2706 14.073,25.9409 14.073,30.2333 L30.0101,30.2333 L30.0101,60 L0,60 L0,32.4728 C0,23.0793 2.57851,15.5521 7.73552,9.89114 C12.9547,4.23017 19.9135,0.933126 28.6121,0 Z M72.602,0 L72.602,13.6236 C67.6935,14.3079 64.0277,16.1742 61.6045,19.2224 C59.2435,22.2706 58.063,25.9409 58.063,30.2333 L74,30.2333 L74,60 L43.9899,60 L43.9899,32.4728 C43.9899,23.0793 46.5684,15.5521 51.7254,9.89114 C56.9446,4.23017 63.9034,0.933126 72.602,0 Z"></path>
                </g>
            </g>
        </g>
    </g>
</svg>