<svg xmlns="http://www.w3.org/2000/svg" width="149.219" height="147.12" viewBox="0 0 149.219 147.12">
  <g id="_01_finger" data-name="01 finger" transform="translate(-488 -4831.495)">
    <g id="_1_finger" data-name="1 finger" transform="translate(492.676 4832.814)" opacity="0.93">
      <path id="Path_16369" data-name="Path 16369" d="M266.808,239.48A71.143,71.143,0,1,1,248.5,261.113,71.145,71.145,0,0,1,266.808,239.48Zm88.247,111.54a70.863,70.863,0,1,0-99.542-11.606A70.943,70.943,0,0,0,355.056,351.02Z" transform="translate(-241.675 -225.505)" fill="#16becf"/>
      <path id="Path_16370" data-name="Path 16370" d="M1637.543,537.1c.057,0,0-.444.042-.425-.7-1.371-4.5-6.862-5.221-7.969-.168,0-.265.208-.284.49,0,.034,2.767,4.113,2.745,4.134.651,1.009,1.79,2.693,2.392,3.74C1637.262,536.947,1637.367,537.1,1637.543,537.1Z" transform="translate(-1502.236 -501.206)" fill="#16becf"/>
      <path id="Path_16371" data-name="Path 16371" d="M416.141,283.076a71.143,71.143,0,0,0-7.435-19.26.344.344,0,0,1-.354.35h-.044a70.931,70.931,0,1,1-5.062-7.745.266.266,0,0,1,.058-.071l.012-.043a1.391,1.391,0,0,1,.084-.243.284.284,0,0,1,.13-.133,71.575,71.575,0,1,0,12.611,27.145Z" transform="translate(-273.401 -228.428)" fill="#16becf"/>
      <ellipse id="Ellipse_100" data-name="Ellipse 100" cx="2.538" cy="2.538" rx="2.538" ry="2.538" transform="matrix(0.784, -0.62, 0.62, 0.784, -1.434, 80.285)" fill="#16becf"/>
      <ellipse id="Ellipse_101" data-name="Ellipse 101" cx="2.538" cy="2.538" rx="2.538" ry="2.538" transform="matrix(0.784, -0.62, 0.62, 0.784, 4.045, 98.31)" fill="#16becf"/>
      <ellipse id="Ellipse_102" data-name="Ellipse 102" cx="2.538" cy="2.538" rx="2.538" ry="2.538" transform="matrix(0.784, -0.62, 0.62, 0.784, 86.961, 137.1)" fill="#16becf"/>
      <ellipse id="Ellipse_103" data-name="Ellipse 103" cx="2.538" cy="2.538" rx="2.538" ry="2.538" transform="matrix(0.784, -0.62, 0.62, 0.784, 67.136, 140.495)" fill="#16becf"/>
      <ellipse id="Ellipse_104" data-name="Ellipse 104" cx="2.538" cy="2.538" rx="2.538" ry="2.538" transform="translate(18.376 117.389) rotate(-12.85)" fill="#16becf"/>
      <ellipse id="Ellipse_105" data-name="Ellipse 105" cx="2.538" cy="2.538" rx="2.538" ry="2.538" transform="translate(5.403 97.636) rotate(-12.85)" fill="#16becf"/>
      <ellipse id="Ellipse_106" data-name="Ellipse 106" cx="2.538" cy="2.538" rx="2.538" ry="2.538" transform="matrix(0.784, -0.62, 0.62, 0.784, 115.117, 15.641)" fill="#16becf"/>
      <ellipse id="Ellipse_107" data-name="Ellipse 107" cx="2.538" cy="2.538" rx="2.538" ry="2.538" transform="matrix(0.784, -0.62, 0.62, 0.784, 115.118, 19.108)" fill="#16becf"/>
      <path id="Path_16372" data-name="Path 16372" d="M353.576,334.141a71.35,71.35,0,0,0-3.155-15.9h0a.069.069,0,0,0-.009-.028l-.009-.031h0c-.284-.757-3.464-8.737-3.446-8.734-.259-.548-.523-1.1-.8-1.637-.026-.05-1.618-3.92-2.036-4.928a2.536,2.536,0,0,0-3.066-3.934c-.888-1.094-2.965-3.626-2.95-3.624a71.475,71.475,0,1,0,15.47,38.818Zm-17.058,51.69a70.864,70.864,0,1,1-8.254-99.878c3.478,2.947,9.529,9.8,12.343,13.29a2.536,2.536,0,0,0,3.015,4.07c1.261,2.977,5.585,13.441,6.391,15.4A70.876,70.876,0,0,1,336.518,385.831Z" transform="translate(-215.6 -265.728)" fill="#16becf"/>
      <ellipse id="Ellipse_108" data-name="Ellipse 108" cx="2.538" cy="2.538" rx="2.538" ry="2.538" transform="translate(105.533 131.195) rotate(-49.72)" fill="#16becf"/>
      <ellipse id="Ellipse_109" data-name="Ellipse 109" cx="2.538" cy="2.538" rx="2.538" ry="2.538" transform="matrix(0.784, -0.62, 0.62, 0.784, 39.789, 141.82)" fill="#16becf"/>
      <ellipse id="Ellipse_110" data-name="Ellipse 110" cx="2.538" cy="2.538" rx="2.538" ry="2.538" transform="matrix(0.784, -0.62, 0.62, 0.784, 16.613, 127.901)" fill="#16becf"/>
      <ellipse id="Ellipse_111" data-name="Ellipse 111" cx="1.012" cy="1.012" rx="1.012" ry="1.012" transform="matrix(0.784, -0.62, 0.62, 0.784, 32.037, 137.128)" fill="#16becf"/>
      <ellipse id="Ellipse_112" data-name="Ellipse 112" cx="1.012" cy="1.012" rx="1.012" ry="1.012" transform="matrix(0.784, -0.62, 0.62, 0.784, 79.508, 139.76)" fill="#16becf"/>
      <ellipse id="Ellipse_113" data-name="Ellipse 113" cx="1.012" cy="1.012" rx="1.012" ry="1.012" transform="matrix(0.784, -0.62, 0.62, 0.784, 59.712, 140.226)" fill="#16becf"/>
      <ellipse id="Ellipse_114" data-name="Ellipse 114" cx="1.012" cy="1.012" rx="1.012" ry="1.012" transform="matrix(0.784, -0.62, 0.62, 0.784, 1.145, 59.008)" fill="#16becf"/>
      <ellipse id="Ellipse_115" data-name="Ellipse 115" cx="1.012" cy="1.012" rx="1.012" ry="1.012" transform="translate(112.918 127.473) rotate(-49.72)" fill="#16becf"/>
      <ellipse id="Ellipse_116" data-name="Ellipse 116" cx="1.012" cy="1.012" rx="1.012" ry="1.012" transform="matrix(0.784, -0.62, 0.62, 0.784, 122.226, 20.538)" fill="#16becf"/>
      <ellipse id="Ellipse_117" data-name="Ellipse 117" cx="1.012" cy="1.012" rx="1.012" ry="1.012" transform="matrix(0.784, -0.62, 0.62, 0.784, 125.441, 24.323)" fill="#16becf"/>
      <ellipse id="Ellipse_118" data-name="Ellipse 118" cx="1.012" cy="1.012" rx="1.012" ry="1.012" transform="translate(102.288 135.024) rotate(-49.72)" fill="#16becf"/>
      <ellipse id="Ellipse_119" data-name="Ellipse 119" cx="1.012" cy="1.012" rx="1.012" ry="1.012" transform="translate(24.967 123.457) rotate(-12.85)" fill="#16becf"/>
      <ellipse id="Ellipse_120" data-name="Ellipse 120" cx="1.012" cy="1.012" rx="1.012" ry="1.012" transform="translate(29.882 127.198) rotate(-12.85)" fill="#16becf"/>
      <ellipse id="Ellipse_121" data-name="Ellipse 121" cx="1.012" cy="1.012" rx="1.012" ry="1.012" transform="translate(14.782 112.118) rotate(-12.85)" fill="#16becf"/>
      <ellipse id="Ellipse_122" data-name="Ellipse 122" cx="1.012" cy="1.012" rx="1.012" ry="1.012" transform="translate(10.798 105.933) rotate(-12.85)" fill="#16becf"/>
      <circle id="Ellipse_123" data-name="Ellipse 123" cx="61.683" cy="61.683" r="61.683" transform="translate(8.536 10.189)" fill="#16becf"/>
    </g>
    <g id="finger-print" transform="translate(528.5 5320)">
      <path id="Path_16373" data-name="Path 16373" d="M2.491-439.6a3.8,3.8,0,0,0-1.751,1.564A2.884,2.884,0,0,0,.5-436.669a2.853,2.853,0,0,0,1.417,2.646l.655.4v8.647H20.748v-2H4.576v-6.643l.655-.4a2.86,2.86,0,0,0,1.417-2.66,2.368,2.368,0,0,0-.4-1.6A3.2,3.2,0,0,0,2.491-439.6Zm1.831,2.179a.939.939,0,0,1,.227,1.256,1.008,1.008,0,0,1-.976.615,1.165,1.165,0,0,1-1.136-1.19A1.5,1.5,0,0,1,3.574-437.8,1.27,1.27,0,0,1,4.322-437.417Z" transform="translate(0 -0.191)" fill="#fff"/>
      <path id="Path_16374" data-name="Path 16374" d="M64-439v1H78.5l1.47,1.47,1.47,1.47.695-.7.708-.708-1.764-1.764L79.3-440H64Z" transform="translate(-55.013)" fill="#fff"/>
      <path id="Path_16375" data-name="Path 16375" d="M99.027-439.6a3.445,3.445,0,0,0-2.072,1.737c-.08.267-.16.281-3.408.281H90.206l-.027,2.406-.04,2.406-.668-.481a13.581,13.581,0,0,0-3.876-1.8,13.659,13.659,0,0,0-5.747-.027,11.787,11.787,0,0,0-8.58,8.821,14.73,14.73,0,0,0-.013,5.079l.2.708H62.179l-.388-.6a3.084,3.084,0,0,0-3.368-1.4,2.342,2.342,0,0,0-1.43.855,2.87,2.87,0,0,0-.815,3.194,3.176,3.176,0,0,0,4.959,1.4,3.441,3.441,0,0,0,.735-.922l.267-.521H67.2c4.491,0,5.079.027,5.146.214a12.517,12.517,0,0,0,1.884,2.566,11.608,11.608,0,0,0,3.141,2.379l.735.374-.4.08a3.253,3.253,0,0,0-2.152,1.737c-.227.428-.254.815-.241,4.477,0,3.7.027,4.09.294,5.079a12.083,12.083,0,0,0,3.154,5.413l.748.722v4.892h2v-5.814l-.989-.909a10.035,10.035,0,0,1-2.539-3.528c-.6-1.443-.762-2.874-.722-6.389.04-2.927.053-3.154.307-3.395a1.03,1.03,0,0,1,1.51-.08l.428.361v3.716h2v-7.591c0-8.18,0-8.086.722-8.42a1.042,1.042,0,0,1,1.283.267c.254.281.267.454.267,6.415v6.121h1.978l.053-1.337c.04-1.484.2-1.791.989-1.951a.868.868,0,0,1,.829.281c.428.361.428.361.428,1.684v1.323h2v-1.176c0-1.31.16-1.738.722-2a1.042,1.042,0,0,1,1.283.267c.227.254.267.468.267,1.6v1.31h2v-1.176a2.871,2.871,0,0,1,.254-1.59,1.1,1.1,0,0,1,1.844-.053c.12.16.16,1.417.174,4.838,0,4.2-.027,4.718-.267,5.667a10,10,0,0,1-3.328,5.212l-.682.535v5.814h2v-4.7l1.042-1.109a10.881,10.881,0,0,0,2.366-3.635c.789-1.844.869-2.539.869-7.9v-4.785l-.347-.7a3.068,3.068,0,0,0-4.3-1.3l-.561.321-.695-.361a3.141,3.141,0,0,0-2.98.013l-.642.361-.414-.254a3.313,3.313,0,0,0-2.272-.441l-.615.134v-2.085l.708-.4a8.685,8.685,0,0,0,2.753-2.94,7.333,7.333,0,0,0-1.31-8.581,7.33,7.33,0,0,0-9.182-1.1,7.357,7.357,0,0,0-3.341,7.645,9.438,9.438,0,0,0,1.417,3.181l.267.321.495-.4a6.9,6.9,0,0,0,.748-.668c.254-.267.241-.294-.107-.748a5.429,5.429,0,0,1-.6-1.109,5.434,5.434,0,0,1,4.183-7.271,5.349,5.349,0,0,1,5.734,3.047,5.54,5.54,0,0,1-.2,4.985,6.378,6.378,0,0,1-1.443,1.6,4.465,4.465,0,0,1-.12-1.443A3.776,3.776,0,0,0,85.448-423a3.087,3.087,0,0,0-5.012-.722c-.842.9-.855.949-.9,5.226l-.04,3.916-.294-.08a11.1,11.1,0,0,1-4.758-3.969,9.707,9.707,0,0,1,2.125-12.617,11.883,11.883,0,0,1,3.742-1.885,12.985,12.985,0,0,1,4.544-.053,9.92,9.92,0,0,1,7.043,6.5,11.137,11.137,0,0,1,.254,5.012,11.154,11.154,0,0,1-1.43,3.355c-.16.227-.254.428-.214.468a6.5,6.5,0,0,0,1.577,1.043,4.934,4.934,0,0,0,.6-.855l.495-.8h11.989v6.749l-.535.307a3.283,3.283,0,0,0-1.51,3.154,3.3,3.3,0,0,0,1.631,2.245,3.064,3.064,0,0,0,4.558-2.713,2.92,2.92,0,0,0-1.55-2.74l-.588-.348v-8.661h-6.629c-6.242,0-6.616-.013-6.549-.241a13.173,13.173,0,0,0,.134-5.346,12.269,12.269,0,0,0-1.443-3.7l-.481-.8v-5.012h4.651l.16.4a3.594,3.594,0,0,0,.735.922,2.994,2.994,0,0,0,4.09.027,2.813,2.813,0,0,0,1.056-2.326,2.976,2.976,0,0,0-1.644-2.78A3.667,3.667,0,0,0,99.027-439.6Zm1.644,2.3a1.2,1.2,0,0,1-.107,1.524,1.028,1.028,0,0,1-1.484.013,1.083,1.083,0,0,1,.869-1.9A1.323,1.323,0,0,1,100.671-437.3ZM59.88-420.219a1.015,1.015,0,0,1,.053,1.55A1.146,1.146,0,0,1,58-419.538a1.5,1.5,0,0,1,1.136-1.069A1.27,1.27,0,0,1,59.88-420.219Zm46.885,10.505c.441.214.548.441.548,1.069a1.085,1.085,0,0,1-1.831.695.981.981,0,0,1-.294-1.163,1.385,1.385,0,0,1,1.029-.8A1.739,1.739,0,0,1,106.766-409.714Z" transform="translate(-48.073 -0.281)" fill="#fff"/>
      <path id="Path_16376" data-name="Path 16376" d="M376.306-439.6a3.16,3.16,0,0,0-2.072,4.263c.227.575,1.283,1.631,1.617,1.631.147,0,.187.294.187,1.27v1.27h-9.623v6.415H360v2h8.42v-6.415h9.623v-2.205c0-2.205,0-2.219.321-2.339a3.61,3.61,0,0,0,1.564-1.537,3.955,3.955,0,0,0,.08-2.513,3.369,3.369,0,0,0-1.47-1.577A3.667,3.667,0,0,0,376.306-439.6Zm1.644,2.3a1.168,1.168,0,0,1-.829,1.858,1.129,1.129,0,0,1-.735-1.965.75.75,0,0,1,.829-.254A1.366,1.366,0,0,1,377.95-437.3Z" transform="translate(-311.452 -0.281)" fill="#fff"/>
      <path id="Path_16377" data-name="Path 16377" d="M80-407v1h2.138v-2H80Z" transform="translate(-68.875 -27.723)" fill="#fff"/>
      <path id="Path_16378" data-name="Path 16378" d="M112-407v1h2.138v-2H112Z" transform="translate(-96.598 -27.723)" fill="#fff"/>
      <path id="Path_16379" data-name="Path 16379" d="M144-407v1h2.138v-2H144Z" transform="translate(-124.321 -27.723)" fill="#fff"/>
      <path id="Path_16380" data-name="Path 16380" d="M96-375v1h2.138v-2H96Z" transform="translate(-82.736 -55.446)" fill="#fff"/>
      <path id="Path_16381" data-name="Path 16381" d="M128-375v1h2.138v-2H128Z" transform="translate(-110.459 -55.446)" fill="#fff"/>
      <path id="Path_16382" data-name="Path 16382" d="M54.06-262.931v1.069H42.3v6.656l-.4.16a3.642,3.642,0,0,0-1.6,1.938,3.232,3.232,0,0,0,1.831,3.769,4.144,4.144,0,0,0,2.352,0,3.259,3.259,0,0,0,1.818-3.889,3.65,3.65,0,0,0-1.59-1.818l-.4-.16v-4.651H56.065V-264h-2Zm-9.917,9.97a1.07,1.07,0,0,1-.8,1.791,1.041,1.041,0,0,1-1.123-.869A1.093,1.093,0,0,1,44.143-252.96Z" transform="translate(-34.381 -152.477)" fill="#fff"/>
      <path id="Path_16383" data-name="Path 16383" d="M380.858-155.189v4.811h-2.272v-4.277h-2v4.277h-1.8l-1.43-1.43-1.443-1.443-.7.708-.708.695,1.737,1.737,1.737,1.737h15.437v-2H387.14v-6.415h-2v6.415h-2.272V-160h-2Z" transform="translate(-320.549 -242.577)" fill="#fff"/>
      <path id="Path_16384" data-name="Path 16384" d="M264-103v1h1.871v-2H264Z" transform="translate(-228.283 -291.093)" fill="#fff"/>
      <path id="Path_16385" data-name="Path 16385" d="M293-103.084v1h2.018l-.04-.976-.04-.962-.962-.04L293-104.1Z" transform="translate(-253.407 -291.006)" fill="#fff"/>
    </g>
  </g>
</svg>
