<svg width="51" height="51" viewBox="0 0 51 51" fill="none" xmlns="http://www.w3.org/2000/svg">
<path d="M38.2336 0.0178934C33.717 0.322766 29.272 1.30508 25.0476 2.93189C13.1066 7.48489 4.96756 16.6119 1.50056 29.3629C0.485571 33.0042 -0.0192428 36.7688 0.000560766 40.5489C-0.00943923 44.6179 0.662561 47.4429 1.90656 48.6089C3.2363 49.5798 4.80851 50.1643 6.44956 50.2979C8.97266 50.5352 11.5125 50.5352 14.0356 50.2979C22.1911 49.4136 29.925 46.2203 36.3286 41.0929C38.144 39.5333 39.8286 37.8276 41.3656 35.9929C45.4116 30.8099 48.2069 24.763 49.5336 18.3229C50.5806 13.3939 50.6996 8.00091 49.8196 4.69291C49.0586 1.79291 47.7556 0.792912 43.9626 0.192912C42.0578 0.0252184 40.145 -0.033229 38.2336 0.0178934V0.0178934ZM42.1256 2.4279C44.6146 2.6059 46.4516 3.12791 46.8866 3.77091C47.3677 4.58364 47.6707 5.48927 47.7756 6.4279C47.9835 8.22431 48.0397 10.035 47.9436 11.8409L47.8646 12.2159L43.0246 7.3469L38.1846 2.47792L38.6286 2.41889C39.7923 2.32138 40.9623 2.32408 42.1256 2.42692V2.4279ZM41.4146 9.11491L47.6146 15.3149L47.3776 16.5989C47.0916 18.1099 46.4496 20.7279 46.0246 22.0709C44.824 25.7352 43.115 29.2128 40.9476 32.4019C39.2212 34.8374 37.2047 37.0538 34.9426 39.0019C29.5704 43.3485 23.1739 46.2457 16.3636 47.4169L14.9906 47.6839L8.83756 41.5209L2.68456 35.3679L2.97056 33.8369C4.07249 27.2839 6.78429 21.1072 10.8626 15.8609C12.2405 14.2264 13.7394 12.6977 15.3466 11.2879C20.587 7.02614 26.8349 4.18282 33.4906 3.03089C34.0088 2.90921 34.5384 2.8422 35.0706 2.83091C35.1526 2.87191 38.0066 5.6969 41.4146 9.1139V9.11491ZM11.6946 47.9909C9.93812 48.0908 8.17624 48.0312 6.43056 47.8129C5.45746 47.6961 4.51727 47.3871 3.66456 46.9039C2.93523 46.0163 2.52187 44.9113 2.48956 43.7629C2.31719 42.2913 2.26435 40.8081 2.33156 39.3279L2.40056 38.5479L7.07256 43.2199C9.64956 45.7979 11.7236 47.9409 11.6936 47.9899L11.6946 47.9909Z" fill="#16BECF"/>
<path d="M25.0963 7.65205C19.3784 9.86314 14.4172 13.6723 10.8043 18.6251C9.35232 20.6991 8.08832 23.168 8.08832 23.919C8.0758 24.0753 8.09836 24.2323 8.15436 24.3787C8.21037 24.525 8.2984 24.657 8.412 24.765C8.52561 24.8729 8.66191 24.9541 8.81094 25.0026C8.95997 25.051 9.11795 25.0655 9.27332 25.0451C9.95532 25.0451 10.1733 24.8081 10.9523 23.2181C11.851 21.3243 13.015 19.5683 14.4093 18.0031C17.7434 14.3058 21.9071 11.4524 26.5583 9.67707C27.6253 9.27707 27.8223 9.14405 28.0303 8.67005C28.1155 8.43503 28.1251 8.17929 28.0579 7.93852C27.9907 7.69775 27.8499 7.48397 27.6553 7.32707C27.1803 6.93107 26.7563 6.98005 25.0963 7.65205Z" fill="#16BECF"/>
<path d="M25.6207 14.4378C25.446 14.5459 25.2988 14.6932 25.1909 14.8679C25.0829 15.0427 25.0171 15.2402 24.9987 15.4448C24.9987 15.9188 25.2987 16.2938 26.9987 18.0028L28.7987 19.8108L26.9717 21.6378L25.1547 23.4648L23.2547 21.5878L21.3677 19.7108H20.8677C20.6002 19.6913 20.3344 19.7654 20.1155 19.9202C19.8966 20.0751 19.7383 20.3012 19.6677 20.5598C19.4897 21.2018 19.6477 21.4288 21.5837 23.3648L23.4187 25.1908L21.5917 27.0178L19.7647 28.8348L17.9177 27.0078C15.9917 25.1018 15.8037 24.9728 15.1517 25.1018C14.8769 25.158 14.6321 25.3123 14.4629 25.5359C14.2938 25.7595 14.2119 26.0372 14.2327 26.3168C14.2327 26.7608 14.2327 26.7608 16.1327 28.6678L18.0327 30.5738L16.7787 31.8478L15.5247 33.1218V33.6358C15.4999 33.7944 15.5179 33.9568 15.577 34.1061C15.6361 34.2554 15.734 34.3861 15.8607 34.4848C15.9481 34.5988 16.0625 34.6891 16.1937 34.7478C16.3248 34.8065 16.4684 34.8316 16.6117 34.8208C16.8239 34.8233 17.0349 34.7863 17.2337 34.7118C17.7193 34.3255 18.1781 33.9066 18.6066 33.4578L19.7717 32.3018L21.6777 34.2078C23.5647 36.0848 23.5937 36.1078 24.0087 36.1078C24.1955 36.1226 24.3832 36.0929 24.5563 36.0211C24.7294 35.9493 24.8831 35.8375 25.0046 35.6948C25.1261 35.5521 25.212 35.3826 25.2553 35.2003C25.2986 35.0179 25.2981 34.8279 25.2537 34.6458C25.1947 34.3458 24.8787 33.9648 23.3477 32.4238L21.5107 30.5768L23.3277 28.7498L25.1447 26.9228L26.9816 28.7398C28.9566 30.7058 29.1447 30.8238 29.8757 30.5868C30.0608 30.5371 30.2292 30.4384 30.3631 30.3012C30.497 30.1639 30.5915 29.9932 30.6367 29.8068C30.8247 29.1448 30.6367 28.8688 28.7307 26.9428L26.9427 25.1428L28.7596 23.3158L30.5867 21.4888L32.4637 23.3658C34.3507 25.2428 34.3507 25.2428 34.7947 25.2428C35.0091 25.2615 35.2246 25.2214 35.4179 25.1268C35.6113 25.0322 35.7752 24.8867 35.892 24.7059C36.0089 24.5251 36.0742 24.3159 36.081 24.1007C36.0878 23.8856 36.0358 23.6726 35.9307 23.4848C35.3401 22.786 34.7136 22.1185 34.0537 21.4848L32.3156 19.7568L33.3927 18.6708C34.6867 17.3568 34.7857 17.2188 34.7857 16.6658C34.8017 16.4203 34.7343 16.1765 34.5946 15.974C34.4549 15.7714 34.2509 15.622 34.0157 15.5498C33.3637 15.3618 33.0967 15.5108 31.7637 16.8438L30.5387 18.0788L28.7387 16.2908C27.7387 15.3028 26.8327 14.4438 26.7137 14.3848C26.5389 14.3123 26.3502 14.2794 26.1612 14.2886C25.9722 14.2978 25.7876 14.3487 25.6207 14.4378Z" fill="#16BECF"/>
</svg>
