<svg xmlns="http://www.w3.org/2000/svg" width="149.219" height="147.12" viewBox="0 0 149.219 147.12">
  <g id="_02_secure" data-name="02 secure" transform="translate(-488 -4831)">
    <g id="_2_secure" data-name="2 secure" transform="translate(492.676 4832.319)" opacity="0.93">
      <path id="Path_16369" data-name="Path 16369" d="M266.808,239.48A71.143,71.143,0,1,1,248.5,261.113,71.145,71.145,0,0,1,266.808,239.48Zm88.247,111.54a70.863,70.863,0,1,0-99.542-11.606A70.943,70.943,0,0,0,355.056,351.02Z" transform="translate(-241.675 -225.505)" fill="#16becf"/>
      <path id="Path_16370" data-name="Path 16370" d="M1637.543,537.1c.057,0,0-.444.042-.425-.7-1.371-4.5-6.862-5.221-7.969-.168,0-.265.208-.284.49,0,.034,2.767,4.113,2.745,4.134.651,1.009,1.79,2.693,2.392,3.74C1637.262,536.947,1637.367,537.1,1637.543,537.1Z" transform="translate(-1502.236 -501.206)" fill="#16becf"/>
      <path id="Path_16371" data-name="Path 16371" d="M416.141,283.076a71.143,71.143,0,0,0-7.435-19.26.344.344,0,0,1-.354.35h-.044a70.931,70.931,0,1,1-5.062-7.745.266.266,0,0,1,.058-.071l.012-.043a1.391,1.391,0,0,1,.084-.243.284.284,0,0,1,.13-.133,71.575,71.575,0,1,0,12.611,27.145Z" transform="translate(-273.401 -228.428)" fill="#16becf"/>
      <ellipse id="Ellipse_100" data-name="Ellipse 100" cx="2.538" cy="2.538" rx="2.538" ry="2.538" transform="matrix(0.784, -0.62, 0.62, 0.784, -1.434, 80.285)" fill="#16becf"/>
      <ellipse id="Ellipse_101" data-name="Ellipse 101" cx="2.538" cy="2.538" rx="2.538" ry="2.538" transform="matrix(0.784, -0.62, 0.62, 0.784, 4.045, 98.31)" fill="#16becf"/>
      <ellipse id="Ellipse_102" data-name="Ellipse 102" cx="2.538" cy="2.538" rx="2.538" ry="2.538" transform="matrix(0.784, -0.62, 0.62, 0.784, 86.961, 137.1)" fill="#16becf"/>
      <ellipse id="Ellipse_103" data-name="Ellipse 103" cx="2.538" cy="2.538" rx="2.538" ry="2.538" transform="matrix(0.784, -0.62, 0.62, 0.784, 67.136, 140.495)" fill="#16becf"/>
      <ellipse id="Ellipse_104" data-name="Ellipse 104" cx="2.538" cy="2.538" rx="2.538" ry="2.538" transform="translate(18.376 117.389) rotate(-12.85)" fill="#16becf"/>
      <ellipse id="Ellipse_105" data-name="Ellipse 105" cx="2.538" cy="2.538" rx="2.538" ry="2.538" transform="translate(5.403 97.636) rotate(-12.85)" fill="#16becf"/>
      <ellipse id="Ellipse_106" data-name="Ellipse 106" cx="2.538" cy="2.538" rx="2.538" ry="2.538" transform="matrix(0.784, -0.62, 0.62, 0.784, 115.117, 15.641)" fill="#16becf"/>
      <ellipse id="Ellipse_107" data-name="Ellipse 107" cx="2.538" cy="2.538" rx="2.538" ry="2.538" transform="matrix(0.784, -0.62, 0.62, 0.784, 115.118, 19.108)" fill="#16becf"/>
      <path id="Path_16372" data-name="Path 16372" d="M353.576,334.141a71.35,71.35,0,0,0-3.155-15.9h0a.069.069,0,0,0-.009-.028l-.009-.031h0c-.284-.757-3.464-8.737-3.446-8.734-.259-.548-.523-1.1-.8-1.637-.026-.05-1.618-3.92-2.036-4.928a2.536,2.536,0,0,0-3.066-3.934c-.888-1.094-2.965-3.626-2.95-3.624a71.475,71.475,0,1,0,15.47,38.818Zm-17.058,51.69a70.864,70.864,0,1,1-8.254-99.878c3.478,2.947,9.529,9.8,12.343,13.29a2.536,2.536,0,0,0,3.015,4.07c1.261,2.977,5.585,13.441,6.391,15.4A70.876,70.876,0,0,1,336.518,385.831Z" transform="translate(-215.6 -265.728)" fill="#16becf"/>
      <ellipse id="Ellipse_108" data-name="Ellipse 108" cx="2.538" cy="2.538" rx="2.538" ry="2.538" transform="translate(105.533 131.195) rotate(-49.72)" fill="#16becf"/>
      <ellipse id="Ellipse_109" data-name="Ellipse 109" cx="2.538" cy="2.538" rx="2.538" ry="2.538" transform="matrix(0.784, -0.62, 0.62, 0.784, 39.789, 141.82)" fill="#16becf"/>
      <ellipse id="Ellipse_110" data-name="Ellipse 110" cx="2.538" cy="2.538" rx="2.538" ry="2.538" transform="matrix(0.784, -0.62, 0.62, 0.784, 16.613, 127.901)" fill="#16becf"/>
      <ellipse id="Ellipse_111" data-name="Ellipse 111" cx="1.012" cy="1.012" rx="1.012" ry="1.012" transform="matrix(0.784, -0.62, 0.62, 0.784, 32.037, 137.128)" fill="#16becf"/>
      <ellipse id="Ellipse_112" data-name="Ellipse 112" cx="1.012" cy="1.012" rx="1.012" ry="1.012" transform="matrix(0.784, -0.62, 0.62, 0.784, 79.508, 139.76)" fill="#16becf"/>
      <ellipse id="Ellipse_113" data-name="Ellipse 113" cx="1.012" cy="1.012" rx="1.012" ry="1.012" transform="matrix(0.784, -0.62, 0.62, 0.784, 59.712, 140.226)" fill="#16becf"/>
      <ellipse id="Ellipse_114" data-name="Ellipse 114" cx="1.012" cy="1.012" rx="1.012" ry="1.012" transform="matrix(0.784, -0.62, 0.62, 0.784, 1.145, 59.008)" fill="#16becf"/>
      <ellipse id="Ellipse_115" data-name="Ellipse 115" cx="1.012" cy="1.012" rx="1.012" ry="1.012" transform="translate(112.918 127.473) rotate(-49.72)" fill="#16becf"/>
      <ellipse id="Ellipse_116" data-name="Ellipse 116" cx="1.012" cy="1.012" rx="1.012" ry="1.012" transform="matrix(0.784, -0.62, 0.62, 0.784, 122.226, 20.538)" fill="#16becf"/>
      <ellipse id="Ellipse_117" data-name="Ellipse 117" cx="1.012" cy="1.012" rx="1.012" ry="1.012" transform="matrix(0.784, -0.62, 0.62, 0.784, 125.441, 24.323)" fill="#16becf"/>
      <ellipse id="Ellipse_118" data-name="Ellipse 118" cx="1.012" cy="1.012" rx="1.012" ry="1.012" transform="translate(102.288 135.024) rotate(-49.72)" fill="#16becf"/>
      <ellipse id="Ellipse_119" data-name="Ellipse 119" cx="1.012" cy="1.012" rx="1.012" ry="1.012" transform="translate(24.967 123.457) rotate(-12.85)" fill="#16becf"/>
      <ellipse id="Ellipse_120" data-name="Ellipse 120" cx="1.012" cy="1.012" rx="1.012" ry="1.012" transform="translate(29.882 127.198) rotate(-12.85)" fill="#16becf"/>
      <ellipse id="Ellipse_121" data-name="Ellipse 121" cx="1.012" cy="1.012" rx="1.012" ry="1.012" transform="translate(14.782 112.118) rotate(-12.85)" fill="#16becf"/>
      <ellipse id="Ellipse_122" data-name="Ellipse 122" cx="1.012" cy="1.012" rx="1.012" ry="1.012" transform="translate(10.798 105.933) rotate(-12.85)" fill="#16becf"/>
      <circle id="Ellipse_123" data-name="Ellipse 123" cx="61.683" cy="61.683" r="61.683" transform="translate(8.536 10.189)" fill="#16becf"/>
    </g>
    <g id="secure-shield" transform="translate(503.099 5391)">
      <path id="Path_16386" data-name="Path 16386" d="M58.453-511.387c-2.461,1.376-3.194,1.768-5.073,2.692A82.268,82.268,0,0,1,40.321-503.6c-1.6.462-1.9.583-2.14.854l-.281.311.04,7.343c.03,6.208.06,7.534.211,8.509A31.547,31.547,0,0,0,43.7-472.31c3.546,5.053,9.433,9.714,14.335,11.362,1.728.583,2.984.392,5.515-.8A33.506,33.506,0,0,0,75.922-472.31a31.547,31.547,0,0,0,5.545-14.275c.151-.974.181-2.3.211-8.509l.04-7.343-.281-.311c-.241-.271-.542-.392-2.14-.854a86.317,86.317,0,0,1-18.233-7.836A5.065,5.065,0,0,0,59.809-512,6.106,6.106,0,0,0,58.453-511.387Zm3.194,2.742a87.554,87.554,0,0,0,16.927,7.092l1.025.311v5.294c0,2.913-.05,6.037-.1,6.952a29.24,29.24,0,0,1-9.1,19.78,27.935,27.935,0,0,1-9.1,6.078,3.3,3.3,0,0,1-2.973,0,27.935,27.935,0,0,1-9.1-6.078A29.24,29.24,0,0,1,40.12-489c-.05-.914-.1-4.038-.1-6.952v-5.294l1.035-.311c1.868-.563,5.214-1.718,6.851-2.361a91.511,91.511,0,0,0,10.5-4.962,11.2,11.2,0,0,1,1.386-.713A16.935,16.935,0,0,1,61.648-508.645Z" transform="translate(0 0)" fill="#fff"/>
      <path id="Path_16387" data-name="Path 16387" d="M171.328-425.84a1.25,1.25,0,0,0-.763.794,1.2,1.2,0,0,0,.4,1.115,1.267,1.267,0,0,0,1.266-.02,1.067,1.067,0,0,0-.171-1.808,2.366,2.366,0,0,0-.432-.141C171.589-425.89,171.448-425.86,171.328-425.84Z" transform="translate(-119.324 -77.451)" fill="#fff"/>
      <path id="Path_16388" data-name="Path 16388" d="M86.7-412.669c-.141.05-.974.362-1.858.683s-2.19.8-2.9,1.035a6.155,6.155,0,0,0-1.527.653c-.311.311-.362.794-.321,3.164.03,1.768.06,2.1.211,2.321a1.006,1.006,0,0,0,1.386.331c.512-.261.593-.623.593-2.582V-408.8l.733-.231a29.384,29.384,0,0,0,4.912-1.949C88.712-411.765,87.788-413.031,86.7-412.669Z" transform="translate(-37.944 -89.296)" fill="#fff"/>
      <path id="Path_16389" data-name="Path 16389" d="M145.177-356.729a4.925,4.925,0,0,0-.8.392c-.221.151-2.883,2.752-5.927,5.8l-5.525,5.535-2.16-2.16c-2.582-2.572-2.8-2.712-4.269-2.712a2.551,2.551,0,0,0-1.406.251,3.51,3.51,0,0,0-1.728,4.671c.241.522.733,1.055,3.868,4.189,4.189,4.179,4.149,4.149,5.646,4.149,1.7,0,1.145.462,9.212-7.615,8.036-8.036,7.615-7.524,7.615-9.162a2.7,2.7,0,0,0-.261-1.457,3.754,3.754,0,0,0-1.7-1.7A4.391,4.391,0,0,0,145.177-356.729Zm1.527,2.089a1.329,1.329,0,0,1,.834,1.6c-.08.281-1.6,1.848-7.052,7.3-6.309,6.3-7,6.952-7.353,7.022a1.1,1.1,0,0,1-.814-.151,48.789,48.789,0,0,1-3.687-3.506c-3.446-3.456-3.6-3.647-3.426-4.33a1.418,1.418,0,0,1,.944-1.015c.763-.211.924-.09,3.657,2.622A34.13,34.13,0,0,0,132.6-342.5a1.167,1.167,0,0,0,.553.05q.271-.06,6.248-6.027c3.285-3.275,6.118-6.027,6.278-6.108A1.086,1.086,0,0,1,146.7-354.64Z" transform="translate(-76.578 -139.569)" fill="#fff"/>
      <path id="Path_16390" data-name="Path 16390" d="M310.73-165.844a7.578,7.578,0,0,0-.854,1.065,27.273,27.273,0,0,1-4.892,5.244c-1.015.854-1.215,1.115-1.2,1.587a.908.908,0,0,0,.542.9c.512.271.874.121,2.059-.854,2.521-2.059,5.957-6.078,5.957-6.962a1.114,1.114,0,0,0-.563-.984A1.515,1.515,0,0,0,310.73-165.844Z" transform="translate(-239.177 -311.298)" fill="#fff"/>
      <path id="Path_16391" data-name="Path 16391" d="M277.743-79.767a1.1,1.1,0,0,0-.352,1.728,1.08,1.08,0,0,0,1.778-1.155A1.082,1.082,0,0,0,277.743-79.767Z" transform="translate(-215.181 -388.735)" fill="#fff"/>
    </g>
  </g>
</svg>
