<svg width="64" height="44" viewBox="0 0 64 44" fill="none" xmlns="http://www.w3.org/2000/svg">
<path d="M14.4325 0.131902C13.2666 0.321822 12.1497 0.739612 11.146 1.3613C6.35556 4.22389 2.7214 11.7238 0.84205 22.59C0.27721 25.5762 0.00637195 28.6102 0.0334011 31.6489C-0.0889203 33.8254 0.125188 36.0078 0.668212 38.1194C1.79254 42.1812 4.51427 44.0448 8.13546 43.2295C11.0474 42.5824 14.4948 40.3186 19.3865 35.8556C20.6892 34.5146 22.269 33.4727 24.0161 32.8023C29.393 30.6809 37.4077 31.1467 41.751 33.8247C42.6275 34.4474 43.463 35.1258 44.2522 35.8556C50.5 41.5609 54.5821 43.7989 57.9171 43.333C60.842 42.9318 62.6461 40.6033 63.3804 36.2438C63.691 33.0821 63.6951 29.898 63.3925 26.7355C62.4714 18.8181 60.3309 11.3019 57.7917 7.07183C55.5266 3.31975 53.1491 1.19824 50.1748 0.319101C49.2243 0.052388 48.2347 -0.0483131 47.2498 0.0214528C45.0219 0.0214528 44.375 0.137938 39.2602 1.44413C35.2524 2.45354 33.2113 2.84091 31.818 2.84091C30.4611 2.84091 28.5575 2.49581 24.4001 1.46052C22.5579 1.00757 20.4053 0.502869 19.6208 0.360516C17.9158 -0.000152574 16.1628 -0.0773878 14.4325 0.131902ZM20.3067 3.50869C21.1283 3.68987 22.6963 4.07809 23.7791 4.3628C28.6829 5.64311 31.0345 6.00201 32.9761 5.77252C35.1501 5.50055 37.3008 5.06799 39.4107 4.47841C44.4511 3.23605 44.9865 3.13339 46.8779 3.14633C47.7837 3.06841 48.6958 3.18311 49.5538 3.48281C52.279 4.42751 54.2829 6.56193 56.2133 10.5573C58.1047 14.4776 59.4133 19.3677 60.3456 25.978C60.7171 29.3647 60.742 32.7804 60.42 36.1722C59.6857 39.7043 58.3443 40.8811 55.7904 40.2608C53.4258 39.6784 50.4135 37.6475 46.257 33.7902C43.8552 31.5781 42.5112 30.6722 40.3698 29.8707C37.9171 28.9382 35.3155 28.4559 32.6907 28.4472C29.6738 28.281 26.653 28.6939 23.7921 29.6637C21.2035 30.5264 19.3242 31.7205 16.5739 34.2949C14.6229 36.1422 12.4733 37.7692 10.1644 39.1461C7.10281 40.75 5.17416 40.6335 4.10346 38.7708C3.55003 37.7463 3.21521 36.6186 3.1201 35.4587C2.87197 32.2605 2.93454 29.046 3.30691 25.8598C4.4641 17.2824 6.916 10.1027 9.95252 6.42906C11.1888 4.8675 12.9015 3.75023 14.8312 3.2464C16.6572 2.99549 18.5141 3.08443 20.3075 3.50869H20.3067Z" fill="#16BECF"/>
<path d="M15.3127 7.36945C14.3987 7.50584 13.5511 7.92675 12.8911 8.57212C12.2847 9.20209 11.8636 9.98607 11.6734 10.8385C11.6734 11.1509 11.4883 11.2898 11.068 11.2898C10.7324 11.359 10.4083 11.4752 10.1054 11.6349C9.2156 12.0433 8.49635 12.7482 8.07114 13.6283C7.64593 14.5085 7.54135 15.5089 7.7754 16.4576C7.94359 17.2257 8.3271 17.9303 8.88125 18.4893C9.43536 19.0483 10.1373 19.4388 10.9054 19.6152C11.5895 19.812 11.6128 19.8232 11.6941 20.2744C11.8501 20.9186 12.1484 21.5198 12.5675 22.034C12.9865 22.5483 13.5155 22.9626 14.1158 23.2465C14.6512 23.4871 15.2306 23.615 15.8178 23.6226C16.405 23.6302 16.9875 23.5173 17.529 23.2906C18.0705 23.0641 18.5596 22.7288 18.9657 22.3056C19.3718 21.8825 19.6863 21.3804 19.8896 20.8309C20.0044 20.5562 20.086 20.269 20.1326 19.975C20.1326 19.8128 20.2485 19.7438 20.6083 19.686C21.2805 19.5393 21.9096 19.2397 22.4465 18.8105C22.9834 18.3813 23.4137 17.8341 23.7036 17.2116C24.1354 16.1502 24.1521 14.9657 23.7503 13.8927C23.4694 13.2125 23.0217 12.6135 22.4484 12.1508C21.8751 11.688 21.1945 11.3762 20.4691 11.244C20.2252 11.1862 20.1447 11.0939 20.0868 10.7471C19.914 9.92636 19.5035 9.17431 18.9062 8.58421C18.443 8.11709 17.8771 7.76411 17.2533 7.55324C16.6296 7.34238 15.9651 7.27944 15.3127 7.36945ZM16.7389 10.2027C17.2258 10.5038 17.3763 10.8929 17.4697 12.0412C17.5856 13.5942 17.9566 13.9496 19.4407 13.9496C20.4033 13.9496 20.8548 14.1342 21.18 14.6786C21.394 15.0378 21.4569 15.4669 21.3548 15.8722C21.2527 16.2775 20.9939 16.6259 20.6351 16.8415C20.2083 16.9631 19.7683 17.0329 19.3248 17.0494C17.8407 17.1305 17.4697 17.4886 17.4697 18.8612C17.4697 20.2338 16.9361 20.8852 15.8351 20.8852C14.85 20.8852 14.3398 20.2261 14.3398 18.9768C14.3398 17.4851 13.8295 16.9528 12.3921 16.9528C11.0585 16.9528 10.3977 16.4438 10.3977 15.4145C10.3977 14.4776 11.0697 13.9479 12.2762 13.9341C13.8528 13.9229 14.2472 13.5407 14.3398 11.9222C14.3977 10.9162 14.4323 10.8006 14.7454 10.4762C14.9924 10.2042 15.3276 10.0276 15.6922 9.97761C16.0568 9.92757 16.4274 10.0073 16.7389 10.2027Z" fill="#16BECF"/>
<path d="M39.666 7.91265C39.2534 8.11428 38.9019 8.42159 38.6474 8.80317C38.3929 9.18467 38.2445 9.62683 38.2174 10.0843C38.1903 10.5419 38.2855 10.9983 38.4932 11.4071C38.7009 11.8159 39.0137 12.1623 39.3997 12.411C39.7931 12.6889 40.2788 12.8048 40.7558 12.7345C41.2365 12.8049 41.726 12.6891 42.124 12.411C42.441 12.1967 42.716 11.9262 42.9352 11.613C43.2154 11.2166 43.3315 10.7278 43.2595 10.2481C43.3315 9.76849 43.2154 9.27957 42.9352 8.88323C42.7235 8.53177 42.4245 8.24072 42.0671 8.03821C41.7097 7.83569 41.306 7.72856 40.895 7.72716C40.4761 7.67868 40.0518 7.74271 39.666 7.91265Z" fill="#16BECF"/>
<path d="M34.9075 13.0365C34.2506 13.3038 33.7145 13.8016 33.4 14.436C33.2274 14.8202 33.1534 15.2414 33.1847 15.6614C33.2161 16.0814 33.3517 16.487 33.5796 16.8416C33.8073 17.1962 34.12 17.4885 34.4894 17.6924C34.8588 17.8964 35.2732 18.0052 35.6954 18.0095C36.1887 18.0366 36.6785 17.9128 37.0991 17.6543C37.5198 17.3958 37.8511 17.0152 38.0487 16.5635C38.2804 16.1214 38.3671 15.6179 38.2964 15.1239C38.2255 14.6301 38.001 14.1709 37.6543 13.8114C37.3231 13.4277 36.886 13.1497 36.3976 13.0119C35.9092 12.8742 35.391 12.8828 34.9075 13.0365Z" fill="#16BECF"/>
<path d="M44.7687 13.1293C44.4525 13.2621 44.1669 13.4579 43.9291 13.7046C43.6914 13.9515 43.5066 14.244 43.3862 14.5645C43.2658 14.8849 43.212 15.2265 43.2285 15.5683C43.245 15.9103 43.3311 16.2451 43.4818 16.5526C43.6665 17.0096 43.9914 17.3965 44.4098 17.6583C44.8283 17.9199 45.3189 18.043 45.8117 18.0098C46.4742 18.0098 47.1099 17.7483 47.5798 17.2825C48.0497 16.8167 48.3158 16.1843 48.3199 15.5233C48.3549 15.03 48.2324 14.5381 47.9699 14.1185C47.7075 13.6988 47.3187 13.3727 46.8591 13.1871C46.5375 13.0209 46.1825 12.9294 45.8206 12.9194C45.4585 12.9094 45.099 12.9811 44.7687 13.1293Z" fill="#16BECF"/>
<path d="M39.9557 18.2877C39.4446 18.4681 39.0034 18.8046 38.6952 19.2495C38.3869 19.6944 38.2273 20.225 38.2389 20.7657C38.2505 21.3065 38.4328 21.8297 38.7598 22.2611C39.0868 22.6925 39.542 23.01 40.0604 23.1683C40.4388 23.2757 40.8371 23.2945 41.224 23.2233C41.611 23.1522 41.9763 22.9928 42.2915 22.7579C42.6068 22.5229 42.8634 22.2186 43.0415 21.8685C43.2195 21.5185 43.3142 21.1322 43.3183 20.7397C43.3168 20.1957 43.1435 19.666 42.8231 19.2259C42.5027 18.7857 42.0513 18.4574 41.5332 18.2877C41.0281 18.0792 40.4608 18.0792 39.9557 18.2877Z" fill="#16BECF"/>
</svg>
