<svg xmlns="http://www.w3.org/2000/svg" width="149.219" height="147.12" viewBox="0 0 149.219 147.12">
  <g id="_03_safe" data-name="03 safe" transform="translate(-488 -4831.495)">
    <g id="_3_safe" data-name="3 safe" transform="translate(492.676 4832.814)" opacity="0.93">
      <path id="Path_16369" data-name="Path 16369" d="M266.808,239.48A71.143,71.143,0,1,1,248.5,261.113,71.145,71.145,0,0,1,266.808,239.48Zm88.247,111.54a70.863,70.863,0,1,0-99.542-11.606A70.943,70.943,0,0,0,355.056,351.02Z" transform="translate(-241.675 -225.505)" fill="#16becf"/>
      <path id="Path_16370" data-name="Path 16370" d="M1637.543,537.1c.057,0,0-.444.042-.425-.7-1.371-4.5-6.862-5.221-7.969-.168,0-.265.208-.284.49,0,.034,2.767,4.113,2.745,4.134.651,1.009,1.79,2.693,2.392,3.74C1637.262,536.947,1637.367,537.1,1637.543,537.1Z" transform="translate(-1502.236 -501.206)" fill="#16becf"/>
      <path id="Path_16371" data-name="Path 16371" d="M416.141,283.076a71.143,71.143,0,0,0-7.435-19.26.344.344,0,0,1-.354.35h-.044a70.931,70.931,0,1,1-5.062-7.745.266.266,0,0,1,.058-.071l.012-.043a1.391,1.391,0,0,1,.084-.243.284.284,0,0,1,.13-.133,71.575,71.575,0,1,0,12.611,27.145Z" transform="translate(-273.401 -228.428)" fill="#16becf"/>
      <ellipse id="Ellipse_100" data-name="Ellipse 100" cx="2.538" cy="2.538" rx="2.538" ry="2.538" transform="matrix(0.784, -0.62, 0.62, 0.784, -1.434, 80.285)" fill="#16becf"/>
      <ellipse id="Ellipse_101" data-name="Ellipse 101" cx="2.538" cy="2.538" rx="2.538" ry="2.538" transform="matrix(0.784, -0.62, 0.62, 0.784, 4.045, 98.31)" fill="#16becf"/>
      <ellipse id="Ellipse_102" data-name="Ellipse 102" cx="2.538" cy="2.538" rx="2.538" ry="2.538" transform="matrix(0.784, -0.62, 0.62, 0.784, 86.961, 137.1)" fill="#16becf"/>
      <ellipse id="Ellipse_103" data-name="Ellipse 103" cx="2.538" cy="2.538" rx="2.538" ry="2.538" transform="matrix(0.784, -0.62, 0.62, 0.784, 67.136, 140.495)" fill="#16becf"/>
      <ellipse id="Ellipse_104" data-name="Ellipse 104" cx="2.538" cy="2.538" rx="2.538" ry="2.538" transform="translate(18.376 117.389) rotate(-12.85)" fill="#16becf"/>
      <ellipse id="Ellipse_105" data-name="Ellipse 105" cx="2.538" cy="2.538" rx="2.538" ry="2.538" transform="translate(5.403 97.636) rotate(-12.85)" fill="#16becf"/>
      <ellipse id="Ellipse_106" data-name="Ellipse 106" cx="2.538" cy="2.538" rx="2.538" ry="2.538" transform="matrix(0.784, -0.62, 0.62, 0.784, 115.117, 15.641)" fill="#16becf"/>
      <ellipse id="Ellipse_107" data-name="Ellipse 107" cx="2.538" cy="2.538" rx="2.538" ry="2.538" transform="matrix(0.784, -0.62, 0.62, 0.784, 115.118, 19.108)" fill="#16becf"/>
      <path id="Path_16372" data-name="Path 16372" d="M353.576,334.141a71.35,71.35,0,0,0-3.155-15.9h0a.069.069,0,0,0-.009-.028l-.009-.031h0c-.284-.757-3.464-8.737-3.446-8.734-.259-.548-.523-1.1-.8-1.637-.026-.05-1.618-3.92-2.036-4.928a2.536,2.536,0,0,0-3.066-3.934c-.888-1.094-2.965-3.626-2.95-3.624a71.475,71.475,0,1,0,15.47,38.818Zm-17.058,51.69a70.864,70.864,0,1,1-8.254-99.878c3.478,2.947,9.529,9.8,12.343,13.29a2.536,2.536,0,0,0,3.015,4.07c1.261,2.977,5.585,13.441,6.391,15.4A70.876,70.876,0,0,1,336.518,385.831Z" transform="translate(-215.6 -265.728)" fill="#16becf"/>
      <ellipse id="Ellipse_108" data-name="Ellipse 108" cx="2.538" cy="2.538" rx="2.538" ry="2.538" transform="translate(105.533 131.195) rotate(-49.72)" fill="#16becf"/>
      <ellipse id="Ellipse_109" data-name="Ellipse 109" cx="2.538" cy="2.538" rx="2.538" ry="2.538" transform="matrix(0.784, -0.62, 0.62, 0.784, 39.789, 141.82)" fill="#16becf"/>
      <ellipse id="Ellipse_110" data-name="Ellipse 110" cx="2.538" cy="2.538" rx="2.538" ry="2.538" transform="matrix(0.784, -0.62, 0.62, 0.784, 16.613, 127.901)" fill="#16becf"/>
      <ellipse id="Ellipse_111" data-name="Ellipse 111" cx="1.012" cy="1.012" rx="1.012" ry="1.012" transform="matrix(0.784, -0.62, 0.62, 0.784, 32.037, 137.128)" fill="#16becf"/>
      <ellipse id="Ellipse_112" data-name="Ellipse 112" cx="1.012" cy="1.012" rx="1.012" ry="1.012" transform="matrix(0.784, -0.62, 0.62, 0.784, 79.508, 139.76)" fill="#16becf"/>
      <ellipse id="Ellipse_113" data-name="Ellipse 113" cx="1.012" cy="1.012" rx="1.012" ry="1.012" transform="matrix(0.784, -0.62, 0.62, 0.784, 59.712, 140.226)" fill="#16becf"/>
      <ellipse id="Ellipse_114" data-name="Ellipse 114" cx="1.012" cy="1.012" rx="1.012" ry="1.012" transform="matrix(0.784, -0.62, 0.62, 0.784, 1.145, 59.008)" fill="#16becf"/>
      <ellipse id="Ellipse_115" data-name="Ellipse 115" cx="1.012" cy="1.012" rx="1.012" ry="1.012" transform="translate(112.918 127.473) rotate(-49.72)" fill="#16becf"/>
      <ellipse id="Ellipse_116" data-name="Ellipse 116" cx="1.012" cy="1.012" rx="1.012" ry="1.012" transform="matrix(0.784, -0.62, 0.62, 0.784, 122.226, 20.538)" fill="#16becf"/>
      <ellipse id="Ellipse_117" data-name="Ellipse 117" cx="1.012" cy="1.012" rx="1.012" ry="1.012" transform="matrix(0.784, -0.62, 0.62, 0.784, 125.441, 24.323)" fill="#16becf"/>
      <ellipse id="Ellipse_118" data-name="Ellipse 118" cx="1.012" cy="1.012" rx="1.012" ry="1.012" transform="translate(102.288 135.024) rotate(-49.72)" fill="#16becf"/>
      <ellipse id="Ellipse_119" data-name="Ellipse 119" cx="1.012" cy="1.012" rx="1.012" ry="1.012" transform="translate(24.967 123.457) rotate(-12.85)" fill="#16becf"/>
      <ellipse id="Ellipse_120" data-name="Ellipse 120" cx="1.012" cy="1.012" rx="1.012" ry="1.012" transform="translate(29.882 127.198) rotate(-12.85)" fill="#16becf"/>
      <ellipse id="Ellipse_121" data-name="Ellipse 121" cx="1.012" cy="1.012" rx="1.012" ry="1.012" transform="translate(14.782 112.118) rotate(-12.85)" fill="#16becf"/>
      <ellipse id="Ellipse_122" data-name="Ellipse 122" cx="1.012" cy="1.012" rx="1.012" ry="1.012" transform="translate(10.798 105.933) rotate(-12.85)" fill="#16becf"/>
      <circle id="Ellipse_123" data-name="Ellipse 123" cx="61.683" cy="61.683" r="61.683" transform="translate(8.536 10.189)" fill="#16becf"/>
    </g>
    <g id="safe-box" transform="translate(537.926 5392.495)">
      <path id="Path_16392" data-name="Path 16392" d="M2.976-508.917v3.073l-.5.233a5.152,5.152,0,0,0-1.91,1.881,4.357,4.357,0,0,0,0,4,4.356,4.356,0,0,0,1.784,1.794l.63.33v12.119l-.5.233a5.152,5.152,0,0,0-1.91,1.881,4.357,4.357,0,0,0,0,4,4.355,4.355,0,0,0,1.784,1.794l.63.33v14.882h7.9l1.454-1.454,1.454-1.454H38.9l1.454,1.454,1.454,1.454h7.9V-512H2.976ZM46.8-491.543v17.548H5.885V-477H8.793v-8.726H5.885V-497.36H8.793v-8.726H5.885v-3.005H46.8ZM5.885-501.723v1.454H5a2.229,2.229,0,0,1-1.27-.213,1.4,1.4,0,0,1-.019-2.463c.33-.2.5-.233,1.28-.233h.892Zm0,20.36v1.454H5a2.229,2.229,0,0,1-1.27-.213,1.4,1.4,0,0,1-.019-2.463c.33-.2.5-.233,1.28-.233h.892ZM46.8-468.178v2.909H43.066l-1.454-1.454-1.454-1.454H12.526l-1.454,1.454-1.454,1.454H5.885v-5.817H46.8Z" fill="#fff"/>
      <path id="Path_16393" data-name="Path 16393" d="M130.083-420.8a10.525,10.525,0,0,0-5.681,2.889,10.442,10.442,0,0,0-2.715,4.819,11.947,11.947,0,0,0-.01,4.692,10.529,10.529,0,0,0,2.724,4.857,10.227,10.227,0,0,0,9.85,2.637,10.484,10.484,0,0,0,6-4.518l.582-.94h4.334c2.85,0,4.518-.039,4.857-.107a4.413,4.413,0,0,0,3.393-3.568,4.365,4.365,0,0,0-3.393-4.945c-.339-.068-1.988-.107-4.857-.107h-4.334l-.582-.94a10.759,10.759,0,0,0-4.343-3.907A10.662,10.662,0,0,0,130.083-420.8Zm3.3,3.025a8.68,8.68,0,0,1,1.823.747l.378.223-.979.979-.979.979,1.047,1.047,1.037,1.037.979-.979.979-.979.213.359a6.73,6.73,0,0,1,.931,3.636,6.673,6.673,0,0,1-.931,3.626l-.213.368-.979-.979-.979-.979-1.047,1.047-1.037,1.037.979.979.979.979-.359.213a6.73,6.73,0,0,1-3.636.931,6.73,6.73,0,0,1-3.636-.931l-.359-.213.979-.979.979-.979-1.037-1.037-1.047-1.047-.979.979-.979.979-.213-.368a6.673,6.673,0,0,1-.931-3.626,6.674,6.674,0,0,1,.931-3.626l.213-.368.979.979.979.979,1.047-1.047,1.037-1.037-.96-.96a7.561,7.561,0,0,1-.931-1.028,8.26,8.26,0,0,1,2.724-1.066A10.66,10.66,0,0,1,133.379-417.78Zm16.433,5.788a1.53,1.53,0,0,1,.776,1.26,1.53,1.53,0,0,1-.776,1.26c-.359.184-.562.194-4.237.194h-3.859v-2.909h3.859C149.25-412.186,149.454-412.176,149.813-411.992Z" transform="translate(-109.607 -82.266)" fill="#fff"/>
      <path id="Path_16394" data-name="Path 16394" d="M211-329.546v1.454h2.909V-331H211Z" transform="translate(-190.475 -163.452)" fill="#fff"/>
      <path id="Path_16395" data-name="Path 16395" d="M181-179.546v1.454h2.909V-181H181Z" transform="translate(-163.384 -298.909)" fill="#fff"/>
      <path id="Path_16396" data-name="Path 16396" d="M241-179.546v1.454h2.909V-181H241Z" transform="translate(-217.567 -298.909)" fill="#fff"/>
      <path id="Path_16397" data-name="Path 16397" d="M301-179.546v1.454h2.909V-181H301Z" transform="translate(-271.75 -298.909)" fill="#fff"/>
      <path id="Path_16398" data-name="Path 16398" d="M361-179.546v1.454h2.909V-181H361Z" transform="translate(-325.933 -298.909)" fill="#fff"/>
    </g>
  </g>
</svg>
