<svg width="38" height="70" viewBox="0 0 38 70" fill="none" xmlns="http://www.w3.org/2000/svg">
<g clip-path="url(#clip0_330_7356)">
<path d="M9.83382 15.7868C4.78821 24.6177 0.666001 31.8406 0.69251 31.8683C0.746633 31.936 18.7177 40.4806 18.9077 40.5495C19.0977 40.6183 37.4212 31.9093 37.3538 31.8006C37.3405 31.7595 33.2582 24.6455 28.3075 15.9921C23.3569 7.33863 19.2336 0.14244 19.1518 0.0103695C19.0436 -0.198281 17.3625 2.66289 9.83382 15.7868ZM24.2648 17.1774C27.0991 22.0972 29.3922 26.1582 29.3646 26.167C29.3369 26.1759 27.0041 25.1038 24.1731 23.7553L19.0193 21.3027L13.8787 23.7443C11.0576 25.0939 8.72483 26.1705 8.69722 26.1427C8.6696 26.115 18.1102 9.46176 18.8017 8.38521C18.9121 8.20764 19.0325 8.09887 19.0734 8.12662C19.1143 8.15436 21.4448 12.2441 24.266 17.1774H24.2648ZM27.8182 30.0426C28.4471 30.2857 29.0413 30.6111 29.5855 31.0104C29.464 31.1336 19.1419 36.0258 19.0193 36.0258C18.8426 36.0258 8.41556 31.0515 8.39899 30.9694C8.39899 30.9283 10.7859 29.7562 13.7163 28.3668L19.0336 25.8451L22.492 27.51C24.4018 28.4068 26.802 29.5509 27.8192 30.0426H27.8182Z" fill="#16BECF"/>
<path d="M9.45388 52.7887C14.6453 61.9339 18.9619 69.3875 19.016 69.3742C19.1376 69.3331 38.0044 36.2853 37.937 36.231C37.9094 36.2176 33.6922 38.2209 28.5372 40.6704C23.3823 43.1198 19.111 45.1541 19.016 45.1541C18.921 45.1541 14.9203 43.273 10.1321 40.9834C5.34384 38.6937 1.09903 36.6627 0.705811 36.4863L0 36.1733L9.45388 52.7887ZM15.1644 47.9365L19.0028 49.7766L23.421 47.668C25.851 46.5093 27.8392 45.5825 27.8701 45.6102C27.9011 45.638 25.9173 49.154 23.4894 53.4468C21.0616 57.7397 19.0005 61.188 18.9453 61.1336C18.8348 61.0104 10.2922 46.0198 10.1972 45.7479C10.1045 45.5105 10.2812 45.5925 15.1634 47.9398L15.1644 47.9365Z" fill="#16BECF"/>
</g>
<defs>
<clipPath id="clip0_330_7356">
<rect width="38" height="70" fill="white"/>
</clipPath>
</defs>
</svg>
