<svg width="51" height="51" viewBox="0 0 51 51" fill="none" xmlns="http://www.w3.org/2000/svg">
<path d="M22.8277 0.0642428C18.0253 0.564394 13.4593 2.40052 9.64766 5.36426C8.09617 6.65862 6.66438 8.09004 5.36966 9.64124C3.74714 11.7618 2.43621 14.1035 1.47666 16.5952C0.908664 18.2692 0.479218 19.987 0.192662 21.7313C-0.0642206 24.0619 -0.0642206 26.4136 0.192662 28.7442C0.482537 30.4921 0.915322 32.2132 1.48666 33.8903C2.44057 36.3795 3.74835 38.7182 5.36966 40.8343C6.61234 42.3154 7.9735 43.6929 9.43966 44.9533C11.6161 46.6388 14.0255 47.9996 16.5927 48.9933C18.2701 49.5646 19.9915 49.9974 21.7397 50.2873C23.9393 50.5138 26.1553 50.5336 28.3587 50.3463C32.9174 49.7463 37.2329 47.9389 40.8587 45.1112C42.3346 43.8663 43.709 42.5056 44.9687 41.0422C46.6509 38.8642 48.0118 36.456 49.0097 33.8912C49.581 32.2142 50.0138 30.4931 50.3037 28.7452C50.4564 27.5829 50.5159 26.4101 50.4817 25.2383C50.5547 23.152 50.3082 21.0669 49.7507 19.0552C49.3362 17.3464 48.7227 15.6921 47.9227 14.1263C45.9518 10.1105 42.952 6.68869 39.2287 4.20926C36.0994 2.10717 32.5369 0.736599 28.8057 0.199253C26.82 -0.00890832 24.8207 -0.0540691 22.8277 0.0642428V0.0642428ZM27.2737 3.01725C31.0985 3.37389 34.767 4.71005 37.9252 6.89688C41.0835 9.08372 43.625 12.0475 45.3047 15.5023C46.3251 17.5569 47.012 19.7607 47.3397 22.0313C47.5866 24.1641 47.5866 26.3184 47.3397 28.4512C47.012 30.7217 46.3251 32.9257 45.3047 34.9803C43.1218 39.4839 39.4847 43.1203 34.9807 45.3022C32.9272 46.3164 30.7264 46.9998 28.4597 47.3272C26.3261 47.5741 24.1712 47.5741 22.0377 47.3272C17.9034 46.7001 14.0227 44.9431 10.8237 42.2502C8.36238 40.149 6.38273 37.542 5.01949 34.6069C3.65625 31.6718 2.94142 28.4774 2.92366 25.2412C2.94334 22.0041 3.65899 18.809 5.02205 15.8727C6.38512 12.9364 8.36372 10.3276 10.8237 8.22324C13.0884 6.3161 15.7072 4.87457 18.53 3.98124C21.3527 3.0879 24.3241 2.76031 27.2737 3.01725V3.01725Z" fill="#16BECF"/>
<path d="M22.9358 5.68522C18.7096 6.18809 14.7625 8.05509 11.6928 11.0032C8.16768 14.3238 6.00016 18.8344 5.60999 23.6614C5.21982 28.4885 6.63476 33.2886 9.58081 37.1322C10.7078 38.5253 11.9785 39.7956 13.3718 40.9222C15.7266 42.6937 18.442 43.9258 21.3258 44.5312C24.0646 45.0885 26.8907 45.0548 29.6154 44.4325C32.3401 43.8101 34.9006 42.6134 37.1258 40.9222C38.5192 39.7956 39.7899 38.5253 40.9168 37.1322C43.529 33.7175 44.9443 29.5379 44.9443 25.2387C44.9443 20.9395 43.529 16.7599 40.9168 13.3452C39.7932 11.9555 38.5258 10.6885 37.1358 9.56522C34.6163 7.6576 31.6797 6.37576 28.5678 5.82523C26.7028 5.55361 24.812 5.5066 22.9358 5.68522V5.68522ZM27.0358 8.66123C29.8764 8.97232 32.5898 10.0062 34.9171 11.6643C37.2444 13.3223 39.1079 15.5491 40.3298 18.1322C42.0516 21.7914 42.3859 25.9515 41.2705 29.8387C40.1551 33.7259 37.6659 37.0757 34.2658 39.2652C31.161 41.2582 27.4831 42.1657 23.8076 41.8456C20.132 41.5255 16.6664 39.9959 13.9528 37.4962C12.0331 35.7325 10.5544 33.5427 9.63556 31.103C8.71675 28.6634 8.38356 26.0421 8.66282 23.4502C9.1501 19.0573 11.3565 15.0358 14.7998 12.2646C18.243 9.49347 22.6433 8.19798 27.0388 8.66123H27.0358Z" fill="#16BECF"/>
<path d="M24.5688 12.7064C24.4151 12.7763 24.2681 12.8604 24.1298 12.9574C24.0668 13.0224 23.2208 14.4734 22.2698 16.1844C21.3188 17.8954 20.5148 19.3094 20.5148 19.3184C20.5148 19.3274 18.8218 19.5414 16.7848 19.8024C14.7478 20.0634 12.9288 20.3234 12.7408 20.3794C12.4088 20.4823 12.1286 20.7081 11.9576 21.0107C11.7866 21.3134 11.7377 21.6699 11.8208 22.0074C11.8938 22.3794 11.7208 22.2074 15.4358 25.4674L17.5988 27.3554L16.9408 30.7504C16.2408 34.3874 16.2298 34.5914 16.7008 35.0384C16.8629 35.2121 17.0639 35.3449 17.2873 35.4257C17.5107 35.5066 17.7501 35.5332 17.9858 35.5034C19.3135 35.0635 20.6032 34.516 21.8418 33.8664L25.2588 32.2664L28.6648 33.8664C29.9026 34.5124 31.188 35.0627 32.5098 35.5124C32.8579 35.5559 33.2101 35.4741 33.5033 35.2815C33.7965 35.0889 34.0115 34.7981 34.1098 34.4614C34.1828 34.1614 34.0678 33.4194 33.5458 30.7224L32.8978 27.3464L35.0088 25.5144C38.7598 22.2314 38.6028 22.3804 38.6768 22.0084C38.7617 21.6938 38.727 21.3589 38.5792 21.0685C38.4314 20.7782 38.1811 20.5529 37.8768 20.4364C37.6888 20.3624 35.8388 20.0734 33.7708 19.8134C31.7028 19.5534 29.9988 19.3204 29.9878 19.3134C29.9768 19.3064 29.1878 17.8814 28.2118 16.1414C26.5508 13.1834 26.4118 12.9694 26.0278 12.7744C25.8065 12.6509 25.5595 12.5805 25.3063 12.5687C25.0531 12.5569 24.8007 12.604 24.5688 12.7064V12.7064ZM26.5538 19.4124C27.5678 21.1984 27.8708 21.6534 28.1208 21.7844C29.0828 22.0218 30.0607 22.1889 31.0468 22.2844C32.4888 22.4614 33.6798 22.6374 33.7008 22.6564C33.1009 23.2659 32.4665 23.8404 31.8008 24.3774C30.2648 25.6984 29.8258 26.1254 29.7318 26.4144C29.6378 26.7034 29.6688 27.0934 30.0558 29.1024C30.2312 29.8884 30.3647 30.6832 30.4558 31.4834C29.957 31.3158 29.4716 31.1105 29.0038 30.8694C26.2138 29.5584 25.5978 29.2974 25.2418 29.2974C24.2862 29.5632 23.3642 29.9376 22.4938 30.4134C21.1768 31.0274 20.0698 31.5134 20.0488 31.4834C20.14 30.6832 20.2735 29.8884 20.4488 29.1024C20.8358 27.0934 20.8768 26.7124 20.7728 26.4144C20.6788 26.1354 20.2298 25.6894 18.7038 24.3774C17.6278 23.4474 16.7708 22.6774 16.8038 22.6564C16.8368 22.6354 18.0158 22.4704 19.4478 22.2844C20.436 22.204 21.4151 22.0367 22.3738 21.7844C22.6348 21.6544 22.9278 21.2174 23.9518 19.4124C24.6418 18.2034 25.2268 17.2124 25.2578 17.2124C25.2888 17.2124 25.8638 18.2024 26.5538 19.4114V19.4124Z" fill="#16BECF"/>
</svg>
