<svg width="42" height="52" viewBox="0 0 42 52" fill="none" xmlns="http://www.w3.org/2000/svg">
<path d="M18.1359 0.143622C14.0473 0.6294 10.1973 2.32675 7.08083 5.01752C3.96434 7.7083 1.7237 11.2696 0.646874 15.2436C-0.114485 18.1691 -0.205041 21.2287 0.38197 24.1941C0.968981 27.1595 2.21839 29.9539 4.03688 32.3686C5.25975 33.9662 6.69965 35.3852 8.31488 36.5846L9.04987 37.1276V50.4696L9.28487 50.8116C9.42819 51.0342 9.62936 51.2135 9.86682 51.3305C10.1043 51.4475 10.3691 51.4976 10.6329 51.4756C10.8679 51.4456 13.0429 50.5396 15.8199 49.3126L20.5879 47.1896L25.3659 49.3126C28.1329 50.5396 30.3079 51.4456 30.5419 51.4756C30.8057 51.4976 31.0705 51.4475 31.3079 51.3305C31.5454 51.2135 31.7466 51.0342 31.8899 50.8116L32.1249 50.4696V37.1276L32.8699 36.5846C36.4434 33.9951 39.0647 30.3009 40.3288 26.0727C41.593 21.8445 41.4296 17.3177 39.8639 13.1916C38.3415 9.28029 35.666 5.92415 32.1923 3.5683C28.7187 1.21246 24.6109 -0.0317724 20.4139 0.000616639C19.7489 0.0106166 18.7279 0.072622 18.1359 0.143622ZM23.1359 3.16163C26.4688 3.65584 29.594 5.08237 32.1509 7.27662C33.9487 8.8145 35.4084 10.7082 36.438 12.8383C37.4676 14.9684 38.0447 17.2887 38.1329 19.6529C38.2211 22.0172 37.8186 24.374 36.9506 26.5749C36.0826 28.7758 34.7681 30.773 33.0899 32.4406C30.5038 35.0232 27.1882 36.7508 23.5899 37.3906C21.5898 37.6422 19.566 37.6422 17.5659 37.3906C13.9676 36.7508 10.6519 35.0232 8.06588 32.4406C5.72753 30.1225 4.1096 27.1775 3.40715 23.9607C2.7047 20.7438 2.94771 17.3925 4.10688 14.3106C5.11176 11.6976 6.72213 9.36027 8.80573 7.49048C10.8893 5.6207 13.3867 4.27183 16.0929 3.55463C18.3987 3.00248 20.785 2.86935 23.1379 3.16163H23.1359ZM12.7359 39.0716C14.7784 39.8857 16.9339 40.3811 19.1269 40.5406C22.3014 40.7545 25.4834 40.2525 28.4379 39.0716C28.6416 38.9731 28.8534 38.8922 29.0709 38.8296C29.1219 38.8296 29.1629 40.7916 29.1629 43.2566C29.1629 45.6916 29.1429 47.6836 29.1119 47.6836C29.0809 47.6836 27.2539 46.8836 25.0489 45.9026C21.7719 44.4436 20.9649 44.1216 20.5869 44.1216C20.2089 44.1216 19.4029 44.4436 16.1249 45.9026C13.9199 46.8786 12.0919 47.6836 12.0619 47.6836C12.0319 47.6836 12.0109 45.6916 12.0109 43.2566C12.0109 40.7916 12.0519 38.8296 12.1029 38.8296C12.32 38.8922 12.5315 38.9732 12.7349 39.0716H12.7359Z" fill="#16BECF"/>
<path d="M19.8738 6.82653C19.4388 7.03853 19.3958 7.08753 17.5598 9.77053C16.6998 11.0255 15.9598 12.0775 15.9148 12.1065C15.8698 12.1355 14.3968 12.1936 12.6148 12.2516C9.11482 12.3776 8.88881 12.4155 8.46481 12.9515C8.32393 13.1614 8.23325 13.401 8.19981 13.6515C8.13581 14.1145 8.18882 14.2205 10.0998 17.4645L11.2678 19.4435L10.9808 19.9846C10.8218 20.2746 10.1418 21.4515 9.47381 22.5905C8.10481 24.9075 7.99881 25.2255 8.38081 25.8435C8.80581 26.5435 8.95381 26.5775 11.8808 26.6635C13.3138 26.7115 14.8208 26.7695 15.2248 26.7985L15.9678 26.8466L17.5598 29.1826C18.4408 30.4566 19.2898 31.6535 19.4488 31.8275C19.598 31.9768 19.775 32.0952 19.97 32.176C20.1649 32.2567 20.3738 32.2983 20.5848 32.2983C20.7958 32.2983 21.0047 32.2567 21.1997 32.176C21.3946 32.0952 21.5717 31.9768 21.7208 31.8275C21.8798 31.6535 22.7398 30.4566 23.6098 29.1826L25.2018 26.8466L25.9448 26.7985C26.3588 26.7695 27.8558 26.7115 29.2888 26.6635C32.2188 26.5765 32.3668 26.5475 32.7888 25.8435C33.1708 25.2255 33.0648 24.9075 31.6958 22.5905C31.0268 21.4515 30.3478 20.2736 30.1888 19.9846L29.9018 19.4435L31.0698 17.4645C32.9808 14.2215 33.0338 14.1155 32.9698 13.6515C32.9364 13.401 32.8457 13.1614 32.7048 12.9515C32.2798 12.4105 32.0678 12.3816 28.5438 12.2516C27.4215 12.2769 26.299 12.2026 25.1898 12.0295C25.1158 11.9615 24.4578 11.0295 23.7148 9.93453C22.9718 8.83953 22.1968 7.73454 22.0058 7.47354C21.793 7.12151 21.4575 6.86069 21.0639 6.74124C20.6703 6.62178 20.2464 6.65215 19.8738 6.82653ZM21.8478 12.5895C23.0368 14.3465 23.2808 14.6355 23.7368 14.8485C24.609 14.9705 25.4882 15.035 26.3688 15.0416C27.6848 15.0806 28.7778 15.1416 28.7998 15.1576C28.8218 15.1736 28.3328 16.0646 27.7168 17.1266C26.7508 18.7576 26.5808 19.1265 26.5808 19.4915C26.5808 19.8565 26.7608 20.2255 27.7168 21.8565C28.1461 22.4572 28.4857 23.1171 28.7248 23.8155C28.6508 23.8255 27.5468 23.8736 26.2518 23.9156C24.1398 23.9926 23.8638 24.0215 23.5448 24.2055C22.8996 24.7948 22.3516 25.4823 21.9208 26.2425C21.5096 26.8814 21.0632 27.4971 20.5838 28.0865C20.1044 27.4971 19.6581 26.8814 19.2468 26.2425C18.8161 25.4823 18.268 24.7948 17.6228 24.2055C17.3048 24.0225 17.0288 23.9936 14.9158 23.9156C13.6208 23.8766 12.5158 23.8285 12.4428 23.8155C12.682 23.1171 13.0215 22.4571 13.4508 21.8565C14.4058 20.2255 14.5868 19.8565 14.5868 19.4915C14.5868 19.1265 14.4168 18.7576 13.4508 17.1266C12.8348 16.0646 12.3508 15.1766 12.3678 15.1576C12.3848 15.1386 13.4828 15.0806 14.7988 15.0416C15.6794 15.035 16.5587 14.9705 17.4308 14.8485C17.8868 14.6365 18.1308 14.3485 19.3198 12.5895C19.9888 11.6145 20.5508 10.8135 20.5828 10.8135C20.6148 10.8135 21.1798 11.6145 21.8488 12.5895H21.8478Z" fill="#16BECF"/>
</svg>
