<svg width="50" height="50" viewBox="0 0 50 50" fill="none" xmlns="http://www.w3.org/2000/svg">
<path d="M33.4748 1.43385C23.2002 6.64441 23.9628 6.23391 23.7283 6.6639C23.5227 7.02535 23.5032 7.17256 23.5032 8.84502C23.5032 10.4482 23.5227 10.6733 23.6987 11.0153C24.0017 11.6018 24.4613 11.7942 25.5558 11.7942H26.4353V14.7271H20.4083L20.1933 13.8383C19.747 11.995 18.8037 10.3095 17.4661 8.965C16.1285 7.62054 14.4478 6.66863 12.6069 6.21287C11.0425 5.89664 9.431 5.8932 7.86528 6.20274C6.01592 6.66225 4.3243 7.61098 2.96787 8.94941C1.62797 10.3073 0.676541 11.9995 0.212636 13.8499C-0.0708787 15.4013 -0.0708787 16.9911 0.212636 18.5425C0.677499 20.3919 1.62944 22.083 2.96943 23.4399C4.32574 24.7786 6.01738 25.7276 7.86684 26.1873C9.42917 26.4967 11.0373 26.4932 12.5983 26.1772C14.4411 25.7232 16.1239 24.772 17.4633 23.4274C18.8027 22.0828 19.7473 20.3963 20.1941 18.5518L20.4091 17.6622H26.4407V23.5279H25.5605C25.1272 23.4814 24.6892 23.5488 24.29 23.7234C24.0633 23.8523 23.873 24.0364 23.7367 24.2587C23.6005 24.4811 23.5229 24.7343 23.511 24.9947C23.523 25.255 23.6007 25.5081 23.7369 25.7302C23.8731 25.9524 24.0634 26.1365 24.29 26.2652C24.6615 26.4506 24.857 26.4607 29.9601 26.4607H35.2392V29.4621L34.3496 29.6771C32.5036 30.1208 30.8154 31.0643 29.4703 32.4042C28.1252 33.7441 27.1751 35.4286 26.7242 37.2729C26.5215 38.0674 26.4455 38.889 26.4991 39.7072C26.4514 40.5631 26.5405 41.4212 26.7632 42.249C27.3961 44.7294 28.9306 46.8849 31.0672 48.2948C33.2038 49.7047 35.7891 50.2679 38.3185 49.8744C40.2987 49.5416 42.1397 48.6413 43.6182 47.2826C45.0966 45.9239 46.1489 44.1653 46.6473 42.2202C46.8753 41.3868 46.9612 40.5209 46.9012 39.6589C46.9693 38.3471 46.7386 37.0369 46.2267 35.8271L46.0506 35.3597L46.3536 35.0482C46.64 34.8263 46.8391 34.5108 46.916 34.1568C46.9929 33.8028 46.9428 33.4331 46.7743 33.1124C46.6423 32.8842 46.4548 32.6931 46.2291 32.5569C46.0034 32.4207 45.7469 32.3438 45.4835 32.3334C45.233 32.3594 44.9903 32.4357 44.77 32.5578L44.3805 32.7829L43.7448 32.2065C42.427 30.9815 40.8182 30.1133 39.071 29.6841L38.1713 29.4691V26.4576H43.4995C48.6516 26.4576 48.8471 26.4475 49.2187 26.2621C49.4452 26.1333 49.6355 25.9493 49.7717 25.7271C49.9079 25.505 49.9857 25.2519 49.9977 24.9916C49.9858 24.7311 49.9081 24.4779 49.7719 24.2556C49.6357 24.0333 49.4454 23.8492 49.2187 23.7203C48.8032 23.5419 48.3485 23.4745 47.8991 23.5248H46.9698V11.7934H47.8983C49.0419 11.7934 49.5015 11.608 49.8045 11.0145C49.9805 10.6725 50 10.4474 50 8.84424C50 7.17256 49.9805 7.02612 49.7749 6.66312C49.5692 6.30012 49.3153 6.1451 43.4013 3.15383C38.6792 0.777963 37.1352 0.0379253 36.8026 0.00598734C36.3921 -0.0321824 36.1475 0.0753221 33.4748 1.43385ZM41.8878 5.68705C47.001 8.24831 47.0687 8.27793 47.0687 8.56926V8.86295H26.4298L26.4594 8.55992C26.489 8.27637 26.6354 8.18835 31.5726 5.6855C34.3683 4.26777 36.6655 3.10477 36.6858 3.09464C36.706 3.08451 39.0414 4.25685 41.8878 5.68705ZM11.6511 9.0203C13.0726 9.30073 14.3751 10.0071 15.3855 11.0456C16.3139 11.9662 16.9818 13.1163 17.3213 14.3789C17.5461 15.5808 17.5461 16.814 17.3213 18.0159C16.9641 19.3442 16.2463 20.5478 15.2474 21.4933C14.2484 22.4388 13.0072 23.0893 11.6612 23.3729C10.4787 23.6051 9.25724 23.5429 8.10445 23.1918C6.95166 22.8406 5.90296 22.2112 5.05079 21.3591C4.19862 20.507 3.56915 19.4584 3.21786 18.3056C2.86658 17.1529 2.80426 15.9314 3.03642 14.7489C3.42595 12.851 4.5497 11.184 6.16286 10.111C7.77602 9.03797 9.74785 8.64594 11.6488 9.0203H11.6511ZM35.2408 17.6622V23.5279H29.3751V11.7966H35.2408V17.6622ZM44.0393 17.6622V23.5279H38.1736V11.7966H44.0393V17.6622ZM38.1487 32.483C39.5304 32.7688 40.8002 33.4478 41.8052 34.4382L42.2726 34.9173L39.4862 37.7037L36.6998 40.4901L35.7027 39.493C34.6371 38.4468 34.2562 38.1929 33.767 38.1929C33.5066 38.2049 33.2536 38.2826 33.0314 38.4188C32.8093 38.555 32.6252 38.7453 32.4964 38.9718C32.3772 39.1763 32.3135 39.4084 32.3117 39.6451C32.3099 39.8818 32.3701 40.1148 32.4863 40.321C33.5783 41.6167 34.782 42.814 36.0836 43.8989C36.2746 43.9952 36.4855 44.0454 36.6994 44.0454C36.9133 44.0454 37.1242 43.9952 37.3152 43.8989C37.4912 43.8108 38.997 42.3736 40.6648 40.7121C42.3326 39.0505 43.7347 37.7208 43.7635 37.7691C43.9367 38.41 44.0255 39.0706 44.0276 39.7345C44.0154 40.1943 43.9633 40.6523 43.8718 41.1031C43.6061 42.4396 42.9791 43.6775 42.0589 44.6825C41.1387 45.6874 39.9606 46.4208 38.6527 46.8029C37.3704 47.1354 36.0245 47.1354 34.7422 46.8029C33.5506 46.4717 32.47 45.826 31.6139 44.9333C30.5247 43.9123 29.7914 42.5691 29.5215 41.1008C29.2887 39.9182 29.3506 38.6965 29.7019 37.5435C30.0532 36.3905 30.683 35.3418 31.5357 34.49C32.3885 33.6382 33.4379 33.0095 34.5912 32.6595C35.7446 32.3094 36.9664 32.2488 38.1487 32.483V32.483Z" fill="#16BECF"/>
<path d="M9.57599 10.7309C9.27297 10.8968 4.93252 15.2373 4.77595 15.5309C4.61027 15.9399 4.59974 16.3954 4.74635 16.8116C4.90214 17.1146 9.23324 21.455 9.54639 21.6311C9.75618 21.7217 9.98232 21.7684 10.2109 21.7682C10.4394 21.7684 10.6655 21.7217 10.8753 21.6311C11.1869 21.455 15.5188 17.1131 15.6754 16.8116C15.822 16.3954 15.8114 15.9399 15.6458 15.5309C15.4697 15.2194 11.1277 10.8875 10.8262 10.7309C10.4207 10.5943 9.98154 10.5943 9.57599 10.7309V10.7309ZM11.2897 15.1711L12.3164 16.1978L11.2609 17.2533L10.2116 18.301L9.16547 17.2548L8.10996 16.1978L9.13665 15.1711C9.70374 14.604 10.1828 14.1444 10.2116 14.1444C10.2405 14.1444 10.7203 14.6016 11.2866 15.1687L11.2897 15.1711Z" fill="#16BECF"/>
</svg>
