<svg xmlns="http://www.w3.org/2000/svg" width="110.036" height="90" viewBox="0 0 110.036 90">
  <g id="_5" data-name="5" transform="translate(-0.016 0.292)">
    <ellipse id="Ellipse_64" data-name="Ellipse 64" cx="43" cy="43.5" rx="43" ry="43.5" transform="translate(9.016 -0.292)" fill="#e4fcfe"/>
    <g id="dai" transform="translate(31.491 22.162)">
      <path id="Path_1768" data-name="Path 1768" d="M23.014-503.759a17.11,17.11,0,0,0-5.632,1.676,15.273,15.273,0,0,0-4.294,3.057A15.69,15.69,0,0,0,9.8-494.5a16.84,16.84,0,0,0,1.76,17.8,17.99,17.99,0,0,0,5.632,4.665,1.332,1.332,0,0,1,.783.783A17.2,17.2,0,0,0,21.3-466.8a15.645,15.645,0,0,0,4.344,3.032,16.8,16.8,0,0,0,19.212-3.251,16.02,16.02,0,0,0,3.165-4.421,16.84,16.84,0,0,0-1.76-17.8,17.991,17.991,0,0,0-5.632-4.666,1.332,1.332,0,0,1-.783-.783,17.994,17.994,0,0,0-4.664-5.634,17.285,17.285,0,0,0-8.562-3.436A20.6,20.6,0,0,0,23.014-503.759Zm3.435,1.347a15.543,15.543,0,0,1,10.465,5.684,8.737,8.737,0,0,1,1.145,1.684,6.607,6.607,0,0,1-.934-.185l-.9-.227-.539-.64a14.092,14.092,0,0,0-10.229-5.036,13.758,13.758,0,0,0-5.077.733,14.036,14.036,0,0,0-8.9,8.91,12.524,12.524,0,0,0-.69,3.411,13.814,13.814,0,0,0,1.5,7.47,13.947,13.947,0,0,0,3.41,4.354l.732.623.219.893a4.5,4.5,0,0,1,.185.926,1.7,1.7,0,0,1-.53-.295,16.5,16.5,0,0,1-4.748-4.994,15.508,15.508,0,0,1,1.65-18.106,16.024,16.024,0,0,1,4.748-3.655,15.677,15.677,0,0,1,5.607-1.583A18.609,18.609,0,0,1,26.449-502.411Zm-.547,2.6a12.617,12.617,0,0,1,4.142,1.069,12.734,12.734,0,0,1,3.679,2.526l.48.488-.934-.025a16.891,16.891,0,0,0-6.9,1.331c-.421.185-.783.337-.8.337a.557.557,0,0,1-.025-.244c0-.185.051-.261.253-.345a2.137,2.137,0,0,0,1.094-1.785,2.252,2.252,0,0,0-1.128-1.819,2.782,2.782,0,0,0-1.793.008,2.086,2.086,0,0,0-1.019,2.434,2.3,2.3,0,0,0,.993,1.162c.253.1.253.11.253.758,0,.59-.017.657-.185.733a18.5,18.5,0,0,0-2.677,2.1l-.732.707h-1.12v-.413c0-.379.017-.421.253-.514a2.137,2.137,0,0,0,1.094-1.785,2.252,2.252,0,0,0-1.128-1.819,2.782,2.782,0,0,0-1.793.008,2.086,2.086,0,0,0-1.019,2.434,2.3,2.3,0,0,0,.993,1.162l.253.1v.884c0,.817.017.893.21,1.078.168.177.286.21.665.21h.463l-.438.665-.438.665-.64.008c-.64.008-.648.008-.749-.244a2.3,2.3,0,0,0-1.162-.994,2.085,2.085,0,0,0-2.433,1.019,2.785,2.785,0,0,0-.008,1.794,2.251,2.251,0,0,0,1.818,1.128,2.136,2.136,0,0,0,1.785-1.095c.084-.2.16-.253.345-.253a.555.555,0,0,1,.244.025c0,.017-.152.379-.337.8a16.9,16.9,0,0,0-1.33,6.906l.025.935-.488-.48a11.459,11.459,0,0,1-1-1.137,12.788,12.788,0,0,1,.564-16.253,12.905,12.905,0,0,1,8.335-4.261A9.457,9.457,0,0,1,25.9-499.809Zm-.572,2.905a.665.665,0,0,1-.463,1.137.711.711,0,0,1-.674-.674.711.711,0,0,1,.674-.674A.656.656,0,0,1,25.329-496.9Zm9.2,2.577a15.733,15.733,0,0,1,10.077,5.2,15.485,15.485,0,0,1-.118,20.5,15.485,15.485,0,0,1-18.42,3.571,15.521,15.521,0,0,1-8.52-12.287,15.612,15.612,0,0,1,5.085-13.137A15.618,15.618,0,0,1,34.531-494.327Zm-15.263.792A.665.665,0,0,1,18.8-492.4a.711.711,0,0,1-.674-.674.711.711,0,0,1,.674-.674A.656.656,0,0,1,19.268-493.535ZM15.9-487.472a.665.665,0,0,1-.463,1.137.711.711,0,0,1-.674-.674.711.711,0,0,1,.674-.674A.656.656,0,0,1,15.9-487.472Z" transform="translate(-8.031 503.838)" fill="#16becf"/>
      <path id="Path_1769" data-name="Path 1769" d="M148.253-375.8a14.109,14.109,0,0,0-7.777,3.722A14.017,14.017,0,0,0,140-352.222a14.011,14.011,0,0,0,16.513,2.779,13.966,13.966,0,0,0,7.593-12.926,13.29,13.29,0,0,0-1.527-5.924A14.026,14.026,0,0,0,148.253-375.8Zm4.3,1.444a12.223,12.223,0,0,1,6.509,3.5,12.309,12.309,0,0,1,3.546,6.726,15.706,15.706,0,0,1,0,4.423,12.572,12.572,0,0,1-3.838,7.026,12.726,12.726,0,0,1-6.433,3.246,15.107,15.107,0,0,1-4.423,0,12.31,12.31,0,0,1-6.726-3.546,12.31,12.31,0,0,1-3.546-6.726,15.107,15.107,0,0,1,0-4.423,12.284,12.284,0,0,1,3.546-6.726,12.322,12.322,0,0,1,7.727-3.7A19.08,19.08,0,0,1,152.551-374.352Z" transform="translate(-125.057 386.978)" fill="#16becf"/>
      <path id="Path_1770" data-name="Path 1770" d="M218.234-295.891l-.209.209v4.932h-.793c-.734,0-.818.017-1,.209a.613.613,0,0,0,0,.918c.184.192.267.209,1,.209h.793v1.335h-.793c-.734,0-.818.017-1,.209a.613.613,0,0,0,0,.918c.184.192.267.209,1,.209h.793v4.932l.209.209.209.209,3.4-.025c3.7-.042,3.763-.042,5.073-.584a7.576,7.576,0,0,0,4.055-4.389l.108-.35h.943c.893,0,.951-.008,1.143-.209a.613.613,0,0,0,0-.918c-.184-.192-.267-.209-1-.209h-.793v-1.335h.793c.734,0,.818-.017,1-.209a.613.613,0,0,0,0-.918c-.192-.2-.25-.209-1.143-.209h-.943l-.108-.359a7.585,7.585,0,0,0-4.055-4.381c-1.31-.542-1.377-.542-5.073-.584l-3.4-.025Zm6.9,1.252a6.121,6.121,0,0,1,4.364,3.421l.209.467H219.361v-4.005h2.578A22.388,22.388,0,0,1,225.135-294.64Zm4.907,5.891v.668H219.361v-1.335h10.681Zm-.5,2.378a6.219,6.219,0,0,1-3.179,3.146c-1.01.426-1.569.484-4.422.484h-2.578v-4.005H229.7Z" transform="translate(-198.403 313.683)" fill="#16becf"/>
    </g>
    <g id="Group_3628" data-name="Group 3628" transform="translate(0 3.754)">
      <g id="Group_3626" data-name="Group 3626" transform="translate(0.673 65.131)" opacity="0.56">
        <rect id="Rectangle_6364" data-name="Rectangle 6364" width="1.988" height="14.911" rx="0.994" transform="translate(6.462)" fill="#16becf"/>
        <rect id="Rectangle_6365" data-name="Rectangle 6365" width="1.988" height="14.911" rx="0.994" transform="translate(14.911 6.462) rotate(90)" fill="#16becf"/>
      </g>
      <g id="Group_3627" data-name="Group 3627" transform="matrix(0.695, 0.719, -0.719, 0.695, 104.182, 10.456)" opacity="0.56">
        <rect id="Rectangle_6364-2" data-name="Rectangle 6364" width="1.988" height="14.911" rx="0.994" transform="translate(6.462 0)" fill="#16becf"/>
        <rect id="Rectangle_6365-2" data-name="Rectangle 6365" width="1.988" height="14.911" rx="0.994" transform="translate(14.911 6.462) rotate(90)" fill="#16becf"/>
      </g>
      <g id="Ellipse_69" data-name="Ellipse 69" transform="translate(0.016 -0.046)" fill="#fff" stroke="#7bdae4" stroke-width="1.5">
        <ellipse cx="7.5" cy="8" rx="7.5" ry="8" stroke="none"/>
        <ellipse cx="7.5" cy="8" rx="6.75" ry="7.25" fill="none"/>
      </g>
      <g id="Ellipse_71" data-name="Ellipse 71" transform="translate(87.016 70.954)" fill="#fff" stroke="#7bdae4" stroke-width="1.5">
        <ellipse cx="7" cy="7.5" rx="7" ry="7.5" stroke="none"/>
        <ellipse cx="7" cy="7.5" rx="6.25" ry="6.75" fill="none"/>
      </g>
      <g id="Ellipse_70" data-name="Ellipse 70" transform="translate(84.016 -0.046)" fill="#aae7ed" stroke="#aae7ed" stroke-width="1.5">
        <ellipse cx="3" cy="3.5" rx="3" ry="3.5" stroke="none"/>
        <ellipse cx="3" cy="3.5" rx="2.25" ry="2.75" fill="none"/>
      </g>
    </g>
  </g>
</svg>
