<svg xmlns="http://www.w3.org/2000/svg" width="800" height="557.114" viewBox="0 0 800 557.114">
  <g id="a2c2abad-64c0-407c-8be5-099b23d37d1a" transform="translate(-97.71 -43.557)">
    <path id="Path_16631" data-name="Path 16631" d="M93.348,224.528c11.26-.417,22.082-3.505,33.044-5.626,3.5-.677,4.994-.208,5.12,3.52.082,2.441.841,4.86.982,7.308.156,2.7,1.258,2.783,3.163,1.541,3.892,2.233,4.331,6.1,4.637,9.9.484,5.954-.618,11.848-.908,17.78-.536,10.866-1.727,21.695-2,32.583a6.943,6.943,0,0,1-.067,1.853c-2.783,8.864,3.424,14.349,7.688,20.556.915,1.332,2.047,1.355,3.044.127,2.583-3.17,5.493-6.051,8.015-9.273,1.3-1.66,1.064-3.483.744-5.329-2.389-13.538-4.778-27.068-7.346-40.576-1.087-5.708-2.27-11.424-2.8-17.214-.313-3.461-.8-7.219,2.419-9.936,1.295.625,2.188.811,2.389-1.176.313-3.074,1-6.1,1.362-9.169.26-2.173.9-3.267,3.461-2.9,8.447,1.2,16.932,2.2,25.4,3.223a6.49,6.49,0,0,1,3.513,1.928c15.056,13.225,30.052,26.5,42.861,42.02,1.727,2.091,3.357,4.257,5.039,6.393,3.156,2.612,3.721,6.289,3.952,10.017.484,7.286-1.31,14.252-3.342,21.144-1.593,5.381-1.682,5.351,2.776,7.733a6.133,6.133,0,0,1,.357,4.689A32.531,32.531,0,0,0,236.8,333.5a7.249,7.249,0,0,1-.342,5.411c-1.243,1.347-2.91,1.146-4.465,1.191-2.463.074-4.934-.052-7.4.06-3.17.149-6.133.707-7.9,3.84a3.364,3.364,0,0,1-3.081,1.734,33.93,33.93,0,0,1-11.164-6.244c-3.773-2.441-4.465-4.867-2.6-10.8a102.64,102.64,0,0,0,2.865-11.908c.536-2.91.283-4.629-3.2-4.361a2.91,2.91,0,0,1-2.069-.744c0-2.374,1.92-1.89,3.133-1.89,2.828,0,3.937-1.488,4.413-3.989.744-4.019,1.652-8.015,2.635-11.99a4.845,4.845,0,0,0-1.972-5.53c-6.319-4.8-12.749-9.444-19.35-13.85-1.593-1.057-2.754-1.414-2.783,1.139a191.773,191.773,0,0,0,3.111,39.2,11.216,11.216,0,0,0,.878,2.047,67.5,67.5,0,0,0,2.62,10.419c1.488,4.294,1.407,8.268-2.977,11.007-3.773,2.516-8.239,2.553-12.451,2.977a125.312,125.312,0,0,1-16.21,1.131c-7.085,1.221-14.23.744-21.352.744-9.288-1.109-18.688-.052-27.969-1.325-1.578-.216-3.208-.342-4.413-1.608-2.62-4.6-1.116-9.556-1.258-14.371,1.488-11.015,3.364-22.007,2.687-33.193a154.352,154.352,0,0,0-1.727-18.42,28.943,28.943,0,0,1-1.049-4.808,15.346,15.346,0,0,0-.491-3.944,36.116,36.116,0,0,0-1.362-4.235C96.34,260,91.078,260.013,85.824,259.7A17.467,17.467,0,0,1,82.1,259.4a91.866,91.866,0,0,0-9.675-1.221c-8.819-.7-17.363-2.59-25.207-6.765s-9.75-11.491-8.544-19.618c1.347-9.072,3.721-17.862,9.623-25.3a242.618,242.618,0,0,1,19.142-30.335c1.347-1.838,2.642-2.769,4.845-2.382,3.989.394,7.874,1.116,11.275,3.431,2.158,1.057,2.173,2.173,1.042,4.421-5.47,10.9-11.082,21.665-15.257,33.1a34.54,34.54,0,0,1-1.675,7.442c-1.168,3.572-.469,4.465,3.386,4.116,4.532-.394,9-1.295,13.545-1.667C87.52,224.379,90.438,225.525,93.348,224.528Z" transform="translate(277.665 -18.996)" fill="#089d8b"/>
    <path id="Path_16632" data-name="Path 16632" d="M692.611,357.346c7.561.052,15.123.149,22.685.141,14.074,0,22.625,8.507,22.625,22.7V508.532c0,2.478.074,4.957.112,7.442.581,8.745,1.146,17.49,1.146,26.257v98.441c0,7.041-2.114,13.121-7.316,18a54.171,54.171,0,0,1-4.823,3.029,17.8,17.8,0,0,1-2.873,1.2c-5.552,2.009-11.231,1.905-16.954,1.02-1.995-2.151-.089-2.977,1.4-3.721,4.242-2.166,6.981-5.723,9.251-9.72a12.213,12.213,0,0,0,1.3-6.073,53.792,53.792,0,0,0,.536-8.187q0-41.677,0-83.318c0-1.116,0-2.233-.037-3.349,0-2.337-1.213-3.342-3.468-3.379-1.488,0-2.977-.045-4.465-.045-49.715,0-99.431-.171-149.146.1-14.141.082-31.511-9.229-36.073-26.793a35.306,35.306,0,0,1-.789-10.687c.045-1.027-.171-3.2,2.233-2.032,2.471,3.818,3.885,8.187,6.743,11.863,5.954,7.614,13.776,11.729,23.272,12.89a16.273,16.273,0,0,1,1.831.32,22.732,22.732,0,0,0,4.465.179H713.815c5.954,0,6.013-.1,6.021-6.051.052-28.765-.067-57.53-.119-86.295a59.944,59.944,0,0,0-2.158-14.282c.327-6.847-2.054-13.114-4.7-19.172a39.854,39.854,0,0,0-9.541-13.56,22.333,22.333,0,0,0-15.934-5.85c-15.711.089-31.429-.506-47.14.342-1.95.1-4,.29-5.693-1.094a2.233,2.233,0,0,1-.5-1.756,13.286,13.286,0,0,0,.886-6.7c-.365-5.954.744-12-.968-17.862a2.493,2.493,0,0,1,.744-2.687c1.578-.938,3.342-.8,5.061-.8h47.1A11.247,11.247,0,0,1,692.611,357.346Z" transform="translate(153.042 -65.676)" fill="#08917e"/>
    <path id="Path_16633" data-name="Path 16633" d="M-243.934,409.536a7.442,7.442,0,0,1,1.414-5.21c1.057,1.027,2.106,2.679,3.319.082-1.183-1.355-2.233.8-3.319-.082.744-8.068,3.915-15.488,6.4-23.071a223.344,223.344,0,0,1,22.364-47.632c5.373-8.693,11.387-16.931,17.4-25.193,3.885-5.329,9.05-9.675,11.908-15.756a2.661,2.661,0,0,1,2.8-.327c10.65,3.156,20.221,7.956,27.023,17.207a26.591,26.591,0,0,1,4.465,10.114c2.977,13.3,9.236,24.984,17.3,35.805,1.176,1.578,2.575,3.036,2.932,5.1,1.533,15.279,2.94,30.566,3.148,45.935a18.384,18.384,0,0,1-.275,2.977c-.744,2.836-3.781,4.034-5.954,2.151-1.682-1.444-3.461-1.615-5.478-1.682-7.628-.268-15.3.811-22.9-1.057-2.88-.744-5.738,1.139-8.76,1.124-24.24-.112-48.48.1-72.72-.149A3.23,3.23,0,0,1-243.934,409.536Z" transform="translate(349.871 -49.283)" fill="#bfece6"/>
    <path id="Path_16634" data-name="Path 16634" d="M679.408,334l-57.872.149c-1.489-1.131-1.823-2.91-2.367-4.51q-10.419-30.841-41.8-39.482c-18.859-5.172-36.051-1.31-51.606,10.032-8.8,6.415-14.937,15.078-19.075,25.163-.484,1.183-.528,3.044-2.285,2.977-1.57-.06-1.972-1.742-2.486-2.977-1.488-3.535-2.352-7.3-3.982-10.8a80.379,80.379,0,0,0-21.218-27.41c-1.139-.967-2.977-1.563-2.694-3.632,2.486-2.419,5.954-1.764,8.931-2.806,5.753-2.017,11.908-2.888,17.862-4.346,10.218-2.508,20.385-5.262,30.64-7.591,4.294-.975,8.931-.558,13.136-1.794,7.107-2.106,14.364-1.325,21.516-1.883,7.71-.6,15.5.491,23.191,1.63a104.5,104.5,0,0,1,30.328,9.675A129.038,129.038,0,0,1,647,294.489c9.749,8.313,17.661,18.13,25.17,28.348C674.809,326.417,677.019,330.279,679.408,334Z" transform="translate(166.245 -42.33)" fill="#d5f2ef"/>
    <path id="Path_16635" data-name="Path 16635" d="M429.994,284.639c7.606,6.453,14.662,13.4,20.05,21.888,4.465,7.026,7.227,14.729,9.958,22.93,13.687-30.886,36.7-45.533,70-40.07,24.039,3.944,42.109,22.58,47.5,45.868,1.883,6.84,1.377,13.813,1.213,20.772-.863,1.913-.469,4.108-1.34,6.028l.06,1.429c.744,3.252-1.1,5.954-2.1,8.723-2.285,6.423-6.229,11.908-10.323,17.3a4.131,4.131,0,0,1-2.761,1.675,78.254,78.254,0,0,1-8.417.074c-3.721-.127-4.019-.744-2.121-4.071.179-.32.335-.655.484-.982a14.487,14.487,0,0,1,3.721-4.562c9.3-8.484,12.652-19.268,13.039-31.563a48.376,48.376,0,0,0-8.8-30.112c-9.891-13.992-23.481-21.427-40.933-21.8-14.185-.305-26.13,4.681-36.542,13.873a26.05,26.05,0,0,0-5.805,8.135c-.863,1.734-1.347,3.788-3.29,4.8-2.233,1.578-2.91,4.19-3.58,6.482-4.4,15.13-3.669,29.866,4.317,43.806a50.118,50.118,0,0,0,10.07,11.848c.878.8,2.374,1.6,1.98,2.9-.484,1.578-2.233,1.206-3.543,1.235-2.6.06-5.21.1-7.8,0a4.753,4.753,0,0,1-1.094-.216c-6.043-3.721-8.47-10.114-11.8-15.852-.6-1.035-.707-2.382-2.039-3.215-2.694,6.534-4.465,13.434-9.258,18.859-5.031,1.4-10.04,1.853-14.989-.365-.409-1.295.476-2.084,1.161-2.977,7.256-9.087,10.553-19.633,12.176-31.02,1.816-12.741-.834-24.783-5.954-36.051a62.605,62.605,0,0,0-27.9-29.866,78.383,78.383,0,0,0-17.862-7.16,63.827,63.827,0,0,0-22.878-1.243,67.116,67.116,0,0,0-37.041,16.522,38.12,38.12,0,0,0-7.777,9.4,13.135,13.135,0,0,1-3.513,4.272,8.705,8.705,0,0,0-2.657,3.505q-14.022,25.818-5.411,53.905c1.8,5.82,4.808,11.112,7.956,16.329,2.516,4.16,1.92,5.21-2.91,5.165-3.074,0-6.2.521-9.229-.491-4.681-4.056-6.08-9.951-8.328-15.3a25.49,25.49,0,0,1-2.292-12.034c.484-5.21-1.593-10.166-1.444-15.436.119-4.339,1.928-8.41,1.421-12.749-1.593-2.538.164-4.852.744-7.055A77.686,77.686,0,0,1,319,298.809a2.084,2.084,0,0,1,.938-.566c5.4-4.979,10.256-10.538,16.373-14.7A80.527,80.527,0,0,1,385.9,269.3C402.3,269.918,416.672,275.649,429.994,284.639Z" transform="translate(210.248 -43.428)" fill="#f28929"/>
    <path id="Path_16636" data-name="Path 16636" d="M74.774,270.648l.878,4.465c-1.7,1.563-1.273,2.776.625,3.721l.841,4.287c1.049,2.917-.476,4.108-3.074,4.622a21.209,21.209,0,0,1-4.064.38q-23.615.045-47.222,0a13.166,13.166,0,0,1-2.977-.208c-1.325-.305-3.022-.573-2.917-2.233.082-1.392,1.622-1.689,2.888-1.853a28.176,28.176,0,0,1,3.721-.127H50.586a13.194,13.194,0,0,0,3.215-.216,8.722,8.722,0,0,0-4.212-.506H.134a31.435,31.435,0,0,0-5.21.357c-2.076.342-4.3-.112-4.376,3.394-.045,2.009-2.545,1.868-3.275.424-1.541-3.036-3.371-2.508-5.6-1.206-2.069-.305-2.233-2.069-2.672-3.58-1.325-4.778-2.6-9.564-4.391-14.58-2.062,15.093-8.536,26.16-24.448,29.2-1.771-1.027-1-2.62-.789-3.989a159.805,159.805,0,0,1,3.87-18.9c4.25-15.227-.082-27.983-10.806-39.043a93.777,93.777,0,0,0-10.784-9.057c-1.235-.945-2.836-1.652-3.036-3.528,9.013-4.6,18.792-7.108,28.579-8.76a128.963,128.963,0,0,1,35.724-1.25,124.154,124.154,0,0,1,24.1,4.882c1.7.543,2.054-1.072,3.23-1.012-3.163,6.7-6.274,13.456-7.837,20.779A41.477,41.477,0,0,0,11.6,241.5c-1.228,11.99,2.151,16.946,13.955,21.5a73.13,73.13,0,0,0,18.7,4.071c3.051,2.352,6.7.439,9.921,1.3l3.513.231a142.634,142.634,0,0,0,15.934,1.288C74.2,269.844,74.462,270.246,74.774,270.648Z" transform="translate(305.728 -28.737)" fill="#dbf4f0"/>
    <path id="Path_16637" data-name="Path 16637" d="M-246.747,448.77c2.047-1.89,4.465-.744,6.7-.744h67.227c1.868,0,3.721.067,5.4-.967a4.3,4.3,0,0,1,3.6-.424c8.343,2.873,16.924.744,25.379,1.288.975.06,1.809-.372,2.538.744.61.945.491,3.133,2.493,2.292,1.756-.744,3.379-1.905,2.746-4.346a3.14,3.14,0,0,1,.127-1.1c2.486,1.488,1.444,3.863,1.392,5.954-1.02,3.773-.38,7.621-.514,11.432a39.572,39.572,0,0,1-.454,5.3c.581-.357.275-1.384,1.035-1.742,2.583,1.615,1.488,4.064,1.444,6.274-.8,1.98-.313,4.175-1,6.185-.067.194-.313.409-.074.647.179-.424.514-.417.893-.342a2.216,2.216,0,0,1-.208,3.483c-1.734.9-3.624.744-5.47.744-24.292-.052-48.584.149-72.876-.1a6.341,6.341,0,0,0-2.553.357c-6.7,2.091-9.11,7.115-9.206,13.62-.119,7.651,0,15.309-.045,22.96,0,1.7.231,3.483-.826,5.024-3.662.7-7.368.394-11.052.432-5.693.06-11.387,0-17.073.439-4.093.313-5.731,1.853-6.036,5.909-.231,2.977.945,6.207-1.094,9-.194-.313-.551-.618-.551-.93,0-11.112-.536-22.216.32-33.335.558-7.241.744-14.49,1.622-21.732,1.072-8.931,2.233-17.817,3.967-26.621C-248.295,455.237-247.476,452.007-246.747,448.77Z" transform="translate(352.683 -88.517)" fill="#afe7df"/>
    <path id="Path_16638" data-name="Path 16638" d="M-60.29,747.923q-41.611,0-83.229.045c-24.4,0-48.792-.082-73.189,0-2.977,0-4.361-.915-5.344-3.721-5.731-16.544-11.119-33.186-14.81-50.333-.439-2.032-1.488-3.944-1.34-6.11-.38-1.168-.96-2.545.506-3.208,1.295-.588,2.449.29,3.059,1.429,1.161,2.173,3.163,2.783,5.292,2.731,4.056-.1,8.313,1.355,12-1.965,1.734-1.563,2.233.409,2.426,1.742.4,3.044-.305,6.17.662,9.184.6,4.808.208,9.63.3,14.446.179,9.229,4.8,13.858,14.051,13.9,8.648.045,17.3,0,25.952,0,5.388,0,5.991.662,6.036,5.954v10.01c0,1.221-.194,2.5.819,3.476,1.816,1.191,3.855.655,5.8.744,3.089.082,6.185,0,9.273,0,8.819,0,11.714-2.307,13.657-10.829.566-1.816.327-3.721.409-5.537.1-2.411,1.362-3.587,3.721-3.773.99-.074,1.98-.1,2.977-.1h56.027a14.273,14.273,0,0,1,4.406.417c1.727.655,1.771,2.188,1.868,3.669.1,1.719,0,3.453.119,5.21.32,4.518,2.233,8.016,6.43,10.062a5.506,5.506,0,0,1,2.106,1.488,1,1,0,0,1,.022,1.072Z" transform="translate(348.506 -149.617)" fill="#7ed8cc"/>
    <path id="Path_16639" data-name="Path 16639" d="M-219.112,663.46c-1.637-3.364,0-7.026-1.183-11.32-1.548,4.89-5.113,3.773-8.276,3.907a35.372,35.372,0,0,1-9.526-.886c-.915-.216-1.049-.975-1.035-1.727,0-1.362-.789-2.315-1.942-2.233-1.7.1-.744,1.742-1.087,2.664-2.449-6.371-3.066-13.158-4.413-19.774a345.53,345.53,0,0,1-5.634-36.944c-.893-9.578-2.307-19.172-1.861-28.862,0-3.074,0-6.155.045-9.236,0-4.942,2.538-6.311,7.532-6.7,8.112-.67,16.21,0,24.285-.647,1.384-.112,2.3-.089,3.156.915,1.868,2.865,1.087,5.954.744,9.005-2.315,2.627-4.89,4.912-4.361,9.162.357,2.9.886,5.284,3.416,6.914a4.033,4.033,0,0,1,.982,1.682c.618,7.673,0,15.369.335,23.071.1,5.813.037,11.633,0,17.453a7.738,7.738,0,0,1-.975,4.644c-4.629,4.19-5.21,10.777-1.235,14.833a4.086,4.086,0,0,1,2.106,3.721c.223,5.954.194,11.863,0,17.795a3.327,3.327,0,0,1-1.072,2.56Z" transform="translate(352.474 -115.666)" fill="#95dfd5"/>
    <path id="Path_16640" data-name="Path 16640" d="M-75.237,225.577c5.805,4.391,11.781,8.492,16.634,14.066,9.675,11.164,13.166,23.7,9.005,38.157a160.962,160.962,0,0,0-4.1,19.559c-.119.744-.826,1.652.3,2.233.432.886-.186,1.369-.744,1.846-6.177,5.262-8.782,12.369-10.084,20.042a86.249,86.249,0,0,0-1.533,17.289c.045,1.444.1,2.977-1.362,4.011a37.83,37.83,0,0,1-15.7-.119c-2.322-16.827-5.775-33.61-2.151-50.69a33.96,33.96,0,0,1,4.465-14.409c8.358-14.408,8.551-29.323,3.141-44.654-.99-2.8-1.608-5.693-2.649-8.469C-78.08,223.188-76.889,225.391-75.237,225.577Z" transform="translate(309.607 -31.879)" fill="#088878"/>
    <path id="Path_16641" data-name="Path 16641" d="M1,703.253v-.506c1.191-1.444,2.888-1.25,4.465-1.28,4.078-.082,8.187-.1,12.25,0,2.7.06,3.8-1.057,3.721-3.721-.1-3.587-.06-7.174,0-10.762,0-1.6-.074-3.245,1-4.622,1.637-1.176,3.543-.975,5.381-.982h24.56c9.779,0,14.4-4.518,14.423-14.3.074-29.77,0-59.465,0-89.2v-61.7c0-1.965-.246-3.982.677-5.85a1.072,1.072,0,0,1,1.235-.543c1.027.93.945,2.233,1.161,3.431.052,24.329.179,48.666-.052,73,.127,26.16,0,52.32.275,78.89,1.488-3.721,4.465-3.721,7.569-3.721a46.234,46.234,0,0,1,12.168,1.161c2.233.588,4.547,1.414,6.9.32a2.977,2.977,0,0,1,2.6.208c2.813,4.808,1.488,10.047,1.57,15.138a4.131,4.131,0,0,1-.32,1.079c-1.079,1.92-4.16,2.456-3.781,5.411a7.256,7.256,0,0,1-2.315,4.57c-1.771,1.808-.826,3.825-.432,5.8.633,4.681,1.712,5.827,7.554,5.872,5.426.045,10.881.476,16.306-.223,1.221-.156,2.523-.469,3.1,1.161a2.627,2.627,0,0,1-2.4,1.95c-15.078-.052-30.149.052-45.228,0a6.962,6.962,0,0,1-3.29-.29Z" transform="translate(287.216 -104.947)" fill="#7dd8cb"/>
    <path id="Path_16642" data-name="Path 16642" d="M74.084,123.65c-5.612-2.5-11.312-4.867-16.083-8.879-14.475-12.2-21.27-27.6-18.561-46.53C42.647,45.959,55.812,31.6,77.157,26.035a49.678,49.678,0,0,1,60.715,35.136c7.137,26.309-5.626,50.095-28.43,60.41a41.953,41.953,0,0,1-14.662,3.781c-6.08,1.422-12.131,1.63-18.145-.38a5.44,5.44,0,0,1-2.553-1.332Z" transform="translate(277.534 19.194)" fill="#f28929"/>
    <path id="Path_16643" data-name="Path 16643" d="M-107.781,305.411c-.64,5.6-1.488,11.164-1.488,16.865,0,10.263,1.771,20.3,3.319,30.372.246,1.593.156,2.553-1.027,3.468a6.164,6.164,0,0,1-7.316.067c-9.02-11.342-16.559-23.525-19.722-37.845s-13.121-21.829-25.8-26.793a30.882,30.882,0,0,0-8.149-2.411l-11.633-2.627c6.542-2.925,13.24-4.011,19.782-5.6,12.92-4.175,25.431-3.133,37.346,3.319,5.537,2.977,9.028,7.993,11.58,13.672C-109.76,300.365-109.195,303.074-107.781,305.411Z" transform="translate(333.406 -45.78)" fill="#089e8c"/>
    <path id="Path_16644" data-name="Path 16644" d="M-100.99,291.638c-2.315,1.265-1.7-1.154-1.957-1.823-1.488-3.8-2.769-7.673-5.21-11.045-6.773-9.437-16.693-12.131-27.537-12.875-5.842-.4-11.588.6-17.356,1.235,12.3-11.908,25.237-23.071,40.189-31.578a137.5,137.5,0,0,1,13.471-6.944c2.166-.938,2.493-2.151,2.307-4.049,8.522,16.909,10.65,34.027,1.488,51.42C-98.214,280.966-100.365,286.027-100.99,291.638Z" transform="translate(326.615 -32.008)" fill="#daf4f0"/>
    <path id="Path_16645" data-name="Path 16645" d="M182.483,250c-2.538,5.21-1.555,10.628-.6,15.971q4.748,26.614,9.675,53.2a4.63,4.63,0,0,1-1.2,4.644c-3.066,3.215-5.954,6.624-8.789,10.032-1.347,1.608-2.426,2.054-3.513-.141a5.113,5.113,0,0,0-.394-.625c-9.824-14.193-9.534-14.141-7.792-31.5,1.392-13.888,2-27.857,2.88-41.8.246-3.892-1.66-7.122-3.677-10.256C176.671,243.571,174.192,243.325,182.483,250Z" transform="translate(244.266 -37.242)" fill="#00023f"/>
    <path id="Path_16646" data-name="Path 16646" d="M148.959,178.533a25.1,25.1,0,0,1-3.275-9.764c-.38-5.21,1.63-9.139,6.319-11.6,1.087-.573,2.233-.982,2.836-2.233,6.52-13.069,29.226-10.858,35.657,3.252,3.066,6.7,3.595,13.553.744,20.5-2.761.38-5.634.32-8.053,2.039a4.339,4.339,0,0,1-1.63.171,37.392,37.392,0,0,1-6.326-1.444,17.569,17.569,0,0,0-1.995-.6c-2.233-.64-4.614-1.407-6.214-3.051-2.322-2.389-3.587-1.488-4.867.834a5.664,5.664,0,0,1-.953,1.116c-1.176,1.079-2.233,2.4-4.056,2.315C154.608,178.511,151.72,178.816,148.959,178.533Z" transform="translate(250.223 -11.985)" fill="#00023f"/>
    <path id="Path_16647" data-name="Path 16647" d="M653.3,762.056a10.717,10.717,0,0,1,3.721-2.352c1.347,1.34,2.635.841,3.982-.052,1.734-1.146,3.3-1.555,4.592.744,1.146,2.076,2.009,1.25,2.545-.506.61-2.017.588-4.16,1.221-6.162.327-1.042-.1-2.649,1.719-2.8v6.7a22.809,22.809,0,0,0-.543,5.865c-.045,2.836-1.206,3.476-3.84,3.453-13.962-.112-27.931,0-41.893-.074-5.917,0-11.841.4-17.743-.275q-69.959-.037-139.858-.082c-10.911,0-21.814-.082-32.747-.127a5.157,5.157,0,0,0-2.233-.238c-17.475.26-34.979-.432-52.424-.394-46.493.1-92.978-.633-139.463-.35-.633-.074-1.079-.171-.834-1.079.067-.238,1.295.112.246-.327-.6-.246-1.548.067-1.682-.826s.61-1.489,1.488-1.637c11.4,2.523,22.96,1.488,34.458,1.488q175.768.1,351.528.067c2.553,0,5.21-.573,7.606,1,5.954.179,11.975.528,17.862-1.154C651.885,762.89,653.24,764.1,653.3,762.056Z" transform="translate(226.589 -166.631)" fill="#75dac9"/>
    <path id="Path_16648" data-name="Path 16648" d="M815.034,704.956c-1.414,3.163-1.168,6.7-2.158,9.943-.283.923-.365,2.129-1.488,2.307a2.084,2.084,0,0,1-2.292-1.488c-.975-3.357-2.516-2.374-4.384-.744s-3.394,1.935-3.721-1.228c5.85-5.612,7.569-12.5,7.524-20.5-.246-39.9-.164-79.8-.186-119.7,0-.863.119-1.719.179-2.582.7,5.6,1.682,11.164,2.054,16.82,1.176,17.862,2.553,35.768,3.438,53.69C815.034,662.594,815.138,683.752,815.034,704.956Z" transform="translate(82.612 -120.605)" fill="#84dcd0"/>
    <path id="Path_16649" data-name="Path 16649" d="M149.319,189.309c2.888-1.221,5.664-1.488,8.1.99,1.392.692.9,1.786.677,2.888-.826,4.183-.35,5.21,3.394,7.591,5.083.93,6.408.424,8.35-3.721,1-2.114,1.794-2.233,2.806-.141a5.463,5.463,0,0,0,4.465,3.468c3.989.454,6.624-2.143,6.259-6.2-.1-1.057-.826-2.158.179-3.156,2.233-2.836,5-2.977,8.06-1.6,2.821,4.5,2.352,6.6-2.233,9.11a2.687,2.687,0,0,0-1.488,1.928c-1.414,6.557-5.277,11.208-11.164,14.289-2.731,2-5.954.335-8.849,1.191,3.022,2.9,6.11,3.26,9.087,1.064.9,1.756,1.206,4.116.119,5.277-2.173,2.315-3.974,5.068-6.765,6.773a1.265,1.265,0,0,1-.685.208c-1.89-.119-7.963-8.187-7.442-10.062.938-3.282.491-5.813-2.6-7.9a16.71,16.71,0,0,1-5.388-6.921c-1.1-2.322-2.233-4.294-4.726-5.783C146.156,196.625,146.372,193.834,149.319,189.309Z" transform="translate(249.863 -22.76)" fill="#faaca6"/>
    <path id="Path_16650" data-name="Path 16650" d="M318.5,307.574c-1.779,4.317-5.269,7.524-7.442,11.64a99.288,99.288,0,0,0-9.162,25.341c-1.809-.193-3.677.335-5.619-.409a126.632,126.632,0,0,0,5.21-19.3c1.094-6.609,1.035-13.017-2.382-19.03C305.628,305.534,312.17,305.415,318.5,307.574Z" transform="translate(211.696 -52.751)" fill="#cff0ea"/>
    <path id="Path_16651" data-name="Path 16651" d="M202.611,769.444c53.161,0,106.33-.156,159.491.186,11.112.074,22.245.514,33.372.581a2.6,2.6,0,0,1,2.069.6c-22.938,0-45.875.231-68.813,0-76.984-.744-153.969-.528-230.961-.744-1.332,0-2.746.35-3.959-.566l30.112-.074h19.157c1.786-1.042,3.758-1,5.738-1.012,5.537,0,11.067.112,16.6-.1,10.747-.127,21.494,0,32.241-.052A7.858,7.858,0,0,1,202.611,769.444Z" transform="translate(263.479 -171.064)" fill="#8cdcd2"/>
    <path id="Path_16652" data-name="Path 16652" d="M85.617,157.77a80.443,80.443,0,0,0,20.727,1.7c-3.989,1.488-4.555,5.813-6.959,8.618-1.414,1.652-2.277,3.773-4.16,5.068A33.825,33.825,0,0,1,83.95,169.73Z" transform="translate(266.001 -14.926)" fill="#faada5"/>
    <path id="Path_16653" data-name="Path 16653" d="M102.717,238.619c-8.41.99-16.82,1.942-25.222,2.977-2.456.305-2.813-.915-2.337-2.8.871-3.438,1.719-6.907,3.535-10.017.134,1.533,1.414,1.905,2.516,2.382,5.567,2.4,11.119,4.867,16.76,7.078C99.375,238.827,101.124,238.53,102.717,238.619Z" transform="translate(268.296 -33.087)" fill="#ddf5f1"/>
    <path id="Path_16654" data-name="Path 16654" d="M733.84,768.918c19.008,0,38.023-.208,57.031.045,4.145.052,6.088-.923,6.237-5.135.045-1.273-.38-2.769.744-3.878,0,11.677,1.488,9.459-9.095,9.541-16.991.134-33.975,0-50.966,0C736.475,769.454,735.061,769.811,733.84,768.918Z" transform="translate(99.786 -168.938)" fill="#84dcd0"/>
    <path id="Path_16655" data-name="Path 16655" d="M183.073,226.115c-.067,1.95-.365,3.014-2.977,2.575-3.4-.566-6.4-1.414-9.236-4.83h12.012Z" transform="translate(243.773 -31.829)" fill="#9f6360"/>
    <path id="Path_16656" data-name="Path 16656" d="M-10.254,309.481c1.154-.454,2.769-.4,2.382-2.456a1.436,1.436,0,0,1,.224-1.079,1.436,1.436,0,0,1,.922-.6c.938-.171,1.183.744,1.488,1.377.536,1.109.871,2.322,1.488,3.386.394.7,1.02,1.667,2.009,1.176.811-.4.923-1.191.543-2.233-.744-2.054-2.94-5.582,2.329-2.471,1.347.8,3.357-.923,5.292-.915,18.212.1,36.423.067,54.642.067h1.116c1.362.1,3.237.134,3.252,1.712,0,2.1-2.069,1.206-3.208,1.213-10.777.074-21.583,0-32.337.067-1.265,0-2.754-.551-3.773.9.99,1.541,2.53,1.295,3.959,1.295,16.6,0,33.208.074,49.8-.067,2.516,0,6.11.7,6.043-3.825a112.12,112.12,0,0,1,1.809,33.952c-.6,6.14-1.682,12.228-2.545,18.338-1.1,3.379-.045,6.892-.6,10.3-2.076,1.63-4.064.491-5.887-.417a15.949,15.949,0,0,0-6.453-1.414c-14.49-.811-29.025-.1-43.479-.953-9.965-.581-19.8.744-29.7.246-1.727-.1-3.52.223-5.165-.4-1.258-.476-1.756-.082-2.233,1.027-.789,1.9-2.508,2.233-4.309,2.307-3.58.171-7.152-.067-10.732.7-3.1.662-2.642-2.6-3.848-4.376-2.188,2.158-3.379.953-4.183-1.325-.305-.856-.64-1.667-1.816-1.355A3.944,3.944,0,0,1-36,363.446c-1.488-1.31-.744-2.724-.089-4.041,4.465-9.02,10.107-17.006,19.276-21.881,4.064-2.158,5.783-5.909,6.758-10.144a31.876,31.876,0,0,0-.119-11.216C-10.47,313.939-11.884,311.721-10.254,309.481Z" transform="translate(296.9 -52.663)" fill="#c9efea"/>
    <path id="Path_16657" data-name="Path 16657" d="M290.919,395.8c1.98,7.39,3.788,14.848,7.539,21.583,1,1.8,2.091,3.55,3.141,5.321a1.087,1.087,0,0,1-.61,1.2,9.339,9.339,0,0,1-4.369.647q-18.978.037-37.956,0a10.353,10.353,0,0,1-4.384-.6,1.935,1.935,0,0,1-.945-2.233c1.273-2.173,3.453-1.369,5.3-1.526,5.016-.424,7.2-3.833,5.314-8.44-2.143-5.21-1.317-7.219,4.1-9.9,1.161,0,2.367-.141,2.769-1.392,1.407-4.384,5.135-4.391,8.648-4.562C283.268,395.715,287.093,395.819,290.919,395.8Z" transform="translate(222.698 -75.8)" fill="#027363"/>
    <path id="Path_16658" data-name="Path 16658" d="M236.452,350.172c-1,.082-1.191-.558-1.347-1.362-2.716-14.416-3.252-28.958-2.873-43.91,2.6.551,4.227,2.3,6.051,3.587,6.17,4.339,12.206,8.864,18.353,13.225,1.853,1.317,2.426,2.635,1.771,4.986a126.8,126.8,0,0,0-2.977,13.761c-.484,2.977-1.57,4.465-4.785,3.944a5.1,5.1,0,0,0-3.952.551C243.24,346.652,240.07,348.848,236.452,350.172Z" transform="translate(228.104 -52.555)" fill="#ccf0ea"/>
    <path id="Path_16659" data-name="Path 16659" d="M237.93,363.909a16.269,16.269,0,0,1,10.226-5.21c2.322.134,5.381-.58,6.765.625,1.593,1.384-.424,4.235-.551,6.482a32.3,32.3,0,0,1-2.568,10.211c-.982,2.449.037,5.143-.99,7.621-.327.781.67,1.176,1.488,1.191,1.072,0,1.987.208,2.069,1.541-2.463.99-3.766,2.977-4.711,5.336a40.19,40.19,0,0,0-2.426,9.616,9.861,9.861,0,0,0,1.637,7.026c.581.863,1.652,1.6,1.087,2.917l-.067,2.6c-.35,1.719-1.853,1.221-2.977,1.533-4.049-7.986-8.038-15.986-8.484-25.185a20.169,20.169,0,0,0-.484-5.478c4.331-3.423,3.282-7.569,1.608-11.819a19.961,19.961,0,0,1-1.622-9.013Z" transform="translate(226.626 -66.292)" fill="#08907f"/>
    <path id="Path_16660" data-name="Path 16660" d="M127.7,397c3.424,1.25,7.026,1.2,10.583,1.355,7.152.32,14.3.521,21.456.744,1.771,3.61,1.072,7.346.581,11.074-1.995,2.977-5.21,2.411-7.71,1.764-6.222-1.615-12.786-.677-18.867-2.917-2.493-.915-5.381-1.139-6.765-3.952C126.624,402.329,125.8,399.53,127.7,397Z" transform="translate(255.12 -76.111)" fill="#020103"/>
    <path id="Path_16661" data-name="Path 16661" d="M252.8,420.73c-6.333-6.758-3.342-13.821-.625-20.839.863-2.233,1.191-5.4,5.031-4.078,2.828,2.679,6.7,3.595,9.75,5.954a10.754,10.754,0,0,1-1.4,1.689c-2.91,2.352-4.153,4.54-1.652,8.4,2.583,3.989-.491,8.842-5.254,9.377a17.058,17.058,0,0,1-5.85-.5Z" transform="translate(223.779 -75.728)" fill="#faada6"/>
    <path id="Path_16662" data-name="Path 16662" d="M227.841,393.76c2.575,1.31,1.012,3.587,1.273,5.44-.372,5.105-.439,4.882-5.478,6.512-5.664,1.838-11.58,2.4-17.318,3.811-2.337.573-4.919.878-7.115-.863-1-3.677-1.608-7.338.454-10.881,7.651-.871,15.4-.744,22.967-2.367A17.429,17.429,0,0,0,227.841,393.76Z" transform="translate(236.76 -75.282)" fill="#010103"/>
    <path id="Path_16663" data-name="Path 16663" d="M192.7,399.17l-.127,10.925c-.238.275-.4.677-.744.744a38.614,38.614,0,0,1-20.735,0q0-5.582.074-11.164Z" transform="translate(243.714 -76.666)" fill="#3b3d3e"/>
    <path id="Path_16664" data-name="Path 16664" d="M127.344,392.123l.067,8.187q.164.834-.685.744c-2.076-4.116-1.809-8.432-1.064-12.779.528-3.431-.863-7.033.93-10.345C126.719,382.656,125.372,387.464,127.344,392.123Z" transform="translate(255.473 -71.233)" fill="#b5e9e2"/>
    <path id="Path_16665" data-name="Path 16665" d="M119.118,290.161A95.935,95.935,0,0,1,102,288.07l15.339.744C118.277,288.851,119.118,288.948,119.118,290.161Z" transform="translate(261.384 -48.251)" fill="#c9efea"/>
    <path id="Path_16666" data-name="Path 16666" d="M93.913,287.312a46.35,46.35,0,0,0-4.7.633c-1.98.439-4.22.685-5.21-1.935a43.391,43.391,0,0,1,9.913,1.3Z" transform="translate(265.988 -47.724)" fill="#c9efea"/>
    <path id="Path_16667" data-name="Path 16667" d="M125.846,300.606c-1.273-.127-3.111.469-3.342-1.362-.194-1.555,1.25-2.233,2.716-2.374a4.733,4.733,0,0,1,.625,3.736Z" transform="translate(256.145 -50.502)" fill="#c9efea"/>
    <path id="Path_16668" data-name="Path 16668" d="M250.757,433.939c-.141-1.861,1.957-.417,2.307-1.555l47.55-.149c5.626-.089,11.32,1.064,16.82-1.146,2.27-.908,4.2,1.079,6.46,1.012,3.944-.119,7.9,0,11.841,0h17.028a13.2,13.2,0,0,0,4.741-.581c4.823-.655,9.675-.179,14.483-.171,16.239,0,32.479-.037,48.718,0a7.285,7.285,0,0,1,2.084.38,48.422,48.422,0,0,0,14.885,0,97.647,97.647,0,0,1,23.071.231l.744-.164c2.977,1.131,6.14.618,9.184.521,19.685-.647,39.37,0,59.056-.283,6.43-.089,12.853.744,19.283.208,3.468-1.057,7.033-1.057,10.62-1.049q34.3.052,68.612,0a23.429,23.429,0,0,1,16.292,6.081c1.8,1.608,3.721,3.342,3.036,6.229a27.046,27.046,0,0,1,2.88,12.868c.06,30.6,0,61.2.112,91.795,0,3.349-.982,4.1-4.2,4.1q-77.118-.149-154.237-.089c-1.317,0-2.746.424-3.907-.64,1.972-1.861,4.465-1.235,6.7-1.235q72.936-.06,145.871,0c8.484,0,7.755.484,7.762-7.941V489.154c0-5.612-.074-5.693-5.507-5.693H490.872a33.335,33.335,0,0,0-32.821,39.6c.246,1.325.744,2.679-.387,3.878-.491-.067-1.317-1.987-1.407.149-.573,14.624,5.44,26.16,19.507,33.528a33.855,33.855,0,0,0,15.964,3.565c50.794-.149,101.6-.089,152.4-.089,6.348,0,6.348,0,6.348,6.527v83.258c0,3.58.193,7.167-.744,10.687-.834,1.488-2.277,1.786-3.8,1.89s-3.223.067-4.83.067H365.14c-4.465,0-8.931-.6-13.4,0a5.954,5.954,0,0,1-3.6-.662c-1.652-1.273-.655-2.33.335-3.327a13.648,13.648,0,0,0,2.806-3.416,5.308,5.308,0,0,0-.141-5.626c-1.206-1.8-2.977-1.354-4.711-1.034-.6.112-1.2.275-1.816.365-9.117.164-18.279,1.049-27.15-2.032-3.148-2.233-2.977-6-4.3-9.109,0-1.928-1.712-3.52-1.109-5.574,3.23-1.853,3.208-4.361,2.233-7.71-7.785-27.284-15.227-54.665-22.618-82.06-4.7-17.438-12.325-33.729-18.479-50.608-7.011-19.2-14.714-38.142-21.925-57.269C250.78,437.064,249.775,435.606,250.757,433.939Z" transform="translate(223.445 -84.768)" fill="#0db69f"/>
    <path id="Path_16669" data-name="Path 16669" d="M528.423,544.544c.179-2.062-1.228-3.773-1.347-5.731-.566-9.273,1.191-17.862,7.122-25.394,7.584-9.593,17.445-13.657,29.606-13.62q76.054.238,152.116,0c3.885,0,4.711,1.1,4.674,4.778q-.268,30.12,0,60.284c0,3.357-.8,4.384-4.294,4.376q-76.426-.171-152.86-.074c-1.489,0-2.977.045-4.465.067C544.111,568.374,532.382,557.8,528.423,544.544Z" transform="translate(152.693 -102.402)" fill="#3bc5b1"/>
    <path id="Path_16670" data-name="Path 16670" d="M340.594,693.74c.96,1.265,2.471,1.206,3.721,1.154,17.862-.744,35.8-.2,53.7-.223q119.7-.134,239.408-.045c1.838,0,3.721.32,5.44-.744-.819,7.442-5.031,12.444-11.58,15.629-.99.484-1.689.923-1.808,2.032-1.235.052-2.471.156-3.721.156q-186.976,0-373.952.052c-5.731,0-11.372-.223-16.8-2.285-4.294-.342-6.2-3.721-8.4-6.7a17.272,17.272,0,0,1-1.355-2.977,24.76,24.76,0,0,1-1.749-10.159V548.516a7.278,7.278,0,0,1,.074-2.568c2.024-1.325,2.664.447,3.252,1.652,4.748,9.675,10.375,18.919,14.587,28.854,1.63,3.84,4.525,7.189,4.7,11.618-.744,27.038-.171,54.069-.268,81.122a59.672,59.672,0,0,0,1.012,9.608c1.161,7.227,8.313,13.91,16.485,14.379a225.25,225.25,0,0,0,31.95-.164c1.875-.521,2.233,1.049,2.9,2.158.744,1.28,1.555,2.508,2.233,3.811,1.25,3.639,4.049,3.81,7.241,3.327a133.963,133.963,0,0,0,29.36-7.762C338.2,694.134,339.269,693.4,340.594,693.74Z" transform="translate(230.33 -114.085)" fill="#0caa94"/>
    <path id="Path_16671" data-name="Path 16671" d="M750.236,434.545c-3.572-7.442-9.891-11.007-17.78-11.022-26.488-.06-52.983-.476-79.463.179-.32,0-.647-.32-.975-.5l-.208-.454c4.771-3.967,7.6-9.325,10.494-14.632,2.114-3.87,3.089-8.187,4.651-12.258,3.721,1.012,7.495,0,11.238,0,13.731,0,27.463.112,41.194,0,10.419-.1,17.371,5.091,23.027,13.292,4.9,7.115,6.5,15.324,8.931,23.287C751.68,433.592,751.68,434.4,750.236,434.545Z" transform="translate(120.766 -75.819)" fill="#027363"/>
    <path id="Path_16672" data-name="Path 16672" d="M795.235,765.88c1.131.119,1.771.677,1.652,2.4-1.139-1.422-3.066.744-3.878-1.489Z" transform="translate(84.653 -170.455)" fill="#84dcd0"/>
    <path id="Path_16673" data-name="Path 16673" d="M672.045,391.878c-.186-2.151-.3-4.279,1.34-6.028C673.623,388.016,673.779,390.152,672.045,391.878Z" transform="translate(115.617 -73.259)" fill="#898a55"/>
    <path id="Path_16674" data-name="Path 16674" d="M-50.343,382.364l2.806.1c1.369,1.213,1.377,2.88,1.258,4.465-.863,11.268-.982,22.573-1.742,33.848-1.1,3.721-.372,7.6-.5,11.4a53.419,53.419,0,0,1-.365,5.448c-.662,6.616-.417,13.285-1.064,19.908-.208,2.076.119,4.2-.521,6.252-.744,2.4-2.6,3.126-4.9,3.141q-13.545.119-27.1,0c-1.347,0-2.761-.052-3.721-1.325-.246-.938.394-2.084-.685-2.821a11.29,11.29,0,0,1-.1-5.917c0-2.33.275-4.674-.551-6.936a2.691,2.691,0,0,1-.826-2.664c.35-4-.789-7.986-.119-11.99.052-2.1.253-4.2-.506-6.229-.677-14.081-1.347-28.155-3.059-42.161a32.286,32.286,0,0,1,.052-4.465l7.316-.067,16.373-.045A30.3,30.3,0,0,1-50.343,382.364Z" transform="translate(311.022 -72.013)" fill="#00023f"/>
    <path id="Path_16675" data-name="Path 16675" d="M-242,442.141c.313-.194.647-.357.938-.573.938-.67,1.667-2.233,3.066-1.213.848.61.625,1.853.238,2.761a2.721,2.721,0,0,1-2.85,1.928c-1.9-.216-1.176-1.816-1.4-2.91Z" transform="translate(349.368 -87.113)" fill="#afe7df"/>
    <path id="Path_16676" data-name="Path 16676" d="M440.855,394.326l-1.228.141c-16.731.29-33.491.037-50.192.141-1.488,0-2.783-.127-2.977-1.942s-.536-3.907,1.488-4.949a15.019,15.019,0,0,1,7.167-1.682c1.995.037,2.724,1.541,3.1,3.178.96,4.123,3.952,2.344,6.289,2.129,2.493-.231,4.346-1.288,3.677-4.317-.744-3.26.834-5.359,3.639-6.467,9.824-3.885,9.638-22.58.268-27.485-.744-.4-1.533-.819-2.307-1.206-4.3-2.181-4.369-2.516-1.34-6.415,5.091-6.549,1.087-19.417-7.167-21.97-3.855-1.191-6.512-2.508-6.438-7.07.037-2.337-1.63-3.141-3.878-2.694-1.213.238-2.426.5-3.654.7-2.188.357-2.865,1.548-2.4,3.721.387,1.8.908,4.041-1.124,5.024-2.635,1.273-5.5,2.538-8.551,1.585-1.764-.543-2.233-2.292-2.307-3.93-.171-2.679-1.615-3.364-4-2.917a24.49,24.49,0,0,1-2.932.476c-3.022.194-4,1.488-3.371,4.622.789,3.967.074,4.674-3.967,5.433a28.215,28.215,0,0,0-3.245.8c-1.488.476-2.307,1.377-1.905,3.044a26.789,26.789,0,0,1,.64,4.034c.126,1.541.744,2.635,2.463,2.672,3.014.067,3.892,2.024,4.339,4.592,1.526,8.789,3.446,17.5,4.875,26.316.3,1.846.893,3.61,1.295,5.418.543,2.426.417,4.525-2.233,6.043-2.322,1.355-2.188,3.87-.558,8.038.975,2.493,2.642,1.645,4.287,1.34a12.384,12.384,0,0,1,4.056-.335c1.488.216,2.627.886,2.478,2.62-.141,1.6-1.325,1.935-2.672,1.942-5.455.045-10.911,0-16.373,0-5.21,0-10.419.089-15.629-.06-5.158-2.27-7.442-7.2-9.876-11.618-11.528-21.218-12.98-42.9-1.831-64.846a14.2,14.2,0,0,1,2.009-3.1,7.017,7.017,0,0,0,2.568-3.081c5.723-9.876,14.528-16,24.56-20.9a66.707,66.707,0,0,1,32.843-6.557c9.876.439,18.963,3.327,27.812,7.688a62.361,62.361,0,0,1,19.946,15.48c5.82,6.78,10.695,14.141,13.2,23,2.039,7.2,4.049,14.334,3.93,21.858a70.16,70.16,0,0,1-10.561,36.4A32.142,32.142,0,0,1,440.855,394.326Z" transform="translate(205.342 -47.388)" fill="#faa150"/>
    <path id="Path_16677" data-name="Path 16677" d="M530.148,334.371c2.731-3.357,3.721-7.688,6.7-11.022a46.6,46.6,0,0,1,14.021-11.007,53.92,53.92,0,0,1,27.046-5.619c14.282.7,25.937,6.445,35.672,16.686a47.631,47.631,0,0,1,12.86,26.458,55.438,55.438,0,0,1-1.786,24.813c-2.85,9.005-8.842,15.034-14.952,21.345a11.618,11.618,0,0,1-10.144,4.986c-15.473-.127-30.946,0-46.418-.074A8.863,8.863,0,0,1,548,399.024c-15.264-10.933-23.28-25.833-23.243-44.58C524.8,347.5,525.683,340.34,530.148,334.371Z" transform="translate(153.26 -53.001)" fill="#faa150"/>
    <path id="Path_16678" data-name="Path 16678" d="M330,325.89c-3.55,7.5-6.787,15.13-7.785,23.466-1.965,16.477.618,32,9.861,46.106,2.233,3.364,3.922,7.2,7.7,9.288,2.4.9,4.875.305,7.316.387,8.99.3,18-.454,26.986.4-1.154,1.1-2.575.514-3.848.521-9.273.06-18.561.409-27.8-.1-7.055-.387-14.044.6-21.062.134-1.168-.074-2.5.491-3.453-.744a2.626,2.626,0,0,0,.238-.528h13.225c-1.548-2.806-2.739-5.135-4.086-7.368-10.077-16.7-11.454-34.585-6.765-53.079,1.444-5.7,4.25-11.045,7.16-16.224A4.778,4.778,0,0,1,330,325.89Z" transform="translate(206.164 -57.924)" fill="#a06631"/>
    <path id="Path_16679" data-name="Path 16679" d="M529.649,343.606c-6.587,15.532-5.842,30.782,1.987,45.644a50.7,50.7,0,0,0,19.038,19.737c2.337,1.429,4.8.61,7.107.647,13.977.231,27.954.1,41.931.134,3.93,0,6.341-2.977,9.5-4.51,1.087,1.89-1.965,1.875-1.407,3.915h11a1.279,1.279,0,0,0,.208.454c-.96,1.124-2.277.744-3.468.744q-40.487,0-80.973-.045c-1.131,0-2.836,1.012-3.394-1.087h11.64c-3.8-4.064-7.673-7.085-10.464-11.164-9.3-13.6-11.7-28.281-7.673-44.245a48.751,48.751,0,0,1,4.22-10.9c.045-.082.164-.127.253-.186Z" transform="translate(153.759 -62.236)" fill="#a0672f"/>
    <path id="Path_16680" data-name="Path 16680" d="M525.069,424.724c-4.518,1.049-9.095.275-13.642.342-3.133.052-6.371.744-9.437-.573a117.144,117.144,0,0,0,9.3-21.933C515.156,411.193,518.9,418.755,525.069,424.724Z" transform="translate(159.084 -77.533)" fill="#047463"/>
    <path id="Path_16681" data-name="Path 16681" d="M-42.143,357.072-60,357.005c-.1-9.876.246-19.715,3.721-29.115,1.965-5.344,4.607-10.278,9.675-13.441a5.955,5.955,0,0,1,1.25-.677c14.595-3.848,20.407-14.461,21.94-28.393.074-.707.134-1.414.305-3.29,3.61,7.5,4.9,14.6,6.974,21.442l.953,6.7a61.027,61.027,0,0,1,0,11.863c-.908,6.817-6.118,9.742-11.327,13.017-6.162,3.93-10.263,9.869-13.4,16.373C-40.729,353.269-42.686,354.7-42.143,357.072Z" transform="translate(302.822 -46.721)" fill="#077b68"/>
    <path id="Path_16682" data-name="Path 16682" d="M115.367,307.611c0,1.317-.945,1.347-1.809,1.31s-2.2.372-2.3-1.124c-.074-1.094,1-1.429,1.786-1.548A2.076,2.076,0,0,1,115.367,307.611Z" transform="translate(259.017 -52.892)" fill="#c9efea"/>
    <path id="Path_16683" data-name="Path 16683" d="M53.575,282.923c-1.347.394-2.382.744-3.133-.357-.1-.156.141-.789.365-.886C51.863,281.226,52.585,281.881,53.575,282.923Z" transform="translate(274.577 -46.579)" fill="#c9efea"/>
    <path id="Path_16684" data-name="Path 16684" d="M-116.232,494c10.777.067,21.583.089,32.322.246,1.712,0,2.017-1.027,2.523-2.129a25.305,25.305,0,0,0,7.71.9H-1.157c4.2,0,8.187.491,11.357,3.61,1.89,2.642,5,4.748,3.863,8.737q-.007,78.547-.007,157.095c0,10.509-4.949,15.525-15.354,15.532h-30.09c-1.191,1.094-2.679,1.161-4.168,1.168q-11.454.074-22.915,0a5.907,5.907,0,0,1-4.175-1.146c-20.9,0-41.8.074-62.695-.1-3.491,0-5.031.744-4.51,4.413a7.763,7.763,0,0,1-.283,4.376c-1.578-1.109-1.31-2.843-1.369-4.391-.082-2.136-1.027-3.148-3.178-3.163-7.286-.052-14.572,0-21.858,0-2.166,0-3.133,1-3.156,3.148-.045,3.721,0,7.442-.045,11.119,0,1.585.134,3.26-1.25,4.465-1.1-5.492-.387-11.045-.409-16.567,0-2.553-.633-3.416-3.282-3.379-9.534.141-19.067.067-28.594.052-9.132,0-14.379-5.351-14.416-14.58,0-5.076-.074-10.144-.112-15.22.045-6.847,0-13.7.186-20.549a2.778,2.778,0,0,0-2.233-3.118c1.3-1.541,3.126-1.325,4.815-1.325q22.431-.067,44.863,0a7.023,7.023,0,0,1,4.272.908c-.052,3.051-2.553,2.069-3.982,2.114q-10.226.327-20.459,0c-3.051-.089-4.16.744-4,3.944.283,5.567.067,11.164.1,16.738.045,8.8,4.882,15.13,15.264,15.086,50.348-.223,100.7-.1,151.044-.1,10.613,0,15.13-4.51,15.138-15.212q.045-60.083,0-120.165c0-9.281-4.771-14.26-14-14.781-1.362-.074-2.724-.052-4.093-.052H-167.064a44.862,44.862,0,0,0-4.83.119,12.968,12.968,0,0,0-11.826,11.015c-1.042,6.155-.3,12.377-.514,18.569-.067,1.957.268,4-1,5.76a19.614,19.614,0,0,1-12.756.194c-1.369-1.384-1.191-3.178-1.2-4.882-.037-13.337,0-26.674-.067-40.01,0-2.65,1.206-5.031,1.131-7.636,2.322-1.235,4.845-.692,7.264-.7q35.456-.074,70.919,0C-118.7,494.144-117.467,494.055-116.232,494Z" transform="translate(341.143 -100.438)" fill="#089d8b"/>
    <path id="Path_16685" data-name="Path 16685" d="M-197.4,495.81l2.709.2c-2.374,1.861-2.687,4.108-2.679,6.609.067,15.116,0,30.239,0,45.354a9.578,9.578,0,0,1-9.511,0l-.164-9.675c.045-9.861.045-19.73.141-29.591C-206.8,502.077-203.292,497.44-197.4,495.81Z" transform="translate(340.426 -101.382)" fill="#068c7b"/>
    <path id="Path_16686" data-name="Path 16686" d="M-87.362,453.91a108.654,108.654,0,0,1,.945,14.654l-.342,2.53A37.6,37.6,0,0,1-87.362,453.91Z" transform="translate(310.003 -90.666)" fill="#bfece6"/>
    <path id="Path_16687" data-name="Path 16687" d="M-85.352,482.91l.1,5.917-.156,1.407C-85.664,487.785-86.758,485.329-85.352,482.91Z" transform="translate(309.481 -98.083)" fill="#bfece6"/>
    <path id="Path_16688" data-name="Path 16688" d="M-12,741.94H19.258c0,5.56-.253,11.164,0,16.686.141,3.089-.99,3.677-3.766,3.587-5.954-.193-11.863-.06-17.795-.06-7.6-3.148-9.623-6.244-9.63-14.661C-11.955,745.631-12,743.786-12,741.94Z" transform="translate(290.541 -164.332)" fill="#00023f"/>
    <path id="Path_16689" data-name="Path 16689" d="M-144.16,761.764c.037-5.679.164-11.357.067-17.028-.037-2.233.558-3.044,2.888-2.977q12.407.179,24.813,0c2.285,0,3.081.707,2.932,2.977a57.94,57.94,0,0,0,.156,5.9c-1.035,7.591-5.254,11.409-12.779,11.409C-132.133,761.995-138.132,761.846-144.16,761.764Z" transform="translate(324.342 -164.285)" fill="#00023f"/>
    <path id="Path_16690" data-name="Path 16690" d="M-208,633.137c1.116-.938.789-2.233.8-3.4q0-9.333.037-18.666a163.4,163.4,0,0,0-.141-23.764l-.551-.558a2.994,2.994,0,0,1,2.865-1.362c6.7-.179,13.329-.238,19.99,0a3.677,3.677,0,0,1,2.062.744c-1.34,3.855-.811,7.844-.826,11.8V627.25c0,2.233.1,4.465-1.637,6.289-5.44,1.786-11.015.893-16.522.625C-203.929,634.1-206.184,634.662-208,633.137Z" transform="translate(340.669 -124.252)" fill="#089887"/>
    <path id="Path_16691" data-name="Path 16691" d="M-184.284,581.335h-24.9c-2.977-.744-4.212-2.642-4.011-5.641a22.151,22.151,0,0,0,0-3.662c-.365-3.639,1.191-5.835,4.771-6.587h22.1a5.1,5.1,0,0,1,3.446-1.131c7.785-.045,15.577-.253,23.354.089,4.994.223,6.8,2.136,7.74,7.264-.432,3.855.216,8.187-4.465,10.174-8.648.811-17.311.365-25.967.26a3.1,3.1,0,0,1-2.062-.767Z" transform="translate(342.012 -118.876)" fill="#01033f"/>
    <path id="Path_16692" data-name="Path 16692" d="M-209.446,649.016c5.954,0,11.841.06,17.765.037,1.593,0,3.23.305,4.756-.447a5.21,5.21,0,0,1,3.438-1.183c8.663-.06,17.333-.469,25.952.833,3.133.476,4.919,2.166,4.972,5.433,0,2.233.655,4.465.127,6.661s-1.072,4.518-4.227,4l-42.667-.074h-11.484C-215.184,660.477-214.343,651.025-209.446,649.016Z" transform="translate(342.116 -140.131)" fill="#00023e"/>
    <path id="Path_16693" data-name="Path 16693" d="M-207.05,588c1.332,1.213.744,2.813.662,4.2-.223,6.52.744,13.069-.521,19.559Q-207.013,599.908-207.05,588Z" transform="translate(340.426 -124.96)" fill="#4bb7ac"/>
    <path id="Path_16694" data-name="Path 16694" d="M220.545,550.525c-3.193-8.536-7.517-16.537-11.633-24.642q-3.677-7.241-7.5-14.409c-.536-1.012-.6-2.5-2.233-2.62-2.791-5.053-5.373-10.218-8.1-15.316-3.848-7.189-7.078-14.7-11.238-21.732a8.663,8.663,0,0,1-1.488-4.16c-.915-4.465-1.637-8.931-3.647-13.136,1.325,7.77-2,15.183-1.548,22.878a41.6,41.6,0,0,0,.424,5.158c-1.407,14.312-4.041,28.445-5.76,42.712-1.905,15.86-4.153,31.675-6.036,47.535-1.712,12.466-3.3,24.947-4.912,37.42-.93,7.219-1.563,14.476-2.865,21.643-.447,2.434-1.541,3.833-4.123,3.773-5.105.313-10.256-.35-15.331.685a3.84,3.84,0,0,1-3.17-.982H129c-1.637.1-2.076-1.087-2.419-2.315a11.1,11.1,0,0,1-.268-2.977c0-23.816-.1-47.631.045-71.4-.127-26.048,0-52.052-.06-78.071,0-1.488,0-2.977.112-4.465-.149-14.141-.186-28.281,0-42.422-.149-7.308-.127-14.624-.082-21.933,0-1.7-.216-3.505,1.094-4.949q.119-.335.246-.67c1.057,2,3.595,2.233,4.986,2.389,3.371.4,6.386,2.59,9.846,1.987,4.711-.826,8.931,2.181,13.612,1.488,1.168-.171,2.493.365,3.446-.744,7.174-.045,14.371.655,21.494-.744,5.954.246,11.625-1.191,17.326-2.679,2.181-.573,4.607-1.488,6.572-1.488,4.242.074,5.21-2.121,5.686-5.373.089,7.867,4.406,14.423,6.7,21.583a35.72,35.72,0,0,0,1.7,3.743q11.164,29.278,22.372,58.557c5.626,14.669,12.012,29.085,16.79,44.022,5.723,17.862,10.107,36.192,15.056,54.33,3.58,13.114,6.921,26.294,10.844,39.311,1.154,3.84.268,5.359-3.237,6.14-3.036,2.463-6.884,2.977-10.419,4.3a36.866,36.866,0,0,0-4.145,1.429,10.346,10.346,0,0,1-1.6.543c-3.066,1.444-5.12.491-6.616-2.5-3.223-6.43-5.954-13.069-9.11-19.536-7.189-14.818-13.709-29.948-21.315-44.573C224.742,562.656,221.4,557.052,220.545,550.525Z" transform="translate(255.175 -77.126)" fill="#00023f"/>
    <path id="Path_16695" data-name="Path 16695" d="M85.687,441.364c.484,14.141.365,28.281.089,42.422a7.316,7.316,0,0,1-5.165,1.712c-4.7-.045-9.355.655-14.036.8-2.858.089-4.718.923-5.3,3.944-.223,1.139-.618,2.478-2.285,2.441l-.037-2.925c-1.444-5.768,1.488-8.931,8-8.931-2.233-.484-5.024.856-7.554-.551-1.012-.566-.685-.045-.871.6-.61,2.166-1.995,2.62-3.9,1.384-3.431-3.051-7.442-3.8-11.99-3.781-25.468.119-50.936.052-76.4.06-1.57,0-3.379.5-3.446-2.017.551-8.812.506-17.668,1.555-26.45.826,1.488.5,2.977.394,4.465,0-3.126.424-6.252-.216-9.392a52.4,52.4,0,0,1,.588-11.372c1.9,2.292-.164,4.585.5,7.6a14.193,14.193,0,0,1,1.488-7.718c1.02-2.1,2.5-3.036,4.785-2.285a23.608,23.608,0,0,0,8.1.744c11.268-.238,22.394,1.563,33.588,2.367a10.791,10.791,0,0,0,5.068-.744,6.062,6.062,0,0,1,4.7-.38c1.913.744,2.233,2.33.826,3.766-.96,1-3.662.744-2.642,3.17.514,1.221,6.192,1.1,6.877-.32,2.233-4.614,6.229-4.19,10.2-4.16s7.926,0,11.908,0a5.934,5.934,0,0,1,5.21,2.315c1.273,1.771,2.977,2.121,4.89,2.121,3.223,0,6.445-.067,9.675,0,2.977.082,5.433-.387,7.636-2.821,2.359-2.612,5.321-1.727,6.646,1.608a7.227,7.227,0,0,0,1.124,2.337Z" transform="translate(296.988 -84.833)" fill="#b5e9e2"/>
    <path id="Path_16696" data-name="Path 16696" d="M92,510.794c.447-.744,1.28-1.451,1.273-2.166-.06-4.875,2.828-5.284,6.81-5.351,6.244-.1,12.473-.886,18.71-1.377.067,6.914.193,13.821.186,20.735q-.052,30.946-.186,61.884c-5.113-1.489-10.375-1.109-15.629-1.168-3.781-.045-7.547-.082-11.164,1.116Z" transform="translate(263.942 -102.94)" fill="#a5e4db"/>
    <path id="Path_16697" data-name="Path 16697" d="M92,612.067c1.488-1.913,3.431-2.322,5.775-2.233,4.659.156,9.333.186,13.992,0,2.724-.112,5.068.342,7.018,2.3.067,7.539.171,15.078.194,22.618.052,16.827.052,33.655.1,50.474,0,1.265-.566,2.813,1.161,3.565-.573,2.292-2.233,1.444-3.572,1.146-5.656-1.265-11.305-2.292-17.177-1.98-2.612.141-4.629.246-4.875,3.5-.067.93-.744,1.838-2.627,1.987Z" transform="translate(263.944 -130.541)" fill="#8cdcd2"/>
    <path id="Path_16698" data-name="Path 16698" d="M125.82,745.763l2.032-4.54c.484-2.166,2.084-3.327,3.87-4.317h.134c4.093-4.465,9.072-3.818,14.178-2.478,4.532,1.98,7.442,5.5,9.37,9.928a15.56,15.56,0,0,1,.707,1.555c.484,1.488,1.087,2.977.439,4.577-2.486,2.538-5.15,2.739-7.733.588-5.537-4.622-12.034-4.116-16.507,1.288-2.441,2.977-6,2.233-7.636-1.489C124.495,749.023,124.532,747.252,125.82,745.763Z" transform="translate(255.605 -162.156)" fill="#03035f"/>
    <path id="Path_16699" data-name="Path 16699" d="M125.088,755.534c.633,1.957,2,2.419,3.959,2.307,1.6-.1,2.233-.566,2.761-2.2.744-2.471,3.394-3.6,5.448-3.632,4.421-.06,9.377-1.771,12.734,3.543.9,1.421,4.324,1.622,6.185-.744a7.189,7.189,0,0,1,1.92,7.2c-.99,1.347-2.8,1.057-4,1.995a1.489,1.489,0,0,1-1.555-.335c-2.858-1.146-5.686.246-8.559.141-4.607-.164-9.221.082-13.806-.744-5.545-1.027-5.559-.96-5.433-6.825a.461.461,0,0,1,.342-.707Z" transform="translate(255.586 -166.829)" fill="#01012e"/>
    <path id="Path_16700" data-name="Path 16700" d="M148.69,731.008a17.765,17.765,0,0,0-14.6,1.429c-.536-5.5.193-11.067-.848-16.537h2.8a73.005,73.005,0,0,1,11.1,3.565c1.25.439,2.635.67,3.5,1.868.744,1.585.476,3.29.573,4.949,0,1.489.141,3.051-.744,4.421a1.749,1.749,0,0,1-1.771.305Z" transform="translate(253.394 -157.672)" fill="#faada7"/>
    <path id="Path_16701" data-name="Path 16701" d="M86.17,498.226c1.206,0,2.642.372,3.252-1.087s-1.422-1.533-1.6-3.58c4.406,3.624,9.258,2.069,14.185,3.089-5.746.826-12.049.915-11.521,9.08h-.744A20.031,20.031,0,0,0,86.17,498.226Z" transform="translate(265.433 -100.807)" fill="#a5e4db"/>
    <path id="Path_16702" data-name="Path 16702" d="M161.57,767.658h1.31a68.1,68.1,0,0,1,18.747.313c.5.067.707.618.647,1.169H160A2.59,2.59,0,0,1,161.57,767.658Z" transform="translate(246.55 -170.781)" fill="#75dac9"/>
    <path id="Path_16703" data-name="Path 16703" d="M132.816,738.07l-3.87,4.317C128.462,739.358,130.583,738.665,132.816,738.07Z" transform="translate(254.51 -163.342)" fill="#8cdcd2"/>
    <path id="Path_16704" data-name="Path 16704" d="M124.839,755.1l-.35.744c-.35-2.084-2.091-4.465,1.1-5.85Z" transform="translate(255.834 -166.391)" fill="#8cdcd2"/>
    <path id="Path_16705" data-name="Path 16705" d="M70.77,40.878a4.986,4.986,0,0,0,3.438-1.2c7.6-5.5,16.15-4.979,24.887-4.4,10.687.744,18.606,6.616,25.684,13.545,5.031,4.9,8.023,11.357,9.787,18.368,1.883,7.5,1.213,14.684-.528,22.1-2.709,11.528-10.092,19.276-19.172,25.974-3.5,2.583-7.785,2.3-11.61,3.639-8.8,2.344-17.244,1.273-25.557-2.344C53.422,106.007,43.992,74.213,58.862,52.51A49.386,49.386,0,0,1,70.77,40.878Z" transform="translate(274.239 16.49)" fill="#faa150"/>
    <path id="Path_16706" data-name="Path 16706" d="M70.02,42.92c-3.878,4.465-8.559,8.09-11.811,13.21-13.783,21.747-3.647,52.663,20.355,62.107a44.215,44.215,0,0,0,23.972,2.716,2.979,2.979,0,0,1,.357.1c.35.141.67.469.179.647-3.55,1.28-7.346,1.072-10.985,1.2-12.4.461-23.042-4.25-31.429-13.076A41.506,41.506,0,0,1,48.884,82.707c-.893-16.954,6.066-29.844,19.722-39.445A4.13,4.13,0,0,1,70.02,42.92Z" transform="translate(274.989 14.448)" fill="#a2662f"/>
    <path id="Path_16707" data-name="Path 16707" d="M183.736,189.88l6.773,1.444c2.307,2.359,2.59,5.024.744,7.658a5.775,5.775,0,0,1-6.549,2.233,6.854,6.854,0,0,1-4.644-6.467A4.726,4.726,0,0,1,183.736,189.88Z" transform="translate(241.42 -23.138)" fill="#f6aea9"/>
    <path id="Path_16708" data-name="Path 16708" d="M180.112,189.641c-.744,1.533-2.642,2.277-2.917,4.16a5.708,5.708,0,0,0,2.6,6.051,4.882,4.882,0,0,0,6.155-.246c2.024-1.578,2.9-3.632,2.024-6.185a23.815,23.815,0,0,0-1.094-2.337l1.488.119c2.017,6.8-.618,10.955-6.587,10.375-2.746-.268-4.011-1.436-5.805-5.373-1.035,5.4-5.321,7.442-10.084,5.455l.305-.417a4.636,4.636,0,0,1,1.7-.558c4.845-1,6.051-2.687,5.671-7.882a2.233,2.233,0,0,1,.432-.938c1.444-.439,1.488.811,1.942,1.563-.335-2.233,1.347-3.23,2.679-4.465A1.489,1.489,0,0,1,180.112,189.641Z" transform="translate(245.044 -22.899)" fill="#ae7175"/>
    <path id="Path_16709" data-name="Path 16709" d="M178.634,186.985c0,2-2.59,2.62-2.315,4.7-1.4-.089-1.139-1.608-2.069-1.957-2.3-1.235-4.406-3.022-7.338-2.419-.573.119-1.161-.3-.93-1.124l3.416-5.061C171.683,184.209,175.077,185.7,178.634,186.985Z" transform="translate(245.033 -20.898)" fill="#f2aeab"/>
    <path id="Path_16710" data-name="Path 16710" d="M164.481,187.88c3.036.528,6.7-.409,8.269,3.543l-.089.968c-1.183.35-1.771-.64-2.575-1.139a4.65,4.65,0,0,0-5.85.208c-2.024,1.652-2.1,3.773-1.213,6.058.476,1.235,1.823,2.106,1.533,3.654l-.149.208c-3.922-1.905-5.12-4.465-3.87-8.492.283-.908.93-1.756.231-2.731C162.383,190.053,163.12,188.483,164.481,187.88Z" transform="translate(246.534 -22.626)" fill="#b17881"/>
    <path id="Path_16711" data-name="Path 16711" d="M181.249,753.73c-1.622-1.355-3.543-.677-5.3-.648a90,90,0,0,1-14.1-.826c.662-1.742,2.233-1.362,3.572-1.489,1.064-4.257,0-8.12-2.151-11.789l-.439-.826c.231-1.66-.841-2.865-1.7-3.982-1.332-1.734-.588-2.642.447-3.282-.915.863-2.411,1.34-3.2-.588-.528-1.288-1.57-1.288-2.426-1.808l.141-4.465c1.384-2.434.223-5.046.521-7.562a3.164,3.164,0,0,1,.8-1.622c4.406-.536,3.721-4.4,4.465-7.963,2.389,3.126,6.944,1.489,8.187,5.589.193.625,1.332.365,2.069.328,8.879-.506,17.758-.179,26.644-.193,5.1,0,6.274,1.243,6.631,6.289a25.57,25.57,0,0,0,1.488,7.569c.275,3.535-.179,7.085.268,10.628a7.094,7.094,0,0,0,2.233,4.8c1.362,4.294,4.89,6.557,8.336,8.931-.968,2.865,1.935.64,2.158,1.92l-1.392,1Z" transform="translate(247.584 -155.365)" fill="#7dd8cb"/>
    <path id="Path_16712" data-name="Path 16712" d="M174,209.153c1.965,0,3.312-.045,4.659,0,.878.037,2.27-.439,2.329.93a2.362,2.362,0,0,1-2.233,2.158C176.709,212.576,175.31,211.549,174,209.153Z" transform="translate(242.97 -28.054)" fill="#3f2445"/>
    <path id="Path_16713" data-name="Path 16713" d="M86.455,428.376a2.084,2.084,0,0,1-2.158-2.1,2.231,2.231,0,0,0-2.315-2.359,2.981,2.981,0,0,0-3.327,1.838c-.826,2.426-2.642,2.635-4.718,2.62H63.16c-3.111,0-6.572.848-8.06-3.364-.38-1.079-1.809-1.1-2.977-1.094H34.656c-1.95,0-3.721.566-3.825,2.635-.149,2.545-1.488,2.7-3.438,2.6-1.488-.074-2.977,0-4.465,0-1.273,0-2.583.067-2.635-1.764-.045-1.541-.082-3.066,1.957-3.4,1.243-.208,3.379.134,2.761-1.868-.581-1.875-3.022-1.622-4.19-.834-3.17,2.129-6.229,1.764-9.467.566a2.739,2.739,0,0,0-1.1-.119c-10.747.744-21.3-2.575-32.069-1.541a9.6,9.6,0,0,1-6.133-.967c-1.265-.744-2.635-.551-2.977.99-.581,2.843-3.55,4.823-3.26,8.1v-7.547l1.488-34.384c.06-1.347,0-2.7-.037-4.056.93-.365.127-2.307,1.645-1.98,1.072.231.484,1.548.938,2.233.744,1.116,0,2.806,1.407,3.624,1.816-.432.67-3.721,2.739-3.215,1.622.417.484,2.679,1.042,4.019s.5,3.193,3.111,1.675c2.233-1.288,5.1-.394,7.681-.432,5.589-.074,5.589,0,6.631-6.088,1.206,3.55,3.721,3.208,6.177,3.089,5.537-.275,11.164-.61,16.619-.484,15.324.365,30.655.246,45.979.625,2.4.06,4.934.99,7.323.536,5.9-1.139,10.9,2.024,16.373,2.977,1.422,4.116.1,8.559,1.488,12.652Q86.44,414.965,86.455,428.376Z" transform="translate(296.22 -71.845)" fill="#bcebe5"/>
    <path id="Path_16714" data-name="Path 16714" d="M.17,331.783V319.92a23.3,23.3,0,0,1,0,11.863Z" transform="translate(287.428 -56.397)" fill="#bcebe5"/>
    <path id="Path_16715" data-name="Path 16715" d="M381.572,404.464c-10.278-.052-20.548-.074-30.826-.171-1.161,0-2.493.573-3.476-.61,10.419,0,20.839.089,31.258.089,1.139,0,2.776.35,2.7-1.6s-1.727-1.541-2.828-1.392c-1.942.26-3.848.848-5.775,1.228-.945.186-2.352.491-2.329-.923.045-2.575-1.488-4.689-1.66-7.2-.141-2.233.06-3.863,2.739-4.287,3.059-.491,1.831-3.051,1.488-4.465-2.731-10.9-4.317-22-6.371-33.015-.424-2.277-1.422-2.977-3.505-2.65-.893.127-2.181.99-2.538-.432-.819-3.208-1.392-6.475-1.972-9.742-.119-.685.558-1,1.213-1.146a8.665,8.665,0,0,0,2.121-.64c2.091-1.124,5.21.275,6.527-1.727,1.235-1.853-.3-4.294-.744-6.453-.335-1.682.893-1.905,1.9-2.151a51.083,51.083,0,0,1,5.105-.848c5.158-.744,5.21-.744,6,4.465.357,2.382,1.555,3.245,3.825,2.709,1.682-.4,3.357-.819,5.016-1.317,2.6-.744,1.637-2.888,1.1-4.227-1.488-3.669-.127-5.113,3.453-5.284a6.51,6.51,0,0,0,.744-.1c7.152-1.183,7.442-2.583,8.187,6.006a2.177,2.177,0,0,0,2.233,2.337c10.858,1.488,14.714,12.012,12.652,21.769a5.485,5.485,0,0,1-2.233,3.252c-2.888,2.233-1.719,3.29.96,4.25,5.12,1.838,8.73,5.388,9.727,10.725,1.124,5.954,1.63,12.049-3.156,17.118a12.355,12.355,0,0,1-4.19,2.873c-2.5,1.116-4.093,2.575-2.888,5.723,1.012,2.657.313,4.622-2.977,4.86a17.359,17.359,0,0,0-3.624.685c-3.438,1.02-5.612.313-5.634-3.773,0-2.062-1.325-2.449-3.036-2.047a28.168,28.168,0,0,1-4.3,1.072c-2.873.186-2.441,2.032-2.426,3.944,0,2.456,1.622,2.367,3.29,2.367h46.887c.744,0,1.488.1,2.233.141-1.25.811-2.65.432-3.974.432Q411.974,404.45,381.572,404.464Z" transform="translate(198.654 -56.849)" fill="#fbd6b1"/>
    <path id="Path_16716" data-name="Path 16716" d="M324.02,745c-1.786-1.667-2.329-4.056-3.535-6.066-2.188-1.154-1.853-2.977-1.258-4.83.893-1.176,1.92-.61,2.977-.238,6.6,2.352,11.112-.476,11.953-7.442a1.273,1.273,0,0,1,.6-.878,2.359,2.359,0,0,1,2.731-.521c6.341,3.557,13.218,1.541,19.849,1.995,1.831.126,3.677.045,5.515.052a8.708,8.708,0,0,1-2.731,10.129c-3.892,2.828-8.455,4.1-12.927,5.507-5.306,1.667-10.911,1.943-16.329,3.178C328.619,746.367,326.126,746.531,324.02,745Z" transform="translate(205.941 -159.947)" fill="#020160"/>
    <path id="Path_16717" data-name="Path 16717" d="M332.756,722.291c1.183,3.863-.089,6.743-3.595,8.611-3.357,1.794-6.75,3.364-10.055-.171-.186-.2-.692-.089-1.057-.126a2.373,2.373,0,0,1-2.129-2.233c-.744-3.915-2.612-7.368-4.294-10.9a3.922,3.922,0,0,1-.045-3.87l1.489-.327a49.336,49.336,0,0,1,12.7-1.012,5.612,5.612,0,0,1,3.788,1.049Z" transform="translate(207.907 -156.725)" fill="#faada7"/>
    <path id="Path_16718" data-name="Path 16718" d="M325.82,745.485c10.955-.149,21.449-2.7,31.7-6.3,4.83-1.7,7.167-5.909,7.107-11.647,2.4-.432,5.039-2.129,6.825,1.087,1.689,3.051,1.377,5.954-1.124,8.4-1.1,1.1-2.352,2.047-3.535,3.066-10.792,5.641-22.543,7.852-34.391,9.8C328.6,750.516,326.482,749.251,325.82,745.485Z" transform="translate(204.14 -160.434)" fill="#020430"/>
    <path id="Path_16719" data-name="Path 16719" d="M330.255,711.991H313.77a116.655,116.655,0,0,1,15.041-5.061C328.566,708.8,330.94,709.959,330.255,711.991Z" transform="translate(207.222 -155.378)" fill="#ba827f"/>
    <path id="Path_16720" data-name="Path 16720" d="M585.013,540.72a17.118,17.118,0,0,1-17.452,17.3A17.444,17.444,0,0,1,550.13,540.9c0-9.147,8.187-17.966,16.567-17.75C577.734,523.379,585.072,530.427,585.013,540.72Z" transform="translate(146.771 -108.373)" fill="#027363"/>
    <path id="Path_16721" data-name="Path 16721" d="M296.449,685.417a6.08,6.08,0,0,0,.744,3.163c2.463,4.369,3.952,9.147,5.686,13.821a9.223,9.223,0,0,0,.461,5.113c-.26,1.779-1.63,1.556-2.85,1.556-9.675,0-19.35.149-29.025-.045-9.437-.186-18.606-9.184-18.986-18.673-1.191-27.358-.127-54.709-.536-82.06a52.1,52.1,0,0,1,.662-6.371c12.771,27.083,25.6,54.144,38.247,81.286C292.288,686.153,293.717,686.89,296.449,685.417Z" transform="translate(223.048 -128.521)" fill="#0db69f"/>
    <path id="Path_16722" data-name="Path 16722" d="M172.766,593.625c.811-11.722,2.769-23.317,4.25-34.979,2.367-18.532,5.024-37.034,7.561-55.543-.394-6.162,1.042-12.139,1.809-18.182a1.436,1.436,0,0,1,2.813-.365c.677,1.429,1.675,2.739,1.712,4.421q9.363,18.234,18.747,36.468a8.166,8.166,0,0,1,1.34,4.518l.484,1.488c-.558,1.31-.283,2.687-.283,4.034q-.037,31.548,0,63.1c-1.913,1.593-2.181-.3-2.575-1.347-.566-1.489-.5-3.17-.811-4.756-.447-2.292-1.675-3.453-4.093-3.379-4.562.141-9.132-.35-13.635,1.109-2.709.878-5.664.335-8.514.372-5.321.06-5.321.037-7.167,4.964a1.861,1.861,0,0,1-1.34,1.407C172.119,595.947,172.513,594.771,172.766,593.625Z" transform="translate(243.362 -98.241)" fill="#9fe2d8"/>
    <path id="Path_16723" data-name="Path 16723" d="M223.526,615.562q0-31.7.082-63.4c0-1.421-.551-2.977.633-4.25V689.658c0,4.019.357,7.9,2.173,11.543-2.136-.744-2.925-2.315-2.865-4.562.1-3.721,0-7.405,0-11.1-1.526-4.034-1.1-8.276-1.131-12.421-.112-17.542-.067-35.091,0-52.64C222.379,618.777,222.178,616.976,223.526,615.562Z" transform="translate(230.604 -114.707)" fill="#75dac9"/>
    <path id="Path_16724" data-name="Path 16724" d="M-34.971,449.91c1.488,3.156.231,6.408.1,9.63l-.283-4.674Z" transform="translate(296.462 -89.643)" fill="#bcebe5"/>
    <path id="Path_16725" data-name="Path 16725" d="M598.269,362.9c7.874,2.158,10.538,7.361,10.271,14.885-.156,4.376-2,7.442-5.574,9.333-2.53,1.31-3.223,2.9-2.486,5.336.528,1.749.134,2.538-1.756,2.679a14.436,14.436,0,0,0-3.982.8c-1.95.744-2.888.1-3.647-1.742-.841-2.047-5.507-3.066-7.256-1.794-.9.655-.647,1.533-.447,2.352,1.362,5.463-3.52,3.5-5.641,4.465s-3.87.186-3.647-2.746c.1-1.414-.662-1.98-2.136-1.645-1.2.275-2.486.208-3.662.543-1.831.528-3.089.037-3.178-1.868-.119-2.694-3.587-6.162,1.742-7.822,1.02-.32.625-2.032.424-3.1q-2.166-11.811-4.428-23.6c-.38-1.972-.67-4.16-3.721-3.051-.982.365-1.3-.342-1.407-1.168-.074-.618-.067-1.243-.171-1.853-.982-5.693-1.012-5.813,4.465-6.966,2.374-.5,1.816-2.1,1.637-3.4-.409-3.014.581-4.465,3.721-4.153a3.029,3.029,0,0,0,1.816-.253c2.977-1.913,3.483.045,3.952,2.337.231,1.131,0,2.88,1.7,2.858a17.192,17.192,0,0,0,5.768-1c1.109-.417.26-1.808,0-2.664-.886-2.583-.848-4.465,2.635-4.272a5.739,5.739,0,0,0,1.436-.342c4.927-1.139,4.971-1.146,5.723,3.974.194,1.325.417,2.062,1.943,2.612C602.943,345.48,605.131,353.169,598.269,362.9Z" transform="translate(144.998 -60.106)" fill="#fbe0c4"/>
    <path id="Path_16726" data-name="Path 16726" d="M-147.452,630.964c3.185-2.054,4.756-10.546,2.463-13.523-1.25-1.622-3.051-1.868-4.986-1.883-9.251-.074-18.494-.216-27.745-.335a29.769,29.769,0,0,0,.528-3.974c0-13.181.141-26.361-.112-39.534-.045-2.129,1.146-1.913,2.106-2.508l28.527-.171c.893,3.989-.394,7.874-.744,11.766-2.024,20.623,5.053,37.339,20.928,50.527A50.229,50.229,0,0,0-101.45,642.79c16.128,2.337,31.258-.581,44.6-10.695a54.233,54.233,0,0,0,20.154-29.569c4.637-17.266,2.173-33.558-8.432-48.376C-54.243,541.424-66.575,533.312-81.832,531c-17.408-2.679-33.491,1.34-46.887,13.59a68.7,68.7,0,0,0-11.618,13.962c-.685,1.079-1.243,3.572-3.453,1.429-.848-5.47-1.987-6.46-7.442-6.49l-26.048-.156c0-6.7.26-13.4.052-20.095-.35-11.543,8.06-16.515,16.574-16.477q75.526.313,151.081,0c10-.037,16.507,7.13,16.411,16.2-.417,40.427-.357,80.854-.045,121.311a15.145,15.145,0,0,1-4.364,10.817A15.145,15.145,0,0,1-8.331,669.6q-77.007-.476-154.058-.074a14.27,14.27,0,0,1-14.736-14.141c-.238-7.442,0-14.885-.194-22.327-.06-2.389,1.488-1.563,2.441-1.57,7.815-.067,15.629,0,23.436-.052C-150.094,631.433-148.687,631.857-147.452,630.964Z" transform="translate(332.925 -106.74)" fill="#4bb7ac"/>
    <path id="Path_16727" data-name="Path 16727" d="M-133.892,564.315c1.622.93,1.786-.551,2.315-1.407a62,62,0,0,1,18.606-19.841,56.332,56.332,0,0,1,30.3-9.34A55.074,55.074,0,0,1-46.861,545.21c12.407,9.422,20.013,21.7,22.5,37.212a56.562,56.562,0,0,1-7.279,38.388,56.417,56.417,0,0,1-20.95,20.437,56.95,56.95,0,0,1-28.817,7.7,55.818,55.818,0,0,1-26.264-6.244,57.716,57.716,0,0,1-25.17-25.118,51.933,51.933,0,0,1-5.649-32.211c.588-4,.491-8.1,1.719-12.02C-133.766,571.005-134.674,567.411-133.892,564.315Z" transform="translate(323.035 -111.069)" fill="#6fc7bd"/>
    <path id="Path_16728" data-name="Path 16728" d="M206.9,634.953v69.959c-2.6-1.846-1.9-4.771-2.106-7.234-.424-5.031-.566-5.373-5.731-5.373h-23a12.11,12.11,0,0,0-3.669.268c-3.3,1.087-4.465.1-3.252-3.952-3.156,1.928-4.986.484-6.587-2.143-.536,8.373-1.109,7.77-4.718,7.331a1.488,1.488,0,0,1-.074-2.129c1.89,0,2.977-.342,3.245-2.783,2.233-18.606,4.726-37.212,7.152-55.818.156-1.213.484-2.4.744-3.6l.38,3.431c.744-2.858.052-5.21,2.233-6.7,1.965-1.377,4.093-.967,6.066-.744,7.048.692,13.739-2.233,20.839-1.66,6.013.491,6.787.834,7.115,7C205.546,632.274,204.958,634.052,206.9,634.953Z" transform="translate(247.229 -134.099)" fill="#8cdcd2"/>
    <path id="Path_16729" data-name="Path 16729" d="M194.855,484.844l-3.386-5.857-2.977,19.968c-.581-4.964-1.206-9.817.521-14.833.923-2.679.342-5.879.387-8.842.037-2.322,0-4.644,0-7.971a17.385,17.385,0,0,1,4.19,9.787C193.925,479.731,195.987,482.076,194.855,484.844Z" transform="translate(239.418 -94.093)" fill="#03060f"/>
    <path id="Path_16730" data-name="Path 16730" d="M152.567,715.061l.074,2.129v1.347c-.811.647.35,2.382-1.384,2.523-4.882-1.407-9.8-2.724-14.208-5.4C142.178,714.733,147.38,715.128,152.567,715.061Z" transform="translate(252.42 -157.45)" fill="#bb867f"/>
    <path id="Path_16731" data-name="Path 16731" d="M155.488,735.531c.781.61,2.88-3.118,2.8,1.035-.045,2.374,1.853,1.146,3.208.64.7-.26,2.084-1.369,2.426.164.246,1.116-1.057.744-1.875.878-1.444.216-1.957.923-1.094,2.56.692,1.31,2.977,2.307,1.414,4.384-1.942-3.892-4.413-7.308-8.365-9.415Z" transform="translate(248.085 -162.448)" fill="#8cdcd2"/>
    <path id="Path_16732" data-name="Path 16732" d="M165.79,750c3.163,2.292,4.2,7.956,2.151,11.789a17.393,17.393,0,0,0-1.25-7.346Z" transform="translate(245.069 -166.393)" fill="#8cdcd2"/>
    <path id="Path_16733" data-name="Path 16733" d="M156.1,722.263l1.384-2.523c-.647,2.486,1.555,5.478-1.355,7.554Z" transform="translate(247.548 -158.654)" fill="#8cdcd2"/>
    <path id="Path_16734" data-name="Path 16734" d="M91.692,107.052c.357-1.332,1.3-3.022-1.407-3.416-1.794-.26-3.937-1.913-4.555,1.488a1.533,1.533,0,0,1-2.538,1.079c-1.578-1.258-5.12-.089-4.83-3.461.208-2.411-.238-3.721-2.828-4.086-1.206-.186-2.754-.8-2-2.806s.365-4.9,3.051-5.21c1.541-.171,2.233-.484,2.7-1.742q3.409-9.586,6.765-19.194c.372-1.057,1-2.471-.156-3.044-2.746-1.355-.99-2.917-.677-4.622.61-3.357,2.233-3.721,4.89-2.166,1.809,1.042,2.858.476,3.557-1.555,1.488-4.354,4.25-1,6.311-.7s2.292,1.987,1.265,3.721.149,2.53,1.488,2.977c1.488.521,3.037,1.288,4.175-.744.558-1.012.633-2.977,2.039-2.769a17.661,17.661,0,0,1,5.485,1.995c1.31.662.848,1.9.275,2.917-1.064,1.905-.528,3.3.826,4.979,4.6,5.716,3.126,12.473-3.386,15.689-1.809.893-1.771,1.488-.744,2.977,5.031,7.442.581,16.723-8.269,17.118a3.838,3.838,0,0,0-3.959,3.1c-.506,1.786-1.675,1.422-2.932,1.027C91.416,109.158,91.409,109.166,91.692,107.052Z" transform="translate(268.716 11.076)" fill="#fbdec1"/>
    <path id="Path_16735" data-name="Path 16735" d="M185.15,196.689c.223-.99.685-1.712,1.719-1.689a1.652,1.652,0,0,1,1.689,1.637c.06,1.042-.744,1.533-1.689,1.585A1.745,1.745,0,0,1,185.15,196.689Z" transform="translate(240.118 -24.447)" fill="#442643"/>
    <path id="Path_16736" data-name="Path 16736" d="M164.962,201.665c-2.449-2.478-4.324-5.21-2.486-8.8,2.136-4.123,6.438-4.041,10.591,0C174.719,198.814,171.935,201.858,164.962,201.665Z" transform="translate(246.106 -23.119)" fill="#f9aea6"/>
    <path id="Path_16737" data-name="Path 16737" d="M36.144,394.857H33.576a1.661,1.661,0,0,1-1.868-1.8c.074-1.094,1.116-1.139,1.995-1.146h5.143c.945,0,2.233-.1,2.233,1.265s-1.1,1.742-2.344,1.7H36.166Z" transform="translate(279.363 -74.808)" fill="#c9efea"/>
    <path id="Path_16738" data-name="Path 16738" d="M412.842,384c3.877.231,7.241,4.041,7.487,8.187a8.054,8.054,0,0,1-6.557,8.09c-7.227.975-7.234.975-8.239-6.2-.089-.61-.06-1.235-.156-1.838-.357-2.121-2.359-5.016-.692-6.162C406.918,384.543,410.245,384.6,412.842,384Z" transform="translate(184.137 -72.786)" fill="#faa150"/>
    <path id="Path_16739" data-name="Path 16739" d="M411.377,359.873c.1,3.885-6.319,8.321-9.958,6.884a2.39,2.39,0,0,1-.64-.328c-.484-.394-2.9-11.781-2.486-12.153,1.853-1.637,4.317-1.66,6.542-2.024,2.084-.342,3.922,1.072,4.9,2.769A8.649,8.649,0,0,1,411.377,359.873Z" transform="translate(185.617 -64.653)" fill="#f8a251"/>
    <path id="Path_16740" data-name="Path 16740" d="M186.692,618.318c-.38,1.1-.454,2.389-1.645,2.344-1.012,0-1.027-1.168-1.027-2.024,0-.99.06-2.188,1.235-2.3C186.766,616.219,185.873,617.968,186.692,618.318Z" transform="translate(240.407 -132.207)" fill="#8cdcd2"/>
    <path id="Path_16741" data-name="Path 16741" d="M600.049,388.011c0,4.369-4.7,8.112-8.611,7.167-1.541-.372-1.831-1.6-1.846-2.828a21.129,21.129,0,0,0-1.109-6.527c-.275-.826-.662-1.883.335-2.307,2.486-1.057,5.21-2.3,7.807-1.161A5.2,5.2,0,0,1,600.049,388.011Z" transform="translate(137.041 -72.249)" fill="#f8a252"/>
    <path id="Path_16742" data-name="Path 16742" d="M584.1,362.172c-.521-4.138,2.091-4.034,4.227-4.175,2.925-.193,5.12,2.374,5.277,5.88.127,2.888-2.233,5.351-6.036,4.942C583.263,368.364,585.5,363.831,584.1,362.172Z" transform="translate(138.101 -66.133)" fill="#f8a255"/>
    <path id="Path_16743" data-name="Path 16743" d="M-29.748,594.436c1.853,25.4-22.4,49.574-49.522,48.934-26.324-.625-48.912-21.963-48.681-49.924.216-26.361,22.506-48.606,49.864-48.666C-52.306,544.72-27.783,567.457-29.748,594.436Z" transform="translate(320.197 -113.907)" fill="#93d4cc"/>
    <path id="Path_16744" data-name="Path 16744" d="M106.563,102.415c-.052,3.118-2.233,5.88-4.756,5.366-1.92-.387-4.83-.223-5.373-2.724-.5-2.3,3.163-8.127,4.465-8.1A5.6,5.6,0,0,1,106.563,102.415Z" transform="translate(262.82 0.627)" fill="#f8a251"/>
    <path id="Path_16745" data-name="Path 16745" d="M112.309,81.9c-.409,1.794-.67,4.4-3.52,4.317-1.66-.045-4.748.112-4.465-2.516.238-2.233.179-5.559,3.1-6.333C110.107,76.641,112.265,78.866,112.309,81.9Z" transform="translate(260.795 5.674)" fill="#f9a353"/>
    <path id="Path_16746" data-name="Path 16746" d="M170.03,198.269a1.622,1.622,0,0,1-1.66-1.645,1.585,1.585,0,0,1,1.7-1.608,1.488,1.488,0,0,1,1.645,1.6A1.7,1.7,0,0,1,170.03,198.269Z" transform="translate(244.41 -24.45)" fill="#432741"/>
    <path id="Path_16747" data-name="Path 16747" d="M-78.513,631.62c-2.769.119-5.559.789-5.21-3.55.186-2.329-2.047-1.429-3.357-1.712-1.488-.313-4.257,1.027-3.937-1.742.275-2.4-2.694-6.237,2.292-7.182,1.377-.26,1.288-1.3,1.295-2.285q.045-12.444.06-24.895c0-.975.119-2.091-1.228-2.352-4.986-.967-2.143-4.785-2.3-7.182s2.53-1.816,4.093-1.719c2.783.179,4.279-.558,3.811-3.654-.26-1.7.543-2.545,2.329-2.411a17.38,17.38,0,0,0,2.977,0c2.664-.268,4.056.744,3.654,3.55-.357,2.545.886,3.208,3.223,3.066,2.173-.134,4.518.179,4.123-3.111-.342-2.828.826-3.967,3.557-3.453,2.382.447,6.021-.677,5.388,3.915-.32,2.33.744,3.483,2.783,4.54,6.557,3.431,7.725,13.448,1.98,18.174-2.233,1.868-1.02,2.4.417,3.23,4.942,2.858,5.746,7.509,5.21,12.518-.521,4.651-2.977,8.1-7.658,9.511-2.233.677-3.788,1.593-3.3,4.331.35,1.995-.834,2.679-2.65,2.449-2.687-.335-6.527,1.637-6.482-3.863,0-2.277-2.56-1.146-3.989-1.332-1.221-.164-2.828-.141-2.6,1.689C-73.6,632.186-76.183,631.836-78.513,631.62Z" transform="translate(310.911 -121.091)" fill="#fcfefe"/>
    <path id="Path_16748" data-name="Path 16748" d="M-63.473,628.847c-2.843.677-3.959-.744-3.572-3.8a17.812,17.812,0,0,0,0-2.233c0-5.522.037-5.574,4.6-5.693a5.507,5.507,0,0,1,4.042,1.367,5.507,5.507,0,0,1,1.853,3.843c.141,3.863-2.106,6.348-5.835,6.46Z" transform="translate(304.638 -132.406)" fill="#97d4cc"/>
    <path id="Path_16749" data-name="Path 16749" d="M-67,598.622c.171-2.389-.93-5.329,3.4-4.934,3.915.35,4.949,1.206,4.875,5.3-.067,3.684-1.1,4.384-5.128,4.592C-68.321,603.8-66.617,600.609-67,598.622Z" transform="translate(304.611 -126.406)" fill="#97d4cd"/>
  </g>
</svg>
