<svg xmlns="http://www.w3.org/2000/svg" width="48.277" height="48.279" viewBox="0 0 48.277 48.279">
  <g id="accepted" transform="translate(-0.063 511.609)">
    <path id="Path_961" data-name="Path 961" d="M21.809-511.589c-.151.028-.745.1-1.321.189a26.95,26.95,0,0,0-5,1.312A24.127,24.127,0,0,0,.142-490.055,34.217,34.217,0,0,0,.331-483.5,24.648,24.648,0,0,0,2.152-477.5l.481,1.076L1.482-471.04C.85-468.067.34-465.576.34-465.5a2.2,2.2,0,0,0,1.029,1.651c.623.321.745.3,6.37-.9l5.417-1.161,1.123.5a23.317,23.317,0,0,0,9.937,2.076,29.213,29.213,0,0,0,3.02-.142A24.152,24.152,0,0,0,45.8-476.494a25.141,25.141,0,0,0,2.359-7.266,36.9,36.9,0,0,0,0-7.361,25.448,25.448,0,0,0-1.868-6.323c-.576-1.283-.717-1.463-1.217-1.463a.587.587,0,0,0-.557.245.859.859,0,0,0-.2.415,9.681,9.681,0,0,0,.528,1.331,22.186,22.186,0,0,1,2.019,9.39,21.119,21.119,0,0,1-1.132,7.219,22.678,22.678,0,0,1-14.193,14.3,21.424,21.424,0,0,1-7.323,1.17,21.634,21.634,0,0,1-9.946-2.265c-.632-.3-.906-.387-1.132-.349-.16.028-2.671.566-5.577,1.189a52.631,52.631,0,0,1-5.436,1.038.488.488,0,0,1-.208-.208c-.028-.076.481-2.586,1.123-5.6s1.17-5.53,1.17-5.605a5.872,5.872,0,0,0-.415-.991,21.432,21.432,0,0,1-2.227-9.861A20.786,20.786,0,0,1,2.7-494.669,22.6,22.6,0,0,1,17-508.994a22.64,22.64,0,0,1,15.316.33,23.17,23.17,0,0,1,9.7,7.134,8.136,8.136,0,0,0,1.066,1.161.75.75,0,0,0,.953-.764c0-.406-1-1.7-2.491-3.237a23.993,23.993,0,0,0-13.41-7.011,20.98,20.98,0,0,0-3.586-.217C23.2-511.618,21.969-511.608,21.809-511.589Z" transform="translate(0 0)" fill="#fff"/>
    <path id="Path_962" data-name="Path 962" d="M79.146-449.878a18.74,18.74,0,0,0-9.3,3.841,18.463,18.463,0,0,0-6.36,9.786A16,16,0,0,0,63-433.42a.725.725,0,0,0,.746.8c.491,0,.727-.311.8-1.085a17.267,17.267,0,0,1,2.293-6.653,16.817,16.817,0,0,1,14.985-8.087,16.446,16.446,0,0,1,11.135,4.832,16.76,16.76,0,0,1,4.822,9.154,21.988,21.988,0,0,1,0,5.568,16.923,16.923,0,0,1-11.777,13.3A16.753,16.753,0,0,1,70.455-418.8a16.945,16.945,0,0,1-5.907-10.777c-.085-.774-.3-1.057-.8-1.057-.746,0-.868.387-.6,1.944a17.988,17.988,0,0,0,1.557,4.917,18.315,18.315,0,0,0,22.978,9.229A18.343,18.343,0,0,0,98.34-425.21a18.374,18.374,0,0,0-3.369-18.534A18.406,18.406,0,0,0,79.146-449.878Z" transform="translate(-56.998 -55.813)" fill="#fff"/>
    <path id="Path_963" data-name="Path 963" d="M179.639-323.888a3.531,3.531,0,0,0-.708.34c-.151.1-1.6,1.51-3.227,3.114l-2.944,2.935-.566-.547a2.762,2.762,0,0,0-2.274-.944,2.038,2.038,0,0,0-1.4.321,3.057,3.057,0,0,0-1.425,3.841c.179.491.4.745,2.1,2.444,1.727,1.727,1.944,1.925,2.463,2.114a2.66,2.66,0,0,0,1.283.17c1.151-.066,1.378-.217,3.652-2.472,1.114-1.095,2.076-2.114,2.161-2.265a.746.746,0,0,0-.651-1.095c-.264,0-.538.245-2.331,2.019a30.609,30.609,0,0,1-2.34,2.17,1.62,1.62,0,0,1-1.227.047,29.556,29.556,0,0,1-3.661-3.633,1.566,1.566,0,0,1,1.151-2.17c.594-.113.878.038,1.831.963.783.755.963.887,1.227.887.283,0,.613-.3,3.624-3.293,1.812-1.812,3.444-3.369,3.624-3.454a1.562,1.562,0,0,1,2.18,1.416c0,.528-.226.859-1.4,2.057-1.019,1.047-1.076,1.123-1.019,1.416a.748.748,0,0,0,.793.632c.321,0,.444-.1,1.491-1.161,1.34-1.349,1.566-1.736,1.623-2.793a2.549,2.549,0,0,0-.179-1.283A3.1,3.1,0,0,0,179.639-323.888Z" transform="translate(-151.083 -169.856)" fill="#fff"/>
    <path id="Path_964" data-name="Path 964" d="M154.357-315.77a.818.818,0,0,0-.208.566c0,.34-.009.349-.359.349a.707.707,0,0,0-.566.217.774.774,0,0,0,.595,1.293c.311,0,.33.019.33.33a.82.82,0,0,0,.651.8.859.859,0,0,0,.859-.9c0-.189.047-.236.236-.236a.8.8,0,0,0,.84-.981.73.73,0,0,0-.755-.528c-.274,0-.3-.028-.349-.4a.934.934,0,0,0-.255-.566A.774.774,0,0,0,154.357-315.77Z" transform="translate(-138.522 -177.163)" fill="#fff"/>
  </g>
</svg>
