<svg xmlns="http://www.w3.org/2000/svg" xmlns:xlink="http://www.w3.org/1999/xlink" width="90" height="102" viewBox="0 0 90 102">
  <defs>
    <linearGradient id="linear-gradient" x1="0.5" x2="0.5" y2="1" gradientUnits="objectBoundingBox">
      <stop offset="0" stop-color="#16becf"/>
      <stop offset="1" stop-color="#3fffac"/>
    </linearGradient>
  </defs>
  <g id="Accountability" transform="translate(-1805 -2761)">
    <path id="Path_1822" data-name="Path 1822" d="M84.1,43.758l0,0A11.781,11.781,0,0,1,90,53.951V94.606a11.778,11.778,0,0,1-6.032,10.265l-33.117,18.6a11.961,11.961,0,0,1-11.709,0L6.03,104.871A11.78,11.78,0,0,1,0,94.607V53.953A11.782,11.782,0,0,1,5.9,43.76L39,24.6a11.975,11.975,0,0,1,11.973,0L84.1,43.76Z" transform="translate(1805 2738)" fill-rule="evenodd" fill="url(#linear-gradient)"/>
    <g id="Accountability-2" data-name="Accountability" transform="translate(1787.099 3301.002)">
      <path id="Path_935" data-name="Path 935" d="M44.312-511.835a1.233,1.233,0,0,0-.3.357c-.147.284-.147,45.562,0,45.845a1.233,1.233,0,0,0,.3.357c.183.156,1.31.165,18.792.165H81.7l.3-.211a1.761,1.761,0,0,0,.5-.568c.192-.366.192-.412.22-11.384.018-9.891.009-11.036-.128-11.292-.247-.485-.522-.54-2.921-.54H77.519V-500.1c0-11.851.018-11.42-.467-11.759-.192-.137-1.584-.147-16.384-.147C45.494-512,44.5-511.991,44.312-511.835ZM75.5-488.555v21.522l-14.8-.019-14.818-.027-.027-21.384c-.009-11.759,0-21.439.027-21.5.027-.082,3.086-.11,14.836-.11H75.5Zm5.22,11.493v10.028h-3.3V-487.09h3.3Z" fill="#fff"/>
      <path id="Path_936" data-name="Path 936" d="M92-469.038v.962h5.678V-470H92Z" transform="translate(-43.695 -38.154)" fill="#fff"/>
      <path id="Path_937" data-name="Path 937" d="M311-469.038v.962h1.923V-470H311Z" transform="translate(-242.639 -38.154)" fill="#fff"/>
      <path id="Path_938" data-name="Path 938" d="M342-469.038v.962h1.923V-470H342Z" transform="translate(-270.8 -38.154)" fill="#fff"/>
      <path id="Path_939" data-name="Path 939" d="M92-427.038v.962h11.448V-428H92Z" transform="translate(-43.695 -76.307)" fill="#fff"/>
      <path id="Path_940" data-name="Path 940" d="M94.945-356.792c-.678.6-1.493,1.328-1.813,1.612l-.577.5-.641-.632-.632-.623-.641.632a4.05,4.05,0,0,0-.641.733,17.321,17.321,0,0,0,2.015,2.006,1.032,1.032,0,0,0,.98.027c.1-.064,1.035-.852,2.061-1.768s1.978-1.758,2.134-1.887l.266-.238-.247-.3c-.128-.174-.421-.5-.632-.742l-.394-.43Z" transform="translate(-41.878 -139.987)" fill="#fff"/>
      <path id="Path_941" data-name="Path 941" d="M191-349.038v.962h2.381V-350H191Z" transform="translate(-133.628 -147.164)" fill="#fff"/>
      <path id="Path_942" data-name="Path 942" d="M233-349.038v.962h2.381V-350H233Z" transform="translate(-171.782 -147.164)" fill="#fff"/>
      <path id="Path_943" data-name="Path 943" d="M191-318.038v.962h16.21V-319H191Z" transform="translate(-133.628 -175.325)" fill="#fff"/>
      <path id="Path_944" data-name="Path 944" d="M93.96-251.734c-.971.87-1.795,1.575-1.832,1.575a5.364,5.364,0,0,1-.659-.6l-.6-.6-.678.687-.687.687,1.007,1.007c1.108,1.108,1.41,1.273,1.914,1.062.275-.119,4.542-3.856,4.542-3.984a8.062,8.062,0,0,0-.623-.733l-.623-.678Z" transform="translate(-41.424 -235.008)" fill="#fff"/>
      <path id="Path_945" data-name="Path 945" d="M191-245.038v.962h2.381V-246H191Z" transform="translate(-133.628 -241.639)" fill="#fff"/>
      <path id="Path_946" data-name="Path 946" d="M233-245.129v.962h2.39l-.027-.943-.027-.934-1.163-.027L233-246.1Z" transform="translate(-171.782 -241.549)" fill="#fff"/>
      <path id="Path_947" data-name="Path 947" d="M191-213.038v.962h16.21V-214H191Z" transform="translate(-133.628 -270.709)" fill="#fff"/>
      <path id="Path_948" data-name="Path 948" d="M94.986-147.408c-.4.366-1.227,1.09-1.813,1.612l-1.071.952-.641-.632-.632-.632-.669.669-.659.659,1.108,1.1c.952.952,1.145,1.1,1.4,1.1a1.317,1.317,0,0,0,.5-.1c.211-.119,4.4-3.819,4.442-3.938a7.25,7.25,0,0,0-1.072-1.291C95.737-148.059,95.682-148.022,94.986-147.408Z" transform="translate(-41.424 -330.679)" fill="#fff"/>
      <path id="Path_949" data-name="Path 949" d="M191-140.038v.962h2.381V-141H191Z" transform="translate(-133.628 -337.023)" fill="#fff"/>
      <path id="Path_950" data-name="Path 950" d="M233-140.038v.971l1.172-.027,1.163-.027.027-.943.027-.934H233Z" transform="translate(-171.782 -337.023)" fill="#fff"/>
      <path id="Path_951" data-name="Path 951" d="M191-109.038v.962h16.21V-110H191Z" transform="translate(-133.628 -365.184)" fill="#fff"/>
    </g>
  </g>
</svg>
