<svg xmlns="http://www.w3.org/2000/svg" xmlns:xlink="http://www.w3.org/1999/xlink" width="153" height="142" viewBox="0 0 153 142">
  <defs>
    <filter id="Rectangle_6250" x="0" y="0" width="153" height="142" filterUnits="userSpaceOnUse">
      <feOffset dx="3" dy="3" input="SourceAlpha"/>
      <feGaussianBlur stdDeviation="10" result="blur"/>
      <feFlood flood-color="#4c4c4c" flood-opacity="0.09"/>
      <feComposite operator="in" in2="blur"/>
      <feComposite in="SourceGraphic"/>
    </filter>
  </defs>
  <g id="Group_4037" data-name="Group 4037" transform="translate(-242 -1455)">
    <g transform="matrix(1, 0, 0, 1, 242, 1455)" filter="url(#Rectangle_6250)">
      <rect id="Rectangle_6250-2" data-name="Rectangle 6250" width="93" height="82" rx="15" transform="translate(27 27)" fill="#dafafd"/>
    </g>
    <g id="transparency_1_" data-name="transparency (1)" transform="translate(291.872 2011.899)">
      <path id="Path_18950" data-name="Path 18950" d="M14.432-511.845c-.126.018-.666.117-1.215.216A16.214,16.214,0,0,0,.963-500.97a14.273,14.273,0,0,0-.819,4.763A14.043,14.043,0,0,0,.486-492.1a16.291,16.291,0,0,0,11.785,12.127,17.234,17.234,0,0,0,7.518.153,16.406,16.406,0,0,0,5.339-2.224l.576-.36,1,1,1,1-.423.45c-.369.387-.423.5-.423.837v.378l5.924,5.933c3.727,3.745,6.113,6.068,6.446,6.284a4.634,4.634,0,0,0,4.97,0,4.289,4.289,0,0,0,2.017-3.79A4.238,4.238,0,0,0,45.5-472.8c-.216-.333-2.539-2.719-6.284-6.455l-5.933-5.915h-.378c-.333,0-.45.054-.837.423l-.45.423-1-1-.99-.99.612-1.008a15.67,15.67,0,0,0,2.3-8.328,15.936,15.936,0,0,0-4.718-11.515,16.156,16.156,0,0,0-9.138-4.61A27.208,27.208,0,0,0,14.432-511.845Zm4.259,2.008a14.444,14.444,0,0,1,11.821,12.019,17.718,17.718,0,0,1,.036,4.024,14.458,14.458,0,0,1-12.325,12.316,17.862,17.862,0,0,1-3.8,0,14.421,14.421,0,0,1-10.876-7.752,14.33,14.33,0,0,1,1.116-14.8,17.19,17.19,0,0,1,3.3-3.313,15.031,15.031,0,0,1,5.915-2.494A16.546,16.546,0,0,1,18.69-509.838ZM29.674-482.36l-.612.612-.918-.918-.927-.927.6-.6.612-.612.918.918.927.927Zm4.457.729,1.188,1.188-1.873,1.873-1.864,1.864-1.215-1.215-1.215-1.215L31-480.982c1.017-1.017,1.864-1.846,1.891-1.846S33.473-482.288,34.131-481.631Zm9.922,10.183a2.548,2.548,0,0,1-1.188,3.466,2.075,2.075,0,0,1-1.143.279c-1.116,0-1.161-.036-5.168-4.033l-3.574-3.574,1.864-1.864,1.873-1.873,3.538,3.529C43.188-472.582,43.836-471.889,44.052-471.448Z" transform="translate(0 0)" fill="#21bdca"/>
      <path id="Path_18951" data-name="Path 18951" d="M50.984-471.757a13.486,13.486,0,0,0-4.313,1.4,12.476,12.476,0,0,0-5.348,5.5A12.043,12.043,0,0,0,40-459.242a12.1,12.1,0,0,0,1.459,5.978,12.627,12.627,0,0,0,9.084,6.527,15.876,15.876,0,0,0,4.132.009A12.683,12.683,0,0,0,65-456.686a18.187,18.187,0,0,0,0-5.042,12.731,12.731,0,0,0-6.545-8.67,13.369,13.369,0,0,0-3.241-1.188A25.139,25.139,0,0,0,50.984-471.757Zm4.232,2.134a10.593,10.593,0,0,1,4.961,2.845,10.864,10.864,0,0,1,2.854,4.961,7.561,7.561,0,0,1,.234,2.611,7.54,7.54,0,0,1-.243,2.638,10.705,10.705,0,0,1-2.845,4.934,10.556,10.556,0,0,1-8.481,3.124,10.826,10.826,0,0,1-9.669-8.841,11.618,11.618,0,0,1,.369-5.177,10.873,10.873,0,0,1,8.355-7.266,11.8,11.8,0,0,1,2.125-.09A8.274,8.274,0,0,1,55.215-469.623Z" transform="translate(-36.282 -36.496)" fill="#21bdca"/>
      <path id="Path_18952" data-name="Path 18952" d="M91.473-431.828a9.221,9.221,0,0,0-5.69,3.529,6.35,6.35,0,0,0-1.314,2.917.884.884,0,0,0,.963.747c.459,0,.648-.207,1.179-1.287a7.044,7.044,0,0,1,5.915-4.114c1.179-.117,1.423-.288,1.432-1a.755.755,0,0,0-.234-.657c-.225-.216-.288-.234-1.017-.225A10.447,10.447,0,0,0,91.473-431.828Z" transform="translate(-76.736 -72.779)" fill="#21bdca"/>
      <path id="Path_18953" data-name="Path 18953" d="M81.026-331.378a.917.917,0,0,0-.18,1.531.862.862,0,0,0,1.233-.054A.92.92,0,0,0,81.026-331.378Z" transform="translate(-73.149 -164.189)" fill="#21bdca"/>
    </g>
  </g>
</svg>
