<svg xmlns="http://www.w3.org/2000/svg" xmlns:xlink="http://www.w3.org/1999/xlink" width="796.6" height="509.739" viewBox="0 0 796.6 509.739">
  <defs>
    <clipPath id="clip-path">
      <rect id="Rectangle_6624" data-name="Rectangle 6624" width="796.6" height="509.739" transform="translate(0 0)" fill="#fff"/>
    </clipPath>
    <clipPath id="clip-path-2">
      <rect id="Rectangle_6625" data-name="Rectangle 6625" width="65" height="65" transform="translate(0.141 0.257)" fill="#fff"/>
    </clipPath>
  </defs>
  <g id="Group_4057" data-name="Group 4057" transform="translate(-186 -3098.279)">
    <g id="illustration" transform="translate(186 3098.279)" clip-path="url(#clip-path)">
      <path id="Path_18979" data-name="Path 18979" d="M335.447,201.189a4.275,4.275,0,1,0-4.275-4.274A4.275,4.275,0,0,0,335.447,201.189Z" transform="translate(99.704 112.364)" fill="#e9ecfc"/>
      <path id="Path_18980" data-name="Path 18980" d="M356.257,201.189a4.275,4.275,0,1,0-4.274-4.274A4.275,4.275,0,0,0,356.257,201.189Z" transform="translate(105.969 112.364)" fill="#e9ecfc"/>
      <path id="Path_18981" data-name="Path 18981" d="M377.068,201.189a4.275,4.275,0,1,0-4.275-4.274A4.275,4.275,0,0,0,377.068,201.189Z" transform="translate(112.235 112.364)" fill="#e9ecfc"/>
      <path id="Path_18982" data-name="Path 18982" d="M397.878,201.189a4.275,4.275,0,1,0-4.274-4.274A4.275,4.275,0,0,0,397.878,201.189Z" transform="translate(118.5 112.364)" fill="#e9ecfc"/>
      <path id="Path_18983" data-name="Path 18983" d="M335.447,223.1a4.275,4.275,0,1,0-4.275-4.275A4.276,4.276,0,0,0,335.447,223.1Z" transform="translate(99.704 118.959)" fill="#e9ecfc"/>
      <path id="Path_18984" data-name="Path 18984" d="M356.257,223.1a4.275,4.275,0,1,0-4.274-4.275A4.276,4.276,0,0,0,356.257,223.1Z" transform="translate(105.969 118.959)" fill="#e9ecfc"/>
      <path id="Path_18985" data-name="Path 18985" d="M377.068,223.1a4.275,4.275,0,1,0-4.275-4.275A4.276,4.276,0,0,0,377.068,223.1Z" transform="translate(112.235 118.959)" fill="#e9ecfc"/>
      <path id="Path_18986" data-name="Path 18986" d="M397.878,223.1a4.275,4.275,0,1,0-4.274-4.275A4.276,4.276,0,0,0,397.878,223.1Z" transform="translate(118.5 118.959)" fill="#e9ecfc"/>
      <path id="Path_18987" data-name="Path 18987" d="M335.447,245a4.275,4.275,0,1,0-4.275-4.275A4.275,4.275,0,0,0,335.447,245Z" transform="translate(99.704 125.554)" fill="#e9ecfc"/>
      <path id="Path_18988" data-name="Path 18988" d="M356.257,245a4.275,4.275,0,1,0-4.274-4.275A4.275,4.275,0,0,0,356.257,245Z" transform="translate(105.969 125.554)" fill="#e9ecfc"/>
      <path id="Path_18989" data-name="Path 18989" d="M377.068,245a4.275,4.275,0,1,0-4.275-4.275A4.275,4.275,0,0,0,377.068,245Z" transform="translate(112.235 125.554)" fill="#e9ecfc"/>
      <path id="Path_18990" data-name="Path 18990" d="M397.878,245a4.275,4.275,0,1,0-4.274-4.275A4.275,4.275,0,0,0,397.878,245Z" transform="translate(118.5 125.554)" fill="#e9ecfc"/>
      <path id="Path_18991" data-name="Path 18991" d="M335.447,265.811a4.275,4.275,0,1,0-4.275-4.274A4.275,4.275,0,0,0,335.447,265.811Z" transform="translate(99.704 131.819)" fill="#e9ecfc"/>
      <path id="Path_18992" data-name="Path 18992" d="M356.257,265.811a4.275,4.275,0,1,0-4.274-4.274A4.275,4.275,0,0,0,356.257,265.811Z" transform="translate(105.969 131.819)" fill="#e9ecfc"/>
      <path id="Path_18993" data-name="Path 18993" d="M377.068,265.811a4.275,4.275,0,1,0-4.275-4.274A4.275,4.275,0,0,0,377.068,265.811Z" transform="translate(112.235 131.819)" fill="#e9ecfc"/>
      <path id="Path_18994" data-name="Path 18994" d="M397.878,265.811a4.275,4.275,0,1,0-4.274-4.274A4.275,4.275,0,0,0,397.878,265.811Z" transform="translate(118.5 131.819)" fill="#e9ecfc"/>
      <path id="Path_18995" data-name="Path 18995" d="M418.689,201.189a4.275,4.275,0,1,0-4.275-4.274A4.275,4.275,0,0,0,418.689,201.189Z" transform="translate(124.765 112.364)" fill="#e9ecfc"/>
      <path id="Path_18996" data-name="Path 18996" d="M418.689,223.1a4.275,4.275,0,1,0-4.275-4.275A4.276,4.276,0,0,0,418.689,223.1Z" transform="translate(124.765 118.959)" fill="#e9ecfc"/>
      <path id="Path_18997" data-name="Path 18997" d="M418.689,245a4.275,4.275,0,1,0-4.275-4.275A4.275,4.275,0,0,0,418.689,245Z" transform="translate(124.765 125.554)" fill="#e9ecfc"/>
      <path id="Path_18998" data-name="Path 18998" d="M418.689,265.811a4.275,4.275,0,1,0-4.275-4.274A4.275,4.275,0,0,0,418.689,265.811Z" transform="translate(124.765 131.819)" fill="#e9ecfc"/>
      <path id="Path_18999" data-name="Path 18999" d="M335.447,286.623a4.275,4.275,0,1,0-4.275-4.275A4.275,4.275,0,0,0,335.447,286.623Z" transform="translate(99.704 138.084)" fill="#e9ecfc"/>
      <path id="Path_19000" data-name="Path 19000" d="M356.257,286.623a4.275,4.275,0,1,0-4.274-4.275A4.275,4.275,0,0,0,356.257,286.623Z" transform="translate(105.969 138.084)" fill="#e9ecfc"/>
      <path id="Path_19001" data-name="Path 19001" d="M377.068,286.623a4.275,4.275,0,1,0-4.275-4.275A4.275,4.275,0,0,0,377.068,286.623Z" transform="translate(112.235 138.084)" fill="#e9ecfc"/>
      <path id="Path_19002" data-name="Path 19002" d="M397.878,286.623a4.275,4.275,0,1,0-4.274-4.275A4.275,4.275,0,0,0,397.878,286.623Z" transform="translate(118.5 138.084)" fill="#e9ecfc"/>
      <path id="Path_19003" data-name="Path 19003" d="M418.689,286.623a4.275,4.275,0,1,0-4.275-4.275A4.275,4.275,0,0,0,418.689,286.623Z" transform="translate(124.765 138.084)" fill="#e9ecfc"/>
      <path id="Path_19004" data-name="Path 19004" d="M158.01,57.707a4.275,4.275,0,1,0-4.275-4.275A4.275,4.275,0,0,0,158.01,57.707Z" transform="translate(46.284 69.166)" fill="#e9ecfc"/>
      <path id="Path_19005" data-name="Path 19005" d="M178.82,57.707a4.275,4.275,0,1,0-4.274-4.275A4.275,4.275,0,0,0,178.82,57.707Z" transform="translate(52.55 69.166)" fill="#e9ecfc"/>
      <path id="Path_19006" data-name="Path 19006" d="M199.631,57.707a4.275,4.275,0,1,0-4.275-4.275A4.275,4.275,0,0,0,199.631,57.707Z" transform="translate(58.815 69.166)" fill="#e9ecfc"/>
      <path id="Path_19007" data-name="Path 19007" d="M220.441,57.707a4.275,4.275,0,1,0-4.274-4.275A4.275,4.275,0,0,0,220.441,57.707Z" transform="translate(65.08 69.166)" fill="#e9ecfc"/>
      <path id="Path_19008" data-name="Path 19008" d="M158.01,79.613a4.275,4.275,0,1,0-4.275-4.275A4.275,4.275,0,0,0,158.01,79.613Z" transform="translate(46.284 75.761)" fill="#e9ecfc"/>
      <path id="Path_19009" data-name="Path 19009" d="M178.82,79.613a4.275,4.275,0,1,0-4.274-4.275A4.275,4.275,0,0,0,178.82,79.613Z" transform="translate(52.55 75.761)" fill="#e9ecfc"/>
      <path id="Path_19010" data-name="Path 19010" d="M199.631,79.613a4.275,4.275,0,1,0-4.275-4.275A4.275,4.275,0,0,0,199.631,79.613Z" transform="translate(58.815 75.761)" fill="#e9ecfc"/>
      <path id="Path_19011" data-name="Path 19011" d="M220.441,79.613a4.275,4.275,0,1,0-4.274-4.275A4.275,4.275,0,0,0,220.441,79.613Z" transform="translate(65.08 75.761)" fill="#e9ecfc"/>
      <path id="Path_19012" data-name="Path 19012" d="M158.01,101.518a4.275,4.275,0,1,0-4.275-4.275A4.275,4.275,0,0,0,158.01,101.518Z" transform="translate(46.284 82.356)" fill="#e9ecfc"/>
      <path id="Path_19013" data-name="Path 19013" d="M178.82,101.518a4.275,4.275,0,1,0-4.274-4.275A4.275,4.275,0,0,0,178.82,101.518Z" transform="translate(52.55 82.356)" fill="#e9ecfc"/>
      <path id="Path_19014" data-name="Path 19014" d="M199.631,101.518a4.275,4.275,0,1,0-4.275-4.275A4.275,4.275,0,0,0,199.631,101.518Z" transform="translate(58.815 82.356)" fill="#e9ecfc"/>
      <path id="Path_19015" data-name="Path 19015" d="M220.441,101.518a4.275,4.275,0,1,0-4.274-4.275A4.275,4.275,0,0,0,220.441,101.518Z" transform="translate(65.08 82.356)" fill="#e9ecfc"/>
      <path id="Path_19016" data-name="Path 19016" d="M158.01,122.329a4.275,4.275,0,1,0-4.275-4.275A4.275,4.275,0,0,0,158.01,122.329Z" transform="translate(46.284 88.621)" fill="#e9ecfc"/>
      <path id="Path_19017" data-name="Path 19017" d="M178.82,122.329a4.275,4.275,0,1,0-4.274-4.275A4.275,4.275,0,0,0,178.82,122.329Z" transform="translate(52.55 88.621)" fill="#e9ecfc"/>
      <path id="Path_19018" data-name="Path 19018" d="M199.631,122.329a4.275,4.275,0,1,0-4.275-4.275A4.275,4.275,0,0,0,199.631,122.329Z" transform="translate(58.815 88.621)" fill="#e9ecfc"/>
      <path id="Path_19019" data-name="Path 19019" d="M220.441,122.329a4.275,4.275,0,1,0-4.274-4.275A4.275,4.275,0,0,0,220.441,122.329Z" transform="translate(65.08 88.621)" fill="#e9ecfc"/>
      <path id="Path_19020" data-name="Path 19020" d="M241.252,57.707a4.275,4.275,0,1,0-4.275-4.275A4.275,4.275,0,0,0,241.252,57.707Z" transform="translate(71.345 69.166)" fill="#e9ecfc"/>
      <path id="Path_19021" data-name="Path 19021" d="M241.252,79.613a4.275,4.275,0,1,0-4.275-4.275A4.275,4.275,0,0,0,241.252,79.613Z" transform="translate(71.345 75.761)" fill="#e9ecfc"/>
      <path id="Path_19022" data-name="Path 19022" d="M241.252,101.518a4.275,4.275,0,1,0-4.275-4.275A4.275,4.275,0,0,0,241.252,101.518Z" transform="translate(71.345 82.356)" fill="#e9ecfc"/>
      <path id="Path_19023" data-name="Path 19023" d="M241.252,122.329a4.275,4.275,0,1,0-4.275-4.275A4.275,4.275,0,0,0,241.252,122.329Z" transform="translate(71.345 88.621)" fill="#e9ecfc"/>
      <path id="Path_19024" data-name="Path 19024" d="M158.01,143.14a4.275,4.275,0,1,0-4.275-4.275A4.276,4.276,0,0,0,158.01,143.14Z" transform="translate(46.284 94.887)" fill="#e9ecfc"/>
      <path id="Path_19025" data-name="Path 19025" d="M178.82,143.14a4.275,4.275,0,1,0-4.274-4.275A4.276,4.276,0,0,0,178.82,143.14Z" transform="translate(52.55 94.887)" fill="#e9ecfc"/>
      <path id="Path_19026" data-name="Path 19026" d="M199.631,143.14a4.275,4.275,0,1,0-4.275-4.275A4.276,4.276,0,0,0,199.631,143.14Z" transform="translate(58.815 94.887)" fill="#e9ecfc"/>
      <path id="Path_19027" data-name="Path 19027" d="M220.441,143.14a4.275,4.275,0,1,0-4.274-4.275A4.276,4.276,0,0,0,220.441,143.14Z" transform="translate(65.08 94.887)" fill="#e9ecfc"/>
      <path id="Path_19028" data-name="Path 19028" d="M241.252,143.14a4.275,4.275,0,1,0-4.275-4.275A4.276,4.276,0,0,0,241.252,143.14Z" transform="translate(71.345 94.887)" fill="#e9ecfc"/>
      <path id="Path_19029" data-name="Path 19029" d="M560.442,218.4H489.019a5.7,5.7,0,0,1-5.7-5.7v-31.35a5.7,5.7,0,0,1,5.7-5.7h71.423a5.7,5.7,0,0,1,5.7,5.7V212.7a5.7,5.7,0,0,1-5.7,5.7Z" transform="translate(145.51 107.249)" fill="#1c1e4f"/>
      <path id="Path_19030" data-name="Path 19030" d="M554.965,212.927H483.542a5.7,5.7,0,0,1-5.7-5.7v-31.35a5.7,5.7,0,0,1,5.7-5.7h71.423a5.7,5.7,0,0,1,5.7,5.7v31.35a5.7,5.7,0,0,1-5.7,5.7Z" transform="translate(143.861 105.6)" fill="#3fffac" stroke="#1c1e4f" stroke-linecap="round" stroke-linejoin="round" stroke-width="0.75"/>
      <path id="Path_19031" data-name="Path 19031" d="M519.529,177.854l12.826,12.825L519.529,203.5" transform="translate(156.412 107.912)" fill="#2fd39f"/>
      <path id="Path_19032" data-name="Path 19032" d="M519.529,177.854l12.826,12.825L519.529,203.5" transform="translate(156.412 107.912)" fill="none" stroke="#1c1e4f" stroke-linecap="round" stroke-linejoin="round" stroke-width="0.75"/>
      <path id="Path_19033" data-name="Path 19033" d="M502.782,203.5l-12.826-12.826,12.826-12.825" transform="translate(147.508 107.912)" fill="#2fd39f"/>
      <path id="Path_19034" data-name="Path 19034" d="M502.782,203.5l-12.826-12.826,12.826-12.825" transform="translate(147.508 107.912)" fill="none" stroke="#1c1e4f" stroke-linecap="round" stroke-linejoin="round" stroke-width="0.75"/>
      <path id="Path_19035" data-name="Path 19035" d="M517.7,178.39l-12.826,24.226" transform="translate(151.999 108.073)" fill="none" stroke="#1c1e4f" stroke-linecap="round" stroke-linejoin="round" stroke-width="0.75"/>
      <path id="Path_19036" data-name="Path 19036" d="M161.346,313.188v29.926m0-30.155L94.369,351.634,27.392,312.959Zm0,0L94.369,274.283,27.392,312.959Zm-94.223,22.1V366.17L94.07,381.732l26.948-15.562V335.061L94.07,319.5Zm0,.6L94.07,351.222l26.948-15.562ZM94.07,351.222v0ZM67.094,258.081V289.2L94.042,304.75,120.989,289.2V258.081L94.042,242.519Zm0,0L94.042,274.24l26.948-15.546ZM94.042,274.24v0ZM.416,296.357V327.48l26.948,15.548L54.311,327.48V296.386L27.364,280.824Zm0,.613,26.948,15.548L54.311,296.97Zm26.948,15.576v0ZM134.4,297v31.108l26.948,15.562,26.948-15.562v-31.08l-26.948-15.562Zm0,.6,26.948,15.562L188.294,297.6Z" transform="translate(0.125 127.38)" fill="none" stroke="#1c1e4f" stroke-miterlimit="10" stroke-width="0.75"/>
      <path id="Path_19037" data-name="Path 19037" d="M529.559.416H364.254a5.7,5.7,0,0,0-5.7,5.7v79.8a5.7,5.7,0,0,0,5.7,5.7H529.559a5.7,5.7,0,0,0,5.7-5.7V6.116A5.7,5.7,0,0,0,529.559.416Z" transform="translate(107.948 54.492)" fill="#fff" stroke="#1c1e4f" stroke-miterlimit="10" stroke-width="0.75"/>
      <path id="Path_19038" data-name="Path 19038" d="M364.254.416H529.559a5.7,5.7,0,0,1,5.7,5.7V30.342H358.554V6.116a5.7,5.7,0,0,1,5.7-5.7Z" transform="translate(107.948 54.492)" fill="#3fffac" stroke="#1c1e4f" stroke-miterlimit="10" stroke-width="0.75"/>
      <path id="Path_19039" data-name="Path 19039" d="M535.259,23.417H358.554" transform="translate(107.948 61.417)" fill="none" stroke="#1c1e4f" stroke-miterlimit="10" stroke-width="0.75"/>
      <path id="Path_19040" data-name="Path 19040" d="M374.352,18.058a4.988,4.988,0,1,0-4.987-4.988A4.987,4.987,0,0,0,374.352,18.058Z" transform="translate(111.203 56.8)" fill="none" stroke="#1c1e4f" stroke-miterlimit="10" stroke-width="0.75"/>
      <path id="Path_19041" data-name="Path 19041" d="M386.948,18.058a4.988,4.988,0,1,0-4.987-4.988A4.988,4.988,0,0,0,386.948,18.058Z" transform="translate(114.995 56.8)" fill="none" stroke="#1c1e4f" stroke-miterlimit="10" stroke-width="0.75"/>
      <path id="Path_19042" data-name="Path 19042" d="M399,18.058a4.988,4.988,0,1,0-4.987-4.988A4.987,4.987,0,0,0,399,18.058Z" transform="translate(118.622 56.8)" fill="none" stroke="#1c1e4f" stroke-miterlimit="10" stroke-width="0.75"/>
      <path id="Path_19043" data-name="Path 19043" d="M369.365,37.656,382.19,50.482,369.365,63.307" transform="translate(111.203 65.704)" fill="none" stroke="#1c1e4f" stroke-linecap="round" stroke-linejoin="round" stroke-width="0.75"/>
      <path id="Path_19044" data-name="Path 19044" d="M381.961,57.371h14.251" transform="translate(114.995 71.639)" fill="none" stroke="#1c1e4f" stroke-linecap="round" stroke-linejoin="round" stroke-width="0.75"/>
      <path id="Path_19045" data-name="Path 19045" d="M475.222,206.142a38.393,38.393,0,0,1-38.391,38.392H208.739A38.391,38.391,0,1,1,219.8,169.348a46.466,46.466,0,0,1-1.183-10.5,47.225,47.225,0,0,1,64.8-43.82,42.751,42.751,0,0,1,81.5,9.119A43.364,43.364,0,0,1,428.2,162.622a42.038,42.038,0,0,1-.441,6.171,37.44,37.44,0,0,1,9.077-1.1,38.393,38.393,0,0,1,38.391,38.448Z" transform="translate(51.317 81.119)" fill="#fff" stroke="#1c1e4f" stroke-miterlimit="10" stroke-width="0.75"/>
      <path id="Path_19050" data-name="Path 19050" d="M374.483,138.1a2.851,2.851,0,1,0-2.851-2.851A2.85,2.85,0,0,0,374.483,138.1Z" transform="translate(111.885 94.227)" fill="#21bdca"/>
      <path id="Path_19051" data-name="Path 19051" d="M387.625,138.1a2.851,2.851,0,1,0-2.849-2.851A2.851,2.851,0,0,0,387.625,138.1Z" transform="translate(115.842 94.227)" fill="#21bdca"/>
      <path id="Path_19052" data-name="Path 19052" d="M400.77,138.1a2.851,2.851,0,1,0-2.851-2.851A2.85,2.85,0,0,0,400.77,138.1Z" transform="translate(119.799 94.227)" fill="#21bdca"/>
      <path id="Path_19053" data-name="Path 19053" d="M413.913,138.1a2.851,2.851,0,1,0-2.851-2.851A2.851,2.851,0,0,0,413.913,138.1Z" transform="translate(123.756 94.227)" fill="#21bdca"/>
      <path id="Path_19054" data-name="Path 19054" d="M427.055,138.1a2.851,2.851,0,1,0-2.849-2.851A2.851,2.851,0,0,0,427.055,138.1Z" transform="translate(127.713 94.227)" fill="#21bdca"/>
      <path id="Path_19055" data-name="Path 19055" d="M427.055,82.239a2.85,2.85,0,1,0-2.849-2.85A2.85,2.85,0,0,0,427.055,82.239Z" transform="translate(127.713 77.41)" fill="#21bdca"/>
      <path id="Path_19056" data-name="Path 19056" d="M427.055,95.383a2.85,2.85,0,1,0-2.849-2.85A2.85,2.85,0,0,0,427.055,95.383Z" transform="translate(127.713 81.367)" fill="#21bdca"/>
      <path id="Path_19057" data-name="Path 19057" d="M427.055,108.526a2.85,2.85,0,1,0-2.849-2.849A2.85,2.85,0,0,0,427.055,108.526Z" transform="translate(127.713 85.324)" fill="#21bdca"/>
      <path id="Path_19058" data-name="Path 19058" d="M427.055,121.67a2.85,2.85,0,1,0-2.849-2.851A2.851,2.851,0,0,0,427.055,121.67Z" transform="translate(127.713 89.281)" fill="#21bdca"/>
      <path id="Path_19059" data-name="Path 19059" d="M356.917,143.364a7.125,7.125,0,1,0-7.125-7.125A7.125,7.125,0,0,0,356.917,143.364Z" transform="translate(105.31 93.238)" fill="#21bdca"/>
      <path id="Path_19060" data-name="Path 19060" d="M428.111,68.883a7.125,7.125,0,1,0-7.125-7.125A7.125,7.125,0,0,0,428.111,68.883Z" transform="translate(126.744 70.815)" fill="#4f37fd"/>
      <path id="Path_19061" data-name="Path 19061" d="M428.111,68.883a7.125,7.125,0,1,0-7.125-7.125A7.125,7.125,0,0,0,428.111,68.883Z" transform="translate(126.744 70.815)" fill="#21bdca"/>
      <path id="Path_19062" data-name="Path 19062" d="M108.939,243.86a2.85,2.85,0,1,0-2.849-2.849A2.85,2.85,0,0,0,108.939,243.86Z" transform="translate(31.94 126.068)" fill="#21bdca"/>
      <path id="Path_19063" data-name="Path 19063" d="M108.939,230.717a2.85,2.85,0,1,0-2.849-2.851A2.851,2.851,0,0,0,108.939,230.717Z" transform="translate(31.94 122.111)" fill="#21bdca"/>
      <path id="Path_19064" data-name="Path 19064" d="M108.939,217.573a2.85,2.85,0,1,0-2.849-2.849A2.85,2.85,0,0,0,108.939,217.573Z" transform="translate(31.94 118.154)" fill="#21bdca"/>
      <path id="Path_19065" data-name="Path 19065" d="M108.939,204.43a2.851,2.851,0,1,0-2.849-2.851A2.851,2.851,0,0,0,108.939,204.43Z" transform="translate(31.94 114.197)" fill="#21bdca"/>
      <path id="Path_19066" data-name="Path 19066" d="M108.939,191.286a2.85,2.85,0,1,0-2.849-2.849A2.85,2.85,0,0,0,108.939,191.286Z" transform="translate(31.94 110.24)" fill="#21bdca"/>
      <path id="Path_19067" data-name="Path 19067" d="M164.8,191.286a2.85,2.85,0,1,0-2.849-2.849A2.85,2.85,0,0,0,164.8,191.286Z" transform="translate(48.757 110.24)" fill="#21bdca"/>
      <path id="Path_19068" data-name="Path 19068" d="M151.657,191.286a2.85,2.85,0,1,0-2.851-2.849A2.849,2.849,0,0,0,151.657,191.286Z" transform="translate(44.8 110.24)" fill="#21bdca"/>
      <path id="Path_19069" data-name="Path 19069" d="M138.512,191.286a2.85,2.85,0,1,0-2.849-2.849A2.85,2.85,0,0,0,138.512,191.286Z" transform="translate(40.843 110.24)" fill="#21bdca"/>
      <path id="Path_19070" data-name="Path 19070" d="M125.37,191.286a2.85,2.85,0,1,0-2.851-2.849A2.849,2.849,0,0,0,125.37,191.286Z" transform="translate(36.886 110.24)" fill="#21bdca"/>
      <path id="Path_19071" data-name="Path 19071" d="M109.929,267.679a7.125,7.125,0,1,0-7.125-7.125A7.125,7.125,0,0,0,109.929,267.679Z" transform="translate(30.951 130.665)" fill="#21bdca"/>
      <path id="Path_19072" data-name="Path 19072" d="M184.409,196.475a7.125,7.125,0,1,0-7.125-7.126A7.126,7.126,0,0,0,184.409,196.475Z" transform="translate(53.374 109.228)" fill="#21bdca"/>
      <path id="Path_19073" data-name="Path 19073" d="M102.611,175.686H31.187a5.7,5.7,0,0,1-5.7-5.7v-31.35a5.7,5.7,0,0,1,5.7-5.7h71.423a5.7,5.7,0,0,1,5.7,5.7v31.35a5.7,5.7,0,0,1-5.7,5.7Z" transform="translate(7.673 94.389)" fill="#1c1e4f"/>
      <path id="Path_19074" data-name="Path 19074" d="M97.134,170.211H25.711a5.7,5.7,0,0,1-5.7-5.7V133.159a5.7,5.7,0,0,1,5.7-5.7H97.134a5.7,5.7,0,0,1,5.7,5.7v31.352a5.7,5.7,0,0,1-5.7,5.7Z" transform="translate(6.025 92.74)" fill="#3fffac" stroke="#1c1e4f" stroke-linecap="round" stroke-linejoin="round" stroke-width="0.75"/>
      <path id="Path_19075" data-name="Path 19075" d="M56.035,134.042v25.636" transform="translate(16.87 94.722)" fill="none" stroke="#1c1e4f" stroke-linecap="round" stroke-linejoin="round" stroke-width="0.75"/>
      <path id="Path_19076" data-name="Path 19076" d="M71.561,159.692c3.935,0,7.125-5.742,7.125-12.825s-3.19-12.826-7.125-12.826-7.125,5.742-7.125,12.826S67.626,159.692,71.561,159.692Z" transform="translate(19.399 94.722)" fill="#2fd39f" stroke="#1c1e4f" stroke-linecap="round" stroke-linejoin="round" stroke-width="0.75"/>
      <path id="Path_19077" data-name="Path 19077" d="M28.291,134.042v25.636" transform="translate(8.518 94.722)" fill="none" stroke="#1c1e4f" stroke-linecap="round" stroke-linejoin="round" stroke-width="0.75"/>
      <path id="Path_19078" data-name="Path 19078" d="M43.817,159.692c3.935,0,7.125-5.742,7.125-12.825s-3.19-12.826-7.125-12.826-7.125,5.742-7.125,12.826S39.882,159.692,43.817,159.692Z" transform="translate(11.047 94.722)" fill="#2fd39f" stroke="#1c1e4f" stroke-linecap="round" stroke-linejoin="round" stroke-width="0.75"/>
      <g id="loog-dark" transform="translate(304.68 244.65)">
        <g id="Layer_1" data-name="Layer 1" transform="translate(0 0)">
          <path id="Path_1" data-name="Path 1" d="M2.472,52.641H0V41.063q0-4.67,4.663-4.663H6.585v2.472H4.663a1.936,1.936,0,0,0-2.191,2.191Z" transform="translate(0 -23.679)" fill="#1a1b1d"/>
          <path id="Path_2" data-name="Path 2" d="M24.919,36.4q4.693,0,4.693,4.663v6.944c0,3.095-1.562,4.633-4.693,4.633H19.4q-4.67,0-4.67-4.693V41.063q0-4.67,4.67-4.663ZM19.4,38.872a1.936,1.936,0,0,0-2.191,2.191v6.884A1.953,1.953,0,0,0,19.4,50.168h5.517a1.94,1.94,0,0,0,2.221-2.161V41.063a1.95,1.95,0,0,0-2.221-2.191Z" transform="translate(-5.913 -23.679)" fill="#1a1b1d"/>
          <path id="Path_3" data-name="Path 3" d="M48.85,43.307a1.953,1.953,0,0,0,2.191,2.221h5.517a1.97,1.97,0,0,0,2.221-2.221V36.423a1.95,1.95,0,0,0-2.221-2.191H50.274V31.76h6.288q4.7,0,4.693,4.663v6.884q0,4.7-4.693,4.693H51.045q-4.67,0-4.67-4.693V24.84h2.479Z" transform="translate(-18.613 -19.039)" fill="#1a1b1d"/>
          <path id="Path_4" data-name="Path 4" d="M88.181,36.4q4.693,0,4.693,4.663v6.944c0,3.095-1.562,4.633-4.693,4.633h-5.5q-4.67,0-4.67-4.693V41.063q0-4.67,4.67-4.663Zm-5.517,2.472a1.936,1.936,0,0,0-2.191,2.191v6.884a1.953,1.953,0,0,0,2.191,2.221h5.517A1.94,1.94,0,0,0,90.4,48.007V41.063a1.95,1.95,0,0,0-2.221-2.191Z" transform="translate(-31.312 -23.679)" fill="#1a1b1d"/>
          <path id="Path_5" data-name="Path 5" d="M107,31.76h1.3V24.84h2.479v6.92h2.885v2.472h-2.885V48H108.3V34.232H107Z" transform="translate(-42.947 -19.039)" fill="#1a1b1d"/>
          <path id="Path_6" data-name="Path 6" d="M130.863,36.4q4.693,0,4.7,4.663v6.944c0,3.095-1.568,4.633-4.7,4.633h-5.517q-4.657,0-4.663-4.693V41.063q0-4.67,4.663-4.663Zm-5.517,2.472a1.936,1.936,0,0,0-2.191,2.191v6.884a1.953,1.953,0,0,0,2.191,2.221h5.517a1.934,1.934,0,0,0,2.221-2.161V41.063a1.948,1.948,0,0,0-2.221-2.191Z" transform="translate(-48.439 -23.679)" fill="#1a1b1d"/>
          <path id="Path_7" data-name="Path 7" d="M157.54,48.786V46.541h7.96a1.778,1.778,0,0,0,2.011-2.011V40.771a2.107,2.107,0,0,0-.473-1.455,1.8,1.8,0,0,0-1.425-.533H157.54V36.576h8.135a1.784,1.784,0,0,0,1.838-2.041V32.058a1.766,1.766,0,0,0-2.011-1.981h-7.96V27.81h7.96q4.256,0,4.25,4.25v2.449a4.436,4.436,0,0,1-1.059,3.13,4.405,4.405,0,0,1,1.059,3.107v3.759q0,4.256-4.25,4.256Z" transform="translate(-63.233 -20.231)" fill="#16becf"/>
          <path id="Path_8" data-name="Path 8" d="M193.348,46.541a1.753,1.753,0,0,0,2.011-1.951v-3.82a1.77,1.77,0,0,0-2.011-1.988h-5.717V36.575h5.689q4.244,0,4.25,4.19v3.819q0,4.19-4.25,4.19h-5q-4.19,0-4.22-4.256V32.057q0-4.244,4.22-4.25h7.992v2.269h-7.968a1.754,1.754,0,0,0-1.981,1.981V44.528a1.766,1.766,0,0,0,1.981,2.011Z" transform="translate(-73.893 -20.231)" fill="#16becf"/>
          <path id="Path_9" data-name="Path 9" d="M212.46,32.057q0-4.244,4.19-4.25h6.238q4.244,0,4.25,4.25V44.588q0,4.19-4.25,4.19H216.68q-4.19,0-4.19-4.256Zm10.458,14.481a1.751,1.751,0,0,0,2.011-1.951V32.057a1.766,1.766,0,0,0-2.011-1.981H216.68a1.752,1.752,0,0,0-1.981,1.981V44.528a1.765,1.765,0,0,0,1.981,2.011Z" transform="translate(-85.277 -20.231)" fill="#16becf"/>
          <path id="Path_10" data-name="Path 10" d="M79.28,82.325V75.35h1.8v4.886h34.867V75.35h1.8v6.975Z" transform="translate(-31.821 -39.313)" fill="#1a1b1d"/>
          <path id="Path_11" data-name="Path 11" d="M117.669,15.15v6.944h-1.8V17.208H81.036v4.886h-1.8V15.15Z" transform="translate(-31.806 -15.15)" fill="#1a1b1d"/>
          <rect id="Rectangle_1" data-name="Rectangle 1" width="3.143" height="3.143" transform="translate(52.176 17.648)" fill="#16becf"/>
          <rect id="Rectangle_2" data-name="Rectangle 2" width="3.143" height="3.143" transform="translate(78.515 17.648)" fill="#16becf"/>
          <rect id="Rectangle_3" data-name="Rectangle 3" width="6.585" height="1.796" transform="translate(58.737 33.511)" fill="#fff"/>
          <rect id="Rectangle_4" data-name="Rectangle 4" width="6.585" height="1.796" transform="translate(67.764 33.511)" fill="#fff"/>
          <path id="Path_12" data-name="Path 12" d="M112.1,71.094A2.394,2.394,0,1,1,109.7,68.7,2.394,2.394,0,0,1,112.1,71.094Z" transform="translate(-43.072 -36.644)" fill="#1a1b1d"/>
        </g>
      </g>
    </g>
    <g id="Group_4055" data-name="Group 4055" transform="translate(632.859 3486.427)">
      <path id="Path_2920" data-name="Path 2920" d="M66.626,33.82A33.264,33.264,0,1,1,33.362.556,33.263,33.263,0,0,1,66.626,33.82Z" transform="translate(-0.098 -0.556)" fill="#1ba27a"/>
      <path id="Path_2921" data-name="Path 2921" d="M37.834,6.577H6.336v7.6H18.283V25.358h7.6V14.181H37.834Z" transform="translate(11.043 10.197)" fill="#fff"/>
      <path id="Path_2922" data-name="Path 2922" d="M24.9,18.5C15.012,18.5,7,16.936,7,15.006s8.012-3.494,17.9-3.494S42.79,13.077,42.79,15.006,34.778,18.5,24.9,18.5Zm20.093-2.911c0-2.488-9-4.505-20.093-4.505S4.8,13.1,4.8,15.589c0,2.191,6.976,4.017,16.219,4.421V36.054h7.6V20.016C37.94,19.624,44.988,17.791,44.988,15.589Z" transform="translate(8.303 18.246)" fill="#fff"/>
    </g>
    <g id="Group_4056" data-name="Group 4056" transform="translate(307.859 3192.743)" clip-path="url(#clip-path-2)">
      <circle id="Ellipse_190" data-name="Ellipse 190" cx="32.5" cy="32.5" r="32.5" transform="translate(0.141 0.257)" fill="#25292c"/>
      <path id="Path_19079" data-name="Path 19079" d="M37.795,5.5h5.561L31.783,19.337a9.546,9.546,0,0,1-15.18,0L5.026,5.5h5.565l8.792,10.511A6.3,6.3,0,0,0,24.19,18.39,6.3,6.3,0,0,0,29,16.011Z" transform="translate(8.787 8.198)" fill="#fff"/>
      <path id="Path_19080" data-name="Path 19080" d="M10.565,30.746H5L16.648,16.823a9.546,9.546,0,0,1,15.18,0L43.476,30.746H37.915l-8.868-10.6a6.3,6.3,0,0,0-4.806-2.379,6.3,6.3,0,0,0-4.806,2.379Z" transform="translate(8.741 21.428)" fill="#fff"/>
    </g>
  </g>
</svg>
