<svg xmlns="http://www.w3.org/2000/svg" xmlns:xlink="http://www.w3.org/1999/xlink" width="153" height="142" viewBox="0 0 153 142">
  <defs>
    <filter id="Rectangle_6250" x="0" y="0" width="153" height="142" filterUnits="userSpaceOnUse">
      <feOffset dx="3" dy="3" input="SourceAlpha"/>
      <feGaussianBlur stdDeviation="10" result="blur"/>
      <feFlood flood-color="#4c4c4c" flood-opacity="0.09"/>
      <feComposite operator="in" in2="blur"/>
      <feComposite in="SourceGraphic"/>
    </filter>
  </defs>
  <g id="Group_4041" data-name="Group 4041" transform="translate(-542 -1455)">
    <g id="Group_4039" data-name="Group 4039" transform="translate(300)">
      <g transform="matrix(1, 0, 0, 1, 242, 1455)" filter="url(#Rectangle_6250)">
        <rect id="Rectangle_6250-2" data-name="Rectangle 6250" width="93" height="82" rx="15" transform="translate(27 27)" fill="#fde3e6"/>
      </g>
    </g>
    <g id="audience" transform="translate(595.5 1504.362)">
      <path id="Path_18957" data-name="Path 18957" d="M101.16-505.7a8.762,8.762,0,0,0-3.491,1.345,8.331,8.331,0,0,0-3.545,5.318,8.322,8.322,0,0,0,6.181,9.609,10.98,10.98,0,0,0,3.854.009,8.332,8.332,0,0,0,5.509-4.472,6.875,6.875,0,0,0,.791-3.591,6.875,6.875,0,0,0-.791-3.591A8.292,8.292,0,0,0,104.3-505.5,13.3,13.3,0,0,0,101.16-505.7Zm2.409,3.036a5.4,5.4,0,0,1,3.909,4.045,5.351,5.351,0,0,1-6.536,6.318,5.005,5.005,0,0,1-2.473-1.418,5.268,5.268,0,0,1,0-7.527A5.234,5.234,0,0,1,103.569-502.667Z" transform="translate(-85.442 505.733)" fill="#ff9bae"/>
      <path id="Path_18958" data-name="Path 18958" d="M23.854-304.535c-.4.073-.918.191-1.164.264a2.724,2.724,0,0,1-1.227.036c-4.027-.455-10.5-.118-13.336.691a11.968,11.968,0,0,0-5.045,3.118,11.953,11.953,0,0,0-2.4,4.063c-.518,1.573-.536,1.736-.573,5.618-.036,3.518-.036,3.627.145,4a1.378,1.378,0,0,0,.545.591l.355.2H16.164l.645.764a12.091,12.091,0,0,0,6.891,4.027,14.747,14.747,0,0,0,4.382,0,12.838,12.838,0,0,0,4.436-1.845,4.75,4.75,0,0,1,.636-.4c.036,0,1.309,1.255,2.836,2.782s2.927,2.854,3.109,2.954a1.4,1.4,0,0,0,2.073-1.218,2.334,2.334,0,0,0-.1-.673c-.055-.136-1.382-1.545-2.945-3.118l-2.854-2.863.455-.682a13.06,13.06,0,0,0,1.473-3.045,13.738,13.738,0,0,0,.518-2.763c0-.327.018-.345,2.645-2.191,1.454-1.027,2.673-1.873,2.709-1.891a6.819,6.819,0,0,1-.164,1.318c-.255,1.554-.227,1.873.2,2.336a1.451,1.451,0,0,0,2.427-.582c.209-.745,1.1-6.345,1.054-6.618a1.833,1.833,0,0,0-.236-.6c-.345-.564-.527-.6-4.082-.827-1.782-.109-3.373-.164-3.545-.127a1.548,1.548,0,0,0-.609.364,1.365,1.365,0,0,0-.155,1.9c.373.445.673.545,1.809.627a6.952,6.952,0,0,1,1.082.118c.045.045-3.109,2.309-3.345,2.4-.082.027-.182-.173-.327-.618a11.993,11.993,0,0,0-8.872-8.036A16.994,16.994,0,0,0,23.854-304.535Zm4.454,3.082a9.927,9.927,0,0,1,2.809,1.354,11.5,11.5,0,0,1,2.136,2.173,9.933,9.933,0,0,1,1.473,3.736l.036.355L32.581-292.3a20.692,20.692,0,0,1-2.282,1.491c-.064-.027-1.591-1.091-3.409-2.382-3.109-2.209-3.336-2.345-3.763-2.382a2.121,2.121,0,0,0-.682.055c-.127.055-1.391,1.018-2.809,2.154s-2.6,2.027-2.636,2a9.459,9.459,0,0,1-.045-1.391,8.148,8.148,0,0,1,.636-3.491A9.153,9.153,0,0,1,23-301.317a7.4,7.4,0,0,1,3.127-.418A6.627,6.627,0,0,1,28.308-301.454Zm-10.736-.082c.109.045.009.2-.455.709a11.941,11.941,0,0,0-2.763,10.845l.182.673-.255.218-.245.218-5.527.009H2.973l.036-2.618c.045-2.836.1-3.236.664-4.572a8.586,8.586,0,0,1,5.336-4.718,29.746,29.746,0,0,1,4.436-.636A29.644,29.644,0,0,1,17.573-301.536Zm8.809,11.554c1.818,1.291,3.436,2.373,3.609,2.427.591.155.9.009,2.636-1.218a18.892,18.892,0,0,1,1.709-1.136,10.217,10.217,0,0,1-1.054,2.109,8.981,8.981,0,0,1-10.054,3.509,8.589,8.589,0,0,1-3.754-2.336,6.389,6.389,0,0,1-1.309-1.736c-.018-.091,4.718-3.936,4.854-3.945C23.063-292.318,24.572-291.263,26.381-289.982Z" transform="translate(-0.091 322.928)" fill="#ff9bae"/>
    </g>
  </g>
</svg>
