<svg xmlns="http://www.w3.org/2000/svg" width="47.248" height="47.294" viewBox="0 0 47.248 47.294">
  <g id="Auditability" transform="translate(0 512)">
    <path id="Path_952" data-name="Path 952" d="M1.2-511.852a2.19,2.19,0,0,0-1.025.979c-.166.323-.176.582-.176,3.76v3.418l.24.185a.65.65,0,0,0,.933-.028l.259-.222.028-3.233c.028-3.122.037-3.233.222-3.4s.619-.176,11.63-.2l11.445-.018v3.556c0,3.325.009,3.584.176,3.907a2.432,2.432,0,0,0,1.025,1c.3.157.619.176,3.861.2l3.529.028v4.12l-.49-.166c-.259-.092-.9-.259-1.4-.37-.914-.212-1-.212-9.468-.24l-8.554-.037-.249.194a.8.8,0,0,0-.065,1.108c.176.176.3.185,5.1.185H23.13l-.831.545a13.638,13.638,0,0,0-1.3.97l-.471.425H16.913c-3.492,0-3.621.009-3.8.185a.792.792,0,0,0,.055,1.1c.24.185.351.194,3.131.194h2.891l-.416.619a12.912,12.912,0,0,0-1.69,3.88l-.1.4h-1.82c-2.134,0-2.235.028-2.235.684,0,.7.111.748,2.115.776l1.718.028v1.838H15.094c-1.552,0-1.69.009-1.921.194a.792.792,0,0,0-.055,1.1c.176.176.3.185,2.014.185h1.838l.12.527a12.359,12.359,0,0,0,1.69,3.935l.416.619H16.3c-2.78,0-2.891.009-3.131.194a.792.792,0,0,0-.055,1.1c.176.175.3.185,3.787.185h3.612l.619.527a14.16,14.16,0,0,0,1.312.97l.693.443H18.216c-4.794,0-4.923.009-5.1.185a.837.837,0,0,0,.009,1.072c.185.166.462.175,8.711.175,9.293,0,9.062.009,10.835-.554l.684-.212-.028,4.147-.028,4.138-.212.212-.212.212h-15.5c-15.121,0-15.509,0-15.7-.176l-.194-.176v-17.384c0-12.452-.028-17.467-.1-17.68a.77.77,0,0,0-.268-.379.886.886,0,0,0-.924.092c-.185.185-.185.3-.185,17.892,0,17.052.009,17.735.176,18.086a2.017,2.017,0,0,0,1.044,1.007c.3.129,2.078.148,16.193.148,14.4,0,15.879-.009,16.147-.148a2.426,2.426,0,0,0,1.016-1.007c.2-.36.2-.462.231-5.007l.028-4.637.425-.24.425-.249.776.776c.767.767.767.776.665,1.072a.7.7,0,0,0,.009.563,31.638,31.638,0,0,0,2.485,2.633c2.845,2.817,2.928,2.873,4.4,2.873a2.646,2.646,0,0,0,1.441-.24,3.456,3.456,0,0,0,1.533-1.487,2.4,2.4,0,0,0,.259-1.506c0-1.5.018-1.469-2.9-4.406-2.54-2.568-2.771-2.743-3.215-2.485-.139.074-.286-.028-.97-.7l-.794-.794.443-.841a12.2,12.2,0,0,0,1.386-4.378c.12-1.062-.055-1.4-.73-1.4-.194,0-.656.277-.656.4a17.129,17.129,0,0,1-.388,2.328,11.016,11.016,0,0,1-6.291,7.214,10.676,10.676,0,0,1-6.752.49,10.855,10.855,0,0,1-7.621-7.15,10.849,10.849,0,0,1,.028-6.678,10.952,10.952,0,0,1,6.2-6.586,10.659,10.659,0,0,1,11.371,2.161,10.263,10.263,0,0,1,3.131,5.33c.259,1.025.443,1.247.97,1.164.48-.074.674-.369.61-.905a13.139,13.139,0,0,0-1.847-4.582,12.431,12.431,0,0,0-3.519-3.455l-.831-.554-.046-2.947-.046-2.947-4.48-4.48L25.818-512H13.671C3.03-511.991,1.487-511.972,1.2-511.852Zm30.279,8.424c-.425.018-1.69.018-2.808,0-1.866-.028-2.069-.046-2.245-.2-.185-.176-.194-.249-.194-3v-2.827l3,3,3,3Zm7.685,25.744.693.693-.767.767-.757.757-.711-.711-.711-.711.73-.739a8.41,8.41,0,0,1,.785-.748A8.076,8.076,0,0,1,39.166-477.684Zm4.36,3.251a30.437,30.437,0,0,1,2.143,2.309,2.239,2.239,0,0,1,.018,1.533,2.242,2.242,0,0,1-1.007.979,2.412,2.412,0,0,1-1.33.009,27.614,27.614,0,0,1-2.355-2.2l-2.106-2.1,1.265-1.266c.7-.7,1.293-1.275,1.321-1.275S42.426-475.532,43.525-474.432Z" fill="#fff"/>
    <path id="Path_953" data-name="Path 953" d="M52.016-373.687a1.676,1.676,0,0,0-.831.767c-.166.323-.185.554-.185,2.263,0,2.134.065,2.4.665,2.836.3.2.379.212,2.383.24,2.051.028,2.088.028,2.4-.185a2.371,2.371,0,0,0,.527-.527c.2-.3.212-.388.212-2.365s-.009-2.06-.2-2.355c-.471-.684-.508-.693-2.78-.711C53.078-373.733,52.09-373.714,52.016-373.687Zm3.695,3.03v1.617H52.478v-3.233h3.233Z" transform="translate(-46.289 -125.501)" fill="#fff"/>
    <path id="Path_954" data-name="Path 954" d="M223.766-331.867a9.155,9.155,0,0,0-7.63,7.611c-.222,1.524.055,3.917.517,4.425a.837.837,0,0,0,1.072-.009c.212-.212.212-.37-.046-1.607a7.531,7.531,0,0,1,2.688-7.325,7.288,7.288,0,0,1,2.429-1.33,5.091,5.091,0,0,1,2.263-.3,6.042,6.042,0,0,1,3.325.7,7.587,7.587,0,0,1,2.7,11.5,7.958,7.958,0,0,1-3.141,2.374,7.753,7.753,0,0,1-5.145.166,7.561,7.561,0,0,1-3.427-2.291c-.471-.545-.748-.7-1.108-.628a.71.71,0,0,0-.545.739c0,.674,1.792,2.319,3.372,3.094a7.329,7.329,0,0,0,4.064.868,7.37,7.37,0,0,0,2.291-.2,9.221,9.221,0,0,0,6.411-6.272,6.517,6.517,0,0,0,.249-2.522,6.573,6.573,0,0,0-.249-2.531,9.141,9.141,0,0,0-6.836-6.346A12.806,12.806,0,0,0,223.766-331.867Z" transform="translate(-196.1 -163.442)" fill="#fff"/>
    <path id="Path_955" data-name="Path 955" d="M269.065-276.715c-.526.129-.841.369-1.977,1.524l-1.145,1.164-.333-.268a2.2,2.2,0,0,0-2.032-.554,2.089,2.089,0,0,0-1.681,2.1c-.009.868.194,1.2,1.552,2.531,1.33,1.312,1.718,1.543,2.531,1.552.878,0,1.219-.259,3.455-2.568,2.161-2.217,2.346-2.494,2.355-3.353A2.2,2.2,0,0,0,269.065-276.715Zm.813,1.506a.7.7,0,0,1,.434.656c0,.222-.314.591-1.866,2.171-1.025,1.053-1.949,1.986-2.051,2.069-.425.351-.637.24-1.866-.961-1.016-.988-1.145-1.155-1.145-1.432a.659.659,0,0,1,.822-.674,4.216,4.216,0,0,1,.813.61c1.025.9.961.914,2.753-.924C269.416-275.384,269.472-275.431,269.878-275.209Z" transform="translate(-237.705 -213.495)" fill="#fff"/>
    <path id="Path_956" data-name="Path 956" d="M51.981-268.823a1.812,1.812,0,0,0-.942.9,16.785,16.785,0,0,0,0,4.3,1.7,1.7,0,0,0,1.09.9,12.4,12.4,0,0,0,2.143.074c1.663-.028,1.783-.037,2.115-.249a1.622,1.622,0,0,0,.536-.582c.176-.333.185-.508.157-2.411-.028-2-.037-2.06-.249-2.365-.416-.573-.748-.656-2.78-.647A18.377,18.377,0,0,0,51.981-268.823ZM55.6-265.8l-.028,1.644H52.433l-.028-1.524c-.009-.831,0-1.57.018-1.635.037-.092.425-.12,1.626-.12h1.57Z" transform="translate(-46.198 -220.638)" fill="#fff"/>
    <path id="Path_957" data-name="Path 957" d="M51.977-160.871a1.861,1.861,0,0,0-.554.48l-.268.342-.028,2.041c-.018,1.977-.018,2.051.194,2.411a1.7,1.7,0,0,0,.573.573c.36.212.434.212,2.42.194,2.272-.028,2.309-.037,2.771-.72.2-.3.212-.379.212-2.355s-.009-2.06-.212-2.365a2.291,2.291,0,0,0-.517-.517c-.3-.2-.388-.212-2.309-.212A9.437,9.437,0,0,0,51.977-160.871Zm3.843,2.965v1.617H52.586v-3.233h3.233Z" transform="translate(-46.397 -318.578)" fill="#fff"/>
  </g>
</svg>
