<svg xmlns="http://www.w3.org/2000/svg" width="791.805" height="459.774" viewBox="0 0 791.805 459.774">
  <g id="banner" transform="translate(-143.94 -197.241)">
    <path id="Path_1896" data-name="Path 1896" d="M929.431,657.008c-45.283,0-704.947.15-705.327-.96l-.064-.138a.7.7,0,0,1-.064-.2c-.253-.551-101.639-154.845,55.978-262.255,61.67-42.017-3.861-69.763,45.18-116.547,56.359-53.766,117.869,5.711,180.554-18.667,11.073-4.3,22.185-11.23,33.294-21.862,25.95-24.775,61.661-36.053,97.736-38.576,70.026-4.869,148.833,22.518,189.5,62.551,8.189,8.061,45.42,49.771,16.071,107.1-18.529,36.194,59.1,70.749,86.685,112.1C999.108,584.632,930.065,655.637,929.431,657.008Z" transform="translate(-32.435)" fill="#eefdff"/>
    <path id="Path_1897" data-name="Path 1897" d="M733.72,447.157c8.323-18.833,40.542-7.626,40.542-7.626s17.255,37.824,23.69,39.645-8.439-35.215-8.439-35.215c12.876.714,42.834,21.212,42.834,21.212s-8.179,39.8-1.5,39.984,5.442-35.611,5.442-35.611c11.717,5.561,20.988,21.641,20.988,21.641,10.76,25.521-22.569,38.019-22.569,38.019s-2.539,13.855,3.617,31.133h0a47.956,47.956,0,0,1,2.7,8.554l-3.349-.512q-.2-1.409-.512-2.737v-.038c-.151-.554-.368-1.338-.64-2.3h0c-.717-2.158-1.181-3.742-1.453-4.879h0c-2.1-6.755-5.266-15.619-7.949-17.786a6.547,6.547,0,0,0,.96-1.425l-.96,1.425c-7.632,11.365-36.6,9.031-52.06,3.313s-7.814-9.153,1.9-15.149,27.429-1.312,33.188-3.365-1.578-6.1-12.348-6.915-17.719,9.021-35.16,8.032-25.61-35.33-25.61-35.33c11.307,5.5,33.595,2.2,35.038-1.764s-30.134-8.378-34.859-10.356S725.4,465.99,733.72,447.157Z" transform="translate(-398.357 -162.475)" fill="#dfebf9"/>
    <g id="Group_3646" data-name="Group 3646" transform="translate(272.895 418.456)" opacity="0.5">
      <g id="Group_3644" data-name="Group 3644" transform="translate(41.901 2.549)" opacity="0.5">
        <path id="Path_1898" data-name="Path 1898" d="M707.8,1002.833s5.586-61.062-17.351-103.1a6.808,6.808,0,0,0-12.645,2.017c-.019.106-.038.208-.058.32C675.872,912.773,700.487,964.859,707.8,1002.833Z" transform="translate(-677.643 -896.214)" fill="#aec3ff"/>
      </g>
      <g id="Group_3645" data-name="Group 3645" opacity="0.5">
        <path id="Path_1899" data-name="Path 1899" d="M618.888,1015.264s-14.537-80.907-59.455-124.893a7.211,7.211,0,0,0-9.966-.23c-1.812,1.719-3.1,4.728-2.6,9.969C548.218,914.073,596.744,970.484,618.888,1015.264Z" transform="translate(-546.758 -888.252)" fill="#aec3ff"/>
      </g>
    </g>
    <g id="Group_3649" data-name="Group 3649" transform="translate(593.655 390.449)" opacity="0.5">
      <g id="Group_3647" data-name="Group 3647" transform="translate(15.68)" opacity="0.5">
        <path id="Path_1900" data-name="Path 1900" d="M1597.7,890.893s47.751-66.908,107.821-89.515c7.984-3.006,15.331,5.717,11.076,13.125l-.218.371C1708.914,827.369,1638.35,858.732,1597.7,890.893Z" transform="translate(-1597.7 -800.769)" fill="#16becf"/>
      </g>
      <g id="Group_3648" data-name="Group 3648" transform="translate(0 33.348)" opacity="0.5">
        <path id="Path_1901" data-name="Path 1901" d="M1548.72,979.764s85.549-69.443,169.641-74.805a9.691,9.691,0,0,1,10.321,8.484c.336,3.329-.986,7.517-6.082,12.4C1709.007,938.842,1610.377,953.67,1548.72,979.764Z" transform="translate(-1548.72 -904.94)" fill="#16becf"/>
      </g>
    </g>
    <path id="Path_1902" data-name="Path 1902" d="M1223.271,971.594l-16.531,196.561s-1.732,11.915,7.129,11.934c14.572.035,72.529,0,72.529,0s-10.968-2.481-10.833-8.061c.157-6.579,19.32-202.288,19.32-202.288Z" transform="translate(-722.471 -525.198)" fill="#16becf"/>
    <path id="Path_1903" data-name="Path 1903" d="M1301.971,1168.685c-2.881,0-58.975.1-73.166-.08-6.185-.077-7.27-5.5-7.321-9.008a17.6,17.6,0,0,1,.189-2.926l.429-5.122,1.095-13.02.96-11.506,1.242-14.784,1.047-12.485,11.746-139.664,71.617-1.86s-8.07,81.9-13.766,141.524c-.64,6.643-1.242,13.013-1.806,18.958q-.272,2.846-.525,5.561c-.528,5.641-1.015,10.821-1.434,15.4-.221,2.411-.426,4.652-.611,6.7-.73,8.039-1.156,13.173-1.162,14.15a8.272,8.272,0,0,0,.141,1.6C1291.813,1168.4,1300.9,1168.685,1301.971,1168.685Z" transform="translate(-732.585 -517.372)" fill="#16becf"/>
    <path id="Path_1904" data-name="Path 1904" d="M715.39,641.16,755.656,802.9l5.513,22.153,18.753,75.333h348.419L1059.215,641.16Z" transform="translate(-388.511 -301.806)" fill="#16becf"/>
    <path id="Path_1905" data-name="Path 1905" d="M703.54,641.15l-5.58,1.863L760.655,906l7.417-5.625Z" transform="translate(-376.66 -301.8)" fill="#16becf"/>
    <path id="Path_1906" data-name="Path 1906" d="M893.8,1456.525h346.271l9.562-5.625H901.217Z" transform="translate(-509.806 -852.323)" fill="#16becf"/>
    <rect id="Rectangle_6369" data-name="Rectangle 6369" width="74.972" height="3.563" transform="translate(580.568 654.872) rotate(180)" fill="#aec3ff"/>
    <path id="Path_1907" data-name="Path 1907" d="M1297.743,1468.47l-.387,2.724-70.506,14.243.967-11.5.461-5.465Z" transform="translate(-736.236 -864.268)" fill="#16becf"/>
    <g id="Group_3650" data-name="Group 3650" transform="translate(488.898 629.022)" opacity="0.5">
      <path id="Path_1908" data-name="Path 1908" d="M1301.978,1568.291c-2.881,0-58.975.1-73.166-.08-6.185-.077-7.27-5.5-7.321-9.008l70.176-13.2c-.73,8.038-1.156,13.174-1.162,14.15a8.262,8.262,0,0,0,.141,1.6C1291.82,1568.006,1300.9,1568.291,1301.978,1568.291Z" transform="translate(-1221.49 -1546)" fill="#16becf"/>
    </g>
    <path id="Path_1909" data-name="Path 1909" d="M715.39,641.15h343.825L1115,849.485H767.255Z" transform="translate(-388.511 -301.8)" fill="#16becf"/>
    <path id="Path_1910" data-name="Path 1910" d="M1129.027,864.165H807.1l-11.5-45.827-4.453-17.732-1.815-7.232-11.823-47.095-.611-2.452-6.252-24.893-2.795-11.141-2.385-9.5-1.946-7.75L759.87,676.02h317.286l4,14.521,2.135,7.75,2.619,9.5,3.07,11.141,20.232,73.381v0l1.713,6.217.8,2.888,13.967,50.661Z" transform="translate(-418.751 -325.507)" fill="#fff"/>
    <path id="Path_1911" data-name="Path 1911" d="M1008.027,1291.93l-117.841,51.5-12.786-51.5Z" transform="translate(-498.656 -744.244)" fill="#16becf"/>
    <path id="Path_1912" data-name="Path 1912" d="M506.224,1011.494l-23.049-8c-3.742-1.3-8.147,1.6-9.841,6.479l-1.444,4.162,36.748,12.761,1.21-4.447C511.513,1017.673,509.886,1012.768,506.224,1011.494Z" transform="translate(-222.963 -547.933)" fill="#233862"/>
    <path id="Path_1913" data-name="Path 1913" d="M946.544,1164.344l-23.049-8c-3.742-1.3-8.147,1.6-9.841,6.48l-1.444,4.162,36.748,12.776,1.21-4.447C951.839,1170.535,950.21,1165.625,946.544,1164.344Z" transform="translate(-522.322 -651.85)" fill="#233862"/>
    <path id="Path_1914" data-name="Path 1914" d="M490.21,1217.164c-1.249-.282-23.168-4.29-28.837-25.371a165.743,165.743,0,0,1-4.126-23.312,29.3,29.3,0,0,0-19.528-24.282l-47.9-16.631a31.927,31.927,0,0,0-32.958,7.555,160.714,160.714,0,0,1-16.576,14.63c-17.511,13.033-37.2,2.593-38.355,2.039-11.2-5.369-13.887-18.67-8.154-28.9l50.677-90.46a21.189,21.189,0,0,1,4.456-5.538,9.924,9.924,0,0,1,9.812-1.9l18.933,6.579c1.185.413,4.12,1.418,5.554,2.907a68.137,68.137,0,0,0,27.262,17.927l64.619,22.438c7.552,2.622,8.464-.045,16.109-2.388h.029a8.554,8.554,0,0,1,5.279.151l28.655,9.95a7.968,7.968,0,0,1,5.048,5.218,21.168,21.168,0,0,1,.608,9.377l-16.3,102.388C512.68,1211.12,502.334,1219.9,490.21,1217.164Z" transform="translate(-99.881 -562.384)" fill="#091a4d"/>
    <ellipse id="Ellipse_82" data-name="Ellipse 82" cx="29.945" cy="29.625" rx="29.945" ry="29.625" transform="translate(226.035 527.927) rotate(-70.85)" fill="#16becf"/>
    <circle id="Ellipse_83" data-name="Ellipse 83" cx="15.072" cy="15.072" r="15.072" transform="translate(277.903 566.936) rotate(-70.85)" fill="#233862"/>
    <circle id="Ellipse_84" data-name="Ellipse 84" cx="9.793" cy="9.793" r="9.793" transform="translate(284.622 563.688) rotate(-70.85)" fill="#505aba"/>
    <circle id="Ellipse_85" data-name="Ellipse 85" cx="15.072" cy="15.072" r="15.072" transform="translate(317.918 580.835) rotate(-70.85)" fill="#233862"/>
    <circle id="Ellipse_86" data-name="Ellipse 86" cx="9.793" cy="9.793" r="9.793" transform="translate(324.636 577.58) rotate(-70.85)" fill="#505aba"/>
    <path id="Path_1915" data-name="Path 1915" d="M682.444,1148.849l-41.761-14.5a10.411,10.411,0,0,1-6.422-13.25l5.02-14.46,61.228,21.244-5.093,14.665A10.193,10.193,0,0,1,682.444,1148.849Z" transform="translate(-332.96 -618.271)" fill="#233862"/>
    <path id="Path_1916" data-name="Path 1916" d="M509.546,1105.5l10.219,3.547a4.7,4.7,0,0,1,.96,8.381l-8.387,5.414a2.881,2.881,0,0,1-4.319-1.5l-3.63-10.622A4.075,4.075,0,0,1,509.546,1105.5Z" transform="translate(-244.897 -617.341)" fill="#b6f8ff"/>
    <path id="Path_1917" data-name="Path 1917" d="M486.69,1194.095l-10.219-3.547a4.706,4.706,0,0,1-.96-8.381l8.387-5.414a2.881,2.881,0,0,1,4.319,1.5l3.63,10.622A4.082,4.082,0,0,1,486.69,1194.095Z" transform="translate(-223.962 -665.617)" fill="#b6f8ff"/>
    <path id="Path_1918" data-name="Path 1918" d="M548.456,1163.254l-3.592,10.318a4.646,4.646,0,0,1-8.324,1.012l-5.311-8.423a2.964,2.964,0,0,1,1.517-4.366l10.564-3.733a4.043,4.043,0,0,1,5.144,5.193Z" transform="translate(-262.998 -653.075)" fill="#b6f8ff"/>
    <path id="Path_1919" data-name="Path 1919" d="M451.557,1137.765l3.586-10.331a4.646,4.646,0,0,1,8.323-1.011l5.311,8.423a2.964,2.964,0,0,1-1.514,4.366l-10.564,3.733a4.043,4.043,0,0,1-5.141-5.18Z" transform="translate(-208.978 -630.255)" fill="#b6f8ff"/>
    <ellipse id="Ellipse_87" data-name="Ellipse 87" cx="29.945" cy="29.625" rx="29.945" ry="29.625" transform="translate(351.001 571.322) rotate(-70.85)" fill="#16becf"/>
    <circle id="Ellipse_88" data-name="Ellipse 88" cx="6.172" cy="6.172" r="6.172" transform="translate(386.85 543.02) rotate(-70.85)" fill="#92f5ff"/>
    <circle id="Ellipse_89" data-name="Ellipse 89" cx="6.172" cy="6.172" r="6.172" transform="translate(377.767 569.187) rotate(-70.85)" fill="#a8d29f"/>
    <circle id="Ellipse_90" data-name="Ellipse 90" cx="6.172" cy="6.172" r="6.172" transform="translate(395.49 560.688) rotate(-70.85)" fill="#739af0"/>
    <circle id="Ellipse_91" data-name="Ellipse 91" cx="6.172" cy="6.172" r="6.172" transform="matrix(0.363, -0.932, 0.932, 0.363, 369.183, 551.309)" fill="#233862"/>
    <path id="Path_1920" data-name="Path 1920" d="M1432.586,1131.26a10.059,10.059,0,0,0-9.758,12.485l21.526,86.464,3.374,13.551,9.575,38.461a10.059,10.059,0,0,0,9.758,7.629h192.2a10.056,10.056,0,0,0,9.716-12.649l-36.927-138.473a10.058,10.058,0,0,0-9.719-7.465Z" transform="translate(-869.274 -635.01)" fill="#091a4d"/>
    <path id="Path_1921" data-name="Path 1921" d="M1454.474,1131.26a10.056,10.056,0,0,0-9.758,12.485l21.526,86.464,3.374,13.551,9.562,38.464a10.056,10.056,0,0,0,9.758,7.629h192.207a10.055,10.055,0,0,0,9.716-12.648l-36.924-138.476a10.055,10.055,0,0,0-9.716-7.466Z" transform="translate(-884.154 -635.01)" fill="#16becf"/>
    <path id="Path_1922" data-name="Path 1922" d="M1690.12,1294.456h-180.3a9.415,9.415,0,0,1-9.156-7.072l-8.98-35.663-3.169-12.572-8.432-33.479-11.759-46.695a9.349,9.349,0,0,1,9.156-11.576h177.993a9.412,9.412,0,0,1,9.114,6.915l34.638,128.4A9.344,9.344,0,0,1,1690.12,1294.456Z" transform="translate(-900.215 -645.983)" fill="#fff"/>
    <path id="Path_1923" data-name="Path 1923" d="M566.53,1555.179h30.361c1.626-1.38-1.127-4.514-4-4.725a17.826,17.826,0,0,0-4.635.548c-.416-5.551-2.8-30.5-11.8-29.494-10.11,1.12,0,10.987,2.859,16.826a140.385,140.385,0,0,1,5.372,13.446c-.819.179-1.671.352-2.539.512-1.341-4.114-6.326-17.956-12.668-17.15-7.446.944-4.453,6.5.826,9.79,3.87,2.423,8.628,5.865,10.884,7.529a32.228,32.228,0,0,1-5.938.477C570.051,1552.819,567.513,1554.353,566.53,1555.179Z" transform="translate(-286.278 -900.306)" fill="#b8edf3"/>
    <g id="girl_2" data-name="girl 2" transform="translate(665.513 523.361)">
      <path id="Path_1924" data-name="Path 1924" d="M1970.743,1216.541a16.146,16.146,0,0,0-16.093,4.594c-9.924,10.763-2.6,19.057-7.562,26.59-3,4.552-5.513,12.524,3.771,17.239,4.293,2.18,17.079,13.574,19.7,13.843,26.533,2.724,27.01-24.192,18.065-31.994C1976.051,1235.851,1987.534,1221.439,1970.743,1216.541Z" transform="translate(-1889.559 -1215.948)" fill="#233862"/>
      <path id="Path_1925" data-name="Path 1925" d="M1852.558,1347.79s-24.215,11.73-28.751,11.525-32.887-10.18-32.887-10.18l.711,4.8s21.571,12.405,29.109,13.109c7.424.691,32.81-6.662,35.259-8.218S1859.681,1349.362,1852.558,1347.79Z" transform="translate(-1785.242 -1305.583)" fill="#ed985f"/>
      <path id="Path_1926" data-name="Path 1926" d="M1975.14,1326.689a24.012,24.012,0,0,0,8.4,3.576c12.949,2.993,17.911-7.952,19.775-15.466a11.124,11.124,0,0,0-4.386-1.348c-.935-.109-1.921-.182-2.734-.224-1.453-1.114-3.621-5.673-4.1-12.748l-.608.163-10.206,2.791s.467,3.243.7,6.31c.176,2.4.2,4.693-.25,5.253-.8.173-1.281.285-1.281.285h0a65.733,65.733,0,0,0-5.308,11.406Z" transform="translate(-1910.487 -1273.419)" fill="#ffb27d"/>
      <path id="Path_1927" data-name="Path 1927" d="M1994.31,1303.791s.471,3.243.7,6.31c5.781-.579,8.464-6.083,9.508-9.1Z" transform="translate(-1923.52 -1273.772)" fill="#ed985f"/>
      <path id="Path_1928" data-name="Path 1928" d="M1976.785,1269.225s13.724-.759,13.126-9.284.762-14.387-8.026-14.265-10.244,3.5-10.75,6.4S1973.2,1269.2,1976.785,1269.225Z" transform="translate(-1907.721 -1236.158)" fill="#ffb27d"/>
      <path id="Path_1929" data-name="Path 1929" d="M1968.891,1243.526c1.921-2.721,3.576-2.273,4.53-1.562a9.606,9.606,0,0,1,12.46,1.085,16.352,16.352,0,0,0,6.025,9.252s-2.433,1.946-8.253.64a14.575,14.575,0,0,1-10.353-9.1,8.634,8.634,0,0,0-2.561,3.089,13.5,13.5,0,0,0-1.517,6.723C1969.218,1253.68,1965.991,1247.6,1968.891,1243.526Z" transform="translate(-1905.417 -1232.398)" fill="#233862"/>
      <path id="Path_1930" data-name="Path 1930" d="M1989.955,1378.6c1.239-6.335,5.279-31.645,1.239-39.792-1.45-2.926-7.145-3.2-13.394-2.932-1.943,1.255-9.351,6-12.4,5.407l-.17-.038c-1.434-.359-1.975-1.364-.778-2.241a21.109,21.109,0,0,0-6.585.915,30.241,30.241,0,0,0-8.131,4.069,17.779,17.779,0,0,0,7.043,6.044c-.74,6.611.362,9.53,7.219,24.8,5.8,12.911-.781,24.532-.781,24.532s34.123,27.435,34.312,13.468C1997.683,1402.327,1988.37,1386.7,1989.955,1378.6Z" transform="translate(-1893.219 -1297.432)" fill="#739af0"/>
      <path id="Path_1931" data-name="Path 1931" d="M1918.808,1468.2a6.345,6.345,0,0,1-4.565-2.779l-.528-.794c-3.883-5.881-5.394-23.888-14.131-43.071-2.129-4.671-9.767-5.509-11.845-10.792,0,0-5.122-17.111,9.812-17.607s40.016,47.613,40.4,52.662C1938.336,1450.7,1947.828,1471.479,1918.808,1468.2Z" transform="translate(-1850.49 -1336.427)" fill="#94b0ed"/>
      <path id="Path_1932" data-name="Path 1932" d="M1801.11,1603.209h21.263s.794-3.483-.6-5.852c-1.236-2.1-.762-3.291.154-5.026a8.082,8.082,0,0,1-3.582.691,7.387,7.387,0,0,1-3.163-1.143,77.685,77.685,0,0,1-6.057,6.534C1807.734,1599.445,1801.539,1599.077,1801.11,1603.209Z" transform="translate(-1792.17 -1471.532)" fill="#0a2035"/>
      <path id="Path_1933" data-name="Path 1933" d="M1854.851,1396.644c-1.281,9.6-6.281,39.895-15.1,54.675-2.843,4.767,7.164,7.437,7.219,7.424,1.341-.352,3.579-2.491,4.61-3.419,7.161-6.454,21.7-24.727,21.7-39.376,0-7.142.125-20.786-5.068-24.253C1865.009,1389.56,1855.36,1392.835,1854.851,1396.644Z" transform="translate(-1818.095 -1334.973)" fill="#94b0ed"/>
      <path id="Path_1934" data-name="Path 1934" d="M1995.533,1373.309s-4.315,8.778-24.458,14.982-8.621-9.38-8.621-9.38l28.172-9.841Z" transform="translate(-1899.632 -1320.051)" fill="#5a7de0"/>
      <path id="Path_1935" data-name="Path 1935" d="M1956.123,1465.888a15.651,15.651,0,0,1-1.761-4.014c-1.143-4.011-1.55-6.931-3.746-13.18-2.308-6.56-5.042-14.627-8.461-23.024-1.053-2.59-2.174-5.215-3.368-7.834-2.129-4.671-7.981-4.024-10.065-9.306,0,0-8.128-18.3,6.813-18.808s43.326,48.961,44.959,53.753C1982.287,1448.713,1988.7,1470.91,1956.123,1465.888Z" transform="translate(-1877.429 -1334.089)" fill="#aec3ff"/>
      <path id="Path_1936" data-name="Path 1936" d="M1849.87,1603.209h21.263s.794-3.483-.6-5.852c-1.236-2.1-.762-3.291.154-5.026a8.081,8.081,0,0,1-3.582.691,7.387,7.387,0,0,1-3.163-1.143,77.706,77.706,0,0,1-6.057,6.534C1856.493,1599.445,1850.3,1599.077,1849.87,1603.209Z" transform="translate(-1825.32 -1471.532)" fill="#0d2644"/>
      <g id="Group_3651" data-name="Group 3651" transform="translate(64.733 77.412)" opacity="0.5">
        <path id="Path_1937" data-name="Path 1937" d="M1983.851,1494.953c-2.308-6.559-5.042-14.627-8.461-23.024.893-6.361,2.82-11.925,6.057-14.169C1981.447,1457.76,1989.306,1482.1,1983.851,1494.953Z" transform="translate(-1975.39 -1457.76)" fill="#94b0ed"/>
      </g>
      <path id="Path_1938" data-name="Path 1938" d="M1900.423,1396.769c-1.281,9.6-3.083,40.577-11.9,55.357-2.843,4.767,7.165,7.437,7.219,7.424,1.341-.352,3.579-2.491,4.61-3.419,7.161-6.454,21.7-24.727,21.7-39.376,0-7.142-8.384-20.213-13.577-23.69A5.231,5.231,0,0,0,1900.423,1396.769Z" transform="translate(-1851.252 -1335.777)" fill="#aec3ff"/>
      <path id="Path_1939" data-name="Path 1939" d="M1780.315,1308.438l21.769-2.315a1.405,1.405,0,0,1,1.463.9l7.792,20.472a1.405,1.405,0,0,1-1.258,1.9l-21.609.871a1.405,1.405,0,0,1-1.354-.861l-7.958-19.032a1.406,1.406,0,0,1,1.156-1.94Z" transform="translate(-1777.172 -1277.25)" fill="#505aba"/>
      <path id="Path_1940" data-name="Path 1940" d="M1774.434,1309.074l21.769-2.311a1.406,1.406,0,0,1,1.463.9l7.792,20.472a1.405,1.405,0,0,1-1.258,1.921l-21.609.871a1.406,1.406,0,0,1-1.354-.861l-7.952-19.067a1.405,1.405,0,0,1,1.149-1.921Z" transform="translate(-1773.184 -1277.685)" fill="#233862"/>
      <path id="Path_1941" data-name="Path 1941" d="M1814.609,1341.042a.9.9,0,0,1,.842-1.322,2.093,2.093,0,0,1,1.805,1.322.9.9,0,0,1-.842,1.322,2.093,2.093,0,0,1-1.806-1.322Z" transform="translate(-1801.29 -1300.097)" fill="#ebf3fa"/>
      <path id="Path_1942" data-name="Path 1942" d="M1779.025,1318.639a.439.439,0,0,1,.413-.64,1.031,1.031,0,0,1,.887.64.442.442,0,0,1-.413.64A1.027,1.027,0,0,1,1779.025,1318.639Z" transform="translate(-1777.121 -1285.328)" fill="#ebf3fa"/>
      <path id="Path_1943" data-name="Path 1943" d="M1926.816,1345.21s-30.179,11.115-34.715,10.885c-2.932-.147-27.294-8.711-27.294-8.711l-2.187,4.136s23.712,15.241,30.23,15.165c12.869-.147,34.574-8.048,37.036-9.6S1933.939,1346.782,1926.816,1345.21Z" transform="translate(-1833.988 -1303.829)" fill="#ffb27d"/>
      <path id="Path_1944" data-name="Path 1944" d="M1836.216,1344.634s-2.187-3.365-4.363-3.464-5.938,1.485-7.225,1.732-4.949,1.434-3.861,3.2,6.137,2.177,8.323,1.783a10.089,10.089,0,0,1,4.949.871Z" transform="translate(-1805.398 -1301.08)" fill="#ffb27d"/>
      <path id="Path_1945" data-name="Path 1945" d="M1846.651,1337.281s-3.464-1.6-4.453-1.885-.791,0-.493.941,2.078,1.834,2.078,2.129S1846.651,1337.281,1846.651,1337.281Z" transform="translate(-1819.604 -1297.085)" fill="#ffb27d"/>
      <path id="Path_1946" data-name="Path 1946" d="M1783.906,1339.22s1.383-4.552,2.9-3.121c1.578,1.489.621,2.977.429,4.876-.371,3.63-1.1,3.473-1.569,3.31S1783.39,1341.048,1783.906,1339.22Z" transform="translate(-1780.411 -1297.446)" fill="#ffb27d"/>
      <path id="Path_1947" data-name="Path 1947" d="M1783.728,1348.61a5.782,5.782,0,0,0,2.98,5.9l-1.088-2.667Z" transform="translate(-1780.316 -1306.141)" fill="#ffb27d"/>
      <path id="Path_1948" data-name="Path 1948" d="M1980.89,1303.244s1.3-.512,4.949-.218c0,0-.2,1.425-2.881,1.565A2.156,2.156,0,0,1,1980.89,1303.244Z" transform="translate(-1914.396 -1275.087)" fill="#fff"/>
      <path id="Path_1949" data-name="Path 1949" d="M2014.58,1349.209a16.589,16.589,0,0,0,11.979,10.488s15.309-4.716,7.683-15.146C2034.242,1344.551,2026.7,1338.952,2014.58,1349.209Z" transform="translate(-1937.301 -1302.344)" fill="#739af0"/>
      <path id="Path_1950" data-name="Path 1950" d="M1782.392,1344.128s-.64-2.132-.672-2.5,0-.554.336-.295a1.784,1.784,0,0,1,.682,1.6A10.468,10.468,0,0,1,1782.392,1344.128Z" transform="translate(-1778.98 -1301.111)" fill="#ffb27d"/>
    </g>
    <path id="Path_1951" data-name="Path 1951" d="M1480.58,1000.5c-2.561,1.383-5.948,1.383-7.859,1.985a3.428,3.428,0,0,0-2.164,2.423l-1.133-3.973-.813-1.2a41.163,41.163,0,0,0,2.241-3.947,4.171,4.171,0,0,1,2.561-2.391c1.121-.282,3.1-1.6,3.342-1.306.6.743-2.561,2.209-2.631,2.92a.7.7,0,0,0,.477.829h.016c2.753.865,9.284-1.741,9.8-.173C1484.575,996.261,1481.655,999.91,1480.58,1000.5Z" transform="translate(-900.601 -540.363)" fill="#ffb27d"/>
    <path id="Path_1952" data-name="Path 1952" d="M1356.3,985.289s-11.64,28.6-24.919,30.7a10.363,10.363,0,0,1-5.269-.714h0c-6.006-2.266-12.719-8.925-18.187-15.414A158.557,158.557,0,0,1,1296.95,985.1s1.78-21.545,6.236-19.166c9.348,4.991,20.489,28.69,26.971,33.656l21.183-18.219A8.173,8.173,0,0,1,1356.3,985.289Z" transform="translate(-783.895 -522.483)" fill="#9b73fe"/>
    <path id="Path_1953" data-name="Path 1953" d="M1349.376,1051.934c-6.006-2.267-12.719-8.925-18.187-15.415.083-10.487.531-21.375,1.316-14.912C1333.869,1032.88,1349.146,1051.64,1349.376,1051.934Z" transform="translate(-807.173 -559.141)" fill="#9b73fe"/>
    <path id="Path_1954" data-name="Path 1954" d="M1106.359,1581.127h-11.022a6.37,6.37,0,0,1-3.016-4.831c-.538-3.4-4.517-5.25-5.378-8.029s3.55-6.687,3.55-6.687l.736-.909.768-.96,7.315,1.649s.182,1.668.291,3.79a46.336,46.336,0,0,1,.032,4.853c-.214,3.7,1.082,7.683,4.523,8.416C1106.7,1578.966,1106.593,1580.41,1106.359,1581.127Z" transform="translate(-641.042 -926.299)" fill="#182b49"/>
    <path id="Path_1955" data-name="Path 1955" d="M1292.371,1600.421h-25.2c-1.213-1.415-.765-6.64-.583-8.343.038-.343.064-.544.064-.544s8.608-6.588,9.79-1.543c.035.16.08.32.128.467,1.489,4.719,8.17,6.86,12.027,7.459C1291.1,1598.3,1292.029,1599.55,1292.371,1600.421Z" transform="translate(-763.092 -945.593)" fill="#182b49"/>
    <path id="Path_1956" data-name="Path 1956" d="M1255.084,1201.528s-1.306,15.6-2.843,34.357c-2.087,25.476-4.6,56.769-4.847,62.7-.429,10.3-2.151,26.76-2.151,26.76s-4.085,3.912-12.264,2.263c0,0-7.286-23.507-9.367-48.375l-.1-1.229c-1.921-25.319-4.946-78.631-4.946-78.631Z" transform="translate(-730.607 -681.315)" fill="#2b478b"/>
    <path id="Path_1957" data-name="Path 1957" d="M1255.084,1201.521s-1.306,15.6-2.843,34.357l-28.629,43.343-.1-1.229c-1.921-25.319-4.946-78.631-4.946-78.631Z" transform="translate(-730.607 -681.309)" fill="#233862"/>
    <path id="Path_1958" data-name="Path 1958" d="M1167.325,1190.233s-23.555,56.5-39.056,83.055-20.328,33.963-20.328,33.963-8.874-3.4-9.681-5.711c0,0,5.922-51.263,16.295-63.757,5.862-7.062,12.748-28.252,13.068-35.663s2.1-22.089,2.1-22.089Z" transform="translate(-648.812 -668.167)" fill="#2b478b"/>
    <path id="Path_1959" data-name="Path 1959" d="M1237.165,1027.544c-.429,5.666-1.626,9.722-4.251,9.722a88.2,88.2,0,0,1-25.611,4.219,64.58,64.58,0,0,1-9.79-1.047c-3.268-.557-5.859-1.114-5.859-1.114-2.8-.64-5.9-2.379-5.484-5.573.221-1.7.378-3.886.487-6.4a3.645,3.645,0,0,1,.022-.49c.211-5.161.256-11.682.272-18.462,0-2.952,0-5.954.019-8.912,0-2.823.032-5.606.074-8.272.042-3.006.106-5.871.215-8.477,0,0-2.561-17.521.49-20.69,3.582-3.71,14.047-7.1,21.686-6.812,15.927,0,18.977,3.643,21.769,6.595a26.057,26.057,0,0,1,4.917,14.1c.144,9.553-.23,20.4-.23,20.4.1,1.553.269,3.55.452,5.836.2,2.43.413,5.18.592,8.045.093,1.444.173,2.916.243,4.389A110.18,110.18,0,0,1,1237.165,1027.544Z" transform="translate(-708.554 -515.323)" fill="#9b73fe"/>
    <path id="Path_1960" data-name="Path 1960" d="M1247.7,938.337c-4.37,3.521-11.758.829-14.223-.227a1.28,1.28,0,0,1-.765-1.242,29.373,29.373,0,0,0-1.258-9.889,6.231,6.231,0,0,1,2.215.029c4.037.32,12.207,1.351,12.568,1.4h0s.378,1.825,1.2,5.074c.07.285.147.586.23.893.1.381.2.784.32,1.2a12.194,12.194,0,0,1,.272,1.37A1.524,1.524,0,0,1,1247.7,938.337Z" transform="translate(-739.368 -496.078)" fill="#ffb27d"/>
    <path id="Path_1961" data-name="Path 1961" d="M1248.293,933.7c-5.612,2.222-15.6-5.036-15.6-5.036a9.255,9.255,0,0,1,1.815-1.431c4.037.32,12.207,1.351,12.568,1.4h0S1247.467,930.447,1248.293,933.7Z" transform="translate(-740.207 -496.296)" fill="#ed975d"/>
    <path id="Path_1962" data-name="Path 1962" d="M1234.7,880.7a29.927,29.927,0,0,1-5.247,2.1c-4.367,1.281-10.283,1.825-12.949-3.288-4.482-8.605-9.284-13.446-.724-18.545,4.584-2.731,7.683-3.317,9.924-2.881a7.412,7.412,0,0,1,4.251,2.676C1232.156,863.264,1238.146,878.537,1234.7,880.7Z" transform="translate(-725.488 -449.198)" fill="#ffb27d"/>
    <path id="Path_1963" data-name="Path 1963" d="M1212.226,849.315c-2.046,1.562-4.988,2.436-5.993,3.083a3.867,3.867,0,0,0-1.511,2.241,11.331,11.331,0,0,0-.285,4.213c.144,1.22.141,2.263-3.054,2.011a2.608,2.608,0,0,0-.426,0,1.183,1.183,0,0,0-.682.237c-1.162.96,1.034,4.379,1.649,5.1a5.858,5.858,0,0,1,.41,1.706,3.07,3.07,0,0,1-.64,2.315l-.026.029c-.122.134-1.729,1.165-6.262-2.439-.743-.589-1.565-1.3-2.468-2.167-1.057-1-2.222-2.209-3.521-3.653a10.691,10.691,0,0,1-1.963-9.633,16.752,16.752,0,0,1,12.77-10.849c5.308-.813,5.974.928,10.516.874C1213.884,842.333,1215.757,846.622,1212.226,849.315Z" transform="translate(-709.171 -437.871)" fill="#b5453c"/>
    <path id="Path_1964" data-name="Path 1964" d="M1271.744,910.64s.371,1.146-2.219,2.5c0,0-2.174,1.14-2.776,0A7.845,7.845,0,0,1,1271.744,910.64Z" transform="translate(-763.363 -485.017)" fill="#fff"/>
    <path id="Path_1965" data-name="Path 1965" d="M1199.511,1050.56c-.138.269-7.347,14.086-10.8,22.64,0-2.952,0-5.954.019-8.913,0-2.823.032-5.605.073-8.272Z" transform="translate(-710.306 -580.144)" fill="#9b73fe"/>
    <path id="Path_1966" data-name="Path 1966" d="M1096.746,1194.376s-1.757,2.34-1.825,3.275c-.471,6.335,2.423,7.213-5.071,10.731,0,0-3.2,1.22-3.253-1.264s2.222-2.526,1.806-6c-.48-4.011-.432-4.05,2.2-6.143l1.745-2.881Z" transform="translate(-640.883 -676.366)" fill="#ffb27d"/>
    <path id="Path_1967" data-name="Path 1967" d="M1109.338,1207.93s1.69,1.764,1.8,2.5c.343,2.353,1.13,3.371.733,3.627-.82.531-1.9-1.21-2.42-2.776A7.148,7.148,0,0,1,1109.338,1207.93Z" transform="translate(-656.243 -687.135)" fill="#ffb27d"/>
    <path id="Path_1968" data-name="Path 1968" d="M1095.493,1042.869a22.984,22.984,0,0,0,5.26.295s7.491-23.142,8.455-25.258,27.448-26.8,27.448-26.8-2.331-26.3-8.7-23.872c-11.845,4.507-28.389,39.8-30.733,45.206-3.864,8.932-5.205,28.953-5.205,28.953A9.633,9.633,0,0,0,1095.493,1042.869Z" transform="translate(-644.569 -523.387)" fill="#9b73fe"/>
    <path id="Path_1969" data-name="Path 1969" d="M1211.2,912.044l-3.3,1.386c-.743-.589-1.566-1.3-2.468-2.167l3.912-2.843Z" transform="translate(-721.673 -483.508)" fill="#060633"/>
    <path id="Path_1970" data-name="Path 1970" d="M1237.407,878.9l-14.524,7.661a3.922,3.922,0,0,1-1.774.445h-.256a2.831,2.831,0,0,1-2.379-1.633l-1.854-3.621a3.746,3.746,0,0,1-.035-3.624h0a2.289,2.289,0,0,1,.871-.819l14.963-7.885c1.175-.618,2.776.093,3.56,1.578l2.145,4.066C1238.9,876.562,1238.582,878.284,1237.407,878.9Z" transform="translate(-728.952 -456.846)" fill="#aec3ff"/>
    <path id="Path_1971" data-name="Path 1971" d="M1249.418,871.61l-3.361,1.77-2.087,1.1-2.507,1.322-6.364,3.355-1.681.887a2.071,2.071,0,0,1-2.792-.864l-3.07-5.82a2.071,2.071,0,0,1,.864-2.792l7.52-3.966,3.483-1.838,2.327-1.226,2.667-1.409a2.078,2.078,0,0,1,2.792.864l3.07,5.82a2.075,2.075,0,0,1-.861,2.795Z" transform="translate(-736.555 -451.878)" fill="#060633"/>
    <g id="Group_3652" data-name="Group 3652" transform="translate(490.764 414.729)" opacity="0.4">
      <path id="Path_1972" data-name="Path 1972" d="M1235.941,876.61c-.208,2.337-.583,8.279-.842,12.556l-1.681.887a2.071,2.071,0,0,1-2.792-.864l-3.07-5.82a2.071,2.071,0,0,1,.864-2.792Z" transform="translate(-1227.319 -876.61)" fill="#4545af"/>
    </g>
    <g id="Group_3653" data-name="Group 3653" transform="translate(501.563 411.665)" opacity="0.8">
      <path id="Path_1973" data-name="Path 1973" d="M1264.683,867.04,1264.4,879.3l-3.345,1.764,1.306-12.8Z" transform="translate(-1261.05 -867.04)" fill="#4545af"/>
    </g>
    <path id="Path_1974" data-name="Path 1974" d="M1288.837,871.749l-3.361,1.77L1285.3,862.1a2.062,2.062,0,0,1,1.329,1.037l3.07,5.82A2.074,2.074,0,0,1,1288.837,871.749Z" transform="translate(-775.974 -452.017)" fill="#4545af"/>
    <path id="Path_1975" data-name="Path 1975" d="M1488.651,741.568a1.921,1.921,0,0,0-.343,2.049h0c.493,1.367,2.126,2.881,4.024,4.415.243.2.458.375.64.538l.144.131.112.1c1.771,1.629,1.1,2,4.28,5.311,3.624,3.771,6.118,3.842,6.828,3.493.6-.291-.621-2.292-1.972-4.539l-.2-.32c-.179-.3-.359-.6-.538-.9-1.585-2.705-1.178-3.973-.8-8,.32-3.272,5.087-18.273,5.087-18.273l-6.928-1.185s-2.09,11.944-4.4,13.785c-1.233.98-2.612.992-3.793,1.719l-.247.157A9.1,9.1,0,0,0,1488.651,741.568Z" transform="translate(-913.888 -358.385)" fill="#ffb27d"/>
    <path id="Path_1976" data-name="Path 1976" d="M1488.651,774.793a1.921,1.921,0,0,0-.343,2.049h0c.605,1.364,2.2,2.881,4.031,4.4.24.2.452.381.64.554l.144.131.112.1c1.77,1.629,1.1,2,4.28,5.311,3.624,3.771,6.118,3.842,6.828,3.493.6-.291-.621-2.292-1.972-4.539a15.432,15.432,0,0,1-6.457-4.76c-2.1-2.683-3.522-6.1-4.959-8.2l-.406-.077A9.1,9.1,0,0,0,1488.651,774.793Z" transform="translate(-913.888 -391.61)" fill="#233862"/>
    <path id="Path_1977" data-name="Path 1977" d="M1652.808,732.763c.429,2.142,3.483,1.786,6.9.96s2.6.157,7.459-.381,6.329-2.35,6.476-3.07c.131-.64-2.267-.868-4.84-1.162l-.96-.115c-2.907-.365-5.036-2.241-7.683-3.781-2.5-1.46-6.233-7.4-6.233-7.4l-6.662.528s3.5,5.311,4.847,7.619a7.941,7.941,0,0,1,.64,4.539A8.553,8.553,0,0,0,1652.808,732.763Z" transform="translate(-1022.059 -353.918)" fill="#ffb27d"/>
    <path id="Path_1978" data-name="Path 1978" d="M1671.258,757.7c3.413-.836,2.6.157,7.459-.381s6.329-2.35,6.476-3.07c.131-.64-2.267-.868-4.84-1.162l-.026.048a13.688,13.688,0,0,1-6.956,2.161c-3.294.08-6.787-.864-9.063-.826a8.551,8.551,0,0,0,.051,2.279C1664.791,758.894,1667.845,758.535,1671.258,757.7Z" transform="translate(-1033.614 -377.904)" fill="#233862"/>
    <path id="Path_1979" data-name="Path 1979" d="M1536.345,608.793l-6.226,16.756-8.128,21.881a13.164,13.164,0,0,1-4.318-.394A18.48,18.48,0,0,1,1513.51,645s2.257-23.491,6.47-36.978c1.079-3.461,2.289-6.262,3.624-7.837C1530.112,592.47,1536.345,608.793,1536.345,608.793Z" transform="translate(-931.127 -272.542)" fill="#d86036"/>
    <path id="Path_1980" data-name="Path 1980" d="M1437.185,541.235c-3.544-1.143-12.805-.019-22.826,1.8a6.806,6.806,0,0,1-7.027-3.173h0L1382.1,537.89s-8.323,18.475-3.771,30.246a4.428,4.428,0,0,0,4.411,2.846h0S1398,571,1402.877,571c12.556,0,26.571-8.644,28.386-8.992,2.968-.592,4.162,5.343,7.123,11.576s27.9,27.6,27.9,27.6a21.826,21.826,0,0,0,5.413-.557,5.347,5.347,0,0,0,2.324-1.466S1446.383,544.2,1437.185,541.235Z" transform="translate(-838.296 -231.597)" fill="#f77d48"/>
    <path id="Path_1981" data-name="Path 1981" d="M1376.147,309.284a8.964,8.964,0,0,0-4.821-1.255,13.4,13.4,0,0,1-2.327-.141c-9.636-1.412-15.44,12.584-15.779,16.813-.624,7.763-4.731,8.964-10.513,13.81-11.592,9.751-8.192,21.081-1.853,25.29,3.8,2.526,10.507,0,10.507,0,.1.067,18.334-10.2,27.323-15.145C1392.16,346.736,1381.56,312.508,1376.147,309.284Z" transform="translate(-809.793 -75.158)" fill="#152949"/>
    <path id="Path_1982" data-name="Path 1982" d="M1421.688,392.257c.042.026-4.424,1.549-7.408.227-2.808-1.242-4.933-5.858-4.892-5.862,1.28-.058,2.679-1.175,3.758-8.5l.544.2,9.146,3.288s-.663,2.932-1.092,5.727C1421.384,389.677,1421.189,391.924,1421.688,392.257Z" transform="translate(-860.338 -122.974)" fill="#ffb27d"/>
    <path id="Path_1983" data-name="Path 1983" d="M1431.983,382.011s-.365,1.585-.9,4.539a10.343,10.343,0,0,1-8.247-7.83Z" transform="translate(-869.483 -123.382)" fill="#ed975d"/>
    <path id="Path_1984" data-name="Path 1984" d="M1431.393,351.365s-12.511-1.677-11.345-9.453.32-13.228,8.371-12.485,9.14,3.941,9.383,6.633S1434.677,351.6,1431.393,351.365Z" transform="translate(-867.532 -89.823)" fill="#ffb27d"/>
    <path id="Path_1985" data-name="Path 1985" d="M1429.746,330.355s-8,6.9-13.445,7.459-7.51-1.191-7.51-1.191a21.27,21.27,0,0,0,5.145-6.969,3.842,3.842,0,0,1,3.156-2.257C1420.971,327.052,1428.344,326.9,1429.746,330.355Z" transform="translate(-859.931 -88.373)" fill="#152949"/>
    <path id="Path_1986" data-name="Path 1986" d="M1458.61,331.836a19.679,19.679,0,0,1,3.521,4.511,15.143,15.143,0,0,1,.41,8.051s4.162-8.115,1.812-12.059C1461.85,328.171,1458.61,331.836,1458.61,331.836Z" transform="translate(-893.802 -90.494)" fill="#152949"/>
    <path id="Path_1987" data-name="Path 1987" d="M1409.407,428.1c-.378,25.322-.106,20.031-2.881,22.435-.669.579-2.545.922-5.013,1.085-7.766.515-21.417-.765-21.935-2.2-1.793-4.965-.528-6.508-2.02-14.111-.157-.81-.349-1.684-.576-2.638-1.245-5.221-2.459-7,1.962-15.386,4.008-7.6,8.173-13.766,8.547-13.542,10.564,6.278,11.429,1,11.429,1S1409.593,415.752,1409.407,428.1Z" transform="translate(-837.521 -140.393)" fill="#739af0"/>
    <path id="Path_1988" data-name="Path 1988" d="M1530.119,646.594l-8.128,21.881a13.169,13.169,0,0,1-4.318-.394,18.481,18.481,0,0,1-4.162-2.033s2.257-23.491,6.47-36.979Z" transform="translate(-931.127 -293.587)" fill="#f77d48"/>
    <path id="Path_1989" data-name="Path 1989" d="M1448,406.9s10.885,1.844,12.165,6.531,5.484,33.124,5.484,33.124-3.067,3-5.625.442-8.051-26.619-8.051-26.619Z" transform="translate(-886.589 -142.541)" fill="#739af0"/>
    <path id="Path_1990" data-name="Path 1990" d="M1405.205,496.286c-7.766.515-21.417-.765-21.935-2.2-1.793-4.965-.528-6.508-2.02-14.111L1385,469.43s-.618,11.746,2.843,14.832,14.179,5.964,15.863,8.544A9.441,9.441,0,0,1,1405.205,496.286Z" transform="translate(-841.208 -185.053)" fill="#5a7de0"/>
    <path id="Path_1991" data-name="Path 1991" d="M1428.29,535.369s7.661-1.706,8.9-1.028,4.258,3.156,4.635,4.018-2.753-.64-3.771-.928c-.66-.176-2.395.426-3.253.714a10.832,10.832,0,0,1-5.829.586Z" transform="translate(-873.188 -229.075)" fill="#ffb27d"/>
    <path id="Path_1992" data-name="Path 1992" d="M1359.57,403.75s-10.286.64-13.846,5.6c-5.013,6.992-14.957,36.786-9.258,40.759,6.4,4.482,29.209,1.172,29.209,1.172s.759-3.544-.3-5.26-18.2-4.482-19-5.276,9.892-15.434,9.892-17.809S1359.57,403.75,1359.57,403.75Z" transform="translate(-809.597 -140.399)" fill="#739af0"/>
    <path id="Path_1993" data-name="Path 1993" d="M1457.24,541.34a14.54,14.54,0,0,0,2.132,2.318,1.566,1.566,0,0,0,.868.186l-1.082-1.946Z" transform="translate(-892.871 -233.942)" fill="#ffb27d"/>
    <path id="Path_1994" data-name="Path 1994" d="M1456.08,534.68l4.667,2.267a.833.833,0,0,1-.772.3,11.082,11.082,0,0,1-2.023-.557Z" transform="translate(-892.082 -229.414)" fill="#ffb27d"/>
    <path id="Path_1995" data-name="Path 1995" d="M1477.04,551.32h-48.75V552.4H1476.6Z" transform="translate(-873.188 -240.727)" fill="#152949"/>
    <path id="Path_1996" data-name="Path 1996" d="M1463.9,496.035h36.914l11.105-27.615h-36.857Z" transform="translate(-897.399 -184.366)" fill="#152949"/>
    <path id="Path_1997" data-name="Path 1997" d="M1542.493,507.818a1.281,1.281,0,0,0-1.255-1.758,2.52,2.52,0,0,0-2.26,1.758,1.281,1.281,0,0,0,1.255,1.758A2.52,2.52,0,0,0,1542.493,507.818Z" transform="translate(-948.393 -209.956)" fill="#ebf3fa"/>
    <path id="Path_1998" data-name="Path 1998" d="M2200.867,1088.53c0-.138,2.033-4.341,1.386-4.664s-1.805-.275-1.94.461A25.733,25.733,0,0,0,2200.867,1088.53Z" transform="translate(-1398.051 -602.659)" fill="#ffb27d"/>
    <path id="Path_1999" data-name="Path 1999" d="M2296.84,918.235s11.915-14.319,18.225-5.157c0,0,4.706,1.953,6.4,9.962,1.735,8.173-3.7,14.387-6.508,12.85-1.8-.986-3.166,2.171-3.166,2.171Z" transform="translate(-1463.688 -484.593)" fill="#233862"/>
    <path id="Path_2000" data-name="Path 2000" d="M2211.18,1082.257c-9.473-3.49-18.6-19.7-18.6-19.7l2.987-2.091c2.487,3.64,13.685,10.629,13.685,10.629.256-3.067.64-5.852,1.085-8.372,3.108-17.134,10.219-22.211,12.126-23.286a4.263,4.263,0,0,1,.48-.244s0,.125-.023.365c-.026.515-.086,1.556-.189,2.977C2222,1053.141,2219.1,1085.177,2211.18,1082.257Z" transform="translate(-1392.805 -572.414)" fill="#ffb27d"/>
    <path id="Path_2001" data-name="Path 2001" d="M2349.71,904.825s1.6-6.4,11.016-4.4c0,0-4.508-.567-5.74,1.169,0,0,3.573-1.636,5.807-.266s2.6,5.974,2.27,7.363-2.8,5.573-4.44,5.573a7.532,7.532,0,0,1-3.573-1.434Z" transform="translate(-1499.633 -477.807)" fill="#233862"/>
    <path id="Path_2002" data-name="Path 2002" d="M2312.427,1067.568c-4.68-10.5-6.921-13.465-7-16.768-.061-2.612,1.226-5.442,3.726-12.338a25.718,25.718,0,0,0,1.245-4.994c1.979-13.321-5.724-27.72-10.513-28.7-1.332-.352-3.588-5.164-3.563-12.914l-.6.118-10.081,2s.231,3.172.237,6.162c0,2.491-.145,4.85-.708,5.148l-1.156.109s-8.407,11.672-9.114,22.531,6.723,15.574-.054,37.27C2267.923,1087.342,2315.014,1073.368,2312.427,1067.568Z" transform="translate(-1448.264 -540.229)" fill="#ffb27d"/>
    <path id="Path_2003" data-name="Path 2003" d="M2310.06,994.214s.231,3.172.237,6.163c5.641-.16,8.624-5.3,9.844-8.157Z" transform="translate(-1472.676 -540.481)" fill="#e8945b"/>
    <path id="Path_2004" data-name="Path 2004" d="M2307.69,944.8s2.958-4.671,3.666-8.666c.506-2.852-.96-13.42-11.566-11.9a14.437,14.437,0,0,0-5.987,2.263c-2.3,1.559-5.634,4.92-1.92,14.143l.96,3.115Z" transform="translate(-1459.185 -494.158)" fill="#233862"/>
    <path id="Path_2005" data-name="Path 2005" d="M2294.727,959.462s13.346.221,13.356-8.093,1.739-13.884-6.783-14.377-10.18,2.68-10.859,5.442S2291.257,959.19,2294.727,959.462Z" transform="translate(-1459.229 -502.898)" fill="#ffb27d"/>
    <path id="Path_2006" data-name="Path 2006" d="M2305.71,932.886s3.656,9.754,9.261,11.2,8.042-.061,8.042-.061a15.882,15.882,0,0,1-5.2-9.383S2308.466,928.257,2305.71,932.886Z" transform="translate(-1469.718 -498.998)" fill="#233862"/>
    <path id="Path_2007" data-name="Path 2007" d="M2294.177,935.557s-2.731,2.177-3.394,4.3-.96,6.476-2.241,6.329c0,0-2.753-6.63.339-10.379C2292.169,931.824,2294.177,935.557,2294.177,935.557Z" transform="translate(-1457.279 -500.878)" fill="#233862"/>
    <path id="Path_2008" data-name="Path 2008" d="M2299.3,1334.967a131.867,131.867,0,0,1-8.413,23.6l-4.4-.32a124.577,124.577,0,0,0,2.036-24.141c-.087-9.7-1.28-21.164-5.122-32.109-13.17-37.612-11.041-64.987-11.041-64.987l24.765,2.881,1.153.134c.1,11.374.4,26.818.64,38.893.228,10.859.426,19,.426,19C2304.124,1308.2,2302.4,1322.674,2299.3,1334.967Z" transform="translate(-1446.959 -706.906)" fill="#243f77"/>
    <path id="Path_2009" data-name="Path 2009" d="M2383,1105.634l-4.008,1.2s-13.653-20.876-14.857-26.571a60.754,60.754,0,0,1-2.04-10.795c-.96-8.884-5.317-19.182-5.317-19.182l-.986-4.274-3.365-14.572s6.444.66,10.212,2.241a4.684,4.684,0,0,1,2.532,1.873c2.77,6.083,5.532,21.449,7.476,32.407,1.082,6.108,1.921,10.849,2.34,11.845C2376.193,1082.6,2379.865,1098.021,2383,1105.634Z" transform="translate(-1501.481 -567.145)" fill="#ffb27d"/>
    <path id="Path_2010" data-name="Path 2010" d="M2337.788,1318.184c-1.95,15.139-4.334,26.373-4.334,26.373l-4.1,3.822s-1.991-10.708-3.4-23.447c-1.341-12.107-3.182-24.919-5.263-28.831-8.259-15.51-10.747-74.056-10.747-74.056l25.111-1.245c2.525,4.245,3.627,11.2,3.886,19.128.659,19.983-3.521,40.894-4.229,44.665C2334.715,1284.57,2341.034,1292.951,2337.788,1318.184Z" transform="translate(-1472.594 -695.885)" fill="#2b478b"/>
    <path id="Path_2011" data-name="Path 2011" d="M2307,934.366s2.6,10.215,9.681,13.487c0,0-7.078-6.275-7.683-13.017S2307,934.366,2307,934.366Z" transform="translate(-1470.595 -499.344)" fill="#233862"/>
    <path id="Path_2012" data-name="Path 2012" d="M2305.833,1102.776a5.95,5.95,0,0,1-.157,2.007c-.534,1.681-2.369,2.446-6.806,1.988-2.711-.282-3.922-4.824-4.459-8.7q-2.442,8.324-6.854,9.313c-4.3.96-25.995,3.6-27.413-6.723-1.562-11.342,3.115-31.424,3.371-42.257a53.553,53.553,0,0,1-.788-10.033c.183-7.712,2.446-12.037,4.184-13.766.493-.378.986-.615,2.965-.96,1.011-.173,2.414-.371,4.4-.64a7.409,7.409,0,0,1,.791-.061c-.368.64-2.372,3.8-1.937,6.64,1.14,7.4,10.885,1.319,12.255.435a22.925,22.925,0,0,0,6.915-7.507s6.169.676,9.188,2.881l-.032.038a2.567,2.567,0,0,1,.794.836c3.22,6.131,6.435,21.6,8.7,32.653a16.053,16.053,0,0,1-11.755,1.722C2301.14,1083.35,2305.545,1097.013,2305.833,1102.776Z" transform="translate(-1438.523 -567.873)" fill="#739af0"/>
    <path id="Path_2013" data-name="Path 2013" d="M2186.343,1083.12c0-.413.346-6.374-.717-7.625s-3.227-3.032-3.909-2.977-3.345,3.6-2.561,6.31,4.184,6.387,4.184,6.387Z" transform="translate(-1383.581 -595.072)" fill="#ffb27d"/>
    <path id="Path_2014" data-name="Path 2014" d="M2189.7,1052.813l-6.121,1.834a.416.416,0,0,1-.519-.279l-4.1-13.654a.416.416,0,0,1,.279-.519l6.121-1.834a.416.416,0,0,1,.519.278l4.091,13.651a.416.416,0,0,1-.269.522Z" transform="translate(-1383.535 -571.84)" fill="#2b478b"/>
    <path id="Path_2015" data-name="Path 2015" d="M2187.645,1053.654l-5.5,1.649a.739.739,0,0,1-.922-.5l-3.906-13.036a.74.74,0,0,1,.5-.919l5.5-1.649a.74.74,0,0,1,.922.5l3.905,13.036A.74.74,0,0,1,2187.645,1053.654Z" transform="translate(-1382.405 -572.402)" fill="#233862"/>
    <path id="Path_2016" data-name="Path 2016" d="M2367.4,1158.34c-2.98-1-6.8-3.643-11.393-9.575-12.165-15.712-1.031-34.174.458-34.52s4.3,11.944,4.3,11.944C2362.707,1138.914,2367.112,1152.577,2367.4,1158.34Z" transform="translate(-1500.09 -623.437)" fill="#5a7de0"/>
    <path id="Path_2017" data-name="Path 2017" d="M2260.02,1039.08s-7.578,3.842-10.35,20.741c0,0,2.728,3.736,6.566,4.84a7.678,7.678,0,0,0,1.71.295C2262.651,1065.2,2260.02,1039.08,2260.02,1039.08Z" transform="translate(-1431.619 -572.34)" fill="#739af0"/>
    <path id="Path_2018" data-name="Path 2018" d="M2185.47,1065.98s2.561-3.96,3.2-3.739c.9.32-2.333,5.337-2.333,5.337s2.395-3.755,2.766-3.47c.852.64-.5,3-1.847,4.8,0,0,2.408-2.2,2.484-1.806.275,1.389-2.641,4.76-2.641,4.76l-1.629-3.723Z" transform="translate(-1387.971 -588.08)" fill="#ffb27d"/>
    <path id="Path_2019" data-name="Path 2019" d="M2179.44,1066.1c.125-.483.753-9.924,1.021-9.041s.909,5.852.909,5.852Z" transform="translate(-1383.871 -584.521)" fill="#ffb27d"/>
    <path id="Path_2020" data-name="Path 2020" d="M2302.429,990.541s-.23.98-2.667.829c0,0-2.045-.125-1.985-1.2A6.594,6.594,0,0,1,2302.429,990.541Z" transform="translate(-1464.324 -538.914)" fill="#fff"/>
    <path id="Path_2021" data-name="Path 2021" d="M2280.33,1601.862h21.263s.794-3.483-.6-5.852c-1.236-2.1-1.242-3.352-.986-5.82-.96.407-5.83.64-6.813.054,0,2.475-3.627,5.919-4.85,6.822C2286.947,1598.1,2280.756,1597.732,2280.33,1601.862Z" transform="translate(-1452.464 -947.022)" fill="#152f54"/>
    <path id="Path_2022" data-name="Path 2022" d="M2326,1601.984h21.263s.794-3.483-.6-5.852a7.827,7.827,0,0,1-1.236-5.762c-.96.4-5.58.586-6.563,0,0,2.475-3.627,5.919-4.85,6.822C2332.63,1598.22,2326.432,1597.855,2326,1601.984Z" transform="translate(-1483.513 -947.144)" fill="#1d3868"/>
    <path id="Path_2023" data-name="Path 2023" d="M2439.425,1263.2s4.834,3.2,5.573,4.568,2.461,6.342,2.461,6.342-1.232.186-2.461-1.969-5.3-1.972-6.649-3.141-2.929-4.6-2.929-4.6Z" transform="translate(-1557.904 -724.712)" fill="#ffb27d"/>
    <path id="Path_2024" data-name="Path 2024" d="M2437.06,1270.26s.8,3.784,1.789,4.892,2.34,2.955,2.882,2.462-.615-4.62-.615-4.62Z" transform="translate(-1559.019 -729.511)" fill="#ffb27d"/>
    <path id="Path_2025" data-name="Path 2025" d="M2463.23,1278.81c.122.186,4.373,4.7,4.373,4.7s-1.54.7-1.969,0S2463.23,1278.81,2463.23,1278.81Z" transform="translate(-1576.811 -735.324)" fill="#ffb27d"/>
    <rect id="Rectangle_6370" data-name="Rectangle 6370" width="791.805" height="2.122" rx="1.061" transform="translate(143.94 654.827)" fill="#233862"/>
    <path id="Path_2026" data-name="Path 2026" d="M894.523,858.279a.64.64,0,0,1-.611-.442c-.467-1.409-.9-2.8-1.28-4.133a.646.646,0,1,1,1.242-.359c.381,1.319.807,2.692,1.281,4.085a.64.64,0,0,1-.611.848Zm-2.369-8.272a.64.64,0,0,1-.64-.5c-.343-1.457-.64-2.881-.868-4.255a.649.649,0,1,1,1.28-.218c.227,1.341.516,2.747.852,4.162a.64.64,0,0,1-.64.794Zm34.709-2.561h-.058a28.132,28.132,0,0,1-4.338-.752.646.646,0,1,1,.32-1.252,26.909,26.909,0,0,0,4.136.717.641.641,0,0,1-.058,1.281Zm4.3,0a.641.641,0,1,1-.064-1.28,18.924,18.924,0,0,0,4.059-.868.646.646,0,0,1,.41,1.226,20.228,20.228,0,0,1-4.338.928Zm225.43-1.956a.64.64,0,0,1-.419-1.137,24.486,24.486,0,0,0,2.948-2.974.646.646,0,0,1,.992.826,25.755,25.755,0,0,1-3.105,3.131.64.64,0,0,1-.432.128Zm-238.06-.112a.638.638,0,0,1-.237-.045,42.355,42.355,0,0,1-3.979-1.812.645.645,0,1,1,.592-1.146,40.938,40.938,0,0,0,3.858,1.754.64.64,0,0,1-.237,1.245Zm20.722-.659a.64.64,0,0,1-.32-1.2,20.975,20.975,0,0,0,3.2-2.4l.122-.112.88.96-.134.122a22.324,22.324,0,0,1-3.393,2.561.641.641,0,0,1-.355.061Zm-48.522-3.2a.64.64,0,0,1-.64-.586c-.122-1.344-.182-2.663-.182-3.912v-.451a.64.64,0,0,1,.64-.64h0a.64.64,0,0,1,.64.64V837c0,1.21.061,2.487.179,3.8a.64.64,0,0,1-.586.7Zm20.149-.086a.64.64,0,0,1-.346-.1,43.427,43.427,0,0,1-3.573-2.529.646.646,0,1,1,.8-1.012,42.062,42.062,0,0,0,3.464,2.452.64.64,0,0,1-.349,1.191Zm251.2-2.561a.64.64,0,0,1-.557-.96,27,27,0,0,0,1.825-3.781.646.646,0,1,1,1.2.471,28.354,28.354,0,0,1-1.921,3.96.64.64,0,0,1-.551.333Zm-216.614-.032a.64.64,0,0,1-.541-1,11.632,11.632,0,0,0,1.6-3.726.645.645,0,0,1,1.258.285A12.908,12.908,0,0,1,946,838.54a.64.64,0,0,1-.538.32Zm-41.034-3.064a.64.64,0,0,1-.493-.227c-.912-1.072-1.831-2.209-2.734-3.374a.646.646,0,0,1,1.021-.791c.89,1.149,1.8,2.27,2.7,3.329a.64.64,0,0,1-.493,1.063Zm-13.567-2.83h-.1a.64.64,0,0,1-.544-.733,25.354,25.354,0,0,1,1-4.29.646.646,0,0,1,1.226.407,24.038,24.038,0,0,0-.96,4.069.64.64,0,0,1-.627.547Zm274.353-2.026a.64.64,0,0,1-.628-.791,32.4,32.4,0,0,0,.688-4.162.644.644,0,0,1,1.281.128,33.612,33.612,0,0,1-.717,4.325.64.64,0,0,1-.624.5Zm-217.949-.259a.64.64,0,0,1-.64-.541,12.577,12.577,0,0,0-1.341-3.842.646.646,0,1,1,1.14-.608,13.858,13.858,0,0,1,1.476,4.242.64.64,0,0,1-.531.743Zm-48.119-1.7a.64.64,0,0,1-.528-.272c-.836-1.184-1.649-2.395-2.42-3.6a.646.646,0,1,1,1.088-.695c.762,1.188,1.566,2.382,2.388,3.55a.64.64,0,0,1-.528,1.018Zm-5.532-4.1a.64.64,0,0,1-.554-.96,19.056,19.056,0,0,1,1.514-2.183.64.64,0,0,1-.64-.32c-.73-1.281-1.425-2.561-2.065-3.816a.646.646,0,0,1,1.153-.586c.64,1.245,1.316,2.51,2.036,3.758a.641.641,0,0,1,.083.279l.608-.656a.645.645,0,1,1,.925.9,17.744,17.744,0,0,0-2.513,3.285.64.64,0,0,1-.538.3Zm49.761-1.745a.64.64,0,0,1-.48-.214,22.932,22.932,0,0,0-3.073-2.833.646.646,0,0,1,.788-1.025,24.233,24.233,0,0,1,3.246,2.993.64.64,0,0,1-.48,1.076Zm222.706-.736a.64.64,0,0,1-.64-.64,37.562,37.562,0,0,0-.32-4.213.646.646,0,0,1,1.281-.173,38.891,38.891,0,0,1,.339,4.36.64.64,0,0,1-.64.659ZM899.534,818.72a.64.64,0,0,1-.346-1.194,25.261,25.261,0,0,1,3.886-2.084.645.645,0,1,1,.512,1.185,23.912,23.912,0,0,0-3.688,1.978.641.641,0,0,1-.355.115Zm37.11-.874a.64.64,0,0,1-.32-.08,32.228,32.228,0,0,0-3.813-1.8.645.645,0,1,1,.474-1.2,33.583,33.583,0,0,1,3.966,1.873.64.64,0,0,1-.32,1.21Zm-29.244-2.58a.646.646,0,0,1-.176-1.281,42.216,42.216,0,0,1,4.258-.96.65.65,0,0,1,.227,1.281c-1.456.263-2.846.579-4.133.941a.639.639,0,0,1-.192.013Zm21.266-.589a.64.64,0,0,1-.163-.022,35.819,35.819,0,0,0-4.146-.816.646.646,0,0,1,.173-1.281,37.026,37.026,0,0,1,4.3.848.645.645,0,0,1-.163,1.281Zm-38.025-.64a.64.64,0,0,1-.592-.387c-.589-1.348-1.133-2.705-1.6-4.037a.646.646,0,1,1,1.213-.442c.474,1.306,1.008,2.638,1.6,3.96a.64.64,0,0,1-.592.906Zm274.334-.154a.64.64,0,0,1-.64-.493,40.1,40.1,0,0,0-1.229-4.05.645.645,0,1,1,1.213-.439,41.359,41.359,0,0,1,1.281,4.181.64.64,0,0,1-.64.8Zm-249.139-.176a.642.642,0,1,1-.083-1.28h.022a36.878,36.878,0,0,1,3.842-.2h.538a.64.64,0,1,1,0,1.281h-.576a34.859,34.859,0,0,0-3.637.19Zm141.466-7.363a.64.64,0,0,1,0-1.281,21.26,21.26,0,0,0,4.142-.471.653.653,0,1,1,.256,1.281,22.566,22.566,0,0,1-4.392.5Zm-169.612-.416a.64.64,0,0,1-.621-.471c-.4-1.418-.746-2.843-1.024-4.235a.653.653,0,1,1,1.28-.253c.269,1.357.605,2.747,1,4.133a.64.64,0,0,1-.621.823Zm274.337-.138a.64.64,0,0,1-.583-.362,39.055,39.055,0,0,0-2.059-3.694.645.645,0,0,1,1.092-.688,40.384,40.384,0,0,1,2.129,3.819.64.64,0,0,1-.58.928Zm-108.947-.131a.64.64,0,0,1-.224-.042,10.162,10.162,0,0,1-3.47-2.17l-.32-.32a.645.645,0,0,1,.909-.916l.32.3a8.769,8.769,0,0,0,3.032,1.9.64.64,0,0,1-.224,1.252Zm12.652-.89a.64.64,0,0,1-.192-1.261c1.226-.381,2.561-.836,4.037-1.389a.645.645,0,0,1,.448,1.21c-1.514.56-2.855,1.024-4.1,1.412a.64.64,0,0,1-.182.029Zm8.083-2.958a.64.64,0,0,1-.24-1.245c1.415-.57,2.881-1.172,3.976-1.633a.645.645,0,0,1,.5,1.191c-1.111.461-2.561,1.066-3.989,1.636a.64.64,0,0,1-.237.051Zm-26.91-1.892a.641.641,0,0,1-.567-.32,13.425,13.425,0,0,1-1.485-4.242.65.65,0,0,1,1.281-.224,12.161,12.161,0,0,0,1.341,3.842.64.64,0,0,1-.564.96Zm110.538-1.389a.64.64,0,0,1-.5-.243,36.17,36.17,0,0,0-2.827-3.137.645.645,0,0,1,.906-.919,37.527,37.527,0,0,1,2.929,3.249.64.64,0,0,1-.5,1.05Zm-75.667,0a.64.64,0,0,1-.246-1.242q1.943-.807,3.983-1.642a.646.646,0,1,1,.486,1.2q-2.036.829-3.976,1.639a.64.64,0,0,1-.247.038ZM886.034,797.5a.64.64,0,0,1-.64-.576c-.154-1.466-.237-2.932-.243-4.36a.64.64,0,0,1,.64-.64h0a.64.64,0,0,1,.64.64,40.414,40.414,0,0,0,.237,4.229.64.64,0,0,1-.573.711Zm203.716-2.212a.64.64,0,0,1-.237-1.245c1.4-.551,2.721-1.053,4.031-1.543a.646.646,0,1,1,.451,1.21c-1.3.483-2.615.986-4.011,1.533a.641.641,0,0,1-.231.035Zm61.571-2.769a.64.64,0,0,1-.394-.134,33.735,33.735,0,0,0-3.5-2.359.642.642,0,0,1,.64-1.114,35.086,35.086,0,0,1,3.63,2.452.64.64,0,0,1-.394,1.159Zm-53.5-.224a.64.64,0,0,1-.211-1.255c1.38-.48,2.76-.938,4.1-1.367a.645.645,0,0,1,.394,1.229c-1.328.426-2.7.88-4.069,1.357a.642.642,0,0,1-.208.026Zm-52.518-.7h-.042a.64.64,0,0,1-.6-.685,35.288,35.288,0,0,1,.589-4.341.652.652,0,0,1,1.281.243,33.932,33.932,0,0,0-.567,4.181A.64.64,0,0,1,1045.3,791.6Zm60.723-1.921a.646.646,0,0,1-.179-1.28c1.393-.4,2.795-.788,4.162-1.14a.646.646,0,1,1,.32,1.252c-1.36.349-2.753.73-4.133,1.13A.637.637,0,0,1,1106.025,789.675Zm-220.017-.768h-.067a.641.641,0,0,1-.576-.711,38.188,38.188,0,0,1,.7-4.328.646.646,0,1,1,1.261.282,36.892,36.892,0,0,0-.679,4.162.64.64,0,0,1-.64.589Zm257.918-.733a.639.639,0,0,1-.253-.051,33.5,33.5,0,0,0-3.976-1.405.646.646,0,1,1,.352-1.242,34.745,34.745,0,0,1,4.13,1.46.64.64,0,0,1-.253,1.239Zm-29.564-.64a.644.644,0,0,1-.141-1.281c1.409-.32,2.836-.605,4.239-.868a.651.651,0,0,1,.237,1.281c-1.386.259-2.8.547-4.194.861a.644.644,0,0,1-.141,0Zm8.458-1.581a.642.642,0,0,1-.1-1.281l.96-.141c1.13-.16,2.267-.278,3.374-.352a.642.642,0,1,1,.086,1.281c-1.076.07-2.18.186-3.278.343l-.944.138Zm12.857-.131h-.1a37.028,37.028,0,0,0-4.2-.407.646.646,0,1,1,.054-1.29,38.236,38.236,0,0,1,4.351.423.642.642,0,0,1-.1,1.281Zm-88.853-2.686a.676.676,0,0,1-.157-.019.64.64,0,0,1-.471-.781c.343-1.383.733-2.881,1.076-4.162a.644.644,0,1,1,1.249.32c-.343,1.306-.733,2.785-1.073,4.162a.64.64,0,0,1-.627.477Zm-158.945-2.612a.64.64,0,0,1-.608-.858,37.827,37.827,0,0,1,1.674-4.043.646.646,0,0,1,1.162.563,36.651,36.651,0,0,0-1.62,3.886.64.64,0,0,1-.608.445Zm161.1-5.721a.653.653,0,0,1-.16-.019.64.64,0,0,1-.468-.784c.381-1.508.711-2.881,1.008-4.162a.645.645,0,0,1,1.258.288c-.3,1.309-.64,2.683-1.015,4.2a.64.64,0,0,1-.624.477Zm-157.348-2.007a.64.64,0,0,1-.544-.989q.24-.381.493-.762c.656-.992,1.341-1.921,2.036-2.808a.645.645,0,1,1,1.008.8c-.669.839-1.332,1.754-1.969,2.715q-.243.368-.477.736a.64.64,0,0,1-.547.3Zm159.256-6.387a.688.688,0,0,1-.125,0,.64.64,0,0,1-.509-.759c.278-1.415.531-2.833.749-4.213a.648.648,0,0,1,1.281.2c-.221,1.4-.477,2.83-.759,4.258a.64.64,0,0,1-.637.509Zm-153.868-.3a.64.64,0,0,1-.445-1.114,25.264,25.264,0,0,1,3.451-2.747.645.645,0,0,1,.708,1.079,23.978,23.978,0,0,0-3.272,2.606.64.64,0,0,1-.445.176Zm45.395-2.532h0a42.36,42.36,0,0,1-4.357-.243.644.644,0,1,1,.131-1.281c1.514.154,2.9.23,4.232.237a.64.64,0,1,1,0,1.281Zm4.29-.263a.642.642,0,1,1-.083-1.281,25.283,25.283,0,0,0,4.094-.884.646.646,0,0,1,.378,1.236,26.582,26.582,0,0,1-4.306.932Zm-12.847-.557h-.106c-1.546-.253-3.086-.547-4.254-.772a.652.652,0,0,1,.246-1.281c1.159.224,2.686.516,4.216.765a.642.642,0,1,1-.1,1.281Zm-29.673-1.319a.64.64,0,0,1-.24-1.245,22.977,22.977,0,0,1,4.239-1.252.652.652,0,0,1,.243,1.281,21.67,21.67,0,0,0-4,1.172.64.64,0,0,1-.243.045Zm21.212-.272a.642.642,0,0,1-.122,0c-1.693-.32-3-.551-4.219-.743a.648.648,0,1,1,.2-1.281c1.239.192,2.561.423,4.264.749a.643.643,0,0,1-.122,1.281Zm29.487-.384a.64.64,0,0,1-.3-1.22,24.808,24.808,0,0,0,3.537-2.241.646.646,0,0,1,.778,1.031,26.153,26.153,0,0,1-3.723,2.356.64.64,0,0,1-.282.074Zm-38.006-.88h-.054a36.463,36.463,0,0,0-4.226-.125.641.641,0,1,1-.042-1.28,37.929,37.929,0,0,1,4.373.128.641.641,0,1,1-.055,1.281Zm135.355-1.991h-.077a.64.64,0,0,1-.563-.717c.17-1.409.32-2.843.422-4.255a.642.642,0,0,1,1.281.1c-.112,1.431-.256,2.881-.426,4.309a.64.64,0,0,1-.634.557Zm-90.495-2.26a.64.64,0,0,1-.458-1.1,36.652,36.652,0,0,0,2.785-3.176.647.647,0,0,1,1.018.8,38.078,38.078,0,0,1-2.881,3.288.641.641,0,0,1-.461.186Zm91.013-6.313a.64.64,0,0,1-.64-.589,14.589,14.589,0,0,0-.925-4,.646.646,0,0,1,1.2-.467,15.87,15.87,0,0,1,1.009,4.347.64.64,0,0,1-.586.7Zm-85.44-.237a.64.64,0,0,1-.477-1.079c.961-1.053,2.007-2.087,3.1-3.073a.646.646,0,0,1,.865.96c-1.066.96-2.078,1.962-3.013,2.984a.64.64,0,0,1-.48.2Zm6.387-5.762a.64.64,0,0,1-.387-1.162c1.136-.852,2.347-1.681,3.589-2.465a.645.645,0,1,1,.688,1.092c-1.213.765-2.391,1.575-3.5,2.407a.64.64,0,0,1-.391.125Zm76-1.921a.641.641,0,0,1-.519-.259,18.515,18.515,0,0,0-2.859-3,.646.646,0,1,1,.836-.986,19.809,19.809,0,0,1,3.057,3.2.64.64,0,0,1-.515,1.034Zm-68.732-2.68a.64.64,0,0,1-.3-1.217c1.255-.669,2.561-1.312,3.9-1.921a.646.646,0,1,1,.531,1.178c-1.309.589-2.6,1.22-3.842,1.876a.639.639,0,0,1-.288.086Zm62.256-2.9a.64.64,0,0,1-.32-.09,32.1,32.1,0,0,0-3.774-1.876.646.646,0,1,1,.5-1.191,33.454,33.454,0,0,1,3.928,1.953.64.64,0,0,1-.32,1.2Zm-54.422-.64a.64.64,0,0,1-.227-1.249c1.335-.506,2.715-.983,4.1-1.418a.646.646,0,0,1,.387,1.233c-1.364.429-2.721.9-4.037,1.393a.642.642,0,0,1-.218.045Zm8.211-2.58a.645.645,0,1,1-.16-1.28c1.389-.352,2.811-.675,4.232-.96a.653.653,0,0,1,.253,1.281c-1.4.279-2.8.6-4.162.96a.638.638,0,0,1-.154,0Zm38.3-.144a.64.64,0,0,1-.189-.029c-1.309-.4-2.7-.749-4.117-1.05a.646.646,0,0,1,.266-1.265c1.457.32,2.881.669,4.223,1.076a.64.64,0,0,1-.186,1.265Zm-29.862-1.543a.642.642,0,1,1-.093-1.281c1.425-.208,2.881-.384,4.306-.519a.643.643,0,0,1,.122,1.281c-1.409.134-2.836.32-4.239.512Zm21.449-.253h-.086c-1.377-.186-2.8-.32-4.242-.435a.642.642,0,0,1,.093-1.281c1.463.106,2.92.253,4.322.445a.642.642,0,1,1-.086,1.28Zm-12.873-.551a.64.64,0,0,1-.026-1.281c1.45-.061,2.91-.083,4.338-.064a.64.64,0,0,1,0,1.281h0c-1.406-.019-2.843,0-4.267.064Z" transform="translate(-503.925 -361.376)" fill="#16becf"/>
    <path id="Path_2027" data-name="Path 2027" d="M1594.153,583.927a.64.64,0,0,1-.218-1.255s1.514-.544,4-1.6a.646.646,0,0,1,.5,1.191c-2.523,1.056-4,1.6-4.066,1.6A.643.643,0,0,1,1594.153,583.927Zm8-3.323a.64.64,0,0,1-.266-1.232c1.28-.586,2.6-1.2,3.893-1.828a.646.646,0,0,1,.563,1.162c-1.3.64-2.622,1.252-3.925,1.841a.642.642,0,0,1-.279.054Zm7.766-3.768a.64.64,0,0,1-.3-1.22c1.281-.656,2.545-1.338,3.79-2.026a.646.646,0,0,1,.624,1.13c-1.255.695-2.542,1.38-3.819,2.042a.639.639,0,0,1-.31.074Zm7.552-4.162a.64.64,0,0,1-.32-1.2c1.242-.73,2.475-1.482,3.669-2.241a.645.645,0,1,1,.688,1.092c-1.2.756-2.446,1.514-3.7,2.241a.642.642,0,0,1-.349.1Zm7.3-4.594a.64.64,0,0,1-.362-1.181c1.194-.8,2.379-1.629,3.521-2.455a.645.645,0,0,1,.755,1.047c-1.153.832-2.347,1.668-3.553,2.478a.641.641,0,0,1-.375.1Zm6.969-5.065a.64.64,0,0,1-.4-1.156c1.14-.89,2.241-1.8,3.323-2.7a.646.646,0,0,1,.836.986c-1.079.916-2.212,1.834-3.365,2.734a.64.64,0,0,1-.4.138Zm6.566-5.567a.64.64,0,0,1-.438-1.12c1.06-.98,2.09-1.982,3.067-2.977a.645.645,0,0,1,.922.9c-.989,1.008-2.036,2.026-3.112,3.022a.64.64,0,0,1-.442.17Zm6.022-6.153a.64.64,0,0,1-.483-1.072c.96-1.085,1.87-2.19,2.724-3.288a.646.646,0,1,1,1.018.794c-.871,1.117-1.8,2.241-2.776,3.349a.64.64,0,0,1-.484.218Zm5.282-6.806a.64.64,0,0,1-.535-1.008c.8-1.191,1.562-2.4,2.241-3.614a.645.645,0,1,1,1.12.64c-.707,1.236-1.482,2.478-2.3,3.694a.64.64,0,0,1-.522.285Zm4.264-7.465a.64.64,0,0,1-.586-.919c.605-1.281,1.152-2.606,1.629-3.909a.646.646,0,1,1,1.213.442c-.49,1.338-1.05,2.689-1.671,4.011a.64.64,0,0,1-.586.371Zm2.932-8.058a.64.64,0,0,1-.624-.807c.355-1.367.64-2.76.864-4.139a.648.648,0,1,1,1.28.2c-.224,1.421-.522,2.856-.89,4.264a.64.64,0,0,1-.631.474Zm1.329-8.471h-.035a.64.64,0,0,1-.608-.679c.042-.762.064-1.537.064-2.3,0-.64,0-1.281-.045-1.921a.641.641,0,1,1,1.281-.058c.029.659.045,1.332.045,1.991,0,.791-.022,1.6-.064,2.375a.64.64,0,0,1-.64.589Zm-.384-8.583a.64.64,0,0,1-.64-.554c-.2-1.38-.461-2.782-.791-4.162a.645.645,0,0,1,1.255-.3c.336,1.425.611,2.881.813,4.283a.64.64,0,0,1-.547.73Zm-1.966-8.368a.64.64,0,0,1-.615-.445c-.429-1.319-.925-2.66-1.473-3.989a.646.646,0,1,1,1.194-.493c.56,1.357,1.066,2.731,1.508,4.082a.64.64,0,0,1-.615.845Zm-3.268-7.952a.64.64,0,0,1-.579-.362c-.64-1.281-1.281-2.561-1.946-3.813a.645.645,0,1,1,1.14-.605c.666,1.255,1.329,2.561,1.966,3.842a.64.64,0,0,1-.579.928ZM1648.473,488a.64.64,0,0,1-.56-.32c-.72-1.245-1.466-2.478-2.215-3.659a.646.646,0,1,1,1.092-.691c.759,1.2,1.511,2.443,2.241,3.7a.64.64,0,0,1-.557.96Zm-4.6-7.267a.64.64,0,0,1-.531-.279c-.823-1.185-1.668-2.347-2.513-3.454a.645.645,0,0,1,1.025-.784c.858,1.124,1.716,2.3,2.561,3.5a.64.64,0,0,1-.528,1.015Zm-55.3-.64h-.535a.641.641,0,0,1,.061-1.281,13.6,13.6,0,0,0,4.059-.5.644.644,0,1,1,.32,1.248,15.51,15.51,0,0,1-3.906.528Zm-4.533-1.319a.639.639,0,0,1-.381-.125,7.413,7.413,0,0,1-2.622-3.81.646.646,0,1,1,1.229-.4,6.164,6.164,0,0,0,2.161,3.166.64.64,0,0,1-.384,1.165Zm12.328-.7a.64.64,0,0,1-.272-1.232,32.975,32.975,0,0,0,3.7-2.03.646.646,0,1,1,.691,1.092,34.331,34.331,0,0,1-3.841,2.11.64.64,0,0,1-.285.058Zm42.28-4.181a.64.64,0,0,1-.493-.227c-.928-1.1-1.886-2.167-2.843-3.179a.645.645,0,0,1,.938-.887c.96,1.031,1.946,2.116,2.881,3.233a.64.64,0,0,1-.493,1.063Zm-35.006-.391a.64.64,0,0,1-.4-1.149,39.007,39.007,0,0,0,3.163-2.82.646.646,0,0,1,.912.916,40.406,40.406,0,0,1-3.265,2.913.64.64,0,0,1-.406.141Zm-22.566-2.462h0a.64.64,0,0,1-.64-.64,16.268,16.268,0,0,1,.64-4.418.646.646,0,0,1,1.239.365,14.969,14.969,0,0,0-.605,4.066.64.64,0,0,1-.634.624Zm51.65-3.39a.64.64,0,0,1-.442-.173c-1.05-.983-2.126-1.921-3.2-2.811a.646.646,0,1,1,.819-1c1.1.9,2.2,1.863,3.265,2.881a.64.64,0,0,1-.442,1.117Zm-23-.227a.64.64,0,0,1-.506-1.044,28.119,28.119,0,0,0,2.356-3.483.647.647,0,0,1,1.124.64,29.466,29.466,0,0,1-2.465,3.643.641.641,0,0,1-.509.24ZM1583.47,462.9a.64.64,0,0,1-.544-.992,17.4,17.4,0,0,1,2.859-3.419.65.65,0,1,1,.877.96,16.09,16.09,0,0,0-2.648,3.163.64.64,0,0,1-.534.285Zm42.578-.691a.641.641,0,0,1-.371-.118c-1.172-.826-2.372-1.6-3.566-2.311a.645.645,0,0,1,.656-1.111c1.223.724,2.452,1.521,3.653,2.366a.64.64,0,0,1-.375,1.175Zm-12.191-2.273a.64.64,0,0,1-.615-.842,13.645,13.645,0,0,0,.682-4.034.64.64,0,0,1,.64-.64h0a.64.64,0,0,1,.64.615c1.239.461,2.484.989,3.71,1.578a.646.646,0,1,1-.557,1.165c-1.069-.509-2.151-.976-3.23-1.389a15.735,15.735,0,0,1-.666,3.1.64.64,0,0,1-.583.448Zm-24.183-2.881a.64.64,0,0,1-.32-1.2,22.88,22.88,0,0,1,4.031-1.822.645.645,0,1,1,.419,1.22,21.62,21.62,0,0,0-3.8,1.716.642.642,0,0,1-.307.1Zm20.892-2.145a.638.638,0,0,1-.154-.019,35.6,35.6,0,0,0-4.162-.765.645.645,0,1,1,.157-1.28,36.783,36.783,0,0,1,4.306.794.645.645,0,1,1-.154,1.281Zm-12.805-.659a.642.642,0,0,1-.1-1.281,29.671,29.671,0,0,1,4.379-.371h0a.64.64,0,0,1,0,1.281,28.323,28.323,0,0,0-4.187.355Zm16.007-2.753a.64.64,0,0,1-.6-.4,10.381,10.381,0,0,0-1.114-2.036c-.32-.477-.7-.96-1.079-1.421a.645.645,0,1,1,1-.816c.4.493.784,1,1.136,1.5a11.639,11.639,0,0,1,1.255,2.289.64.64,0,0,1-.6.89Zm-5.263-6.723a.64.64,0,0,1-.432-.166,34.577,34.577,0,0,0-3.3-2.628.646.646,0,1,1,.743-1.056,35.8,35.8,0,0,1,3.429,2.728.64.64,0,0,1-.432,1.124Zm-59.106-3.048a.64.64,0,0,1-.442-1.117,27.708,27.708,0,0,1,2.881-2.334.645.645,0,0,1,.746,1.053,26.437,26.437,0,0,0-2.734,2.222.639.639,0,0,1-.419.182Zm52.1-1.921a.64.64,0,0,1-.32-.083c-1.2-.672-2.484-1.309-3.8-1.9a.645.645,0,1,1,.525-1.178c1.351.6,2.664,1.255,3.9,1.946a.64.64,0,0,1-.32,1.21Zm-45.612-2.583a.64.64,0,0,1-.295-1.22,34.459,34.459,0,0,1,4.027-1.732.646.646,0,0,1,.436,1.217,33.249,33.249,0,0,0-3.877,1.668.641.641,0,0,1-.256.08Zm37.776-.925a.637.637,0,0,1-.214-.035c-1.322-.464-2.689-.884-4.063-1.248a.644.644,0,0,1,.32-1.249c1.405.375,2.8.8,4.162,1.281a.64.64,0,0,1-.215,1.255Zm-29.683-1.994a.644.644,0,1,1-.147-1.281c1.386-.32,2.83-.592,4.3-.791a.646.646,0,1,1,.173,1.281c-1.425.192-2.827.451-4.162.768a.658.658,0,0,1-.141.038Zm21.375-.224a.641.641,0,0,1-.119,0c-1.392-.263-2.811-.474-4.21-.64a.644.644,0,1,1,.144-1.281c1.431.16,2.881.378,4.3.64a.643.643,0,0,1-.118,1.281Zm-12.834-.909a.64.64,0,0,1-.029-1.281c1.431-.064,2.9-.07,4.357-.019a.646.646,0,1,1-.048,1.29c-1.418-.051-2.855-.045-4.251.019Z" transform="translate(-955.081 -159.492)" fill="#16becf"/>
    <path id="Path_2028" data-name="Path 2028" d="M1990.183,826.821a.64.64,0,0,1-.525-1.021,30.4,30.4,0,0,0,2.2-3.6.646.646,0,0,1,1.146.6,31.621,31.621,0,0,1-2.292,3.749A.641.641,0,0,1,1990.183,826.821Zm3.989-7.606a.64.64,0,0,1-.6-.871,34.053,34.053,0,0,0,1.213-4.043.646.646,0,0,1,1.258.294,35.449,35.449,0,0,1-1.261,4.2.641.641,0,0,1-.6.423Zm1.959-8.359h-.07a.64.64,0,0,1-.573-.711,36.158,36.158,0,0,0,.211-3.922v-.3a.641.641,0,0,1,.64-.64h0a.64.64,0,0,1,.64.64v.32a37.514,37.514,0,0,1-.218,4.059.641.641,0,0,1-.621.554Zm-.061-8.589a.64.64,0,0,1-.64-.57q-.252-2.1-.711-4.162a.646.646,0,0,1,1.261-.278,43.4,43.4,0,0,1,.733,4.306.64.64,0,0,1-.566.717Zm-1.847-8.394a.641.641,0,0,1-.615-.448c-.182-.567-.378-1.146-.583-1.716a18.922,18.922,0,0,0-.96-2.186.645.645,0,0,1,1.149-.586,20.044,20.044,0,0,1,1.015,2.337c.211.586.413,1.178.6,1.758a.64.64,0,0,1-.615.842Zm-3.9-7.613a.64.64,0,0,1-.509-.247,27.213,27.213,0,0,0-2.849-3.083.651.651,0,0,1,.88-.96,28.448,28.448,0,0,1,2.983,3.23.64.64,0,0,1-.506,1.044Zm-31.911-2.4h0c-1.489-.019-2.951-.1-4.351-.227a.643.643,0,0,1,.122-1.281c1.364.128,2.792.2,4.245.221a.64.64,0,0,1,0,1.281Zm4.3-.1a.641.641,0,0,1-.035-1.281c1.415-.083,2.843-.214,4.248-.391a.645.645,0,0,1,.163,1.281c-1.434.182-2.881.32-4.334.4Zm-12.859-.736a.648.648,0,0,1-.125,0,29.6,29.6,0,0,1-4.245-1.152.645.645,0,1,1,.439-1.213,28.4,28.4,0,0,0,4.056,1.1.643.643,0,0,1-.125,1.281Zm21.4-.349a.643.643,0,1,1-.125-1.28c1.425-.285,2.817-.621,4.133-1a.646.646,0,1,1,.355,1.242c-1.351.387-2.775.733-4.235,1.024a.657.657,0,0,1-.118.013Zm12.805-2.292a.64.64,0,0,1-.378-.122q-.756-.547-1.569-1.079c-.752.368-1.546.72-2.375,1.05a.645.645,0,1,1-.48-1.2q.8-.32,1.559-.669l-.695-.413a.644.644,0,1,1,.64-1.117q.72.419,1.415.858.448-.234.874-.477a.645.645,0,0,1,.64,1.12l-.285.16q.521.355,1.018.714a.64.64,0,0,1-.381,1.169Zm-42.181-.419a.641.641,0,0,1-.372-.119,8.643,8.643,0,0,1-2.7-2.91c-.106-.192-.2-.391-.285-.579a.646.646,0,0,1,1.181-.522c.07.16.15.32.24.49a7.365,7.365,0,0,0,2.3,2.465.64.64,0,0,1-.371,1.172Zm34.789-3.938a.64.64,0,0,1-.275-.064c-1.249-.6-2.561-1.162-3.912-1.684a.646.646,0,1,1,.467-1.2c1.374.535,2.718,1.114,4,1.722a.64.64,0,0,1-.279,1.229Zm10.244-.1a.64.64,0,0,1-.432-1.127,11.709,11.709,0,0,0,2.561-3.153.65.65,0,1,1,1.136.631,12.97,12.97,0,0,1-2.824,3.505.64.64,0,0,1-.442.157Zm-18.263-3.009a.646.646,0,0,1-.2-.029c-1.344-.426-2.724-.813-4.1-1.156a.646.646,0,1,1,.32-1.252c1.4.349,2.811.746,4.181,1.178a.64.64,0,0,1-.2,1.261Zm-29.161-.186a.64.64,0,0,1-.49-1.066,8.1,8.1,0,0,1,4.027-2.241.646.646,0,1,1,.355,1.242,6.888,6.888,0,0,0-3.4,1.854.64.64,0,0,1-.49.2Zm20.809-1.892a.642.642,0,0,1-.119,0c-1.418-.259-2.84-.471-4.216-.64a.644.644,0,1,1,.147-1.281c1.405.16,2.856.378,4.3.64a.643.643,0,0,1-.115,1.281Zm-12.857-.874a.641.641,0,0,1-.051-1.281,39.343,39.343,0,0,1,4.376-.086.641.641,0,1,1-.042,1.281,38.223,38.223,0,0,0-4.232.083Zm43.218-1.453h0a.64.64,0,0,1-.64-.64v-.093a10.172,10.172,0,0,0-.813-3.842.645.645,0,0,1,1.194-.49,11.449,11.449,0,0,1,.909,4.331v.106a.64.64,0,0,1-.637.615Zm-2.99-7.914a.639.639,0,0,1-.521-.266,29.362,29.362,0,0,0-2.731-3.2.646.646,0,1,1,.925-.9,30.6,30.6,0,0,1,2.849,3.342.64.64,0,0,1-.522,1.024Zm-5.98-6.153a.641.641,0,0,1-.4-.141,37.539,37.539,0,0,0-3.454-2.439.646.646,0,1,1,.685-1.095,38.85,38.85,0,0,1,3.573,2.526.64.64,0,0,1-.4,1.149Zm-7.274-4.578a.64.64,0,0,1-.285-.067c-1.233-.611-2.539-1.188-3.883-1.716a.646.646,0,1,1,.471-1.2c1.38.541,2.721,1.133,3.986,1.761a.64.64,0,0,1-.288,1.223ZM1894,748.708a.645.645,0,1,1-.163-1.28s1.569-.41,4.226-.989a.646.646,0,1,1,.275,1.261c-2.628.576-4.162.96-4.162.98a.64.64,0,0,1-.167.013Zm8.42-1.857a.643.643,0,1,1-.125-1.281c1.4-.272,2.827-.538,4.248-.784a.65.65,0,0,1,.221,1.281c-1.415.246-2.837.509-4.223.781a.636.636,0,0,1-.112-.016Zm64.007-.138a.64.64,0,0,1-.189-.029c-1.319-.406-2.7-.784-4.111-1.12a.645.645,0,0,1,.3-1.255c1.437.346,2.846.73,4.19,1.143a.64.64,0,0,1-.192,1.261Zm-55.52-1.348a.642.642,0,1,1-.1-1.281c1.421-.221,2.862-.426,4.277-.615a.646.646,0,0,1,.17,1.281c-1.405.189-2.836.394-4.248.611Zm47.158-.669a.637.637,0,0,1-.115,0c-1.364-.247-2.785-.471-4.226-.659a.646.646,0,1,1,.169-1.281c1.46.192,2.9.419,4.287.669a.643.643,0,0,1-.115,1.28Zm-38.627-.487a.641.641,0,1,1-.071-1.281c1.438-.16,2.881-.32,4.3-.435a.643.643,0,0,1,.115,1.281c-1.405.128-2.843.272-4.271.432Zm30.093-.666h-.058c-1.389-.125-2.827-.224-4.271-.3a.641.641,0,1,1,.064-1.281c1.463.074,2.917.176,4.322.3a.641.641,0,0,1-.058,1.281Zm-21.507-.106a.641.641,0,0,1-.042-1.281c1.45-.1,2.9-.173,4.315-.23a.641.641,0,1,1,.051,1.281c-1.4.058-2.846.134-4.283.23Zm12.908-.339h0c-.791,0-1.6,0-2.414-.019h-1.87a.64.64,0,1,1-.016-1.28h1.921c.807,0,1.617,0,2.407.019a.64.64,0,0,1,0,1.28Z" transform="translate(-1189.313 -370.228)" fill="#16becf"/>
    <path id="Path_2029" data-name="Path 2029" d="M1632.231,1160.952c-12.735,6.4-28.018-9.025-25.066,11.621s-26.824,20.69-47.86,18.072-18.552,22.7-39.8,25.61-39.411-10.564-39.411-10.564L1468.337,1159a9.349,9.349,0,0,1,9.156-11.576h157.214S1644.963,1154.549,1632.231,1160.952Z" transform="translate(-900.222 -645.997)" fill="#fff"/>
    <path id="Path_2030" data-name="Path 2030" d="M1541.36,1195.66h5.8c3.425,0,6.028,1.956,6.7,4.968.739,3.3-1.517,5.03-4.754,5.03h-2.92l1.063,4.735h-2.583Zm7.305,7.661c1.953,0,2.926-1.095,2.561-2.673-.387-1.725-1.828-2.632-3.762-2.632h-3l1.191,5.3Z" transform="translate(-950.061 -678.793)" fill="#16becf"/>
    <path id="Path_2031" data-name="Path 2031" d="M1585.19,1195.66h2.583l2.776,12.376h7.731l.528,2.356h-10.315Z" transform="translate(-979.86 -678.793)" fill="#16becf"/>
    <path id="Path_2032" data-name="Path 2032" d="M1635.33,1195.33h2.395l9.8,14.838h-2.731l-2.289-3.557h-6.953l-.714,3.557h-2.648Zm5.714,8.989-3.867-5.894-1.2,5.894Z" transform="translate(-1011.814 -678.569)" fill="#16becf"/>
    <path id="Path_2033" data-name="Path 2033" d="M1673.53,1204.585l-7.84-8.925h3.044l5.58,6.524,2.7-6.524h2.961l-3.842,8.861,1.316,5.871h-2.606Z" transform="translate(-1034.589 -678.793)" fill="#16becf"/>
    <circle id="Ellipse_92" data-name="Ellipse 92" cx="1.966" cy="1.966" r="1.966" transform="translate(648.73 527.834)" fill="#16becf"/>
    <circle id="Ellipse_93" data-name="Ellipse 93" cx="1.966" cy="1.966" r="1.966" transform="translate(657.118 527.834)" fill="#16becf"/>
    <circle id="Ellipse_94" data-name="Ellipse 94" cx="1.966" cy="1.966" r="1.966" transform="translate(665.432 527.834)" fill="#16becf"/>
  </g>
</svg>
