<svg xmlns="http://www.w3.org/2000/svg" xmlns:xlink="http://www.w3.org/1999/xlink" width="719.145" height="557.212" viewBox="0 0 719.145 557.212">
  <defs>
    <radialGradient id="radial-gradient" cx="0.5" cy="0.513" r="0.625" gradientTransform="matrix(0.382, 0.75, -0.658, 1.008, 4.774, 1.062)" gradientUnits="objectBoundingBox">
      <stop offset="0" stop-color="#000020"/>
      <stop offset="0.22" stop-color="#0a113b"/>
      <stop offset="0.37" stop-color="#0c1340"/>
      <stop offset="0.53" stop-color="#11194d"/>
      <stop offset="0.7" stop-color="#192364"/>
      <stop offset="0.88" stop-color="#253184"/>
      <stop offset="1" stop-color="#2f3c9e"/>
    </radialGradient>
    <linearGradient id="linear-gradient" x1="0.358" y1="0.131" x2="0.671" y2="0.94" gradientUnits="objectBoundingBox">
      <stop offset="0" stop-color="#84e4a4"/>
      <stop offset="1" stop-color="#68b69d"/>
    </linearGradient>
    <linearGradient id="linear-gradient-2" x1="0.96" y1="0.471" x2="-0.113" y2="0.741" gradientUnits="objectBoundingBox">
      <stop offset="0.09" stop-color="#84e4a4"/>
      <stop offset="0.97" stop-color="#3c53d7"/>
    </linearGradient>
    <linearGradient id="linear-gradient-3" y1="0.5" x2="1" y2="0.5" gradientUnits="objectBoundingBox">
      <stop offset="0" stop-color="#70c5a3"/>
      <stop offset="0.49" stop-color="#0a11ab"/>
      <stop offset="1"/>
    </linearGradient>
    <linearGradient id="linear-gradient-4" x1="0" y1="0.495" x2="0.991" y2="0.495" xlink:href="#linear-gradient-3"/>
    <linearGradient id="linear-gradient-5" x1="0.002" y1="0.5" x2="1" y2="0.5" xlink:href="#linear-gradient-3"/>
    <linearGradient id="linear-gradient-7" x1="0" y1="0.527" x2="1" y2="0.527" xlink:href="#linear-gradient-3"/>
    <linearGradient id="linear-gradient-8" x1="0.002" y1="0.5" x2="1" y2="0.5" xlink:href="#linear-gradient-3"/>
    <linearGradient id="linear-gradient-9" x1="-0.004" y1="0.522" x2="0.996" y2="0.522" xlink:href="#linear-gradient-3"/>
    <linearGradient id="linear-gradient-10" x1="-0.001" y1="0.5" x2="0.999" y2="0.5" xlink:href="#linear-gradient-3"/>
    <linearGradient id="linear-gradient-12" x1="0" y1="0.5" x2="0.999" y2="0.5" xlink:href="#linear-gradient-3"/>
    <linearGradient id="linear-gradient-13" x1="-68.863" y1="25.612" x2="-68.568" y2="26.465" xlink:href="#linear-gradient"/>
    <linearGradient id="linear-gradient-14" x1="-77.374" y1="27.932" x2="-78.009" y2="28.238" xlink:href="#linear-gradient-2"/>
    <linearGradient id="linear-gradient-15" x1="-632.404" y1="248.677" x2="-631.344" y2="248.677" xlink:href="#linear-gradient-3"/>
    <linearGradient id="linear-gradient-16" x1="-611.876" y1="258.722" x2="-610.844" y2="258.722" xlink:href="#linear-gradient-3"/>
    <linearGradient id="linear-gradient-17" x1="-665.371" y1="239.317" x2="-664.2" y2="239.317" xlink:href="#linear-gradient-3"/>
    <linearGradient id="linear-gradient-18" x1="-705.839" y1="229.361" x2="-704.524" y2="229.361" xlink:href="#linear-gradient-3"/>
    <linearGradient id="linear-gradient-19" x1="-583.421" y1="269.526" x2="-582.381" y2="269.526" xlink:href="#linear-gradient-3"/>
    <linearGradient id="linear-gradient-20" x1="-554.534" y1="283.008" x2="-553.481" y2="283.008" xlink:href="#linear-gradient-3"/>
    <linearGradient id="linear-gradient-21" x1="-511.365" y1="312.612" x2="-510.29" y2="312.612" xlink:href="#linear-gradient-3"/>
    <linearGradient id="linear-gradient-22" x1="-448.115" y1="313.76" x2="-447.007" y2="313.76" xlink:href="#linear-gradient-3"/>
    <linearGradient id="linear-gradient-23" x1="-770.962" y1="214.638" x2="-769.386" y2="214.638" xlink:href="#linear-gradient-3"/>
    <linearGradient id="linear-gradient-24" x1="-708.903" y1="194.384" x2="-707.245" y2="194.384" xlink:href="#linear-gradient-3"/>
    <linearGradient id="linear-gradient-25" x1="-84.937" y1="31.114" x2="-86.112" y2="33.004" xlink:href="#linear-gradient-2"/>
    <linearGradient id="linear-gradient-26" x1="49.782" y1="19.872" x2="50.077" y2="20.725" xlink:href="#linear-gradient"/>
    <linearGradient id="linear-gradient-27" x1="55.985" y1="21.454" x2="55.345" y2="21.758" xlink:href="#linear-gradient-2"/>
    <linearGradient id="linear-gradient-28" x1="421.09" y1="194.905" x2="422.111" y2="194.905" xlink:href="#linear-gradient-3"/>
    <linearGradient id="linear-gradient-29" x1="439.039" y1="188.031" x2="440.115" y2="188.031" xlink:href="#linear-gradient-3"/>
    <linearGradient id="linear-gradient-30" x1="404.805" y1="204.066" x2="405.838" y2="204.066" xlink:href="#linear-gradient-3"/>
    <linearGradient id="linear-gradient-31" x1="387.48" y1="214.212" x2="388.529" y2="214.212" xlink:href="#linear-gradient-3"/>
    <linearGradient id="linear-gradient-32" x1="458.863" y1="180.367" x2="460.051" y2="180.367" xlink:href="#linear-gradient-3"/>
    <linearGradient id="linear-gradient-33" x1="484.793" y1="173.398" x2="486.129" y2="173.398" xlink:href="#linear-gradient-3"/>
    <linearGradient id="linear-gradient-34" x1="547.223" y1="160.593" x2="548.881" y2="160.593" xlink:href="#linear-gradient-3"/>
    <linearGradient id="linear-gradient-35" x1="453.36" y1="142.461" x2="454.963" y2="142.461" xlink:href="#linear-gradient-3"/>
    <linearGradient id="linear-gradient-36" x1="362.186" y1="234.166" x2="363.252" y2="234.166" xlink:href="#linear-gradient-3"/>
    <linearGradient id="linear-gradient-37" x1="326.669" y1="267.22" x2="327.761" y2="267.22" xlink:href="#linear-gradient-3"/>
    <linearGradient id="linear-gradient-38" x1="62.536" y1="24.139" x2="61.356" y2="26.035" xlink:href="#linear-gradient-2"/>
    <linearGradient id="linear-gradient-39" x1="0.5" x2="0.5" y2="1" gradientUnits="objectBoundingBox">
      <stop offset="0" stop-color="#16becf"/>
      <stop offset="1" stop-color="#0799a8"/>
    </linearGradient>
    <linearGradient id="linear-gradient-40" x1="0.639" y1="0.996" x2="0.458" y2="0.314" gradientUnits="objectBoundingBox">
      <stop offset="0" stop-color="#16becf"/>
      <stop offset="1" stop-color="#3fffac"/>
    </linearGradient>
    <linearGradient id="linear-gradient-41" x1="0.5" x2="0.5" y2="1" gradientUnits="objectBoundingBox">
      <stop offset="0" stop-color="#0799a8"/>
      <stop offset="1" stop-color="#16becf"/>
    </linearGradient>
    <linearGradient id="linear-gradient-42" x1="-9.385" y1="32.902" x2="-8.483" y2="33.739" gradientUnits="objectBoundingBox">
      <stop offset="0" stop-color="#62a4a1"/>
      <stop offset="1" stop-color="#2f3c9e"/>
    </linearGradient>
    <linearGradient id="linear-gradient-43" x1="0.495" y1="0.06" x2="0.519" y2="0.885" gradientUnits="objectBoundingBox">
      <stop offset="0" stop-color="#f1ebf9" stop-opacity="0"/>
      <stop offset="0.28" stop-color="#f3effa" stop-opacity="0"/>
      <stop offset="0.3" stop-color="#f3f0fa" stop-opacity="0"/>
      <stop offset="0.38" stop-color="#f1f3fb" stop-opacity="0.039"/>
      <stop offset="0.5" stop-color="#ecfafd" stop-opacity="0.129"/>
      <stop offset="0.57" stop-color="#e9ffff" stop-opacity="0.2"/>
      <stop offset="0.64" stop-color="#e9ffff" stop-opacity="0.302"/>
      <stop offset="0.78" stop-color="#e8ffff" stop-opacity="0.561"/>
      <stop offset="0.98" stop-color="#e6ffff" stop-opacity="0.961"/>
      <stop offset="1" stop-color="#e6ffff"/>
    </linearGradient>
    <linearGradient id="linear-gradient-44" x1="0.175" y1="-8.611" x2="0.936" y2="-8.023" xlink:href="#linear-gradient-2"/>
    <linearGradient id="linear-gradient-45" x1="3.734" y1="-21.152" x2="3.734" y2="-21.951" xlink:href="#linear-gradient-2"/>
    <linearGradient id="linear-gradient-46" x1="3.266" y1="-30.393" x2="3.266" y2="-31.521" xlink:href="#linear-gradient-2"/>
    <linearGradient id="linear-gradient-47" x1="2.792" y1="-18.654" x2="2.792" y2="-19.229" xlink:href="#linear-gradient-2"/>
    <linearGradient id="linear-gradient-48" x1="2.325" y1="-53.125" x2="2.325" y2="-55.053" xlink:href="#linear-gradient-2"/>
    <linearGradient id="linear-gradient-49" x1="1.857" y1="-36.09" x2="1.857" y2="-37.406" xlink:href="#linear-gradient-2"/>
    <linearGradient id="linear-gradient-50" x1="1.39" y1="-22.829" x2="1.39" y2="-23.671" xlink:href="#linear-gradient-2"/>
    <linearGradient id="linear-gradient-51" x1="0.922" y1="-47.499" x2="0.922" y2="-49.206" xlink:href="#linear-gradient-2"/>
    <linearGradient id="linear-gradient-52" x1="0.448" y1="-44.222" x2="0.448" y2="-45.807" xlink:href="#linear-gradient-2"/>
    <linearGradient id="linear-gradient-53" x1="-0.019" y1="-33.152" x2="-0.019" y2="-34.344" xlink:href="#linear-gradient-2"/>
    <linearGradient id="linear-gradient-54" x1="3.967" y1="-6.184" x2="4.728" y2="-5.595" xlink:href="#linear-gradient-2"/>
    <linearGradient id="linear-gradient-55" x1="4.751" y1="0.398" x2="4.925" y2="0.659" xlink:href="#linear-gradient-2"/>
  </defs>
  <g id="banner" transform="translate(-58.466 -100.292)">
    <g id="OBJECTS" transform="translate(35.942 100.292)">
      <g id="Group_3716" data-name="Group 3716" transform="translate(77.728 228.085)" opacity="0.8">
        <path id="Path_16786" data-name="Path 16786" d="M595.447,527.249,344.031,382.6c-11.238-6.494-9.819-17.931,3.17-25.423L572.861,226.893c12.966-7.492,32.782-8.312,44.019-1.818l251.394,144.8c11.238,6.494,9.819,17.931-3.17,25.423L639.466,525.476C626.5,532.967,606.685,533.788,595.447,527.249Z" transform="translate(-336.45 -220.693)" opacity="0.6" fill="url(#radial-gradient)"/>
      </g>
      <g id="Group_3717" data-name="Group 3717" transform="translate(30.881 428.819)" opacity="0.7">
        <path id="Path_16787" data-name="Path 16787" d="M140.26,379.487l59.646-34.422,61.109-6.295L309.378,366.7l42.889-1.729,37.126-21.433" transform="translate(-21.753 -301.482)" fill="none" stroke="#0799a8" stroke-miterlimit="10" stroke-width="0.53"/>
        <path id="Path_16788" data-name="Path 16788" d="M193.92,351.1l46.99,27.13,50.292-2.017,64.411-37.193" transform="translate(43.524 -301.178)" fill="none" stroke="#16becf" stroke-miterlimit="10" stroke-width="0.53"/>
        <path id="Path_16789" data-name="Path 16789" d="M485.681,332.625a5.386,5.386,0,0,1-4.876,0,1.485,1.485,0,0,1,0-2.815,5.386,5.386,0,0,1,4.876,0,1.485,1.485,0,0,1,0,2.815Z" transform="translate(-115.226 -289.397)" fill="#16becf"/>
        <path id="Path_16790" data-name="Path 16790" d="M499.891,330.735a5.387,5.387,0,0,1-4.876,0,1.485,1.485,0,0,1,0-2.815,5.387,5.387,0,0,1,4.876,0,1.485,1.485,0,0,1,0,2.815Z" transform="translate(-97.94 -291.696)" fill="#16becf"/>
        <path id="Path_16791" data-name="Path 16791" d="M470.751,347.555a5.386,5.386,0,0,1-4.876,0,1.485,1.485,0,0,1,0-2.815,5.387,5.387,0,0,1,4.876,0,1.485,1.485,0,0,1,0,2.815Z" transform="translate(-133.388 -271.234)" fill="#16becf"/>
        <path id="Path_16792" data-name="Path 16792" d="M468.751,342.405a5.386,5.386,0,0,1-4.876,0,1.485,1.485,0,0,1,0-2.815,5.386,5.386,0,0,1,4.876,0,1.485,1.485,0,0,1,0,2.815Z" transform="translate(-135.821 -277.499)" fill="#16becf"/>
        <path id="Path_16793" data-name="Path 16793" d="M427.521,330.665a5.386,5.386,0,0,1-4.876,0,1.485,1.485,0,0,1,0-2.815,5.387,5.387,0,0,1,4.876,0,1.485,1.485,0,0,1,0,2.815Z" transform="translate(-185.977 -291.781)" fill="#16becf"/>
        <path id="Path_16794" data-name="Path 16794" d="M426.771,336.275a5.386,5.386,0,0,1-4.876,0,1.485,1.485,0,0,1,0-2.815,5.386,5.386,0,0,1,4.876,0,1.485,1.485,0,0,1,0,2.815Z" transform="translate(-186.889 -284.956)" fill="#16becf"/>
        <path id="Path_16795" data-name="Path 16795" d="M373.111,348.955a5.386,5.386,0,0,1-4.876,0,1.485,1.485,0,0,1,0-2.815,5.386,5.386,0,0,1,4.876,0,1.485,1.485,0,0,1,0,2.815Z" transform="translate(-252.166 -269.531)" fill="#16becf"/>
        <path id="Path_16796" data-name="Path 16796" d="M448.491,401.317l-59.624-34.422L327.737,360.6l-48.364,27.906L236.506,386.8,199.38,365.343" transform="translate(50.166 -274.926)" fill="none" stroke="#16becf" stroke-miterlimit="10" stroke-width="0.53"/>
        <path id="Path_16797" data-name="Path 16797" d="M346.875,372.93l-46.99,27.13-50.314-2.017L185.16,360.85" transform="translate(32.868 -274.622)" fill="none" stroke="#16becf" stroke-miterlimit="10" stroke-width="0.53"/>
        <path id="Path_16798" data-name="Path 16798" d="M427.175,354.455a5.386,5.386,0,0,0,4.876,0,1.485,1.485,0,0,0,0-2.815,5.386,5.386,0,0,0-4.876,0,1.485,1.485,0,0,0,0,2.815Z" transform="translate(-180.466 -262.841)" fill="#16becf"/>
        <path id="Path_16799" data-name="Path 16799" d="M412.965,352.565a5.387,5.387,0,0,0,4.876,0,1.485,1.485,0,0,0,0-2.815,5.387,5.387,0,0,0-4.876,0,1.485,1.485,0,0,0,0,2.815Z" transform="translate(-197.753 -265.14)" fill="#16becf"/>
        <path id="Path_16800" data-name="Path 16800" d="M442.105,369.385a5.386,5.386,0,0,0,4.876,0,1.485,1.485,0,0,0,0-2.815,5.386,5.386,0,0,0-4.876,0,1.485,1.485,0,0,0,0,2.815Z" transform="translate(-162.304 -244.679)" fill="#16becf"/>
        <path id="Path_16801" data-name="Path 16801" d="M444.1,364.225a5.386,5.386,0,0,0,4.876,0,1.485,1.485,0,0,0,0-2.815,5.386,5.386,0,0,0-4.876,0,1.485,1.485,0,0,0,0,2.815Z" transform="translate(-159.871 -250.956)" fill="#16becf"/>
        <path id="Path_16802" data-name="Path 16802" d="M485.335,352.5a5.387,5.387,0,0,0,4.876,0,1.485,1.485,0,0,0,0-2.815,5.387,5.387,0,0,0-4.876,0,1.485,1.485,0,0,0,0,2.815Z" transform="translate(-109.715 -265.225)" fill="#16becf"/>
        <path id="Path_16803" data-name="Path 16803" d="M486.085,358.105a5.386,5.386,0,0,0,4.876,0,1.485,1.485,0,0,0,0-2.815,5.386,5.386,0,0,0-4.876,0,1.485,1.485,0,0,0,0,2.815Z" transform="translate(-108.803 -258.401)" fill="#16becf"/>
        <path id="Path_16804" data-name="Path 16804" d="M539.745,370.785a5.386,5.386,0,0,0,4.876,0,1.485,1.485,0,0,0,0-2.815,5.386,5.386,0,0,0-4.876,0,1.485,1.485,0,0,0,0,2.815Z" transform="translate(-43.526 -242.975)" fill="#2a49f9"/>
        <path id="Path_16805" data-name="Path 16805" d="M351.863,363.477l-59.646-34.422-61.109-6.295-48.386,27.928-42.867-1.729L102.73,327.525" transform="translate(-67.407 -320.958)" fill="none" stroke="#16becf" stroke-miterlimit="10" stroke-width="0.53"/>
        <path id="Path_16806" data-name="Path 16806" d="M250.213,335.09l-46.989,27.13L152.931,360.2,88.52,323.01" transform="translate(-84.694 -320.653)" fill="none" stroke="#16becf" stroke-miterlimit="10" stroke-width="0.53"/>
        <path id="Path_16807" data-name="Path 16807" d="M330.555,316.615a5.386,5.386,0,0,0,4.876,0,1.485,1.485,0,0,0,0-2.815,5.386,5.386,0,0,0-4.876,0,1.485,1.485,0,0,0,0,2.815Z" transform="translate(-298.003 -308.872)" fill="#16becf"/>
        <path id="Path_16808" data-name="Path 16808" d="M316.325,314.725a5.387,5.387,0,0,0,4.876,0,1.485,1.485,0,0,0,0-2.815,5.386,5.386,0,0,0-4.876,0,1.485,1.485,0,0,0,0,2.815Z" transform="translate(-315.314 -311.172)" fill="#16becf"/>
        <path id="Path_16809" data-name="Path 16809" d="M345.455,331.545a5.386,5.386,0,0,0,4.876,0,1.485,1.485,0,0,0,0-2.815,5.387,5.387,0,0,0-4.876,0,1.485,1.485,0,0,0,0,2.815Z" transform="translate(-279.877 -290.71)" fill="#16becf"/>
        <path id="Path_16810" data-name="Path 16810" d="M347.455,326.4a5.387,5.387,0,0,0,4.876,0,1.485,1.485,0,0,0,0-2.815,5.386,5.386,0,0,0-4.876,0,1.485,1.485,0,0,0,0,2.815Z" transform="translate(-277.444 -296.975)" fill="#16becf"/>
        <path id="Path_16811" data-name="Path 16811" d="M388.685,314.655a5.386,5.386,0,0,0,4.876,0,1.485,1.485,0,0,0,0-2.815,5.387,5.387,0,0,0-4.876,0,1.485,1.485,0,0,0,0,2.815Z" transform="translate(-227.289 -311.257)" fill="#16becf"/>
        <path id="Path_16812" data-name="Path 16812" d="M389.445,320.275a5.386,5.386,0,0,0,4.876,0,1.485,1.485,0,0,0,0-2.815,5.386,5.386,0,0,0-4.876,0,1.485,1.485,0,0,0,0,2.815Z" transform="translate(-226.364 -304.42)" fill="#16becf"/>
        <path id="Path_16813" data-name="Path 16813" d="M443.1,332.945a5.387,5.387,0,0,0,4.876,0,1.485,1.485,0,0,0,0-2.815,5.386,5.386,0,0,0-4.876,0,1.485,1.485,0,0,0,0,2.815Z" transform="translate(-161.1 -289.007)" fill="#16becf"/>
      </g>
      <g id="Group_3718" data-name="Group 3718" transform="translate(443.214 313.65)" opacity="0.7">
        <path id="Path_16814" data-name="Path 16814" d="M542.641,311.539l-59.624-34.444L421.887,270.8l-48.364,27.928L330.656,297,293.53,275.566" transform="translate(-247.635 -268.998)" fill="none" stroke="#16becf" stroke-miterlimit="10" stroke-width="0.53"/>
        <path id="Path_16815" data-name="Path 16815" d="M441.025,283.13l-46.989,27.13-50.314-2.017L279.31,271.05" transform="translate(-264.933 -268.693)" fill="none" stroke="#16becf" stroke-miterlimit="10" stroke-width="0.53"/>
        <path id="Path_16816" data-name="Path 16816" d="M521.325,264.665a5.386,5.386,0,0,0,4.876,0,1.485,1.485,0,0,0,0-2.815,5.386,5.386,0,0,0-4.876,0,1.485,1.485,0,0,0,0,2.815Z" transform="translate(-478.267 -256.9)" fill="#16becf"/>
        <path id="Path_16817" data-name="Path 16817" d="M507.115,262.765a5.386,5.386,0,0,0,4.876,0,1.485,1.485,0,0,0,0-2.815,5.386,5.386,0,0,0-4.876,0,1.485,1.485,0,0,0,0,2.815Z" transform="translate(-495.553 -259.212)" fill="#2a49f9"/>
        <path id="Path_16818" data-name="Path 16818" d="M536.255,279.6a5.386,5.386,0,0,0,4.876,0,1.485,1.485,0,0,0,0-2.815,5.386,5.386,0,0,0-4.876,0,1.485,1.485,0,0,0,0,2.815Z" transform="translate(-460.105 -238.738)" fill="#16becf"/>
        <path id="Path_16819" data-name="Path 16819" d="M538.255,274.435a5.386,5.386,0,0,0,4.876,0,1.485,1.485,0,0,0,0-2.815,5.386,5.386,0,0,0-4.876,0,1.485,1.485,0,0,0,0,2.815Z" transform="translate(-457.672 -245.015)" fill="#16becf"/>
        <path id="Path_16820" data-name="Path 16820" d="M579.485,262.7a5.387,5.387,0,0,0,4.876,0,1.485,1.485,0,0,0,0-2.815,5.386,5.386,0,0,0-4.876,0,1.485,1.485,0,0,0,0,2.815Z" transform="translate(-407.516 -259.297)" fill="#16becf"/>
        <path id="Path_16821" data-name="Path 16821" d="M580.235,268.315a5.387,5.387,0,0,0,4.876,0,1.485,1.485,0,0,0,0-2.815,5.386,5.386,0,0,0-4.876,0,1.485,1.485,0,0,0,0,2.815Z" transform="translate(-406.604 -252.46)" fill="#16becf"/>
        <path id="Path_16822" data-name="Path 16822" d="M633.9,280.985a5.386,5.386,0,0,0,4.876,0,1.485,1.485,0,0,0,0-2.815,5.386,5.386,0,0,0-4.876,0,1.485,1.485,0,0,0,0,2.815Z" transform="translate(-341.327 -237.047)" fill="#16becf"/>
        <path id="Path_16823" data-name="Path 16823" d="M274.39,335.059l59.623-34.444,61.131-6.295,48.364,27.928" transform="translate(-270.918 -240.386)" fill="none" stroke="#16becf" stroke-miterlimit="10" stroke-width="0.53"/>
        <line id="Line_17" data-name="Line 17" x2="46.967" y2="27.108" transform="translate(122.408 66.59)" fill="none" stroke="#16becf" stroke-miterlimit="10" stroke-width="0.53"/>
        <path id="Path_16824" data-name="Path 16824" d="M561.651,286.215a5.386,5.386,0,0,1-4.876,0,1.485,1.485,0,0,1,0-2.815,5.386,5.386,0,0,1,4.876,0,1.485,1.485,0,0,1,0,2.815Z" transform="translate(-435.143 -230.685)" fill="#16becf"/>
        <path id="Path_16825" data-name="Path 16825" d="M560.891,291.865a5.385,5.385,0,0,1-4.876,0,1.485,1.485,0,0,1,0-2.815,5.386,5.386,0,0,1,4.876,0,1.485,1.485,0,0,1,0,2.815Z" transform="translate(-436.067 -223.812)" fill="#16becf"/>
        <path id="Path_16826" data-name="Path 16826" d="M507.231,304.515a5.386,5.386,0,0,1-4.876,0,1.485,1.485,0,0,1,0-2.815,5.386,5.386,0,0,1,4.876,0,1.485,1.485,0,0,1,0,2.815Z" transform="translate(-501.344 -208.423)" fill="#2a49f9"/>
        <path id="Path_16827" data-name="Path 16827" d="M277.52,350.529l59.646-34.444,61.109-6.295,48.364,27.928" transform="translate(-267.111 -221.567)" fill="none" stroke="#16becf" stroke-miterlimit="10" stroke-width="0.53"/>
        <line id="Line_18" data-name="Line 18" x2="46.967" y2="27.13" transform="translate(129.346 100.857)" fill="none" stroke="#16becf" stroke-miterlimit="10" stroke-width="0.53"/>
        <path id="Path_16828" data-name="Path 16828" d="M564.781,301.685a5.386,5.386,0,0,1-4.876,0,1.485,1.485,0,0,1,0-2.815,5.387,5.387,0,0,1,4.876,0,1.485,1.485,0,0,1,0,2.815Z" transform="translate(-431.335 -211.866)" fill="#16becf"/>
        <path id="Path_16829" data-name="Path 16829" d="M564.021,307.305a5.385,5.385,0,0,1-4.876,0,1.485,1.485,0,0,1,0-2.815,5.386,5.386,0,0,1,4.876,0,1.485,1.485,0,0,1,0,2.815Z" transform="translate(-432.259 -205.029)" fill="#16becf"/>
        <path id="Path_16830" data-name="Path 16830" d="M510.371,319.975a5.386,5.386,0,0,1-4.876,0,1.485,1.485,0,0,1,0-2.815,5.386,5.386,0,0,1,4.876,0,1.485,1.485,0,0,1,0,2.815Z" transform="translate(-497.524 -189.616)" fill="#16becf"/>
      </g>
      <g id="Group_3719" data-name="Group 3719" transform="translate(22.525 194.824)" opacity="0.7">
        <path id="Path_16831" data-name="Path 16831" d="M136.49,239.1l59.623,34.444,61.131,6.295,48.364-27.928,42.867,1.729L385.6,275.074" transform="translate(-17.983 -188.734)" fill="none" stroke="#16becf" stroke-miterlimit="10" stroke-width="0.53"/>
        <path id="Path_16832" data-name="Path 16832" d="M190.14,266.67l46.989-27.13,50.314,2.017,64.411,37.193" transform="translate(47.282 -188.199)" fill="none" stroke="#2a49f9" stroke-miterlimit="10" stroke-width="0.53"/>
        <path id="Path_16833" data-name="Path 16833" d="M481.9,244.42a5.386,5.386,0,0,0-4.876,0,1.485,1.485,0,0,0,0,2.815,5.386,5.386,0,0,0,4.876,0,1.485,1.485,0,0,0,0-2.815Z" transform="translate(-111.468 -159.278)" fill="#2a49f9"/>
        <path id="Path_16834" data-name="Path 16834" d="M496.111,246.32a5.386,5.386,0,0,0-4.876,0,1.485,1.485,0,0,0,0,2.815,5.386,5.386,0,0,0,4.876,0,1.485,1.485,0,0,0,0-2.815Z" transform="translate(-94.182 -156.967)" fill="#2a49f9"/>
        <path id="Path_16835" data-name="Path 16835" d="M466.971,229.5a5.387,5.387,0,0,0-4.876,0,1.485,1.485,0,0,0,0,2.815,5.386,5.386,0,0,0,4.876,0,1.485,1.485,0,0,0,0-2.815Z" transform="translate(-129.631 -177.428)" fill="#2a49f9"/>
        <path id="Path_16836" data-name="Path 16836" d="M464.981,234.65a5.386,5.386,0,0,0-4.876,0,1.485,1.485,0,0,0,0,2.815,5.386,5.386,0,0,0,4.876,0,1.485,1.485,0,0,0,0-2.815Z" transform="translate(-132.051 -171.163)" fill="#2a49f9"/>
        <path id="Path_16837" data-name="Path 16837" d="M423.751,246.39a5.386,5.386,0,0,0-4.876,0,1.485,1.485,0,0,0,0,2.815,5.386,5.386,0,0,0,4.876,0,1.485,1.485,0,0,0,0-2.815Z" transform="translate(-182.207 -156.881)" fill="#2a49f9"/>
        <path id="Path_16838" data-name="Path 16838" d="M422.991,240.77a5.386,5.386,0,0,0-4.876,0,1.485,1.485,0,0,0,0,2.815,5.386,5.386,0,0,0,4.876,0,1.485,1.485,0,0,0,0-2.815Z" transform="translate(-183.132 -163.718)" fill="#2a49f9"/>
        <path id="Path_16839" data-name="Path 16839" d="M369.331,228.1a5.386,5.386,0,0,0-4.876,0,1.485,1.485,0,0,0,0,2.815,5.386,5.386,0,0,0,4.876,0,1.485,1.485,0,0,0,0-2.815Z" transform="translate(-248.408 -179.131)" fill="#16becf"/>
        <path id="Path_16840" data-name="Path 16840" d="M444.733,217.27l-59.646,34.444-61.108,6.295-48.386-27.928-42.867,1.729L195.6,253.244" transform="translate(53.924 -215.29)" fill="none" stroke="#16becf" stroke-miterlimit="10" stroke-width="0.53"/>
        <path id="Path_16841" data-name="Path 16841" d="M343.083,244.84l-46.989-27.13-50.314,2.017L181.39,256.92" transform="translate(36.637 -214.755)" fill="none" stroke="#16becf" stroke-miterlimit="10" stroke-width="0.53"/>
        <path id="Path_16842" data-name="Path 16842" d="M423.405,222.6a5.386,5.386,0,0,1,4.876,0,1.485,1.485,0,0,1,0,2.815,5.386,5.386,0,0,1-4.876,0,1.485,1.485,0,0,1,0-2.815Z" transform="translate(-176.696 -185.822)" fill="#2a49f9"/>
        <path id="Path_16843" data-name="Path 16843" d="M409.2,224.49a5.386,5.386,0,0,1,4.876,0,1.485,1.485,0,0,1,0,2.815,5.386,5.386,0,0,1-4.876,0,1.485,1.485,0,0,1,0-2.815Z" transform="translate(-193.983 -183.522)" fill="#16becf"/>
        <path id="Path_16844" data-name="Path 16844" d="M438.325,207.67a5.385,5.385,0,0,1,4.876,0,1.485,1.485,0,0,1,0,2.815,5.386,5.386,0,0,1-4.876,0,1.485,1.485,0,0,1,0-2.815Z" transform="translate(-158.546 -203.984)" fill="#16becf"/>
        <path id="Path_16845" data-name="Path 16845" d="M440.325,212.82a5.386,5.386,0,0,1,4.876,0,1.485,1.485,0,0,1,0,2.815,5.386,5.386,0,0,1-4.876,0,1.485,1.485,0,0,1,0-2.815Z" transform="translate(-156.113 -197.719)" fill="#2a49f9"/>
        <path id="Path_16846" data-name="Path 16846" d="M481.555,224.56a5.386,5.386,0,0,1,4.876,0,1.485,1.485,0,0,1,0,2.815,5.386,5.386,0,0,1-4.876,0,1.485,1.485,0,0,1,0-2.815Z" transform="translate(-105.958 -183.437)" fill="#2a49f9"/>
        <path id="Path_16847" data-name="Path 16847" d="M482.315,218.94a5.386,5.386,0,0,1,4.876,0,1.485,1.485,0,0,1,0,2.815,5.386,5.386,0,0,1-4.876,0,1.485,1.485,0,0,1,0-2.815Z" transform="translate(-105.033 -190.274)" fill="#2a49f9"/>
        <path id="Path_16848" data-name="Path 16848" d="M535.965,206.27a5.386,5.386,0,0,1,4.876,0,1.485,1.485,0,0,1,0,2.815,5.386,5.386,0,0,1-4.876,0,1.485,1.485,0,0,1,0-2.815Z" transform="translate(-39.768 -205.687)" fill="#16becf"/>
        <path id="Path_16849" data-name="Path 16849" d="M348.083,255.11l-59.646,34.444-61.109,6.295-48.364-27.928L136.1,269.65,98.95,291.084" transform="translate(-63.65 -169.258)" fill="none" stroke="#16becf" stroke-miterlimit="10" stroke-width="0.53"/>
        <path id="Path_16850" data-name="Path 16850" d="M246.433,282.68l-46.99-27.13-50.292,2.017L84.74,294.76" transform="translate(-80.936 -168.723)" fill="none" stroke="#16becf" stroke-miterlimit="10" stroke-width="0.53"/>
        <path id="Path_16851" data-name="Path 16851" d="M326.755,260.43a5.386,5.386,0,0,1,4.876,0,1.485,1.485,0,0,1,0,2.815,5.387,5.387,0,0,1-4.876,0,1.485,1.485,0,0,1,0-2.815Z" transform="translate(-294.27 -139.802)" fill="#16becf"/>
        <path id="Path_16852" data-name="Path 16852" d="M312.555,262.32a5.387,5.387,0,0,1,4.876,0,1.485,1.485,0,0,1,0,2.815,5.386,5.386,0,0,1-4.876,0,1.485,1.485,0,0,1,0-2.815Z" transform="translate(-311.544 -137.503)" fill="#16becf"/>
        <path id="Path_16853" data-name="Path 16853" d="M341.685,245.51a5.386,5.386,0,0,1,4.876,0,1.485,1.485,0,0,1,0,2.815,5.386,5.386,0,0,1-4.876,0,1.485,1.485,0,0,1,0-2.815Z" transform="translate(-276.108 -157.952)" fill="#16becf"/>
        <path id="Path_16854" data-name="Path 16854" d="M343.675,250.66a5.386,5.386,0,0,1,4.876,0,1.485,1.485,0,0,1,0,2.815,5.386,5.386,0,0,1-4.876,0,1.485,1.485,0,0,1,0-2.815Z" transform="translate(-273.687 -151.687)" fill="#16becf"/>
        <path id="Path_16855" data-name="Path 16855" d="M384.905,262.4a5.386,5.386,0,0,1,4.876,0,1.485,1.485,0,0,1,0,2.815,5.386,5.386,0,0,1-4.876,0,1.485,1.485,0,0,1,0-2.815Z" transform="translate(-223.531 -137.405)" fill="#16becf"/>
        <path id="Path_16856" data-name="Path 16856" d="M385.665,256.78a5.386,5.386,0,0,1,4.876,0,1.485,1.485,0,0,1,0,2.815,5.386,5.386,0,0,1-4.876,0,1.485,1.485,0,0,1,0-2.815Z" transform="translate(-222.606 -144.242)" fill="#16becf"/>
        <path id="Path_16857" data-name="Path 16857" d="M439.325,244.11a5.386,5.386,0,0,1,4.876,0,1.485,1.485,0,0,1,0,2.815,5.386,5.386,0,0,1-4.876,0,1.485,1.485,0,0,1,0-2.815Z" transform="translate(-157.33 -159.655)" fill="#2a49f9"/>
      </g>
      <g id="_Group_" data-name="&lt;Group&gt;" transform="translate(292.373 77.513)">
        <path id="_Path_" data-name="&lt;Path&gt;" d="M488.1,265.644c-27.285,0-49.383-25.268-49.383-56.432S460.885,152.78,488.1,152.78s49.383,25.268,49.383,56.432-22.165,56.432-49.383,56.432" transform="translate(-426.684 -152.736)" fill="url(#linear-gradient)"/>
        <path id="_Path_2" data-name="&lt;Path&gt;" d="M445.392,209.214c0-28.814,18.907-52.6,43.332-56.011a43.494,43.494,0,0,0-6.051-.443c-27.285,0-49.383,25.268-49.383,56.432s22.165,56.432,49.383,56.432a43.792,43.792,0,0,0,6.051-.443c-24.381-3.413-43.332-27.174-43.332-56.011" transform="translate(-433.29 -152.76)" fill="url(#linear-gradient-2)"/>
        <g id="Group_3720" data-name="Group 3720" transform="translate(0 6.073)" opacity="0.5">
          <path id="_Path_3" data-name="&lt;Path&gt;" d="M445.37,179.14H433.29c0,1.352.111,2.7.244,4.034h12.1q-.177-1.995-.244-4.034" transform="translate(-433.29 -126.742)" fill="url(#linear-gradient-3)"/>
          <path id="_Path_4" data-name="&lt;Path&gt;" d="M445.9,174.6H433.707c-.177,1.33-.288,2.682-.377,4.034h12.1a30.666,30.666,0,0,1,.377-4.034" transform="translate(-433.241 -132.265)" fill="url(#linear-gradient-4)"/>
          <path id="_Path_5" data-name="&lt;Path&gt;" d="M445.882,183.69h-12.1q.4,2.039.909,4.034h12.1q-.51-1.973-.909-4.034" transform="translate(-432.694 -121.207)" fill="url(#linear-gradient-5)"/>
          <path id="_Path_6" data-name="&lt;Path&gt;" d="M447.162,188.24h-12.1c.51,1.374,1.086,2.726,1.684,4.034h12.1q-.909-1.973-1.684-4.034" transform="translate(-431.137 -115.672)" fill="url(#linear-gradient-3)"/>
          <path id="_Path_7" data-name="&lt;Path&gt;" d="M447.114,170h-12.08c-.4,1.33-.754,2.66-1.064,4.034h12.1c.31-1.352.643-2.7,1.042-4.034" transform="translate(-432.463 -137.861)" fill="url(#linear-gradient-7)"/>
          <path id="_Path_8" data-name="&lt;Path&gt;" d="M449.374,165.5h-12.1c-.665,1.308-1.286,2.66-1.862,4.034h12.1q.864-2.061,1.862-4.034" transform="translate(-430.711 -143.335)" fill="url(#linear-gradient-8)"/>
          <path id="_Path_9" data-name="&lt;Path&gt;" d="M453.836,160H441.8q-1.729,1.928-3.28,4.034h12.1A34.762,34.762,0,0,1,453.9,160" transform="translate(-426.928 -150.026)" fill="url(#linear-gradient-9)"/>
          <path id="_Path_10" data-name="&lt;Path&gt;" d="M460.9,155.5H448.778a48.772,48.772,0,0,0-5.918,4.034h12.1a48.886,48.886,0,0,1,5.94-4.034" transform="translate(-421.648 -155.5)" fill="url(#linear-gradient-10)"/>
          <path id="_Path_11" data-name="&lt;Path&gt;" d="M449.952,193.69h-12.1q1.4,2.106,2.97,4.034h12.1q-1.574-1.928-2.97-4.034" transform="translate(-427.743 -109.042)" fill="url(#linear-gradient-3)"/>
          <path id="_Path_12" data-name="&lt;Path&gt;" d="M441.78,198.24a49.935,49.935,0,0,0,5.1,4.034H459a49.827,49.827,0,0,1-5.12-4.034Z" transform="translate(-422.962 -103.507)" fill="url(#linear-gradient-12)"/>
        </g>
        <ellipse id="Ellipse_124" data-name="Ellipse 124" cx="39.897" cy="44.973" rx="39.897" ry="44.973" transform="translate(23.495 11.504)" fill="none" stroke="#707070" stroke-miterlimit="10" stroke-width="1.08" opacity="0.6"/>
        <ellipse id="Ellipse_125" data-name="Ellipse 125" cx="36.24" cy="40.85" rx="36.24" ry="40.85" transform="translate(27.462 15.781)" fill="none" stroke="#707070" stroke-miterlimit="10" stroke-width="0.32" opacity="0.6"/>
      </g>
      <path id="Path_16858" data-name="Path 16858" d="M484.962,173.658V165.39h-7.58v7.58H469.8v-7.58h-7.58v7.58h-7.58v37.858h7.58v7.58h7.58v-7.58h7.58v7.58h7.58v-8.267a11.26,11.26,0,0,0,4.61-18.22,11.26,11.26,0,0,0-4.61-18.219Zm-22.719,6.871h18.929a3.79,3.79,0,0,1,0,7.58H462.243Zm18.929,22.719H462.243v-7.58h18.929a3.79,3.79,0,0,1,0,7.58Z" transform="translate(-114.945 -59.883)" fill="#fff"/>
      <g id="_Group_2" data-name="&lt;Group&gt;" transform="translate(224.504 47.878)">
        <path id="_Path_13" data-name="&lt;Path&gt;" d="M433.945,174.3c-7.226,6.228-18.84,4.588-25.977-3.657s-7.048-19.948.177-26.221,18.84-4.588,25.977,3.657,7.048,19.948-.177,26.221" transform="translate(-402.67 -137.886)" fill="url(#linear-gradient-13)"/>
        <path id="_Path_14" data-name="&lt;Path&gt;" d="M430.17,149.59c6.65,7.625,7,18.242,1.33,24.736a15.346,15.346,0,0,0,1.707-1.263c7.226-6.228,7.292-17.976.177-26.221s-18.752-9.886-25.977-3.657a15.2,15.2,0,0,0-1.507,1.507c7.248-4.677,17.732-2.7,24.27,4.921" transform="translate(-398.74 -139.372)" fill="url(#linear-gradient-14)"/>
        <g id="Group_3721" data-name="Group 3721" transform="translate(12.745)" opacity="0.5">
          <path id="_Path_15" data-name="&lt;Path&gt;" d="M417.06,145.751q.443.554.865,1.13l3.214-2.771q-.4-.576-.865-1.13l-3.192,2.771" transform="translate(-397.91 -135.023)" fill="url(#linear-gradient-15)"/>
          <path id="_Path_16" data-name="&lt;Path&gt;" d="M416,144.591l1.02.975,3.192-2.771-1.02-.975L416,144.591" transform="translate(-399.199 -136.434)" fill="url(#linear-gradient-16)"/>
          <path id="_Path_17" data-name="&lt;Path&gt;" d="M418,147.083q.355.621.687,1.263l3.192-2.771q-.31-.643-.687-1.286L418,147.083" transform="translate(-396.766 -133.429)" fill="url(#linear-gradient-17)"/>
          <path id="_Path_18" data-name="&lt;Path&gt;" d="M418.67,148.521q.266.731.466,1.463l3.192-2.771q-.2-.731-.465-1.463l-3.192,2.771" transform="translate(-395.951 -131.653)" fill="url(#linear-gradient-18)"/>
          <path id="_Path_19" data-name="&lt;Path&gt;" d="M414.68,143.611l1.2.82,3.214-2.771c-.4-.288-.8-.554-1.2-.82l-3.192,2.771" transform="translate(-400.805 -137.626)" fill="url(#linear-gradient-19)"/>
          <path id="_Path_20" data-name="&lt;Path&gt;" d="M413.16,142.821l1.419.643,3.214-2.771-1.419-.643-3.192,2.771" transform="translate(-402.654 -138.587)" fill="url(#linear-gradient-20)"/>
          <path id="_Path_21" data-name="&lt;Path&gt;" d="M410.93,142.221q.887.111,1.8.31l3.214-2.771a18.219,18.219,0,0,0-1.8-.31l-3.214,2.771" transform="translate(-405.367 -139.317)" fill="url(#linear-gradient-21)"/>
          <path id="_Path_22" data-name="&lt;Path&gt;" d="M408.42,142.449a17.131,17.131,0,0,1,2.482-.288l3.214-2.771a16.988,16.988,0,0,0-2.482.288l-3.214,2.771" transform="translate(-408.42 -139.39)" fill="url(#linear-gradient-22)"/>
          <path id="_Path_23" data-name="&lt;Path&gt;" d="M419.18,150.651a11.5,11.5,0,0,0,.133,1.751l3.214-2.771a11.783,11.783,0,0,0-.133-1.751l-3.192,2.771" transform="translate(-395.331 -129.062)" fill="url(#linear-gradient-23)"/>
          <path id="_Path_24" data-name="&lt;Path&gt;" d="M419.423,152.741a17.438,17.438,0,0,1-.443,2.216l3.214-2.771a17.539,17.539,0,0,0,.421-2.216Z" transform="translate(-395.574 -126.52)" fill="url(#linear-gradient-24)"/>
        </g>
        <path id="_Compound_Path_" data-name="&lt;Compound Path&gt;" d="M429.488,169.495a.687.687,0,0,1-.975,0,.732.732,0,0,1,0-1.02,11.084,11.084,0,0,0,.931-.909.709.709,0,0,1,1.042.953,12.52,12.52,0,0,1-1.064,1.042h0m-3.591,2.106-.222.133a12.859,12.859,0,0,1-1.419.421.709.709,0,1,1-.332-1.374,11.622,11.622,0,0,0,1.263-.377.709.709,0,0,1,.709,1.2m6.871-6.649a.709.709,0,0,1-1.108-.8,11.972,11.972,0,0,0,.421-1.241.709.709,0,1,1,1.352.377,13.276,13.276,0,0,1-.488,1.4.686.686,0,0,1-.2.266m-12.368,7.359a.709.709,0,0,1-.51.177,4.145,4.145,0,0,1-1.463-.177.709.709,0,0,1,.244-1.4,12.382,12.382,0,0,1,1.308.177.709.709,0,0,1,.4,1.241m13.3-12.833a.709.709,0,0,1-1.175-.51v-1.33a.709.709,0,1,1,1.4-.155q0,.731,0,1.463a.71.71,0,0,1-.244.554m-18.707,11.371a.709.709,0,0,1-.776,0,14.288,14.288,0,0,1-1.286-.687.709.709,0,1,1,.709-1.219l1.175.621a.683.683,0,0,1,.155,1.153m17.555-16.8-.2.111a.709.709,0,0,1-.909-.4,12.125,12.125,0,0,0-.554-1.219.709.709,0,0,1,1.263-.643q.333.665.6,1.33a.71.71,0,0,1-.2.8m-22.165,13.587a.709.709,0,0,1-.953,0c-.333-.332-.643-.665-.953-1.02h0a.687.687,0,0,1,0-.975.731.731,0,0,1,1.02,0c.288.332.576.643.887.953a.709.709,0,0,1,0,1h0m19.173-18.33a.709.709,0,0,1-1,0c-.288-.332-.6-.665-.909-.975a.709.709,0,0,1,1-1c.333.332.665.687.975,1.042h0a.687.687,0,0,1,0,1m-22.453,13.831h-.133a.709.709,0,0,1-.953-.31,14.326,14.326,0,0,1-.6-1.33.709.709,0,0,1,1.308-.532,12.1,12.1,0,0,0,.554,1.219.709.709,0,0,1-.177.842m18.2-17.4a.709.709,0,0,1-.82,0l-1.175-.621a.709.709,0,0,1,.6-1.263,14.266,14.266,0,0,1,1.286.687.709.709,0,0,1,.244.975l-.155.177m-19.815,12.08a.688.688,0,0,1-.377.155.709.709,0,0,1-.776-.621v-1.463a.709.709,0,1,1,1.419,0q0,.665,0,1.33a.709.709,0,0,1-.244.621M420,143.629a.709.709,0,0,1-.576.155l-1.308-.177a.709.709,0,0,1,0-1.4,4.145,4.145,0,0,1,1.463.177.709.709,0,0,1,.332,1.219m-13.964,8.666a.709.709,0,0,1-1.13-.731,13.287,13.287,0,0,1,.488-1.4.709.709,0,0,1,1.308.532,11.656,11.656,0,0,0-.443,1.241.709.709,0,0,1-.222.333m8.622-8.334a.709.709,0,0,1-.288.155,11.505,11.505,0,0,0-1.263.377.709.709,0,1,1-.488-1.33,13.015,13.015,0,0,1,1.419-.421.709.709,0,0,1,.621,1.219m-5.94,3.5a.709.709,0,0,1-.975-1.02,12.516,12.516,0,0,1,1.042-1h0a.687.687,0,0,1,.975,0,.709.709,0,0,1,0,1,11.054,11.054,0,0,0-.931.887h0" transform="translate(-400.784 -135.96)" fill="url(#linear-gradient-25)"/>
      </g>
      <path id="Path_16859" data-name="Path 16859" d="M414.945,146.506l-1.884-2.216-1.995,1.729,1.729,1.995-1.995,1.729-1.729-1.995-1.995,1.729,1.729,1.995L406.81,153.2l8.644,10.019,1.995-1.729,1.729,1.995,1.995-1.729-1.729-1.995,1.995-1.729,1.729,1.995,1.995-1.729-1.884-2.216a3.923,3.923,0,0,0-2.948-5.874,3.923,3.923,0,0,0-5.386-3.768Zm-4.433,7,5.009-4.433a1.33,1.33,0,0,1,1.729,1.995l-5.009,4.433Zm10.2,1.685-5.009,4.433-1.729-1.995,5.009-4.433a1.33,1.33,0,1,1,1.729,1.995Z" transform="translate(-173.129 -85.551)" fill="#fff"/>
      <g id="_Group_3" data-name="&lt;Group&gt;" transform="translate(406.533 7.446)">
        <path id="_Path_25" data-name="&lt;Path&gt;" d="M493.229,171.8c-10.927-9.176-11.282-26.731-.8-39.21s27.839-15.161,38.766-6.007,11.282,26.731.8,39.21-27.839,15.161-38.766,6.007" transform="translate(-484.795 -121.148)" fill="url(#linear-gradient-26)"/>
        <path id="_Path_26" data-name="&lt;Path&gt;" d="M525.945,161.6c-9.686,11.548-25.268,14.7-36.2,7.846a22.924,22.924,0,0,0,2.216,2.217c10.927,9.176,28.282,6.494,38.766-6.007s10.129-30.033-.8-39.21a22.734,22.734,0,0,0-2.571-1.862c8.644,9.575,8.223,25.467-1.485,37.015" transform="translate(-478.767 -116.974)" fill="url(#linear-gradient-27)"/>
        <g id="Group_3722" data-name="Group 3722" transform="translate(21.423 15.32)" opacity="0.5">
          <path id="_Path_27" data-name="&lt;Path&gt;" d="M506.583,141.65q-.709.8-1.463,1.529l4.854,4.078q.754-.731,1.463-1.529l-4.832-4.056" transform="translate(-481.492 -111.528)" fill="url(#linear-gradient-28)"/>
          <path id="_Path_28" data-name="&lt;Path&gt;" d="M507.889,139.762c-.377.6-.8,1.175-1.219,1.729l4.854,4.056c.421-.576.82-1.153,1.2-1.751l-4.832-4.056" transform="translate(-479.607 -113.851)" fill="url(#linear-gradient-29)"/>
          <path id="_Path_29" data-name="&lt;Path&gt;" d="M504.949,143.3q-.842.687-1.729,1.308l4.854,4.056q.864-.621,1.729-1.308l-4.854-4.056" transform="translate(-483.804 -109.521)" fill="url(#linear-gradient-30)"/>
          <path id="_Path_30" data-name="&lt;Path&gt;" d="M503.119,144.69a22.08,22.08,0,0,1-2.039,1.042l4.854,4.078c.687-.332,1.374-.665,2.039-1.042l-4.854-4.078" transform="translate(-486.407 -107.83)" fill="url(#linear-gradient-31)"/>
          <path id="_Path_31" data-name="&lt;Path&gt;" d="M508.881,137.61c-.288.665-.6,1.308-.931,1.973l4.854,4.078c.332-.643.643-1.308.931-1.973l-4.832-4.056" transform="translate(-478.05 -116.443)" fill="url(#linear-gradient-32)"/>
          <path id="_Path_32" data-name="&lt;Path&gt;" d="M509.521,135.18q-.266,1.13-.621,2.217l4.854,4.078c.244-.754.443-1.485.621-2.217l-4.854-4.078" transform="translate(-476.894 -119.399)" fill="url(#linear-gradient-33)"/>
          <path id="_Path_33" data-name="&lt;Path&gt;" d="M509.53,131.75v2.726l4.854,4.078v-2.7l-4.854-4.078" transform="translate(-476.128 -123.571)" fill="url(#linear-gradient-34)"/>
          <path id="_Path_34" data-name="&lt;Path&gt;" d="M508.83,128.06a25.559,25.559,0,0,1,1.02,3.613l4.854,4.078a25.452,25.452,0,0,0-1.019-3.613l-4.854-4.078" transform="translate(-476.979 -128.06)" fill="url(#linear-gradient-35)"/>
          <path id="_Path_35" data-name="&lt;Path&gt;" d="M500.459,145.94q-1.263.355-2.549.621l4.854,4.078a25.625,25.625,0,0,0,2.549-.621l-4.854-4.078" transform="translate(-490.263 -106.309)" fill="url(#linear-gradient-36)"/>
          <path id="_Path_36" data-name="&lt;Path&gt;" d="M497.873,146.44a26.054,26.054,0,0,1-3.413,0l4.854,4.078a26.183,26.183,0,0,0,3.391,0Z" transform="translate(-494.46 -105.701)" fill="url(#linear-gradient-37)"/>
        </g>
        <path id="_Compound_Path_2" data-name="&lt;Compound Path&gt;" d="M493.865,164.337a1.02,1.02,0,0,1,0-1.463,1.086,1.086,0,0,1,1.529,0,16.58,16.58,0,0,0,1.574,1.175,1.064,1.064,0,0,1-1.153,1.773,18.79,18.79,0,0,1-1.773-1.33h0m-3.968-4.81a1.044,1.044,0,0,1-.244-.288,19.285,19.285,0,0,1-.975-1.995,1.064,1.064,0,1,1,1.951-.82,17.383,17.383,0,0,0,.864,1.773,1.064,1.064,0,0,1-1.6,1.33m11.437,8.556a1.064,1.064,0,0,1,.909-1.84,17.908,17.908,0,0,0,1.95.332,1.064,1.064,0,1,1-.244,2.084,19.787,19.787,0,0,1-2.216-.377,1.042,1.042,0,0,1-.443-.222M487.637,151.7a1.041,1.041,0,0,1-.377-.731v-2.216a1.108,1.108,0,1,1,2.216,0q0,1,0,1.995a1.064,1.064,0,0,1-1.729.887m22.165,16.646a1.064,1.064,0,0,1,.488-1.84,15.237,15.237,0,0,0,1.928-.465,1.064,1.064,0,1,1,.576,2.017,20.377,20.377,0,0,1-2.217.51,1.042,1.042,0,0,1-.864-.222M488.59,143.369a1.064,1.064,0,0,1-.332-1.108c.2-.687.443-1.4.709-2.061a1.064,1.064,0,1,1,1.973.776c-.244.621-.466,1.263-.643,1.884a1.057,1.057,0,0,1-1.684.51M517.6,165.29a1.063,1.063,0,0,1,.133-1.707c.576-.355,1.13-.709,1.662-1.108a1.064,1.064,0,0,1,1.241,1.707c-.576.421-1.2.82-1.818,1.2a1.064,1.064,0,0,1-1.219,0m-25.312-29.391a1.064,1.064,0,0,1-.177-1.419c.4-.554.842-1.13,1.285-1.662h0a1.019,1.019,0,0,1,1.463,0,1.086,1.086,0,0,1,0,1.507c-.421.488-.82,1.02-1.2,1.529a1.064,1.064,0,0,1-1.463.244h0m31.651,23.96a1.064,1.064,0,0,1-.133-1.485c.421-.51.82-1.042,1.219-1.574a1.064,1.064,0,0,1,1.707,1.219c-.421.576-.865,1.153-1.308,1.707h0a1.042,1.042,0,0,1-1.485.111M498.076,130.27l-.177-.2a1.064,1.064,0,0,1,.244-1.463c.576-.421,1.2-.82,1.817-1.2a1.064,1.064,0,0,1,1.086,1.818,16.634,16.634,0,0,0-1.662,1.108,1.064,1.064,0,0,1-1.285,0m30.033,22.719a1.064,1.064,0,0,1-.31-1.2c.244-.621.465-1.263.643-1.884a1.064,1.064,0,0,1,2.017.6c-.2.687-.443,1.4-.709,2.061a1.042,1.042,0,0,1-1.374.6l-.288-.177m-22.564-26.376a1.041,1.041,0,0,1-.333-.51,1.064,1.064,0,0,1,.732-1.308,20.385,20.385,0,0,1,2.216-.51,1.064,1.064,0,0,1,.377,2.084,14.374,14.374,0,0,0-1.928.465,1.042,1.042,0,0,1-.975-.2m23.96,17.688a1.042,1.042,0,0,1-.377-.82q0-1,0-1.995a1.064,1.064,0,0,1,2.106-.177v2.216a1.064,1.064,0,0,1-1.729.8M513.7,125.5a1.064,1.064,0,0,1,.8-1.862,19.7,19.7,0,0,1,2.216.377,1.064,1.064,0,0,1-.488,2.061,17.339,17.339,0,0,0-1.951-.355,1.064,1.064,0,0,1-.554-.244m14.363,10.75a1.064,1.064,0,0,1-.288-.4,17.26,17.26,0,0,0-.865-1.773,1.064,1.064,0,1,1,1.84-1.042,19.473,19.473,0,0,1,.975,1.973,1.064,1.064,0,0,1-1.64,1.219m-6.649-7.935a1.064,1.064,0,0,1,1.263-1.685,18.718,18.718,0,0,1,1.729,1.286h0a1.042,1.042,0,0,1,.111,1.463,1.064,1.064,0,0,1-1.507.111,16.708,16.708,0,0,0-1.529-1.153h0" transform="translate(-481.796 -118.12)" fill="url(#linear-gradient-38)"/>
      </g>
      <path id="Path_16860" data-name="Path 16860" d="M516.19,138.179l2.771-3.3-3.036-2.549-2.549,3.037-3.059-2.549,2.549-3.037-3.037-2.549-2.549,3.037-3.037-2.549L491.52,142.878l3.037,2.549-2.549,3.037,3.036,2.549,2.549-3.037,3.037,2.549-2.549,3.037,3.037,2.549,2.771-3.3a5.874,5.874,0,0,0,7.979-5.741,5.874,5.874,0,0,0,4.278-8.866Zm-11.415-4.81,7.58,6.361a1.982,1.982,0,0,1-2.549,3.037l-7.58-6.361Zm0,15.515-7.58-6.361,2.549-3.037,7.58,6.361a1.982,1.982,0,0,1-2.549,3.037Z" transform="translate(-70.081 -106.304)" fill="#fff"/>
      <path id="Path_16861" data-name="Path 16861" d="M547.587,445.717,383.279,351.139c-7.337-4.233-7.514-26.487-4.433-34l154.068-79.793c8.489-4.9,21.434-5.43,28.814-1.2L729.76,321.726c6.162,9.752,2.7,32.848-5.785,37.68L576.512,444.542C567.868,449.418,554.923,449.861,547.587,445.717Z" transform="translate(-209.443 22.718)" fill="#25d6c2"/>
      <path id="Path_16862" data-name="Path 16862" d="M546.834,428.069,382.526,333.491c-7.337-4.233-6.406-11.7,2.061-16.6L532.05,231.755c8.489-4.9,21.433-5.43,28.814-1.2l164.308,94.577c7.337,4.233,6.406,11.7-2.061,16.6L575.648,426.872C567.115,431.77,554.171,432.28,546.834,428.069Z" transform="translate(-208.69 15.918)" fill="#3efdae"/>
      <path id="Path_16863" data-name="Path 16863" d="M536.165,411.088,391.1,327.615c-7.336-4.233-6.406-11.7,2.061-16.6l128.711-74.319c8.489-4.9,21.433-5.43,28.814-1.2l145.069,83.473c7.337,4.233,6.406,11.7-2.061,16.6L564.979,409.891C556.49,414.789,543.524,415.321,536.165,411.088Z" transform="translate(-198.265 21.927)" fill="url(#linear-gradient-39)"/>
      <path id="Path_16864" data-name="Path 16864" d="M524.648,381.432,401.478,310.5c-5.5-3.17-5.63-10.75-3.391-16.38l115.5-59.845c6.361-3.679,16.07-4.078,21.566-.887l125.941,64.167a13.3,13.3,0,0,1-4.433,19.195L546.1,380.59C539.853,384.269,530.145,384.668,524.648,381.432Z" transform="translate(-185.396 20.219)" fill="url(#linear-gradient-40)"/>
      <path id="Path_16867" data-name="Path 16867" d="M520.1,359.666l-115.39-66.495c-5.164-2.97-5.275-10.085-3.192-15.36l108.209-56.1c5.962-3.436,15.05-3.812,20.192-.842l118.028,60.178a12.524,12.524,0,0,1-4.056,17.976L540.312,358.868C534.35,362.259,525.262,362.636,520.1,359.666Z" transform="translate(-181.112 5.17)" fill="url(#linear-gradient-41)"/>
      <path id="Path_16870" data-name="Path 16870" d="M516.232,339.826,407.868,277.454c-4.832-2.793-4.965-9.464-2.992-14.429L506.5,210.339c5.586-3.236,14.141-3.591,18.973-.776L636.3,266.017a11.747,11.747,0,0,1-3.812,16.89L535.161,339.05C529.619,342.264,521.086,342.619,516.232,339.826Z" transform="translate(-176.935 -8.459)" fill="#1fccc7"/>
      <path id="Path_16871" data-name="Path 16871" d="M515.726,336.166,407.362,273.794c-4.832-2.793-4.233-7.736,1.352-10.949L506,206.679c5.586-3.236,14.141-3.591,18.973-.776l108.364,62.372c4.854,2.793,4.234,7.736-1.352,10.949l-97.326,56.144C529.113,338.6,520.58,338.959,515.726,336.166Z" transform="translate(-176.429 -12.912)" fill="#16becf"/>
      <path id="Path_16872" data-name="Path 16872" d="M508.7,324.963l-95.686-55.057c-4.832-2.793-4.233-7.736,1.352-10.949l84.891-49.007c5.586-3.236,14.141-3.591,18.973-.776L613.936,264.3c4.854,2.793,4.234,7.736-1.352,10.949l-84.8,48.9C522.085,327.4,513.552,327.755,508.7,324.963Z" transform="translate(-169.556 -8.934)" fill="#16becf"/>
      <path id="Path_16873" data-name="Path 16873" d="M492.076,298.075,428.8,261.658c-2.837-1.64-2.9-15.316-1.751-18.22l59.335-30.765a12.368,12.368,0,0,1,11.082-.465l64.721,32.959c2.372,3.746,1.042,17.732-2.216,19.66L503.159,297.61A12.368,12.368,0,0,1,492.076,298.075Z" transform="translate(-149.366 -4.255)" fill="#2bdfbd"/>
      <path id="Path_16874" data-name="Path 16874" d="M491.778,286.15,428.5,249.734c-2.837-1.64-2.46-4.433.8-6.406l56.809-32.8a12.368,12.368,0,0,1,11.082-.465l63.3,36.439c2.837,1.64,2.46,4.433-.8,6.406L502.86,285.685A12.368,12.368,0,0,1,491.778,286.15Z" transform="translate(-149.068 -6.871)" fill="url(#linear-gradient-42)"/>
      <path id="Path_16875" data-name="Path 16875" d="M487.715,279.593l-55.878-32.139c-2.837-1.64-2.46-4.433.8-6.406l49.583-28.615a12.368,12.368,0,0,1,11.082-.465l55.878,32.139c2.837,1.64,2.46,4.433-.8,6.406L498.8,279.128A12.368,12.368,0,0,1,487.715,279.593Z" transform="translate(-145.005 -4.547)" fill="#c6f8ff"/>
      <path id="Path_16876" data-name="Path 16876" d="M370.59,181.294,495.068,356.4,558.1,392.791a14.518,14.518,0,0,0,14.518,0L635.66,356.4,753.133,185.549s-107.367-72.5-189.6-67.514C477.247,123.377,370.59,181.294,370.59,181.294Z" transform="translate(-217.19 -117.789)" opacity="0.8" fill="url(#linear-gradient-43)"/>
      <g id="Group_3723" data-name="Group 3723" transform="translate(244.229 137.003)" opacity="0.5">
        <rect id="Rectangle_6383" data-name="Rectangle 6383" width="0.997" height="0.997" rx="0.12" transform="translate(187.495)" fill="#fff"/>
        <rect id="Rectangle_6384" data-name="Rectangle 6384" width="0.997" height="0.997" rx="0.12" transform="translate(182.508 68.955)" fill="#fff"/>
        <rect id="Rectangle_6385" data-name="Rectangle 6385" width="0.997" height="0.997" rx="0.12" transform="translate(150.945 53.994)" fill="#fff"/>
        <rect id="Rectangle_6386" data-name="Rectangle 6386" width="0.997" height="0.997" rx="0.12" transform="translate(129.778 58.892)" fill="#fff"/>
        <path id="Path_16877" data-name="Path 16877" d="M465.818,197.37l-.421-.177a.266.266,0,0,1-.133-.355l.177-.421a.266.266,0,0,1,.355-.133l.421.177a.266.266,0,0,1,.133.355l-.177.421a.266.266,0,0,1-.355.133Z" transform="translate(-346.28 -159.335)" fill="#fff"/>
        <path id="Path_16878" data-name="Path 16878" d="M458.318,216.19l-.421-.177a.266.266,0,0,1-.133-.355l.177-.421a.266.266,0,0,1,.355-.133l.421.177a.266.266,0,0,1,.133.355l-.177.421a.266.266,0,0,1-.355.133Z" transform="translate(-355.404 -136.44)" fill="#fff"/>
        <path id="Path_16879" data-name="Path 16879" d="M446.738,189.09l-.421-.177a.266.266,0,0,1-.133-.355l.177-.421a.266.266,0,0,1,.355-.133l.421.177a.266.266,0,0,1,.133.355l-.177.421a.266.266,0,0,1-.355.133Z" transform="translate(-369.491 -169.407)" fill="#fff"/>
        <path id="Path_16880" data-name="Path 16880" d="M427.438,197.61l-.421-.177a.266.266,0,0,1-.133-.355l.177-.421a.266.266,0,0,1,.355-.133l.421.177a.266.266,0,0,1,.133.355l-.177.421a.266.266,0,0,1-.355.133Z" transform="translate(-392.969 -159.043)" fill="#fff"/>
        <path id="Path_16881" data-name="Path 16881" d="M436.918,225.89l-.421-.177a.266.266,0,0,1-.133-.355l.177-.421a.266.266,0,0,1,.355-.133l.421.177a.266.266,0,0,1,.133.355l-.177.421a.266.266,0,0,1-.355.133Z" transform="translate(-381.437 -124.641)" fill="#fff"/>
        <rect id="Rectangle_6387" data-name="Rectangle 6387" width="0.997" height="0.997" rx="0.12" transform="matrix(0.917, 0.398, -0.398, 0.917, 63.148, 57.35)" fill="#fff"/>
        <path id="Path_16882" data-name="Path 16882" d="M427.438,183.32l-.421-.177a.266.266,0,0,1-.133-.355l.177-.421a.266.266,0,0,1,.355-.133l.421.177a.266.266,0,0,1,.133.355l-.177.421a.266.266,0,0,1-.355.133Z" transform="translate(-392.969 -176.426)" fill="#fff"/>
        <path id="Path_16883" data-name="Path 16883" d="M412.148,202.13l-.421-.177a.266.266,0,0,1-.133-.355l.177-.421a.266.266,0,0,1,.355-.133l.421.177a.266.266,0,0,1,.133.355L412.5,202a.266.266,0,0,1-.355.133Z" transform="translate(-411.569 -153.544)" fill="#fff"/>
        <path id="Path_16884" data-name="Path 16884" d="M412.148,187.82l-.421-.177a.266.266,0,0,1-.133-.355l.177-.421a.266.266,0,0,1,.355-.133l.421.177a.266.266,0,0,1,.133.355l-.177.421a.266.266,0,0,1-.355.133Z" transform="translate(-411.569 -170.952)" fill="#fff"/>
        <path id="Path_16885" data-name="Path 16885" d="M506.318,197.37l-.421-.177a.266.266,0,0,1-.133-.355l.177-.421a.266.266,0,0,1,.355-.133l.421.177a.266.266,0,0,1,.133.355l-.177.421a.266.266,0,0,1-.355.133Z" transform="translate(-297.012 -159.335)" fill="#fff"/>
        <rect id="Rectangle_6388" data-name="Rectangle 6388" width="0.997" height="0.997" rx="0.12" transform="matrix(0.917, 0.398, -0.398, 0.917, 211.734, 15.798)" fill="#fff"/>
        <rect id="Rectangle_6389" data-name="Rectangle 6389" width="0.997" height="0.997" rx="0.12" transform="matrix(0.917, 0.398, -0.398, 0.917, 170.107, 45.661)" fill="#fff"/>
        <path id="Path_16886" data-name="Path 16886" d="M480.868,184.7l-.421-.177a.266.266,0,0,1-.133-.355l.177-.421a.266.266,0,0,1,.355-.133l.421.177a.266.266,0,0,1,.133.355l-.177.421a.266.266,0,0,1-.355.133Z" transform="translate(-327.972 -174.748)" fill="#fff"/>
        <rect id="Rectangle_6390" data-name="Rectangle 6390" width="0.997" height="0.997" rx="0.12" transform="translate(105.973 116.543)" fill="#fff"/>
        <path id="Path_16887" data-name="Path 16887" d="M483.9,217.75l-.421-.177a.266.266,0,0,1-.133-.355l.177-.421a.266.266,0,0,1,.355-.133l.421.177a.266.266,0,0,1,.133.355l-.177.421a.266.266,0,0,1-.355.133Z" transform="translate(-324.286 -134.543)" fill="#fff"/>
        <path id="Path_16888" data-name="Path 16888" d="M427.908,210.05l-.421-.177a.266.266,0,0,1-.133-.355l.177-.421a.266.266,0,0,1,.355-.133l.421.177a.266.266,0,0,1,.133.355l-.177.421a.266.266,0,0,1-.355.133Z" transform="translate(-392.397 -143.91)" fill="#fff"/>
        <rect id="Rectangle_6391" data-name="Rectangle 6391" width="0.997" height="0.997" rx="0.12" transform="translate(126.799 103.275) rotate(23.48)" fill="#fff"/>
        <path id="Path_16889" data-name="Path 16889" d="M474.088,191.23l-.421-.177a.266.266,0,0,1-.133-.355l.177-.421a.266.266,0,0,1,.355-.133l.421.177a.266.266,0,0,1,.133.355l-.177.421a.266.266,0,0,1-.355.133Z" transform="translate(-336.22 -166.804)" fill="#fff"/>
      </g>
      <g id="Group_3724" data-name="Group 3724" transform="translate(218.38 22.389)" opacity="0.5">
        <rect id="Rectangle_6392" data-name="Rectangle 6392" width="0.997" height="0.997" rx="0.12" transform="translate(152.679)" fill="#fff"/>
        <rect id="Rectangle_6393" data-name="Rectangle 6393" width="0.997" height="0.997" rx="0.12" transform="translate(147.714 68.933)" fill="#fff"/>
        <rect id="Rectangle_6394" data-name="Rectangle 6394" width="0.997" height="0.997" rx="0.12" transform="translate(118.212 34.267)" fill="#fff"/>
        <rect id="Rectangle_6395" data-name="Rectangle 6395" width="0.997" height="0.997" rx="0.12" transform="translate(94.961 58.87)" fill="#fff"/>
        <path id="Path_16890" data-name="Path 16890" d="M434.6,136.1l-.421-.177a.266.266,0,0,1-.133-.355l.177-.421a.266.266,0,0,1,.355-.133l.421.177a.266.266,0,0,1,.133.355l-.177.421a.266.266,0,0,1-.355.133Z" transform="translate(-358.41 -119.254)" fill="#fff"/>
        <rect id="Rectangle_6396" data-name="Rectangle 6396" width="0.997" height="0.997" rx="0.12" transform="matrix(0.917, 0.398, -0.398, 0.917, 67.705, 78.579)" fill="#fff"/>
        <rect id="Rectangle_6397" data-name="Rectangle 6397" width="0.997" height="0.997" rx="0.12" transform="matrix(0.917, 0.398, -0.398, 0.917, 42.122, 18.504)" fill="#fff"/>
        <path id="Path_16891" data-name="Path 16891" d="M409.558,174.18l-.421-.177a.266.266,0,0,1-.133-.355l.177-.421a.266.266,0,0,1,.355-.133l.421.177a.266.266,0,0,1,.133.355l-.177.421a.266.266,0,0,1-.355.133Z" transform="translate(-388.871 -72.931)" fill="#fff"/>
        <path id="Path_16892" data-name="Path 16892" d="M413.158,154.9l-.421-.177a.266.266,0,0,1-.133-.355l.177-.421a.266.266,0,0,1,.355-.133l.421.177a.266.266,0,0,1,.133.355l-.177.421a.266.266,0,0,1-.355.133Z" transform="translate(-384.492 -96.384)" fill="#fff"/>
        <path id="Path_16893" data-name="Path 16893" d="M478.958,145.61l-.421-.177a.266.266,0,0,1-.133-.355l.177-.421a.266.266,0,0,1,.355-.133l.421.177a.266.266,0,0,1,.133.355l-.177.421a.266.266,0,0,1-.355.133Z" transform="translate(-304.447 -107.686)" fill="#fff"/>
        <path id="Path_16894" data-name="Path 16894" d="M487.508,164.88l-.421-.177a.266.266,0,0,1-.133-.355l.177-.421a.266.266,0,0,1,.355-.133l.421.177a.266.266,0,0,1,.133.355l-.177.421a.266.266,0,0,1-.355.133Z" transform="translate(-294.046 -84.244)" fill="#fff"/>
        <path id="Path_16895" data-name="Path 16895" d="M507.628,163.09l-.421-.177a.266.266,0,0,1-.133-.355l.177-.421a.266.266,0,0,1,.355-.133l.421.177a.266.266,0,0,1,.133.355l-.177.421a.266.266,0,0,1-.355.133Z" transform="translate(-269.57 -86.421)" fill="#fff"/>
        <path id="Path_16896" data-name="Path 16896" d="M520.9,157.14l-.421-.177a.266.266,0,0,1-.133-.355l.177-.421a.266.266,0,0,1,.355-.133l.421.177a.266.266,0,0,1,.133.355l-.177.421a.266.266,0,0,1-.355.133Z" transform="translate(-253.427 -93.659)" fill="#fff"/>
        <rect id="Rectangle_6398" data-name="Rectangle 6398" width="0.997" height="0.997" rx="0.12" transform="translate(71.178 116.543)" fill="#fff"/>
        <rect id="Rectangle_6399" data-name="Rectangle 6399" width="1.001" height="1.001" rx="0.12" transform="translate(126.637 84.781) rotate(23.499)" fill="#fff"/>
        <rect id="Rectangle_6400" data-name="Rectangle 6400" width="0.997" height="0.997" rx="0.12" transform="matrix(0.917, 0.398, -0.398, 0.917, 0.397, 64.983)" fill="#fff"/>
        <path id="Path_16897" data-name="Path 16897" d="M441.838,175.61l-.421-.177a.266.266,0,0,1-.133-.355l.177-.421a.266.266,0,0,1,.355-.133l.421.177a.266.266,0,0,1,.133.355l-.177.421a.266.266,0,0,1-.355.133Z" transform="translate(-349.603 -71.191)" fill="#fff"/>
        <path id="Path_16898" data-name="Path 16898" d="M465.488,140.98l-.421-.177a.266.266,0,0,1-.133-.355l.177-.421a.266.266,0,0,1,.355-.133l.421.177a.266.266,0,0,1,.133.355l-.177.421a.266.266,0,0,1-.354.133Z" transform="translate(-320.833 -113.318)" fill="#fff"/>
      </g>
      <path id="Path_16899" data-name="Path 16899" d="M200.889,269.388,90.02,333.4V232.882L200.889,168.87Z" transform="translate(-51.988 -79.344)" opacity="0.15" fill="url(#linear-gradient-44)"/>
      <g id="Group_3725" data-name="Group 3725" transform="translate(43.152 114.528)" opacity="0.2">
        <line id="Line_19" data-name="Line 19" y1="57.119" x2="98.944" transform="translate(0 21.899)" fill="none" stroke="#e2f4ff" stroke-miterlimit="10" stroke-width="0.14"/>
        <line id="Line_20" data-name="Line 20" y1="57.119" x2="98.944" fill="none" stroke="#e2f4ff" stroke-miterlimit="10" stroke-width="0.14"/>
        <line id="Line_21" data-name="Line 21" y1="57.119" x2="98.944" transform="translate(0 43.798)" fill="none" stroke="#e2f4ff" stroke-miterlimit="10" stroke-width="0.14"/>
        <line id="Line_22" data-name="Line 22" y1="57.119" x2="98.944" transform="translate(0 65.697)" fill="none" stroke="#e2f4ff" stroke-miterlimit="10" stroke-width="0.14"/>
      </g>
      <path id="Path_16900" data-name="Path 16900" d="M132.25,248.031l3.413-1.951V183.31l-3.413,1.951Z" transform="translate(-0.616 -61.778)" fill="url(#linear-gradient-45)"/>
      <path id="Path_16901" data-name="Path 16901" d="M127.59,240.369l3.413-1.95V194.51l-3.413,1.973Z" transform="translate(-6.285 -48.153)" fill="url(#linear-gradient-46)"/>
      <path id="Path_16902" data-name="Path 16902" d="M122.93,258.275l3.413-1.973V184.71l-3.413,1.95Z" transform="translate(-11.954 -60.075)" fill="url(#linear-gradient-47)"/>
      <path id="Path_16903" data-name="Path 16903" d="M118.27,235.309l3.413-1.973V208.49l-3.413,1.95Z" transform="translate(-17.623 -31.147)" fill="url(#linear-gradient-48)"/>
      <path id="Path_16904" data-name="Path 16904" d="M113.61,244.848l3.413-1.973V205.55l-3.413,1.973Z" transform="translate(-23.291 -34.723)" fill="url(#linear-gradient-49)"/>
      <path id="Path_16905" data-name="Path 16905" d="M108.95,259.679l3.413-1.973V198.26l-3.413,1.951Z" transform="translate(-28.96 -43.591)" fill="url(#linear-gradient-50)"/>
      <path id="Path_16906" data-name="Path 16906" d="M104.29,245.289l3.413-1.973V214.99l-3.413,1.973Z" transform="translate(-34.629 -23.24)" fill="url(#linear-gradient-51)"/>
      <path id="Path_16907" data-name="Path 16907" d="M99.63,249.257l3.413-1.973V216.63L99.63,218.6Z" transform="translate(-40.298 -21.245)" fill="url(#linear-gradient-52)"/>
      <path id="Path_16908" data-name="Path 16908" d="M94.97,257.847l3.413-1.973v-41.4l-3.413,1.973Z" transform="translate(-45.967 -23.872)" fill="url(#linear-gradient-53)"/>
      <path id="Path_16909" data-name="Path 16909" d="M316.96,270.828,427.829,334.84V234.322L316.96,170.31Z" transform="translate(224.081 -77.592)" opacity="0.15" fill="url(#linear-gradient-54)"/>
      <g id="Group_3726" data-name="Group 3726" transform="translate(547.846 117.72)" opacity="0.2">
        <line id="Line_23" data-name="Line 23" x1="98.922" y1="57.141" transform="translate(0 21.899)" fill="none" stroke="#e2f4ff" stroke-miterlimit="10" stroke-width="0.14"/>
        <line id="Line_24" data-name="Line 24" x1="98.922" y1="57.119" fill="none" stroke="#e2f4ff" stroke-miterlimit="10" stroke-width="0.14"/>
        <line id="Line_25" data-name="Line 25" x1="98.922" y1="57.119" transform="translate(0 43.82)" fill="none" stroke="#e2f4ff" stroke-miterlimit="10" stroke-width="0.14"/>
        <line id="Line_26" data-name="Line 26" x1="98.922" y1="57.119" transform="translate(0 65.719)" fill="none" stroke="#e2f4ff" stroke-miterlimit="10" stroke-width="0.14"/>
      </g>
      <path id="Path_16910" data-name="Path 16910" d="M560.885,179.494c4.876,2.815,6.428,29.546,12.612,33s3.5-22.165,8.378-19.15c6.073,3.857,2.948,37.06,11.082,42s10.794-40.185,19.572-35.464,6.339,36.084,12.656,39.742,5.962-6.228,10.329-3.7c3.923,2.216,7.891,18.641,9.42,26.288l-.709,20.081L547.63,226.527l2.5-18.042C553.615,192.283,557.183,177.344,560.885,179.494Z" transform="translate(-1.823 -42.978)" opacity="0.6" fill="url(#linear-gradient-55)"/>
    </g>
  </g>
</svg>
