<svg xmlns="http://www.w3.org/2000/svg" xmlns:xlink="http://www.w3.org/1999/xlink" width="784.02" height="634.724" viewBox="0 0 784.02 634.724"><defs><style>.a{fill:#16becf;}.b{opacity:0.87;}.c{isolation:isolate;}.d{fill:#4ec5ff;}.e{fill:#1b5aa6;}.f{fill:#349ddc;}.g{fill:url(#a);}.h{fill:#cdd7fa;opacity:0.61;}.i{fill:url(#b);}.j{fill:url(#c);}.k{fill:url(#d);}.l{fill:#005c65;}</style><linearGradient id="a" x1="0.742" y1="0.666" x2="-0.022" y2="1.234" gradientUnits="objectBoundingBox"><stop offset="0" stop-color="#3fffac"/><stop offset="1" stop-color="#73caff" stop-opacity="0"/></linearGradient><linearGradient id="b" x1="0.939" y1="0.727" x2="0.175" y2="1.295" xlink:href="#a"/><linearGradient id="c" x1="0.921" y1="0.493" x2="0.157" y2="1.061" xlink:href="#a"/><linearGradient id="d" x1="0.873" y1="0.621" x2="0.109" y2="1.189" xlink:href="#a"/></defs><g transform="translate(-281.185 -159.727)"><path class="a" d="M541.274,166.922c-.318.23-4.286-4.592-10.833-13.061l-.322-.414.179-.546c1.485-4.528,3.266-9.974,5.272-16.1.528.537,1.141,1.161,1.752,1.787l-16.03,5.467-.785.268-.682-.517-13.536-10.178c.852-.425,1.8-.9,2.751-1.367.025,5.469.051,11.133.078,16.931v0l0,.919-.756.521c-4.78,3.291-9.447,6.505-13.949,9.605-.152-1.029-.3-2.033-.45-3.038,5.606,1.845,10.988,3.619,16.088,5.3l.814.268.226.8c1.673,5.829,3.235,11.288,4.664,16.283-.87-.148-1.671-.282-2.467-.418,3.9-5.165,7.317-9.693,10.2-13.518l.347-.459.523.027c10.71.539,16.918,1.042,16.909,1.434s-6.23.608-16.956.651l.868-.432c-2.725,3.941-5.953,8.608-9.632,13.932l-1.611,2.329-.859-2.745c-1.55-4.959-3.246-10.377-5.058-16.164.344.351.687.7,1.042,1.065-5.12-1.613-10.525-3.315-16.151-5.089l-3.32-1.045,2.868-1.993,13.909-9.664-.754,1.443v0c0-5.8-.007-11.464-.009-16.934l0-3.494,2.754,2.127,13.4,10.357-1.467-.248,16.155-5.078,2.742-.861-.989,2.649c-2.259,6.035-4.268,11.4-5.937,15.864-.049-.338-.1-.676-.141-.962C538.2,161.441,541.59,166.691,541.274,166.922Z" transform="translate(257.792 48.874)"/><path class="a" d="M310.3,309.914c-.369-.13,1.331-6.138,4.559-16.343l.159-.5.55-.165c4.565-1.36,10.057-3,16.231-4.841-.141.74-.307,1.6-.47,2.458-4.129-3.044-8.728-6.44-13.627-10.055l-.669-.492.036-.857c.2-5.3.423-11,.651-16.92l2.689,1.481c-4.481,3.136-9.12,6.384-13.869,9.711l0,0-.756.526-.859-.322c-5.427-2.051-10.728-4.056-15.842-5.986.76-.711,1.5-1.407,2.241-2.1,1.675,5.659,3.286,11.091,4.812,16.238l.244.823-.523.64c-3.841,4.7-7.433,9.091-10.722,13.111-.376-.8-.72-1.535-1.065-2.266l16.925.684.573.022.277.445c5.662,9.109,8.784,14.5,8.458,14.71s-4.051-4.773-10.2-13.562l.85.468-16.938.025-2.83,0,1.765-2.266c3.19-4.1,6.675-8.583,10.4-13.368-.094.481-.186.964-.282,1.463-1.593-5.127-3.275-10.538-5.024-16.171l-1.031-3.324,3.27,1.221c5.123,1.913,10.431,3.894,15.867,5.921l-1.613.2,0,0c4.765-3.306,9.415-6.532,13.909-9.652l2.87-1.993-.179,3.474c-.306,5.919-.6,11.614-.875,16.913-.219-.467-.438-.937-.631-1.349,4.807,3.731,9.323,7.239,13.377,10.384l2.273,1.76-2.742.7c-6.246,1.586-11.8,2.993-16.419,4.165l.709-.664C313.054,304.27,310.67,310.041,310.3,309.914Z" transform="translate(0 209.793)"/><g transform="translate(453.055 730.161)"><path class="a" d="M383.32,375.8c.139-.23,2.886,1.15,7.688,3.821s11.659,6.626,20.021,11.549l.566.333.069.693c.714,7.183,1.535,15.435,2.425,24.4l.081.805-.624.555c-7.351,6.552-15.4,13.732-23.832,21.242l0,0-.971.859-1.1-.676c-9.511-5.861-18.607-11.462-26.941-16.594l-.714-.441-.06-.81c-.685-9.015-1.309-17.265-1.857-24.474l-.051-.7.5-.427c7.453-6.38,13.565-11.518,17.857-15.01s6.767-5.34,6.946-5.138-1.957,2.432-5.95,6.268-9.836,9.27-17.074,15.889c.145-.36.289-.72.447-1.123.718,7.2,1.537,15.43,2.432,24.427-.255-.414-.51-.823-.772-1.25,8.371,5.073,17.506,10.607,27.062,16.394-.682.063-1.367.121-2.069.186l0,0c8.482-7.449,16.591-14.567,23.989-21.061-.188.47-.376.942-.544,1.36-.678-8.988-1.3-17.26-1.848-24.456.224.358.445.718.635,1.025-8.194-5.2-14.842-9.5-19.405-12.554S383.179,376.027,383.32,375.8Z" transform="translate(-358.018 -375.774)"/><path class="a" d="M359.615,421.387c-.64-.723,8.3-9.688,19.974-20.023.953-.837,1.892-1.662,2.783-2.447-.195.5-.385.973-.575,1.449-1.1-13.82-1.3-24.505-.412-24.582s2.541,10.48,3.863,24.28l.081.859-.66.59c-.886.79-1.816,1.622-2.763,2.467C370.236,414.316,360.255,422.112,359.615,421.387Z" transform="translate(-356.083 -375.76)"/><path class="a" d="M370.3,386.782c.5-.825,6.959,2.206,14.417,6.764s13.095,8.923,12.594,9.746-6.957-2.2-14.417-6.764S369.8,387.605,370.3,386.782Z" transform="translate(-342.863 -362.325)"/></g><g transform="translate(968.531 425.827)"><path class="a" d="M588.471,281.534c-.219-.157,2.244-4.1,6.843-11.046s11.334-16.875,19.662-29.008l.376-.546.691-.022c10.918-.34,23.5-.734,37.171-1.161l.814-.027.51.655c9.185,11.76,19.258,24.662,29.8,38.16l0,0,.792,1.022-.743,1.054c-9.771,13.844-19.115,27.085-27.668,39.207l-.481.68-.814.011c-13.724.221-26.273.421-37.218.595l-.689.011-.4-.53c-9-11.842-16.265-21.526-21.228-28.288s-7.626-10.6-7.415-10.769,3.279,3.364,8.6,9.845,12.909,15.918,22.159,27.566l-1.089-.517c10.941-.347,23.485-.74,37.2-1.172-.427.228-.854.456-1.3.693,8.5-12.164,17.775-25.447,27.476-39.341.018.687.033,1.369.049,2.078l0,0c-10.469-13.547-20.481-26.5-29.608-38.305.461.217.919.436,1.324.629-13.676.215-26.261.414-37.187.584l1.065-.568c-8.59,11.947-15.654,21.651-20.625,28.333S588.693,281.689,588.471,281.534Z" transform="translate(-588.458 -239.724)"/><path class="a" d="M655.377,297.222c-.761.591-13.146-14.057-27.66-32.717-1.177-1.523-2.338-3.022-3.438-4.447l1.407.669c-21.018.38-37.2.029-37.223-.857s16.128-2,37.142-2.608l.868-.022.541.691c1.109,1.418,2.275,2.91,3.463,4.427C644.989,281.017,656.14,296.629,655.377,297.222Z" transform="translate(-588.45 -218.059)"/><path class="a" d="M605.127,279.76c-.79-.555,4.749-9.8,12.37-20.645s14.439-19.193,15.229-18.638-4.747,9.8-12.37,20.647S605.917,280.315,605.127,279.76Z" transform="translate(-567.932 -238.824)"/></g><g transform="translate(999.065 333.68)"><path class="a" d="M603.086,207.529c-.166-.51,8.677-3.877,22.819-8.784l.617-.215.575.4c4.583,3.181,9.836,6.827,15.538,10.786l.664.461.016.839c.15,7.6.313,15.913.488,24.615v0l.018,1.3-1.228.391c-8.207,2.615-16.052,5.114-23.251,7.4l-.8.255-.651-.479c-5.6-4.145-10.724-7.939-15.218-11.263l-.564-.418,0-.653c.094-15.131.434-24.631.973-24.64s1.163,9.48,1.709,24.6c-.179-.345-.36-.687-.559-1.069l15.553,10.791c-.479-.074-.957-.148-1.452-.226,7.176-2.36,15-4.935,23.179-7.628-.4.557-.8,1.116-1.21,1.689h0c-.087-8.7-.17-17.023-.246-24.62.233.452.47.9.678,1.3-5.581-4.129-10.719-7.934-15.2-11.254.416.063.832.13,1.19.186C612.391,205.592,603.253,208.041,603.086,207.529Z" transform="translate(-602.108 -198.53)"/><path class="a" d="M618.314,238.245c-.964.016-1.9-9.719-2.085-21.741-.009-.978-.02-1.939-.029-2.857.251.481.488.931.723,1.38-8.621-6.322-14.876-11.708-14.361-12.431s7.628,3.478,16.381,9.617l.7.492.02.888c.02.917.038,1.879.058,2.857C619.911,228.472,619.28,238.229,618.314,238.245Z" transform="translate(-601.584 -193.598)"/><path class="a" d="M609.423,211.83c-.3-.919,4.664-3.344,11.079-5.418s11.854-3.013,12.151-2.094-4.662,3.344-11.077,5.418S609.72,212.749,609.423,211.83Z" transform="translate(-593.076 -191.807)"/></g><g transform="translate(315.029 159.727)"><g transform="translate(304.046 453.403)"><path class="a" d="M432.262,370.107c-.069-.116,1.711-1.322,5.152-3.5s8.538-5.333,15.1-9.346c13.128-8.026,32.124-19.486,55.453-33.464l.575-.342.629.264c18.609,7.8,40.068,16.788,63.4,26.566l.754.313.195.805,21.04,86.971,0,.007.3,1.257-1.112.655-76.391,45.061-.711.421-.754-.324c-23.329-10-44.658-19.137-63.233-27.1l-.631-.271-.152-.651c-6.275-26.767-11.312-48.566-14.712-63.69-1.7-7.561-3-13.453-3.83-17.464s-1.212-6.138-1.08-6.169.761,2.033,1.843,5.986,2.608,9.787,4.53,17.3c3.848,15.017,9.274,36.721,15.858,63.412-.251-.3-.5-.593-.781-.922,18.643,7.807,40.05,16.768,63.461,26.572-.483.029-.966.063-1.467.1l76.272-45.26c-.266.629-.535,1.262-.81,1.913l0-.007c-7.359-30.785-14.4-60.216-20.81-87.03.329.387.658.774.948,1.118-23.253-9.972-44.636-19.146-63.175-27.1.421-.027.841-.056,1.2-.081-23.494,13.7-42.692,24.819-56.053,32.451-6.68,3.816-11.9,6.762-15.468,8.724S432.329,370.223,432.262,370.107Z" transform="translate(-432.236 -323.456)"/><path class="a" d="M516.524,458.181c-.47.112-2.971-8.4-6.633-22.242s-8.491-33.028-13.614-54.268c-.83-3.458-1.646-6.865-2.42-10.1.344.4.676.8,1.007,1.188-17.864-7.635-33.605-14.538-44.835-19.633s-17.954-8.384-17.779-8.793,7.21,2.136,18.681,6.666,27.378,11.042,45.284,18.571l.8.338.206.85,2.449,10.093c5.122,21.237,9.569,40.515,12.621,54.507S516.993,458.067,516.524,458.181Z" transform="translate(-432.224 -297.684)"/><path class="a" d="M460.547,381.3c-.49-.83,16.215-11.612,37.3-24.081s38.594-21.9,39.086-21.074-16.209,11.61-37.307,24.083S461.039,382.133,460.547,381.3Z" transform="translate(-397.232 -307.82)"/></g><g class="b" transform="translate(199.327)"><g class="c"><g transform="translate(65.188 26.53)"><path class="d" d="M492.273,132.625l22.535,87.931L437.1,267.093,414.564,179.16Z" transform="translate(-414.564 -132.625)"/></g><g transform="translate(0 46.535)"><path class="e" d="M473.145,256.031,407.958,229.5l-22.535-87.932L450.61,168.1Z" transform="translate(-385.422 -141.569)"/></g><path class="f" d="M450.61,193.829,385.422,167.3l77.707-46.535,65.19,26.53Z" transform="translate(-385.422 -120.766)"/></g><path class="g" d="M528.319,147.3l-65.19-26.53L385.422,167.3l22.535,87.932,65.249,26.534,77.648-46.541Z" transform="translate(-385.422 -120.766)"/></g><path class="a" d="M465.685,169.188c.242.418-5.371,4.17-14.641,9.9s-22.2,13.435-36.581,21.759-27.512,15.7-37.1,20.879-15.636,8.178-15.878,7.76,5.371-4.17,14.638-9.9,22.2-13.437,36.587-21.765,27.507-15.69,37.093-20.873S465.444,168.77,465.685,169.188Z" transform="translate(-215.711 -60.918)"/><circle class="h" cx="33.717" cy="33.717" r="33.717" transform="translate(100.176 416.41)"/><g class="b" transform="translate(73.146 359.038)"><g class="c"><g transform="translate(65.19 26.529)"><path class="d" d="M435.864,293.13,458.4,381.063,380.691,427.6l-22.534-87.933Z" transform="translate(-358.157 -293.13)"/></g><g transform="translate(0 46.534)"><path class="e" d="M416.738,416.535l-65.189-26.529-22.535-87.932L394.2,328.6Z" transform="translate(-329.014 -302.074)"/></g><path class="f" d="M394.2,354.334l-65.19-26.528,77.708-46.534L471.911,307.8Z" transform="translate(-329.014 -281.271)"/></g><path class="i" d="M471.911,307.8l-65.189-26.529-77.708,46.534,22.535,87.932L416.8,442.273l77.648-46.541Z" transform="translate(-329.014 -281.271)"/></g><g class="b" transform="translate(497.218 344.289)"><g class="c"><g transform="translate(65.188 26.528)"><path class="d" d="M625.443,286.537l22.533,87.933-77.707,46.536-22.535-87.932Z" transform="translate(-547.734 -286.537)"/></g><g transform="translate(0 46.534)"><path class="e" d="M606.315,409.943l-65.19-26.531L518.592,295.48l65.188,26.531Z" transform="translate(-518.592 -295.48)"/></g><path class="f" d="M583.78,347.742l-65.187-26.531L596.3,274.677l65.19,26.528Z" transform="translate(-518.592 -274.677)"/></g><path class="j" d="M661.489,301.206,596.3,274.677l-77.707,46.534,22.533,87.933,65.249,26.535,77.648-46.541Z" transform="translate(-518.592 -274.677)"/></g><g class="b" transform="translate(270.775 245.031)"><g class="c"><g transform="translate(65.188 26.529)"><path class="d" d="M524.214,242.164,546.747,330.1,469.04,376.632,446.5,288.7Z" transform="translate(-446.504 -242.164)"/></g><g transform="translate(0 46.535)"><path class="e" d="M505.086,365.569,439.9,339.04l-22.535-87.933,65.188,26.529Z" transform="translate(-417.363 -251.108)"/></g><path class="f" d="M482.55,303.368,417.363,276.84,495.07,230.3l65.19,26.529Z" transform="translate(-417.363 -230.305)"/></g><path class="k" d="M560.259,256.833,495.07,230.3,417.363,276.84,439.9,364.772l65.249,26.535,77.646-46.541Z" transform="translate(-417.363 -230.305)"/></g><path class="a" d="M488.047,277.774c.244.418-4.709,3.789-12.907,8.9s-19.647,11.961-32.4,19.34-24.4,13.891-32.914,18.455-13.9,7.176-14.144,6.758,4.709-3.785,12.907-8.9,19.647-11.961,32.4-19.343,24.391-13.891,32.91-18.452S487.806,277.358,488.047,277.774Z" transform="translate(-173.412 73.388)"/><path class="a" d="M593.106,324.679c.242.416-4.912,3.9-13.435,9.2s-20.419,12.41-33.666,20.076S520.661,368.4,511.82,373.147s-14.43,7.48-14.672,7.062,4.908-3.9,13.433-9.2S531,358.6,544.254,350.929s25.34-14.437,34.18-19.188S592.862,324.261,593.106,324.679Z" transform="translate(-47.909 131.408)"/><path class="a" d="M467.768,325.409c-.47.114-2.758-7.536-6.08-20s-7.673-29.727-12.272-48.848-8.572-36.489-11.279-49.1-4.145-20.459-3.675-20.571,2.756,7.534,6.078,19.994,7.675,29.729,12.276,48.857,8.57,36.48,11.276,49.087S468.238,325.3,467.768,325.409Z" transform="translate(-125.545 -38.966)"/><path class="a" d="M377.072,372.984c-.47.114-2.7-7.295-5.926-19.356s-7.449-28.787-11.9-47.307-8.3-35.339-10.907-47.552-3.991-19.821-3.523-19.933,2.7,7.292,5.926,19.356,7.449,28.787,11.9,47.313,8.294,35.332,10.907,47.544S377.542,372.87,377.072,372.984Z" transform="translate(-236.437 25.277)"/><path class="a" d="M568.686,360.09c-.47.114-2.6-6.9-5.675-18.323s-7.082-27.261-11.3-44.8-7.852-33.48-10.308-45.052-3.742-18.786-3.273-18.9,2.6,6.894,5.675,18.32,7.082,27.261,11.3,44.812,7.847,33.471,10.305,45.043S569.156,359.976,568.686,360.09Z" transform="translate(2.674 18.076)"/><path class="a" d="M497.146,376.009c-.2.436-6.827-2.165-17.372-6.729s-25-11.082-40.889-18.477-30.187-14.276-40.464-19.41-16.531-8.532-16.327-8.968,6.827,2.165,17.37,6.726,25.009,11.084,40.9,18.481,30.181,14.272,40.459,19.408S497.35,375.573,497.146,376.009Z" transform="translate(-190.218 128.615)"/><path class="a" d="M584.611,321.067c-.186.445-6.823-1.868-17.4-5.966s-25.1-9.983-41.047-16.683-30.324-12.947-40.654-17.627-16.631-7.8-16.444-8.245,6.823,1.868,17.4,5.966,25.1,9.983,41.052,16.683,30.319,12.945,40.651,17.627S584.8,320.62,584.611,321.067Z" transform="translate(-82.638 66.908)"/><path class="l" d="M474.215,274.4a3.416,3.416,0,1,1-3.416-3.414A3.417,3.417,0,0,1,474.215,274.4Z" transform="translate(-84.715 65.051)"/><path class="l" d="M454.607,250.706a3.416,3.416,0,1,1-3.416-3.414A3.415,3.415,0,0,1,454.607,250.706Z" transform="translate(-108.969 35.738)"/><path class="l" d="M442.276,279.638a3.416,3.416,0,1,1-3.418-3.414A3.417,3.417,0,0,1,442.276,279.638Z" transform="translate(-124.223 71.525)"/><path class="l" d="M388.2,324.288a3.414,3.414,0,1,1-3.414-3.414A3.413,3.413,0,0,1,388.2,324.288Z" transform="translate(-191.109 126.753)"/><path class="l" d="M364.487,300.694a3.415,3.415,0,1,1-3.414-3.416A3.416,3.416,0,0,1,364.487,300.694Z" transform="translate(-220.438 97.567)"/><path class="l" d="M557.04,291.711a3.416,3.416,0,1,1-3.413-3.416A3.413,3.413,0,0,1,557.04,291.711Z" transform="translate(17.733 86.456)"/><path class="l" d="M413.365,171.559a3.414,3.414,0,1,1-3.414-3.414A3.415,3.415,0,0,1,413.365,171.559Z" transform="translate(-159.977 -62.161)"/><path class="l" d="M545.345,326.545a3.416,3.416,0,1,1-3.414-3.416A3.414,3.414,0,0,1,545.345,326.545Z" transform="translate(3.266 129.542)"/><g transform="translate(0 116.325)"><path class="a" d="M296.34,219.421c-.069-.116,1.714-1.32,5.152-3.5s8.538-5.335,15.1-9.346c13.128-8.026,32.124-19.488,55.456-33.464l.575-.344.629.264c18.607,7.8,40.068,16.788,63.4,26.566l.754.315.195.8,21.04,86.974v.007l.3,1.257-1.114.655L381.448,334.67l-.716.421-.754-.322c-23.327-10-44.656-19.141-63.233-27.1l-.629-.268-.152-.653c-6.275-26.767-11.312-48.566-14.714-63.69-1.7-7.561-2.993-13.453-3.83-17.464s-1.21-6.138-1.08-6.169.763,2.036,1.843,5.986,2.608,9.787,4.532,17.3c3.845,15.016,9.272,36.721,15.858,63.412-.251-.3-.5-.591-.781-.922,18.643,7.807,40.048,16.768,63.459,26.57-.483.034-.966.065-1.465.1l76.27-45.262-.808,1.913,0-.007c-7.362-30.782-14.4-60.216-20.81-87.028.329.387.658.774.948,1.118l-63.177-27.1,1.2-.081c-23.492,13.7-42.692,24.816-56.053,32.451-6.679,3.816-11.9,6.762-15.466,8.724S296.409,219.538,296.34,219.421Z" transform="translate(-296.315 -172.768)"/><path class="a" d="M380.6,307.494c-.47.112-2.971-8.4-6.635-22.242s-8.491-33.028-13.614-54.268c-.828-3.458-1.644-6.865-2.42-10.1.344.407.676.8,1.009,1.19-17.864-7.637-33.605-14.538-44.837-19.634s-17.951-8.386-17.779-8.793,7.212,2.136,18.683,6.664,27.375,11.044,45.284,18.573l.8.336.208.852c.785,3.232,1.611,6.637,2.449,10.093,5.123,21.237,9.57,40.513,12.619,54.507S381.071,307.38,380.6,307.494Z" transform="translate(-296.303 -146.994)"/><path class="a" d="M324.626,230.617c-.492-.832,16.213-11.614,37.3-24.08s38.594-21.906,39.086-21.076-16.209,11.612-37.307,24.083S325.118,231.447,324.626,230.617Z" transform="translate(-261.309 -157.132)"/></g><g transform="translate(444.646 95.323)"><path class="a" d="M495.116,210.032c-.067-.116,1.714-1.32,5.154-3.5s8.534-5.331,15.1-9.344c13.128-8.026,32.122-19.486,55.453-33.464l.575-.345.629.266c18.607,7.8,40.07,16.786,63.406,26.563l.754.315.192.805c6.483,26.8,13.6,56.207,21.04,86.972l0,.007.3,1.257-1.112.655c-26.975,15.913-52.778,31.134-76.389,45.061l-.711.421-.754-.322c-23.331-10-44.658-19.141-63.236-27.1l-.629-.268-.152-.655c-6.275-26.765-11.31-48.564-14.714-63.687-1.7-7.561-2.993-13.453-3.827-17.464s-1.212-6.138-1.08-6.169.763,2.036,1.843,5.986,2.606,9.787,4.532,17.3c3.843,15.016,9.27,36.721,15.855,63.412-.253-.3-.5-.591-.781-.922,18.642,7.807,40.048,16.768,63.459,26.57-.483.034-.966.065-1.465.1,23.573-13.987,49.333-29.277,76.27-45.26l-.81,1.913,0-.007c-7.359-30.785-14.395-60.216-20.808-87.03.331.387.658.776.948,1.118-23.25-9.974-44.638-19.146-63.177-27.1l1.2-.081c-23.492,13.7-42.692,24.819-56.051,32.451-6.682,3.816-11.9,6.762-15.468,8.724S495.183,210.149,495.116,210.032Z" transform="translate(-495.09 -163.379)"/><path class="a" d="M579.378,298.1c-.47.114-2.971-8.393-6.635-22.239s-8.491-33.028-13.614-54.266c-.828-3.461-1.644-6.867-2.42-10.1.344.407.678.8,1.006,1.188-17.862-7.635-33.6-14.536-44.832-19.631s-17.951-8.386-17.779-8.793,7.212,2.134,18.683,6.664,27.375,11.041,45.282,18.573l.8.336.208.852c.785,3.232,1.61,6.637,2.449,10.1,5.123,21.235,9.57,40.511,12.619,54.5S579.847,297.991,579.378,298.1Z" transform="translate(-495.078 -137.605)"/><path class="a" d="M523.4,221.226c-.492-.83,16.213-11.612,37.305-24.08s38.594-21.9,39.083-21.074-16.209,11.612-37.305,24.085S523.893,222.058,523.4,221.226Z" transform="translate(-460.086 -147.743)"/></g></g></g></svg>