<svg xmlns="http://www.w3.org/2000/svg" width="64" height="64" viewBox="0 0 64 64"><g transform="translate(-2 -2)"><path d="M48.626,14.313l-5.333,5.333L44.8,21.154l5.021-5.021H58.98V14h-9.6a1.067,1.067,0,0,0-.754.312Z" transform="translate(2.753 0.8)" fill="#fff"/><path d="M15.6,14H6v2.133h9.158l5.021,5.021,1.508-1.508-5.333-5.333A1.067,1.067,0,0,0,15.6,14Z" transform="translate(0.267 0.8)" fill="#fff"/><path d="M6,18h8.533v2.133H6Z" transform="translate(0.267 1.067)" fill="#fff"/><path d="M6,22h8.533v2.133H6Z" transform="translate(0.267 1.333)" fill="#fff"/><path d="M6,26h8.533v2.133H6Z" transform="translate(0.267 1.6)" fill="#fff"/><path d="M50,18h8.533v2.133H50Z" transform="translate(3.2 1.067)" fill="#fff"/><path d="M50,22h8.533v2.133H50Z" transform="translate(3.2 1.333)" fill="#fff"/><path d="M50,26h8.533v2.133H50Z" transform="translate(3.2 1.6)" fill="#fff"/><path d="M31,14h2.133v2.133H31Z" transform="translate(1.933 0.8)" fill="#fff"/><path d="M35,14h2.133v2.133H35Z" transform="translate(2.2 0.8)" fill="#fff"/><path d="M27,14h2.133v2.133H27Z" transform="translate(1.667 0.8)" fill="#fff"/><path d="M62.8,2H5.2A3.21,3.21,0,0,0,2,5.2V44.667a3.21,3.21,0,0,0,3.2,3.2h9.6V48.2a3.2,3.2,0,0,0,2.667,3.157l1.856.309a.992.992,0,0,1,.789.619l.181.459a1.022,1.022,0,0,1-.107,1.013L19.1,55.269A3.191,3.191,0,0,0,19.44,59.4L21.4,61.349a3.18,3.18,0,0,0,4.128.352l1.515-1.088a1.067,1.067,0,0,1,1.056-.1l.416.171a.992.992,0,0,1,.619.8l.309,1.835A3.2,3.2,0,0,0,32.6,66H35.4a3.2,3.2,0,0,0,3.157-2.667l.309-1.856a.992.992,0,0,1,.619-.789l.459-.181a1.022,1.022,0,0,1,1.013.107L42.469,61.7A3.179,3.179,0,0,0,46.6,61.36L48.549,59.4a3.18,3.18,0,0,0,.352-4.128l-1.088-1.515a1.067,1.067,0,0,1-.1-1.056l.171-.416a.992.992,0,0,1,.8-.619l1.835-.309A3.2,3.2,0,0,0,53.2,48.2v-.331h9.6a3.21,3.21,0,0,0,3.2-3.2V5.2A3.21,3.21,0,0,0,62.8,2ZM51.067,48.2a1.073,1.073,0,0,1-.9,1.045l-1.835.309A3.154,3.154,0,0,0,45.9,51.515l-.16.373a3.179,3.179,0,0,0,.341,3.1l1.088,1.515a1.058,1.058,0,0,1-.128,1.376l-1.963,1.973a1.067,1.067,0,0,1-1.376.117l-1.515-1.088a3.141,3.141,0,0,0-3.061-.352l-.416.171a3.155,3.155,0,0,0-1.963,2.421l-.309,1.856a1.074,1.074,0,0,1-1.045.885H32.6a1.073,1.073,0,0,1-1.045-.9l-.309-1.835A3.154,3.154,0,0,0,29.285,58.7l-.373-.16a3.181,3.181,0,0,0-3.1.341l-1.515,1.088a1.058,1.058,0,0,1-1.376-.128l-1.973-1.963a1.067,1.067,0,0,1-.117-1.376l1.088-1.515a3.139,3.139,0,0,0,.352-3.061l-.171-.416a3.155,3.155,0,0,0-2.421-1.963l-1.856-.309a1.074,1.074,0,0,1-.885-1.045V45.4a1.073,1.073,0,0,1,.9-1.045l1.749-.3a22.587,22.587,0,0,0,7.8,9.995l6.005,4.277a1.045,1.045,0,0,0,1.237,0l6.005-4.277a21.924,21.924,0,0,0,4.629-4.469,22.392,22.392,0,0,0,3.157-5.525l1.771.3a1.074,1.074,0,0,1,.885,1.045ZM20.133,35.824V26.171L34,20.229l13.867,5.941v9.653a20.291,20.291,0,0,1-8.491,16.491L34,56.155l-5.376-3.84a20.291,20.291,0,0,1-8.491-16.491Zm43.733,8.843A1.067,1.067,0,0,1,62.8,45.733H53.2V45.4a3.2,3.2,0,0,0-2.667-3.157l-1.419-.235A22.293,22.293,0,0,0,50,35.824V25.467a1.067,1.067,0,0,0-.651-.981l-14.933-6.4a1.027,1.027,0,0,0-.832,0l-14.933,6.4a1.067,1.067,0,0,0-.651.981V35.824a22.293,22.293,0,0,0,.885,6.187l-1.408.235A3.2,3.2,0,0,0,14.8,45.4v.331H5.2a1.067,1.067,0,0,1-1.067-1.067v-32H63.867Zm0-34.133H4.133V5.2A1.067,1.067,0,0,1,5.2,4.133H62.8A1.067,1.067,0,0,1,63.867,5.2Z" transform="translate(0 0)" fill="#fff"/><path d="M25.584,34.6l-1.1,1.828,5.333,3.2a1.067,1.067,0,0,0,1.342-.2l9.6-10.667-1.585-1.427L30.163,37.345Z" transform="translate(1.499 1.689)" fill="#fff"/><path d="M6,6H8.133V8.133H6Z" transform="translate(0.267 0.267)" fill="#fff"/><path d="M10,6h2.133V8.133H10Z" transform="translate(0.533 0.267)" fill="#fff"/><path d="M14,6h2.133V8.133H14Z" transform="translate(0.8 0.267)" fill="#fff"/></g></svg>