<svg xmlns="http://www.w3.org/2000/svg" width="168.66" height="31.662" viewBox="0 0 168.66 31.662">
  <g id="blockstack" transform="translate(-0.625 -0.969)">
    <path id="Path_969" data-name="Path 969" d="M51.787,21.223a5.412,5.412,0,0,0,2.02,3.923,7.215,7.215,0,0,0,4.721,1.481,7.066,7.066,0,0,0,4.118-1.091,3.481,3.481,0,0,0,1.574-3.014,2.824,2.824,0,0,0-.865-2.182,5.521,5.521,0,0,0-2.334-1.247,41.09,41.09,0,0,0-4.144-.909,22.826,22.826,0,0,1-4.642-1.247A7.463,7.463,0,0,1,49.085,14.6a6.645,6.645,0,0,1-1.206-4.157,7.391,7.391,0,0,1,1.259-4.235,8.036,8.036,0,0,1,3.514-2.884,12.459,12.459,0,0,1,5.167-1.039A12.234,12.234,0,0,1,63.169,3.4a8.894,8.894,0,0,1,3.7,3.04,8.314,8.314,0,0,1,1.469,4.417H63.825a4.9,4.9,0,0,0-1.862-3.43,6.515,6.515,0,0,0-4.144-1.3,6.469,6.469,0,0,0-3.882,1.039A3.417,3.417,0,0,0,52.495,10.1a2.748,2.748,0,0,0,.865,2.131,5.906,5.906,0,0,0,2.282,1.2c.944.26,2.334.546,4.117.857a21.859,21.859,0,0,1,4.668,1.273,7.629,7.629,0,0,1,3.2,2.338,6.419,6.419,0,0,1,1.233,4.079,7.733,7.733,0,0,1-1.311,4.391,8.6,8.6,0,0,1-3.672,3.014,12.61,12.61,0,0,1-5.35,1.091,13.309,13.309,0,0,1-5.822-1.2,9.426,9.426,0,0,1-3.934-3.3,8.674,8.674,0,0,1-1.443-4.833Zm21.926-7.457H70.172V10.025h3.541V4.361h4.354V10h4.9V13.74h-4.9V24.289a2.46,2.46,0,0,0,.472,1.689,2.17,2.17,0,0,0,1.626.494h3.278v3.767H79.3a5.739,5.739,0,0,1-4.249-1.351,5.671,5.671,0,0,1-1.338-4.157Zm31.42-3.741V30.239h-3.776l-.473-3.092a7.953,7.953,0,0,1-2.754,2.416,8.178,8.178,0,0,1-3.908.909,9.913,9.913,0,0,1-4.983-1.247A8.759,8.759,0,0,1,85.8,25.64a11.782,11.782,0,0,1-1.233-5.508,11.305,11.305,0,0,1,1.259-5.43,9.24,9.24,0,0,1,3.436-3.638A9.613,9.613,0,0,1,94.2,9.791a8.439,8.439,0,0,1,3.934.857,7.131,7.131,0,0,1,2.7,2.338l.525-2.962Zm-5.9,14.992a6.948,6.948,0,0,0,1.626-4.807,7.237,7.237,0,0,0-1.626-4.884,5.853,5.853,0,0,0-8.6-.026A7.015,7.015,0,0,0,89,20.132a7.238,7.238,0,0,0,1.626,4.885,5.88,5.88,0,0,0,8.6,0Zm25.886,3.456a9.8,9.8,0,0,1-6.347,2,10.848,10.848,0,0,1-5.35-1.273,8.769,8.769,0,0,1-3.567-3.663,11.48,11.48,0,0,1-1.259-5.456,10.92,10.92,0,0,1,1.285-5.4,8.777,8.777,0,0,1,3.619-3.612,10.987,10.987,0,0,1,5.4-1.273,9.627,9.627,0,0,1,6.269,2,8.761,8.761,0,0,1,3.041,5.43H123.78a4.742,4.742,0,0,0-1.757-2.754,5.1,5.1,0,0,0-3.226-1.039,5.234,5.234,0,0,0-4.17,1.845,7.178,7.178,0,0,0-1.574,4.807,7.346,7.346,0,0,0,1.574,4.885,5.177,5.177,0,0,0,4.17,1.871,5.073,5.073,0,0,0,3.3-1.039,4.861,4.861,0,0,0,1.705-2.832h4.38A8.657,8.657,0,0,1,125.117,28.472Zm6.53-25.878h4.3V19.9l9.337-9.873h4.983l-7.606,8.132,8.1,12.081h-5.114l-6.059-8.964-3.619,3.793v5.171h-4.3V2.594Zm24.024,20.967a3.418,3.418,0,0,0,1.5,2.6,5.846,5.846,0,0,0,3.566,1.013,6.034,6.034,0,0,0,3.174-.728,2.2,2.2,0,0,0,1.206-1.949,1.994,1.994,0,0,0-.552-1.533,3.1,3.1,0,0,0-1.494-.727,27.829,27.829,0,0,0-2.885-.442,24.381,24.381,0,0,1-4.406-.857A5.976,5.976,0,0,1,153,19.248a4.479,4.479,0,0,1-1.048-3.144A5.393,5.393,0,0,1,153,12.8a6.828,6.828,0,0,1,2.911-2.234,12.154,12.154,0,0,1,10.464.909,6.142,6.142,0,0,1,2.623,4.781h-4.2a3.152,3.152,0,0,0-1.39-2.26,5.148,5.148,0,0,0-3.12-.883,5.851,5.851,0,0,0-3.043.7,2.181,2.181,0,0,0-1.153,1.923,1.57,1.57,0,0,0,.577,1.351,3.169,3.169,0,0,0,1.442.623c.578.13,1.521.26,2.833.416a21.943,21.943,0,0,1,4.433.858,6.081,6.081,0,0,1,2.857,1.819,5.025,5.025,0,0,1,1.076,3.378,5.159,5.159,0,0,1-1.129,3.326,6.973,6.973,0,0,1-3.067,2.209,11.735,11.735,0,0,1-4.381.779,11.066,11.066,0,0,1-6.635-1.845,6.142,6.142,0,0,1-2.623-5.067h4.2Z" transform="translate(-0.025 -0.001)" fill="#c6c6c6"/>
    <path id="Path_970" data-name="Path 970" d="M22.639,22.458,29.365,32.64H24.34l-7.9-11.963L8.548,32.64h-5l6.726-10.155H.625V18.63H32.289v3.828Z" transform="translate(0 -0.01)" fill="#c6c6c6"/>
    <path id="Path_971" data-name="Path 971" d="M32.289,11.017V14.9H.625V11.017H10.09L3.443.969H8.468l7.976,12.122,8-12.122h5.025L22.825,11.017Z" transform="translate(0)" fill="#c6c6c6"/>
  </g>
</svg>
