<svg xmlns="http://www.w3.org/2000/svg" width="728.139" height="508.056" viewBox="0 0 728.139 508.056">
  <g id="banner" transform="translate(-0.002)">
    <g id="Shadow" transform="translate(0.002 430.536)">
      <path id="Path_780" data-name="Path 780" d="M395.028,668.117c-21.324.059-42.647.557-63.934,2.849-8.058.864-15.881,2.769-23.924,3.531-16.064,1.531-31.85,4.4-47.972,5.706-12.988,1.062-26.026,1.685-38.97,3.033A141.554,141.554,0,0,1,182.6,682.13c-8.915-1.545-17.873-2.417-26.642-4.893-9.808-2.776-20.459-4.761-30.678-4.688-14.57.1-28.759.117-42.706,5.018-4.893,1.721-10.885,4.549-14.606,8.16-8.49,8.255-9.64,28.876-1.106,37.446,14.313,14.423,44.852,20.086,64.916,20.357,21.975.293,43.336-1.289,65.348-2.2,20.452-.864,40.86-2.1,61.348-2.051,41.849.088,83.7,0,125.473-2.71,39.248-2.542,78.592-1.67,117.935-1.67,40.332,0,80.394.308,120.433,5.5,17.449,2.264,35.219,3.055,52.741,4.637,15.705,1.421,30.766,0,46.434-1.341a113.666,113.666,0,0,0,38.091-9.889c9.442-4.4,26.283-17.954,29.176-28.385,8.116-29.249-114.434-28.568-133.252-28.48-21.052.073-42.266.733-63.3,0-8.849-.33-17.58-2-26.2-3.838s-17.265-1.362-25.99-2.132c-36.377-3.2-72.827-2.732-109.313-2.732C418.805,668.183,406.924,668.081,395.028,668.117Z" transform="translate(-61.002 -668.109)" fill="#f7f7f7"/>
    </g>
    <g id="Object" transform="translate(82.694)">
      <g id="Group_2971" data-name="Group 2971" transform="translate(11.398 33.52)">
        <rect id="Rectangle_6303" data-name="Rectangle 6303" width="92.172" height="92.172" transform="translate(0 29.125)" fill="#16becf"/>
        <path id="Path_781" data-name="Path 781" d="M128.45,74.885l25.9-29.125h92.18L220.623,74.885Z" transform="translate(-128.45 -45.76)" fill="rgba(22,190,207,0.76)"/>
        <path id="Path_782" data-name="Path 782" d="M254.28,74.885v92.172l25.909-29.125V45.76Z" transform="translate(-162.108 -45.76)" fill="rgba(22,190,207,0.72)"/>
      </g>
      <path id="Path_783" data-name="Path 783" d="M415.227,210.859h-7.215V208.39h7.215Zm-12.152,0h-7.406V208.39h7.406Zm-12.343,0h-7.406V208.39h7.406Zm-12.343,0h-7.413V208.39h7.406Zm-12.343,0h-7.413V208.39h7.406Zm-12.343,0h-7.42V208.39h7.406Zm-12.343,0h-7.42V208.39h7.406Z" transform="translate(-216.701 -114.606)" fill="#7db5db"/>
      <g id="Group_2973" data-name="Group 2973" transform="translate(193.941)">
        <g id="Group_2972" data-name="Group 2972">
          <rect id="Rectangle_6304" data-name="Rectangle 6304" width="127.099" height="127.099" transform="translate(0 40.164)" fill="#16becf"/>
          <path id="Path_784" data-name="Path 784" d="M377.65,40.164,413.375,0h127.1L504.749,40.164Z" transform="translate(-377.65)" fill="rgba(22,190,207,0.6)"/>
          <path id="Path_785" data-name="Path 785" d="M551.16,40.164v127.1L586.885,127.1V0Z" transform="translate(-424.061)" fill="#16becf"/>
        </g>
        <g id="_Group_" data-name="&lt;Group&gt;" transform="translate(34.545 56.922)">
          <path id="Path_786" data-name="Path 786" d="M539.76,195.567V176.653a18.312,18.312,0,0,0-3.663-10.988,18.8,18.8,0,0,0-9.427-6.746,24.6,24.6,0,0,0-7.647-.82h-7.267a20.46,20.46,0,0,0-9.083,1.956,18.5,18.5,0,0,0-8.307,8.3,18.862,18.862,0,0,0-1.963,8.5v18.723H485.81v41.885a10.255,10.255,0,0,0,10.255,10.255h38.56a10.255,10.255,0,0,0,10.255-10.255v-41.9Zm-41.585-18.914a11.953,11.953,0,0,1,.659-4.087,14.084,14.084,0,0,1,2.132-3.919,12.356,12.356,0,0,1,3.6-3.084,12.606,12.606,0,0,1,4.578-1.6c.081,0,.322-.044.945-.088h11.054a12.072,12.072,0,0,1,4.124.659,14.078,14.078,0,0,1,3.919,2.132,12.355,12.355,0,0,1,3.084,3.6,12.607,12.607,0,0,1,1.6,4.578c0,.081.044.322.088.945v19.8H498.175Zm19.133,45.76V232.5c0,.733-.872,1.355-1.948,1.355h-.037c-1.077,0-1.948-.608-1.948-1.355V222.406a7.765,7.765,0,1,1,3.941,0Z" transform="translate(-485.81 -158.068)" fill="#fff"/>
        </g>
      </g>
      <path id="Path_787" data-name="Path 787" d="M717.835,200.159h-7.215V197.69h7.215Zm-12.153,0h-7.406V197.69h7.406Zm-12.343,0h-7.384V197.69h7.406Zm-12.343,0h-7.413V197.69h7.406Zm-12.343,0h-7.42V197.69h7.406Zm-12.343,0h-7.42V197.69H656.3Zm-12.343,0H636.54V197.69h7.406Z" transform="translate(-297.642 -111.744)" fill="#7db5db"/>
      <g id="Group_2974" data-name="Group 2974" transform="translate(418.501 34.553)">
        <rect id="Rectangle_6305" data-name="Rectangle 6305" width="79.969" height="79.969" transform="translate(0 25.272)" fill="#16becf"/>
        <path id="Path_788" data-name="Path 788" d="M684.21,72.442,706.684,47.17H786.66L764.179,72.442Z" transform="translate(-684.21 -47.17)" fill="#16becf" opacity="0.67"/>
        <path id="Path_789" data-name="Path 789" d="M793.38,72.442v79.976l22.481-25.272V47.17Z" transform="translate(-713.411 -47.17)" fill="#16becf" opacity="0.67"/>
      </g>
      <g id="Group_2989" data-name="Group 2989" transform="translate(0 157.227)">
        <g id="Group_2975" data-name="Group 2975" transform="translate(0 27.82)">
          <g id="_Group_2" data-name="&lt;Group&gt;" transform="translate(29.374 173.57)">
            <g id="_Group_3" data-name="&lt;Group&gt;" transform="translate(8.343 100.64)">
              <path id="Path_790" data-name="Path 790" d="M178.408,631.648l-.454,4.7-9.5,4.065-4.073-5,4.974-4.38,9.5-4.065Z" transform="translate(-164.38 -626.96)" fill="#151f2d"/>
            </g>
            <g id="_Group_4" data-name="&lt;Group&gt;">
              <path id="Path_791" data-name="Path 791" d="M183.287,499.811l-7.311,93.608-9.149,1.245-7.574-79.786L152.99,489.57Z" transform="translate(-152.99 -489.57)" fill="#305399"/>
            </g>
          </g>
          <g id="_Group_5" data-name="&lt;Group&gt;" transform="translate(51.738 159.25)">
            <g id="_Group_6" data-name="&lt;Group&gt;">
              <path id="Path_792" data-name="Path 792" d="M213.341,470.02l5.487,111.233-8.343,1.568-17.4-84.166-9.567-24.371Z" transform="translate(-183.52 -470.02)" fill="#305399"/>
            </g>
            <g id="_Group_7" data-name="&lt;Group&gt;" transform="translate(26.81 110.053)">
              <path id="Path_793" data-name="Path 793" d="M221.014,626.692l9.918,3.033,3.626-5.582-5.406-3.882-9.032,1.7Z" transform="translate(-220.12 -620.26)" fill="#151f2d"/>
            </g>
          </g>
          <g id="_Group_8" data-name="&lt;Group&gt;" transform="translate(6.658 35.81)">
            <path id="Path_794" data-name="Path 794" d="M246.079,385.165c-6.761-5.6-23.06-2.381-31.63-2.381.828,0-8.124,47.863-8.409,52.009-1.069,15.251-5.75,30.678-12.262,44.6-2.747,5.86-6.014,11.544-7.962,17.727-3.23,10.255-3.223,22.32-2.307,32.927,9.2,2.527,17.822,7.267,27.286,8.5,7.787,1.011,15.647-.425,23.441-1.113,9.252-.82,18.562-.6,27.836-1.311s18.613-2.41,26.81-6.776a134.422,134.422,0,0,1-8.834-22.2c-2.329-7.567-5.333-15.969-6.182-23.858-.733-7.127-.894-14.379-1.934-21.609-1.209-8.409-2.659-16.789-4.666-25.037a188.363,188.363,0,0,0-9.069-27.667c-2.842-6.827-6.226-18.013-11.566-23.272A6.173,6.173,0,0,0,246.079,385.165Z" transform="translate(-182.98 -381.865)" fill="#bcbec0"/>
          </g>
          <g id="_Group_9" data-name="&lt;Group&gt;" transform="translate(19.723)">
            <g id="_Group_10" data-name="&lt;Group&gt;" transform="translate(35.67 4.213)">
              <path id="Path_795" data-name="Path 795" d="M249.51,347.718c4.285.776,9.559,4.439,10.592,8.959.5,2.2-.212,4.175.41,6.483,1.216,4.556-4.293,11.259,1.157,14.431,2.806,1.626,6.307,1.1,9.523.52a2.382,2.382,0,0,0,1.1-.4,1.67,1.67,0,0,0,.4-1.787,6.781,6.781,0,0,0-.96-1.677c-3.751-5.633-2.842-13.72-4.3-20.137s-4.893-12.782-11.244-15.383a14.577,14.577,0,0,0-6.256,9.076Z" transform="translate(-249.51 -338.73)" fill="#3b455a"/>
            </g>
            <g id="_Group_11" data-name="&lt;Group&gt;" transform="translate(20.81 8.079)">
              <path id="Path_796" data-name="Path 796" d="M249.46,376.738c4.117-1.765,6.849-5.955,7.75-10.35s.183-8.959-1.026-13.273c-4.036-14.357-22.056-10.255-26.253,2.029C226.262,365.853,237.477,381.866,249.46,376.738Z" transform="translate(-229.224 -344.008)" fill="#eac1a4"/>
            </g>
            <g id="_Group_12" data-name="&lt;Group&gt;">
              <path id="Path_797" data-name="Path 797" d="M220.882,381.692c2.022-1.26,4.007-2.571,5.179-4.923,1.9-3.794,1.1-9.691,1.319-13.808.234-4.336.63-9.069,3.611-12.24,1.941-2.066,4.336-2.637,7.032-2.93,1.846-.19,1.978.505,3.457-.623,1.135-.864,1.963-3.223,2.132-4.578a7.713,7.713,0,0,0-2.461-6.19,10.812,10.812,0,0,0-8.79-3.384c-12.087.733-20.51,8.688-22.928,20.767-1.15,5.8.6,12.006-.681,17.58-.791,3.457-2.754,5.86-3.326,9.523-1.465,9.523-5.6,21.829-4.4,31.41a1.355,1.355,0,0,0,.41.96c.586.432,1.348-.22,1.773-.813l7.464-10.336a17.969,17.969,0,0,0,2.535-4.3c1.406-3.912.1-8.695,2.534-12.065A18.084,18.084,0,0,1,220.882,381.692Z" transform="translate(-200.815 -332.979)" fill="#3b455a"/>
            </g>
          </g>
          <g id="_Group_13" data-name="&lt;Group&gt;" transform="translate(0 49.775)">
            <g id="_Group_14" data-name="&lt;Group&gt;" transform="translate(20.741 83.852)">
              <g id="_Group_15" data-name="&lt;Group&gt;">
                <path id="Path_798" data-name="Path 798" d="M202.245,522.477c-.344,2.417,1.582,8.592,3.846,9.933,5.223,3.1,3.333-4.688,3.282-7.53a15.6,15.6,0,0,0,2.967.674c.93.073-1.824-8.255-2.74-9.032-2.2-1.861-3.765-.908-6.439-.615C202.912,518.1,202.56,520.286,202.245,522.477Z" transform="translate(-202.205 -515.401)" fill="#eac1a4"/>
              </g>
            </g>
            <g id="_Group_16" data-name="&lt;Group&gt;">
              <path id="Path_799" data-name="Path 799" d="M140.249,323.61,112.89,371.377l19.456,41.732,6.6-8.724-6.952-37.351,25.85-15.793-2.828-30.67Z" transform="translate(-112.89 -320.57)" fill="#bcbec0"/>
            </g>
          </g>
          <path id="Path_800" data-name="Path 800" d="M213.15,312.19l24.268,38.779,13.31-18.489,12.577,2.117-5.963,30-16.511,12.255-27.682-16.6Z" transform="translate(-139.708 -268.553)" fill="#bcbec0"/>
        </g>
        <g id="Group_2982" data-name="Group 2982" transform="translate(194.593)">
          <path id="Path_801" data-name="Path 801" d="M435.793,319.09l-10.7,3.67-17.324,25.96L385.587,333.88l-7.047,8.365,11.185,16.606L409.87,373.23,435.793,346.1Z" transform="translate(-378.54 -242.579)" fill="#202020"/>
          <path id="Path_802" data-name="Path 802" d="M519.668,233.576l.82-11.647-9.42-7.289L507.12,219.8l4.256,7.6-1.524,3.948,4.175,6.278Z" transform="translate(-412.933 -214.64)" fill="#eac1a4"/>
          <g id="Group_2981" data-name="Group 2981" transform="translate(24.174 27.322)">
            <g id="Group_2978" data-name="Group 2978" transform="translate(7.156 117.958)">
              <g id="Group_2976" data-name="Group 2976">
                <path id="Path_803" data-name="Path 803" d="M422.072,418.9l-.762,65.9,7.025,84.833h9.545l11.427-78.269,13.068-78.4Z" transform="translate(-421.31 -412.97)" fill="#3b455a"/>
                <path id="Path_804" data-name="Path 804" d="M438.2,630.464l-10.328,5.157-5.164-5.157,5.164-5.164H438.2Z" transform="translate(-421.685 -469.765)" fill="#151f2d"/>
              </g>
              <g id="Group_2977" data-name="Group 2977" transform="translate(25.924)">
                <path id="Path_805" data-name="Path 805" d="M497.01,418.9l.183,38.127-6.439,112.61H481.2l-15.969-74.724L456.7,412.97Z" transform="translate(-456.7 -412.97)" fill="#3b455a"/>
                <path id="Path_806" data-name="Path 806" d="M490.23,630.464l10.328,5.157,5.157-5.157-5.157-5.164H490.23Z" transform="translate(-465.669 -469.765)" fill="#151f2d"/>
              </g>
            </g>
            <path id="Path_807" data-name="Path 807" d="M555.857,495.725c.2,6.051.073,14.138-2.476,14.445a2.512,2.512,0,0,1-1.355-.359c-4.395-2.154-7.589-5.194-11.955-7.274a53.154,53.154,0,0,0-14.855-4.1,154.553,154.553,0,0,0-22.913-2.007c-6.593-.058-13.376,2.93-19.573,4.578-2.388.63-4.329,2.373-6.307,3.736-2.93,2.014-4.212,2.813-3.809-1.3.652-6.717,1.326-13.427,2.154-20.122a248.391,248.391,0,0,1,7.684-39.607c1.465-4.937,3.121-9.808,4.791-14.65l6.146-17.822c2.527-7.369,6.8-12.563,14.277-15.134,6.461-2.2,14.489-2.835,20.774.278,6.988,3.465,10.314,15.273,13.705,21.587,2.974,5.531,6.724,20.613,7.838,26.576,1.34,7.179,2.578,14.313,3.553,21.441a219.766,219.766,0,0,1,2.058,23.572C555.586,490.414,555.762,492.832,555.857,495.725Z" transform="translate(-472.541 -348.869)" fill="#202020"/>
            <g id="Group_2980" data-name="Group 2980" transform="translate(20.543)">
              <path id="Path_808" data-name="Path 808" d="M524.924,387.949a1.523,1.523,0,0,0,.527.3,2.928,2.928,0,0,0,1.253,0l5.128-.608c-.564-5.23,2.491-6.41,5.472-9.772s2.088-8.006,1.919-12.174a8.884,8.884,0,0,0-.593-3.414c-.864-1.846-2.871-2.871-4.82-3.479a18.148,18.148,0,0,0-15.039,1.655,7.956,7.956,0,0,0-2.886,2.93c-.974,1.9-.732,4.168-.454,6.292a21.243,21.243,0,0,0,3.223,9.2c1.714,2.557,4.988,3.78,5.362,6.849A3.472,3.472,0,0,0,524.924,387.949Z" transform="translate(-504.491 -339.148)" fill="#eac1a4"/>
              <g id="Group_2979" data-name="Group 2979">
                <path id="Path_809" data-name="Path 809" d="M514.222,366.217c.293,1.311.9,2.644.586,3.948-2.088-.733-3.45-2.842-4.19-5.01a7.67,7.67,0,0,1-.491-3.062,3.662,3.662,0,0,1,1.355-2.674c1.143-.82,3.2-.5,3.531.989S513.783,364.239,514.222,366.217Z" transform="translate(-503.136 -339.435)" fill="#3b455a"/>
                <path id="Path_810" data-name="Path 810" d="M500.589,347.543a4.673,4.673,0,0,1,2.058-3.934c1.216-.82,2.608-1.465,3.348-2.8.571-1.011.659-2.263,1.223-3.274,1.026-1.839,3.252-2.373,5.186-3,4.849-1.553,7.457-3.355,12.585-1.362,3.663,1.414,8.365,1.6,11.72,3.663a11.86,11.86,0,0,1,3.6,3.794c3.421,5.347,4.241,12.87,2.015,18.452a22.781,22.781,0,0,1-1.809,3.494c-1.355,2.2-2.806,4.908-5.208,5.977-.154-1.033-.923-1.6-1.165-2.622a8.058,8.058,0,0,1-.081-2.256c.146-2.93,1.047-7.574-1.883-9.025-3.707-1.839-10.651-.183-14.225,1.377-3.157,1.377-8.483,3.172-11.852,1.692C503.028,356.37,500.486,350.906,500.589,347.543Z" transform="translate(-500.586 -332.299)" fill="#3b455a"/>
              </g>
            </g>
          </g>
          <path id="Path_811" data-name="Path 811" d="M483.81,294.784l32.758-9.655-12.123-40.955,9.991-7.164,24.122,47.408-6.673,16.416-31.3,16.159Z" transform="translate(-406.698 -220.624)" fill="#202020"/>
        </g>
        <g id="Group_2985" data-name="Group 2985" transform="translate(381.948 23.162)">
          <path id="Path_812" data-name="Path 812" d="M738.569,309.13l-9.567.4-28.5,27.045-42.347-5.662L655.34,341.28l41.614,14.907h12.563L731.8,342.5Z" transform="translate(-639.935 -263.077)" fill="#f4f4f4"/>
          <path id="Path_813" data-name="Path 813" d="M652.616,345.128,647,349.377l-4.512.33-.315-1.509,2.4-1.516-8.739-.256-1.524-3.912,9.618-4.263,9.618.952Z" transform="translate(-634.31 -270.866)" fill="#eac1a4"/>
          <g id="Group_2984" data-name="Group 2984" transform="translate(62.481)">
            <path id="Path_814" data-name="Path 814" d="M799.122,691.49l-7.94,5.626-2.681,4.271a30.868,30.868,0,0,0,4.63,1.656c1.655.33,14.563-1.656,14.563-1.656V693.8Z" transform="translate(-782.718 -424.217)" fill="#151f2d"/>
            <path id="Path_815" data-name="Path 815" d="M885.8,693.169l-2.93,5.333s-1.831,6.732-.242,6.27,10.446-2,10.8-3.135,4.2-5.7,4.651-6.519-1.465-6.307-1.465-6.307Z" transform="translate(-807.721 -423.5)" fill="#151f2d"/>
            <path id="Path_816" data-name="Path 816" d="M813,521.275l25.638,76.555,28.671,48.91,11.12-3.23-19.045-55.781s-2.293-56.037-6.051-72.519Z" transform="translate(-789.271 -377.065)" fill="#40495f"/>
            <path id="Path_817" data-name="Path 817" d="M724.34,449.233l9.926,113.826h11.911l3.641-58.235,6.834-51.562-26.026-30.5Z" transform="translate(-720.873 -293.471)" fill="#40495f"/>
            <path id="Path_818" data-name="Path 818" d="M783.686,425.923c1.231-5.86,1.721-12.182,4.622-17.654s8.395-9.611,12.629-14.262c1.795-1.97,3.714-4.022,6.38-4.959a19,19,0,0,1,5.816-.733l17.925-.454a16.507,16.507,0,0,1,6.431.689c2.974,1.179,4.659,3.919,6.131,6.475,3.758,6.534,4.446,13.771,4.783,21.155,0,.066,4.659,92.715.952,90.971-4.615-2.2-9.9-3.318-15.075-4.124a166.59,166.59,0,0,0-22.2-2.095l-13.1.886h-7.9c-4.747.461-4.351,1.89-9.23,1.59C778.734,503.211,782.279,432.64,783.686,425.923Z" transform="translate(-780.607 -342.995)" fill="#f4f4f4"/>
            <g id="Group_2983" data-name="Group 2983" transform="translate(15.575)">
              <path id="Path_819" data-name="Path 819" d="M827.81,381.055l8.893-.388a44.463,44.463,0,0,0-.088-7.091c2.505-.733,5.421-1.868,5.992-4.4a7.326,7.326,0,0,0,0-2.454L841.427,356.6a8.974,8.974,0,0,0-.857-3.392c-1-1.8-3.106-2.681-5.128-3.142a18.323,18.323,0,0,0-15.031,2.791,8.058,8.058,0,0,0-2.688,3.164c-.842,1.992-.418,4.256,0,6.373l1.194,5.86c.461,2.249,1.157,4.813,3.245,5.758,1.106.505,2.454.447,3.443,1.157C827.37,376.4,826.975,379.07,827.81,381.055Z" transform="translate(-805.98 -332.753)" fill="#eac1a4"/>
              <path id="Path_820" data-name="Path 820" d="M807.268,332.026a8.729,8.729,0,0,0,2.007-.549c2.146-.938,3.663-2.813,5.933-3.663a20.892,20.892,0,0,1,14.936.388c4.336,1.824,10.255,2.527,14.138,4.981a11.836,11.836,0,0,1,3.824,4.219,17.829,17.829,0,0,1-.989,18.8,25.48,25.48,0,0,1-2.93,3.34c-2.2,2.146-4.864,4.805-7.787,5.487.073-2.571,2.864-10.541,1.011-12.76-2.461-2.93-7.325-2.864-10.753-2.535-4.124.388-7.523-.938-11.632-.732-2.1.1-4.468.527-6.073-.82a36.345,36.345,0,0,1-6.717-8.688,5.494,5.494,0,0,1,1.143-5.758A5.9,5.9,0,0,1,807.268,332.026Z" transform="translate(-801.869 -326.62)" fill="#3b455a"/>
            </g>
          </g>
          <path id="Path_821" data-name="Path 821" d="M825.615,392.337a45.788,45.788,0,0,1-.974,4.637s-16.526,47.614-18.093,51.393a6.993,6.993,0,0,0-.527,2.674l3.794,11.142,7.53-9.31,10.211-53.335,2.483-2.132.872-5.406Z" transform="translate(-724.923 -344.108)" fill="#305399"/>
        </g>
        <g id="Group_2987" data-name="Group 2987" transform="translate(23.921 87.338)">
          <rect id="Rectangle_6306" data-name="Rectangle 6306" width="97.798" height="22.012" rx="8.04" transform="matrix(0.996, 0.085, -0.085, 0.996, 89.732, 39.678)" fill="#16becf"/>
          <g id="Group_2986" data-name="Group 2986">
            <path id="Path_822" data-name="Path 822" d="M302.838,421.27l-58.25-6.834a31.161,31.161,0,0,0-34.48,27.235l-3.355,28.568a31.161,31.161,0,0,0,27.228,34.509l58.25,6.834a31.161,31.161,0,0,0,34.465-27.2l3.355-28.568A31.161,31.161,0,0,0,302.838,421.27Zm8.929,32.348-3.355,28.568a12.826,12.826,0,0,1-14.042,11.1l-58.25-6.834a12.826,12.826,0,0,1-11.1-14.042l3.355-28.568a12.826,12.826,0,0,1,14.042-11.1l58.22,6.82a12.826,12.826,0,0,1,11.127,14.057Z" transform="translate(-206.546 -414.231)" fill="#16becf"/>
            <path id="Path_823" data-name="Path 823" d="M503.748,431.85H445.1A31.161,31.161,0,0,0,414,462.916v28.8a31.161,31.161,0,0,0,31.1,31.081h58.653a31.161,31.161,0,0,0,31.066-31.066v-28.81a31.161,31.161,0,0,0-31.073-31.066Zm12.658,59.868a12.826,12.826,0,0,1-12.658,12.658H445.1a12.826,12.826,0,0,1-12.658-12.658v-28.8A12.826,12.826,0,0,1,445.1,450.273h58.653a12.826,12.826,0,0,1,12.658,12.658Z" transform="translate(-262.037 -418.943)" fill="#16becf"/>
            <path id="Path_824" data-name="Path 824" d="M747.246,479.314,745.54,450.57A31.161,31.161,0,0,0,712.679,421.4l-58.543,3.48a31.161,31.161,0,0,0-29.154,32.839l1.707,28.744a31.161,31.161,0,0,0,32.861,29.169l58.543-3.479a31.161,31.161,0,0,0,29.154-32.839Zm-30.26,14.474-58.55,3.487a12.826,12.826,0,0,1-13.383-11.881l-1.707-28.744a12.826,12.826,0,0,1,11.881-13.383l58.543-3.479a12.826,12.826,0,0,1,13.383,11.881l1.714,28.759a12.826,12.826,0,0,1-11.882,13.361Z" transform="translate(-318.458 -416.135)" fill="#16becf"/>
          </g>
          <rect id="Rectangle_6307" data-name="Rectangle 6307" width="97.798" height="22.012" rx="8.04" transform="translate(237.609 43.789)" fill="#16becf"/>
        </g>
        <g id="Group_2988" data-name="Group 2988" transform="translate(422.53 82.913)">
          <path id="Path_825" data-name="Path 825" d="M764.025,339.265l-4.344,26.415-47.4,12.3v12.643l56.711-5.992,9.8-15.83-.945-40.97Z" transform="translate(-695.747 -327.83)" fill="#f4f4f4"/>
          <path id="Path_826" data-name="Path 826" d="M706.243,406.738l-5.428,2.447-11.1-2.52,1.89-6.014,8.622-.505,1.736-2.915,4.2,1.121Z" transform="translate(-689.71 -346.393)" fill="#eac1a4"/>
        </g>
        <path id="Path_827" data-name="Path 827" d="M378.757,339.78l-10.929,4.1-2.718,11.6,6.344,1.443,5.135-7.025,4.227-.264,3.97-6.409Z" transform="translate(-180.355 -248.113)" fill="#eac1a4"/>
        <path id="Path_828" data-name="Path 828" d="M263.2,339.561l10.153-.9,6.512,8.109-4.439,3.523-6.7-3.589-3.421,1.392-5.538-3.545Z" transform="translate(-152.175 -247.813)" fill="#eac1a4"/>
      </g>
    </g>
  </g>
</svg>
