<svg xmlns="http://www.w3.org/2000/svg" xmlns:xlink="http://www.w3.org/1999/xlink" width="629.311" height="606.825" viewBox="0 0 629.311 606.825"><defs><style>.a{fill:#3fffac;opacity:0.5;}.b{fill:#1b5aa6;}.c{fill:#349ddc;}.d{fill:#4ec5ff;}.e{fill:url(#a);}.f{fill:#1a1b1d;font-size:36px;font-family:Montserrat-SemiBold, Montserrat;font-weight:600;}</style><linearGradient id="a" x1="0.921" y1="0.493" x2="0.157" y2="1.061" gradientUnits="objectBoundingBox"><stop offset="0" stop-color="#3fffac"/><stop offset="1" stop-color="#73caff" stop-opacity="0"/></linearGradient></defs><g transform="translate(-645.748 -2180.718)"><path class="a" d="M274.338,0,125.223,4.6,0,70.951,53.644,243.584,201.523,276.23,307.1,177.667Z" transform="translate(844.826 2312.97) rotate(14)"/><g transform="translate(116 209.095)"><g transform="translate(662 2103.875)"><path class="b" d="M23.071,2290.114l146.351,43.937-.768,204.347L33.6,2470.532Z" transform="translate(26.542 -2221.321)"/><path class="c" d="M22.963,2268.625,160.6,2234.6l145.39,31.607-136.876,46.48Z" transform="translate(26.584 -2199.832)"/><path class="d" d="M261.32,2332.525,398.131,2286.1l-11.011,180.2L260.68,2536.741Z" transform="translate(-65.432 -2219.766)"/><g transform="translate(66.826 0) rotate(14)"><path class="e" d="M274.338,0,125.223,4.6,0,70.951,53.644,243.584,201.523,276.23,307.1,177.667Z" transform="translate(0 0)"/></g></g><text class="f" transform="translate(854.804 2279.905)"><tspan x="-108.054" y="0">Blockchain </tspan><tspan x="-76.734" y="44">Services</tspan></text></g></g></svg>