<svg xmlns="http://www.w3.org/2000/svg" width="832.764" height="666.481" viewBox="0 0 832.764 666.481">
  <g id="blockchain_banner" data-name="blockchain banner" transform="translate(-0.049)">
    <g id="Shadow">
      <g id="Group_3638" data-name="Group 3638" opacity="0.5">
        <path id="Path_1820" data-name="Path 1820" d="M464.83,672.85c-24.39.07-48.77.64-73.12,3.29-9.18,1-18.17,3.2-27.37,4.08-18.38,1.77-36.42,5.07-54.87,6.6-14.85,1.23-29.76,2-44.57,3.51a160.262,160.262,0,0,1-43-1.29c-10.2-1.78-20.44-2.79-30.47-5.66-11.22-3.21-23.4-5.5-35.09-5.42-16.67.12-32.9.13-48.84,5.79-5.6,2-12.45,5.26-16.7,9.43-9.73,9.55-11,33.38-1.33,43.28,16.37,16.67,51.3,23.21,74.24,23.52,25.14.34,49.56-1.49,74.74-2.56,23.39-1,46.73-2.42,70.16-2.37,47.86.1,95.73,0,143.5-3.13C497,749,542,750,587,750c46.13,0,91.95.35,137.74,6.35,20,2.61,40.28,3.53,60.34,5.36,18,1.64,35.22,0,53.11-1.55a128.941,128.941,0,0,0,43.59-11.43c10.8-5.05,30.06-20.75,33.37-32.8,9.29-33.8-130.88-33-152.4-32.92-24.08.09-48.34.86-72.4,0-10.12-.38-20.09-2.31-30-4.43s-19.75-1.58-29.72-2.46c-41.6-3.7-83.29-3.16-125-3.16C492,672.93,478.42,672.81,464.83,672.85Z" transform="translate(-82.78 -95.91)" fill="#eed5d5"/>
      </g>
    </g>
    <g id="object">
      <g id="_Group_" data-name="&lt;Group&gt;">
        <path id="Path_1821" data-name="Path 1821" d="M715.98,433.04l.2,6.05-10.68,3.88-6.15-4.66v-7.04l5.94-.33.18-1.55,1.95-1.25Z" fill="#e1cfb5"/>
      </g>
      <g id="Group_3643" data-name="Group 3643">
        <g id="Group_3642" data-name="Group 3642">
          <g id="Group_3639" data-name="Group 3639">
            <path id="Path_1822" data-name="Path 1822" d="M497.7,480.81l2.3,53.18-6.73,90.43-10.06.72-12.22-82.13-16.9-69.5Z" fill="#353a85"/>
            <path id="Path_1823" data-name="Path 1823" d="M483.75,631.89h15.1l.63-4.99-5.42-3.74-10.87.78Z" fill="#292949"/>
          </g>
          <g id="Group_3640" data-name="Group 3640">
            <path id="Path_1824" data-name="Path 1824" d="M426.5,464.99l-2.21,40.2,6.55,119.53,10.07.51,15.1-78.4,13.31-85.97Z" fill="#353a85"/>
            <path id="Path_1825" data-name="Path 1825" d="M440.5,632.28l-14.69.61-1.5-4.24,5.71-5.17,10.9.55Z" fill="#292949"/>
          </g>
          <path id="Path_1826" data-name="Path 1826" d="M567.84,439.47l-31.43-3.37s-17.48,1.87-29.35,43.39c-6.6,23.1-8.61,59.49-9.09,87.24.74,4,5.05,21.29,23.29,18.35,31.31-5.05,48-10.1,61.61-7.58,11.62,2.53,10.63-13.47,9.36-25.67l-4.63-37.76Z" transform="translate(-82.78 -95.91)" fill="#51c5ca"/>
          <g id="Group_3641" data-name="Group 3641">
            <path id="Path_1827" data-name="Path 1827" d="M561.77,400.35c-7.92-1.75-16.07-3.31-24-1.74-1.74.34-3.6.95-4.54,2.45a6.918,6.918,0,0,0-.74,1.91c-2,7.44-4.54,18.46.36,25.32a12.25,12.25,0,0,0,3.54,3.19,17.411,17.411,0,0,0,5.86,2.3,31.407,31.407,0,0,1-1.77,5.4c1.81,2.73,10.27,3.06,11.84.44l.26-6.8a16.809,16.809,0,0,0,3-1.54,19.12,19.12,0,0,0,7.38-10c1.51-4.4,3.63-8.59,5-13.07.5-1.63.9-3.5,0-5s-2.89-2.11-4.67-2.5Z" transform="translate(-82.78 -95.91)" fill="#c17e72"/>
            <path id="Path_1828" data-name="Path 1828" d="M565.24,421c3.81-3.91,8.26-9.37,8.6-14.33.28-4.1-.28-9.7-2.58-13.25-2.15-3.32-7.65-5.14-10.93-7.06l-9.25-5.44a4.68,4.68,0,0,0-4.64-.6L524.57,386c-1.4.36-3,.89-3.51,2.24a4.59,4.59,0,0,0,.06,2.6c.83,3.78,2.42,7.65,2.81,11.49.6,3,.49,5.74,2.7,7.95s4.85,3.22,6.52,5.77c1.2,1.84,1.67,4.06,2.61,6,4.27,9,21.55,6.6,27.53.86C563.9,422.35,564.56,421.7,565.24,421Z" transform="translate(-82.78 -95.91)" fill="#353a85"/>
          </g>
        </g>
        <path id="Path_1829" data-name="Path 1829" d="M478.39,346.25,500,322.91l-5.09-63.25,9.49-4.17,19.97,63.65-7.06,19.58-28.96,38.93Z" fill="#51c5ca"/>
        <path id="Path_1830" data-name="Path 1830" d="M585.14,352.29V346.5c0-2.11-5.32-7-6.67-8.82-.77-1-4.31,4.5-4.36,5.41-.07,1.55,2.17,4.88,2.78,6.5l-1.89,2.7,2.68,3.28Z" transform="translate(-82.78 -95.91)" fill="#c17e72"/>
        <path id="Path_1831" data-name="Path 1831" d="M439.75,351.11,415.3,330.77l-3.17-63.37-9.95-2.9-11.54,65.7,9.54,18.5,33.78,34.84Z" fill="#51c5ca"/>
        <path id="Path_1832" data-name="Path 1832" d="M487.08,361l-.75-5.74c-.27-2.1,4.36-7.68,5.47-9.61.63-1.1,4.86,3.9,5,4.8.27,1.53-1.51,5.12-1.92,6.8l2.23,2.43-2.23,3.6Z" transform="translate(-82.78 -95.91)" fill="#c17e72"/>
      </g>
      <g id="Group_3648" data-name="Group 3648">
        <path id="Path_1833" data-name="Path 1833" d="M138.64,407.57a55.69,55.69,0,0,1-11.06-7.15c-1.1-.91-2.27-2.2-1.89-3.58.44-1.58,2.52-1.92,4.16-1.77a23,23,0,0,1,8.83,2.63c.67-.21-.19-1.3.11-1.94a.92.92,0,0,1,.82-.42c4.42-.24,6.14,5.77,7.65,8.67-3.09,1.62-6.29,1.69-9,4.15Z" transform="translate(-82.78 -95.91)" fill="#efbfa5"/>
        <g id="Group_3647" data-name="Group 3647">
          <path id="Path_1834" data-name="Path 1834" d="M328.23,479.16,334,480c2.09.31,11.23-4.3,13.17-5.38,1.11-.62-7.31-4.86-8.2-5-1.53-.3-5.15,1.44-6.83,1.81l-2.4-2.26-3.63,2.17Z" transform="translate(-82.78 -95.91)" fill="#efbfa5"/>
          <g id="Group_3646" data-name="Group 3646">
            <path id="Path_1835" data-name="Path 1835" d="M105.13,619.14l-.8,6.2,11.59,7.78,7-5.39-5.4-7-11.6-7.78Z" fill="#292949"/>
            <path id="Path_1836" data-name="Path 1836" d="M104.73,617.06l8.95-79.01L102.92,449.6l2.42-18.82,48.05-1.82,1.73,30.62-8.06,78.59L116.71,621.1Z" fill="#292949"/>
            <path id="Path_1837" data-name="Path 1837" d="M161.04,343.25l21.6,12.69,17.13,24.01,45.64-6.61,1.43,12.57L195,403.19l-26.57-9.94Z" fill="#babcbe"/>
            <g id="Group_3644" data-name="Group 3644">
              <path id="Path_1838" data-name="Path 1838" d="M188.65,437.81l.12,79.73L172.72,620.18l-11.55-.11-6.35-94.92-14.86-95.01Z" fill="#292949"/>
              <path id="Path_1839" data-name="Path 1839" d="M161.19,624.94l12.43,6.37,6.31-6.18-6.19-6.31-12.49-.12Z" fill="#292949"/>
            </g>
            <path id="Path_1840" data-name="Path 1840" d="M180.72,560.83c.11-3.46.3-6.34.33-7.37.25-9.27,1.07-18.52,2.23-27.72,1-8.25,2.35-28.72,3.76-36.92,1.17-6.77,5.23-23.66,8.16-29.94,7.3-15.61,5-17.05,37.09-21.69,14-2,17.37,6.72,28.85,16.79,1.13,1,1.07,6.9,1.33,8.47.46,2.76,1,5.51,1.53,8.25.45,2.15.94,4.3,1.49,6.43h0s9.64,43.87,16,53.19,19.55,22.34-2.49,30.3a78.781,78.781,0,0,1-11.9,3.11s-18-2-27.28-1.93a157.4,157.4,0,0,0-25.49,2.37c-5.61.94-11.34,2.3-16.35,4.92-4.79,2.5-8.24,6.18-13.1,8.77a2.54,2.54,0,0,1-1.49.43C180.62,577.91,180.49,568.11,180.72,560.83Z" transform="translate(-82.78 -95.91)" fill="#babcbe"/>
            <g id="Group_3645" data-name="Group 3645">
              <path id="Path_1841" data-name="Path 1841" d="M229.43,441.25c-1.31,1.24-4.88,2.63-9.14,2.31a2.08,2.08,0,0,1-1.85-1.47,53.937,53.937,0,0,1-1.57-7.08c-3.16-.13-6.92-.62-8.34-3.45a8.92,8.92,0,0,1-.7-2.89l-1.57-12.27a10.89,10.89,0,0,1,0-4.25c.66-2.41,2.88-4.06,5.11-5.19,5.69-2.89,12.64-3.6,18.51-1.1a9.75,9.75,0,0,1,4.09,2.94c1.57,2.1,1.74,4.89,1.84,7.51l.3,7.25c.11,2.78,0,6-2.14,7.73-1.16.92-2.76,1.24-3.72,2.37C228.59,435.64,229.83,438.68,229.43,441.25Z" transform="translate(-82.78 -95.91)" fill="#efbfa5"/>
              <path id="Path_1842" data-name="Path 1842" d="M252.23,391.87a26.379,26.379,0,0,1,1.08-3.38c1-2.37,2.36-4.59,2.95-7.08s.15-5.48-1.94-7a7.93,7.93,0,0,0-4.75-1.09,30.68,30.68,0,0,0-15.51,4.45c-4.43,2.7-8.1,6-13.5,5.72-5.06-.3-8.13,1.4-12.36,4.55-4.58,3.41-11.34,6-15.2,10a14.36,14.36,0,0,0-3.28,6.08A21.63,21.63,0,0,0,196.39,426a30.912,30.912,0,0,0,4.46,3.07c3.23,1.88,7.13,4.24,10.76,4.19-.84-3-6.45-11.58-4.91-14.73,2.44-5,11.08-6.17,15.88-6.6,5.24-.47,10.7,1.67,15.8.91,3.67-.54,7.63-3.64,10.05-6.37C251.45,403.13,251.16,396.07,252.23,391.87Z" transform="translate(-82.78 -95.91)" fill="#292949"/>
            </g>
            <path id="Path_1843" data-name="Path 1843" d="M121.49,348.17l-25.21,6.47L65.91,307.45,53.1,310.9l21.36,67.95,49.16,5.92Z" fill="#babcbe"/>
          </g>
        </g>
      </g>
      <g id="Group_3649" data-name="Group 3649">
        <g id="_Group_2" data-name="&lt;Group&gt;">
          <g id="_Group_3" data-name="&lt;Group&gt;">
            <g id="_Group_4" data-name="&lt;Group&gt;">
              <g id="_Group_5" data-name="&lt;Group&gt;">
                <path id="Path_1844" data-name="Path 1844" d="M817.89,705.92a4.27,4.27,0,0,1,3.86-1.66,4.37,4.37,0,0,1,3.24,2.44,8.292,8.292,0,0,1,.56,2.78c.4,4.9.37,16.53-6.16,18.2-2.74.7-5-1.24-5.74-3.71C812.55,720.27,814.18,710,817.89,705.92Z" transform="translate(-82.78 -95.91)" fill="#292949"/>
              </g>
              <g id="_Group_6" data-name="&lt;Group&gt;">
                <path id="Path_1845" data-name="Path 1845" d="M815.57,632l.34,29.87c-.4,13.27,1.67,26.61,1.28,39.88-.09,3.05-.89,6.27-.12,9.29s3.16,3.48,5.62,2c3.31-2,2.77-6.69,3.32-10.11,1.51-9.4,3.29-18.75,4.87-28.13.77-4.6-.82-11-.47-15.71l4.83-25Z" transform="translate(-82.78 -95.91)" fill="#f4c7b3"/>
              </g>
            </g>
            <g id="_Group_7" data-name="&lt;Group&gt;">
              <path id="Path_1846" data-name="Path 1846" d="M766.92,487.86l-13,57.76-2.76,54.53-20.62-.46-5.61-152.55,39.97.72Z" fill="#292949"/>
            </g>
            <g id="_Group_8" data-name="&lt;Group&gt;">
              <g id="_Group_9" data-name="&lt;Group&gt;">
                <g id="_Group_10" data-name="&lt;Group&gt;">
                  <path id="Path_1847" data-name="Path 1847" d="M788.4,704.83a4.19,4.19,0,0,1,3.92-1.43,4.46,4.46,0,0,1,3.13,2.64,8.41,8.41,0,0,1,.44,2.82c.19,4.93-.34,16.56-6.91,17.85-2.76.54-4.94-1.54-5.56-4C782.47,718.88,784.53,708.7,788.4,704.83Z" transform="translate(-82.78 -95.91)" fill="#292949"/>
                </g>
                <g id="_Group_11" data-name="&lt;Group&gt;">
                  <path id="Path_1848" data-name="Path 1848" d="M799.27,636.23l-1.75,29.82c-.14,8.29-1.25,16.51-2.11,24.74-.8,7.65.44,15.61-3.55,22.57-1.25,2.18-3.79,3.63-5.56,1-1.36-2-.55-5.45-.82-7.76-1.07-9.46-2.4-18.88-3.53-28.33-.56-4.63,1.34-11,1.21-15.67l-3.64-25.23Z" transform="translate(-82.78 -95.91)" fill="#f4c7b3"/>
                </g>
              </g>
              <g id="_Group_12" data-name="&lt;Group&gt;">
                <path id="Path_1849" data-name="Path 1849" d="M690.4,484.33l-1.68,56.06,8.8,56.7,20.97.62-.92-61.35,11.09-50.88,3.73-33.31-33.28-3.92Z" fill="#292949"/>
              </g>
            </g>
            <g id="_Group_13" data-name="&lt;Group&gt;">
              <path id="Path_1850" data-name="Path 1850" d="M716.72,333.51l35.85-.85,20.78,38.65-7.38,36.21-1.32,43.33-51.13.69-16.83-2.73,4.47-46.29-2.56-61.84Z" fill="#1a2e35"/>
            </g>
            <g id="_Group_14" data-name="&lt;Group&gt;">
              <g id="_Group_15" data-name="&lt;Group&gt;">
                <path id="Path_1851" data-name="Path 1851" d="M804.2,396c7.06-15,27-7,29.8,7.4,1.8,9.37-6.48,20.39-16.16,22-.08.35-1.11,3.4-1.15,3.69a30.664,30.664,0,0,1-.87,4.3c-.14.53-8.2-1.93-9.09-2.21a1.25,1.25,0,0,1-.81-.51c-.28-.55,1.39-4.74,1.52-5.3l.43-2c-4.39-2.76-6.8-7.9-7.09-12.9S802.08,400.49,804.2,396Z" transform="translate(-82.78 -95.91)" fill="#f4c7b3"/>
              </g>
              <g id="_Group_16" data-name="&lt;Group&gt;">
                <g id="_Group_17" data-name="&lt;Group&gt;">
                  <path id="Path_1852" data-name="Path 1852" d="M819.17,383.3a8.24,8.24,0,0,1,1.41,4.39,6.58,6.58,0,0,1-.13,2.73c-1.15,3.46-4.65,2.9-7.49,3.75a18.25,18.25,0,0,0-8.88,6.12c-3.45,4.36-2.77,10.53-2.14,15.82.22,1.86.78,4.66-.81,6.13s-4.9.88-6.52-.15-2.62-2.52-4.31-3-4.34,0-5-1.73a11.418,11.418,0,0,0-.4-1.52c-.85-1.55-3.54-.13-4.85-1.3-.81-.72-.66-2-.25-3.07a7.21,7.21,0,0,0,.93-3.13,10.6,10.6,0,0,0-1-2.62,4.93,4.93,0,0,1,1.24-5.14c2.53-2.36,6.82-1.39,9.49-3.58,1.39-1.14,2.07-2.92,2.73-4.61s1.41-3.46,2.88-4.49c1.81-1.28,4.17-.77,6-2.32,1.07-.91,1.85-2.16,3-2.93,1.54-1,4.42-1.61,6.24-2A7.79,7.79,0,0,1,819.17,383.3Z" transform="translate(-82.78 -95.91)" fill="#292949"/>
                </g>
                <g id="_Group_18" data-name="&lt;Group&gt;">
                  <path id="Path_1853" data-name="Path 1853" d="M829.53,409.64c-.46,5.15-3.61,10.43-1.73,15.22s7.77,6.29,12.82,7.08c.83.13,11.45,2.21,11.52,2,1.19-3.49,2.41-7.06,4.62-10s5.62-5.21,9.23-5c-1-.29-1.4-1.61-1.17-2.67a17.077,17.077,0,0,1,1.32-2.95,7.24,7.24,0,0,0-1.1-7.43c-3.41-3.94-10.44-3.22-13.25-7.62-1.74-2.73-1.11-6.36-1.84-9.54-1.4-6.16-7.77-8.11-12.34-11.31-4.83-3.39-9.49-5.46-15.52-5.11-7.47.43-13.74,7.32-11.66,14.66,2.66,9.41,17.26,10.2,19,19.65a11.382,11.382,0,0,1,.1,3.02Z" transform="translate(-82.78 -95.91)" fill="#292949"/>
                </g>
              </g>
            </g>
          </g>
          <g id="_Group_19" data-name="&lt;Group&gt;">
            <path id="Path_1854" data-name="Path 1854" d="M741.97,333.31l-11.12,15.72-5.23-.43-8.72-15.94Z" fill="#f9f9f9"/>
          </g>
        </g>
        <path id="Path_1855" data-name="Path 1855" d="M799.68,428.56l-20.21,1.1S756.78,440.82,755.28,440s-26-49.92-26-49.92l-12,3.9,15,56.15,14.51,15,41-6.83Z" transform="translate(-82.78 -95.91)" fill="#1a2e35"/>
        <path id="Path_1856" data-name="Path 1856" d="M719.13,393.27l-3.22-4.81c-1.18-1.75.49-8.82.63-11,.08-1.27,6.09,1.33,6.63,2.07.93,1.25.92,5.26,1.31,6.95l3.07,1.19-.4,4.21Z" transform="translate(-82.78 -95.91)" fill="#f4c7b3"/>
      </g>
      <g id="Group_3650" data-name="Group 3650">
        <path id="Path_1857" data-name="Path 1857" d="M211.8,151.99l-63.17-28.54V47.48L211.8,76.02Z" fill="#16becf"/>
        <path id="Path_1858" data-name="Path 1858" d="M211.8,151.99l63.16-28.54V47.48L211.8,76.02Z" fill="#35b6c3"/>
        <path id="Path_1859" data-name="Path 1859" d="M148.63,47.48,211.8,76.02l63.16-28.54L211.8,21.57Z" fill="#009cac"/>
      </g>
      <g id="Group_3651" data-name="Group 3651">
        <path id="Path_1860" data-name="Path 1860" d="M716.21,109.59,663.13,85.61V21.77l53.08,23.99Z" fill="#16becf"/>
        <path id="Path_1861" data-name="Path 1861" d="M716.21,109.59l53.08-23.98V21.77L716.21,45.76Z" fill="#35b6c3"/>
        <path id="Path_1862" data-name="Path 1862" d="M663.13,21.77l53.08,23.99,53.08-23.99L716.21,0Z" fill="#009cac"/>
      </g>
      <path id="Path_1863" data-name="Path 1863" d="M477.87,266.1l-7.44-3.37,1.31-2.9,7.44,3.37Zm-13.24-6-8.7-3.94,1.31-2.9,8.7,3.94Zm-14.49-6.56-8.7-3.94,1.31-2.9,8.7,3.94ZM435.64,247l-8.7-3.94,1.31-2.9,8.7,3.94Zm-14.49-6.56-8.7-3.94,1.31-2.9,8.7,3.94Zm-14.49-6.56-8.7-3.94,1.31-2.9,8.7,3.94Zm-14.49-6.56-8.7-3.94,1.31-2.9,8.7,3.94Zm-14.49-6.56-8.7-3.94,1.31-2.9,8.7,3.94Zm-14.49-6.56-8.7-3.94,1.31-2.9,8.7,3.94Zm-14.49-6.56L340,203.7l1.31-2.9,8.7,3.94ZM334.2,201l-8.7-3.94,1.31-2.9,8.7,3.94Z" transform="translate(-82.78 -95.91)" fill="#d67086"/>
      <path id="Path_1864" data-name="Path 1864" d="M166.61,266.35l-1.89-2.56,3.93-2.91,1.89,2.56Zm9-6.7-1.89-2.56,7.67-5.68,1.89,2.56Zm12.78-9.47-1.89-2.56,7.67-5.68,1.89,2.56Zm12.78-9.47-1.89-2.56,7.67-5.68,1.89,2.56ZM214,231.23l-1.89-2.56,7.67-5.68,1.89,2.56Zm12.78-9.47-1.89-2.56,7.67-5.68,1.89,2.56Zm12.78-9.47-1.89-2.56,7.67-5.68,1.89,2.56Zm12.78-9.47-1.89-2.56,7.67-5.68,1.89,2.56Z" transform="translate(-82.78 -95.91)" fill="#d67086"/>
      <g id="Group_3652" data-name="Group 3652">
        <path id="Path_1865" data-name="Path 1865" d="M61.52,264.03,8.45,240.05V176.21l53.07,23.98Z" fill="#16becf"/>
        <path id="Path_1866" data-name="Path 1866" d="M61.52,264.03l53.08-23.98V176.21L61.52,200.19Z" fill="#35b6c3"/>
        <path id="Path_1867" data-name="Path 1867" d="M8.45,176.21l53.07,23.98,53.08-23.98L61.52,154.44Z" fill="#009cac"/>
      </g>
      <path id="Path_1868" data-name="Path 1868" d="M475.36,281l-1.17-3,.27-.11,1.17,3Zm6.18-2.46-1.17-3,8.87-3.52,1.17,3Zm14.79-5.87-1.17-3,8.87-3.52,1.17,3Zm14.79-5.87-1.17-3,8.87-3.52,1.17,3Zm14.79-5.87-1.17-3,8.87-3.52,1.17,3ZM540.68,255l-1.17-3,8.87-3.52,1.17,3Zm14.79-5.87-1.17-3,8.87-3.52,1.17,3Zm14.79-5.87-1.17-3,8.87-3.52,1.17,3ZM585,237.42l-1.17-3,8.87-3.52,1.17,3Zm14.79-5.87-1.17-3,8.87-3.52,1.17,3Zm14.79-5.87-1.17-3,8.87-3.52,1.17,3Zm14.79-5.87-1.17-3,8.87-3.52,1.17,3Zm14.79-5.87L643,211l8.87-3.52,1.17,3ZM659,208l-1.17-3,8.87-3.52,1.17,3Zm14.79-5.87-1.17-3,8.87-3.52,1.17,3Zm14.79-5.87-1.17-3,8.87-3.52,1.17,3Zm14.79-5.87-1.17-3,8.87-3.52,1.17,3Zm14.79-5.87-1.17-3,8.87-3.52,1.17,3Zm14.79-5.87-1.17-3,8.87-3.52,1.17,3Zm14.79-5.87-1.17-3,8.87-3.52,1.17,3Zm14.79-5.87-1.17-3,8.87-3.52,1.17,3Z" transform="translate(-82.78 -95.91)" fill="#d67086"/>
      <g id="Group_3653" data-name="Group 3653">
        <path id="Path_1869" data-name="Path 1869" d="M445.8,272.63,338.19,224.01V94.59L445.8,143.21Z" fill="#16becf"/>
        <path id="Path_1870" data-name="Path 1870" d="M445.8,272.63l107.61-48.62V94.59L445.8,143.21Z" fill="#35b6c3"/>
        <path id="Path_1871" data-name="Path 1871" d="M338.19,94.59,445.8,143.21,553.41,94.59,445.8,50.44Z" fill="#009cac"/>
      </g>
      <path id="Path_1872" data-name="Path 1872" d="M706.6,336.88l-8.71-3.9,1.3-2.9,8.71,3.9Zm-14.52-6.5-8.71-3.9,1.3-2.9,8.71,3.9Zm-14.52-6.5-8.71-3.9,1.3-2.9,8.71,3.9ZM663,317.38l-8.71-3.9,1.3-2.9,8.71,3.9Zm-14.52-6.5-8.71-3.9,1.3-2.9,8.71,3.9ZM634,304.38l-8.71-3.9,1.3-2.9,8.71,3.9Zm-14.52-6.5-8.71-3.9,1.3-2.9,8.71,3.9ZM605,291.37l-8.71-3.9,1.3-2.9,8.71,3.9Zm-14.52-6.5-8.71-3.9,1.3-2.9,8.71,3.9Z" transform="translate(-82.78 -95.91)" fill="#d67086"/>
      <path id="Path_1873" data-name="Path 1873" d="M387.53,338l-1.73-2.67,8-5.19,1.73,2.67Zm13.35-8.66-1.73-2.67,8-5.19,1.73,2.67Zm13.35-8.66L412.5,318l8-5.19,1.73,2.67ZM427.58,312l-1.73-2.67,8-5.19,1.73,2.67Zm13.35-8.66-1.73-2.67,8-5.19,1.73,2.67Zm13.35-8.66L452.54,292l8-5.19,1.73,2.67ZM467.62,286l-1.73-2.67,8-5.19,1.73,2.67Z" transform="translate(-82.78 -95.91)" fill="#d67086"/>
      <g id="Group_3654" data-name="Group 3654">
        <path id="Path_1874" data-name="Path 1874" d="M267.96,378.66l-73.59-33.25V256.9l73.59,33.25Z" fill="#16becf"/>
        <path id="Path_1875" data-name="Path 1875" d="M267.96,378.66l73.59-33.25V256.9l-73.59,33.25Z" fill="#35b6c3"/>
        <path id="Path_1876" data-name="Path 1876" d="M194.37,256.9l73.59,33.25,73.59-33.25-73.59-30.19Z" fill="#009cac"/>
      </g>
      <g id="Group_3655" data-name="Group 3655">
        <path id="Path_1877" data-name="Path 1877" d="M664.95,302.06,591.36,268.8V180.29l73.59,33.25Z" fill="#16becf"/>
        <path id="Path_1878" data-name="Path 1878" d="M664.95,302.06l73.6-33.26V180.29l-73.6,33.25Z" fill="#35b6c3"/>
        <path id="Path_1879" data-name="Path 1879" d="M591.36,180.29l73.59,33.25,73.6-33.25-73.6-30.19Z" fill="#009cac"/>
      </g>
      <path id="Path_1880" data-name="Path 1880" d="M813.23,532.77c-2.18,2.21-5.18,4.12-8.25,3.73a36.264,36.264,0,0,1-3.66-.65,6.269,6.269,0,0,1-2.68-1.11,2.55,2.55,0,0,1-.92-2.66c.45-1.34,2.08-1.7,3.27-2.43,1.49-.9,2.4-2.53,3.57-3.84,2.66-3,6.26-3.27,9.66-4.87a18.61,18.61,0,0,1,2.16,2.24c1.23,1.38,1.34,1.68.65,3.43A18.749,18.749,0,0,1,813.23,532.77Z" transform="translate(-82.78 -95.91)" fill="#f4c7b3"/>
      <g id="_Group_20" data-name="&lt;Group&gt;">
        <path id="Path_1881" data-name="Path 1881" d="M753.76,335.32l29.1,44.33-4.37,24.69-45.07,31.22-8.49-7.42,30.14-38.08-1.17-24.07Z" fill="#1a2e35"/>
      </g>
    </g>
  </g>
</svg>
