<svg xmlns="http://www.w3.org/2000/svg" width="102.861" height="430.592" viewBox="0 0 102.861 430.592">
  <g id="chain" transform="translate(-909 -720.908)">
    <g id="title-cube-outline" transform="translate(918.349 720.913) rotate(4.992)">
      <path id="Path_135" data-name="Path 135" d="M400.324,375.81c.232-.385,4.825,1.923,12.856,6.388s19.5,11.083,33.476,19.312l.947.557.116,1.159c1.194,12.01,2.567,25.808,4.054,40.807l.134,1.346-1.043.928c-12.285,10.95-25.756,22.968-39.85,35.52h0l-1.624,1.437-1.836-1.13c-15.9-9.8-31.114-19.165-45.048-27.746l-1.193-.737-.1-1.354c-1.144-15.073-2.187-28.868-3.1-40.922l-.085-1.163.835-.714c12.463-10.667,22.681-19.258,29.859-25.1s11.314-8.928,11.618-8.592-3.273,4.066-9.95,10.48-16.446,15.5-28.55,26.574c.243-.6.482-1.2.748-1.878,1.2,12.033,2.569,25.8,4.066,40.844-.426-.692-.853-1.377-1.29-2.091,14,8.483,29.272,17.736,45.25,27.412-1.14.1-2.285.2-3.46.31v-.008C421.329,465,434.888,453.1,447.258,442.237c-.314.785-.629,1.574-.909,2.27-1.134-15.028-2.181-28.86-3.09-40.893.374.6.744,1.2,1.068,1.713-13.7-8.689-24.818-15.877-32.449-20.99S400.087,376.2,400.324,375.81Z" transform="translate(-358.018 -375.774)" fill="#16becf"/>
      <path id="Path_136" data-name="Path 136" d="M359.637,452.035c-1.068-1.2,13.888-16.2,33.4-33.48,1.593-1.4,3.165-2.779,4.652-4.091-.326.831-.644,1.626-.961,2.424-1.832-23.1-2.166-40.975-.688-41.1s4.249,17.524,6.459,40.595l.134,1.437-1.1.987c-1.481,1.321-3.037,2.712-4.619,4.126C377.4,440.212,360.706,453.248,359.637,452.035Z" transform="translate(-353.731 -375.742)" fill="#16becf"/>
      <path id="Path_137" data-name="Path 137" d="M370.322,386.873c.841-1.381,11.636,3.688,24.106,11.31s21.9,14.92,21.059,16.291-11.632-3.684-24.106-11.31S369.481,388.25,370.322,386.873Z" transform="translate(-324.444 -345.979)" fill="#16becf"/>
    </g>
    <g id="Lines">
      <g id="Group_2773" data-name="Group 2773">
        <line id="Line_9" data-name="Line 9" y2="11" transform="translate(958.5 836.5)" fill="none" stroke="#16becf" stroke-width="3"/>
        <line id="Line_10" data-name="Line 10" y2="11" transform="translate(962.5 836.5)" fill="none" stroke="#16becf" stroke-width="3"/>
      </g>
      <g id="Group_2772" data-name="Group 2772">
        <line id="Line_11" data-name="Line 11" y2="11" transform="translate(958.5 852.5)" fill="none" stroke="#16becf" stroke-width="3"/>
        <line id="Line_12" data-name="Line 12" y2="11" transform="translate(962.5 852.5)" fill="none" stroke="#16becf" stroke-width="3"/>
      </g>
      <g id="Group_2774" data-name="Group 2774" transform="translate(0 16)">
        <line id="Line_11-2" data-name="Line 11" y2="11" transform="translate(958.5 852.5)" fill="none" stroke="#16becf" stroke-width="3"/>
        <line id="Line_12-2" data-name="Line 12" y2="11" transform="translate(962.5 852.5)" fill="none" stroke="#16becf" stroke-width="3"/>
      </g>
      <g id="Group_2775" data-name="Group 2775" transform="translate(0 32)">
        <line id="Line_11-3" data-name="Line 11" y2="11" transform="translate(958.5 852.5)" fill="none" stroke="#16becf" stroke-width="3"/>
        <line id="Line_12-3" data-name="Line 12" y2="11" transform="translate(962.5 852.5)" fill="none" stroke="#16becf" stroke-width="3"/>
      </g>
      <g id="Group_2776" data-name="Group 2776" transform="translate(0 48)">
        <line id="Line_11-4" data-name="Line 11" y2="11" transform="translate(958.5 852.5)" fill="none" stroke="#16becf" stroke-width="3"/>
        <line id="Line_12-4" data-name="Line 12" y2="11" transform="translate(962.5 852.5)" fill="none" stroke="#16becf" stroke-width="3"/>
      </g>
      <g id="Group_2777" data-name="Group 2777" transform="translate(0 64)">
        <line id="Line_11-5" data-name="Line 11" y2="11" transform="translate(958.5 852.5)" fill="none" stroke="#16becf" stroke-width="3"/>
        <line id="Line_12-5" data-name="Line 12" y2="11" transform="translate(962.5 852.5)" fill="none" stroke="#16becf" stroke-width="3"/>
      </g>
      <g id="Group_2778" data-name="Group 2778" transform="translate(0 80)">
        <line id="Line_11-6" data-name="Line 11" y2="11" transform="translate(958.5 852.5)" fill="none" stroke="#16becf" stroke-width="3"/>
        <line id="Line_12-6" data-name="Line 12" y2="11" transform="translate(962.5 852.5)" fill="none" stroke="#16becf" stroke-width="3"/>
      </g>
      <g id="Group_2779" data-name="Group 2779" transform="translate(0 96)">
        <line id="Line_11-7" data-name="Line 11" y2="11" transform="translate(958.5 852.5)" fill="none" stroke="#16becf" stroke-width="3"/>
        <line id="Line_12-7" data-name="Line 12" y2="11" transform="translate(962.5 852.5)" fill="none" stroke="#16becf" stroke-width="3"/>
      </g>
      <g id="Group_2780" data-name="Group 2780" transform="translate(0 112)">
        <line id="Line_11-8" data-name="Line 11" y2="11" transform="translate(958.5 852.5)" fill="none" stroke="#16becf" stroke-width="3"/>
        <line id="Line_12-8" data-name="Line 12" y2="11" transform="translate(962.5 852.5)" fill="none" stroke="#16becf" stroke-width="3"/>
      </g>
      <g id="Group_2781" data-name="Group 2781" transform="translate(0 128)">
        <line id="Line_11-9" data-name="Line 11" y2="11" transform="translate(958.5 852.5)" fill="none" stroke="#16becf" stroke-width="3"/>
        <line id="Line_12-9" data-name="Line 12" y2="11" transform="translate(962.5 852.5)" fill="none" stroke="#16becf" stroke-width="3"/>
      </g>
      <g id="Group_2782" data-name="Group 2782" transform="translate(0 144)">
        <line id="Line_11-10" data-name="Line 11" y2="11" transform="translate(958.5 852.5)" fill="none" stroke="#16becf" stroke-width="3"/>
        <line id="Line_12-10" data-name="Line 12" y2="11" transform="translate(962.5 852.5)" fill="none" stroke="#16becf" stroke-width="3"/>
      </g>
      <g id="Group_2783" data-name="Group 2783" transform="translate(0 160)">
        <line id="Line_11-11" data-name="Line 11" y2="11" transform="translate(958.5 852.5)" fill="none" stroke="#16becf" stroke-width="3"/>
        <line id="Line_12-11" data-name="Line 12" y2="11" transform="translate(962.5 852.5)" fill="none" stroke="#16becf" stroke-width="3"/>
      </g>
      <g id="Group_2784" data-name="Group 2784" transform="translate(0 176)">
        <line id="Line_11-12" data-name="Line 11" y2="11" transform="translate(958.5 852.5)" fill="none" stroke="#16becf" stroke-width="3"/>
        <line id="Line_12-12" data-name="Line 12" y2="11" transform="translate(962.5 852.5)" fill="none" stroke="#16becf" stroke-width="3"/>
      </g>
      <g id="Group_2785" data-name="Group 2785" transform="translate(0 192)">
        <line id="Line_11-13" data-name="Line 11" y2="11" transform="translate(958.5 852.5)" fill="none" stroke="#16becf" stroke-width="3"/>
        <line id="Line_12-13" data-name="Line 12" y2="11" transform="translate(962.5 852.5)" fill="none" stroke="#16becf" stroke-width="3"/>
      </g>
      <g id="Group_2786" data-name="Group 2786" transform="translate(0 208)">
        <line id="Line_11-14" data-name="Line 11" y2="11" transform="translate(958.5 852.5)" fill="none" stroke="#16becf" stroke-width="3"/>
        <line id="Line_12-14" data-name="Line 12" y2="11" transform="translate(962.5 852.5)" fill="none" stroke="#16becf" stroke-width="3"/>
      </g>
      <g id="Group_2787" data-name="Group 2787" transform="translate(0 224)">
        <line id="Line_11-15" data-name="Line 11" y2="11" transform="translate(958.5 852.5)" fill="none" stroke="#16becf" stroke-width="3"/>
        <line id="Line_12-15" data-name="Line 12" y2="11" transform="translate(962.5 852.5)" fill="none" stroke="#16becf" stroke-width="3"/>
      </g>
      <g id="Group_2788" data-name="Group 2788" transform="translate(0 240)">
        <line id="Line_11-16" data-name="Line 11" y2="11" transform="translate(958.5 852.5)" fill="none" stroke="#16becf" stroke-width="3"/>
        <line id="Line_12-16" data-name="Line 12" y2="11" transform="translate(962.5 852.5)" fill="none" stroke="#16becf" stroke-width="3"/>
      </g>
      <g id="Group_2789" data-name="Group 2789" transform="translate(0 256)">
        <line id="Line_11-17" data-name="Line 11" y2="11" transform="translate(958.5 852.5)" fill="none" stroke="#16becf" stroke-width="3"/>
        <line id="Line_12-17" data-name="Line 12" y2="11" transform="translate(962.5 852.5)" fill="none" stroke="#16becf" stroke-width="3"/>
      </g>
      <g id="Group_2790" data-name="Group 2790" transform="translate(0 272)">
        <line id="Line_11-18" data-name="Line 11" y2="11" transform="translate(958.5 852.5)" fill="none" stroke="#16becf" stroke-width="3"/>
        <line id="Line_12-18" data-name="Line 12" y2="11" transform="translate(962.5 852.5)" fill="none" stroke="#16becf" stroke-width="3"/>
      </g>
      <g id="Group_2791" data-name="Group 2791" transform="translate(0 288)">
        <line id="Line_11-19" data-name="Line 11" y2="11" transform="translate(958.5 852.5)" fill="none" stroke="#16becf" stroke-width="3"/>
        <line id="Line_12-19" data-name="Line 12" y2="11" transform="translate(962.5 852.5)" fill="none" stroke="#16becf" stroke-width="3"/>
      </g>
    </g>
  </g>
</svg>
