<svg xmlns="http://www.w3.org/2000/svg" width="127" height="127" viewBox="0 0 127 127">
  <g id="Collabaration" transform="translate(-1727 -2702)">
    <circle id="Ellipse_2714" data-name="Ellipse 2714" cx="63.5" cy="63.5" r="63.5" transform="translate(1727 2702)" fill="#ccecff"/>
    <g id="collaboration" transform="translate(1765.863 3252.912)">
      <path id="Path_22193" data-name="Path 22193" d="M208.655-511.789A5,5,0,0,0,205.1-508.3a4.884,4.884,0,0,0,2.331,5.386,4.847,4.847,0,0,0,4.643,0,4.788,4.788,0,0,0,1.053-7.576A4.822,4.822,0,0,0,208.655-511.789Zm2.256,1.711a3.717,3.717,0,0,1,1.767,1.654,3.539,3.539,0,0,1-.028,2.632,3.556,3.556,0,0,1-1.532,1.579,2.474,2.474,0,0,1-1.363.235,2.474,2.474,0,0,1-1.363-.235,3.556,3.556,0,0,1-1.532-1.579,3.514,3.514,0,0,1-.038-2.6,3.939,3.939,0,0,1,1.3-1.457A3.4,3.4,0,0,1,210.911-510.078Z" transform="translate(-185.57 0)" fill="#21bdca"/>
      <path id="Path_22194" data-name="Path 22194" d="M59.936-460.291a.879.879,0,0,0-.592.742c0,.423.2.611,1.137,1.053l.94.442-.827.489a19.335,19.335,0,0,0-8.713,11.749,22.43,22.43,0,0,0-.573,3.835c-.094,1.335.132,1.72.94,1.617.47-.056.583-.367.7-1.814a17.52,17.52,0,0,1,6.542-12.66,12.838,12.838,0,0,1,2-1.353,2.5,2.5,0,0,1-.254.611c-.338.667-.367,1.015-.094,1.363a.571.571,0,0,0,.536.244,1.1,1.1,0,0,0,.517-.132,16.731,16.731,0,0,0,1.062-1.993c.93-1.964.977-2.134.611-2.51a29.636,29.636,0,0,0-3.487-1.654A1.194,1.194,0,0,0,59.936-460.291Z" transform="translate(-46.343 -46.761)" fill="#21bdca"/>
      <path id="Path_22195" data-name="Path 22195" d="M324.814-444.812a.709.709,0,0,0-.2.949c.1.216.329.367.846.611A17.751,17.751,0,0,1,335.51-429.83l.066.47-.583-.536c-.658-.611-.949-.677-1.372-.31a.631.631,0,0,0-.263.564c0,.32.1.451,1.4,1.748,1.889,1.889,1.682,1.889,3.543.019,1.3-1.3,1.391-1.41,1.391-1.739a.784.784,0,0,0-.761-.818c-.235,0-.423.132-.987.667-.79.771-.677.855-.93-.761a19.274,19.274,0,0,0-8.1-12.6A15.943,15.943,0,0,0,325.3-445,.963.963,0,0,0,324.814-444.812Z" transform="translate(-293.89 -60.623)" fill="#21bdca"/>
      <path id="Path_22196" data-name="Path 22196" d="M182.162-400.507a3.606,3.606,0,0,0-1.814,1.071,3.768,3.768,0,0,0-1.128,2.228,30.2,30.2,0,0,0-.075,3.29c.028,2.932.066,3.12.743,3.788.686.686.451.667,6.476.667,5.038,0,5.433-.019,5.78-.179a2.613,2.613,0,0,0,1.212-1.231c.188-.4.2-.583.2-3.431,0-3.393-.038-3.637-.677-4.558a3.844,3.844,0,0,0-3.036-1.72,3.382,3.382,0,0,0-1.457.31,4.068,4.068,0,0,1-2.021.32,4.184,4.184,0,0,1-2.021-.31A3.111,3.111,0,0,0,182.162-400.507Zm1.4,1.682a9.161,9.161,0,0,0,2.8.526,9.17,9.17,0,0,0,2.82-.536c.639-.235.649-.235,1.137-.075a2.539,2.539,0,0,1,1.419,1.25c.207.432.216.508.216,3.28v2.829l-.226.244-.226.244H181.222l-.226-.244-.226-.244v-2.829c0-2.754.009-2.848.207-3.261a2.472,2.472,0,0,1,1.306-1.222C182.876-399.088,182.848-399.088,183.562-398.825Z" transform="translate(-162.178 -100.839)" fill="#21bdca"/>
      <path id="Path_22197" data-name="Path 22197" d="M29.354-229.773a4.99,4.99,0,0,0-3.139,3.252,5.9,5.9,0,0,0-.019,2.5,4.864,4.864,0,0,0,5.621,3.515,5.117,5.117,0,0,0,3.731-3.731,4.864,4.864,0,0,0-3.515-5.621A5.383,5.383,0,0,0,29.354-229.773Zm2.838,1.682a3.178,3.178,0,0,1-.009,5.752,3.117,3.117,0,0,1-3.572-.6,3.237,3.237,0,0,1-.348-4.154,3.6,3.6,0,0,1,1.6-1.165A3.762,3.762,0,0,1,32.192-228.091Z" transform="translate(-23.497 -255.426)" fill="#21bdca"/>
      <path id="Path_22198" data-name="Path 22198" d="M387.641-229.744a4.894,4.894,0,0,0-3.468,5.621,5.117,5.117,0,0,0,3.731,3.731,4.864,4.864,0,0,0,5.621-3.515,5.792,5.792,0,0,0-.009-2.444,5.011,5.011,0,0,0-3.384-3.384A6.35,6.35,0,0,0,387.641-229.744ZM390.226-228a3.737,3.737,0,0,1,1.551,1.551,2.388,2.388,0,0,1,.235,1.316,2.562,2.562,0,0,1-.254,1.382,3.132,3.132,0,0,1-4.267,1.494,3.181,3.181,0,0,1-1.081-4.869,3.082,3.082,0,0,1,1.316-.94A3.382,3.382,0,0,1,390.226-228Z" transform="translate(-347.854 -255.54)" fill="#21bdca"/>
      <path id="Path_22199" data-name="Path 22199" d="M2.981-118.808a4.148,4.148,0,0,0-2.331,1.88c-.479.874-.536,1.372-.508,4.549.028,2.744.038,2.895.235,3.252a2.989,2.989,0,0,0,1.156,1.137c.31.169.667.179,5.592.207,5.677.028,5.771.019,6.438-.461.94-.686,1.071-1.306,1.006-4.859-.047-2.782-.085-3.064-.573-3.891a5.036,5.036,0,0,0-1.466-1.457,3.192,3.192,0,0,0-2.688-.32,6.885,6.885,0,0,1-5.1-.028A3,3,0,0,0,2.981-118.808Zm1.814,1.729a8.206,8.206,0,0,0,5.094.009,5.889,5.889,0,0,1,1.024-.282,2.667,2.667,0,0,1,1.842,1.41c.179.385.2.639.226,2.961a19.853,19.853,0,0,1-.066,2.942c-.188.7-.009.677-5.649.677h-5l-.273-.273-.273-.273v-2.669a27.54,27.54,0,0,1,.094-3.008,2.551,2.551,0,0,1,1.212-1.5,2.37,2.37,0,0,1,.724-.263A6.284,6.284,0,0,1,4.795-117.078Z" transform="translate(0 -356.034)" fill="#21bdca"/>
      <path id="Path_22200" data-name="Path 22200" d="M360.859-118.805a4.143,4.143,0,0,0-2.594,2.613,35.349,35.349,0,0,0-.141,6.3,2.4,2.4,0,0,0,.949,1.626c.667.479.761.489,6.438.461,4.925-.028,5.282-.038,5.592-.207a2.988,2.988,0,0,0,1.156-1.137c.2-.357.207-.508.235-3.252.028-3.177-.028-3.675-.508-4.549a4.669,4.669,0,0,0-1.56-1.56,3.2,3.2,0,0,0-2.528-.31,6.885,6.885,0,0,1-5.1.028A2.965,2.965,0,0,0,360.859-118.805Zm1.889,1.711a8.257,8.257,0,0,0,5.132-.019,2.63,2.63,0,0,1,1.194-.226,2.518,2.518,0,0,1,1.5,1.184l.291.517.028,2.848.028,2.838-.282.282-.273.282h-5c-5.639,0-5.461.019-5.649-.677a19.852,19.852,0,0,1-.066-2.942c.028-2.34.047-2.566.226-2.961a2.7,2.7,0,0,1,1.212-1.212C361.6-117.433,361.77-117.424,362.748-117.095Z" transform="translate(-324.267 -356.008)" fill="#21bdca"/>
      <path id="Path_22201" data-name="Path 22201" d="M173.84-93.092c-.564.179-1.344.4-1.72.517-1.09.329-1.269.7-.808,1.635.987,1.983,1.579,2.97,1.823,3.073a.816.816,0,0,0,.874-.169c.3-.329.273-.6-.113-1.391l-.367-.771.667.179a24.055,24.055,0,0,0,4.107.611A20.065,20.065,0,0,0,186-90.7a2.687,2.687,0,0,0,.9-.489.821.821,0,0,0-.451-1.241,2.464,2.464,0,0,0-.987.226,20.112,20.112,0,0,1-4.5,1.081,24.444,24.444,0,0,1-4.3-.075c-1.391-.216-2.115-.395-1.88-.479.6-.216.733-.282.893-.5a.638.638,0,0,0-.019-.9C175.334-93.44,175-93.44,173.84-93.092Z" transform="translate(-154.871 -379.221)" fill="#21bdca"/>
    </g>
  </g>
</svg>
