<svg id="Combined_Shape_Combined_Shape_Mask" data-name="Combined Shape + Combined Shape Mask" xmlns="http://www.w3.org/2000/svg" width="293.414" height="180.401" viewBox="0 0 293.414 180.401">
  <path id="Combined_Shape" data-name="Combined Shape" d="M274.708,77.948a3.11,3.11,0,1,1,3.11,3.118A3.114,3.114,0,0,1,274.708,77.948Zm-24.973,0a3.11,3.11,0,1,1,3.109,3.118A3.114,3.114,0,0,1,249.735,77.948Zm-24.973,0a3.11,3.11,0,1,1,3.109,3.118A3.114,3.114,0,0,1,224.762,77.948Zm-24.973,0a3.11,3.11,0,1,1,3.11,3.118A3.114,3.114,0,0,1,199.788,77.948Zm-24.974,0a3.11,3.11,0,1,1,3.11,3.118A3.114,3.114,0,0,1,174.814,77.948Zm-24.973,0a3.11,3.11,0,1,1,3.109,3.118A3.114,3.114,0,0,1,149.841,77.948Zm-24.974,0a3.11,3.11,0,1,1,3.11,3.118A3.114,3.114,0,0,1,124.867,77.948Zm-24.973,0A3.11,3.11,0,1,1,103,81.067,3.114,3.114,0,0,1,99.894,77.948Zm-24.973,0a3.11,3.11,0,1,1,3.109,3.118A3.114,3.114,0,0,1,74.921,77.948Zm-24.973,0a3.11,3.11,0,1,1,3.11,3.118A3.114,3.114,0,0,1,49.947,77.948Zm-24.974,0a3.11,3.11,0,1,1,3.11,3.118A3.114,3.114,0,0,1,24.973,77.948ZM0,77.948a3.11,3.11,0,1,1,3.11,3.118A3.114,3.114,0,0,1,0,77.948ZM287.195,53a3.11,3.11,0,1,1,3.11,3.118A3.114,3.114,0,0,1,287.195,53Zm-24.973,0a3.11,3.11,0,1,1,3.109,3.118A3.114,3.114,0,0,1,262.221,53Zm-24.973,0a3.11,3.11,0,1,1,3.109,3.118A3.114,3.114,0,0,1,237.248,53Zm-24.973,0a3.11,3.11,0,1,1,3.109,3.118A3.114,3.114,0,0,1,212.275,53ZM187.3,53a3.11,3.11,0,1,1,3.11,3.118A3.114,3.114,0,0,1,187.3,53Zm-24.973,0a3.11,3.11,0,1,1,3.109,3.118A3.114,3.114,0,0,1,162.328,53Zm-24.974,0a3.11,3.11,0,1,1,3.11,3.118A3.114,3.114,0,0,1,137.354,53ZM112.38,53a3.11,3.11,0,1,1,3.109,3.118A3.114,3.114,0,0,1,112.38,53ZM87.407,53a3.11,3.11,0,1,1,3.109,3.118A3.114,3.114,0,0,1,87.407,53ZM62.434,53a3.11,3.11,0,1,1,3.11,3.118A3.114,3.114,0,0,1,62.434,53ZM37.46,53a3.11,3.11,0,1,1,3.11,3.118A3.114,3.114,0,0,1,37.46,53ZM12.487,53a3.11,3.11,0,1,1,3.11,3.118A3.114,3.114,0,0,1,12.487,53ZM274.708,28.061a3.11,3.11,0,1,1,3.11,3.119A3.114,3.114,0,0,1,274.708,28.061Zm-24.973,0a3.11,3.11,0,1,1,3.109,3.119A3.114,3.114,0,0,1,249.735,28.061Zm-24.973,0a3.11,3.11,0,1,1,3.109,3.119A3.114,3.114,0,0,1,224.762,28.061Zm-24.973,0a3.11,3.11,0,1,1,3.11,3.119A3.114,3.114,0,0,1,199.788,28.061Zm-24.974,0a3.11,3.11,0,1,1,3.11,3.119A3.114,3.114,0,0,1,174.814,28.061Zm-24.973,0a3.11,3.11,0,1,1,3.109,3.119A3.114,3.114,0,0,1,149.841,28.061Zm-24.974,0a3.11,3.11,0,1,1,3.11,3.119A3.114,3.114,0,0,1,124.867,28.061Zm-24.973,0A3.11,3.11,0,1,1,103,31.18,3.114,3.114,0,0,1,99.894,28.061Zm-24.973,0A3.11,3.11,0,1,1,78.03,31.18,3.114,3.114,0,0,1,74.921,28.061Zm-24.973,0a3.11,3.11,0,1,1,3.11,3.119A3.114,3.114,0,0,1,49.947,28.061Zm-24.974,0a3.11,3.11,0,1,1,3.11,3.119A3.114,3.114,0,0,1,24.973,28.061ZM0,28.061A3.11,3.11,0,1,1,3.11,31.18,3.114,3.114,0,0,1,0,28.061ZM287.195,3.118a3.11,3.11,0,1,1,3.11,3.119A3.114,3.114,0,0,1,287.195,3.118Zm-24.973,0a3.11,3.11,0,1,1,3.109,3.119A3.114,3.114,0,0,1,262.221,3.118Zm-24.973,0a3.11,3.11,0,1,1,3.109,3.119A3.114,3.114,0,0,1,237.248,3.118Zm-24.973,0a3.11,3.11,0,1,1,3.109,3.119A3.114,3.114,0,0,1,212.275,3.118Zm-24.974,0a3.11,3.11,0,1,1,3.11,3.119A3.114,3.114,0,0,1,187.3,3.118Zm-24.973,0a3.11,3.11,0,1,1,3.109,3.119A3.114,3.114,0,0,1,162.328,3.118Zm-24.974,0a3.11,3.11,0,1,1,3.11,3.119A3.114,3.114,0,0,1,137.354,3.118Zm-24.973,0a3.11,3.11,0,1,1,3.109,3.119A3.114,3.114,0,0,1,112.38,3.118Zm-24.973,0a3.11,3.11,0,1,1,3.109,3.119A3.114,3.114,0,0,1,87.407,3.118Zm-24.973,0a3.11,3.11,0,1,1,3.11,3.119A3.114,3.114,0,0,1,62.434,3.118Zm-24.974,0a3.11,3.11,0,1,1,3.11,3.119A3.114,3.114,0,0,1,37.46,3.118Zm-24.973,0A3.11,3.11,0,1,1,15.6,6.236,3.114,3.114,0,0,1,12.487,3.118Z" fill="#16becf"/>
  <path id="Combined_Shape-2" data-name="Combined Shape" d="M274.708,77.948a3.11,3.11,0,1,1,3.11,3.118A3.114,3.114,0,0,1,274.708,77.948Zm-24.973,0a3.11,3.11,0,1,1,3.109,3.118A3.114,3.114,0,0,1,249.735,77.948Zm-24.973,0a3.11,3.11,0,1,1,3.109,3.118A3.114,3.114,0,0,1,224.762,77.948Zm-24.973,0a3.11,3.11,0,1,1,3.11,3.118A3.114,3.114,0,0,1,199.788,77.948Zm-24.974,0a3.11,3.11,0,1,1,3.11,3.118A3.114,3.114,0,0,1,174.814,77.948Zm-24.973,0a3.11,3.11,0,1,1,3.109,3.118A3.114,3.114,0,0,1,149.841,77.948Zm-24.974,0a3.11,3.11,0,1,1,3.11,3.118A3.114,3.114,0,0,1,124.867,77.948Zm-24.973,0A3.11,3.11,0,1,1,103,81.067,3.114,3.114,0,0,1,99.894,77.948Zm-24.973,0a3.11,3.11,0,1,1,3.109,3.118A3.114,3.114,0,0,1,74.921,77.948Zm-24.973,0a3.11,3.11,0,1,1,3.11,3.118A3.114,3.114,0,0,1,49.947,77.948Zm-24.974,0a3.11,3.11,0,1,1,3.11,3.118A3.114,3.114,0,0,1,24.973,77.948ZM0,77.948a3.11,3.11,0,1,1,3.11,3.118A3.114,3.114,0,0,1,0,77.948ZM287.195,53a3.11,3.11,0,1,1,3.11,3.118A3.114,3.114,0,0,1,287.195,53Zm-24.973,0a3.11,3.11,0,1,1,3.109,3.118A3.114,3.114,0,0,1,262.221,53Zm-24.973,0a3.11,3.11,0,1,1,3.109,3.118A3.114,3.114,0,0,1,237.248,53Zm-24.973,0a3.11,3.11,0,1,1,3.109,3.118A3.114,3.114,0,0,1,212.275,53ZM187.3,53a3.11,3.11,0,1,1,3.11,3.118A3.114,3.114,0,0,1,187.3,53Zm-24.973,0a3.11,3.11,0,1,1,3.109,3.118A3.114,3.114,0,0,1,162.328,53Zm-24.974,0a3.11,3.11,0,1,1,3.11,3.118A3.114,3.114,0,0,1,137.354,53ZM112.38,53a3.11,3.11,0,1,1,3.109,3.118A3.114,3.114,0,0,1,112.38,53ZM87.407,53a3.11,3.11,0,1,1,3.109,3.118A3.114,3.114,0,0,1,87.407,53ZM62.434,53a3.11,3.11,0,1,1,3.11,3.118A3.114,3.114,0,0,1,62.434,53ZM37.46,53a3.11,3.11,0,1,1,3.11,3.118A3.114,3.114,0,0,1,37.46,53ZM12.487,53a3.11,3.11,0,1,1,3.11,3.118A3.114,3.114,0,0,1,12.487,53ZM274.708,28.061a3.11,3.11,0,1,1,3.11,3.119A3.114,3.114,0,0,1,274.708,28.061Zm-24.973,0a3.11,3.11,0,1,1,3.109,3.119A3.114,3.114,0,0,1,249.735,28.061Zm-24.973,0a3.11,3.11,0,1,1,3.109,3.119A3.114,3.114,0,0,1,224.762,28.061Zm-24.973,0a3.11,3.11,0,1,1,3.11,3.119A3.114,3.114,0,0,1,199.788,28.061Zm-24.974,0a3.11,3.11,0,1,1,3.11,3.119A3.114,3.114,0,0,1,174.814,28.061Zm-24.973,0a3.11,3.11,0,1,1,3.109,3.119A3.114,3.114,0,0,1,149.841,28.061Zm-24.974,0a3.11,3.11,0,1,1,3.11,3.119A3.114,3.114,0,0,1,124.867,28.061Zm-24.973,0A3.11,3.11,0,1,1,103,31.18,3.114,3.114,0,0,1,99.894,28.061Zm-24.973,0A3.11,3.11,0,1,1,78.03,31.18,3.114,3.114,0,0,1,74.921,28.061Zm-24.973,0a3.11,3.11,0,1,1,3.11,3.119A3.114,3.114,0,0,1,49.947,28.061Zm-24.974,0a3.11,3.11,0,1,1,3.11,3.119A3.114,3.114,0,0,1,24.973,28.061ZM0,28.061A3.11,3.11,0,1,1,3.11,31.18,3.114,3.114,0,0,1,0,28.061ZM287.195,3.118a3.11,3.11,0,1,1,3.11,3.119A3.114,3.114,0,0,1,287.195,3.118Zm-24.973,0a3.11,3.11,0,1,1,3.109,3.119A3.114,3.114,0,0,1,262.221,3.118Zm-24.973,0a3.11,3.11,0,1,1,3.109,3.119A3.114,3.114,0,0,1,237.248,3.118Zm-24.973,0a3.11,3.11,0,1,1,3.109,3.119A3.114,3.114,0,0,1,212.275,3.118Zm-24.974,0a3.11,3.11,0,1,1,3.11,3.119A3.114,3.114,0,0,1,187.3,3.118Zm-24.973,0a3.11,3.11,0,1,1,3.109,3.119A3.114,3.114,0,0,1,162.328,3.118Zm-24.974,0a3.11,3.11,0,1,1,3.11,3.119A3.114,3.114,0,0,1,137.354,3.118Zm-24.973,0a3.11,3.11,0,1,1,3.109,3.119A3.114,3.114,0,0,1,112.38,3.118Zm-24.973,0a3.11,3.11,0,1,1,3.109,3.119A3.114,3.114,0,0,1,87.407,3.118Zm-24.973,0a3.11,3.11,0,1,1,3.11,3.119A3.114,3.114,0,0,1,62.434,3.118Zm-24.974,0a3.11,3.11,0,1,1,3.11,3.119A3.114,3.114,0,0,1,37.46,3.118Zm-24.973,0A3.11,3.11,0,1,1,15.6,6.236,3.114,3.114,0,0,1,12.487,3.118Z" transform="translate(0 99.335)" fill="#16becf"/>
</svg>
