<svg xmlns="http://www.w3.org/2000/svg" width="294.557" height="81.066" viewBox="0 0 294.557 81.066">
  <path id="Combined_Shape" data-name="Combined Shape" d="M275.768,77.995a3.125,3.125,0,1,1,3.126,3.071A3.1,3.1,0,0,1,275.768,77.995Zm-25.079,0a3.124,3.124,0,1,1,3.124,3.071A3.1,3.1,0,0,1,250.689,77.995Zm-25.079,0a3.124,3.124,0,1,1,3.123,3.071A3.1,3.1,0,0,1,225.61,77.995Zm-25.08,0a3.124,3.124,0,1,1,3.124,3.071A3.1,3.1,0,0,1,200.53,77.995Zm-25.079,0a3.124,3.124,0,1,1,3.123,3.071A3.1,3.1,0,0,1,175.451,77.995Zm-25.08,0a3.125,3.125,0,1,1,3.124,3.071A3.1,3.1,0,0,1,150.37,77.995Zm-24.972,0a3.125,3.125,0,1,1,3.125,3.071A3.1,3.1,0,0,1,125.4,77.995Zm-25.079,0a3.124,3.124,0,1,1,3.124,3.071A3.1,3.1,0,0,1,100.319,77.995Zm-25.079,0a3.124,3.124,0,1,1,3.124,3.071A3.1,3.1,0,0,1,75.239,77.995Zm-25.079,0a3.124,3.124,0,1,1,3.124,3.071A3.1,3.1,0,0,1,50.16,77.995Zm-25.08,0A3.125,3.125,0,1,1,28.2,81.066,3.1,3.1,0,0,1,25.079,77.995ZM0,77.995a3.1,3.1,0,0,1,3.124-3.071,3.071,3.071,0,1,1,0,6.142A3.1,3.1,0,0,1,0,77.995ZM288.309,53.429a3.124,3.124,0,1,1,3.124,3.071A3.1,3.1,0,0,1,288.309,53.429Zm-25.08,0a3.124,3.124,0,1,1,3.124,3.071A3.1,3.1,0,0,1,263.228,53.429Zm-25.079,0a3.124,3.124,0,1,1,3.124,3.071A3.1,3.1,0,0,1,238.149,53.429Zm-25.079,0a3.125,3.125,0,1,1,3.124,3.071A3.1,3.1,0,0,1,213.07,53.429Zm-25.08,0a3.125,3.125,0,1,1,3.124,3.071A3.1,3.1,0,0,1,187.989,53.429Zm-25.079,0a3.124,3.124,0,1,1,3.124,3.071A3.1,3.1,0,0,1,162.911,53.429Zm-24.973,0a3.125,3.125,0,1,1,3.125,3.071A3.1,3.1,0,0,1,137.938,53.429Zm-25.079,0a3.124,3.124,0,1,1,3.124,3.071A3.1,3.1,0,0,1,112.858,53.429Zm-25.079,0A3.124,3.124,0,1,1,90.9,56.5,3.1,3.1,0,0,1,87.779,53.429Zm-25.079,0A3.124,3.124,0,1,1,65.823,56.5,3.1,3.1,0,0,1,62.7,53.429Zm-25.08,0A3.125,3.125,0,1,1,40.743,56.5,3.1,3.1,0,0,1,37.619,53.429Zm-25.079,0A3.124,3.124,0,1,1,15.664,56.5,3.1,3.1,0,0,1,12.54,53.429ZM275.768,27.636a3.125,3.125,0,1,1,3.126,3.071A3.1,3.1,0,0,1,275.768,27.636Zm-25.079,0a3.124,3.124,0,1,1,3.124,3.071A3.1,3.1,0,0,1,250.689,27.636Zm-25.079,0a3.124,3.124,0,1,1,3.123,3.071A3.1,3.1,0,0,1,225.61,27.636Zm-25.08,0a3.124,3.124,0,1,1,3.124,3.071A3.1,3.1,0,0,1,200.53,27.636Zm-25.079,0a3.124,3.124,0,1,1,3.123,3.071A3.1,3.1,0,0,1,175.451,27.636Zm-25.08,0a3.125,3.125,0,1,1,3.124,3.071A3.1,3.1,0,0,1,150.37,27.636Zm-24.972,0a3.125,3.125,0,1,1,3.125,3.071A3.1,3.1,0,0,1,125.4,27.636Zm-25.079,0a3.124,3.124,0,1,1,3.124,3.071A3.1,3.1,0,0,1,100.319,27.636Zm-25.079,0a3.124,3.124,0,1,1,3.124,3.071A3.1,3.1,0,0,1,75.239,27.636Zm-25.079,0a3.124,3.124,0,1,1,3.124,3.071A3.1,3.1,0,0,1,50.16,27.636Zm-25.08,0A3.125,3.125,0,1,1,28.2,30.707,3.1,3.1,0,0,1,25.079,27.636ZM0,27.636a3.1,3.1,0,0,1,3.124-3.071,3.071,3.071,0,1,1,0,6.142A3.1,3.1,0,0,1,0,27.636ZM288.309,3.071a3.124,3.124,0,0,1,6.248,0,3.124,3.124,0,0,1-6.248,0Zm-25.08,0a3.124,3.124,0,0,1,6.248,0,3.124,3.124,0,0,1-6.248,0Zm-25.079,0a3.124,3.124,0,0,1,6.248,0,3.124,3.124,0,0,1-6.248,0Zm-25.079,0a3.125,3.125,0,0,1,6.249,0,3.125,3.125,0,0,1-6.249,0Zm-25.08,0a3.125,3.125,0,0,1,6.249,0,3.125,3.125,0,0,1-6.249,0Zm-25.079,0a3.124,3.124,0,0,1,6.248,0,3.124,3.124,0,0,1-6.248,0Zm-24.973,0a3.125,3.125,0,0,1,6.249,0,3.125,3.125,0,0,1-6.249,0Zm-25.079,0a3.124,3.124,0,0,1,6.248,0,3.124,3.124,0,0,1-6.248,0Zm-25.079,0a3.124,3.124,0,0,1,6.248,0,3.124,3.124,0,0,1-6.248,0Zm-25.079,0a3.124,3.124,0,0,1,6.248,0,3.124,3.124,0,0,1-6.248,0Zm-25.08,0a3.125,3.125,0,0,1,6.249,0,3.125,3.125,0,0,1-6.249,0Zm-25.079,0a3.124,3.124,0,0,1,6.248,0,3.124,3.124,0,0,1-6.248,0Z" fill="#16becf"/>
</svg>
