<svg xmlns="http://www.w3.org/2000/svg" width="119" height="119" viewBox="0 0 119 119">
  <g id="_4" data-name="4" transform="translate(0.156 0.105)">
    <circle id="Ellipse_62" data-name="Ellipse 62" cx="59.5" cy="59.5" r="59.5" transform="translate(-0.156 -0.105)" fill="rgba(22,190,207,0.67)"/>
    <g id="speech-bubble" transform="translate(26.073 29.797)">
      <path id="Path_1063" data-name="Path 1063" d="M42.06-485.779a28.511,28.511,0,0,0-5.148,1.089,28.922,28.922,0,0,0-6.319,3.137,25.686,25.686,0,0,0-4.779,4.667,18.2,18.2,0,0,0-3.2,7.441c-.118.739-.237,1.413-.263,1.5-.053.194-.224.233-1.988.428A25.867,25.867,0,0,0,7.8-462.381,18.764,18.764,0,0,0,.695-451.116a20.781,20.781,0,0,0,.118,6.248A18.4,18.4,0,0,0,4.8-436.831a2.721,2.721,0,0,1,.908,1.841,8.257,8.257,0,0,1-.29,3.254,9.661,9.661,0,0,1-1.185,2.281c-.171.22-.5.648-.724.959-.461.583-.527.946-.29,1.465.342.739,1.224.881,3.357.544a14.232,14.232,0,0,0,7.043-3.124l.882-.687.829.259a35.937,35.937,0,0,0,6.28,1.05,24.421,24.421,0,0,0,12.994-2.476,20.7,20.7,0,0,0,5.727-4.031,18.823,18.823,0,0,0,4.581-6.935,18.578,18.578,0,0,0,.948-4.083c0-.48.342-.648,1.29-.648a33.052,33.052,0,0,0,6.49-1.244,3.016,3.016,0,0,1,1,.635,14.327,14.327,0,0,0,7.07,3.137c2.133.337,3.015.194,3.357-.544a1.237,1.237,0,0,0-.276-1.465c-.237-.311-.566-.739-.737-.959a7.794,7.794,0,0,1-1.474-5.535,2.721,2.721,0,0,1,.908-1.841,17.918,17.918,0,0,0,4.318-10.772,15.156,15.156,0,0,0-.566-4.978C64.757-480.179,53.421-486.945,42.06-485.779Zm4.871,2.58a21.993,21.993,0,0,1,13.692,6.3A15.66,15.66,0,0,1,64.967-469a18,18,0,0,1-.053,5.38,15.763,15.763,0,0,1-3.7,7.272c-1.08,1.244-1.3,1.97-1.29,4.135a9.68,9.68,0,0,0,.816,4.109,2.116,2.116,0,0,1,.224.648,12.751,12.751,0,0,1-2.528-.907,16.993,16.993,0,0,1-2.962-2.139c-.922-.778-1.224-.83-2.449-.415a29.776,29.776,0,0,1-6.306,1.193l-.79.039-.039-.389a18.616,18.616,0,0,0-5.924-11.485l-1.119-1.024H56.4l.421-.376a.975.975,0,0,0,.434-.92.975.975,0,0,0-.434-.92l-.421-.376H34.832l-.908-.4a26.333,26.333,0,0,0-7.346-2c-1.632-.143-1.567-.091-1.461-.946a16.141,16.141,0,0,1,5.529-9.774A21.773,21.773,0,0,1,46.931-483.2ZM26.248-465c8.689,1.024,15.258,6.468,16.865,14.013a21.882,21.882,0,0,1,0,5.25,17.465,17.465,0,0,1-9.69,12.029,24.711,24.711,0,0,1-17.681,1.05c-1.738-.531-1.948-.518-2.923.3a16.991,16.991,0,0,1-2.962,2.139,12.751,12.751,0,0,1-2.528.907,2.116,2.116,0,0,1,.224-.648,9.681,9.681,0,0,0,.816-4.109c.013-2.165-.211-2.891-1.29-4.135a15.763,15.763,0,0,1-3.7-7.272,18,18,0,0,1-.053-5.38,15.66,15.66,0,0,1,4.345-7.894A22.537,22.537,0,0,1,26.248-465Z" transform="translate(-0.512 485.909)" fill="#fff"/>
      <path id="Path_1064" data-name="Path 1064" d="M246.843-385.754a1.555,1.555,0,0,0-.843,1.2,1.507,1.507,0,0,0,1.2,1.251.888.888,0,0,0,.922-.316,1.013,1.013,0,0,0,.448-.948,1,1,0,0,0-.434-.935A1.08,1.08,0,0,0,246.843-385.754Z" transform="translate(-213.681 398.827)" fill="#fff"/>
      <path id="Path_1065" data-name="Path 1065" d="M286.843-385.868a1.555,1.555,0,0,0-.843,1.2,1.325,1.325,0,0,0,.382.8l.382.434,8.768.04,8.755.026.435-.382a1,1,0,0,0,.434-.935,1,1,0,0,0-.434-.935L304.3-386l-8.6.013C290.99-385.987,286.987-385.934,286.843-385.868Z" transform="translate(-248.415 398.942)" fill="#fff"/>
      <path id="Path_1066" data-name="Path 1066" d="M81.268-225.811a1.283,1.283,0,0,0-.448,2.054,1.864,1.864,0,0,0,.816.421c.421.066.54.013.948-.395a1.058,1.058,0,0,0,.013-1.751A1.073,1.073,0,0,0,81.268-225.811Z" transform="translate(-69.948 259.597)" fill="#fff"/>
      <path id="Path_1067" data-name="Path 1067" d="M121.26-225.882a1.276,1.276,0,0,0-.421,2.08l.355.369,8.755.04,8.742.026.434-.382a1,1,0,0,0,.434-.935,1,1,0,0,0-.434-.935L138.7-226l-8.6.013C125.394-225.987,121.4-225.934,121.26-225.882Z" transform="translate(-104.674 259.667)" fill="#fff"/>
      <path id="Path_1068" data-name="Path 1068" d="M81.26-165.882a1.276,1.276,0,0,0-.421,2.08l.355.369,11.388.04,11.375.026.434-.382a1,1,0,0,0,.434-.935,1,1,0,0,0-.434-.935L103.97-166l-11.23.013C86.579-165.987,81.4-165.934,81.26-165.882Z" transform="translate(-69.94 207.439)" fill="#fff"/>
    </g>
  </g>
</svg>
