<svg xmlns="http://www.w3.org/2000/svg" width="111" height="110" viewBox="0 0 111 110">
  <g id="Group_5781" data-name="Group 5781" transform="translate(-0.188)">
    <rect id="Rectangle_8384" data-name="Rectangle 8384" width="111" height="110" rx="24" transform="translate(0.188)" fill="#ccecff"/>
    <g id="_04" data-name="04" transform="translate(29.005 28.5)">
      <g id="Group_5793" data-name="Group 5793">
        <path id="Path_20851" data-name="Path 20851" d="M27.972,0H12.886A1.884,1.884,0,0,0,11,1.886V9.429a1.884,1.884,0,0,0,1.886,1.886H27.972a1.884,1.884,0,0,0,1.886-1.886V1.886A1.884,1.884,0,0,0,27.972,0Z" transform="translate(6.303)" fill="#fff"/>
        <path id="Path_20852" data-name="Path 20852" d="M51.792,2H38.426V8.594a3.318,3.318,0,0,1-3.341,3.3H18.378a3.318,3.318,0,0,1-3.341-3.3V2H1.671A1.66,1.66,0,0,0,0,3.648V43.212A1.642,1.642,0,0,0,.625,44.5a1.7,1.7,0,0,0,1.408.323l14.52-3.185,19.559,8.041a1.641,1.641,0,0,0,.643.129,1.668,1.668,0,0,0,.678-.142L52.47,43.07a1.646,1.646,0,0,0,.992-1.507V3.648A1.66,1.66,0,0,0,51.792,2Z" transform="translate(0 1.772)" fill="#21bdca"/>
        <path id="Path_20853" data-name="Path 20853" d="M18.83,26.567l-2.567,2.666-6.73-6.991a1.936,1.936,0,0,1,0-2.666l6.73-6.991,2.567,2.666L13.383,20.91Zm15.056-4.324-6.73,6.991-2.567-2.666,5.447-5.657-5.447-5.657,2.567-2.666,6.73,6.991A1.936,1.936,0,0,1,33.886,22.243Z" transform="translate(5.022 7.242)" fill="#fff"/>
      </g>
    </g>
  </g>
</svg>
