<svg xmlns="http://www.w3.org/2000/svg" xmlns:xlink="http://www.w3.org/1999/xlink" width="725.001" height="581.999" viewBox="0 0 725.001 581.999">
  <defs>
    <filter id="Rectangle_8338" x="180.997" y="419.999" width="495" height="162" filterUnits="userSpaceOnUse">
      <feOffset dy="3" input="SourceAlpha"/>
      <feGaussianBlur stdDeviation="3" result="blur"/>
      <feFlood flood-opacity="0.078"/>
      <feComposite operator="in" in2="blur"/>
      <feComposite in="SourceGraphic"/>
    </filter>
  </defs>
  <g id="Group_6028" data-name="Group 6028" transform="translate(-128 -1373)">
    <g id="Group_6025" data-name="Group 6025" transform="translate(128 1373)">
      <g id="_5f6ef9b35ff0e8b42265bf33_Asset_Light_02" data-name="5f6ef9b35ff0e8b42265bf33_Asset Light 02">
        <rect id="Rectangle_8376" data-name="Rectangle 8376" width="536" height="402" rx="24" transform="translate(147 69)" fill="#d9e4fe"/>
        <g id="Group_6027" data-name="Group 6027" transform="translate(0 269.941)">
          <rect id="Rectangle_8377" data-name="Rectangle 8377" width="618" height="128" rx="12" transform="translate(0 0.06)" fill="#fff"/>
          <g id="Group_6016" data-name="Group 6016" transform="translate(452.094 32.919)" opacity="0.48">
            <rect id="Rectangle_8378" data-name="Rectangle 8378" width="134" height="64" rx="8" transform="translate(-0.094 0.14)" fill="#4e5a85"/>
            <rect id="Rectangle_8379" data-name="Rectangle 8379" width="64" height="16" rx="6" transform="translate(34.906 23.14)" fill="#7e8bb6"/>
          </g>
          <ellipse id="Ellipse_2646" data-name="Ellipse 2646" cx="43" cy="42.5" rx="43" ry="42.5" transform="translate(22 22.059)" fill="#0059f7"/>
          <rect id="Rectangle_8381" data-name="Rectangle 8381" width="274" height="16" rx="6" transform="translate(128 43.06)" fill="#4e5a85" opacity="0.2"/>
          <rect id="Rectangle_8382" data-name="Rectangle 8382" width="203" height="16" rx="6" transform="translate(128 70.06)" fill="#4e5a85" opacity="0.2"/>
          <g id="Layer_2" data-name="Layer 2" transform="translate(48 42.059)">
            <path id="Path_18884" data-name="Path 18884" d="M21.406,45.124q-4.83,0-7.051-2.327a7.184,7.184,0,0,1-2.214-5.014,3.325,3.325,0,0,1,.388-1.657,2.867,2.867,0,0,1,1.057-1.058,3.689,3.689,0,0,1,3.293,0,2.82,2.82,0,0,1,1.051,1.058,3.258,3.258,0,0,1,.4,1.657,3.165,3.165,0,0,1-.564,1.939,2.628,2.628,0,0,1-1.34.981,3.659,3.659,0,0,0,2.115,1.319,10.481,10.481,0,0,0,2.884.416,6.428,6.428,0,0,0,3.631-1.086,6.345,6.345,0,0,0,2.369-3.208,13.937,13.937,0,0,0,.776-4.8,13.174,13.174,0,0,0-.846-4.992,6.162,6.162,0,0,0-2.447-3.1,6.506,6.506,0,0,0-3.525-1.008,6.706,6.706,0,0,0-3.053,1.036l-2.264,1.135V25.277L26.242,11.628h-14.1V25.791a5.068,5.068,0,0,0,.776,2.9,2.672,2.672,0,0,0,2.369,1.135A3.961,3.961,0,0,0,17.626,29a8.452,8.452,0,0,0,1.96-2.017.7.7,0,0,1,.255-.338.521.521,0,0,1,.34-.127,1.177,1.177,0,0,1,.663.282,1.411,1.411,0,0,1,.359.959,5.6,5.6,0,0,1-.127.705,6.827,6.827,0,0,1-2.419,3A6,6,0,0,1,15.266,32.5q-4.58,0-6.345-1.8a6.761,6.761,0,0,1-1.749-4.936V11.628H0V9H7.206V3L5.556,1.346V0h4.787l1.8.931V9L30.769,8.94,32.623,10.8,21.2,22.279a7.677,7.677,0,0,1,2.157-.522,9.35,9.35,0,0,1,4.175,1.192,8.574,8.574,0,0,1,3.6,3.209,11.324,11.324,0,0,1,1.622,3.871,16.306,16.306,0,0,1,.388,3.314,13.863,13.863,0,0,1-1.41,6.141A9.006,9.006,0,0,1,27.5,43.714a13.689,13.689,0,0,1-6.092,1.41Z" fill="#fff"/>
          </g>
        </g>
        <g id="Group_6020" data-name="Group 6020" transform="translate(104.245 127.289)">
          <rect id="Rectangle_8383" data-name="Rectangle 8383" width="86" height="86" rx="32" transform="translate(-0.244 -0.289)" fill="#4e5a85"/>
          <path id="Path_25189" data-name="Path 25189" d="M130.1,109.667c-26.754,0-30.321,24.97-32.1,35.671h3.564q1.782-8.917,8.921-9.809c7.135-.892,12.486-7.134,14.269-12.485l-2.675-1.784,1.783-1.783C125.646,117.693,127.436,115.018,130.1,109.667Z" transform="translate(-71.149 -84.903)" fill="#f4f7ff"/>
        </g>
        <circle id="Ellipse_2651" data-name="Ellipse 2651" cx="1.874" cy="1.874" r="1.874" transform="translate(412.815 48.906)" fill="#fff"/>
        <g id="Group_6018" data-name="Group 6018" transform="translate(275.426)">
          <rect id="Rectangle_8384" data-name="Rectangle 8384" width="244" height="240" rx="24" transform="translate(-0.426)" fill="#21bdca"/>
          <ellipse id="Ellipse_2647" data-name="Ellipse 2647" cx="74.5" cy="75" rx="74.5" ry="75" transform="translate(47.574 45)" fill="none" stroke="#fff" stroke-width="20" opacity="0.2"/>
          <path id="Path_25190" data-name="Path 25190" d="M253.96,108.925A74.965,74.965,0,1,0,328.925,33.96" transform="translate(-207.052 11.469)" fill="none" stroke="#fff" stroke-linecap="round" stroke-width="20" opacity="0.2"/>
          <path id="Path_25191" data-name="Path 25191" d="M322.893,33.96a74.965,74.965,0,1,1-51.07,129.84" transform="translate(-201.02 11.469)" fill="none" stroke="#fff" stroke-linecap="round" stroke-width="20" opacity="0.2"/>
          <path id="Path_25192" data-name="Path 25192" d="M310,33.96a74.976,74.976,0,0,1,32.328,142.62" transform="translate(-188.127 11.469)" fill="none" stroke="#fff" stroke-linecap="round" stroke-width="20" opacity="0.6"/>
          <circle id="Ellipse_2648" data-name="Ellipse 2648" cx="1.874" cy="1.874" r="1.874" transform="translate(45.033 119.457)" fill="#fff"/>
          <circle id="Ellipse_2649" data-name="Ellipse 2649" cx="1.874" cy="1.874" r="1.874" transform="translate(68.461 172.87)" fill="#fff"/>
          <circle id="Ellipse_2650" data-name="Ellipse 2650" cx="1.874" cy="1.874" r="1.874" transform="translate(151.859 185.988)" fill="#fff"/>
          <path id="Path_25193" data-name="Path 25193" d="M291.974,104.087,300.61,80.65h3.69l-8.636,23.437ZM290.3,93.428a4.937,4.937,0,0,1-4.912-3.114,8.062,8.062,0,0,1-.578-3.082V86.4a7.882,7.882,0,0,1,.61-3.21A4.72,4.72,0,0,1,287.255,81a6.257,6.257,0,0,1,6.132,0,4.72,4.72,0,0,1,1.83,2.183,7.882,7.882,0,0,1,.61,3.21v.835a7.692,7.692,0,0,1-.61,3.082,5.109,5.109,0,0,1-1.8,2.279A5.306,5.306,0,0,1,290.3,93.428Zm0-2.986a1.888,1.888,0,0,0,1.7-.835,7.115,7.115,0,0,0,0-5.618,2.205,2.205,0,0,0-3.4,0,7.419,7.419,0,0,0,0,5.586,1.914,1.914,0,0,0,1.7.867Zm15.507,14.126a4.937,4.937,0,0,1-4.912-3.114,8.063,8.063,0,0,1-.578-3.082v-.835a7.882,7.882,0,0,1,.61-3.21,4.719,4.719,0,0,1,1.83-2.183,6.257,6.257,0,0,1,6.132,0,4.72,4.72,0,0,1,1.83,2.183,7.883,7.883,0,0,1,.61,3.21v.835a7.692,7.692,0,0,1-.61,3.082,5.109,5.109,0,0,1-1.8,2.279,5.306,5.306,0,0,1-3.107.835Zm0-2.986a1.888,1.888,0,0,0,1.7-.835,7.115,7.115,0,0,0,0-5.618,2.2,2.2,0,0,0-3.4,0,7.419,7.419,0,0,0,0,5.586,1.914,1.914,0,0,0,1.705.868Zm16.019-21.607a9.763,9.763,0,0,1,4.4.9,7.614,7.614,0,0,1,2.954,2.408,10.251,10.251,0,0,1,1.637,3.6,17.425,17.425,0,0,1,.514,4.3V92.6q0,5.747-2.922,8.733-2.889,2.954-8.508,2.954-1.22,0-2.279-.064t-2.119-.193V100.2q1.059.128,2.151.193,1.124.064,2.408.064a8.188,8.188,0,0,0,4.238-.931,5.065,5.065,0,0,0,2.183-2.729,12.8,12.8,0,0,0,.674-4.463V90.25l1.027-1.477a8.216,8.216,0,0,1-1,4.109,6.091,6.091,0,0,1-2.6,2.44,8.713,8.713,0,0,1-3.82.8,8.57,8.57,0,0,1-4.27-1,6.912,6.912,0,0,1-2.729-2.761,8.685,8.685,0,0,1-.931-4.109,8.348,8.348,0,0,1,1.092-4.3,7.384,7.384,0,0,1,3.082-2.922,10.251,10.251,0,0,1,4.823-1.054Zm.1,3.82a5.3,5.3,0,0,0-2.568.578,3.725,3.725,0,0,0-1.605,1.541,4.663,4.663,0,0,0-.546,2.279,4.972,4.972,0,0,0,.514,2.312,3.767,3.767,0,0,0,1.573,1.541,5.206,5.206,0,0,0,2.472.546,6.3,6.3,0,0,0,2.5-.482,4.1,4.1,0,0,0,1.8-1.477,4.25,4.25,0,0,0,.674-2.44,4.6,4.6,0,0,0-.546-2.247,3.68,3.68,0,0,0-1.605-1.573,5.518,5.518,0,0,0-2.662-.573Zm22.111,20.965a10.286,10.286,0,0,1-4.431-.867,7.946,7.946,0,0,1-2.922-2.44,10.27,10.27,0,0,1-1.637-3.564,17.812,17.812,0,0,1-.514-4.334V92.144q0-5.747,2.889-8.7,2.922-2.986,8.54-2.986,1.22,0,2.279.064t2.119.193v3.82q-1.059-.128-2.183-.193-1.092-.064-2.376-.064a8.188,8.188,0,0,0-4.238.931,5.217,5.217,0,0,0-2.215,2.729,13.389,13.389,0,0,0-.642,4.463v2.087l-1.027,1.477a8.26,8.26,0,0,1,.963-4.077,6.034,6.034,0,0,1,2.633-2.44,8.43,8.43,0,0,1,3.82-.835,8.57,8.57,0,0,1,4.27,1,6.7,6.7,0,0,1,2.7,2.761,9.2,9.2,0,0,1-.128,8.444,7.609,7.609,0,0,1-3.114,2.922,10.317,10.317,0,0,1-4.785,1.021Zm-.1-3.82a5.553,5.553,0,0,0,2.568-.546,3.922,3.922,0,0,0,1.6-1.573,4.663,4.663,0,0,0,.546-2.279,4.731,4.731,0,0,0-.546-2.312,3.572,3.572,0,0,0-1.541-1.541,5.206,5.206,0,0,0-2.472-.546,6.175,6.175,0,0,0-2.536.514,4.053,4.053,0,0,0-1.8,1.477,4.25,4.25,0,0,0-.642,2.408,4.828,4.828,0,0,0,.514,2.247,3.922,3.922,0,0,0,1.6,1.573,5.712,5.712,0,0,0,2.7.579Z" transform="translate(-196.632 27.009)" fill="#fff"/>
        </g>
        <g id="Group_6019" data-name="Group 6019" transform="translate(639.735 133.873)">
          <rect id="Rectangle_8385" data-name="Rectangle 8385" width="85" height="85" rx="32" transform="translate(0.266 0.127)" fill="#4e5a85"/>
          <path id="Path_25200" data-name="Path 25200" d="M530.555,116a1.784,1.784,0,0,1,1.783,1.783v9.811a4.459,4.459,0,1,0,0,8.917v9.811a1.784,1.784,0,0,1-1.783,1.783h-32.1a1.784,1.784,0,0,1-1.783-1.783v-9.811a4.459,4.459,0,1,0,0-8.917v-9.811A1.784,1.784,0,0,1,498.45,116Zm-8.919,10.7H507.369v10.7h14.268Z" transform="translate(-472.007 -89.348)" fill="#f4f7ff"/>
        </g>
      </g>
      <g id="_60a34cf4e5cbdc77c8b646c6_Content_Card_Group" data-name="60a34cf4e5cbdc77c8b646c6_Content Card Group" transform="translate(189.837 26.517)">
        <path id="Path_25139" data-name="Path 25139" d="M194.729,73l3.972,3.971L197.376,78.3l-2.647-2.648L192.081,78.3l-1.324-1.324Z" transform="translate(-3.66 -73)" fill="#21bdca"/>
        <path id="Path_25142" data-name="Path 25142" d="M386,443.313c10.789,0,12.167-21.907,22.957-21.907s9-17.4,19.79-17.4,10.584,24.608,21.373,24.608c7.953,0,15.441-22.736,22.93-21.332v36.037" transform="translate(-16.153 -87.491)" fill="#fff" opacity="0.16"/>
        <g id="Group_6021" data-name="Group 6021" transform="translate(0 399.242)">
          <g transform="matrix(1, 0, 0, 1, -189.84, -425.76)" filter="url(#Rectangle_8338)">
            <rect id="Rectangle_8338-2" data-name="Rectangle 8338" width="477" height="144" transform="translate(190 426)" fill="#fff"/>
          </g>
          <path id="Path_25141" data-name="Path 25141" d="M386,443.313c10.789,0,12.167-21.907,22.957-21.907s9-17.4,19.79-17.4,10.584,24.608,21.373,24.608,12.14-21.332,22.93-21.332" transform="translate(-25.516 -351.625)" fill="none" stroke="#21bdca" stroke-linecap="round" stroke-width="2"/>
          <path id="Path_25144" data-name="Path 25144" d="M174.289,452.3a13.424,13.424,0,0,1,1.316-5.96,11.222,11.222,0,0,1,4.406-4.406l4-2.4a6.8,6.8,0,0,0,2.212-1.92,4,4,0,0,0,.677-2.285,3.17,3.17,0,0,0-.97-2.359,3.867,3.867,0,0,0-6.563,3.072,5.316,5.316,0,0,0,.183,1.353l-4.9-.146a7.687,7.687,0,0,1-.183-1.682,7.967,7.967,0,0,1,.6-3.071,8.2,8.2,0,0,1,1.7-2.6,7.7,7.7,0,0,1,2.8-1.792,10.19,10.19,0,0,1,3.766-.676,8.8,8.8,0,0,1,6.343,2.285,7.308,7.308,0,0,1,2.413,5.539q0,4.661-4.717,7.532l-4.68,2.833a5.1,5.1,0,0,0-2.084,2.212H192.26V452.3Zm20.769-.768a3.057,3.057,0,0,1-.859-2.231,2.932,2.932,0,0,1,.969-2.248,3.485,3.485,0,0,1,2.432-.9,3.321,3.321,0,0,1,2.706,1.224,4.709,4.709,0,0,1,1.005,3.09,9.709,9.709,0,0,1-.42,2.925,7.361,7.361,0,0,1-1.1,2.231,7.236,7.236,0,0,1-1.554,1.554,6.8,6.8,0,0,1-1.755,1.005,7.726,7.726,0,0,1-1.755.439v-2.4a4.609,4.609,0,0,0,2.413-1.426,3.9,3.9,0,0,0,1.133-2.614,1.652,1.652,0,0,1-.97.219,3.044,3.044,0,0,1-2.245-.867Zm8.228.768a13.424,13.424,0,0,1,1.316-5.96,11.209,11.209,0,0,1,4.406-4.406l4-2.4a6.791,6.791,0,0,0,2.213-1.92,4,4,0,0,0,.676-2.285,3.173,3.173,0,0,0-.969-2.359,3.868,3.868,0,0,0-6.564,3.072,5.318,5.318,0,0,0,.183,1.353l-4.9-.146a7.743,7.743,0,0,1-.182-1.682,7.967,7.967,0,0,1,.6-3.071,8.189,8.189,0,0,1,1.7-2.6,7.685,7.685,0,0,1,2.8-1.792,10.191,10.191,0,0,1,3.767-.676,8.806,8.806,0,0,1,6.343,2.285,7.308,7.308,0,0,1,2.413,5.539q0,4.661-4.717,7.532l-4.68,2.833a5.09,5.09,0,0,0-2.084,2.212h11.645V452.3Zm17.808-19.835V428h18.464v4.3q-.566.493-1.078.969-.494.476-1.444,1.536a26.412,26.412,0,0,0-1.755,2.175,32.441,32.441,0,0,0-1.736,2.816,28.3,28.3,0,0,0-1.664,3.474,33.333,33.333,0,0,0-2.066,9.031h-5.338a32.982,32.982,0,0,1,.8-5.192,28.674,28.674,0,0,1,1.444-4.46q.823-1.921,1.755-3.62a23.517,23.517,0,0,1,1.847-2.889q.9-1.17,1.627-2.011a14.417,14.417,0,0,1,1.207-1.262l.439-.4Zm18.41,12.65,4.973-.969a4.452,4.452,0,0,0,1.316,3.071,4.278,4.278,0,0,0,3.108,1.189,4.215,4.215,0,0,0,3-1.042,3.485,3.485,0,0,0,1.116-2.633,3.3,3.3,0,0,0-1.1-2.632,4.221,4.221,0,0,0-2.87-.951,6.727,6.727,0,0,0-2.213.366l-2.285-3.584,6.38-5.465h-10.64V428h17.184v4.15l-6.288,5.246a7.2,7.2,0,0,1,4.954,2.158,7,7,0,0,1,2.084,5.246,7.5,7.5,0,0,1-.639,3.034,8.179,8.179,0,0,1-1.81,2.578,8.436,8.436,0,0,1-2.943,1.791,11.315,11.315,0,0,1-3.931.658,9.613,9.613,0,0,1-6.618-2.266,7.92,7.92,0,0,1-2.782-5.479Z" transform="translate(-11.969 -353.124)" fill="#0a071b"/>
          <path id="Path_25145" data-name="Path 25145" d="M293.728,436l3.972,3.971-1.324,1.324-2.647-2.648-2.647,2.648-1.324-1.324Z" transform="translate(-19.358 -353.673)" fill="#21bdca"/>
          <path id="Path_25146" data-name="Path 25146" d="M310.781,440.722v-1.631h2.831v-2.918h1.682v2.918h2.845v1.631h-2.845v2.94h-1.682v-2.94Zm7.971,1.513v-2.157l4.089-5.478h2.544v5.872h1.6v1.762h-1.6v2.085h-2.04v-2.085Zm1.822-1.762h2.771v-3.715Zm6.516,3.846a5.37,5.37,0,0,1,.527-2.384,4.489,4.489,0,0,1,1.762-1.763l1.6-.958a2.737,2.737,0,0,0,.885-.768,1.6,1.6,0,0,0,.271-.914,1.269,1.269,0,0,0-.388-.944,1.552,1.552,0,0,0-2.631,1.229,2.13,2.13,0,0,0,.073.541l-1.959-.059a3.093,3.093,0,0,1-.074-.672,3.191,3.191,0,0,1,.241-1.229,3.267,3.267,0,0,1,.681-1.038,3.076,3.076,0,0,1,1.118-.717,4.075,4.075,0,0,1,1.507-.271,3.521,3.521,0,0,1,2.537.914,2.92,2.92,0,0,1,.966,2.216,3.432,3.432,0,0,1-1.887,3.013l-1.872,1.133a2.053,2.053,0,0,0-.834.885h4.659v1.784Zm7.708-7.43a2.346,2.346,0,0,1,.732-1.74,2.509,2.509,0,0,1,3.51,0,2.413,2.413,0,0,1,.007,3.481,2.468,2.468,0,0,1-1.762.7,2.429,2.429,0,0,1-1.755-.71,2.338,2.338,0,0,1-.73-1.73Zm1.471,7.43,6.859-9.719h1.733L338,444.32Zm.029-7.43a1.058,1.058,0,0,0,.278.761.952.952,0,0,0,.71.293.934.934,0,0,0,.709-.293,1.075,1.075,0,0,0,.278-.761.988.988,0,1,0-1.973,0Zm5.046,5.156a2.343,2.343,0,0,1,.731-1.74,2.506,2.506,0,0,1,3.51,0,2.412,2.412,0,0,1,.007,3.481,2.47,2.47,0,0,1-1.763.7,2.432,2.432,0,0,1-1.755-.71,2.338,2.338,0,0,1-.731-1.73Zm1.5,0a1.06,1.06,0,0,0,.278.761.964.964,0,0,0,.71.285.938.938,0,0,0,.71-.293,1.048,1.048,0,0,0,.277-.753,1.024,1.024,0,0,0-.277-.746.937.937,0,0,0-.71-.292.952.952,0,0,0-.71.292,1.04,1.04,0,0,0-.281.747Z" transform="translate(-20.705 -353.568)" fill="#21bdca"/>
          <circle id="Ellipse_2633" data-name="Ellipse 2633" cx="42.5" cy="42.5" r="42.5" transform="translate(37.164 30.241)" fill="rgba(94,198,232,0.08)"/>
          <path id="Path_25147" data-name="Path 25147" d="M92.607,428.628l.22.221.222-.221A2.808,2.808,0,1,1,97.02,432.6l-4.193,4.192L88.636,432.6a2.808,2.808,0,1,1,3.971-3.971Zm-7.29-2.07v2.5a7.489,7.489,0,0,0-7.488,7.487h-2.5A9.985,9.985,0,0,1,85,426.567Zm0-16.225A7.488,7.488,0,0,1,85.6,425.3h-.281a7.487,7.487,0,1,1-.281-14.972Zm0,2.5a4.984,4.984,0,1,0,3.532,1.46,4.992,4.992,0,0,0-3.532-1.46Z" transform="translate(-5.637 -352.03)" fill="#5ec6e8"/>
        </g>
        <ellipse id="Ellipse_2634" data-name="Ellipse 2634" cx="31.5" cy="32" rx="31.5" ry="32" transform="translate(366.164 167.483)" fill="#fff"/>
        <g id="Group_6026" data-name="Group 6026" transform="translate(347.849 83.215)">
          <circle id="Ellipse_2635" data-name="Ellipse 2635" cx="33" cy="33" r="33" transform="translate(0.314 0.269)" fill="#fff"/>
          <g id="Group_6038" data-name="Group 6038" transform="translate(-752.984 -370.935)">
            <path id="Path_24354" data-name="Path 24354" d="M682.875,365.75A13.875,13.875,0,1,0,669,351.875,13.875,13.875,0,0,0,682.875,365.75Z" transform="translate(103.299 52.203)" fill="#457eef"/>
            <path id="Path_24355" data-name="Path 24355" d="M711.35,380.375a2.963,2.963,0,0,1-2.216-.714,2.171,2.171,0,0,1-.688-1.541.922.922,0,0,1,.126-.506.8.8,0,0,1,.325-.32,1.083,1.083,0,0,1,.514-.124.955.955,0,0,1,.514.124.8.8,0,0,1,.325.32,1.041,1.041,0,0,1,.126.506.944.944,0,0,1-.176.591.859.859,0,0,1-.426.308,1.234,1.234,0,0,0,.663.407,3.22,3.22,0,0,0,.9.124,2.028,2.028,0,0,0,1.14-.333,1.97,1.97,0,0,0,.751-.985,4.15,4.15,0,0,0,.237-1.479,3.978,3.978,0,0,0-.262-1.528,1.853,1.853,0,0,0-.764-.948,2.046,2.046,0,0,0-1.1-.308,2.165,2.165,0,0,0-.963.32l-.706.333v-.345l3.192-4.188h-4.418v4.35a1.534,1.534,0,0,0,.237.888.844.844,0,0,0,.739.345,1.233,1.233,0,0,0,.739-.258,2.915,2.915,0,0,0,.613-.615.228.228,0,0,1,.076-.1.169.169,0,0,1,.1-.037.359.359,0,0,1,.212.087.434.434,0,0,1,.114.3c0,.05-.025.124-.038.221a2,2,0,0,1-.751.923,1.931,1.931,0,0,1-1.064.32,2.8,2.8,0,0,1-1.992-.553,2.063,2.063,0,0,1-.55-1.5V370.1h-2.254v-.814h2.267v-1.849l-.514-.506V366.5h1.5l.562.283v2.479l5.847-.012.575.566-3.578,3.538a2.439,2.439,0,0,1,.676-.161,2.884,2.884,0,0,1,1.3.37,2.632,2.632,0,0,1,1.127.985,3.623,3.623,0,0,1,.514,1.2,5.374,5.374,0,0,1,.126,1.022,4.194,4.194,0,0,1-.439,1.886,2.765,2.765,0,0,1-1.326,1.3A4.37,4.37,0,0,1,711.35,380.375Z" transform="translate(76.346 30.641)" fill="#fff"/>
          </g>
        </g>
        <path id="Path_25152" data-name="Path 25152" d="M523.148,258.243a1.51,1.51,0,1,0-1.51-1.51A1.51,1.51,0,0,0,523.148,258.243Z" transform="translate(-24.831 -77.971)" fill="#654c9f"/>
        <g id="decentralized-_8_" transform="translate(380.09 693.424)">
          <path id="Path_25234" data-name="Path 25234" d="M159-359.528a6.978,6.978,0,0,0-4.192,2.1A7.088,7.088,0,0,0,152.8-353.8a9.483,9.483,0,0,0,0,3.024,7.088,7.088,0,0,0,2.012,3.622,7.087,7.087,0,0,0,3.622,2.011,9.484,9.484,0,0,0,3.024,0,7.088,7.088,0,0,0,3.622-2.011,7.088,7.088,0,0,0,2.012-3.622,9.485,9.485,0,0,0,0-3.024,7.088,7.088,0,0,0-2.012-3.622,6.921,6.921,0,0,0-4.874-2.145,7.923,7.923,0,0,0-1.206.039Zm2.335,2.244a5.25,5.25,0,0,1,3.615,3.622,5.774,5.774,0,0,1,0,2.729,5.24,5.24,0,0,1-3.636,3.65,5.833,5.833,0,0,1-2.743,0,5.24,5.24,0,0,1-3.636-3.65,5.774,5.774,0,0,1,0-2.729,5.249,5.249,0,0,1,4.22-3.763,6.464,6.464,0,0,1,2.18.141Z" transform="translate(-141.868 -141.65)" fill="#457eef"/>
          <path id="Path_25231" data-name="Path 25231" d="M209.617-511.839a3.594,3.594,0,0,0-2.511,2.419,4.007,4.007,0,0,0,.028,2,3.706,3.706,0,0,0,1.048,1.589,3.614,3.614,0,0,0,1.125.64c.049,0,.077.3.077.935v.928h2.11v-.928c0-.633.028-.935.077-.935a3.616,3.616,0,0,0,1.125-.64,3.512,3.512,0,0,0,.753-4.346,3.525,3.525,0,0,0-3.832-1.662Zm1.428,2.18a1.133,1.133,0,0,1,.7,1.2,1.067,1.067,0,0,1-.176.76,1.661,1.661,0,0,1-1.125.612,1.661,1.661,0,0,1-1.125-.612,1.067,1.067,0,0,1-.176-.76,1.067,1.067,0,0,1,.176-.76,1.661,1.661,0,0,1,1.125-.612,1.675,1.675,0,0,1,.6.172Z" transform="translate(-192.365)" fill="#457eef"/>
          <path id="Path_25232" data-name="Path 25232" d="M63.552-450.755a3.6,3.6,0,0,0-2.377,2.4,4.415,4.415,0,0,0,0,1.871,3.565,3.565,0,0,0,2.419,2.4,3.9,3.9,0,0,0,2.145-.1l.352-.155.647.647.654.654.753-.76.76-.753-.654-.654-.647-.647.155-.352a3.9,3.9,0,0,0,.1-2.145,3.565,3.565,0,0,0-2.4-2.419,4.8,4.8,0,0,0-1.9,0Zm1.582,2.138a1.266,1.266,0,0,1,.717,1.2,1.285,1.285,0,0,1-.375.961,1.285,1.285,0,0,1-.961.375,1.285,1.285,0,0,1-.961-.375,1.285,1.285,0,0,1-.375-.961,1.278,1.278,0,0,1,.368-.958,1.278,1.278,0,0,1,.954-.378,1.451,1.451,0,0,1,.634.136Z" transform="translate(-56.71 -56.794)" fill="#457eef"/>
          <path id="Path_25233" data-name="Path 25233" d="M343.025-450.755a3.664,3.664,0,0,0-2.4,2.5,3.983,3.983,0,0,0,.2,2.237c.077.155.042.2-.57.823l-.654.654.76.753.753.76.654-.654.647-.647.352.155a3.962,3.962,0,0,0,2.145.1,3.568,3.568,0,0,0,2.426-2.419,4.465,4.465,0,0,0-.007-1.857,4.048,4.048,0,0,0-.886-1.519,4.048,4.048,0,0,0-1.519-.886A4.793,4.793,0,0,0,343.025-450.755Zm1.582,2.138a1.266,1.266,0,0,1,.717,1.2,1.285,1.285,0,0,1-.375.961,1.285,1.285,0,0,1-.961.375,1.285,1.285,0,0,1-.961-.375,1.285,1.285,0,0,1-.375-.961,1.278,1.278,0,0,1,.368-.958,1.278,1.278,0,0,1,.954-.378,1.45,1.45,0,0,1,.634.136Z" transform="translate(-315.646 -56.794)" fill="#457eef"/>
          <path id="Path_25235" data-name="Path 25235" d="M2.531-304.832a3.545,3.545,0,0,0-2.356,2.518,3.5,3.5,0,0,0,2.419,4.129,4.007,4.007,0,0,0,2-.028,3.706,3.706,0,0,0,1.59-1.048,3.614,3.614,0,0,0,.64-1.125c0-.049.3-.077.935-.077h.928v-2.11h-.93c-.633,0-.935-.028-.935-.077a3.615,3.615,0,0,0-.64-1.125,3.707,3.707,0,0,0-1.59-1.048,4.015,4.015,0,0,0-2.061-.009Zm1.786,2.187a1.681,1.681,0,0,1,.6,1.125A1.661,1.661,0,0,1,4.3-300.4a1.067,1.067,0,0,1-.76.176,1.067,1.067,0,0,1-.76-.176,1.661,1.661,0,0,1-.612-1.118,1.475,1.475,0,0,1,.809-1.245,1.689,1.689,0,0,1,1.335.114Z" transform="translate(0 -192.421)" fill="#457eef"/>
          <path id="Path_25236" data-name="Path 25236" d="M393.53-304.855a3.506,3.506,0,0,0-1.99,1.716,2.029,2.029,0,0,0-.176.436c0,.049-.3.077-.935.077H389.5v2.11h.928c.633,0,.935.028.935.077a3.616,3.616,0,0,0,.64,1.125,3.512,3.512,0,0,0,4.347.753,3.649,3.649,0,0,0,1.66-2.216,3.5,3.5,0,0,0-2.419-4.128,3.942,3.942,0,0,0-2.061.05Zm1.87,2.155a1.681,1.681,0,0,1,.6,1.125,1.661,1.661,0,0,1-.612,1.125,1.067,1.067,0,0,1-.76.176,1.067,1.067,0,0,1-.76-.176,1.661,1.661,0,0,1-.612-1.118,1.475,1.475,0,0,1,.809-1.245,1.689,1.689,0,0,1,1.335.113Z" transform="translate(-362.036 -192.369)" fill="#457eef"/>
          <path id="Path_25237" data-name="Path 25237" d="M66.72-171.367l-.64.64-.345-.155a3.987,3.987,0,0,0-2.152-.1,3.568,3.568,0,0,0-2.426,2.419,4.465,4.465,0,0,0,.007,1.857,3.559,3.559,0,0,0,2.405,2.4,4.415,4.415,0,0,0,1.871,0,3.623,3.623,0,0,0,2.434-2.5,3.983,3.983,0,0,0-.2-2.237c-.077-.155-.042-.2.57-.823l.654-.654-.746-.739c-.408-.415-.753-.745-.767-.745S67.064-171.712,66.72-171.367Zm-1.6,2.525a1.266,1.266,0,0,1,.717,1.2,1.285,1.285,0,0,1-.373.965,1.285,1.285,0,0,1-.964.377,1.285,1.285,0,0,1-.961-.375,1.285,1.285,0,0,1-.375-.961,1.278,1.278,0,0,1,.368-.958,1.278,1.278,0,0,1,.954-.378,1.45,1.45,0,0,1,.637.13Z" transform="translate(-56.698 -316.032)" fill="#457eef"/>
          <path id="Path_25238" data-name="Path 25238" d="M340.338-171.255l-.738.739.654.654c.612.619.647.668.57.823a3.983,3.983,0,0,0-.2,2.237,3.623,3.623,0,0,0,2.434,2.5,4.415,4.415,0,0,0,1.871,0,3.559,3.559,0,0,0,2.405-2.4,4.415,4.415,0,0,0,0-1.871,3.623,3.623,0,0,0-2.5-2.434,3.983,3.983,0,0,0-2.237.2c-.155.077-.2.042-.809-.556-.352-.352-.661-.64-.675-.64S340.739-171.662,340.338-171.255Zm4.269,2.412a1.266,1.266,0,0,1,.717,1.2,1.285,1.285,0,0,1-.375.961,1.285,1.285,0,0,1-.961.375,1.285,1.285,0,0,1-.961-.375,1.285,1.285,0,0,1-.375-.961,1.278,1.278,0,0,1,.368-.958,1.278,1.278,0,0,1,.954-.378,1.449,1.449,0,0,1,.634.137Z" transform="translate(-315.646 -316.032)" fill="#457eef"/>
          <path id="Path_25239" data-name="Path 25239" d="M209.313-121.572c0,.633-.028.935-.077.935a3.613,3.613,0,0,0-1.125.64,3.512,3.512,0,0,0-.753,4.347,3.649,3.649,0,0,0,2.215,1.66,3.5,3.5,0,0,0,4.129-2.419,4.007,4.007,0,0,0-.028-2,3.706,3.706,0,0,0-1.048-1.59,3.614,3.614,0,0,0-1.125-.64c-.049,0-.077-.3-.077-.935v-.928h-2.11Zm1.66,3.01a1.133,1.133,0,0,1,.7,1.2,1.133,1.133,0,0,1-.7,1.2,1.168,1.168,0,0,1-1.21,0,1.133,1.133,0,0,1-.7-1.2,1.067,1.067,0,0,1,.176-.76,1.661,1.661,0,0,1,1.125-.612,1.676,1.676,0,0,1,.609.173Z" transform="translate(-192.294 -362.05)" fill="#457eef"/>
        </g>
      </g>
    </g>
    <text id="Integrating_API" data-name="Integrating API" transform="translate(482.742 1856.549)" fill="#8c87a6" font-size="10" font-family="Montserrat-Bold, Montserrat" font-weight="700"><tspan x="0" y="0">INTEGRATING API</tspan></text>
  </g>
</svg>
