<svg xmlns="http://www.w3.org/2000/svg" width="47.656" height="47.656" viewBox="0 0 47.656 47.656">
  <g id="compliance" transform="translate(0 512)">
    <path id="Path_958" data-name="Path 958" d="M19.649-511.144c-.056.475-.149,1.229-.2,1.666l-.1.791-1.191.335a21.344,21.344,0,0,0-4.57,1.9,4.529,4.529,0,0,1-1.145.531c-.056-.037-.633-.475-1.275-.977a14.967,14.967,0,0,0-1.257-.912c-.112,0-5.715,5.6-5.715,5.715A14.967,14.967,0,0,0,5.1-500.84c.5.642.94,1.219.977,1.275a4.529,4.529,0,0,1-.531,1.145,21.344,21.344,0,0,0-1.9,4.57l-.335,1.191-.819.1c-.447.056-1.191.149-1.657.2L0-492.239v8.135l.838.112c.465.056,1.21.149,1.657.2l.819.1.335,1.191a21.344,21.344,0,0,0,1.9,4.57,4.529,4.529,0,0,1,.531,1.145c-.037.056-.475.633-.977,1.275a14.967,14.967,0,0,0-.912,1.257c0,.112,5.6,5.715,5.715,5.715a14.967,14.967,0,0,0,1.257-.912c.642-.5,1.219-.94,1.275-.977a4.529,4.529,0,0,1,1.145.531,21.344,21.344,0,0,0,4.57,1.9l1.191.335.1.819c.056.447.149,1.191.2,1.657l.112.838H27.9l.112-.838c.056-.465.149-1.21.2-1.657l.1-.819,1.191-.335a21.344,21.344,0,0,0,4.57-1.9,4.529,4.529,0,0,1,1.145-.531c.056.037.633.475,1.275.977a14.968,14.968,0,0,0,1.257.912c.112,0,5.715-5.6,5.715-5.715a14.967,14.967,0,0,0-.912-1.257c-.5-.642-.94-1.219-.977-1.275a4.529,4.529,0,0,1,.531-1.145A21.288,21.288,0,0,0,44-482.466c.186-.661.335-1.2.344-1.21s3.127-.4,3.248-.4c.037,0,.065-1.843.065-4.1s-.028-4.1-.065-4.1c-.121,0-3.239-.391-3.248-.4s-.158-.549-.344-1.21a21.288,21.288,0,0,0-1.889-4.542,4.529,4.529,0,0,1-.531-1.145c.037-.056.475-.633.977-1.275a14.967,14.967,0,0,0,.912-1.257c0-.112-5.6-5.715-5.715-5.715a14.968,14.968,0,0,0-1.257.912c-.642.5-1.229.949-1.294.987s-.223-.009-.372-.112a22.555,22.555,0,0,0-5.426-2.355l-1.089-.3-.1-.828c-.056-.447-.149-1.2-.2-1.657L27.9-512H19.761Zm5.715,2.234c.028.168.112.828.2,1.461s.158,1.191.177,1.219a2.737,2.737,0,0,0,.763.177,18.472,18.472,0,0,1,8.116,3.388c.316.242.633.41.7.372s.577-.437,1.163-.894l1.061-.828,1.061,1.07,1.07,1.061-.828,1.061c-.456.586-.856,1.108-.894,1.163a2.3,2.3,0,0,0,.465.838,18.189,18.189,0,0,1,3.146,7.214c.13.652.233,1.266.233,1.378s.056.2.121.2c.14,0,2.225.261,2.653.326l.3.056v2.96l-.3.056c-.428.065-2.513.326-2.653.326-.065,0-.121.093-.121.2s-.1.726-.233,1.378a18.189,18.189,0,0,1-3.146,7.214,2.3,2.3,0,0,0-.465.838c.037.056.437.577.894,1.163l.828,1.061L38.6-473.4l-1.061,1.07-1.061-.828c-.586-.456-1.108-.856-1.163-.894a2.3,2.3,0,0,0-.838.465,18.373,18.373,0,0,1-8.293,3.342c-.279.037-.493.112-.493.168,0,.14-.261,2.234-.326,2.634l-.056.307h-2.96l-.056-.307c-.065-.4-.326-2.495-.326-2.625,0-.065-.335-.158-.763-.223a18.336,18.336,0,0,1-8.023-3.295,2.3,2.3,0,0,0-.838-.465c-.056.037-.577.437-1.163.894l-1.061.828L9.057-473.4l-1.07-1.061.828-1.061c.456-.586.856-1.108.894-1.163a2.3,2.3,0,0,0-.465-.838A18.08,18.08,0,0,1,6.1-484.737c-.13-.661-.233-1.284-.233-1.387s-.037-.186-.074-.186c-.121,0-2.383-.279-2.69-.326l-.307-.056v-2.96l.307-.056c.307-.047,2.569-.326,2.69-.326.037,0,.074-.084.074-.186s.1-.726.233-1.387a18.08,18.08,0,0,1,3.146-7.214,2.3,2.3,0,0,0,.465-.838c-.037-.056-.437-.577-.894-1.163l-.828-1.061,1.061-1.061,1.07-1.07,1.145.894c1.005.782,1.173.884,1.312.782a18.874,18.874,0,0,1,8.628-3.714c.428-.065.763-.158.763-.223,0-.13.261-2.225.326-2.634l.056-.3h2.96Z" fill="#fff"/>
    <path id="Path_959" data-name="Path 959" d="M104.994-420.59a16.123,16.123,0,0,0-6.7,2.541,15.435,15.435,0,0,0-6.488,9.662,11.578,11.578,0,0,0-.2,3.1,11.578,11.578,0,0,0,.2,3.1,15.48,15.48,0,0,0,6.488,9.671,15.343,15.343,0,0,0,5.315,2.271,10.213,10.213,0,0,0,3.295.261,11.7,11.7,0,0,0,3.109-.2,15.479,15.479,0,0,0,11.989-12,11.578,11.578,0,0,0,.2-3.1,11.578,11.578,0,0,0-.2-3.1,15.449,15.449,0,0,0-11.951-11.989,12.813,12.813,0,0,0-2.82-.223C106.157-420.617,105.152-420.608,104.994-420.59Zm3.974,2.979a12.65,12.65,0,0,1,9.1,6.739,13.693,13.693,0,0,1,1.163,3.5,16.455,16.455,0,0,1,0,4.17,12.675,12.675,0,0,1-10.257,10.248,15.5,15.5,0,0,1-4.151,0,12.62,12.62,0,0,1-9.792-8.461,11.152,11.152,0,0,1-.605-3.872,11.51,11.51,0,0,1,.568-3.8,12.606,12.606,0,0,1,10.974-8.666A11.794,11.794,0,0,1,108.968-417.611Z" transform="translate(-83.074 -82.884)" fill="#fff"/>
    <path id="Path_960" data-name="Path 960" d="M192.719-309.049l-2.96,2.96-1.582-1.582-1.582-1.582-1.042,1.052L184.5-307.16l2.634,2.625,2.625,2.634,4.021-4.021,4.03-4.03-1.024-1.024c-.558-.558-1.042-1.024-1.07-1.024S194.338-310.669,192.719-309.049Z" transform="translate(-167.327 -181.384)" fill="#fff"/>
  </g>
</svg>
