<svg xmlns="http://www.w3.org/2000/svg" width="111" height="110" viewBox="0 0 111 110">
  <g id="Group_5781" data-name="Group 5781" transform="translate(-0.396)">
    <rect id="Rectangle_8384" data-name="Rectangle 8384" width="111" height="110" rx="24" transform="translate(0.396)" fill="#ccecff"/>
    <g id="_02" data-name="02" transform="translate(27.689 29.001)">
      <g id="Group_5784" data-name="Group 5784">
        <path id="Path_20841" data-name="Path 20841" d="M24.689,23.352a1.8,1.8,0,0,1-1.471-2.824,10.778,10.778,0,1,0-17.694,0,1.8,1.8,0,1,1-2.946,2.057,14.371,14.371,0,1,1,26.164-8.215,14.282,14.282,0,0,1-2.578,8.215,1.789,1.789,0,0,1-1.473.767Z" fill="#21bdca"/>
        <path id="Path_20842" data-name="Path 20842" d="M30.971,25.822l-14.6-2.655V10.593a3.593,3.593,0,1,0-7.185,0V33.945h-1.8V28.556h-1.8A3.592,3.592,0,0,0,2,32.149v5.2a10.782,10.782,0,0,0,2.362,6.734l4.823,6.029H32.538l2.8-18.168A5.389,5.389,0,0,0,30.971,25.822Z" transform="translate(1.593 5.574)" fill="#21bdca"/>
        <path id="Path_20843" data-name="Path 20843" d="M30.574,0A12.574,12.574,0,1,0,43.149,12.574,12.588,12.588,0,0,0,30.574,0Z" transform="translate(14.334)" fill="#fff"/>
        <path id="Path_20844" data-name="Path 20844" d="M32.982,11.982H24V3h3.593V8.389h5.389Z" transform="translate(19.112 2.389)" fill="#21bdca"/>
      </g>
    </g>
  </g>
</svg>
