<?xml version="1.0" standalone="no"?>
<!DOCTYPE svg PUBLIC "-//W3C//DTD SVG 20010904//EN"
 "http://www.w3.org/TR/2001/REC-SVG-20010904/DTD/svg10.dtd">
<svg version="1.0" xmlns="http://www.w3.org/2000/svg"
 width="1263.000000pt" height="1204.000000pt" viewBox="0 0 1263.000000 1204.000000"
 preserveAspectRatio="xMidYMid meet">
<metadata>
Created by potrace 1.16, written by Peter Selinger 2001-2019
</metadata>
<g transform="translate(0.000000,1204.000000) scale(0.100000,-0.100000)"
fill="#000000" stroke="none">
<path d="M5250 9194 c-552 -50 -997 -191 -1429 -453 -955 -580 -1531 -1603
-1531 -2721 0 -1014 466 -1945 1277 -2552 443 -331 962 -538 1533 -610 158
-20 623 -17 775 5 506 73 921 226 1329 490 l109 71 -26 20 c-13 12 -71 57
-128 101 -132 102 -379 348 -493 490 -216 271 -404 606 -511 908 -15 42 -29
77 -31 77 -2 0 -45 -22 -96 -49 -593 -317 -1324 -81 -1625 524 -320 643 12
1433 695 1654 140 45 214 56 382 55 133 0 170 -4 260 -26 116 -29 242 -79 320
-127 28 -17 54 -31 59 -31 4 0 28 53 51 118 54 144 187 413 271 547 160 255
352 487 559 673 97 88 260 220 299 242 21 11 15 16 -144 116 -389 244 -813
395 -1285 459 -110 15 -524 28 -620 19z"/>
<path d="M8934 7204 c-373 -62 -706 -309 -877 -649 -136 -272 -159 -625 -61
-922 138 -413 508 -728 939 -798 652 -106 1255 315 1382 963 22 116 22 328 -1
445 -112 575 -607 981 -1191 976 -60 -1 -146 -7 -191 -15z"/>
</g>
</svg>
