<svg xmlns="http://www.w3.org/2000/svg" xmlns:xlink="http://www.w3.org/1999/xlink" width="145" height="145" viewBox="0 0 145 145">
  <defs>
    <linearGradient id="linear-gradient" x1="0.5" x2="0.5" y2="1" gradientUnits="objectBoundingBox">
      <stop offset="0" stop-color="#16becf"/>
      <stop offset="0.522" stop-color="#32eab7"/>
      <stop offset="1" stop-color="#3fffac"/>
    </linearGradient>
    <filter id="Ellipse_76" x="0" y="0" width="145" height="145" filterUnits="userSpaceOnUse">
      <feOffset dy="3" input="SourceAlpha"/>
      <feGaussianBlur stdDeviation="5" result="blur"/>
      <feFlood flood-opacity="0.078"/>
      <feComposite operator="in" in2="blur"/>
      <feComposite in="SourceGraphic"/>
    </filter>
  </defs>
  <g id="_6" data-name="6" transform="translate(-13657 -1106)">
    <g transform="matrix(1, 0, 0, 1, 13657, 1106)" filter="url(#Ellipse_76)">
      <circle id="Ellipse_76-2" data-name="Ellipse 76" cx="57.5" cy="57.5" r="57.5" transform="translate(15 12)" fill="url(#linear-gradient)"/>
    </g>
    <g id="Group_1029" data-name="Group 1029" transform="translate(13664.727 1085.239)">
      <g id="Smart_Contracts" data-name="Smart Contracts" transform="translate(44.263 64.757)">
        <path id="Path_1845" data-name="Path 1845" d="M2198.21,1273.71h-29.63v-42.986h14.953v10.517a1.753,1.753,0,0,0,1.754,1.753h11.169v2.071a1.754,1.754,0,1,0,3.508,0v-3.87a1.773,1.773,0,0,0-.027-.264.143.143,0,0,0-.008-.057,1.818,1.818,0,0,0-.09-.289c-.012-.03-.028-.057-.041-.086a1.7,1.7,0,0,0-.1-.191c-.018-.029-.036-.057-.056-.085a1.778,1.778,0,0,0-.146-.177c-.018-.019-.034-.04-.053-.058s-.011-.014-.018-.02L2186.5,1227.7a1.742,1.742,0,0,0-.216-.173c-.019-.013-.039-.022-.057-.034a1.779,1.779,0,0,0-.21-.114c-.031-.014-.062-.027-.094-.039a1.819,1.819,0,0,0-.22-.068c-.026-.006-.051-.015-.078-.02a1.762,1.762,0,0,0-.309-.031h-18.483a1.754,1.754,0,0,0-1.753,1.754v46.493a1.754,1.754,0,0,0,1.753,1.753h31.383a1.753,1.753,0,0,0,0-3.507Zm-11.169-34.223v-6.433l6.775,6.433Z" transform="translate(-2165.07 -1227.215)" fill="#fff"/>
        <path id="Path_1846" data-name="Path 1846" d="M2188.54,1269.62h-8.96a1.754,1.754,0,1,0,0,3.507h8.96a1.754,1.754,0,1,0,0-3.507Z" transform="translate(-2172.438 -1251.882)" fill="#fff"/>
        <path id="Path_1847" data-name="Path 1847" d="M2188.54,1280.62h-8.96a1.753,1.753,0,0,0,0,3.507h8.96a1.754,1.754,0,0,0,0-3.507Z" transform="translate(-2172.438 -1257.371)" fill="#fff"/>
        <path id="Path_2423" data-name="Path 2423" d="M2188.54,1280.62h-8.96a1.753,1.753,0,0,0,0,3.507h8.96a1.754,1.754,0,0,0,0-3.507Z" transform="translate(-2172.438 -1251.86)" fill="#fff"/>
        <path id="Path_2417" data-name="Path 2417" d="M539.592,2997.03H523.6a3.123,3.123,0,0,1-3.119-3.119v-17.423a3.122,3.122,0,0,1,3.119-3.118h15.989a3.123,3.123,0,0,1,3.119,3.118v17.423A3.123,3.123,0,0,1,539.592,2997.03ZM523.6,2976.36a.125.125,0,0,0-.125.125v17.423a.125.125,0,0,0,.125.125h15.989a.125.125,0,0,0,.125-.125v-17.423a.125.125,0,0,0-.125-.125Z" transform="translate(-500.968 -2952.206)" fill="#fff"/>
        <rect id="Rectangle_266" data-name="Rectangle 266" width="1.747" height="4.221" rx="0.719" transform="translate(24.288 25.362)" fill="#fff"/>
        <rect id="Rectangle_267" data-name="Rectangle 267" width="1.747" height="4.221" rx="0.719" transform="translate(29.885 30.882)" fill="#fff"/>
        <rect id="Rectangle_268" data-name="Rectangle 268" width="1.747" height="4.221" rx="0.719" transform="translate(35.032 30.882)" fill="#fff"/>
        <rect id="Rectangle_269" data-name="Rectangle 269" width="1.747" height="4.221" rx="0.719" transform="translate(35.032 25.362)" fill="#fff"/>
        <path id="Path_2418" data-name="Path 2418" d="M531.746,2981.78a1.821,1.821,0,0,1-1.819-1.818v-.889a1.819,1.819,0,1,1,3.638,0v.889A1.821,1.821,0,0,1,531.746,2981.78Zm0-3.229a.521.521,0,0,0-.521.521v.889a.521.521,0,0,0,1.041,0v-.889a.52.52,0,0,0-.52-.522Z" transform="translate(-500.987 -2952.214)" fill="#fff"/>
        <path id="Path_2419" data-name="Path 2419" d="M526.136,2987.48a1.82,1.82,0,0,1-1.818-1.818v-.89a1.819,1.819,0,1,1,3.638,0v.89a1.821,1.821,0,0,1-1.82,1.818Zm0-3.228a.519.519,0,0,0-.52.52v.89a.521.521,0,0,0,1.041,0v-.89a.52.52,0,0,0-.521-.522Z" transform="translate(-500.976 -2952.225)" fill="#fff"/>
        <path id="Path_2420" data-name="Path 2420" d="M526.136,2992.92a1.82,1.82,0,0,1-1.818-1.818v-.888a1.819,1.819,0,1,1,3.638,0v.888a1.821,1.821,0,0,1-1.82,1.818Zm0-3.228a.52.52,0,0,0-.52.521v.888a.521.521,0,0,0,1.041,0v-.888a.521.521,0,0,0-.521-.523Z" transform="translate(-500.976 -2952.236)" fill="#fff"/>
        <path id="Path_2421" data-name="Path 2421" d="M531.6,2992.92a1.82,1.82,0,0,1-1.818-1.818v-.888a1.819,1.819,0,1,1,3.637,0v.888A1.82,1.82,0,0,1,531.6,2992.92Zm0-3.228a.52.52,0,0,0-.52.521v.888a.52.52,0,0,0,1.04,0v-.888a.52.52,0,0,0-.52-.523Z" transform="translate(-500.987 -2952.236)" fill="#fff"/>
        <path id="Path_2422" data-name="Path 2422" d="M537.074,2992.92a1.822,1.822,0,0,1-1.819-1.818v-.888a1.819,1.819,0,1,1,3.638,0v.888A1.82,1.82,0,0,1,537.074,2992.92Zm0-3.228a.521.521,0,0,0-.521.521v.888a.521.521,0,0,0,1.041,0v-.888a.52.52,0,0,0-.52-.523Z" transform="translate(-500.998 -2952.236)" fill="#fff"/>
      </g>
    </g>
  </g>
</svg>
