<svg xmlns="http://www.w3.org/2000/svg" width="63.738" height="57.647" viewBox="0 0 63.738 57.647">
  <g id="loan_1_" data-name="loan (1)" transform="translate(0 487.178)">
    <path id="Path_21543" data-name="Path 21543" d="M329.552-486.832c-.162.274-.822,1.32-1.456,2.328-1.17,1.88-1.469,2.178-2.017,2.029A22.371,22.371,0,0,1,323.5-484.6c-2.079-1.855-2.5-2.191-2.5-1.992,0,.037.4,1.656.884,3.61l.884,3.548h14.266l.2-.847c.946-4.208,1.332-6.038,1.27-6.1-.087-.087-.037-.137-2.614,2.627a15.972,15.972,0,0,1-2.141,2.029.8.8,0,0,1-.6-.112,18.057,18.057,0,0,1-1.631-2.6C329.727-487.641,329.926-487.4,329.552-486.832Z" transform="translate(-281.04 0)" fill="#45c0a4"/>
    <path id="Path_21544" data-name="Path 21544" d="M265.878-417.15a6.432,6.432,0,0,0-4.033,3.286,8.926,8.926,0,0,0-.647,1.681c-.149.685-.149.71.124.934a1.086,1.086,0,0,0,.373.237c.274,0,.535-.4.7-1.046a5.571,5.571,0,0,1,5.291-4.17l.56.012-.635.149c-1.718.423-3.025,1.855-2.888,3.187.037.4.062.436.461.436.448,0,.573-.137.7-.71a2.788,2.788,0,0,1,1.494-1.544c.71-.336,1.569-.386,1.805-.112.137.162,1.2.187,8.179.187,5.191,0,8.1-.05,8.253-.124a1.747,1.747,0,0,0,.448-1.519,1.3,1.3,0,0,0-.361-.685c-.274-.261-.386-.261-9.76-.311C268.952-417.287,266.3-417.262,265.878-417.15Z" transform="translate(-228.594 -61.204)" fill="#45c0a4"/>
    <path id="Path_21545" data-name="Path 21545" d="M281.419-387.727c-.249.324-5.564,8.029-5.988,8.677A10.106,10.106,0,0,0,273.9-373.5a10.428,10.428,0,0,0,8.378,10.2,96.916,96.916,0,0,0,12.9,0,10.545,10.545,0,0,0,8.116-7.818,12.461,12.461,0,0,0,.05-4.706c-.448-1.979-.672-2.365-5.067-8.689l-2.291-3.3-7.22-.037C283.075-387.877,281.506-387.839,281.419-387.727Zm8.863,6.511a6.66,6.66,0,0,1,4.668,4.979,6.562,6.562,0,0,1-.884,4.556,7.907,7.907,0,0,1-2.5,2.278,6.094,6.094,0,0,1-7.27-1.22,6.03,6.03,0,0,1-1.88-4.805A6.376,6.376,0,0,1,290.282-381.217Z" transform="translate(-239.803 -86.955)" fill="#45c0a4"/>
    <path id="Path_21546" data-name="Path 21546" d="M353.871-328.7a5.936,5.936,0,0,0-3.8,3,5.762,5.762,0,0,0,.025,4.693,6.422,6.422,0,0,0,2.552,2.539,5.782,5.782,0,0,0,4.681,0,6.422,6.422,0,0,0,2.552-2.539,5.425,5.425,0,0,0-1.145-6.262A5.315,5.315,0,0,0,353.871-328.7Zm1.369,1.842c0,.461.025.485.473.56a2.434,2.434,0,0,1,.622.174c.224.149.05.56-.2.461a2.921,2.921,0,0,0-1.556-.075.909.909,0,0,0-.485,1.12c.075.224.386.461,1.1.822,1.071.56,1.544,1.083,1.544,1.73a1.659,1.659,0,0,1-1,1.419c-.461.2-.5.249-.5.734,0,.448-.037.535-.249.535s-.249-.087-.249-.5c0-.436-.037-.5-.336-.573a2.838,2.838,0,0,1-1.158-.4c.012-.324.237-.423.622-.286,1.145.386,2.116,0,2.116-.846,0-.573-.286-.871-1.245-1.295a3.4,3.4,0,0,1-1.033-.7,1.377,1.377,0,0,1,.622-2.2c.373-.162.411-.224.411-.672,0-.411.037-.5.249-.5S355.24-327.26,355.24-326.862Z" transform="translate(-306.068 -138.646)" fill="#757ae9"/>
    <path id="Path_21547" data-name="Path 21547" d="M10.27-195.664C5.2-193.9.822-192.353.523-192.253L0-192.042l.025,6.672.037,6.685.336.037c.2.025,2.577-.772,6.013-2.017,3.112-1.133,5.739-2.066,5.826-2.066.224,0,13.494,4.133,14.963,4.656a19.113,19.113,0,0,0,2.676.685l1.432.249,5.6-1.183c16.743-3.56,22.868-4.9,23.3-5.1a5.256,5.256,0,0,0,1.108-.859,4.34,4.34,0,0,0,.5-5.477,4.593,4.593,0,0,0-3.934-1.892c-.311.037-3.7.772-7.519,1.631s-6.984,1.544-7.009,1.519a1.585,1.585,0,0,1,.162-.523,3.916,3.916,0,0,0-.261-2.9,4.839,4.839,0,0,0-2.017-1.917c-.4-.212-3.934-1.071-10.955-2.689-5.7-1.307-10.457-2.378-10.581-2.365S15.337-197.444,10.27-195.664Z" transform="translate(0 -252.391)" fill="#757ae9"/>
  </g>
</svg>
