<svg xmlns="http://www.w3.org/2000/svg" xmlns:xlink="http://www.w3.org/1999/xlink" width="145" height="145" viewBox="0 0 145 145">
  <defs>
    <linearGradient id="linear-gradient" x1="0.5" x2="0.5" y2="1" gradientUnits="objectBoundingBox">
      <stop offset="0" stop-color="#16becf"/>
      <stop offset="0.522" stop-color="#32eab7"/>
      <stop offset="1" stop-color="#3fffac"/>
    </linearGradient>
    <filter id="Ellipse_81" x="0" y="0" width="145" height="145" filterUnits="userSpaceOnUse">
      <feOffset dy="3" input="SourceAlpha"/>
      <feGaussianBlur stdDeviation="5" result="blur"/>
      <feFlood flood-opacity="0.078"/>
      <feComposite operator="in" in2="blur"/>
      <feComposite in="SourceGraphic"/>
    </filter>
  </defs>
  <g id="_5" data-name="5" transform="translate(-14286 1596)">
    <g transform="matrix(1, 0, 0, 1, 14286, -1596)" filter="url(#Ellipse_81)">
      <circle id="Ellipse_81-2" data-name="Ellipse 81" cx="57.5" cy="57.5" r="57.5" transform="translate(15 12)" fill="url(#linear-gradient)"/>
    </g>
    <g id="mining" transform="translate(14329.846 -1043.422)">
      <path id="Path_1857" data-name="Path 1857" d="M14.55-511.525a18.8,18.8,0,0,0-5.687,1.614c-1.169.556-1.491.835-1.491,1.269,0,.579.312.723,1.592.757a11.922,11.922,0,0,1,4.251.935,29.267,29.267,0,0,1,8.514,5.353l1,.89-.211.3a2.226,2.226,0,0,0-.356,1.58c.145.646.4,1.013,1.336,1.948a7.925,7.925,0,0,1,.9.968c0,.045-5.175,4.741-11.486,10.439S1.206-474.865.95-474.564a3.4,3.4,0,0,0-.467,3.639,14.289,14.289,0,0,0,3.239,3.317,2.986,2.986,0,0,0,1.358.367,3.075,3.075,0,0,0,2.226-.568c.278-.189,5-5.342,10.484-11.43s10.228-11.341,10.54-11.664l.545-.59,1.035,1c1.447,1.425,2.137,1.647,3.239,1.057l.545-.289.59.646a36.256,36.256,0,0,1,2.894,3.662,17.5,17.5,0,0,1,1.937,3.517,2.247,2.247,0,0,1-.523.211,13.925,13.925,0,0,0-5.019,3.139,13.474,13.474,0,0,0-4.24,9.438,13.913,13.913,0,0,0,2.382,8.392,17.47,17.47,0,0,0,3.595,3.595,13.917,13.917,0,0,0,15.759.033,16.787,16.787,0,0,0,3.606-3.606,13.873,13.873,0,0,0,.924-14.146,13.328,13.328,0,0,0-2.771-3.728,13.658,13.658,0,0,0-7.334-3.706l-.89-.145-.067-1.5a16.217,16.217,0,0,0-4.585-10.484l-.768-.857.234-.367a2.057,2.057,0,0,0,.178-1.836c-.167-.445-.846-1.169-4.274-4.619-2.237-2.259-4.285-4.229-4.552-4.385a1.527,1.527,0,0,0-1.169-.234,1.832,1.832,0,0,0-1.046.289l-.334.234-.211-.234c-.122-.122-.646-.6-1.191-1.046a15.946,15.946,0,0,0-10.139-4.107A20.322,20.322,0,0,0,14.55-511.525Zm3.829,1.625a15.722,15.722,0,0,1,7.913,4.051l.835.779-1.636,1.636L23.865-501.8l-1.046-.924a29.2,29.2,0,0,0-11.107-6.355c-.345-.089-.445-.145-.334-.211a17.891,17.891,0,0,1,2.727-.657A18.318,18.318,0,0,1,18.379-509.9Zm15.737,8.826a52.01,52.01,0,0,1,4.085,4.307,57.8,57.8,0,0,1-6.066,6.066c-.256,0-8.514-8.2-8.514-8.458,0-.089,1.313-1.469,2.916-3.083,2.293-2.293,2.983-2.927,3.205-2.927S30.877-504.313,34.116-501.075ZM17.344-481.064c-5.732,6.366-10.6,11.708-10.8,11.875a2.027,2.027,0,0,1-1.7.356c-.334-.056-.657-.3-1.569-1.2a11.44,11.44,0,0,1-1.369-1.547,1.768,1.768,0,0,1-.022-1.6c.145-.278,2.549-2.526,7.98-7.435,4.285-3.862,9.571-8.637,11.753-10.606l3.951-3.573,1.1,1.091,1.1,1.091Zm22.025-11.641a14.38,14.38,0,0,1,3.617,9.115v1.091l-.957.078a9.132,9.132,0,0,0-1.1.134c-.089.045-.367-.367-.8-1.2a30.459,30.459,0,0,0-4.43-6.322l-.946-1.057,1.636-1.636,1.636-1.647.323.312C38.523-493.673,38.979-493.161,39.369-492.705Zm5.8,11.964a12.17,12.17,0,0,1,6.978,3.728,12.258,12.258,0,0,1,.022,16.906,12.324,12.324,0,0,1-17.74.234,12.371,12.371,0,0,1,1-18.3A12.444,12.444,0,0,1,45.167-480.741Z" transform="translate(0)" fill="#fff"/>
      <path id="Path_1858" data-name="Path 1858" d="M340.2-201.711c-.2.2-.223.367-.223,1.447v1.224h-1.224c-1.157,0-1.247.011-1.5.278-.545.534-.167,1.28.646,1.28h.412l-.022,4.085-.033,4.1-.49.067c-.79.1-1.046.746-.512,1.269.256.267.345.278,1.5.278h1.224v1.224c0,1.08.022,1.247.223,1.447a.718.718,0,0,0,1.013.011c.245-.2.267-.312.3-1.447l.044-1.235h1.536v1.224c0,1.08.022,1.247.223,1.447a.718.718,0,0,0,1.013.011c.245-.2.267-.312.3-1.436l.044-1.224.512-.078a3.273,3.273,0,0,0,2.56-1.781,2.465,2.465,0,0,0,.289-1.391,3,3,0,0,0-1.324-2.649l-.289-.234.3-.59a3.245,3.245,0,0,0,.022-2.816,3.234,3.234,0,0,0-1.558-1.5l-.512-.223-.044-1.291c-.033-1.2-.056-1.3-.3-1.5a.718.718,0,0,0-1.013.011c-.2.2-.223.367-.223,1.447v1.224h-1.536l-.044-1.235c-.033-1.135-.056-1.247-.3-1.447A.718.718,0,0,0,340.2-201.711Zm4.519,4.519a1.571,1.571,0,0,1,.612,2.092,1.392,1.392,0,0,1-.723.723c-.423.211-.679.234-2.6.234h-2.137v-3.35l2.27.033C344.229-197.427,344.44-197.4,344.719-197.193Zm1.124,4.919a1.849,1.849,0,0,1,.657,1.625,1.9,1.9,0,0,1-1.035,1.247,11.659,11.659,0,0,1-2.983.156h-2.615v-3.35l2.816.033C345.386-192.53,345.5-192.518,345.843-192.274Z" transform="translate(-299.329 -275.19)" fill="#fff"/>
    </g>
    <g id="mining-2" data-name="mining" transform="translate(14329.846 -1043.422)">
      <path id="Path_1857-2" data-name="Path 1857" d="M14.55-511.525a18.8,18.8,0,0,0-5.687,1.614c-1.169.556-1.491.835-1.491,1.269,0,.579.312.723,1.592.757a11.922,11.922,0,0,1,4.251.935,29.267,29.267,0,0,1,8.514,5.353l1,.89-.211.3a2.226,2.226,0,0,0-.356,1.58c.145.646.4,1.013,1.336,1.948a7.925,7.925,0,0,1,.9.968c0,.045-5.175,4.741-11.486,10.439S1.206-474.865.95-474.564a3.4,3.4,0,0,0-.467,3.639,14.289,14.289,0,0,0,3.239,3.317,2.986,2.986,0,0,0,1.358.367,3.075,3.075,0,0,0,2.226-.568c.278-.189,5-5.342,10.484-11.43s10.228-11.341,10.54-11.664l.545-.59,1.035,1c1.447,1.425,2.137,1.647,3.239,1.057l.545-.289.59.646a36.256,36.256,0,0,1,2.894,3.662,17.5,17.5,0,0,1,1.937,3.517,2.247,2.247,0,0,1-.523.211,13.925,13.925,0,0,0-5.019,3.139,13.474,13.474,0,0,0-4.24,9.438,13.913,13.913,0,0,0,2.382,8.392,17.47,17.47,0,0,0,3.595,3.595,13.917,13.917,0,0,0,15.759.033,16.787,16.787,0,0,0,3.606-3.606,13.873,13.873,0,0,0,.924-14.146,13.328,13.328,0,0,0-2.771-3.728,13.658,13.658,0,0,0-7.334-3.706l-.89-.145-.067-1.5a16.217,16.217,0,0,0-4.585-10.484l-.768-.857.234-.367a2.057,2.057,0,0,0,.178-1.836c-.167-.445-.846-1.169-4.274-4.619-2.237-2.259-4.285-4.229-4.552-4.385a1.527,1.527,0,0,0-1.169-.234,1.832,1.832,0,0,0-1.046.289l-.334.234-.211-.234c-.122-.122-.646-.6-1.191-1.046a15.946,15.946,0,0,0-10.139-4.107A20.322,20.322,0,0,0,14.55-511.525Zm3.829,1.625a15.722,15.722,0,0,1,7.913,4.051l.835.779-1.636,1.636L23.865-501.8l-1.046-.924a29.2,29.2,0,0,0-11.107-6.355c-.345-.089-.445-.145-.334-.211a17.891,17.891,0,0,1,2.727-.657A18.318,18.318,0,0,1,18.379-509.9Zm15.737,8.826a52.01,52.01,0,0,1,4.085,4.307,57.8,57.8,0,0,1-6.066,6.066c-.256,0-8.514-8.2-8.514-8.458,0-.089,1.313-1.469,2.916-3.083,2.293-2.293,2.983-2.927,3.205-2.927S30.877-504.313,34.116-501.075ZM17.344-481.064c-5.732,6.366-10.6,11.708-10.8,11.875a2.027,2.027,0,0,1-1.7.356c-.334-.056-.657-.3-1.569-1.2a11.44,11.44,0,0,1-1.369-1.547,1.768,1.768,0,0,1-.022-1.6c.145-.278,2.549-2.526,7.98-7.435,4.285-3.862,9.571-8.637,11.753-10.606l3.951-3.573,1.1,1.091,1.1,1.091Zm22.025-11.641a14.38,14.38,0,0,1,3.617,9.115v1.091l-.957.078a9.132,9.132,0,0,0-1.1.134c-.089.045-.367-.367-.8-1.2a30.459,30.459,0,0,0-4.43-6.322l-.946-1.057,1.636-1.636,1.636-1.647.323.312C38.523-493.673,38.979-493.161,39.369-492.705Zm5.8,11.964a12.17,12.17,0,0,1,6.978,3.728,12.258,12.258,0,0,1,.022,16.906,12.324,12.324,0,0,1-17.74.234,12.371,12.371,0,0,1,1-18.3A12.444,12.444,0,0,1,45.167-480.741Z" transform="translate(0)" fill="#fff"/>
      <path id="Path_1858-2" data-name="Path 1858" d="M340.2-201.711c-.2.2-.223.367-.223,1.447v1.224h-1.224c-1.157,0-1.247.011-1.5.278-.545.534-.167,1.28.646,1.28h.412l-.022,4.085-.033,4.1-.49.067c-.79.1-1.046.746-.512,1.269.256.267.345.278,1.5.278h1.224v1.224c0,1.08.022,1.247.223,1.447a.718.718,0,0,0,1.013.011c.245-.2.267-.312.3-1.447l.044-1.235h1.536v1.224c0,1.08.022,1.247.223,1.447a.718.718,0,0,0,1.013.011c.245-.2.267-.312.3-1.436l.044-1.224.512-.078a3.273,3.273,0,0,0,2.56-1.781,2.465,2.465,0,0,0,.289-1.391,3,3,0,0,0-1.324-2.649l-.289-.234.3-.59a3.245,3.245,0,0,0,.022-2.816,3.234,3.234,0,0,0-1.558-1.5l-.512-.223-.044-1.291c-.033-1.2-.056-1.3-.3-1.5a.718.718,0,0,0-1.013.011c-.2.2-.223.367-.223,1.447v1.224h-1.536l-.044-1.235c-.033-1.135-.056-1.247-.3-1.447A.718.718,0,0,0,340.2-201.711Zm4.519,4.519a1.571,1.571,0,0,1,.612,2.092,1.392,1.392,0,0,1-.723.723c-.423.211-.679.234-2.6.234h-2.137v-3.35l2.27.033C344.229-197.427,344.44-197.4,344.719-197.193Zm1.124,4.919a1.849,1.849,0,0,1,.657,1.625,1.9,1.9,0,0,1-1.035,1.247,11.659,11.659,0,0,1-2.983.156h-2.615v-3.35l2.816.033C345.386-192.53,345.5-192.518,345.843-192.274Z" transform="translate(-299.329 -275.19)" fill="#fff"/>
    </g>
    <g id="mining-3" data-name="mining" transform="translate(14329.846 -1043.422)">
      <path id="Path_1857-3" data-name="Path 1857" d="M14.55-511.525a18.8,18.8,0,0,0-5.687,1.614c-1.169.556-1.491.835-1.491,1.269,0,.579.312.723,1.592.757a11.922,11.922,0,0,1,4.251.935,29.267,29.267,0,0,1,8.514,5.353l1,.89-.211.3a2.226,2.226,0,0,0-.356,1.58c.145.646.4,1.013,1.336,1.948a7.925,7.925,0,0,1,.9.968c0,.045-5.175,4.741-11.486,10.439S1.206-474.865.95-474.564a3.4,3.4,0,0,0-.467,3.639,14.289,14.289,0,0,0,3.239,3.317,2.986,2.986,0,0,0,1.358.367,3.075,3.075,0,0,0,2.226-.568c.278-.189,5-5.342,10.484-11.43s10.228-11.341,10.54-11.664l.545-.59,1.035,1c1.447,1.425,2.137,1.647,3.239,1.057l.545-.289.59.646a36.256,36.256,0,0,1,2.894,3.662,17.5,17.5,0,0,1,1.937,3.517,2.247,2.247,0,0,1-.523.211,13.925,13.925,0,0,0-5.019,3.139,13.474,13.474,0,0,0-4.24,9.438,13.913,13.913,0,0,0,2.382,8.392,17.47,17.47,0,0,0,3.595,3.595,13.917,13.917,0,0,0,15.759.033,16.787,16.787,0,0,0,3.606-3.606,13.873,13.873,0,0,0,.924-14.146,13.328,13.328,0,0,0-2.771-3.728,13.658,13.658,0,0,0-7.334-3.706l-.89-.145-.067-1.5a16.217,16.217,0,0,0-4.585-10.484l-.768-.857.234-.367a2.057,2.057,0,0,0,.178-1.836c-.167-.445-.846-1.169-4.274-4.619-2.237-2.259-4.285-4.229-4.552-4.385a1.527,1.527,0,0,0-1.169-.234,1.832,1.832,0,0,0-1.046.289l-.334.234-.211-.234c-.122-.122-.646-.6-1.191-1.046a15.946,15.946,0,0,0-10.139-4.107A20.322,20.322,0,0,0,14.55-511.525Zm3.829,1.625a15.722,15.722,0,0,1,7.913,4.051l.835.779-1.636,1.636L23.865-501.8l-1.046-.924a29.2,29.2,0,0,0-11.107-6.355c-.345-.089-.445-.145-.334-.211a17.891,17.891,0,0,1,2.727-.657A18.318,18.318,0,0,1,18.379-509.9Zm15.737,8.826a52.01,52.01,0,0,1,4.085,4.307,57.8,57.8,0,0,1-6.066,6.066c-.256,0-8.514-8.2-8.514-8.458,0-.089,1.313-1.469,2.916-3.083,2.293-2.293,2.983-2.927,3.205-2.927S30.877-504.313,34.116-501.075ZM17.344-481.064c-5.732,6.366-10.6,11.708-10.8,11.875a2.027,2.027,0,0,1-1.7.356c-.334-.056-.657-.3-1.569-1.2a11.44,11.44,0,0,1-1.369-1.547,1.768,1.768,0,0,1-.022-1.6c.145-.278,2.549-2.526,7.98-7.435,4.285-3.862,9.571-8.637,11.753-10.606l3.951-3.573,1.1,1.091,1.1,1.091Zm22.025-11.641a14.38,14.38,0,0,1,3.617,9.115v1.091l-.957.078a9.132,9.132,0,0,0-1.1.134c-.089.045-.367-.367-.8-1.2a30.459,30.459,0,0,0-4.43-6.322l-.946-1.057,1.636-1.636,1.636-1.647.323.312C38.523-493.673,38.979-493.161,39.369-492.705Zm5.8,11.964a12.17,12.17,0,0,1,6.978,3.728,12.258,12.258,0,0,1,.022,16.906,12.324,12.324,0,0,1-17.74.234,12.371,12.371,0,0,1,1-18.3A12.444,12.444,0,0,1,45.167-480.741Z" transform="translate(0)" fill="#fff"/>
      <path id="Path_1858-3" data-name="Path 1858" d="M340.2-201.711c-.2.2-.223.367-.223,1.447v1.224h-1.224c-1.157,0-1.247.011-1.5.278-.545.534-.167,1.28.646,1.28h.412l-.022,4.085-.033,4.1-.49.067c-.79.1-1.046.746-.512,1.269.256.267.345.278,1.5.278h1.224v1.224c0,1.08.022,1.247.223,1.447a.718.718,0,0,0,1.013.011c.245-.2.267-.312.3-1.447l.044-1.235h1.536v1.224c0,1.08.022,1.247.223,1.447a.718.718,0,0,0,1.013.011c.245-.2.267-.312.3-1.436l.044-1.224.512-.078a3.273,3.273,0,0,0,2.56-1.781,2.465,2.465,0,0,0,.289-1.391,3,3,0,0,0-1.324-2.649l-.289-.234.3-.59a3.245,3.245,0,0,0,.022-2.816,3.234,3.234,0,0,0-1.558-1.5l-.512-.223-.044-1.291c-.033-1.2-.056-1.3-.3-1.5a.718.718,0,0,0-1.013.011c-.2.2-.223.367-.223,1.447v1.224h-1.536l-.044-1.235c-.033-1.135-.056-1.247-.3-1.447A.718.718,0,0,0,340.2-201.711Zm4.519,4.519a1.571,1.571,0,0,1,.612,2.092,1.392,1.392,0,0,1-.723.723c-.423.211-.679.234-2.6.234h-2.137v-3.35l2.27.033C344.229-197.427,344.44-197.4,344.719-197.193Zm1.124,4.919a1.849,1.849,0,0,1,.657,1.625,1.9,1.9,0,0,1-1.035,1.247,11.659,11.659,0,0,1-2.983.156h-2.615v-3.35l2.816.033C345.386-192.53,345.5-192.518,345.843-192.274Z" transform="translate(-299.329 -275.19)" fill="#fff"/>
    </g>
  </g>
</svg>
