<svg xmlns="http://www.w3.org/2000/svg" xmlns:xlink="http://www.w3.org/1999/xlink" width="145" height="145" viewBox="0 0 145 145">
  <defs>
    <linearGradient id="linear-gradient" x1="0.5" x2="0.5" y2="1" gradientUnits="objectBoundingBox">
      <stop offset="0" stop-color="#16becf"/>
      <stop offset="0.522" stop-color="#32eab7"/>
      <stop offset="1" stop-color="#3fffac"/>
    </linearGradient>
    <filter id="Ellipse_80" x="0" y="0" width="145" height="145" filterUnits="userSpaceOnUse">
      <feOffset dy="3" input="SourceAlpha"/>
      <feGaussianBlur stdDeviation="5" result="blur"/>
      <feFlood flood-opacity="0.078"/>
      <feComposite operator="in" in2="blur"/>
      <feComposite in="SourceGraphic"/>
    </filter>
  </defs>
  <g id="_4" data-name="4" transform="translate(-13767 1596)">
    <g transform="matrix(1, 0, 0, 1, 13767, -1596)" filter="url(#Ellipse_80)">
      <circle id="Ellipse_80-2" data-name="Ellipse 80" cx="57.5" cy="57.5" r="57.5" transform="translate(15 12)" fill="url(#linear-gradient)"/>
    </g>
    <g id="currency-exchange_1" transform="translate(13781.406 -1043)">
      <path id="Path_1850" data-name="Path 1850" d="M87.742-511.679l-.365.321-.033,7.534-.022,7.534H86.2a3.655,3.655,0,0,0-1.416.166,1.06,1.06,0,0,0-.5,1.206c.144.509,6.45,10.344,6.782,10.554a1.046,1.046,0,0,0,1.283-.1c.144-.144,1.715-2.533,3.485-5.3,2.544-4,3.208-5.111,3.208-5.4,0-.874-.454-1.128-1.991-1.128H95.951V-503.7a75.9,75.9,0,0,0-.133-7.689c-.266-.586-.443-.608-4.226-.608H88.1Zm6,9.3c0,7.9,0,7.9.52,8.142a5.1,5.1,0,0,0,.94.144l.741.066-2.091,3.264c-1.151,1.792-2.146,3.264-2.2,3.264-.1,0-4.038-6.062-4.182-6.439-.044-.111.266-.144,1.682-.144h1.737l.321-.321a.945.945,0,0,0,.321-.73c0-.785-.465-1.162-1.438-1.162h-.553v-13.5h4.2Z" transform="translate(-45.054)" fill="#fff"/>
      <path id="Path_1851" data-name="Path 1851" d="M254.219-511.637a12.961,12.961,0,0,0-7.633,3.994,13.022,13.022,0,0,0,3.6,20.621A13.047,13.047,0,0,0,267.771-493a11.646,11.646,0,0,0,1.261-5.808,11.074,11.074,0,0,0-.94-4.857,12.021,12.021,0,0,0-2.755-4.115,12.579,12.579,0,0,0-6.239-3.6A16.621,16.621,0,0,0,254.219-511.637Zm3.651,2.268a10.561,10.561,0,0,1,5.8,3.053,10.059,10.059,0,0,1,2.511,3.85,10.758,10.758,0,0,1-2.655,11.594,11.2,11.2,0,0,1-4.768,2.7,12.147,12.147,0,0,1-4.812.122,10.893,10.893,0,0,1-8.541-8.529,8.683,8.683,0,0,1-.166-2.5,9.372,9.372,0,0,1,1.029-4.248A10.8,10.8,0,0,1,257.869-509.369Z" transform="translate(-186.23 -0.252)" fill="#fff"/>
      <path id="Path_1852" data-name="Path 1852" d="M328.312-456.675a4.509,4.509,0,0,0-2.423,1.206,4.364,4.364,0,0,0-1.328,2.633l-.144.863-.62.033c-.785.044-1.029.277-1.029.985,0,.62.31.918.962.918.42,0,.431.011.376.3-.033.177-.144.907-.232,1.637-.266,1.947-.21,1.825-.708,1.825-.586,0-.763.089-.951.454-.343.642-.1,1.659.409,1.8a72.068,72.068,0,0,0,7.434-.055c.653-.3.653-1.881.011-2.135a19.819,19.819,0,0,0-2.058-.066h-1.87l.055-.254c.066-.31.5-3.23.5-3.385,0-.077.387-.122,1.106-.122,1.339,0,1.549-.133,1.549-.94,0-.785-.232-.94-1.394-.94h-.951l.077-.642a2.118,2.118,0,0,1,.819-1.648,1.758,1.758,0,0,1,1.184-.254c.7,0,.852-.033,1.117-.265s.31-.343.31-.885C330.514-456.653,329.95-456.918,328.312-456.675Z" transform="translate(-256.551 -49.13)" fill="#fff"/>
      <path id="Path_1853" data-name="Path 1853" d="M301.025-251.507a1.337,1.337,0,0,0-.409.31c-.111.111-1.637,2.478-3.407,5.233-2.555,4-3.208,5.111-3.208,5.4,0,.874.454,1.128,1.991,1.128H297.1v7.412c0,8.054-.011,7.888.608,8.164a21.107,21.107,0,0,0,3.761.133h3.485l.354-.321a.837.837,0,0,0,.365-.785.837.837,0,0,0-.365-.785l-.354-.321H299.31v-13.5h.553a2.379,2.379,0,0,0,.874-.155,1.135,1.135,0,0,0,.3-1.693l-.266-.31-1.825-.055-1.836-.055,2.091-3.264c1.151-1.792,2.135-3.264,2.2-3.264.1,0,4.038,6.062,4.182,6.439.044.111-.111.144-.686.144-.664,0-.763.033-1.062.321l-.321.321v2.954a22.644,22.644,0,0,0,.111,3.164,1.418,1.418,0,0,0,1.04.542,1.246,1.246,0,0,0,.642-.321l.365-.321.033-2.224.033-2.224h1.106a3.655,3.655,0,0,0,1.416-.166,1.06,1.06,0,0,0,.5-1.206c-.133-.476-6.439-10.344-6.737-10.532A1.2,1.2,0,0,0,301.025-251.507Z" transform="translate(-231.598 -231.63)" fill="#fff"/>
      <path id="Path_1854" data-name="Path 1854" d="M44.326-235.679A13.232,13.232,0,0,0,34.2-226.917a11.143,11.143,0,0,0-.608,4.226,11.074,11.074,0,0,0,.94,4.857,11.677,11.677,0,0,0,2.865,4.215,11.677,11.677,0,0,0,4.215,2.865,11.01,11.01,0,0,0,4.967.94,10.414,10.414,0,0,0,4.115-.608,13.14,13.14,0,0,0,8.264-8.242A13.078,13.078,0,0,0,48.751-235.69,16.019,16.019,0,0,0,44.326-235.679Zm4.414,2.246a10.616,10.616,0,0,1,5.642,3.12,10.539,10.539,0,0,1,2.843,5.41,12.031,12.031,0,0,1-.122,4.79,10.951,10.951,0,0,1-8.74,7.987,10.621,10.621,0,0,1-9.4-3.053,10.059,10.059,0,0,1-2.511-3.85,10.846,10.846,0,0,1,8.1-14.437A12.419,12.419,0,0,1,48.74-233.433Z" transform="translate(0 -245.611)" fill="#fff"/>
      <path id="Path_1855" data-name="Path 1855" d="M116.761-180.779a.816.816,0,0,0-.221.487c0,.21-.066.277-.409.332a4.194,4.194,0,0,0-1.969,1.007,2.847,2.847,0,0,0-.852,2.224,2.674,2.674,0,0,0,.929,2.213,7.606,7.606,0,0,0,2.179,1.151c.077,0,.122.476.122,1.394,0,1.593.033,1.571-1.051.9-1.294-.8-1.35-.819-1.682-.631a1.687,1.687,0,0,0-.808,1.361c0,.4.066.52.542.974a4.171,4.171,0,0,0,2.423,1.062c.5.055.575.1.575.31a.684.684,0,0,0,.675.608c.387,0,.553-.144.642-.542.055-.321.133-.376.8-.6a3.268,3.268,0,0,0,1.881-1.394,3.284,3.284,0,0,0,.52-2.235c-.077-1.416-.774-2.29-2.367-2.987l-.819-.365v-1.195c0-1.383-.022-1.361,1.051-.918a3.527,3.527,0,0,0,.951.277c.62,0,1.117-1.007.83-1.693-.2-.487-.841-.808-1.98-.985-.774-.111-.852-.155-.852-.376a.746.746,0,0,0-.686-.6A.745.745,0,0,0,116.761-180.779Zm0,3.872v1l-.431-.21c-.564-.3-.774-.774-.509-1.184a1.9,1.9,0,0,1,.918-.6C116.75-177.9,116.761-177.449,116.761-176.907Zm1.493,4.469c.354.343.4.431.365.852a.729.729,0,0,1-.409.73,1.839,1.839,0,0,1-.465.254,3.162,3.162,0,0,1-.1-1.106,3.162,3.162,0,0,1,.1-1.106A1.734,1.734,0,0,1,118.255-172.437Z" transform="translate(-70.621 -294.382)" fill="#fff"/>
      <path id="Path_1856" data-name="Path 1856" d="M380.608-70.78a1.094,1.094,0,0,0-.608.951.94.94,0,0,0,.553.962.976.976,0,0,0,1.239-.155.837.837,0,0,0,.365-.785A1.074,1.074,0,0,0,380.608-70.78Z" transform="translate(-308.084 -392.3)" fill="#fff"/>
    </g>
  </g>
</svg>
