<svg id="Layer_1" data-name="Layer 1" xmlns="http://www.w3.org/2000/svg" viewBox="0 0 500.19 500.19">
  <title>crypto</title>
  <g>
    <path d="M251.17,503q-123,0-246,.1c-3.42,0-4.1-.67-4.09-4.1q.16-246,0-492c0-3.42.67-4.1,4.09-4.09q246,.16,492,0c3.42,0,4.1.67,4.1,4.09q-.16,246,0,492c0,3.42-.67,4.1-4.09,4.1Q374.17,502.9,251.17,503Z" transform="translate(-1.07 -2.9)" fill="#fefefe"/>
    <path d="M216.24,119c1.06,4.21,4.87,3.34,7.65,3.74,2.57.36,4.22.57,4.71,3.67.79,5,4.68,6.46,9.16,6.53,6.48.11,13,.18,19.44,0,4.27-.13,7.71-1.88,9-6.45.45-1.63,1-3.23,3-3.55,9,0,18-1.47,27-1.23a12.72,12.72,0,0,1,6.71,2.5c6.75,5.57,6.35,12.87,4.92,20.42-.09.13-.18.38-.28.38-6.67.12-8.22,6.14-11.62,10-.84,1-.92,1.81.11,2.46,2.49,1.57,3.2,4,3.66,6.68.51,2.9,4.34,2.24,5.34,4.73a13.91,13.91,0,0,1,.48,6.38c-1.59,12.94-2,26-3.64,38.94-.31,2.47-.12,5-.27,7.42-.31,3.19-1.23,6.33-.87,9.58,1.15,3,3.87,2.18,6,2.21,10.82.15,21.65,0,32.48.09,8.36.06,10.36,2,10.46,10.32q.16,12.74,0,25.48c-.11,7.58-2.67,10.06-10.35,10.25-4.5.11-9,0-13.49.06-2.36,0-4.7.21-6.19,2.47a3.27,3.27,0,0,1-3.37.41,7.45,7.45,0,0,0-6.86-3c-2.3.13-4.61,0-6.92,0-5.46.07-6,.64-6.76,6.21-.32,2.38.3,5-1.85,7-4,1.3-8,1.57-11.89-.3-2.41-6-.31-12.16.07-18.17.54-8.46,1.5-16.91,2.36-25.35.75-7.3-.16-8.2-7.37-8.21q-39.48,0-79,0c-7.51,0-8.29.58-9,8.06-1.23,12.25-2,24.54-3.21,36.8-.59,6,.47,7,6.65,7,24,.07,48,0,72,0,2.65,0,5.34-.26,7.92.67,1.89,2,4.23,3.45,6.15,5.42-1.48,10.16-.61,20.37-.84,30.56-.06,2.46.23,5-.74,7.32-1.69,2.2-4.48,2.8-6.52,4.51-2.59.85-5.27.63-7.92.63q-34.94,0-69.88,0c-2.33,0-4.69-.17-6.94.56a6.21,6.21,0,0,0-4.64,6.82c.19,3.42,2.35,4.94,5.53,5.31a51.93,51.93,0,0,0,6,.18q34.44,0,68.88,0a29.81,29.81,0,0,1,7.44.46c2.22,2.07,5.48,1.84,7.9,3.49a14,14,0,0,1,.13,9.18c-1.66,2-3.25,4-5.52,5.33a86.24,86.24,0,0,1-21.05.14c-3.13-3.89-9.23-3.27-12-7.82a1.09,1.09,0,0,0-1.73.06c-2.85,4.14-8.44,4.12-11.63,7.75a467,467,0,0,1-47.34.18c-8.31-.32-13.76-7.81-12.69-16.61,1.22-10.07,1.69-20.19,2.7-30.28,1.86-18.67,3.08-37.41,5-56.07.93-8.92,1-17.92,2.33-26.8,1.34-6.24.54-12.76,2.4-18.93.73-1.33,2.05-1.61,3.36-1.8A36.34,36.34,0,0,0,193,218.48c6.84-3.73,14.48-5.63,21.16-9.67,6.38.05,12.81-1.19,19.1.79,1.87,2.3,1.64,5.06,1.2,7.63-.72,4.21,1.29,5.26,5,5.25q16.45,0,32.9,0h4.49c10,0,10.17-.23,10.87-10.11.66-9.27,1.35-18.54,2.28-27.79.73-7.23.13-8-7.3-8-13.29,0-26.59-.08-39.88,0-1.64,0-3.33.37-4.87-.57a17.7,17.7,0,0,1-.08-12.85c2.83-1.56,5.87-.58,8.8-.63,8.31-.14,16.63,0,24.95-.07,3.81,0,6.38-1.37,7-5.52.78-5.65-.47-7.35-6.19-7.37q-33.43-.12-66.87,0c-6.63,0-7.07.46-8.49,7.12a11.49,11.49,0,0,1-1.32,4.26c-3.57,2.27-7.51,1.53-11.38,1.44-2.49-3.23-1.62-7-1.32-10.5q.71-8.12,1.87-16.22c.95-6.56,6-10.65,9.21-15.84,2.67,3,1.4,6.63,1.5,10,.11,4-.1,7.77,5.17,8.56,1.13.17,1.89,1.29,2.71,2.1.47.47,1.14,1.19,1.64.92,2.87-1.51,5.46-3.48,8.47-4.83,1.55-.69,1.08-2.94,1.27-4.57C215.27,127.63,213.47,123,216.24,119Z" transform="translate(-1.07 -2.9)" fill="#9edcdf"/>
    <path d="M194,119.91c-.78,3.34-2,6.31-4.71,8.76a10.15,10.15,0,0,0-3.07,6.6c-.82,8.83-2.36,17.6-2.1,26.51,1.54,5.14-.23,10.2-.67,15.24-.58,6.71-.28,13.55-2.09,20.14-1.49,5.5-6,7.23-10.79,8.5-7.64-3.8-15.41-7.42-20.82-14.45.1-1.73,1.43-2,2.74-2.29,6.52-1.67,9.58-5.53,9.64-12.21a30.91,30.91,0,0,0-.28-5.9c3-6.34,1-11.63-5.34-13.72a3.08,3.08,0,0,0-2.74.49,12.76,12.76,0,0,1-2.92,1.76c-7.46-1.59-10.81.83-14.11,6.8a13.06,13.06,0,0,0,.6,13.62c1.63,2.54,4.25,4.15,5.66,6.81a4.7,4.7,0,0,1-.52,3.87c-1.9,2.07-3.76,4.24-6.59,5.05-4.56,1.31-6,4.65-6.24,9-.35,7,1.56,13.79,1,20.75-.27,3.09,0,6.36-3,8.54-3.38,1.27-6.9.72-10.36.79-10.95.25-21.91-.45-32.85.43a5.46,5.46,0,0,1-4.23-1c3-2.1.06-5.49,1.87-8.49,1.1-1.84.79-7.49-.17-10-2.3-5.92.23-6,4.61-5.64-.69-2.59-3.69-1.75-4.53-3.7-.64-1.49-2-3.14-.72-4.54,1.56-1.72,1.39-3.08.41-4.86a3.58,3.58,0,0,1,.45-4.19,2.77,2.77,0,0,0,.71-2.26c-.28-2.11-3.63-3.87-1.34-6,1.39-1.32,4.17.39,6.38-1.19-1.24-1.86-3.57-.6-4.83-1.88-.83-.84-2.26-2-1.74-2.8,2.63-4-2.43-8.7,1.24-12.53.85-.89.26-1.94-.29-2.75-3-4.47-1.24-5.73,3.4-5.22.74.08,1.71.14,2-1-.49-1.3-1.64-.88-2.53-1-1.87-.2-3.9-1.63-3.62-2.84,1-4.25-1.19-8.66.73-12.64a3.22,3.22,0,0,0-.06-3.6c-2.88-4.37-.93-5.36,3.31-4.95.75.07,1.69.19,2.15-.89-.41-1.6-1.83-.92-2.81-1.1-1.44-.27-3-1.12-3-2.26a113.53,113.53,0,0,1-.12-12.83c0-.64,1.83-1.45,1.12-2.39-3.7-4.92-1.32-6.76,4.07-7.57-4.57-.07-4.83-5.35-8.6-5.92a1.26,1.26,0,0,1,.59-1.66c2.33-1.2,4.87-1,7.35-1q60.49,0,121,0c2.76,0,5.73-.58,8.08,1.64-2.82,3.07-4.52,7.86-11.68,5.38,1.77,1.69,2.1,2.29,2.43,2.28,5.37-.07,9.44.53,5.48,7.51-1,1.78,1.67,2.45,2.76,3.54-1.88,2.32-4.55,1.63-7,1.7C202.75,118.57,198.23,118.11,194,119.91Z" transform="translate(-1.07 -2.9)" fill="#f7f7f7"/>
    <path d="M420.22,399c8.83,0,17.65,0,26.48,0,2,0,5.08-.77,5.15,2.33.07,3.56-3.22,2.57-5.35,2.61-6.16.11-12.32,0-18.49.06-1.55,0-3.71-.54-3.69,2.08,0,2.14,1.9,2.71,3.53,2.79a37.89,37.89,0,0,1,9.69,2.1c2,.64,4.54,1.09,4.5,3.89s-2.11,4.39-4.64,5.17A84.57,84.57,0,0,1,419.84,423c-16.14,1.4-32.3,2.66-48.45,4a13.44,13.44,0,0,1-1.5,0c-15.46-.47-30.91.66-46.33,1.21-44.77,1.6-89.53.54-134.28.67-22.06.06-44.15-.9-66.19-2-17.17-.84-34.32-2.39-51.44-4-5.55-.53-11.22-1.1-16.55-3-1.85-.67-3.74-1.35-3.94-3.93-.22-2.79,1.54-3.86,3.62-4.7,5.12-2.07,10.61-2.44,16-3.15,4.42-.58,8.83-1.39,13.36-1.16a7.45,7.45,0,0,0,5-1.8c4.12-2,7.27.95,10.67,2.25s6.43,1.62,8.19-2.48c5.15-2.2,10.62-2.29,16.07-2.33a81.84,81.84,0,0,1,9.43,0,1.7,1.7,0,0,1,1.19,1.41c1,6,1,6.05,6.83,5.12a30.58,30.58,0,0,1,8.89-.07c6,.78,6,.77,6-4.81A6.06,6.06,0,0,1,161.3,402c5.55.22,11.06-1,16.22-.46,1.06,0,0-1.08.33-.51.1.16,0,.28-.35.27-8.37-.19-16.72,1.89-25.12.32-1.83-1.34-3.51-2.75-2.52-5.41,1.44-1.78,3.51-1.78,5.49-1.78q33-.12,66,0a10.11,10.11,0,0,1,3.93.63c1.58.67,3.12,1.63,2.9,3.58s-1.81,2.66-3.62,2.75c-2.28.12-4.57,0-6.85.25,16.74-2.08,33.56-1.07,50.34-1.26a23.36,23.36,0,0,1,6.95.51c2.1.68,2.53,2.75,3.55,4.32,1.14,1.76,2.91,2.42,4.81,2.9,12.37,1,24.74.18,37.11.4,2.54-.19,5.12.2,7.62-.53,4.89-1,9.78.14,14.67-.06,4.6-.74,9.19,1.34,13.79,0,4.88-1.1,9.75.37,14.62,0,2.61-.69,6,.87,7.71-2.5.93-1.06,1.81-2.24,3.51-1.64,3.11,5.73,3.11,5.73,8.55.28a130.22,130.22,0,0,1,15.83.85,21.64,21.64,0,0,0,8.35-.41c1.39-.13,1.88,1,2.59,1.86s1.6,1.69,2.89,1a2,2,0,0,0,1-2c-.07-1.39-1-1.94-2.27-2a5.79,5.79,0,0,1-2.38-.34,3,3,0,0,1-.94-3.31A4.67,4.67,0,0,1,420.22,399Z" transform="translate(-1.07 -2.9)" fill="#fdfdfd"/>
    <path d="M117.07,277c.16-7.1-.21-14.26,2-21.17,1.33-4.11,2.78-8.14,6.13-11.13a5.82,5.82,0,0,1,3.81.77c8.47,5,17.72,5.66,27.23,5.1,1.55-.09,3.33-.68,4.56,1,1.08,2.19.87,4.54.87,6.86,0,15.12.27,30.25-.06,45.37-.4,18.47-3,36.73-6.51,54.86-1.66,8.48-3.11,17-4.6,25.51-.51,2.91-.78,6-3.88,7.68-3.2,1-6.46.71-9.72.51-3.47-.34-4.06-3-4.46-5.72a144.6,144.6,0,0,1-1.23-23.35c.11-7.72.15-15.61,1.59-23.34a79.75,79.75,0,0,1,3.37-13.5c-5.88,16.83-15.83,31.53-24.61,46.84-2.07,3.6-4.33,7.1-6.5,10.64-1.13,1.85-2.28,3.72-4.7,4.16-3.7,0-7.08-.8-9.57-3.81-2-2-2.11-4.39-1.54-6.9,2.68-11.79,5.65-23.49,10.72-34.55A8.19,8.19,0,0,1,103,339L110.2,327c4.64-15.42,5.87-31.28,6.08-47.28A3.71,3.71,0,0,1,117.07,277Z" transform="translate(-1.07 -2.9)" fill="#008a95"/>
    <path d="M414.23,279c5,.05,10,0,15,.17,6.53.21,10.45,4,10,10.48C438,305,436.57,320.44,435,335.83c-.41,4.09-3.46,5.2-7.26,5.19-12.16,0-24.33.06-36.49.1a8.64,8.64,0,0,1-1.57.85c-1.85.37-3.61.37-5-1.13A6,6,0,0,1,384,337c1.63-15.89,2.66-31.85,4.68-47.7,1-8.21,3.88-10.61,12.15-10.64a123.49,123.49,0,0,1,12.48.17Z" transform="translate(-1.07 -2.9)" fill="#51c5ca"/>
    <path d="M159.83,251.14c-12.46,2.81-24,.49-34.61-6.46,1.18-2.07,2.32-4.15,2.1-6.66a5.09,5.09,0,0,1,.77-5c1.38-8.58.29-17.16.08-25.74-.23-9.18.32-10,8.74-13.26,2.13-.83,2.22-4.1,5-4.16A6.31,6.31,0,0,1,150,191.3l20.18,13.77c2.54.9,5.07,1.8,5.26,5.13-1.16,4.35-4.09,7.3-7.69,9.72-3.36,1.37-3.51,4.54-4.21,7.42a42.37,42.37,0,0,0-1,11.39C161.46,242.83,162.91,247.48,159.83,251.14Z" transform="translate(-1.07 -2.9)" fill="#1a2e35"/>
    <path d="M96.16,319a1.77,1.77,0,0,0-.44.22c-2.88,2.68-4.25,7.71-9.54,6.69-7.24-1.4-14.33-3.42-19.08-9.66-2.48-3.26-1-6.85,3-8.71,2.11-1,5.81-.69,5.59-3.85-.2-2.84-3.72-2.8-6-3.69-3.08-1.21-6.33-2.08-9.26-3.57-2.07-1.05-3.69-2.95-3.19-5.69s2.37-3.71,5-3.82c1.44-.06,3.39-.34,3.41-2.15s-2.14-1.8-3.45-2.22c-2.37-.74-4.8-1.23-7-2.53a7.5,7.5,0,0,1-4-6.47c-.11-3.29,2.53-2.25,4.28-2.66,2.35-.56,1.05-2,.56-3.06-1.56-3.31-3.29-6.54-4.88-9.83-1.19-2.47-2.25-5.69-.09-7.39,2.48-2,5.21-.19,7.35,2.09,3.41,3.64,7.16,7,10.51,10.66,2.28,2.52,3.89,2.77,6.39.16,1.74-1.82,3.12-5.7,6.59-3.88,3.07,1.61,3.28,5.19,3.22,8.39-.08,4.79-1.29,9.49-1.06,14.35.12,2.62.93,4.63,3.05,5.85,2.29,1.32,2.44-1.55,3.67-2.36,3.1-2,6.93-1,8,2.62a27,27,0,0,0,2.41,6.48c-5.51,5.15-4.68,11.84-4.5,18.38C96.74,315.26,97.73,317.26,96.16,319Z" transform="translate(-1.07 -2.9)" fill="#ebebeb"/>
    <path d="M404.58,243.88c.15.06.31.13.46.17,10.18,3,10.28,3,10.09,14.12-.12,6.93-.59,13.86-.9,20.79l-.41-.06c-4.72,1.3-9.53.29-14.29.54a36.93,36.93,0,0,0-6.41.69c-5.33,1.21-8.28,4.32-9,9.86s-.15,11.33-2.35,16.7c-1,1.28-2.28,1.38-3.7,1.16-2.54-.74-2.27-3-2.74-4.93a16.62,16.62,0,0,1-.34-2.82c0-.91,0-1.82-.09-2.72-.06-1.34-.57-2.62-.6-4a6.94,6.94,0,0,1,.15-1.34,11.88,11.88,0,0,0,.3-2c-.11-1.69-.78-3.28-.87-5-.23-3.13,0-6.27-.09-9.39.14-2.6-1.25-3.84-3.66-4.39-1.89-.44-3.89-.73-5.34-2.27-1.34-10.6,6.87-22.71,17-25,2.43-.55,4.9-.94,7.37-1.33C394.35,242.54,399.56,242,404.58,243.88Z" transform="translate(-1.07 -2.9)" fill="#008b96"/>
    <path d="M297.15,122.91l-28,0c4-1.85,8.15-.65,12.22-.81,2.73-.1,4-.88,3.79-3.75-.48-7.43.59-14.88-.88-22.34-1.26-6.4-.42-7,6.29-7q65.6,0,131.2-.08c3.94,0,5.58.77,5.51,5.15-.07,4.19-2.34,4-5.13,3.94-2.44,2-5.37,1.54-8.16,1.54q-58.47,0-116.93,0c-1.83,0-3.66,0-5.49.09-2.41.12-3.59,1.32-3.75,3.73-.18,2.66-.12,5.32-.09,8,.07,7.38.08,7.37,7,9.39C295.92,121.1,297.14,121.36,297.15,122.91Z" transform="translate(-1.07 -2.9)" fill="#e2e2e2"/>
    <path d="M421.18,105c1.09,4,1.26,7.66-3,10-2.85,2.2-6.17,1.35-9.35,1.44q-26.33.35-52.66,0-27,.31-53.92,0a47.15,47.15,0,0,1-6.48.06c-5.21-.37-7.62-3.28-7.36-8.56.13-2.6,1.31-4,3.85-4.33a39.9,39.9,0,0,1,5.48-.26q57.65,0,115.3,0C415.83,103.41,418.76,102.95,421.18,105Z" transform="translate(-1.07 -2.9)" fill="#e2e2e2"/>
    <path d="M215.18,98l-137,0c-4.6-1.68-2-5.16-2-8a30.68,30.68,0,0,1,6.35-1q64.07.08,128.13,0c6.69,0,8.27,1.55,7.56,6.61C217.92,97.71,216.8,98,215.18,98Z" transform="translate(-1.07 -2.9)" fill="#e0e0e0"/>
    <path d="M421.18,105q-63.21,0-126.43,0c-3.13,0-5.45.13-5,4.08.39,3.25.81,6.41,5.4,6,2.31-.2,4.66,0,7,0a8.57,8.57,0,0,1,0,9.94l-5-2c-1-1.19-2.42-.92-3.72-.92-8,0-7.38,1-7.21-7.67.1-5.26-2.35-12,1.09-15.37,3.19-3.12,9.84-.92,15-.93q60-.09,119.93,0Z" transform="translate(-1.07 -2.9)" fill="#f1f1f1"/>
    <path d="M409.15,115h9c0,36.75-.1,73.51.07,110.26,0,4.6-1.23,6.25-5.84,5.79a107.66,107.66,0,0,0-11,0c.31-5.23.21-10.56,3.42-15.14.75.39,1.17,1.15,2.24,2,.74-2,.46-3.91.46-5.74q0-44.47,0-88.93C407.63,120.38,407.13,117.44,409.15,115Z" transform="translate(-1.07 -2.9)" fill="#ebebeb"/>
    <path d="M103,339c-5.85,12.41-9.56,25.52-12.6,38.83-.45,2-1.19,4.23.59,6.11q-.28.52-.73.14c-5.39.83-8.27-1.29-10.13-6.65a132.08,132.08,0,0,1-5.85-23C73,345.66,78.76,339.2,87.71,339,92.82,338.9,97.93,339,103,339Z" transform="translate(-1.07 -2.9)" fill="#efefef"/>
    <path d="M420.22,399c-.93,1.86-2.74.61-4,1.14-4.15,2.63-8.55.6-12.64.16a161.36,161.36,0,0,0-36.33.2c-3.83,1.6-7.83-.56-11.69.5-2.19.07-4.1-.33-4.14-3.05,0-2.3,1.74-3,3.53-3.56a14.12,14.12,0,0,1,3.9-.72c3.23.12,6.36-.66,9.52-1.08,10.34-2,10.33-2,10.34-12.43,0-5.47,0-10.95,0-16.42,0-2.13-.15-4.35,1.44-6.15,4.07-1.64,8.07-1.85,12,.5.08,10.09.32,20.19.14,30.28-.06,3.28,1.1,4.27,4.11,4.62,6.89.79,13.74,2,20.64,2.77C419.29,396,420.24,396.81,420.22,399Z" transform="translate(-1.07 -2.9)" fill="#1a2e35"/>
    <path d="M96.16,319c-1.26-6.53-1.68-13.06.08-19.58.69-2.55,1.7-4.75,5-4.45,2.17.37,1.87,4.7,4.68,3.41s3.25-4.24,3.36-7.22a44.06,44.06,0,0,1,1.13-9.76c.83-3.08,1.88-6.93,6.71-4.43,2.87,10.34-1.12,20.38-1.42,30.58a78.14,78.14,0,0,1-1.71,13.25A9.51,9.51,0,0,1,110.2,327c-1.43-1.18-2.39.29-3.49.69-6.47,2.32-8.56,1.28-10.23-5.32A21.77,21.77,0,0,1,96.16,319Z" transform="translate(-1.07 -2.9)" fill="#e1e1e1"/>
    <path d="M404.37,216c.68,5.32-.67,10.25-2.91,15L399,235c-7.18,3-13.08-.8-12.44-8.16.27-3.13.19-5-3.4-2.48-2.4,1.66-3-.11-3-1.89,0-2.37,0-4.62-1.82-6.41-2.86-7.18-.12-13,7.12-15.25,1.67-.51,3.43-.79,4.76.42,2.93,2.66,6.91,3.24,10.08,5.38.46.31.59,1.15,1.5.67,3.37-1.77,3.26,1,3.32,2.84A15.06,15.06,0,0,1,404.37,216Z" transform="translate(-1.07 -2.9)" fill="#1a2e35"/>
    <path d="M194,119.91c.32-3,2.43-3.14,4.74-3.13,5.16,0,10.33,0,15.49,0l2.07,2.22c0,5.14.1,10.28.11,15.42,0,1.47.29,3.69-1.24,4-3.79.74-6.92,1.8-9.12,5.42-.75,1.24-2.58-.22-3.27-1.77s-1.57-3-3.63-2.81c-4.41.39-5.3-2.15-5.16-5.88C194.08,128.86,194,124.38,194,119.91Z" transform="translate(-1.07 -2.9)" fill="#008b96"/>
    <path d="M379.27,215.9c5.4,1.54.74,5.74,2.29,8.46.64-.79,1.19-1.6,1.86-2.28,1.18-1.19,2.61-1.6,4-.54s1.36,2.44.82,4c-1.89,5.63.75,9,6.84,9,1.31,0,2.63.24,3.94.37l1,6.14c-2.91,1.82-6.17,1.49-9.37,1.56-2.21-1.38-4.18-3.09-6.8-3.92-3.38-1.07-5.15-4-6.47-7.11-3.07-2.93-.63-6.44-1-9.66C377,219.82,375.47,216.6,379.27,215.9Z" transform="translate(-1.07 -2.9)" fill="#fbc1bb"/>
    <path d="M128.09,233c.08,1.73.33,3.49-.77,5-14.25,0-28.51-.09-42.76,0-3,0-4.92-.5-4.39-4C96.11,231.93,112.12,233.49,128.09,233Z" transform="translate(-1.07 -2.9)" fill="#e4e4e4"/>
    <path d="M108.06,406.22c.14,4.38-2.56,4.34-5.53,3.36-4.46-1.46-8.56-4-13.36-4.49-7.63-2.92-7.61-2.91-3.5-10.2.56-1,.77-2.23,2.35-1.86,2.93-.41,5.42,1.18,8.12,1.8a9.62,9.62,0,0,1,1.3.5c2.31.94,3.48,2.91,4.54,5C103.36,403,106.54,403.73,108.06,406.22Z" transform="translate(-1.07 -2.9)" fill="#1b2f36"/>
    <path d="M76.16,90c.52,2.71-1.41,6,2,8v1q0,12,0,24c1,9.73.36,19.49.39,29.23,0,7.25.63,14.53-.42,21.76-2.75-.16-3-2.06-3-4.23,0-14.48-.58-29,.21-43.42.58-10.61,1.33-21.12-.14-31.7C75,93.12,74.6,91.28,76.16,90Z" transform="translate(-1.07 -2.9)" fill="#e5e5e5"/>
    <path d="M392.1,358.08H380.23a44.22,44.22,0,0,1,.21-16.48,1.14,1.14,0,0,1,2-.48c1.28,1.46.76,4.46,3.83,4.39s2.29-3.27,3.95-4.44l1.06,0C391.72,346.77,389.84,352.52,392.1,358.08Z" transform="translate(-1.07 -2.9)" fill="#a6aeb0"/>
    <path d="M96.26,395.83c-2.85-.64-5.74-1.15-8.24-2.8l2.28-9a3.61,3.61,0,0,0,.73-.14l9,3.3C100.5,390.85,98.35,393.33,96.26,395.83Z" transform="translate(-1.07 -2.9)" fill="#bc7561"/>
    <path d="M78.17,174q0-25.5,0-51c1.22,1,1,2.38,1,3.67q0,21.83,0,43.67C79.16,171.63,79.42,173,78.17,174Z" transform="translate(-1.07 -2.9)" fill="#f7f7f7"/>
    <path d="M390.16,241.89c3.31-.2,6.55-1.33,9.92-.76,1.41,1.07,3.59.87,4.5,2.75l-16.75,0C388,242.48,388.56,241.61,390.16,241.89Z" transform="translate(-1.07 -2.9)" fill="#106a70"/>
    <path d="M273,293.9c-27.79,0-55.58-.06-83.37.12-4.56,0-5.88-1.72-5.48-5.92,1.41-15,2.7-30,4.05-45,.35-3.89,3.13-4.08,6.17-4.08q28.71.05,57.41,0h27.46c7,0,7.37,0,6.87,6.79-1,13.7-2.45,27.38-3.7,41.07-.15,1.66-.21,3.32-.31,5C279.44,294.25,276,293.1,273,293.9Z" transform="translate(-1.07 -2.9)" fill="#fefefe"/>
    <path d="M159.83,251.14c.68-4.36.07-8.85,1.39-13.14,4.16-2.65,8.71-1.87,13-1,3.52.68,2.47,3.66,1.95,6.08-.68,15.07-2.31,30.06-3.78,45.06-.91,9.24-1.45,18.51-2.27,27.75-1.19,13.36-2.24,26.74-3.8,40.06-1.08,9.21,4.38,16.06,13.76,16.1,15.31.06,30.62,0,45.93,0,2.61,3,1.33,6.62,1.55,10,.35,5.4,1.13,6.32,6.48,6.47q3.47.1,6.94,0c5.24-.14,6.11-1.1,6.64-6.46.33-3.36-1-7,1.54-10l23-.09c1.55-1.06,3.05-1.19,4.48.22,1.93,4.14.77,8.53,1,12.81.19,4,.07,8,0,12,0,1.83,0,3.71-1.64,5H214.27l0-1c3.06,0,6.12,0,9.17,0,1.93,0,4.08-.44,3.95-2.69-.1-1.8-2.1-2.3-3.9-2.3-5.65,0-11.31,0-17,0-17,0-33.92,0-50.87,0-1.88,0-4.05-.8-5.56,1.19-1.44.9-2.87,2-4.51.33-.9-2.27-1.16-4.47.76-6.41,3-3.34,2.59-7.73,3.29-11.69,4.31-24.35,10-48.54,10.21-73.45C160,287.72,159.84,269.43,159.83,251.14Z" transform="translate(-1.07 -2.9)" fill="#fefefe"/>
    <path d="M302.17,125q0-5,0-9.94h54c1.8,5.38-.78,13.89-5,16.47-4.75-3.48-10.22-3.27-15.7-3.06a6.8,6.8,0,0,0-2.93.44c-6.56,3.47-3.41,9.62-3.8,14.68-.29,3.76,2.23,5.58,5.91,6,4.09.42,8.31-.74,12.29,1,1.7,1.79.65,3.76.29,5.64-.58,3.08-1.87,6.05-1.41,9.29-.18.63.44,0,0,.47-4.43,4.74-5.27,10.4-4.41,16.54-2.29,3-2.7,6.63-3.8,10-.76,2.33-1.22,4.77-3.11,6.55-2.86-.84-4-3.78-6.52-5.36-3.55-2.23-7-1.34-9.75-.93-5.49.8-10,9.59-9.18,15.65.67,5,6.66,9.45,13,9.85,2.14.14,4.3,0,6.44.32,2.13,1.56,2.07,3.26.33,5.08-8.47,1.87-17,.86-25.51.6a3.68,3.68,0,0,1-3.08-2.2c.46-15,2.26-30,3.7-44.9.29-3,.24-6,.35-9,1.94-2.15,4.56-1.53,7-1.61,7.09-.23,7.42-.53,7.45-7.78,0-2,0-4,0-5.94-.06-6-.1-6.05-6-6.38-1.94-.11-4,.18-5.5-1.57a50.19,50.19,0,0,1,0-6.35A14.86,14.86,0,0,0,302.17,125Z" transform="translate(-1.07 -2.9)" fill="#f4f4f4"/>
    <path d="M238,175.84a13.23,13.23,0,0,1,5.37-.81c14.13,0,28.27,0,42.4,0,5.48,0,6.76,1.69,6.2,6.88-1.08,10-1.89,20.1-2.84,30.15-.28,3-.67,5.92-1,8.88-.25,2.3-1.72,3.07-3.79,3.07q-24.19,0-48.39,0c-3.13,0-4.17-1.78-3.39-4.61.86-3.12.48-6.27.59-9.42.92-10.22,2.11-20.41,2.71-30.65C236,177.89,236,176.26,238,175.84Z" transform="translate(-1.07 -2.9)" fill="#fefefe"/>
    <path d="M292.05,237.86c1.23-1.57,3-1.19,4.62-1.2,14.66,0,29.32.08,44-.08,4.08,0,5.7,1.36,5.62,5.5-.18,9.66-.1,19.32,0,29,0,3.24-1.15,5-4.63,5-16,0-32,0-48,0a1.6,1.6,0,0,1-1.63-.85C291.5,262.75,291.42,250.3,292.05,237.86Z" transform="translate(-1.07 -2.9)" fill="#1d353c"/>
    <path d="M390.16,241.89l-2.33,2a4.91,4.91,0,0,1-1.25.77c-14.85,3.72-18.92,8.35-21.14,24.09.73,8.36-3.58,14.76-11.42,16.64-5,1.2-10.07,2.32-15.27,1.84a12.75,12.75,0,0,0-8.92,2.32,3.63,3.63,0,0,1-2.27,0c-2.69-2.65-5.56-5.13-8.35-7.68-.46-2.67.32-4,3.37-3.9,6.32.18,12.65,0,19,.07,4.6,0,6.69-2.25,6.69-6.73,0-10,.06-20,0-30,0-5.27-1.55-6.61-7-6.63-12.65,0-25.3-.06-37.95,0-2.73,0-4.73-.28-4-3.75,1.88-1.8,4.28-1.64,6.58-1.64q32.87-.07,65.75,0a11.88,11.88,0,0,1,6.69,1.54c1.76,3.89,4.09,7,8.8,7.63A3.29,3.29,0,0,1,390.16,241.89Z" transform="translate(-1.07 -2.9)" fill="#fefefe"/>
    <path d="M270.17,356.12,189.23,356c-7.56,0-10-1.74-10.11-7.19-.12-6,3.26-8.79,10.6-8.81l81.45-.12c3.22-1.05,4.42,1.3,5.77,3.42a15.65,15.65,0,0,1,.1,8.16C275.51,354.11,273.78,356.5,270.17,356.12Z" transform="translate(-1.07 -2.9)" fill="#fefefe"/>
    <path d="M195.17,161c.35-12.88.53-13,13.24-13q33,0,66,0c3,0,5.65-.1,5.87,4.15.39,7.58-1.05,11.72-5.25,11.81-11.49.25-23,.09-34.48,0a6.66,6.66,0,0,1-2.26-1c-12.17-1.05-24.36-.3-36.54-.56C199.48,162.32,197.05,162.88,195.17,161Z" transform="translate(-1.07 -2.9)" fill="#fefefe"/>
    <path d="M276.07,352v-9c-1.07-2-1.62-4,0-6,0-10.22.15-20.43.06-30.65,0-3.07.38-5.89,2.25-8.38,1.6-2.45,4.18-2.5,6.65-2.51,15.73-.06,31.46-.2,47.18.05,12.76-.28,25.52-.1,38.28-.09,2,0,4,.09,5.53,1.71l-.05,3.13c-2,1.57-4.42,1.19-6.71,1.2-9.29.06-18.57,0-27.86,0-8,0-8.91,1.06-8.73,8.89a37.49,37.49,0,0,0,.81,6.41c-1,3-3,3.35-5.63,2.17-2-3.54-.84-7.4-1.14-11.12-.17-2.08.45-4.35-1.59-5.91-10.55-1.19-21.11-.31-31.66-.44a28.38,28.38,0,0,1-4.4.86c-6.9,0-7.3.15-7.35,8.42-.12,19.3.38,38.61-.26,57.9a9.69,9.69,0,0,1-.31,1.76c-1.06,10.39-.74,20.78-.15,31.16a4.13,4.13,0,0,0,2.68,2.61,318.86,318.86,0,0,0,35.58,0,10.08,10.08,0,0,1,4-.15c2.45.91,5.72,1,5,5.09-2.16,1.81-4.68.6-7,.83-8.89-1-17.81-.17-26.71-.47-4.12-.14-8.26.37-12.37-.29-4.59-.22-5.68-3.44-6.15-7.19q0-15,0-29.93a3.21,3.21,0,0,1,0-4.07q0-5,0-10C274.45,356,275,354,276.07,352Z" transform="translate(-1.07 -2.9)" fill="#8f9da1"/>
    <path d="M195.17,161c12.22.1,24.45.18,36.67.31,2.25,0,4.7-.52,6.42,1.64L238,175.84c-.91,9.41-1.88,18.82-2.69,28.24-.19,2.23-.44,4.29-2.13,5.92l-19.89-.09a1.13,1.13,0,0,1-.1-1.44c3.95-3.27,8.64-1.34,13-1.81,2.29-.25,4.88.32,5.39-3,2-4.42,1-9.22,1.63-13.81,1-7.09,1.39-14.24,2-21.38.23-2.87-1-4-3.66-4q-20.25-.11-40.5,0c-4.75,0-5.07,3.6-5.3,7-.67,10-1.85,19.88-2.41,30,3.58-5.59,7.4-10.85,11.18-16.13,2.37-3.3,4-3.2,5.91.28,2.25,4.06,4.74,8.05,5.81,12.67.26,3.84-3.28,6.12-3.94,9.59a5.12,5.12,0,0,1-3.88,3.33,118.45,118.45,0,0,1-12.88.32c-5.4-.18-6-.85-6.75-6.3-.16-2.58.82-5,1.29-7.43,1-10.46,2-20.93,3.09-31.38.16-1.55-.58-3.33,1-4.6Z" transform="translate(-1.07 -2.9)" fill="#02b2b9"/>
    <path d="M378.29,230.9l-79,.12c-.56-3.1.54-6,.95-9,4.43,2,9.09.75,13.64.94,5.09.22,10.2,0,15.31,0,3.56-2.33,7.78-2.38,11.57-2.09,11.14.86,22.27.36,33.41.5a5.82,5.82,0,0,1,2.9.57c.55,1.14,1.71,2.49.65,3.55C375.46,227.74,377.71,229.17,378.29,230.9Z" transform="translate(-1.07 -2.9)" fill="#ededed"/>
    <path d="M307.21,144.88c.33,0,.66.08,1,.09,12.16.22,12.26.22,12.13,12.7-.11,10.56,2.22,10.05-10.12,10.09-2,0-4,.25-5.95.39-3.93,0-7-.87-6.14-5.94.45-2.73-2.09-3.1-3.7-4-2.61-1.48-2.68-2.69.06-4,1.34-.64,3.53-1.32,3.36-2.65C296.79,143.18,302.83,145.29,307.21,144.88Z" transform="translate(-1.07 -2.9)" fill="#018c96"/>
    <path d="M249.21,372c-1,4.26-.36,8.58-.39,12.87,0,3.35-1.19,5.32-5,5.13-4.14-.2-8.3-.15-12.44,0-3.63.13-5.13-1.54-5.12-5.05,0-4.3-.14-8.61-.22-12.91.11-1.36.46-3.36,1.47-3.49,4.18-.54,7.29-2,9.3-6.05.68-1.38,2.32.6,2.82,1.65,1.17,2.45,2.57,4,5.64,3.71C248,367.61,248.86,369.74,249.21,372Z" transform="translate(-1.07 -2.9)" fill="#018b96"/>
    <path d="M213.53,208.78l-.25,1.13c-2,2.55-4.69,3.57-7.83,4.57-5.92,1.89-11.49,4.88-17.2,7.43a24.18,24.18,0,0,1-10,2.32c-4.63.57-8.1-1.06-10.16-5.35,2.59-2.77,5.23-5.51,6.82-9a2,2,0,0,1,1.14.57c1.28,1.42,2.3,3.12,4.25,3.78,4.71.19,8.83-2.15,13.29-3,1.91-.38,3.86-.6,5.79-.92a4.08,4.08,0,0,0,1.9-2.82c2-3.29,5.08-4,8.53-3.61C212.58,204.14,214.44,205.49,213.53,208.78Z" transform="translate(-1.07 -2.9)" fill="#cc7a63"/>
    <path d="M332.1,297c-15.64,0-31.27,0-46.91-.07a17.63,17.63,0,0,0-6.83,1c-2.72-.12-5.87.32-5.38-4.06.23-2.61,2.23-1.77,3.7-1.87,1.79-.12,3.59-.14,5.39-.2l12.09.14c3.71-2.54,7.9-1.08,11.87-1.46,2.25,1,3.47-2.61,5.8-1.36,4.24,2.76,9,.79,13.41,1.38,2.67.35,5.72-.67,7.63,2.26A3.94,3.94,0,0,1,332.1,297Z" transform="translate(-1.07 -2.9)" fill="#01a3ab"/>
    <path d="M168,218.87a25.69,25.69,0,0,0,10.16,5.35,113.16,113.16,0,0,1-2,18.83c.56-4-1.14-5.54-5.21-5.13a97.47,97.47,0,0,1-9.77.07c-.18-4.93.92-9.7,1.7-14.53C163.44,220.21,164.75,218.65,168,218.87Z" transform="translate(-1.07 -2.9)" fill="#f2f2f2"/>
    <path d="M307,291.94l-12.83,0c-.18-13.91-.18-13.92,13.48-13.91a48.43,48.43,0,0,0,4.94,0c3-.3,3.85,1.1,3.48,3.77C312.45,284.64,309,287.64,307,291.94Z" transform="translate(-1.07 -2.9)" fill="#fefefe"/>
    <path d="M291.13,274.95l1.42,2.85c-3.73,0-5.47-1.48-5.43-5.26.1-10.82.07-21.64,0-32.46,0-3.48,1.56-5.14,6.4-5.1-3.46,2-3.18,4.44-3.18,6.83,0,9.49,0,19,0,28.47,0,1.6-.56,3.36.79,4.76Z" transform="translate(-1.07 -2.9)" fill="#00929c"/>
    <path d="M307,291.94c.31-5.81,3.94-8.64,9.08-10.13l3.13.1c3.58,1.26,7,2.65,7.77,7.05a18.5,18.5,0,0,1-15.69.07C309.93,290.1,309.66,292.78,307,291.94Z" transform="translate(-1.07 -2.9)" fill="#038e98"/>
    <path d="M234.33,317.29H182.77l0-.6H234.3Z" transform="translate(-1.07 -2.9)" fill="#f3fafa"/>
    <path d="M207.73,309.42H239.5l0,.84H207.76Z" transform="translate(-1.07 -2.9)" fill="#f3f9fa"/>
    <path d="M247.57,303.51H216.86v-1.24c10.24-.53,20.48-.42,30.73,0Z" transform="translate(-1.07 -2.9)" fill="#f3f9fa"/>
    <path d="M241.22,324.37H210.79l0-.76h30.37Z" transform="translate(-1.07 -2.9)" fill="#f3f9fa"/>
    <path d="M211.18,331.29H181v-1h30.26Z" transform="translate(-1.07 -2.9)" fill="#f3f9fa"/>
    <path d="M183.74,302.44h28.81l0,.82H183.71Z" transform="translate(-1.07 -2.9)" fill="#f3f9fa"/>
    <path d="M181.71,323.35h24.51C203.88,325.27,188,325.84,181.71,323.35Z" transform="translate(-1.07 -2.9)" fill="#f3f9fa"/>
    <path d="M215.78,330.39H239.6v1H215.77Z" transform="translate(-1.07 -2.9)" fill="#f3fafa"/>
    <path d="M182.81,309.48h19.75v1H182.81Z" transform="translate(-1.07 -2.9)" fill="#f2f9fa"/>
    <path d="M292.05,237.86q0,18.67-.05,37.33l-.87-.24.07.08q-.11-17.28-.21-34.56A2.71,2.71,0,0,1,292.05,237.86Z" transform="translate(-1.07 -2.9)" fill="#00929c"/>
    <path d="M276.07,352q0,3,0,6c-2.25.29-5.14,2.58-5.88-1.88C272.49,355.25,274.18,353.49,276.07,352Z" transform="translate(-1.07 -2.9)" fill="#9edcdf"/>
    <path d="M276,337q0,3,0,6c-1.65-1-2.76-2.87-4.91-3.1C271.49,336.7,273.86,337,276,337Z" transform="translate(-1.07 -2.9)" fill="#9edcdf"/>
    <path d="M289.5,154.5c.38,1.15.81,2.68-1.13,2.27-2.29-.48.06-2.17-.44-3.27s-.94-2.68,1-2.27C291.26,151.68,288.82,153.45,289.5,154.5Z" transform="translate(-1.07 -2.9)" fill="#ecf7f8"/>
    <path d="M276,368q0,2,0,4.07l-3.87-.11A4.17,4.17,0,0,1,276,368Z" transform="translate(-1.07 -2.9)" fill="#9edcdf"/>
    <path d="M243.32,316.86c-2,1.41-3.33,1.43-5.16.09C239.85,315.73,241.21,315.72,243.32,316.86Z" transform="translate(-1.07 -2.9)" fill="#f1f9f9"/>
    <path d="M142.24,186.07c-6.15-2.65-7.6-9.42-8.21-15.2-.55-5.3,4.46-6.38,4.45-10.57,0-2.1,9.74-3.16,12.44-1.53,4.32,5,2.23,10.45,1.38,15.25,2.28-5.26,1.78-11.27.72-17.31,1.57-2.13,2.83-1.36,5.19-.62,4.71,1.48,5,5.75,7.08,8.76,1.45,2.12-1.72,4.13-2.45,6.34-.79.81-1.86,1.41-1.72,2.84.08.82-.12,2.3-.57,2.29-4.62,0-4.15,4.36-6.06,6.68C151.25,187,146.9,187.29,142.24,186.07Z" transform="translate(-1.07 -2.9)" fill="#1a2e35"/>
    <path d="M127.21,182.68c0,1.49-.07,3,0,4.47.24,4.42-2.34,6.4-6.25,6.77a55.74,55.74,0,0,1-9.44,0c-4.22-.32-6.7-2.46-6.5-7.06.13-3,0-6,0-8.95a6.26,6.26,0,0,1,.16-2.46c3.65-7.84,10.71-3.69,16.29-4.32,3.62-.41,5.58,2.36,5.69,6.06C127.25,179,127.2,180.86,127.21,182.68Z" transform="translate(-1.07 -2.9)" fill="#9fdcdf"/>
    <path d="M160.55,140.09c-11.36,0-11.36,0-11.39-11.48,0-10.66,0-10.73,10.7-10.65,10.57.08,12.68-2.72,12.26,12.19,0,.83,0,1.66,0,2.49,0,6.4-1.08,7.41-7.59,7.44Z" transform="translate(-1.07 -2.9)" fill="#9fdcdf"/>
    <path d="M142.24,186.07c3.49-1.8,8.31.81,11.13-3.42.68-1,2.3-1.53,1.51-3.19-.69-1.44-1.09-2.85.37-4,1.78-1.41,3,.33,4.22.88,2.6-.86-3.53-7,3.38-5.15A20,20,0,0,1,161,185.27c-1.56,2.91-3.8,4.94-7.37,5-1.23,0-2.71-.53-3.55,1l-8.14-1.47Z" transform="translate(-1.07 -2.9)" fill="#cb7963"/>
    <path d="M153,156.71c4.13,4.41,2,9.56,1.52,14.41-.27,2.7-1.52,5.3-4.42,8.26,1.45-7.58,3.26-14.08.8-20.61C150.91,157.36,151.88,156.94,153,156.71Z" transform="translate(-1.07 -2.9)" fill="#008791"/>
    <path d="M180,197.76l-.3,7.51c-.16,1,.18,2.15-.46,3.12-1.16,1-2.25,2.14-4,1.68l-.36-.23-4.65-4.77C173.84,203.11,178.26,202.23,180,197.76Z" transform="translate(-1.07 -2.9)" fill="#c7806c"/>
    <path d="M96.26,395.83l3.74-8.6c2.19-.3,2.79-2.29,3.69-3.76,9.64-15.66,19.14-31.39,27.42-47.83a83.12,83.12,0,0,0,5.46-14.4c2,1,1.29,2.39.87,3.84-5.86,20.13-5.06,40.69-3.74,61.26.12,1.81-.67,4.64,2.66,4.95,1.77,2.55,1.18,5.32.73,8.07A5.73,5.73,0,0,1,134,403c-3.91,2-8.1.6-12.14,1-4.64.45-9.36.37-13.76,2.24a12.22,12.22,0,0,1-7.08-5.33c.73-3.11.3-5.33-3.7-4.8Z" transform="translate(-1.07 -2.9)" fill="#fefefe"/>
    <path d="M366.31,399c16.68-2.37,33.29-1,49.87,1.1l.95,2.69c.69,1.31-.1,1.81-1.18,2.16a7,7,0,0,1-7.27,1.86c-6.09-1.62-12.45-.09-18.49-1.86a9.71,9.71,0,0,0-7.65-.87L379.3,406c-2.68,1.08-5.27.48-7.86-.37C370.27,403,367.48,401.65,366.31,399Z" transform="translate(-1.07 -2.9)" fill="#fefefe"/>
    <path d="M134,403c.43-1.26.38-2.87,2.23-3.11,2.85-2,6-1.27,9.11-1.09a8.18,8.18,0,0,1,5,2.13c1.5,1.93,4.12,2.32,5.71,4.12,1,1.14,4.2,0,3.35,3.13-.62,2.3-2.54,2.41-4.37,2.32a103.38,103.38,0,0,0-18.75.34c-2.69.35-3.6-.91-3-3.49C133.55,405.91,133.72,404.44,134,403Z" transform="translate(-1.07 -2.9)" fill="#1b2f36"/>
    <path d="M366.31,399c2.78,1,5.54,2,5.06,5.82,1.26,1.18,2.21,2.42.75,4.09-5.44,1-10.93-.33-16.38.34-2.24-2.15-1.06-4.39-.18-6.63a2.49,2.49,0,0,0,.61-2.88C359.41,397.73,363.1,401.7,366.31,399Z" transform="translate(-1.07 -2.9)" fill="#1c3036"/>
    <path d="M328.25,409.12c-.21-2.55-2.11-3.43-4.14-4.18.73-1.86,2.66-2.53,3.87-3.93a8.09,8.09,0,0,1,4-2.15,34.26,34.26,0,0,1,8.11,0c3.62.78,3.37,3.93,4,6.54a4.37,4.37,0,0,1-.58,3.18C338.5,410.64,333.32,408.41,328.25,409.12Z" transform="translate(-1.07 -2.9)" fill="#1c2f36"/>
    <path d="M343.52,408.53l-.14-2.11c1.71-2.33,4.43-3.33,6.74-4.76,2.08-1.28,4.5-1.07,5.8,1.67q-.08,3-.17,6C351.56,410.78,347.63,408.17,343.52,408.53Z" transform="translate(-1.07 -2.9)" fill="#068a94"/>
    <path d="M156.05,405a6.89,6.89,0,0,1-6.11-3c.16-1.57,1-1.79,2.22-1.05H179C171.39,402.65,163.41,401.85,156.05,405Z" transform="translate(-1.07 -2.9)" fill="#fefefe"/>
    <path d="M382.54,404.12c3-3.35,5.47-2.66,7.65.87-.16,2.84-1.25,5.07-4.46,4.71S381.91,407,382.54,404.12Z" transform="translate(-1.07 -2.9)" fill="#10949e"/>
    <path d="M416,405l1.18-2.16c2.1-1.1,4.15-1.39,5.7.83a3.61,3.61,0,0,1,.09,4.22,3.68,3.68,0,0,1-4.38,1.43C416.28,408.69,416.2,406.8,416,405Z" transform="translate(-1.07 -2.9)" fill="#0a8f9a"/>
    <path d="M282.15,409.18l36.4-.17c1,0,2,0,2.68.94q-17.66,0-35.32.06C284.6,410,283.22,410.27,282.15,409.18Z" transform="translate(-1.07 -2.9)" fill="#dddedf"/>
    <path d="M372.12,408.95l-.75-4.09c2.6.7,5.42-.18,7.93,1.11C379.14,412.32,374.52,408,372.12,408.95Z" transform="translate(-1.07 -2.9)" fill="#9ea5a8"/>
    <path d="M152.17,401,149.94,402c-1.39-.6-2.13-2.35-3.93-2.2a1.39,1.39,0,0,1,.17-1.9,3.51,3.51,0,0,1,3.89-.72C149.59,399.13,153,398.87,152.17,401Z" transform="translate(-1.07 -2.9)" fill="#56b6bd"/>
    <path d="M146.19,397.94l-.17,1.9-9.82,0q.09-4.3.17-8.59l10-.15Z" transform="translate(-1.07 -2.9)" fill="#c17863"/>
    <path d="M382.08,341.17l-.49-.07-.49.06c-5.4,2.68-11.15.93-16.73,1.29q-8.65.17-17.3,0c-2-.12-4.07.35-6.12.26-3.62-.3-6.89-1.31-8.46-5-1.75-4.1.41-9.33,4.83-10.36,4.92-1.14,10-2.46,15.14-1.18,2.31,1,1.38,3.8,3.12,5.48,2-1.13,1-4,2.74-5.18,2.5-1.27,5.22-.65,7.83-.92,7.91-.8,11.6-4.26,12.75-12,.34-2.3.58-4.63,2.23-6.47.65-6.19,1.1-12.41,2-18.57,1-6.93,4-9.38,10.86-9.48,6.61-.1,13.21-.07,19.82-.09-4.33,2.36-9,.78-13.48,1-7.34.33-9.55,2.38-10.22,9.77-1.56,17.09-3.31,34.15-5,51.23A2.23,2.23,0,0,1,382.08,341.17Z" transform="translate(-1.07 -2.9)" fill="#02a4ab"/>
    <path d="M382.08,341.17l3.05-.28,5.1.19c-.33,2.59,1.39,6-3.77,6.14S382.16,344.16,382.08,341.17Z" transform="translate(-1.07 -2.9)" fill="#747a7b"/>
    <path d="M329,289.21c2.06-3.13,4.92-3.86,8.56-3.41,6.7.82,13.11-1,19.53-2.62,3.06-.77,4.2-3,5.15-5.53,1.12-2.94,2.12-5.93,3.17-8.89,2.46.72,4.88,1.76,7.39,2.07,3.05.37,2.65,2.13,2.29,4.12a24.66,24.66,0,0,1-4.34,8.78c1.06,1.79,3.34.75,4.35,2.22.42,1.63,1.2,3.21.62,5-7.94,1.71-16,1.51-24,1.49-6.85-.38-13.76.82-20.57-.86C329.78,291.2,328.45,291.17,329,289.21Z" transform="translate(-1.07 -2.9)" fill="#fbc2bc"/>
    <path d="M381.13,307a95.18,95.18,0,0,1-1,9.82c-1.13,5.51-6.65,9.54-13.34,10-2.82.2-5.65.15-8.48.22-3-4.83-1.19-10.16-1.56-15.26,1.15-2.47,3.49-2.19,5.58-2.29,3.14-.15,6.29-.08,9.43,0,2.56.75,4-1.08,5.6-2.48Z" transform="translate(-1.07 -2.9)" fill="#065f65"/>
    <path d="M333.24,317.1c-1.77-2-2.69-11.74-1.3-14.43,1.69-3.27,4.83-2.39,7.54-2.4,12.16-.06,24.31,0,36.47,0l.39,2.71c-.43,2.48-2.54,2.08-4.2,2.46-10.11.09-20.22,0-30.34.08-1.88,0-4.95-.49-5,1.83-.08,3.07,3.17,1.85,5.08,2.15,3.48.54,7.34-1.18,10.42,1.78,0,.49.05,1.09-.44,1.3C345.9,315.11,340,317.81,333.24,317.1Z" transform="translate(-1.07 -2.9)" fill="#f4fafa"/>
    <path d="M332.1,297l.18-4.11c1.42-1.19,3.14-.88,4.78-.91,11.29-.2,22.58.36,33.86-.32a5.33,5.33,0,0,1,4.18,1.23l.9,4.22Z" transform="translate(-1.07 -2.9)" fill="#54c6cb"/>
    <path d="M375.1,292.91H332.28c-5.7-2.12-11.61-.46-17.41-.92-2-.16-4.15.17-3.58-3L327,289l2,.25c.86,2.38,3,1.74,4.65,1.78,6.1.12,12.21,0,18.32.05,5.88.86,11.76.56,17.65.16,2-.13,3.95-.62,5.65.85A3.2,3.2,0,0,1,375.1,292.91Z" transform="translate(-1.07 -2.9)" fill="#88d4d8"/>
    <path d="M375.14,285.94a8.54,8.54,0,0,1-1.48,0c-1.68-.27-4,1-4.91-.89-.71-1.57,1.62-2.58,2.39-4,1.17-2.13,2.64-4.1,4-6.14C375.13,278.61,376.14,282.27,375.14,285.94Z" transform="translate(-1.07 -2.9)" fill="#fefdfc"/>
    <path d="M375.29,292.05c-6.21,0-12.43,0-18.64-.1-1.59,0-3.31.43-4.65-.92,6.49-.58,13.07.76,19.53-.94a5.37,5.37,0,0,1,4.24.81C376,291.47,375.76,291.8,375.29,292.05Z" transform="translate(-1.07 -2.9)" fill="#fefaf9"/>
    <path d="M372.14,304.07c1.35-.57,3.15.63,4.2-1.09l1,4.07c-.1,2.84-1.33,4.42-4.4,4A37.75,37.75,0,0,1,372.14,304.07Z" transform="translate(-1.07 -2.9)" fill="#51c5ca"/>
    <path d="M377.05,222c-1.77,1.23-3.79,1.1-5.78,1-10.09-.45-20.18.62-30.31-.72-3.71-.49-7.82.9-11.8.73-.21-1.53.69-3.58-1.88-4-1.34-2,.17-2.88,1.59-3.16,2.31-.45,2.63-2.34,3.84-3.75,3.68-4.29,1.6-8.74,1.47-13.16,1.37-4.64,2.71-9.29,4.14-13.91.42-1.37.88-2.87,2.75-3,2.89-.44,5.28,1.59,8.18,1.49,4.72-.16,7.73-2.78,8-7.54.24-4.56-2.65-8.32-7-8.44a13.68,13.68,0,0,1-5.09-1.52c-2.35-3.49.37-6.55.85-9.8.27-1.78.76-3.52,1.15-5.28,2.43-4.83,2.94-10,2.67-15.3-.08-1.63,0-3.34,1.32-4.61,4.15-4.55,3.82-10.51,5-16h53q0,50.9,0,101.8c0,.83,0,1.66,0,2.49,0,1.23-.19,2.39-1.75,2.53-1.93.18-2.1-1.15-2.14-2.58,0-1.15.13-2.36-.89-3.24-3.17-2.73,1.46-5.87-.78-8.92-1.1,1.67-1.89,2.36-4.17.5-3.15-2.57-7.39-3.62-11-6-3.25-2.18-10.83,5.5-10.38,10.09a24.12,24.12,0,0,0,1.19,4.23C376.69,217.25,378.68,220.27,377.05,222Z" transform="translate(-1.07 -2.9)" fill="#f9f9f9"/>
    <path d="M364.22,341.16H381.1c-.56,5.63,1.43,11.39-.87,16.92-.08,9.94-.36,19.88-.13,29.8.09,3.72-1.15,5-4.65,5.13-2.43.06-4.85.53-7.28.81a1.64,1.64,0,0,1-.35-1.91c2.87-2.52-.26-4.35-.78-6.49-1.65-13.18-2.45-26.42-3.9-39.61C363,344.14,362.9,342.5,364.22,341.16Z" transform="translate(-1.07 -2.9)" fill="#fdfdfe"/>
    <path d="M341.4,341.65c1.51-1,3.15-.7,4.78-.49a6.35,6.35,0,0,1,2.05,3.88c2.08,12.79,5.55,25.27,8.55,37.85a10.43,10.43,0,0,1,.32,3c-1,2.87.56,4.72,2.58,6.4a2.52,2.52,0,0,1-.48,2.73,36.64,36.64,0,0,1-3.83.83c-1.68.19-3.42.13-3,2.64.45,2.81,2.42,1.26,3.82,1.35a10,10,0,0,1,2.15.44c0,1.57-1.61,2-2.4,3.1-3-1.41-5.82-2.31-7.72,1.65-1,2.12-3.28.73-4.83,1.44-1.76-1.85.12-5.47-3.19-6.57-1.84-2.19-1.49-4.64-.89-7.13,2.14-2.32,2.12-4.83.65-7.49-.79-13.05-.29-26.1-.28-39.15C339.66,344.45,339.87,342.76,341.4,341.65Z" transform="translate(-1.07 -2.9)" fill="#fdfdfd"/>
    <path d="M359.2,395l0-2.86c2.92-2.22,5.85-2.17,8.79-.06l.21,1.78C365.19,394.25,362.28,395.29,359.2,395Z" transform="translate(-1.07 -2.9)" fill="#deb1ac"/>
    <path d="M205.16,127.43a2.35,2.35,0,0,0-.52.23c-1.59,1.41,1.38,5.11-2.56,5.28-2.85.12-1.64-2.2-1.91-3.58-.77-3.86.82-6.58,4.58-7.21,2.2-.37,4.87.9,5.23,3.37s1.59,6.28-.9,7.12C204.41,134.2,207.83,128.55,205.16,127.43Z" transform="translate(-1.07 -2.9)" fill="#dcf1f2"/>
    <path d="M97.28,396.09c1.44-.69,2.69-3.36,4.49-.88,1.37,1.89,2.27,4.18-.79,5.68C99.47,399.5,99.6,396.86,97.28,396.09Z" transform="translate(-1.07 -2.9)" fill="#67b3b9"/>
    <path d="M334.18,198.92c1.79,1.26,4.46,2.18,1.68,5-1,1-.61,2,.29,3,1.47,1.69-.08,2.59-.66,4.12-1.6,4.24-5.34,5.44-8.2,7.88-3.9-.11-7.47.48-11.75-.79-5-1.5-3.88-6.81-7.87-7.89-.79-.22-.77-1.9-.19-2.71,1.16-1.61,1.88-2.9.21-4.75-1-1.14-.61-2.47,1.17-3s2.51-1.53,1.64-3.36a1.47,1.47,0,0,1,0-1c.46-1.55,8.52-5,10-4.17a2.47,2.47,0,0,0,3.14-.35c1.79-1.39,3.27-1.55,4,1.09.17.58.81,1.56,1,1.51C333.76,192,333.18,196.31,334.18,198.92Z" transform="translate(-1.07 -2.9)" fill="#9fdcdf"/>
    <path d="M351.13,131c0,3.83-.17,7.66,0,11.47.2,3.65-.82,6.52-4,8.45-4.32,0-8.65.07-13,0s-6.82-2.3-6.94-6.73c-.1-3.49-.07-7,0-10.48s1.77-6.26,5.47-6.56a119.67,119.67,0,0,1,13-.05C348.24,127.19,349.69,129.17,351.13,131Z" transform="translate(-1.07 -2.9)" fill="#a1dde0"/>
    <path d="M345.13,166c3.85-.87,7.43.25,10.83,1.77,2.07.92,3.29,9.19,2,11.34-4.14,6.7-8.09,8.29-16.87,2.91-1.63-4.2-1.18-8.13,0-12.54C341.9,166.57,345.8,169.17,345.13,166Z" transform="translate(-1.07 -2.9)" fill="#a1dde0"/>
    <path d="M283.76,219.16c-.22.41-.31.81-.55.95-1.2.7-1.78-.37-2.45-1-5.09-4.75-10.18-9.5-15.23-14.29q-11.54-11-23-22c-.77-.75-2.8-1.51-1.2-3.08,1.19-1.17,2.08.21,2.86,1q19,18.32,37.93,36.68C282.73,217.92,283.24,218.57,283.76,219.16Z" transform="translate(-1.07 -2.9)" fill="#a3dee1"/>
    <path d="M259.65,201.68c-6,7.47-13.73,12.89-21.59,18.15C244.17,212.48,251.8,206.94,259.65,201.68Z" transform="translate(-1.07 -2.9)" fill="#a5dee1"/>
    <path d="M264.82,197.66c6.29-7.21,14-12.69,21.83-18A84.82,84.82,0,0,1,264.82,197.66Z" transform="translate(-1.07 -2.9)" fill="#a5dee1"/>
    <path d="M316.89,269.37h-22.3l0-.87h22.37Z" transform="translate(-1.07 -2.9)" fill="#c8cccd"/>
    <path d="M331.79,255.65H310.53l0-.78h21.23Z" transform="translate(-1.07 -2.9)" fill="#c7cbcc"/>
    <path d="M333.81,264.75H313.66l0-.8h20.09Z" transform="translate(-1.07 -2.9)" fill="#c8cccd"/>
    <path d="M294.86,259.31h33.89v.58h-34Z" transform="translate(-1.07 -2.9)" fill="#fefefe"/>
    <path d="M310.81,264.65H294.52v-.87h16.23Z" transform="translate(-1.07 -2.9)" fill="#c8cccd"/>
    <path d="M320.41,268.34h15.53A25.65,25.65,0,0,1,320.41,268.34Z" transform="translate(-1.07 -2.9)" fill="#c8cccd"/>
    <path d="M307.73,255.12a28.43,28.43,0,0,1-13.19,0C298.92,253.82,303.31,254.19,307.73,255.12Z" transform="translate(-1.07 -2.9)" fill="#c7cbcc"/>
    <path d="M342.65,250.73H320.07v-.58h22.43Z" transform="translate(-1.07 -2.9)" fill="#fbfbfb"/>
    <path d="M294.73,250.11h22.57v.58h-22.5Z" transform="translate(-1.07 -2.9)" fill="#fbfbfb"/>
    <path d="M302.83,237.64a11.32,11.32,0,0,1-2.78,8C300.12,243,300.33,240.43,302.83,237.64Z" transform="translate(-1.07 -2.9)" fill="#adb4b6"/>
    <path d="M303.85,239.88c2.34.2,4,.88,4.06,2.33s-1.81,2-4.09,3.2C305.38,243.21,305.68,241.6,303.85,239.88Z" transform="translate(-1.07 -2.9)" fill="#d2d6d7"/>
    <path d="M298.05,240c-2.2,1.3.5,3.46-1.14,4.53-.3.2-2.39-1.23-2.44-2C294.33,240.57,296.19,240.33,298.05,240Z" transform="translate(-1.07 -2.9)" fill="#d3d7d8"/>
    <path d="M328.18,402c-.86,1.67-2.73,1.94-4.07,2.94l-3.89.17q-19,.9-38.1,0A2,2,0,0,1,280,403a289.7,289.7,0,0,1,.07-33h.1c9.23-10.46,6.63-23.74,8.46-35.94,1.27-8.51,1.07-17.18,2.25-25.71.37-2.71.16-5.71,2.62-7.75,11.24-.43,22.49.48,33.72-.47,1.93,4.39.29,9,.78,13.47.2,1.81.14,3.64.2,5.46-9,11.08-4.24,23.45-3.11,35.38,1,10.59,3.87,21,4.49,31.62-.08,1.76.16,3.52,0,5.27C329.49,394.93,330.32,398.66,328.18,402Z" transform="translate(-1.07 -2.9)" fill="#fefefe"/>
    <path d="M328.58,386.49c-2.38-16.28-5.3-32.47-7-48.84-.78-7.37.19-13.93,6.67-18.61l5-1.94,18.89-5.23a1.31,1.31,0,0,1,1.62.58c1.16,4.93,2,9.85-.62,14.63-4.45.28-8.9.53-13.34.84-4.09.29-6.43,2.53-6.61,6.61-.18,4.28,2.21,6.31,6.37,6.55a7.78,7.78,0,0,1,1.84.58q0,22.68-.09,45.36C337,389,332.71,389.52,328.58,386.49Z" transform="translate(-1.07 -2.9)" fill="#1a2e35"/>
    <path d="M293.2,301.08c-1.69,18.94-3.32,37.9-5.12,56.83-.5,5.28-3.51,9.19-7.89,12.08,0-21.4.07-42.8-.15-64.2,0-4.13,1.47-5.14,5.19-5a57.12,57.12,0,0,0,7.88-.63q.58.24.43.55C293.43,301,293.31,301.08,293.2,301.08Z" transform="translate(-1.07 -2.9)" fill="#9edcdf"/>
    <path d="M282.12,405.11h38.1c-1.36,1.38-3.11.85-4.7.86q-14.35.07-28.71,0C285.22,406,283.48,406.49,282.12,405.11Z" transform="translate(-1.07 -2.9)" fill="#c3c7c9"/>
    <path d="M293.2,301.08c0-.29-.06-.59-.08-.88l34.12-.09c-2.75,1.8-5.8.77-8.7.83C310.09,301.12,301.64,301.05,293.2,301.08Z" transform="translate(-1.07 -2.9)" fill="#c7cbcd"/>
    <path d="M280.09,370q0,16.5-.07,33c-1.88-6.42-.69-13-.75-19.47C279.23,379,278.1,374.38,280.09,370Z" transform="translate(-1.07 -2.9)" fill="#acb2b5"/>
    <path d="M205.32,198.6l-7.6-15.69-16.32,23.37c.79-9.76,1.44-18.19,2.16-26.61.37-4.31,1-8.59,1.26-12.9.18-2.74,1.35-3.74,4.07-3.72,14.83.08,29.66.05,44.49,0,2.12,0,3.72.48,3.5,3q-1.58,17.89-3.24,35.77a2,2,0,0,1-1.35,1.91c-4.72-5-6.57-11.68-10.15-17.36-2.81-4.46-2.52-4.63-5.66-.52-2.61,3.41-4.64,7.24-7.45,10.49C208.1,197.46,207.58,199.58,205.32,198.6Z" transform="translate(-1.07 -2.9)" fill="#c6eaec"/>
    <path d="M205.32,198.6c4.91-4.29,7.48-10.37,11.59-15.26.84-1,1.56-2.09,2.79-3.78,4.49,8.32,9.06,16,12.6,24.2,1.47,3.26.4,4.27-3.11,4.31-5.22.06-10.52-1-15.67.7-.4-4.24-3.27-4.44-6.4-3.68a43.46,43.46,0,0,0-5.89,2.32C201.18,203.83,205.07,202.06,205.32,198.6Z" transform="translate(-1.07 -2.9)" fill="#008b96"/>
    <path d="M179,207.87l.71-2.61c-.07,3.72,1.58,5.11,5.41,4.87,4.72-.3,9.48,0,14.22.1-5.72,1.86-11.42,3.75-17.15,5.57-1.07.34-2.26.57-3.14-.54C178,212.81,177.17,210.35,179,207.87Z" transform="translate(-1.07 -2.9)" fill="#9bd9dc"/>
    <path d="M309.9,153.08c-2.28-.89-6.17,1.07-6.21-1.62s3.83-1.43,5.92-1.41,5.71-1.48,5.72,1.52C315.34,154,311.6,152.1,309.9,153.08Z" transform="translate(-1.07 -2.9)" fill="#c7eaeb"/>
    <path d="M303.38,161a18.22,18.22,0,0,1,12.22-.15C311.58,162.55,307.48,162,303.38,161Z" transform="translate(-1.07 -2.9)" fill="#daf0f1"/>
    <path d="M303.43,155.3a42.33,42.33,0,0,1,12.07,0l0,1.28h-12.1Z" transform="translate(-1.07 -2.9)" fill="#d8f0f1"/>
    <path d="M235.71,371.92c2.89.14,5,1.52,5.19,3.66.28,3.4.55,6.49,3.43,8.78a1.29,1.29,0,0,1,.06,1.27,1.36,1.36,0,0,1-2.17-.1c-1.85-2.44-4.11-2.83-7.16-2.77s-5.07-2.69-4.73-5.86A5.17,5.17,0,0,1,235.71,371.92Z" transform="translate(-1.07 -2.9)" fill="#cfedee"/>
    <path d="M179,207.87q0,3.7.05,7.39c-1.61-1.48-4.07-2.35-3.81-5.2Z" transform="translate(-1.07 -2.9)" fill="#f5f3f3"/>
    <path d="M120.11,181.65c-1.09,1.71-1.61,4.87-3.94,4.84-2.69,0-3.72-3-3.89-5.49a3.38,3.38,0,0,1,3.64-3.78C118.34,177.29,119.65,179,120.11,181.65Z" transform="translate(-1.07 -2.9)" fill="#edf3f4"/>
    <path d="M160.81,135.91a25.27,25.27,0,0,1-3.37,0c-1.46-.22-3.87.92-4-1.57a3.93,3.93,0,0,1,3.87-4.31c.82-.06,1.65-.06,2.48-.07,3.33,0,7.93-.34,7.8,3.88S162.79,134.77,160.81,135.91Z" transform="translate(-1.07 -2.9)" fill="#f1f5f5"/>
    <path d="M163.17,125.76c0,1.68-.6,2.93-2.43,3.15-2,.25-2.56-1-2.63-2.69s.35-3.56,2.44-3.56C162.17,122.67,163,124.11,163.17,125.76Z" transform="translate(-1.07 -2.9)" fill="#f2f4f4"/>
    <path d="M340,392.08l.16,7.77-8.87,0c-2.35-3-1.54-5.76.81-8.35C334.84,390.39,337.53,389.92,340,392.08Z" transform="translate(-1.07 -2.9)" fill="#f2beb9"/>
    <path d="M332.24,392.1a16.21,16.21,0,0,0-.93,7.76L328.18,402l.12-11.13A3.35,3.35,0,0,1,332.24,392.1Z" transform="translate(-1.07 -2.9)" fill="#90989c"/>
    <path d="M356.23,387c-3.62-15.23-7.73-30.36-10.05-45.88h18L368.31,387A11.67,11.67,0,0,1,356.23,387Z" transform="translate(-1.07 -2.9)" fill="#122329"/>
    <path d="M353.13,327.07l-.2-15a2.84,2.84,0,0,1,4.21-.19c2.39,4.91.37,10.14,1.12,15.17-.88,2.24,1.23,6.52-2.62,6.49S353.88,329.36,353.13,327.07Z" transform="translate(-1.07 -2.9)" fill="#475a5f"/>
    <path d="M357.14,311.93l-4.21.19a2.68,2.68,0,0,1-.8-.25c-4.41-1-8.89-.32-13.34-.45-2.85-.09-5-.74-4.9-4.1.12-3.19,2.39-3.49,4.93-3.47,11.11.1,22.22.15,33.32.22,2.31,2.09,2.07,4.47.78,7C367.67,311.6,362.3,310,357.14,311.93Z" transform="translate(-1.07 -2.9)" fill="#00aeb5"/>
    <path d="M356.23,387l12.08,0c1.59.37,2.52,1.19,2.39,3s-1.54,1.74-2.73,2l-8.8.06C356.19,391.58,354.3,390.42,356.23,387Z" transform="translate(-1.07 -2.9)" fill="#058993"/>
    <path d="M332.24,392.1c-1.41-.11-2.83-.17-3.94-1.23-.14-1.48-.69-3,.28-4.39,4.2,1.29,8.48.52,12.73.52,3.24,2.62,2.13,4.13-1.28,5.06Z" transform="translate(-1.07 -2.9)" fill="#048892"/>
    <path d="M322.09,210c-3.14-.11-5-1.59-4.88-4.86.11-2.86,2-4.88,4.57-4.9s5.28,1.61,5.21,4.82C326.94,208,325.5,210.14,322.09,210Z" transform="translate(-1.07 -2.9)" fill="#f2f3f4"/>
    <path d="M347.19,138.8a7.74,7.74,0,0,1-7.92,8.21,7.83,7.83,0,0,1-8.11-8.15c.05-4.69,3.44-7.89,8.35-7.89C344,131,347.14,134.13,347.19,138.8Z" transform="translate(-1.07 -2.9)" fill="#f2f4f4"/>
    <path d="M348.88,181c-3.61-.23-5.59-2.55-5.43-5.78s2.22-5.46,5.94-5.3,5.58,2.59,5.45,5.76S352.61,181.18,348.88,181Z" transform="translate(-1.07 -2.9)" fill="#f5f7f7"/>
    <path d="M209.66,180c-2.46-.42-4.2-1.71-4.13-4.2.09-3.07,2-4.84,5.11-4.81,2.68,0,3.8,1.67,3.73,4.2C214.28,178.2,212.2,179.34,209.66,180Z" transform="translate(-1.07 -2.9)" fill="#08bac1"/>
    <path d="M235.76,373.88c2.18,0,3.44,1.07,3.54,3.25s-.76,3.9-3.38,3.81c-2.37-.09-3.68-1.38-3.67-3.74S233.67,374,235.76,373.88Z" transform="translate(-1.07 -2.9)" fill="#028e99"/>
    <path d="M117.84,181a1.9,1.9,0,0,1-1.81,1.85,1.35,1.35,0,0,1-1.7-1.26,1.83,1.83,0,0,1,1.94-2.22C117.13,179.36,117.67,180,117.84,181Z" transform="translate(-1.07 -2.9)" fill="#a8dfe2"/>
    <path d="M337.28,142.28v-6.67c2.54.39,5.14,1.48,5.15,3.59C342.43,140.69,339.8,142.23,337.28,142.28Z" transform="translate(-1.07 -2.9)" fill="#a1dde0"/>
  </g>
</svg>
