<svg xmlns="http://www.w3.org/2000/svg" xmlns:xlink="http://www.w3.org/1999/xlink" width="167" height="167" viewBox="0 0 167 167">
  <defs>
    <filter id="Ellipse_74" x="0" y="0" width="167" height="167" filterUnits="userSpaceOnUse">
      <feOffset dy="3" input="SourceAlpha"/>
      <feGaussianBlur stdDeviation="5" result="blur"/>
      <feFlood flood-opacity="0.078"/>
      <feComposite operator="in" in2="blur"/>
      <feComposite in="SourceGraphic"/>
    </filter>
  </defs>
  <g id="_02" data-name="02" transform="translate(58.1 49.98)">
    <g transform="matrix(1, 0, 0, 1, -58.1, -49.98)" filter="url(#Ellipse_74)">
      <circle id="Ellipse_74-2" data-name="Ellipse 74" cx="68.5" cy="68.5" r="68.5" transform="translate(15 12)" fill="#fff"/>
    </g>
    <g id="Group_3639" data-name="Group 3639" transform="translate(-7.1 0.019)">
      <path id="Path_1824" data-name="Path 1824" d="M63.22,24.362a3.9,3.9,0,0,0,2.18-1.9V19.338c-.095-.19-.19-.284-.284-.474A3.752,3.752,0,0,0,61.7,17.253a3.551,3.551,0,0,0-3.318,3.128,3.673,3.673,0,0,0,2.465,3.886.738.738,0,0,1,.569.853V32.8H50.044V11.755H36.394V4.361H49c.853,2.18,2.37,3.128,4.455,2.844A3.633,3.633,0,0,0,53.741.1,5.622,5.622,0,0,0,51.182.38a3.783,3.783,0,0,0-2.275,2.654H34.783v8.91H30.707V2.94H16.583C15.825.759,14.213-.283,12.223.1A3.829,3.829,0,0,0,9.095,3.6a3.59,3.59,0,0,0,2.844,3.7,3.912,3.912,0,0,0,4.645-2.844H29.19v7.488H15.54V32.988H4.355V25.31a.738.738,0,0,1,.569-.853,3.964,3.964,0,0,0,2.18-4.55,3.867,3.867,0,0,0-4.266-2.654A3.71,3.71,0,0,0-.005,19.528v2.654a4.348,4.348,0,0,0,2.559,2.275c.095,0,.19.379.19.569V34.41h12.7v3.981H2.554v9.384c0,.379-.095.569-.474.664A3.49,3.49,0,0,0-.1,50.43v3.128a3.94,3.94,0,0,0,2.749,1.991A3.638,3.638,0,0,0,6.82,52.989a3.439,3.439,0,0,0-2.085-4.455.826.826,0,0,1-.664-.948V39.908h11.28V61.615H49.665V39.908h11.28v7.868a.584.584,0,0,1-.379.664,3.677,3.677,0,0,0-2.559,4.076,3.728,3.728,0,0,0,3.318,3.128,3.579,3.579,0,0,0,3.886-2.749c0-.095.095-.095.095-.19V50.714a3.835,3.835,0,0,0-2.465-2.37.676.676,0,0,1-.284-.569V38.486h-12.7V34.5h12.7V25.215C62.651,24.741,62.746,24.457,63.22,24.362ZM52.509,1.423A2.226,2.226,0,0,1,54.784,3.6a2.226,2.226,0,0,1-2.275,2.18A2.044,2.044,0,0,1,50.423,3.7,2.145,2.145,0,0,1,52.509,1.423ZM12.886,5.878a2.271,2.271,0,0,1-2.18-2.18,2.226,2.226,0,0,1,2.275-2.18A2.1,2.1,0,0,1,15.067,3.6,2.169,2.169,0,0,1,12.886,5.878ZM1.322,20.855a2.271,2.271,0,0,1,2.18-2.18,2.182,2.182,0,1,1,0,4.36A2.145,2.145,0,0,1,1.322,20.855ZM5.777,51.946A2.27,2.27,0,0,1,3.5,54.032a2.18,2.18,0,0,1,0-4.36A2.307,2.307,0,0,1,5.777,51.946ZM48.243,60H17.057V55.928H48.243Zm.095-5.5H16.962V19.812H48.338Zm0-36.21H17.057V13.461H48.338ZM64.073,52.041a2.181,2.181,0,0,1-4.36-.095,2.271,2.271,0,0,1,2.18-2.18A2.169,2.169,0,0,1,64.073,52.041ZM61.7,23.035a2.126,2.126,0,0,1-2.085-2.18,2.226,2.226,0,0,1,2.275-2.18,2.184,2.184,0,1,1-.19,4.36ZM21.133,40.951a2.713,2.713,0,0,0,1.9,3.412,10.648,10.648,0,0,0,3.033.284,15.739,15.739,0,0,0,2.085-.284c.19.474.284.853.474,1.232a7.821,7.821,0,0,0,1.9,3.033,2.815,2.815,0,0,0,4.171,0,10.442,10.442,0,0,0,1.611-2.37,7.211,7.211,0,0,0,.758-1.991,10.551,10.551,0,0,0,4.55.19,2.8,2.8,0,0,0,2.37-3.792,12.742,12.742,0,0,0-1.137-2.275c-.379-.664-.948-1.137-1.422-1.8.19-.19.379-.474.569-.664a8.407,8.407,0,0,0,1.991-3.318,2.724,2.724,0,0,0-1.991-3.6,7.606,7.606,0,0,0-2.559-.19,24.62,24.62,0,0,0-2.465.284,2.478,2.478,0,0,0-.284-.758,21.5,21.5,0,0,0-1.8-3.223,2.923,2.923,0,0,0-4.834,0,14.758,14.758,0,0,0-1.517,2.654,7.2,7.2,0,0,0-.379,1.043c-1.517,0-2.939-.19-4.266-.095A2.829,2.829,0,0,0,21.323,32.8a6.555,6.555,0,0,0,.948,1.8c.474.664.948,1.232,1.517,1.9-.284.284-.474.569-.758.853A10.18,10.18,0,0,0,21.133,40.951Zm21.612.474c.19.758-.19,1.232-1.043,1.517a8.012,8.012,0,0,1-4.171-.284c.19-.948.284-1.8.474-2.749a.492.492,0,0,1,.19-.379c.758-.569,1.517-1.232,2.37-1.8A8.178,8.178,0,0,1,42.745,41.425Zm-4.645-3.7V35.737a6.085,6.085,0,0,1,1.232.948C38.859,37.064,38.575,37.349,38.1,37.728Zm3.128-7.3c1.327.095,1.706.853,1.232,2.18a7.241,7.241,0,0,1-2.18,2.939c-.758-.569-1.611-1.137-2.37-1.8-.095-.095-.19-.19-.19-.284-.19-.948-.284-1.9-.474-3.033C38.669,30.524,40,30.334,41.229,30.429ZM29.1,40.951a16.471,16.471,0,0,1,1.8.948c-.569.19-1.043.379-1.517.569C29.285,41.9,29.19,41.519,29.1,40.951ZM33.93,47.3a1.417,1.417,0,0,1-2.37,0,8.907,8.907,0,0,1-1.706-3.412c.948-.379,1.9-.664,2.749-1.043h.284c.948.379,1.8.664,2.749,1.043A8.907,8.907,0,0,1,33.93,47.3Zm2.085-4.929c-.569-.19-.948-.379-1.517-.569.569-.284,1.137-.569,1.8-.948C36.2,41.33,36.11,41.8,36.015,42.372Zm.284-9.763a15.337,15.337,0,0,1-1.706-.948c.569-.19.948-.379,1.422-.569C36.11,31.661,36.2,32.04,36.3,32.609Zm-4.929-6.256a1.517,1.517,0,0,1,2.654,0,8.177,8.177,0,0,1,1.517,3.318c-.948.379-1.8.664-2.654,1.043h-.379c-.853-.284-1.706-.664-2.654-1.043A7.639,7.639,0,0,1,31.371,26.353Zm-1.991,4.74c.474.19.948.379,1.517.569a16.472,16.472,0,0,1-1.8.948C29.19,32.04,29.285,31.661,29.38,31.092Zm-.569,5.782c.095-2.749-.284-2.085,1.991-3.318,2.275-1.327,1.611-1.327,3.981.095h.095c1.517.569,2.275,1.611,1.8,2.939,0,2.465,0,2.465-1.8,3.507-2.465,1.422-1.706,1.422-4.171,0C28.716,39.055,28.716,38.96,28.811,36.875Zm-6.067-4.455c-.379-1.137.095-1.706,1.232-1.991a8.147,8.147,0,0,1,3.981.284c-.19.948-.284,1.9-.474,2.749a.492.492,0,0,1-.19.379c-.758.569-1.517,1.232-2.37,1.8A8.122,8.122,0,0,1,22.745,32.419Zm4.55,3.318v1.991a11.5,11.5,0,0,0-1.327-.948C26.441,36.4,26.821,36.116,27.295,35.737ZM25.02,37.823l.379.379a8.044,8.044,0,0,1,2.085,1.9,6.643,6.643,0,0,1,.474,2.844,10.258,10.258,0,0,1-4.171.284c-1.043-.284-1.422-.853-1.043-1.9A9,9,0,0,1,25.02,37.823Zm8.436-22.75H26.062v1.422h7.394Zm3.033,0H35.067v1.422h1.422Zm2.085.095c0-.095-.284-.095-.474-.095v1.517c.19-.095.474-.095.474-.19Zm-9.005,43.7h6.256c.474,0,.853-.19.853-.758,0-.474-.379-.758-.948-.758H29.475c-.569,0-.853.284-.853.758A.861.861,0,0,0,29.569,58.866Z" transform="translate(0.1 -0.019)" fill="#16becf"/>
      <path id="Path_1825" data-name="Path 1825" d="M63.22,24.362a3.9,3.9,0,0,0,2.18-1.9V19.338c-.095-.19-.19-.284-.284-.474A3.752,3.752,0,0,0,61.7,17.253a3.551,3.551,0,0,0-3.318,3.128,3.673,3.673,0,0,0,2.465,3.886.738.738,0,0,1,.569.853V32.8H50.044V11.755H36.394V4.361H49c.853,2.18,2.37,3.128,4.455,2.844A3.633,3.633,0,0,0,53.741.1,5.622,5.622,0,0,0,51.182.38a3.783,3.783,0,0,0-2.275,2.654H34.783v8.91H30.707V2.94H16.583C15.825.759,14.213-.283,12.223.1A3.829,3.829,0,0,0,9.095,3.6a3.59,3.59,0,0,0,2.844,3.7,3.912,3.912,0,0,0,4.645-2.844H29.19v7.488H15.54V32.988H4.355V25.31a.738.738,0,0,1,.569-.853,3.964,3.964,0,0,0,2.18-4.55,3.867,3.867,0,0,0-4.266-2.654A3.71,3.71,0,0,0-.005,19.528v2.654a4.348,4.348,0,0,0,2.559,2.275c.095,0,.19.379.19.569V34.41h12.7v3.981H2.554v9.384c0,.379-.095.569-.474.664A3.49,3.49,0,0,0-.1,50.43v3.128a3.94,3.94,0,0,0,2.749,1.991A3.638,3.638,0,0,0,6.82,52.989a3.439,3.439,0,0,0-2.085-4.455.826.826,0,0,1-.664-.948V39.908h11.28V61.615H49.665V39.908h11.28v7.868a.584.584,0,0,1-.379.664,3.677,3.677,0,0,0-2.559,4.076,3.728,3.728,0,0,0,3.318,3.128,3.579,3.579,0,0,0,3.886-2.749c0-.095.095-.095.095-.19V50.714a3.835,3.835,0,0,0-2.465-2.37.676.676,0,0,1-.284-.569V38.486h-12.7V34.5h12.7V25.215C62.651,24.741,62.746,24.457,63.22,24.362ZM52.509,1.423A2.226,2.226,0,0,1,54.784,3.6a2.226,2.226,0,0,1-2.275,2.18A2.044,2.044,0,0,1,50.423,3.7,2.145,2.145,0,0,1,52.509,1.423ZM12.886,5.878a2.271,2.271,0,0,1-2.18-2.18,2.226,2.226,0,0,1,2.275-2.18A2.1,2.1,0,0,1,15.067,3.6,2.169,2.169,0,0,1,12.886,5.878ZM1.322,20.855a2.271,2.271,0,0,1,2.18-2.18,2.182,2.182,0,1,1,0,4.36A2.145,2.145,0,0,1,1.322,20.855ZM5.777,51.946A2.27,2.27,0,0,1,3.5,54.032a2.18,2.18,0,0,1,0-4.36A2.307,2.307,0,0,1,5.777,51.946ZM48.243,60H17.057V55.928H48.243Zm.095-5.5H16.962V19.812H48.338Zm0-36.21H17.057V13.461H48.338ZM64.073,52.041a2.181,2.181,0,0,1-4.36-.095,2.271,2.271,0,0,1,2.18-2.18A2.169,2.169,0,0,1,64.073,52.041ZM61.7,23.035a2.126,2.126,0,0,1-2.085-2.18,2.226,2.226,0,0,1,2.275-2.18,2.184,2.184,0,1,1-.19,4.36ZM21.133,40.951a2.713,2.713,0,0,0,1.9,3.412,10.648,10.648,0,0,0,3.033.284,15.739,15.739,0,0,0,2.085-.284c.19.474.284.853.474,1.232a7.821,7.821,0,0,0,1.9,3.033,2.815,2.815,0,0,0,4.171,0,10.442,10.442,0,0,0,1.611-2.37,7.211,7.211,0,0,0,.758-1.991,10.551,10.551,0,0,0,4.55.19,2.8,2.8,0,0,0,2.37-3.792,12.742,12.742,0,0,0-1.137-2.275c-.379-.664-.948-1.137-1.422-1.8.19-.19.379-.474.569-.664a8.407,8.407,0,0,0,1.991-3.318,2.724,2.724,0,0,0-1.991-3.6,7.606,7.606,0,0,0-2.559-.19,24.62,24.62,0,0,0-2.465.284,2.478,2.478,0,0,0-.284-.758,21.5,21.5,0,0,0-1.8-3.223,2.923,2.923,0,0,0-4.834,0,14.758,14.758,0,0,0-1.517,2.654,7.2,7.2,0,0,0-.379,1.043c-1.517,0-2.939-.19-4.266-.095A2.829,2.829,0,0,0,21.323,32.8a6.555,6.555,0,0,0,.948,1.8c.474.664.948,1.232,1.517,1.9-.284.284-.474.569-.758.853A10.18,10.18,0,0,0,21.133,40.951Zm21.612.474c.19.758-.19,1.232-1.043,1.517a8.012,8.012,0,0,1-4.171-.284c.19-.948.284-1.8.474-2.749a.492.492,0,0,1,.19-.379c.758-.569,1.517-1.232,2.37-1.8A8.178,8.178,0,0,1,42.745,41.425Zm-4.645-3.7V35.737a6.085,6.085,0,0,1,1.232.948C38.859,37.064,38.575,37.349,38.1,37.728Zm3.128-7.3c1.327.095,1.706.853,1.232,2.18a7.241,7.241,0,0,1-2.18,2.939c-.758-.569-1.611-1.137-2.37-1.8-.095-.095-.19-.19-.19-.284-.19-.948-.284-1.9-.474-3.033C38.669,30.524,40,30.334,41.229,30.429ZM29.1,40.951a16.471,16.471,0,0,1,1.8.948c-.569.19-1.043.379-1.517.569C29.285,41.9,29.19,41.519,29.1,40.951ZM33.93,47.3a1.417,1.417,0,0,1-2.37,0,8.907,8.907,0,0,1-1.706-3.412c.948-.379,1.9-.664,2.749-1.043h.284c.948.379,1.8.664,2.749,1.043A8.907,8.907,0,0,1,33.93,47.3Zm2.085-4.929c-.569-.19-.948-.379-1.517-.569.569-.284,1.137-.569,1.8-.948C36.2,41.33,36.11,41.8,36.015,42.372Zm.284-9.763a15.337,15.337,0,0,1-1.706-.948c.569-.19.948-.379,1.422-.569C36.11,31.661,36.2,32.04,36.3,32.609Zm-4.929-6.256a1.517,1.517,0,0,1,2.654,0,8.177,8.177,0,0,1,1.517,3.318c-.948.379-1.8.664-2.654,1.043h-.379c-.853-.284-1.706-.664-2.654-1.043A7.639,7.639,0,0,1,31.371,26.353Zm-1.991,4.74c.474.19.948.379,1.517.569a16.472,16.472,0,0,1-1.8.948C29.19,32.04,29.285,31.661,29.38,31.092Zm-.569,5.782c.095-2.749-.284-2.085,1.991-3.318,2.275-1.327,1.611-1.327,3.981.095h.095c1.517.569,2.275,1.611,1.8,2.939,0,2.465,0,2.465-1.8,3.507-2.465,1.422-1.706,1.422-4.171,0C28.716,39.055,28.716,38.96,28.811,36.875Zm-6.067-4.455c-.379-1.137.095-1.706,1.232-1.991a8.147,8.147,0,0,1,3.981.284c-.19.948-.284,1.9-.474,2.749a.492.492,0,0,1-.19.379c-.758.569-1.517,1.232-2.37,1.8A8.122,8.122,0,0,1,22.745,32.419Zm4.55,3.318v1.991a11.5,11.5,0,0,0-1.327-.948C26.441,36.4,26.821,36.116,27.295,35.737ZM25.02,37.823l.379.379a8.044,8.044,0,0,1,2.085,1.9,6.643,6.643,0,0,1,.474,2.844,10.258,10.258,0,0,1-4.171.284c-1.043-.284-1.422-.853-1.043-1.9A9,9,0,0,1,25.02,37.823Zm8.436-22.75H26.062v1.422h7.394Zm3.033,0H35.067v1.422h1.422Zm2.085.095c0-.095-.284-.095-.474-.095v1.517c.19-.095.474-.095.474-.19Zm-9.005,43.7h6.256c.474,0,.853-.19.853-.758,0-.474-.379-.758-.948-.758H29.475c-.569,0-.853.284-.853.758A.861.861,0,0,0,29.569,58.866Z" transform="translate(0.1 -0.019)" fill="#16becf"/>
      <path id="Path_1826" data-name="Path 1826" d="M63.22,24.362a3.9,3.9,0,0,0,2.18-1.9V19.338c-.095-.19-.19-.284-.284-.474A3.752,3.752,0,0,0,61.7,17.253a3.551,3.551,0,0,0-3.318,3.128,3.673,3.673,0,0,0,2.465,3.886.738.738,0,0,1,.569.853V32.8H50.044V11.755H36.394V4.361H49c.853,2.18,2.37,3.128,4.455,2.844A3.633,3.633,0,0,0,53.741.1,5.622,5.622,0,0,0,51.182.38a3.783,3.783,0,0,0-2.275,2.654H34.783v8.91H30.707V2.94H16.583C15.825.759,14.213-.283,12.223.1A3.829,3.829,0,0,0,9.095,3.6a3.59,3.59,0,0,0,2.844,3.7,3.912,3.912,0,0,0,4.645-2.844H29.19v7.488H15.54V32.988H4.355V25.31a.738.738,0,0,1,.569-.853,3.964,3.964,0,0,0,2.18-4.55,3.867,3.867,0,0,0-4.266-2.654A3.71,3.71,0,0,0-.005,19.528v2.654a4.348,4.348,0,0,0,2.559,2.275c.095,0,.19.379.19.569V34.41h12.7v3.981H2.554v9.384c0,.379-.095.569-.474.664A3.49,3.49,0,0,0-.1,50.43v3.128a3.94,3.94,0,0,0,2.749,1.991A3.638,3.638,0,0,0,6.82,52.989a3.439,3.439,0,0,0-2.085-4.455.826.826,0,0,1-.664-.948V39.908h11.28V61.615H49.665V39.908h11.28v7.868a.584.584,0,0,1-.379.664,3.677,3.677,0,0,0-2.559,4.076,3.728,3.728,0,0,0,3.318,3.128,3.579,3.579,0,0,0,3.886-2.749c0-.095.095-.095.095-.19V50.714a3.835,3.835,0,0,0-2.465-2.37.676.676,0,0,1-.284-.569V38.486h-12.7V34.5h12.7V25.215C62.651,24.741,62.746,24.457,63.22,24.362ZM52.509,1.423A2.226,2.226,0,0,1,54.784,3.6a2.226,2.226,0,0,1-2.275,2.18A2.044,2.044,0,0,1,50.423,3.7,2.145,2.145,0,0,1,52.509,1.423ZM12.886,5.878a2.271,2.271,0,0,1-2.18-2.18,2.226,2.226,0,0,1,2.275-2.18A2.1,2.1,0,0,1,15.067,3.6,2.169,2.169,0,0,1,12.886,5.878ZM1.322,20.855a2.271,2.271,0,0,1,2.18-2.18,2.182,2.182,0,1,1,0,4.36A2.145,2.145,0,0,1,1.322,20.855ZM5.777,51.946A2.27,2.27,0,0,1,3.5,54.032a2.18,2.18,0,0,1,0-4.36A2.307,2.307,0,0,1,5.777,51.946ZM48.243,60H17.057V55.928H48.243Zm.095-5.5H16.962V19.812H48.338Zm0-36.21H17.057V13.461H48.338ZM64.073,52.041a2.181,2.181,0,0,1-4.36-.095,2.271,2.271,0,0,1,2.18-2.18A2.169,2.169,0,0,1,64.073,52.041ZM61.7,23.035a2.126,2.126,0,0,1-2.085-2.18,2.226,2.226,0,0,1,2.275-2.18,2.184,2.184,0,1,1-.19,4.36ZM21.133,40.951a2.713,2.713,0,0,0,1.9,3.412,10.648,10.648,0,0,0,3.033.284,15.739,15.739,0,0,0,2.085-.284c.19.474.284.853.474,1.232a7.821,7.821,0,0,0,1.9,3.033,2.815,2.815,0,0,0,4.171,0,10.442,10.442,0,0,0,1.611-2.37,7.211,7.211,0,0,0,.758-1.991,10.551,10.551,0,0,0,4.55.19,2.8,2.8,0,0,0,2.37-3.792,12.742,12.742,0,0,0-1.137-2.275c-.379-.664-.948-1.137-1.422-1.8.19-.19.379-.474.569-.664a8.407,8.407,0,0,0,1.991-3.318,2.724,2.724,0,0,0-1.991-3.6,7.606,7.606,0,0,0-2.559-.19,24.62,24.62,0,0,0-2.465.284,2.478,2.478,0,0,0-.284-.758,21.5,21.5,0,0,0-1.8-3.223,2.923,2.923,0,0,0-4.834,0,14.758,14.758,0,0,0-1.517,2.654,7.2,7.2,0,0,0-.379,1.043c-1.517,0-2.939-.19-4.266-.095A2.829,2.829,0,0,0,21.323,32.8a6.555,6.555,0,0,0,.948,1.8c.474.664.948,1.232,1.517,1.9-.284.284-.474.569-.758.853A10.18,10.18,0,0,0,21.133,40.951Zm21.612.474c.19.758-.19,1.232-1.043,1.517a8.012,8.012,0,0,1-4.171-.284c.19-.948.284-1.8.474-2.749a.492.492,0,0,1,.19-.379c.758-.569,1.517-1.232,2.37-1.8A8.178,8.178,0,0,1,42.745,41.425Zm-4.645-3.7V35.737a6.085,6.085,0,0,1,1.232.948C38.859,37.064,38.575,37.349,38.1,37.728Zm3.128-7.3c1.327.095,1.706.853,1.232,2.18a7.241,7.241,0,0,1-2.18,2.939c-.758-.569-1.611-1.137-2.37-1.8-.095-.095-.19-.19-.19-.284-.19-.948-.284-1.9-.474-3.033C38.669,30.524,40,30.334,41.229,30.429ZM29.1,40.951a16.471,16.471,0,0,1,1.8.948c-.569.19-1.043.379-1.517.569C29.285,41.9,29.19,41.519,29.1,40.951ZM33.93,47.3a1.417,1.417,0,0,1-2.37,0,8.907,8.907,0,0,1-1.706-3.412c.948-.379,1.9-.664,2.749-1.043h.284c.948.379,1.8.664,2.749,1.043A8.907,8.907,0,0,1,33.93,47.3Zm2.085-4.929c-.569-.19-.948-.379-1.517-.569.569-.284,1.137-.569,1.8-.948C36.2,41.33,36.11,41.8,36.015,42.372Zm.284-9.763a15.337,15.337,0,0,1-1.706-.948c.569-.19.948-.379,1.422-.569C36.11,31.661,36.2,32.04,36.3,32.609Zm-4.929-6.256a1.517,1.517,0,0,1,2.654,0,8.177,8.177,0,0,1,1.517,3.318c-.948.379-1.8.664-2.654,1.043h-.379c-.853-.284-1.706-.664-2.654-1.043A7.639,7.639,0,0,1,31.371,26.353Zm-1.991,4.74c.474.19.948.379,1.517.569a16.472,16.472,0,0,1-1.8.948C29.19,32.04,29.285,31.661,29.38,31.092Zm-.569,5.782c.095-2.749-.284-2.085,1.991-3.318,2.275-1.327,1.611-1.327,3.981.095h.095c1.517.569,2.275,1.611,1.8,2.939,0,2.465,0,2.465-1.8,3.507-2.465,1.422-1.706,1.422-4.171,0C28.716,39.055,28.716,38.96,28.811,36.875Zm-6.067-4.455c-.379-1.137.095-1.706,1.232-1.991a8.147,8.147,0,0,1,3.981.284c-.19.948-.284,1.9-.474,2.749a.492.492,0,0,1-.19.379c-.758.569-1.517,1.232-2.37,1.8A8.122,8.122,0,0,1,22.745,32.419Zm4.55,3.318v1.991a11.5,11.5,0,0,0-1.327-.948C26.441,36.4,26.821,36.116,27.295,35.737ZM25.02,37.823l.379.379a8.044,8.044,0,0,1,2.085,1.9,6.643,6.643,0,0,1,.474,2.844,10.258,10.258,0,0,1-4.171.284c-1.043-.284-1.422-.853-1.043-1.9A9,9,0,0,1,25.02,37.823Zm8.436-22.75H26.062v1.422h7.394Zm3.033,0H35.067v1.422h1.422Zm2.085.095c0-.095-.284-.095-.474-.095v1.517c.19-.095.474-.095.474-.19Zm-9.005,43.7h6.256c.474,0,.853-.19.853-.758,0-.474-.379-.758-.948-.758H29.475c-.569,0-.853.284-.853.758A.861.861,0,0,0,29.569,58.866Z" transform="translate(0.1 -0.019)" fill="#16becf"/>
    </g>
  </g>
</svg>
