<svg xmlns="http://www.w3.org/2000/svg" width="59.249" height="59.177" viewBox="0 0 59.249 59.177">
  <g id="coins" transform="translate(-0.012 511.566)">
    <path id="Path_21559" data-name="Path 21559" d="M205.645-511.547a41.011,41.011,0,0,0-9.928,1.712,6.334,6.334,0,0,0-3.541,2.534,3.171,3.171,0,0,0,0,2.476c1,2.048,5.033,3.46,11.733,4.108,2.175.208,11,.208,13.075,0,6.838-.683,10.738-2.048,11.733-4.108a3.171,3.171,0,0,0,0-2.476c-.8-1.666-3.656-2.939-8.2-3.668a50.893,50.893,0,0,0-9.314-.59C208.526-511.57,206.027-511.57,205.645-511.547Z" transform="translate(-169.707 0)" fill="#757ae9"/>
    <path id="Path_21560" data-name="Path 21560" d="M192.012-426.415l-.012,2.87.266.046a9.128,9.128,0,0,0,.949.127,24.491,24.491,0,0,1,12.034,5.184,27.613,27.613,0,0,1,4.223,4.466l.868,1.192,2.777-.058c7.752-.174,13.353-1.5,15.2-3.61.729-.833.706-.636.694-7.139-.012-3.471-.058-5.739-.1-5.45a2.735,2.735,0,0,1-1.018,1.678c-2.291,2.152-8.5,3.344-17.379,3.344-9.951,0-16.419-1.481-18.05-4.131a2.674,2.674,0,0,1-.336-.879C192.058-429.111,192.023-428.324,192.012-426.415Z" transform="translate(-169.773 -73.145)" fill="#757ae9"/>
    <path id="Path_21561" data-name="Path 21561" d="M17.888-351.83a20.525,20.525,0,0,0-17.7,17.206A26.915,26.915,0,0,0,.2-328.446a20.81,20.81,0,0,0,3.841,9.164A26.507,26.507,0,0,0,8.11-315.22a20.161,20.161,0,0,0,9.025,3.818,16.293,16.293,0,0,0,3.818.185,17.953,17.953,0,0,0,7.66-1.643A20.557,20.557,0,0,0,40.4-327.52a26.623,26.623,0,0,0,.174-7,20.623,20.623,0,0,0-3.865-9.291,27.5,27.5,0,0,0-4.108-4.1,20.838,20.838,0,0,0-9.152-3.83A35.995,35.995,0,0,0,17.888-351.83Zm4.05,3.784a16.821,16.821,0,0,1,10.356,5,16.143,16.143,0,0,1,4.628,11.5,15.169,15.169,0,0,1-1.666,7.232,16.482,16.482,0,0,1-8.516,8.076,16.5,16.5,0,0,1-13.306-.278,15.1,15.1,0,0,1-3.3-2.025A16.662,16.662,0,0,1,4-328.943a20.22,20.22,0,0,1-.174-2.6A15.169,15.169,0,0,1,5.5-338.778,16.576,16.576,0,0,1,16.615-347.7a18.159,18.159,0,0,1,3.992-.44C20.769-348.116,21.37-348.081,21.937-348.046Z" transform="translate(0 -141.192)" fill="#45c0a4"/>
    <path id="Path_21562" data-name="Path 21562" d="M74.276-287.736a12.931,12.931,0,0,0-10.067,10.067,15.23,15.23,0,0,0,0,5.323,12.92,12.92,0,0,0,10.124,10.078,15.132,15.132,0,0,0,5.207,0A12.91,12.91,0,0,0,89.676-272.4a14,14,0,0,0-.59-7.266,12.965,12.965,0,0,0-9.546-8.076A15.765,15.765,0,0,0,74.276-287.736Zm3.587.15c.694.451.856.879.9,2.4l.046,1.354.636.312a5.4,5.4,0,0,1,2.927,4.617,1.711,1.711,0,0,1-1.736,1.932,1.826,1.826,0,0,1-1.805-1.8,1.772,1.772,0,0,0-1.9-1.782,1.7,1.7,0,0,0-1.851,1.851c0,1.169.636,1.782,1.955,1.909a5.493,5.493,0,0,1,5.334,5.5,5.341,5.341,0,0,1-2.927,4.813l-.636.312-.046,1.354a3.609,3.609,0,0,1-.278,1.747,1.767,1.767,0,0,1-3.1,0,3.609,3.609,0,0,1-.278-1.747l-.046-1.354-.636-.312a5.4,5.4,0,0,1-2.927-4.617,1.711,1.711,0,0,1,1.736-1.932,1.826,1.826,0,0,1,1.805,1.805,1.772,1.772,0,0,0,1.9,1.782,1.7,1.7,0,0,0,1.851-1.851c0-1.169-.625-1.782-1.955-1.909a5.567,5.567,0,0,1-3.622-1.539A5.219,5.219,0,0,1,71.5-278.71a5.341,5.341,0,0,1,2.927-4.813l.636-.312.046-1.354a3.609,3.609,0,0,1,.278-1.747,1.78,1.78,0,0,1,1.55-.914A1.51,1.51,0,0,1,77.863-287.585Z" transform="translate(-56.562 -197.731)" fill="#45c0a4"/>
    <path id="Path_21563" data-name="Path 21563" d="M383.862-301.582c-.243,2.812-5.855,4.744-14.834,5.114l-1.828.069.463,1.284a22.221,22.221,0,0,1,1.365,7.972v1.944l.671-.058c.359-.035,1.388-.127,2.279-.2,5.218-.4,9.21-1.527,10.9-3.043,1.134-1.018,1.088-.66,1.041-7.486C383.908-299.257,383.885-301.779,383.862-301.582Z" transform="translate(-324.702 -185.677)" fill="#757ae9"/>
    <path id="Path_21564" data-name="Path 21564" d="M347.429-173.584c-.231,2.65-5.033,4.455-13.445,5.033a18.6,18.6,0,0,0-1.979.208,8.069,8.069,0,0,0-.324,1.065,23.859,23.859,0,0,1-5.01,9.164,5.676,5.676,0,0,0-.671.845c0,.162,8.423-.035,10.24-.22,5.693-.625,9.176-1.747,10.622-3.425a3.108,3.108,0,0,0,.555-.926c.069-.255.1-2.5.081-6.248C347.475-171.3,347.452-173.78,347.429-173.584Z" transform="translate(-288.269 -298.865)" fill="#757ae9"/>
  </g>
</svg>
