<svg xmlns="http://www.w3.org/2000/svg" xmlns:xlink="http://www.w3.org/1999/xlink" width="145" height="145" viewBox="0 0 145 145">
  <defs>
    <linearGradient id="linear-gradient" x1="0.5" x2="0.5" y2="1" gradientUnits="objectBoundingBox">
      <stop offset="0" stop-color="#16becf"/>
      <stop offset="0.522" stop-color="#32eab7"/>
      <stop offset="1" stop-color="#3fffac"/>
    </linearGradient>
    <filter id="Ellipse_79" x="0" y="0" width="145" height="145" filterUnits="userSpaceOnUse">
      <feOffset dy="3" input="SourceAlpha"/>
      <feGaussianBlur stdDeviation="5" result="blur"/>
      <feFlood flood-opacity="0.078"/>
      <feComposite operator="in" in2="blur"/>
      <feComposite in="SourceGraphic"/>
    </filter>
  </defs>
  <g id="_3" data-name="3" transform="translate(-14807 2080)">
    <g transform="matrix(1, 0, 0, 1, 14807, -2080)" filter="url(#Ellipse_79)">
      <circle id="Ellipse_79-2" data-name="Ellipse 79" cx="57.5" cy="57.5" r="57.5" transform="translate(15 12)" fill="url(#linear-gradient)"/>
    </g>
    <g id="ico" transform="translate(14852.5 -1525.214)">
      <path id="Path_1859" data-name="Path 1859" d="M3.6-511.6a4.812,4.812,0,0,0-2.764,2.5l-.335.691V-461.6l.335.691a4.709,4.709,0,0,0,2.817,2.5c.607.209.911.209,23.812.189l23.194-.031.733-.356a5.03,5.03,0,0,0,2.262-2.262l.356-.733v-46.808l-.356-.733a5.031,5.031,0,0,0-2.262-2.262l-.733-.356-23.247-.021C4.678-511.8,4.155-511.8,3.6-511.6Zm46.483,3.215a2.153,2.153,0,0,1,.576.576c.2.325.209.565.241,4.45l.031,4.115H46.993l-.911-1.393a8.066,8.066,0,0,0-1.225-1.571c-.283-.157-.806-.178-6.084-.178s-5.8.021-6.084.178a8.066,8.066,0,0,0-1.225,1.571l-.911,1.393H3.579l.031-4.115c.031-4.021.031-4.115.262-4.471a1.53,1.53,0,0,1,1.026-.743c.178-.042,10.325-.063,22.566-.063l22.252.021ZM44.03-497.85a8.063,8.063,0,0,0,1.225,1.571c.262.157.639.178,2.984.178H50.92L50.9-479.326c-.031,16.576-.031,16.786-.241,17.131a2.153,2.153,0,0,1-.576.576l-.367.23H27.255c-22.273,0-22.461,0-22.807-.209a2.153,2.153,0,0,1-.576-.576l-.23-.367L3.61-479.326,3.589-496.1h14.2c13.236,0,14.22-.01,14.5-.178a8.062,8.062,0,0,0,1.225-1.571l.911-1.393h8.691Z" transform="translate(0 0)" fill="#fff"/>
      <path id="Path_1860" data-name="Path 1860" d="M61.691-451.8A1.471,1.471,0,0,0,61-450.429a1.433,1.433,0,0,0,1.571,1.571,1.433,1.433,0,0,0,1.571-1.571A1.433,1.433,0,0,0,62.571-452,1.586,1.586,0,0,0,61.691-451.8Z" transform="translate(-54.165 -53.525)" fill="#fff"/>
      <path id="Path_1861" data-name="Path 1861" d="M121.691-451.8a1.471,1.471,0,0,0-.691,1.372,1.433,1.433,0,0,0,1.571,1.571,1.433,1.433,0,0,0,1.571-1.571A1.433,1.433,0,0,0,122.571-452,1.586,1.586,0,0,0,121.691-451.8Z" transform="translate(-107.882 -53.525)" fill="#fff"/>
      <path id="Path_1862" data-name="Path 1862" d="M181.691-451.8a1.471,1.471,0,0,0-.691,1.372,1.433,1.433,0,0,0,1.571,1.571,1.433,1.433,0,0,0,1.571-1.571A1.433,1.433,0,0,0,182.571-452,1.586,1.586,0,0,0,181.691-451.8Z" transform="translate(-161.599 -53.525)" fill="#fff"/>
      <path id="Path_1863" data-name="Path 1863" d="M79.691-276.8a2.2,2.2,0,0,0-.492.492c-.188.293-.2.628-.2,7.686s.01,7.393.2,7.686a1.471,1.471,0,0,0,1.372.691,1.471,1.471,0,0,0,1.372-.691c.188-.293.2-.628.2-7.686s-.01-7.393-.2-7.686A1.471,1.471,0,0,0,80.571-277,1.586,1.586,0,0,0,79.691-276.8Z" transform="translate(-70.28 -210.2)" fill="#fff"/>
      <path id="Path_1864" data-name="Path 1864" d="M139.283-276.813a11.714,11.714,0,0,0-1.78.7,6.231,6.231,0,0,0-2.042,1.55,6.231,6.231,0,0,0-1.55,2.042,7.665,7.665,0,0,0-.911,3.874,7.665,7.665,0,0,0,.911,3.874,6.231,6.231,0,0,0,1.55,2.042,6.231,6.231,0,0,0,2.042,1.55,7.4,7.4,0,0,0,4.126.89,6.59,6.59,0,0,0,3.581-.963A6.974,6.974,0,0,0,147.095-263a2.224,2.224,0,0,0-.01-1.56,1.654,1.654,0,0,0-1.791-.775,2.335,2.335,0,0,0-1.058.691,3.376,3.376,0,0,1-2.67,1.11,4.71,4.71,0,0,1-3.812-1.487,4.895,4.895,0,0,1-1.508-3.623,5.156,5.156,0,0,1,3.005-4.691,3.357,3.357,0,0,1,2.136-.387h1.33l1.016.513c1.11.565,1.634.639,2.23.335a1.637,1.637,0,0,0,.429-2.513,8.661,8.661,0,0,0-2.963-1.424A10.242,10.242,0,0,0,139.283-276.813Z" transform="translate(-118.625 -210.178)" fill="#fff"/>
      <path id="Path_1865" data-name="Path 1865" d="M287.283-276.813a8.463,8.463,0,0,0-5.393,4.346,7.619,7.619,0,0,0-.89,3.822,7.665,7.665,0,0,0,.911,3.874,6.23,6.23,0,0,0,1.55,2.042,6.231,6.231,0,0,0,2.042,1.55,7.665,7.665,0,0,0,3.874.911,7.665,7.665,0,0,0,3.874-.911,6.23,6.23,0,0,0,2.042-1.55,6.23,6.23,0,0,0,1.55-2.042,7.665,7.665,0,0,0,.911-3.874,7.722,7.722,0,0,0-.88-3.822,8.439,8.439,0,0,0-5.445-4.346A10.242,10.242,0,0,0,287.283-276.813Zm4.22,3.477a5.166,5.166,0,0,1,2.377,7.2,5.806,5.806,0,0,1-2.377,2.178,3.338,3.338,0,0,1-2.126.387,3.338,3.338,0,0,1-2.126-.387,5.447,5.447,0,0,1-2.565-2.566,3.338,3.338,0,0,1-.387-2.126,3.338,3.338,0,0,1,.387-2.126,5.572,5.572,0,0,1,3.278-2.859,5.3,5.3,0,0,1,1.571-.115A3.4,3.4,0,0,1,291.5-273.336Z" transform="translate(-251.127 -210.178)" fill="#fff"/>
    </g>
  </g>
</svg>
