<svg xmlns="http://www.w3.org/2000/svg" xmlns:xlink="http://www.w3.org/1999/xlink" width="66" height="86" viewBox="0 0 66 86">
  <defs>
    <filter id="Ellipse_2892" x="0" y="20" width="66" height="66" filterUnits="userSpaceOnUse">
      <feOffset dy="3" input="SourceAlpha"/>
      <feGaussianBlur stdDeviation="3" result="blur"/>
      <feFlood flood-color="#ccecff" flood-opacity="0.2"/>
      <feComposite operator="in" in2="blur"/>
      <feComposite in="SourceGraphic"/>
    </filter>
    <filter id="Path_21494" x="12" y="28" width="41" height="48" filterUnits="userSpaceOnUse">
      <feOffset dy="3" input="SourceAlpha"/>
      <feGaussianBlur stdDeviation="3" result="blur-2"/>
      <feFlood flood-color="#ccecff" flood-opacity="0.2"/>
      <feComposite operator="in" in2="blur-2"/>
      <feComposite in="SourceGraphic"/>
    </filter>
  </defs>
  <g id="Group_5969" data-name="Group 5969" transform="translate(-342 -1329.418)">
    <path id="Path_21529" data-name="Path 21529" d="M19.9,0a1.935,1.935,0,0,0-1.373.569L10.765,8.336a1.942,1.942,0,0,0,1.373,3.315h3.883v8.228a25.211,25.211,0,0,1,3.884-.331,25.211,25.211,0,0,1,3.884.331V11.651h3.883a1.942,1.942,0,0,0,1.373-3.315L21.278.569A1.935,1.935,0,0,0,19.9,0Z" transform="translate(354.772 1329.418)" fill="#45c0a4"/>
    <g id="Group_5950" data-name="Group 5950" transform="translate(323 1331.418)">
      <g transform="matrix(1, 0, 0, 1, 19, -2)" filter="url(#Ellipse_2892)">
        <circle id="Ellipse_2892-2" data-name="Ellipse 2892" cx="24" cy="24" r="24" transform="translate(9 26)" fill="#757ae9"/>
      </g>
      <g transform="matrix(1, 0, 0, 1, 19, -2)" filter="url(#Path_21494)">
        <path id="Path_21494-2" data-name="Path 21494" d="M62.94,44.061c.479-3.152-1.958-4.847-5.288-5.978l1.08-4.271L56.1,33.166l-1.053,4.158c-.678-.168-1.374-.324-2.069-.48l-.044-.01,1.061-4.185L51.352,32l-1.081,4.269-.115-.026h0c-.534-.12-1.06-.239-1.569-.365l0-.014-3.638-.895-.7,2.776s1.958.442,1.917.469A1.387,1.387,0,0,1,47.4,39.728l-1.23,4.865a2.383,2.383,0,0,1,.275.086l-.279-.068-1.724,6.815a.964.964,0,0,1-1.21.617c.028.038-1.917-.471-1.917-.471L40,54.547l3.434.844c.369.091.733.185,1.094.278h0l.783.2-1.091,4.319,2.636.647,1.08-4.271c.72.191,1.419.368,2.1.537l-1.077,4.253L51.6,62l1.091-4.31c4.5.839,7.881.5,9.3-3.508,1.148-3.227-.056-5.09-2.423-6.3A4.166,4.166,0,0,0,62.94,44.061Zm-6.028,8.328c-.746,2.962-5.45,1.737-7.6,1.177-.194-.05-.367-.1-.515-.132l1.45-5.722c.18.044.4.093.65.148h0C53.121,48.354,57.679,49.363,56.912,52.389ZM51.341,45.2c1.794.472,5.707,1.5,6.388-1.19.7-2.753-3.107-3.582-4.964-3.987-.209-.046-.394-.086-.545-.123l-1.312,5.188C51.031,45.123,51.177,45.161,51.341,45.2Z" transform="translate(-19 2)" fill="#fff" fill-rule="evenodd"/>
      </g>
    </g>
  </g>
</svg>
