<svg xmlns="http://www.w3.org/2000/svg" width="60" height="59.95" viewBox="0 0 60 59.95">
  <g id="coin-_2_" transform="translate(0.175 512)">
    <path id="Path_21531" data-name="Path 21531" d="M187.991-511.824a2.27,2.27,0,0,0-.515,1,5.92,5.92,0,0,1-2.775,3.443c-1.159.621-1.171,1.394-.012,2a5.927,5.927,0,0,1,2.787,3.455c.281.878.55,1.171,1.054,1.171s.773-.293,1.054-1.171a5.92,5.92,0,0,1,2.775-3.443c1.159-.621,1.171-1.394.012-2a5.927,5.927,0,0,1-2.787-3.455c-.281-.878-.55-1.171-1.054-1.171A1.089,1.089,0,0,0,187.991-511.824Z" transform="translate(-162.452)" fill="#45c0a4"/>
    <path id="Path_21532" data-name="Path 21532" d="M436-477.758a1.452,1.452,0,0,0-.4.679,6.487,6.487,0,0,1-2.857,3.747c-1.183.656-1.195,1.394-.035,2.014a5.877,5.877,0,0,1,2.775,3.443c.281.878.55,1.183,1.066,1.183.492,0,.785-.3,1-1.031a6.016,6.016,0,0,1,2.811-3.583c1.195-.621,1.195-1.382.023-2.014a5.92,5.92,0,0,1-2.775-3.443,2.27,2.27,0,0,0-.515-1A.972.972,0,0,0,436-477.758Z" transform="translate(-381.431 -30.085)" fill="#45c0a4"/>
    <path id="Path_21533" data-name="Path 21533" d="M3.991-383.824a2.27,2.27,0,0,0-.515,1,5.84,5.84,0,0,1-2.752,3.42C-.471-378.742-.471-378,.7-377.383a5.847,5.847,0,0,1,2.775,3.455c.281.878.55,1.171,1.066,1.171.48,0,.773-.328,1.042-1.171a5.8,5.8,0,0,1,2.752-3.443c1.195-.632,1.195-1.37,0-2.038a5.84,5.84,0,0,1-2.752-3.42C5.3-383.707,5.033-384,4.53-384A1.089,1.089,0,0,0,3.991-383.824Z" transform="translate(0 -113.01)" fill="#45c0a4"/>
    <path id="Path_21534" data-name="Path 21534" d="M210.246-359.764a3.486,3.486,0,0,0-1.991,2.038,3.127,3.127,0,0,0,.8,3.349c1.066,1.054-.105.984,15.88.984s14.814.07,15.88-.984a3.15,3.15,0,0,0,0-4.591c-1.066-1.054.117-.984-15.927-.972C212.728-359.94,210.737-359.916,210.246-359.764Z" transform="translate(-183.864 -134.248)" fill="#767ce9"/>
    <path id="Path_21535" data-name="Path 21535" d="M16.627-303.674a17.629,17.629,0,0,0-10.575,4.9A17.55,17.55,0,0,0,.9-289.515,13.308,13.308,0,0,0,.6-286a14.492,14.492,0,0,0,.831,5.551A17.853,17.853,0,0,0,13.2-268.916,17.755,17.755,0,0,0,28.28-271.2a21.609,21.609,0,0,0,4.79-4.79,17.165,17.165,0,0,0,3-9.954,17.235,17.235,0,0,0-3-9.966,22.01,22.01,0,0,0-4.778-4.778,18.8,18.8,0,0,0-6.769-2.775A29.77,29.77,0,0,0,16.627-303.674Zm3.431,4.263a13.586,13.586,0,0,1,7.846,3.888,13.381,13.381,0,0,1,2.541,15.611,12.218,12.218,0,0,1-2.8,3.783,13.563,13.563,0,0,1-9.322,3.771,14.18,14.18,0,0,1-8.08-2.682,18.026,18.026,0,0,1-3.15-3.267,13.583,13.583,0,0,1,5.4-19.873A13.37,13.37,0,0,1,20.059-299.411Z" transform="translate(-0.68 -183.898)" fill="#7c82ea"/>
    <path id="Path_21536" data-name="Path 21536" d="M61.919-251.523a11.428,11.428,0,0,0-3.185,1.031,11.666,11.666,0,0,0-6.546,9.989,11.7,11.7,0,0,0,8.982,11.922,13.692,13.692,0,0,0,5.434-.012,12.351,12.351,0,0,0,5.551-3.15,11.989,11.989,0,0,0,3.1-5.539,13.636,13.636,0,0,0-.059-5.633,11.8,11.8,0,0,0-8.584-8.432A14.154,14.154,0,0,0,61.919-251.523Zm2.588,3.876c.234.234.293.4.293.913v.621l.632.269a4.017,4.017,0,0,1,2.131,2.061c.468.949.468,1.429.012,1.757-.586.41-1.148.164-1.558-.691a2.329,2.329,0,0,0-3.068-1.417A2.036,2.036,0,0,0,61.6-242.19c-.012.925.211,1.042,2.53,1.347a5.731,5.731,0,0,1,2.869.867,3.147,3.147,0,0,1,.668,3.829A4.43,4.43,0,0,1,65.479-234l-.679.281v.562c0,.7-.363,1.148-.937,1.148s-.937-.445-.937-1.171c0-.457-.047-.609-.2-.668a4.35,4.35,0,0,1-2.565-2.225c-.41-.831-.422-1.394-.059-1.686a1.256,1.256,0,0,1,1.124-.152,1.525,1.525,0,0,1,.433.621c.621,1.452,1.628,2.014,2.939,1.64a2.32,2.32,0,0,0,1.476-1.593c.281-1.171-.094-1.464-2.237-1.733a17.94,17.94,0,0,1-2.061-.375,3.143,3.143,0,0,1-1.839-1.581,4.464,4.464,0,0,1-.059-2.389,4.2,4.2,0,0,1,2.483-2.6l.562-.2v-.621c0-.749.351-1.195.937-1.195A.913.913,0,0,1,64.507-247.647Z" transform="translate(-46.217 -229.865)" fill="#767ce9"/>
    <path id="Path_21537" data-name="Path 21537" d="M250.793-287.759a20.035,20.035,0,0,1,4.579,4.9,11.151,11.151,0,0,1,.808,1.323c0,.047,3.279.094,7.3.094,8.444,0,8.151.035,9.17-.984a3.15,3.15,0,0,0,0-4.591c-1.042-1.042-.375-.984-12-.984l-10.142.012Z" transform="translate(-221.319 -197.763)" fill="#767ce9"/>
    <path id="Path_21538" data-name="Path 21538" d="M307.393-215.3a19.926,19.926,0,0,1,1.042,4.3c.094.738.176,1.382.176,1.452s3.7.105,9.814.105c11.277,0,10.645.059,11.687-.984a3.15,3.15,0,0,0,0-4.591c-1.054-1.042-.316-.984-12.437-.984H307.1Z" transform="translate(-271.291 -261.332)" fill="#767ce9"/>
    <path id="Path_21539" data-name="Path 21539" d="M308.611-143.864a25.88,25.88,0,0,1-1.276,5.879l-.234.539h10.575c12.121,0,11.383.059,12.437-.984a3.15,3.15,0,0,0,0-4.591c-1.042-1.042-.41-.984-11.687-.984C310.648-144,308.611-143.969,308.611-143.864Z" transform="translate(-271.291 -324.9)" fill="#767ce9"/>
    <path id="Path_21540" data-name="Path 21540" d="M255.97-71.243a20.475,20.475,0,0,1-4.579,5.211l-.691.527,13.866.035c15.833.023,14.685.094,15.739-.96a3.141,3.141,0,0,0,.012-4.591c-1.054-1.042-.269-.984-12.882-.984h-11.02Z" transform="translate(-221.496 -388.468)" fill="#767ce9"/>
  </g>
</svg>
