<svg xmlns="http://www.w3.org/2000/svg" xmlns:xlink="http://www.w3.org/1999/xlink" width="167" height="167" viewBox="0 0 167 167">
  <defs>
    <filter id="Ellipse_74" x="0" y="0" width="167" height="167" filterUnits="userSpaceOnUse">
      <feOffset dy="3" input="SourceAlpha"/>
      <feGaussianBlur stdDeviation="5" result="blur"/>
      <feFlood flood-opacity="0.078"/>
      <feComposite operator="in" in2="blur"/>
      <feComposite in="SourceGraphic"/>
    </filter>
  </defs>
  <g id="_04" data-name="04" transform="translate(-14512 473)">
    <g id="Advanced_Technologies" data-name="Advanced Technologies" transform="translate(14570.1 -423.019)">
      <g transform="matrix(1, 0, 0, 1, -58.1, -49.98)" filter="url(#Ellipse_74)">
        <circle id="Ellipse_74-2" data-name="Ellipse 74" cx="68.5" cy="68.5" r="68.5" transform="translate(15 12)" fill="#fff"/>
      </g>
    </g>
    <g id="Experienced_Team" data-name="Experienced Team" transform="translate(14568.014 -423)">
      <g id="Group_3643" data-name="Group 3643" transform="translate(-0.014)">
        <path id="Path_1829" data-name="Path 1829" d="M39.3,38.453a15.774,15.774,0,0,0-5-2.168v-3.2a1.34,1.34,0,0,1,.188-.565,14.893,14.893,0,0,0,1.414-4.524,8.13,8.13,0,0,0-15.928-3.11,10.163,10.163,0,0,0,.848,6.88c.754,1.508.283,3.016.471,4.524a6.006,6.006,0,0,0-.66.188A13.476,13.476,0,0,0,10.272,49.292V60.131c0,.848.283,1.131,1.131,1.131h32.7c.848,0,1.131-.283,1.131-1.131,0-3.581.094-7.163,0-10.744A13.142,13.142,0,0,0,39.3,38.453ZM27.708,20.546a6.1,6.1,0,0,1,6.22,6.22,10.72,10.72,0,0,1-3.581,7.823,3.535,3.535,0,0,1-5.184,0,10.924,10.924,0,0,1-3.581-7.257C21.582,23.468,24.315,20.546,27.708,20.546ZM23.561,37.134c-.471-.471-.283-1.037-.283-1.6,3.393,2.827,5.089,2.827,9.048.094a1.808,1.808,0,0,1-.565,1.885A5.984,5.984,0,0,1,23.561,37.134ZM29.31,50.988a12.137,12.137,0,0,0-1.508,1.6c-.66-.66-1.319-1.225-1.885-1.885a.414.414,0,0,1-.094-.471c.471-3.11,1.037-6.22,1.6-9.331V40.81c.565-.188.754.094.848.66l1.414,8.482A1.417,1.417,0,0,1,29.31,50.988Zm14.043,8.388H12.346c0-.188-.094-.283-.094-.377V48.915A11.427,11.427,0,0,1,21.3,38.359a.95.95,0,0,1,.848.283,8.035,8.035,0,0,0,2.827,1.791c.377.094.377.377.377.66-.471,2.545-.848,5-1.319,7.54a14.3,14.3,0,0,0-.283,1.979,1.645,1.645,0,0,0,.377,1.131c.942,1.037,1.979,1.979,2.922,2.922.565.565.942.565,1.508,0,.942-.848,1.791-1.791,2.733-2.639a1.639,1.639,0,0,0,.565-1.508l-1.414-8.2a3.906,3.906,0,0,1-.188-1.414c.094-.283.754-.377,1.131-.66.754-.471,1.414-1.037,2.073-1.508a1.016,1.016,0,0,1,.754-.188,11.562,11.562,0,0,1,8.954,9.425,18.3,18.3,0,0,1,.188,2.262v9.142ZM22.619,10.65a.594.594,0,0,1,.283.754c-.377,1.225-.848,2.45-1.131,3.676a1.5,1.5,0,0,0,.848,1.979,1.585,1.585,0,0,0,1.791-.283c1.131-.848,2.262-1.6,3.487-2.45,1.225.848,2.356,1.7,3.581,2.545a1.561,1.561,0,0,0,1.979,0,1.544,1.544,0,0,0,.471-1.885c-.377-1.131-.754-2.356-1.131-3.487a.721.721,0,0,1,.377-1.037c1.037-.66,1.979-1.414,2.922-2.073A1.626,1.626,0,0,0,36.85,6.5a1.624,1.624,0,0,0-1.7-1.225h-3.77c-.377,0-.565-.094-.66-.471L29.593,1.131A2.263,2.263,0,0,0,27.708,0c-.754,0-1.225.471-1.6,1.414-.377,1.131-.754,2.262-1.131,3.487-.094.377-.283.471-.66.471h-3.77a1.537,1.537,0,0,0-1.6,1.131,1.612,1.612,0,0,0,.565,1.885C20.64,9.142,21.582,9.9,22.619,10.65Zm2.168-3.393a1.579,1.579,0,0,0,1.7-1.037l1.131-3.393h.094c.377,1.037.66,2.168,1.037,3.2A1.76,1.76,0,0,0,30.63,7.446c1.131,0,2.168,0,3.393.094-.283.188-.565.471-.848.66-.66.471-1.319.942-1.979,1.508a1.5,1.5,0,0,0-.565,1.885c.377,1.131.754,2.262,1.131,3.581-.942-.754-1.791-1.414-2.639-1.979a1.822,1.822,0,0,0-2.639,0c-.848.565-1.7,1.225-2.639,1.885.377-1.131.66-2.073.942-3.016.471-1.508.377-1.791-.848-2.733-.754-.565-1.6-1.225-2.545-1.885A8.435,8.435,0,0,1,24.787,7.257Zm30.725,13.76a1.724,1.724,0,0,0-1.791-1.131H50.045c-.377,0-.565-.094-.66-.471-.377-1.225-.754-2.356-1.131-3.581a1.785,1.785,0,0,0-1.508-1.319,1.679,1.679,0,0,0-1.6,1.319c-.377,1.225-.754,2.356-1.131,3.581-.094.377-.283.471-.66.471H39.4a1.649,1.649,0,0,0-1.7,1.131A1.7,1.7,0,0,0,38.358,23c1.037.754,2.073,1.508,3.11,2.168a.494.494,0,0,1,.188.754c-.377,1.131-.848,2.356-1.225,3.487-.283.942-.188,1.6.471,2.073a1.847,1.847,0,0,0,2.168-.094c1.131-.754,2.262-1.6,3.393-2.45.094.094.188.094.283.188,1.131.754,2.168,1.508,3.3,2.356a1.7,1.7,0,0,0,2.073,0,1.544,1.544,0,0,0,.471-1.885l-1.131-3.676a.594.594,0,0,1,.283-.754c1.037-.66,1.979-1.414,3.016-2.168A1.633,1.633,0,0,0,55.512,21.017ZM52.4,22.337c-.754.565-1.508,1.037-2.168,1.6a1.471,1.471,0,0,0-.66,2.073c.377,1.131.66,2.262,1.131,3.487-1.037-.754-1.885-1.414-2.827-1.979a1.764,1.764,0,0,0-2.45,0c-.848.66-1.791,1.225-2.827,1.979.377-1.131.66-2.168.942-3.11.471-1.414.283-1.791-.848-2.639a20.629,20.629,0,0,1-2.356-1.885h3.016c1.508,0,1.885-.283,2.262-1.7.283-.942.565-1.885.942-3.016a4.6,4.6,0,0,0,.283.66c.283.942.565,1.885.848,2.733a1.65,1.65,0,0,0,1.791,1.319c1.131,0,2.168,0,3.393.094A2.056,2.056,0,0,0,52.4,22.337ZM14.513,31.573a1.416,1.416,0,0,0,.471-1.791c-.377-1.225-.754-2.45-1.225-3.676-.094-.377-.094-.565.283-.754a34.982,34.982,0,0,0,3.016-2.168c.754-.565,1.037-1.131.754-1.791a1.664,1.664,0,0,0-1.791-1.225H12.346c-.377,0-.565-.094-.66-.471-.377-1.225-.754-2.356-1.131-3.581A1.785,1.785,0,0,0,9.047,14.8c-.565-.189-1.225.283-1.508,1.131-.377,1.225-.754,2.356-1.131,3.581-.094.377-.283.471-.66.471H1.79c-.942,0-1.508.377-1.7,1.037A1.6,1.6,0,0,0,.847,23c1.131.848,2.262,1.6,3.393,2.45C3.769,26.861,3.3,28.18,2.827,29.5a1.562,1.562,0,0,0,.848,2.073,1.573,1.573,0,0,0,1.7-.283c1.131-.848,2.262-1.6,3.487-2.45,1.225.848,2.45,1.791,3.676,2.639A1.709,1.709,0,0,0,14.513,31.573Zm-6.6-4.241c-.942.66-1.885,1.414-3.016,2.168.283-.942.565-1.7.754-2.545.094-.377.283-.754.377-1.131a1.484,1.484,0,0,0-.66-1.791L2.544,22.054a.092.092,0,0,1,.094-.094h3.3a1.684,1.684,0,0,0,1.885-1.414c.377-1.037.66-2.168,1.037-3.393.377,1.225.754,2.262,1.037,3.3a1.739,1.739,0,0,0,1.885,1.414h3.487c-1.037.754-1.885,1.414-2.827,2.168a1.575,1.575,0,0,0-.66,2.168c.283.942.565,1.885.848,2.733,0,.188.094.283.094.565-1.037-.754-2.073-1.414-2.922-2.168A1.554,1.554,0,0,0,7.916,27.332Zm33.27,21.3h-6.88a1.07,1.07,0,0,0-1.131,1.037q0,.848,1.131.848h6.88a.919.919,0,0,0,1.037-.942A.969.969,0,0,0,41.186,48.632Z" transform="translate(0.014)" fill="#16becf"/>
      </g>
    </g>
  </g>
</svg>
