<svg xmlns="http://www.w3.org/2000/svg" width="51.454" height="66.811" viewBox="0 0 51.454 66.811">
  <g id="Group_5961" data-name="Group 5961" transform="translate(-141 -1351.079)">
    <g id="wallet_6_1_" data-name="wallet (6) (1)" transform="translate(141 1371.973)">
      <path id="Path_21541" data-name="Path 21541" d="M37.334-447.736a7.545,7.545,0,0,0-4.5,3.629c-.9,1.745-.838.344-.838,19.119s-.057,17.373.838,19.119a7.291,7.291,0,0,0,3.02,3.02c1.734.9-.023.838,23.379.8l20.933-.034.689-.333a5.182,5.182,0,0,0,2.193-2.193l.333-.689.034-2.951.034-2.94-5.144-.046c-5.9-.057-6.1-.08-8.015-1.01a8.757,8.757,0,0,1-3.066-2.365,11.274,11.274,0,0,1-1.86-3.8,11.046,11.046,0,0,1-.184-1.986,8.135,8.135,0,0,1,.919-3.961,8.462,8.462,0,0,1,4.191-4.191c1.918-.93,2.113-.953,8.015-1.01l5.144-.046-.034-2.94-.034-2.951-.333-.689a5.182,5.182,0,0,0-2.193-2.193l-.689-.333-20.611-.057c-20.531-.057-20.611-.057-21.013-.3a1.755,1.755,0,0,1-.919-1.539,1.755,1.755,0,0,1,.919-1.539c.4-.241.505-.241,18.085-.3,19.635-.069,17.936.012,18.74-.827a2.589,2.589,0,0,0,.723-1.952,2.6,2.6,0,0,0-.815-2.009c-.827-.781.632-.723-19.245-.712C39.32-447.942,37.977-447.919,37.334-447.736Z" transform="translate(-31.994 447.948)" fill="#767ce9"/>
      <path id="Path_21542" data-name="Path 21542" d="M355.788-255.782a5.685,5.685,0,0,0-3.583,3.674,7.339,7.339,0,0,0,0,3.238,5.611,5.611,0,0,0,3.617,3.674c.643.2,1.114.218,5.8.218h5.1V-256l-5.133.011C356.925-255.989,356.385-255.966,355.788-255.782Z" transform="translate(-315.277 278.041)" fill="#767ce9"/>
    </g>
    <g id="_60c1a463a7bb9b2a9ad67712_Group_494" data-name="60c1a463a7bb9b2a9ad67712_Group 494" transform="translate(159.052 1351.079)">
      <path id="Path_21529" data-name="Path 21529" d="M18.125,0A1.58,1.58,0,0,0,17,.465L10.66,6.809a1.586,1.586,0,0,0,1.121,2.707h3.172v6.72a20.591,20.591,0,0,1,3.172-.27,20.591,20.591,0,0,1,3.172.27V9.516h3.172A1.586,1.586,0,0,0,25.59,6.809L19.247.465A1.58,1.58,0,0,0,18.125,0Z" transform="translate(-10.195)" fill="#45c0a4"/>
    </g>
  </g>
</svg>
