<svg xmlns="http://www.w3.org/2000/svg" xmlns:xlink="http://www.w3.org/1999/xlink" width="167" height="167" viewBox="0 0 167 167">
  <defs>
    <filter id="Ellipse_74" x="0" y="0" width="167" height="167" filterUnits="userSpaceOnUse">
      <feOffset dy="3" input="SourceAlpha"/>
      <feGaussianBlur stdDeviation="5" result="blur"/>
      <feFlood flood-opacity="0.078"/>
      <feComposite operator="in" in2="blur"/>
      <feComposite in="SourceGraphic"/>
    </filter>
  </defs>
  <g id="_03" data-name="03" transform="translate(-14512 473)">
    <g id="Advanced_Technologies" data-name="Advanced Technologies" transform="translate(14570.1 -423.019)">
      <g transform="matrix(1, 0, 0, 1, -58.1, -49.98)" filter="url(#Ellipse_74)">
        <circle id="Ellipse_74-2" data-name="Ellipse 74" cx="68.5" cy="68.5" r="68.5" transform="translate(15 12)" fill="#fff"/>
      </g>
    </g>
    <g id="Customized_Solution" data-name="Customized Solution" transform="translate(14563 -425)">
      <g id="Group_3640" data-name="Group 3640">
        <path id="Path_1828" data-name="Path 1828" d="M63.9,25.9H58.6a26.822,26.822,0,0,0-2.7-6.8c-.2-.4-.2-.5.1-.8L59.3,15a1.028,1.028,0,0,0,0-1.7c-2.6-2.5-5.1-5.1-7.7-7.6a1.041,1.041,0,0,0-1.6,0l-.6.6c-1.1,1-2.2,2.1-3.3,3.1a24.109,24.109,0,0,0-6.6-2.7c-.5-.1-.6-.3-.6-.8V1.2c0-.8-.4-1.2-1.1-1.2H27a1,1,0,0,0-1.1,1.1V6.4a26.822,26.822,0,0,0-6.8,2.7.529.529,0,0,1-.8-.1c-1-1.1-2.1-2.1-3.1-3.1-.8-.8-1.3-.8-2.1,0-2.4,2.4-4.8,4.8-7.2,7.3-.8.9-.8,1.2,0,2.1,1.2,1.1,2.3,2.3,3.3,3.3-1,2.5-2,4.9-3,7.4H1.3C.4,26,0,26.4,0,27.3V37.8c0,1.1.3,1.4,1.4,1.4H5.8c.5,0,.6.2.7.6A22.635,22.635,0,0,0,9.1,46a.744.744,0,0,1-.1.9c-1.1,1-2.1,2.1-3.2,3.2-.7.7-.7,1.2,0,1.9l7.3,7.3c.8.8,1.2.8,2,0l3.5-3.5a29.729,29.729,0,0,0,6.9,2.9c.2,0,.4.3.4.5v4.5c0,1.1.4,1.4,1.4,1.4H37.7c1,0,1.4-.3,1.4-1.4V59.2c0-.3,0-.5.4-.6a25.968,25.968,0,0,0,6.9-2.9L50,59.3c.7.7,1.2.7,2,0L59.3,52c.8-.8.8-1.2,0-2l-3.5-3.5a25.052,25.052,0,0,0,2.8-6.8c.1-.4.3-.5.7-.5h4.6c.8,0,1.2-.4,1.2-1.1V27.3C65,26.3,64.6,25.9,63.9,25.9Zm-1,11h-5a1.048,1.048,0,0,0-1.2.9,23.49,23.49,0,0,1-3.2,7.9,1.013,1.013,0,0,0,.2,1.5l3.4,3.4L50.7,57l-3.3-3.3c-.7-.7-1-.7-1.8-.2a27.048,27.048,0,0,1-7.7,3.1,1.146,1.146,0,0,0-1,1.3v4.9h-9V57.9a1.048,1.048,0,0,0-.9-1.2,23.49,23.49,0,0,1-7.9-3.2c-.6-.4-1-.3-1.6.2-1.2,1.1-2.3,2.3-3.4,3.4C12,55,9.9,52.9,7.7,50.8c1.1-1,2.1-2.1,3.2-3.2.9-.9.9-1.1.3-2.1a24.473,24.473,0,0,1-3-7.3c-.1-1-.3-1.2-1.4-1.2H2.3a.31.31,0,0,1-.2-.1V28H7a1.194,1.194,0,0,0,1.4-1.1A22.763,22.763,0,0,1,11,20.2a4.053,4.053,0,0,0,.5-.9,1.16,1.16,0,0,0-.2-1.7c-1.1-1.1-2.3-2.3-3.5-3.4C10,12,12.1,10,14.3,7.8c.2.2.4.5.7.8l2.7,2.7a1.075,1.075,0,0,0,1.4.2,29.393,29.393,0,0,1,8-3.3c.7-.1.9-.6.9-1.2V2.1h9V7.2c0,.8.2,1,1,1.2a24.251,24.251,0,0,1,7.8,3.2c.7.4,1,.4,1.6-.2,1.2-1.2,2.4-2.3,3.6-3.5,2,2.1,4.1,4.2,6.2,6.3a19.2,19.2,0,0,0-1.5,1.4l-1.8,1.8c-.7.7-.8,1-.3,1.9a25.055,25.055,0,0,1,2.8,6.5c.1.4.2.7.3,1.1.2.8.5,1,1.3,1h4.9C62.9,31,62.9,33.9,62.9,36.9ZM32.5,10.4a22.216,22.216,0,0,0-22,22.1,22.262,22.262,0,0,0,22,22A22.214,22.214,0,0,0,54.6,32.2,22.378,22.378,0,0,0,32.5,10.4Zm0,42A19.7,19.7,0,0,1,12.6,32.5,19.95,19.95,0,1,1,32.5,52.4ZM22.1,26.2c.7.2,1.2-.3,1.2-1.1V22.2h1.3c.1,0,.2.1.4.2.4.2.7.5,1.1.5H39.4c.3,0,.7-.1.8-.3.5-.7,1.1-.4,1.8-.5v7.5a1,1,0,0,0,1.1,1.1,1.028,1.028,0,0,0,1-1.1V21A1,1,0,0,0,43,19.9H41.1c-.2,0-.4,0-.4-.1a4.7,4.7,0,0,0-2.8-1.4l-1.5-.3A3.815,3.815,0,0,0,33,14.3a3.858,3.858,0,0,0-3.8,3.8c-.2,0-.5.1-.7.1-1,.2-2.2.2-2.9,1a2.283,2.283,0,0,1-2,.7h-1A1,1,0,0,0,21.5,21v4Q21.2,26.05,22.1,26.2Zm6.5-5.7a2.547,2.547,0,0,0,2.6-2.7,1.344,1.344,0,0,1,1.4-1.3,1.3,1.3,0,0,1,1.5,1.2c.3,1.9,1,2.6,2.9,2.7a6.753,6.753,0,0,1,1.4.2v.1h-11v-.1C27.8,20.6,28.2,20.5,28.6,20.5ZM24.3,39.9a.764.764,0,0,1,.2-.5.758.758,0,0,1,.4.2,1.122,1.122,0,0,0,1.6-.1,18.479,18.479,0,0,0,1.4-1.4,1.007,1.007,0,0,0,.1-1.5c-.1-.1-.1-.3-.2-.4.2-.1.3-.2.5-.2.7-.1,1-.4,1-1.1V33a1.131,1.131,0,0,0-1.1-1.2.764.764,0,0,1-.5-.2.758.758,0,0,1,.2-.4,1,1,0,0,0-.1-1.5,18.479,18.479,0,0,0-1.4-1.4,1,1,0,0,0-1.5,0c-.4.3-.5.4-.6-.2A1.073,1.073,0,0,0,23.1,27H21.3c-.8,0-1.1.3-1.2,1.1q0,.75-.6.3a1.041,1.041,0,0,0-1.6.1l-1.2,1.2a1.116,1.116,0,0,0-.1,1.6c.1.1.1.3.2.5-.1.1-.3.1-.4.2a1.11,1.11,0,0,0-1.1,1.1v1.8c0,.8.3,1.1,1.1,1.2.1,0,.4.1.4.2s-.1.3-.1.4a2.507,2.507,0,0,1-.4.7,4.876,4.876,0,0,0,.3.7c.5.6,1.1,1.1,1.6,1.6.4.4.9.3,1.4,0a.764.764,0,0,1,.5-.2c.1.2.2.3.2.5.1.7.4,1,1.1,1h2C23.9,41,24.2,40.6,24.3,39.9Zm-3.6-2.3c-.5-.2-1.1-.4-1.6-.6a5.963,5.963,0,0,0-1.2-3,5.747,5.747,0,0,0,1.2-3.1,4.387,4.387,0,0,0,3.1-1.3A6.247,6.247,0,0,0,25.3,31a5.487,5.487,0,0,0,1.4,3.1,4.6,4.6,0,0,0-1.3,3,6.515,6.515,0,0,0-3.1,1.2C21.7,38,21.2,37.8,20.7,37.6Zm22.3.1a1.028,1.028,0,0,0-1,1.1v6.7H23.4V43.3a1.1,1.1,0,0,0-1-1.1.975.975,0,0,0-1,1.1v3.1a1.061,1.061,0,0,0,1.2,1.2H42.8c.9,0,1.3-.3,1.3-1.2V38.9C44,38.1,43.6,37.7,43,37.7ZM44.9,31a2.651,2.651,0,0,0-.6.5l-8.2,8.2a3.171,3.171,0,0,1-.6.5c-.7-.7-1.4-1.4-2-2.1a1.045,1.045,0,0,0-1.6-.1c-.5.5-.4,1,.1,1.6l2.5,2.5c.8.8,1.2.8,2.1,0,3.1-3.1,6.2-6.2,9.3-9.2a1.756,1.756,0,0,0,.4-.5,1.091,1.091,0,0,0-.2-1.2A1.033,1.033,0,0,0,44.9,31Z" fill="#16becf"/>
      </g>
    </g>
  </g>
</svg>
