<svg xmlns="http://www.w3.org/2000/svg" width="57.372" height="57.388" viewBox="0 0 57.372 57.388">
  <g id="wallet-_5_" transform="translate(-0.139 512)">
    <path id="Path_21524" data-name="Path 21524" d="M69.023-508.309c-5.565,2.02-10.243,3.77-10.412,3.882a2.542,2.542,0,0,0-.606.7c-.449.763-.393,1.358.28,3.175l.55,1.515,7.932.034,7.921.022.011-2.491c0-2.85.123-3.534.774-4.622a7.044,7.044,0,0,1,1.043-1.257,5.508,5.508,0,0,1,4.364-1.5,11.855,11.855,0,0,0,1.324-.034,17.911,17.911,0,0,0-.707-1.952A2.343,2.343,0,0,0,79.457-512C79.277-512,74.576-510.34,69.023-508.309Z" transform="translate(-51.116)" fill="#00d4b0"/>
    <path id="Path_21525" data-name="Path 21525" d="M240.29-453.787a2.1,2.1,0,0,0-1.122,1.156,9.483,9.483,0,0,0-.168,2.782v2.356h19.634v-2.356a9.483,9.483,0,0,0-.168-2.782,2.1,2.1,0,0,0-1.122-1.156c-.426-.2-.909-.213-8.527-.213S240.717-453.989,240.29-453.787Z" transform="translate(-212.062 -51.493)" fill="#00d4b0"/>
    <path id="Path_21526" data-name="Path 21526" d="M3.3-365.6a4.645,4.645,0,0,0-3.063,3.355c-.079.4-.112,5.643-.09,17.368L.18-328.1l.415.853a4.312,4.312,0,0,0,2.2,2.143l.752.359H49.108l.853-.415a4.312,4.312,0,0,0,2.143-2.2l.359-.752.034-4.342.034-4.342-4.746-.034c-4.611-.045-4.768-.045-5.531-.3a8.65,8.65,0,0,1-5.744-5.958,9.925,9.925,0,0,1,.067-4.376,8.131,8.131,0,0,1,2.2-3.658,6.374,6.374,0,0,1,2.076-1.537c1.851-.9,1.818-.9,7.046-.942l4.622-.056v-4.061c0-4.4-.045-4.869-.617-5.845a5.4,5.4,0,0,0-2.053-1.829l-.64-.3-22.719-.022C7.921-365.732,3.68-365.709,3.3-365.6Z" transform="translate(0 -129.865)" fill="#757ae9"/>
    <path id="Path_21527" data-name="Path 21527" d="M355.845-227.589a4.985,4.985,0,0,0-3.635,3.691,4.833,4.833,0,0,0,1.279,4.667,4.528,4.528,0,0,0,2.154,1.324c.628.2,1.122.213,6.844.213,6.788,0,6.687.011,7.18-.684l.269-.381v-3.949c0-3.8-.011-3.949-.236-4.252a3.059,3.059,0,0,0-.539-.539c-.3-.236-.438-.236-6.44-.258C357.214-227.78,356.507-227.758,355.845-227.589Zm1.84,3.321a1.761,1.761,0,0,1,1.032,1.963,1.789,1.789,0,0,1-1.212,1.189,1.659,1.659,0,0,1-1.6-.46,1.587,1.587,0,0,1-.079-2.188A1.519,1.519,0,0,1,357.685-224.268Z" transform="translate(-312.425 -252.345)" fill="#757ae9"/>
  </g>
</svg>
