<svg xmlns="http://www.w3.org/2000/svg" width="64.312" height="65.398" viewBox="0 0 64.312 65.398">
  <g id="cloud-mining" transform="translate(-24.098 487.764)">
    <path id="Path_21548" data-name="Path 21548" d="M53.474-487.589a13.355,13.355,0,0,0-6.53,3.493,4.1,4.1,0,0,1-1.178.887c-.152-.014-1.178-.055-2.287-.1a8.483,8.483,0,0,0-3.189.208,11.024,11.024,0,0,0-8.443,9.912c-.166,1.885-.222,1.927-2.26,2.038a4.9,4.9,0,0,0-3.923,1.567,4.813,4.813,0,0,0-1.553,3.688,4.858,4.858,0,0,0,.236,2.149c.471,1.317.568,1.345,1.3.3a7.641,7.641,0,0,1,9.316-2.523,7.787,7.787,0,0,1,4.173,4.741l.36,1.151h7.528l5.809-5.809c3.369-3.369,5.767-5.864,5.712-5.961-.347-.555-4.8-3.632-7.153-4.935-.8-.444-1.719-.957-2.052-1.137-.887-.5-1.054-1.289-.374-1.844.568-.471,5.906-.263,8.526.333a22.41,22.41,0,0,1,5.226,1.941l1.123.61.513-.527a5.6,5.6,0,0,1,1.234-.915,2.858,2.858,0,0,1,1.885-.4,3.175,3.175,0,0,1,1.761.319,4.383,4.383,0,0,1,1.927,1.858,2.966,2.966,0,0,1,.4,1.913,3.6,3.6,0,0,1-1.123,2.911l-.485.527.61.957a20.77,20.77,0,0,1,3.161,8.8l.166,1.359h8.969v3.327h2.218v-1.844l.014-1.83.749-.457a5.33,5.33,0,0,0,2.107-2.468,6.179,6.179,0,0,0,.236-3.965,5.438,5.438,0,0,0-2.967-3.4A4.376,4.376,0,0,0,83-471.12a7.529,7.529,0,0,1-1.761-.208c-.374-.18-.6-.873-.6-1.858a9.4,9.4,0,0,0-.277-1.8,11.193,11.193,0,0,0-8.179-8.11,8.376,8.376,0,0,0-3.175-.208c-1.109.042-2.135.083-2.274.1a4.132,4.132,0,0,1-1.206-.9,13.664,13.664,0,0,0-5.7-3.286A19.6,19.6,0,0,0,53.474-487.589Zm24.954,18.646v4.436H76.209v-8.872h2.218Zm6.654,5.268v3.05l-.374.152a5.761,5.761,0,0,1-1.109.222l-.735.083v-6.557h2.218Z" transform="translate(0 0)" fill="#757ae9"/>
    <path id="Path_21549" data-name="Path 21549" d="M239-415.929a9.39,9.39,0,0,0,1.151.776,52.816,52.816,0,0,1,8.761,7.139,51.378,51.378,0,0,1,7.153,8.8c.679,1.081.749,1.151.79.79a17.41,17.41,0,0,0-.818-4.492,18.975,18.975,0,0,0-14.847-12.865A6.063,6.063,0,0,0,239-415.929Z" transform="translate(-185.11 -61.831)" fill="#45c0a4"/>
    <path id="Path_21550" data-name="Path 21550" d="M325-407.695c-.749.513-.818.735-.347,1.1.236.18.915.8,1.539,1.4l1.109,1.081.291-.305a2.038,2.038,0,0,0,.6-1.594A1.889,1.889,0,0,0,326.162-408,1.9,1.9,0,0,0,325-407.695Z" transform="translate(-258.631 -68.707)" fill="#45c0a4"/>
    <path id="Path_21551" data-name="Path 21551" d="M271.47-361.03l-.97.97,1.5,1.5,1.483,1.483,1.04-1.054,1.054-1.04-1.456-1.414A16.993,16.993,0,0,0,272.552-362,7.114,7.114,0,0,0,271.47-361.03Z" transform="translate(-212.243 -108.33)" fill="#45c0a4"/>
    <path id="Path_21552" data-name="Path 21552" d="M152.165-329.14c-4.325,4.339-7.93,8.013-8.013,8.179a2.772,2.772,0,0,0-.152.97,1.947,1.947,0,0,0,.957,1.774,2.8,2.8,0,0,0,2.066.014c.208-.111,3.9-3.729,8.207-8.041l7.833-7.847-1.456-1.456c-.8-.8-1.483-1.456-1.525-1.456S156.477-333.465,152.165-329.14Z" transform="translate(-103.28 -129.864)" fill="#45c0a4"/>
    <path id="Path_21553" data-name="Path 21553" d="M277.411-327.089l-2.911,2.911h10.356l-.943-1.359A47.163,47.163,0,0,0,280.406-330C280.364-330,279.005-328.7,277.411-327.089Z" transform="translate(-215.689 -135.893)" fill="#45c0a4"/>
    <path id="Path_21554" data-name="Path 21554" d="M44.215-319.591a5.881,5.881,0,0,0-3.341,2.994,4.006,4.006,0,0,0-.374,2.357,4.1,4.1,0,0,0,.4,2.426,6.256,6.256,0,0,0,2.648,2.648,4.1,4.1,0,0,0,2.426.4,4.1,4.1,0,0,0,2.426-.4,6.256,6.256,0,0,0,2.648-2.648,4.1,4.1,0,0,0,.4-2.426,4.1,4.1,0,0,0-.4-2.426A6.149,6.149,0,0,0,48.4-319.3a4.025,4.025,0,0,0-2.218-.444A6.575,6.575,0,0,0,44.215-319.591Zm2.87,1.469v.555H49.3v2.218H46.336l1.414,1.442c1.456,1.469,1.622,1.788,1.275,2.44a1.863,1.863,0,0,1-1.469.555c-.457,0-.471.014-.471.555v.555H44.867v-1.109H42.649v-2.218h2.967L44.2-314.573c-1.456-1.47-1.622-1.788-1.275-2.44a1.863,1.863,0,0,1,1.469-.555c.457,0,.471-.014.471-.555v-.555h2.218Z" transform="translate(-14.128 -144.722)" fill="#757ae9"/>
    <path id="Path_21555" data-name="Path 21555" d="M388.569-239.715a6.863,6.863,0,0,0-4.325,4.436,8.858,8.858,0,0,0,0,3.909,6.775,6.775,0,0,0,4.367,4.436,8.569,8.569,0,0,0,4.02.042,6.709,6.709,0,0,0,4.409-4.311,8.274,8.274,0,0,0,.069-4.076,6.775,6.775,0,0,0-4.367-4.436A8.5,8.5,0,0,0,388.569-239.715Zm3.216,2.509v.555H394v2.218h-2.967l1.414,1.442c1.456,1.469,1.622,1.788,1.275,2.44a1.863,1.863,0,0,1-1.469.555c-.457,0-.471.014-.471.555v.555h-2.218V-230h-2.218v-2.218h2.967l-1.414-1.442c-1.456-1.469-1.622-1.788-1.275-2.44a1.863,1.863,0,0,1,1.469-.555c.457,0,.471-.014.471-.555v-.555h2.218Z" transform="translate(-310.03 -213.438)" fill="#757ae9"/>
    <path id="Path_21556" data-name="Path 21556" d="M216-196.673v3.327h2.218V-200H216Z" transform="translate(-165.299 -247.871)" fill="#757ae9"/>
    <path id="Path_21557" data-name="Path 21557" d="M256-147.009v4.991h2.218V-152H256Z" transform="translate(-199.753 -289.217)" fill="#757ae9"/>
    <path id="Path_21558" data-name="Path 21558" d="M140.569-111.715a6.863,6.863,0,0,0-4.325,4.436,8.858,8.858,0,0,0,0,3.909,6.775,6.775,0,0,0,4.367,4.436,8.569,8.569,0,0,0,4.02.042,6.71,6.71,0,0,0,4.408-4.311,8.274,8.274,0,0,0,.069-4.076,6.775,6.775,0,0,0-4.367-4.436A8.5,8.5,0,0,0,140.569-111.715Zm3.216,2.509v.555H146v2.218h-2.967l1.414,1.442c1.456,1.469,1.622,1.788,1.275,2.44a1.863,1.863,0,0,1-1.469.555c-.457,0-.471.014-.471.555v.555h-2.218V-102h-2.218v-2.218h2.967l-1.414-1.442c-1.456-1.469-1.622-1.788-1.275-2.44a1.863,1.863,0,0,1,1.469-.555c.457,0,.471-.014.471-.555v-.555h2.218Z" transform="translate(-96.411 -323.693)" fill="#757ae9"/>
  </g>
</svg>
