<svg xmlns="http://www.w3.org/2000/svg" xmlns:xlink="http://www.w3.org/1999/xlink" width="145" height="145" viewBox="0 0 145 145">
  <defs>
    <linearGradient id="linear-gradient" x1="0.5" x2="0.5" y2="1" gradientUnits="objectBoundingBox">
      <stop offset="0" stop-color="#16becf"/>
      <stop offset="0.522" stop-color="#32eab7"/>
      <stop offset="1" stop-color="#3fffac"/>
    </linearGradient>
    <filter id="Ellipse_75" x="0" y="0" width="145" height="145" filterUnits="userSpaceOnUse">
      <feOffset dy="3" input="SourceAlpha"/>
      <feGaussianBlur stdDeviation="5" result="blur"/>
      <feFlood flood-opacity="0.078"/>
      <feComposite operator="in" in2="blur"/>
      <feComposite in="SourceGraphic"/>
    </filter>
  </defs>
  <g id="_1" data-name="1" transform="translate(-13657 -622)">
    <g transform="matrix(1, 0, 0, 1, 13657, 622)" filter="url(#Ellipse_75)">
      <circle id="Ellipse_75-2" data-name="Ellipse 75" cx="57.5" cy="57.5" r="57.5" transform="translate(15 12)" fill="url(#linear-gradient)"/>
    </g>
    <g id="bitcoin-wallet" transform="translate(13693.86 1167.732)">
      <path id="Path_1844" data-name="Path 1844" d="M34.531-503.695a18.649,18.649,0,0,0-3.16.745,13.624,13.624,0,0,0-5.428,3.464,13.624,13.624,0,0,0-3.464,5.428,12.237,12.237,0,0,0-.756,4.706v1.839h-4.4c-4.773,0-5.1.034-6.286.632A5.733,5.733,0,0,0,8.248-483.2c-.09.418-.124,5.281-.1,16.3l.034,15.686.418.858a4.337,4.337,0,0,0,2.212,2.155l.756.361H60.655l.756-.361a4.337,4.337,0,0,0,2.212-2.155l.418-.858.034-16.927c.023-13.147,0-17.051-.113-17.446a3.244,3.244,0,0,0-1.738-1.783,52.854,52.854,0,0,0-6.094-.135H50.5v-1.839a12.237,12.237,0,0,0-.756-4.706,13.794,13.794,0,0,0-3.464-5.428,14.112,14.112,0,0,0-7.121-3.95A22.14,22.14,0,0,0,34.531-503.695Zm3.5,1.907a12.426,12.426,0,0,1,7,3.555,12.722,12.722,0,0,1,3.611,7.279,12.763,12.763,0,0,1-5.18,11.883l-.835.587H36.111v-1.806h-.384a8.535,8.535,0,0,1-1.219-.158,9.07,9.07,0,0,1-7.392-8.114l-.068-.756H25.243l.079.891a10.9,10.9,0,0,0,8.9,9.773c.767.147.677.147-1.907.158l-2.72.011-.824-.587a12.626,12.626,0,0,1-3.995-15.81,12.659,12.659,0,0,1,5.563-5.654A12.326,12.326,0,0,1,38.029-501.788ZM22.456-484.668a14.033,14.033,0,0,0,3.182,5.225l.914.971-6.985-.034-6.985-.034-.576-.3a3.285,3.285,0,0,1-1.636-1.58A2.5,2.5,0,0,1,10-482.1a3,3,0,0,1,.271-1.523,3.8,3.8,0,0,1,2.426-1.986c.192-.045,2.381-.068,4.886-.068l4.548.023Zm39.553-.756.282.271v6.8l-.248-.068c-.147-.034-3.882-.068-8.317-.068H45.669l.925-.959a14.542,14.542,0,0,0,3.464-6.128c.034-.1,1.3-.135,5.857-.135h5.823ZM11.7-476.995l.655.26,24.748.056,24.759.056.214.271c.2.248.214.485.214,3.577v3.318H58.364a24.934,24.934,0,0,0-4.593.169,5.522,5.522,0,0,0-3.95,3.972,5.436,5.436,0,0,0,3.95,6.523,24.928,24.928,0,0,0,4.593.169h3.927v3.34a25.678,25.678,0,0,1-.135,3.814,3.352,3.352,0,0,1-1.738,1.738c-.677.2-47.938.2-48.615,0a3.352,3.352,0,0,1-1.738-1.738c-.1-.35-.135-3.6-.135-13.508v-13.045l.564.384A8.794,8.794,0,0,0,11.7-476.995Zm50.59,12.966v3.611l-4.085-.034-4.1-.034-.576-.3a3.285,3.285,0,0,1-1.636-1.58,2.5,2.5,0,0,1-.372-1.67,3,3,0,0,1,.271-1.523,3.8,3.8,0,0,1,2.426-1.986c.192-.045,2.076-.079,4.209-.09l3.859-.011Z" transform="translate(0)" fill="#fff"/>
      <path id="Path_1845" data-name="Path 1845" d="M256-471.108v.88l.767.068a9.106,9.106,0,0,1,6.8,4.119,9.126,9.126,0,0,1,1.422,4.108l.068.767h1.806l-.079-.891a11.22,11.22,0,0,0-.846-3.385,11.275,11.275,0,0,0-6.184-5.879A12.937,12.937,0,0,0,256.44-472H256Z" transform="translate(-219.889 -28.151)" fill="#fff"/>
      <path id="Path_1846" data-name="Path 1846" d="M211.611-447.1v.9H208v1.806h1.806v9.028H208v1.806h3.611v1.806h1.806v-1.806h.9v1.806h1.806v-1.783l.53-.079a4.386,4.386,0,0,0,1.918-.892,4.436,4.436,0,0,0,.722-.993,2.628,2.628,0,0,0,.384-1.614,2.944,2.944,0,0,0-.293-1.523,5.422,5.422,0,0,0-.6-.937l-.3-.3.3-.316a4.88,4.88,0,0,0,.6-.925,2.945,2.945,0,0,0,.293-1.523,2.628,2.628,0,0,0-.384-1.614,4.437,4.437,0,0,0-.722-.993,4.386,4.386,0,0,0-1.918-.891l-.53-.079V-448H214.32v1.806h-.9V-448h-1.806Zm5.484,3a1.593,1.593,0,0,1,.779,1.512,1.593,1.593,0,0,1-.779,1.512c-.282.226-.485.237-2.9.271l-2.584.034V-444.4l2.584.034C216.61-444.332,216.813-444.321,217.1-444.1Zm0,5.417a1.593,1.593,0,0,1,.779,1.512,1.593,1.593,0,0,1-.779,1.512c-.282.226-.485.237-2.9.271l-2.584.034v-3.634l2.584.034C216.61-438.916,216.813-438.9,217.1-438.679Z" transform="translate(-177.306 -49.443)" fill="#fff"/>
      <path id="Path_1847" data-name="Path 1847" d="M401.79-175.8a3.6,3.6,0,0,0-1.67,1.727,2.472,2.472,0,0,0,.711,2.7,2.44,2.44,0,0,0,3.724,0,2.485,2.485,0,0,0,.09-3.668A2.649,2.649,0,0,0,401.79-175.8Zm1.523,1.941a.891.891,0,0,1-.621,1.523.953.953,0,0,1-.9-.9.953.953,0,0,1,.9-.9A.88.88,0,0,1,403.313-173.863Z" transform="translate(-347.623 -290.798)" fill="#fff"/>
    </g>
    <g id="bitcoin-wallet-2" data-name="bitcoin-wallet" transform="translate(13693.86 1167.732)">
      <path id="Path_1844-2" data-name="Path 1844" d="M34.531-503.695a18.649,18.649,0,0,0-3.16.745,13.624,13.624,0,0,0-5.428,3.464,13.624,13.624,0,0,0-3.464,5.428,12.237,12.237,0,0,0-.756,4.706v1.839h-4.4c-4.773,0-5.1.034-6.286.632A5.733,5.733,0,0,0,8.248-483.2c-.09.418-.124,5.281-.1,16.3l.034,15.686.418.858a4.337,4.337,0,0,0,2.212,2.155l.756.361H60.655l.756-.361a4.337,4.337,0,0,0,2.212-2.155l.418-.858.034-16.927c.023-13.147,0-17.051-.113-17.446a3.244,3.244,0,0,0-1.738-1.783,52.854,52.854,0,0,0-6.094-.135H50.5v-1.839a12.237,12.237,0,0,0-.756-4.706,13.794,13.794,0,0,0-3.464-5.428,14.112,14.112,0,0,0-7.121-3.95A22.14,22.14,0,0,0,34.531-503.695Zm3.5,1.907a12.426,12.426,0,0,1,7,3.555,12.722,12.722,0,0,1,3.611,7.279,12.763,12.763,0,0,1-5.18,11.883l-.835.587H36.111v-1.806h-.384a8.535,8.535,0,0,1-1.219-.158,9.07,9.07,0,0,1-7.392-8.114l-.068-.756H25.243l.079.891a10.9,10.9,0,0,0,8.9,9.773c.767.147.677.147-1.907.158l-2.72.011-.824-.587a12.626,12.626,0,0,1-3.995-15.81,12.659,12.659,0,0,1,5.563-5.654A12.326,12.326,0,0,1,38.029-501.788ZM22.456-484.668a14.033,14.033,0,0,0,3.182,5.225l.914.971-6.985-.034-6.985-.034-.576-.3a3.285,3.285,0,0,1-1.636-1.58A2.5,2.5,0,0,1,10-482.1a3,3,0,0,1,.271-1.523,3.8,3.8,0,0,1,2.426-1.986c.192-.045,2.381-.068,4.886-.068l4.548.023Zm39.553-.756.282.271v6.8l-.248-.068c-.147-.034-3.882-.068-8.317-.068H45.669l.925-.959a14.542,14.542,0,0,0,3.464-6.128c.034-.1,1.3-.135,5.857-.135h5.823ZM11.7-476.995l.655.26,24.748.056,24.759.056.214.271c.2.248.214.485.214,3.577v3.318H58.364a24.934,24.934,0,0,0-4.593.169,5.522,5.522,0,0,0-3.95,3.972,5.436,5.436,0,0,0,3.95,6.523,24.928,24.928,0,0,0,4.593.169h3.927v3.34a25.678,25.678,0,0,1-.135,3.814,3.352,3.352,0,0,1-1.738,1.738c-.677.2-47.938.2-48.615,0a3.352,3.352,0,0,1-1.738-1.738c-.1-.35-.135-3.6-.135-13.508v-13.045l.564.384A8.794,8.794,0,0,0,11.7-476.995Zm50.59,12.966v3.611l-4.085-.034-4.1-.034-.576-.3a3.285,3.285,0,0,1-1.636-1.58,2.5,2.5,0,0,1-.372-1.67,3,3,0,0,1,.271-1.523,3.8,3.8,0,0,1,2.426-1.986c.192-.045,2.076-.079,4.209-.09l3.859-.011Z" transform="translate(0)" fill="#fff"/>
      <path id="Path_1845-2" data-name="Path 1845" d="M256-471.108v.88l.767.068a9.106,9.106,0,0,1,6.8,4.119,9.126,9.126,0,0,1,1.422,4.108l.068.767h1.806l-.079-.891a11.22,11.22,0,0,0-.846-3.385,11.275,11.275,0,0,0-6.184-5.879A12.937,12.937,0,0,0,256.44-472H256Z" transform="translate(-219.889 -28.151)" fill="#fff"/>
      <path id="Path_1846-2" data-name="Path 1846" d="M211.611-447.1v.9H208v1.806h1.806v9.028H208v1.806h3.611v1.806h1.806v-1.806h.9v1.806h1.806v-1.783l.53-.079a4.386,4.386,0,0,0,1.918-.892,4.436,4.436,0,0,0,.722-.993,2.628,2.628,0,0,0,.384-1.614,2.944,2.944,0,0,0-.293-1.523,5.422,5.422,0,0,0-.6-.937l-.3-.3.3-.316a4.88,4.88,0,0,0,.6-.925,2.945,2.945,0,0,0,.293-1.523,2.628,2.628,0,0,0-.384-1.614,4.437,4.437,0,0,0-.722-.993,4.386,4.386,0,0,0-1.918-.891l-.53-.079V-448H214.32v1.806h-.9V-448h-1.806Zm5.484,3a1.593,1.593,0,0,1,.779,1.512,1.593,1.593,0,0,1-.779,1.512c-.282.226-.485.237-2.9.271l-2.584.034V-444.4l2.584.034C216.61-444.332,216.813-444.321,217.1-444.1Zm0,5.417a1.593,1.593,0,0,1,.779,1.512,1.593,1.593,0,0,1-.779,1.512c-.282.226-.485.237-2.9.271l-2.584.034v-3.634l2.584.034C216.61-438.916,216.813-438.9,217.1-438.679Z" transform="translate(-177.306 -49.443)" fill="#fff"/>
      <path id="Path_1847-2" data-name="Path 1847" d="M401.79-175.8a3.6,3.6,0,0,0-1.67,1.727,2.472,2.472,0,0,0,.711,2.7,2.44,2.44,0,0,0,3.724,0,2.485,2.485,0,0,0,.09-3.668A2.649,2.649,0,0,0,401.79-175.8Zm1.523,1.941a.891.891,0,0,1-.621,1.523.953.953,0,0,1-.9-.9.953.953,0,0,1,.9-.9A.88.88,0,0,1,403.313-173.863Z" transform="translate(-347.623 -290.798)" fill="#fff"/>
    </g>
  </g>
</svg>
