<svg xmlns="http://www.w3.org/2000/svg" xmlns:xlink="http://www.w3.org/1999/xlink" width="145" height="145" viewBox="0 0 145 145">
  <defs>
    <linearGradient id="linear-gradient" x1="0.5" x2="0.5" y2="1" gradientUnits="objectBoundingBox">
      <stop offset="0" stop-color="#16becf"/>
      <stop offset="0.522" stop-color="#32eab7"/>
      <stop offset="1" stop-color="#3fffac"/>
    </linearGradient>
    <filter id="Ellipse_78" x="0" y="0" width="145" height="145" filterUnits="userSpaceOnUse">
      <feOffset dy="3" input="SourceAlpha"/>
      <feGaussianBlur stdDeviation="5" result="blur"/>
      <feFlood flood-opacity="0.078"/>
      <feComposite operator="in" in2="blur"/>
      <feComposite in="SourceGraphic"/>
    </filter>
  </defs>
  <g id="_2" data-name="2" transform="translate(-14176 -622)">
    <g transform="matrix(1, 0, 0, 1, 14176, 622)" filter="url(#Ellipse_78)">
      <circle id="Ellipse_78-2" data-name="Ellipse 78" cx="57.5" cy="57.5" r="57.5" transform="translate(15 12)" fill="url(#linear-gradient)"/>
    </g>
    <g id="crypto" transform="translate(14213.951 1168.948)">
      <path id="Path_1848" data-name="Path 1848" d="M33.558-511.668a4.082,4.082,0,0,0-2.5,3.675,4.137,4.137,0,0,0,2.391,3.634l.615.232v10.056l-.642.082c-.724.1-2.528.437-3.006.56-.314.082-.314.082-.314-1.489,0-1.339-.041-1.612-.26-1.886l-.26-.328-4.249-.041-4.249-.041v-2.118l.683-.314a4.613,4.613,0,0,0,1.284-.984,3.69,3.69,0,0,0,1.011-2.91,3.746,3.746,0,0,0-2.186-3.211,3.166,3.166,0,0,0-1.749-.424,3.878,3.878,0,0,0-3.921,3.607,3.991,3.991,0,0,0,2.268,3.908l.7.314v1.749c0,1.5.041,1.776.26,2.05l.26.328,4.249.041,4.249.041v2.541l-.71.328a17.393,17.393,0,0,0-7.515,7.31l-.588,1.148H16.861l-.041-4.249-.041-4.249-.328-.26c-.273-.219-.547-.26-2.049-.26H12.653l-.314-.7a3.948,3.948,0,0,0-4.946-2.036,3.622,3.622,0,0,0-2.145,1.94,3.919,3.919,0,0,0,1.817,5.329,4.288,4.288,0,0,0,2.924.191,4.534,4.534,0,0,0,2.364-2.145l.314-.683,1.093.041,1.107.041.027,4.236c.041,5.137-.15,4.714,2.186,4.714,1.571,0,1.571,0,1.489.3-.123.492-.465,2.3-.56,3.006l-.082.656H7.871l-.232-.615a4.148,4.148,0,0,0-2.2-2.1,3.959,3.959,0,0,0-5.028,5.329A4.013,4.013,0,0,0,5.4-473.288a4.158,4.158,0,0,0,2.241-2.118l.232-.615H17.927l.082.656c.1.71.437,2.514.56,3.006.082.3.082.3-1.489.3-2.336,0-2.145-.424-2.186,4.714l-.027,4.236-1.107.041-1.093.041-.314-.683a4.533,4.533,0,0,0-2.364-2.145,4.135,4.135,0,0,0-3.115.3A3.592,3.592,0,0,0,5.125-463.6,3.977,3.977,0,0,0,6.313-459a4.526,4.526,0,0,0,2.473.874,4.14,4.14,0,0,0,3.552-2.309l.314-.7h1.694a8.431,8.431,0,0,0,1.954-.137c.478-.26.547-.875.547-4.932v-3.949H19.4l.328.71a17.69,17.69,0,0,0,7.747,7.747l.71.328v2.541l-4.249.041-4.249.041-.26.328c-.219.273-.26.546-.26,2.049v1.749l-.7.314a4.14,4.14,0,0,0-2.309,3.552,4.582,4.582,0,0,0,.861,2.473,4.017,4.017,0,0,0,4.618,1.189,3.592,3.592,0,0,0,1.954-1.749,4.135,4.135,0,0,0,.3-3.115,4.534,4.534,0,0,0-2.145-2.364l-.683-.314.041-1.093.041-1.107,4.236-.027c5.137-.041,4.714.15,4.714-2.186,0-1.571,0-1.571.314-1.489.478.123,2.282.464,3.006.56l.642.082v10.029l-.615.26a4.12,4.12,0,0,0-2.391,3.634,4.186,4.186,0,0,0,2.323,3.607,4.672,4.672,0,0,0,3.279,0,4.186,4.186,0,0,0,2.323-3.607,4.12,4.12,0,0,0-2.391-3.634l-.615-.26v-10.029l.656-.082c.71-.1,2.514-.437,3.006-.56.3-.082.3-.082.3,1.489,0,2.336-.424,2.145,4.714,2.186l4.236.027.041,1.107.041,1.093-.683.314a4.534,4.534,0,0,0-2.145,2.364,4.135,4.135,0,0,0,.3,3.115,3.592,3.592,0,0,0,1.954,1.749,3.977,3.977,0,0,0,4.6-1.189,4.527,4.527,0,0,0,.874-2.473,4.176,4.176,0,0,0-2.323-3.566l-.683-.314v-1.735c0-1.5-.041-1.776-.26-2.049l-.26-.328-4.249-.041-4.249-.041v-2.541l.71-.328a17.69,17.69,0,0,0,7.747-7.747l.328-.71h2.555v3.949c0,4.058.068,4.673.547,4.932a8.432,8.432,0,0,0,1.954.137h1.694l.314.7a4.14,4.14,0,0,0,3.552,2.309A4.526,4.526,0,0,0,63.726-459a3.977,3.977,0,0,0,1.189-4.6,3.564,3.564,0,0,0-1.763-1.954,3.988,3.988,0,0,0-3.279-.232,4.477,4.477,0,0,0-2.254,2.2l-.219.56-1.12-.041-1.107-.041-.027-4.236c-.041-5.137.15-4.714-2.186-4.714-1.571,0-1.571,0-1.489-.314.123-.478.465-2.282.56-2.992l.082-.656H62.168l.232.588a4.007,4.007,0,0,0,4.8,2.213,4.226,4.226,0,0,0,2.582-2.528,3.658,3.658,0,0,0-.984-3.962,3.685,3.685,0,0,0-2.842-1.23,4.147,4.147,0,0,0-3.552,2.391l-.232.615H52.112l-.082-.656c-.1-.711-.437-2.514-.56-3.006-.082-.3-.082-.3,1.489-.3,2.336,0,2.145.424,2.186-4.714l.027-4.236,1.107-.041,1.093-.041.314.683a4.534,4.534,0,0,0,2.364,2.145,4.135,4.135,0,0,0,3.115-.3,3.592,3.592,0,0,0,1.749-1.954,4.017,4.017,0,0,0-1.189-4.618,4.581,4.581,0,0,0-2.473-.861,4.14,4.14,0,0,0-3.552,2.309l-.314.7H55.637c-1.5,0-1.776.041-2.049.26l-.328.26-.041,4.249-.041,4.249H50.637l-.328-.711a17.69,17.69,0,0,0-7.747-7.747l-.71-.328v-2.692h4.236c5.219,0,4.782.2,4.782-2.3v-1.763l.7-.314a4.14,4.14,0,0,0,2.309-3.552,4.582,4.582,0,0,0-.861-2.473,4.017,4.017,0,0,0-4.618-1.189,3.592,3.592,0,0,0-1.954,1.749,4.135,4.135,0,0,0-.3,3.115,4.534,4.534,0,0,0,2.145,2.364l.683.314-.041,1.093-.041,1.107-4.236.027c-5.137.041-4.714-.15-4.714,2.186,0,1.571,0,1.571-.3,1.489-.492-.123-2.3-.465-3.006-.56l-.656-.082v-10.056l.615-.232a4.147,4.147,0,0,0,2.1-2.2A3.957,3.957,0,0,0,33.558-511.668Zm2.651,2.009a2.045,2.045,0,0,1,.82,1.885,1.971,1.971,0,0,1-2.227,1.79,2.012,2.012,0,0,1-.792-3.757A2.121,2.121,0,0,1,36.208-509.66Zm-14.975,4.714a2,2,0,0,1-.164,3.484,2.015,2.015,0,0,1-2.733-2.705A2.027,2.027,0,0,1,21.234-504.946Zm29.772-.014a2.03,2.03,0,0,1,0,3.416,2.05,2.05,0,0,1-3.143-1.694A2.072,2.072,0,0,1,51.006-504.959ZM9.756-493.619a2.361,2.361,0,0,1,1.079,1.749,2.361,2.361,0,0,1-1.079,1.749,2,2,0,0,1-3.02-1.749A2,2,0,0,1,9.756-493.619Zm52.726.109a2.085,2.085,0,0,1,.506,2.746,2,2,0,0,1-3.47-.15,1.677,1.677,0,0,1-.041-1.845A2.028,2.028,0,0,1,62.483-493.51Zm-23.938,1.763a15.205,15.205,0,0,1,10.029,21.533,16.363,16.363,0,0,1-4.523,5.411,15.238,15.238,0,0,1-17.571.355,19.133,19.133,0,0,1-3.88-3.839,15.312,15.312,0,0,1-2.282-12.447,15.892,15.892,0,0,1,5.042-7.925,15.722,15.722,0,0,1,7.679-3.4A24.4,24.4,0,0,1,38.545-491.747Zm-33.352,13.1a2.044,2.044,0,0,1,.82,1.885,2.012,2.012,0,0,1-3.757.792,2.049,2.049,0,0,1,.82-2.842A2.323,2.323,0,0,1,5.193-478.644Zm61.744-.164a2.038,2.038,0,0,1,.027,3.621,2,2,0,0,1-2.938-2.008A2.017,2.017,0,0,1,66.937-478.808ZM9.989-463.738a2.255,2.255,0,0,1,.792,1.981,2.112,2.112,0,0,1-2.213,1.681A2.034,2.034,0,0,1,7.83-463.9,2.29,2.29,0,0,1,9.989-463.738Zm52.221-.15a2.034,2.034,0,0,1,.9,2.678,2,2,0,0,1-2.8.874,1.92,1.92,0,0,1-.806-2.692A1.965,1.965,0,0,1,62.209-463.888ZM21.083-452.479a2,2,0,0,1,.15,3.47,2.085,2.085,0,0,1-2.746-.506,2.035,2.035,0,0,1,.738-3.006A1.7,1.7,0,0,1,21.083-452.479ZM50.8-452.52a2.019,2.019,0,0,1,.751,3.006,2.085,2.085,0,0,1-2.746.506,2.009,2.009,0,0,1,.15-3.484A1.7,1.7,0,0,1,50.8-452.52Zm-14.879,4.727a2.025,2.025,0,0,1,.109,3.566,2,2,0,0,1-3.02-1.886A2.008,2.008,0,0,1,35.922-447.793Z" transform="translate(0 0)" fill="#fff"/>
      <path id="Path_1849" data-name="Path 1849" d="M210.133-332.663c-.246.246-.273.451-.273,1.776v1.5h-1.5c-1.421,0-1.53.014-1.845.342-.669.656-.2,1.571.792,1.571h.506v10.111h-.519c-.984,0-1.448.915-.779,1.571.314.328.424.342,1.845.342h1.5v1.5c0,1.325.027,1.53.273,1.776a.87.87,0,0,0,1.3-.068c.314-.314.342-.424.342-1.776v-1.435h1.913v1.5c0,1.325.027,1.53.273,1.776a.881.881,0,0,0,1.243.014c.3-.246.328-.383.369-1.762l.055-1.5.683-.082a4.122,4.122,0,0,0,3.293-2.692,3.613,3.613,0,0,0-1-3.976l-.806-.792.369-.711a4.03,4.03,0,0,0,0-3.457,3.97,3.97,0,0,0-1.913-1.844l-.628-.273-.055-1.585c-.041-1.476-.068-1.6-.369-1.845a.881.881,0,0,0-1.243.014c-.246.246-.273.451-.273,1.776v1.5h-1.913v-1.435c0-1.353-.027-1.462-.342-1.776A.87.87,0,0,0,210.133-332.663Zm5.547,5.547a1.912,1.912,0,0,1,.738,2.582c-.519,1.066-.861,1.161-4.031,1.161h-2.664v-4.113l2.787.041C215.079-327.4,215.339-327.375,215.681-327.115Zm1.216,5.971a1.976,1.976,0,0,1,.519,2.979c-.642.751-.929.806-4.482.806h-3.211v-4.1h3.32C216.213-321.459,216.377-321.445,216.9-321.145Z" transform="translate(-177.983 -154.562)" fill="#fff"/>
    </g>
  </g>
</svg>
