<svg xmlns="http://www.w3.org/2000/svg" xmlns:xlink="http://www.w3.org/1999/xlink" width="244.773" height="500" viewBox="0 0 244.773 500"><defs><style>.a{fill:#1a1b1d;}.b{clip-path:url(#a);}.c{fill:#1b5aa6;}.d{fill:#349ddc;}.e{fill:#4ec5ff;}.f{fill:url(#b);}</style><clipPath id="a"><path class="a" d="M244.773,500H0V0H244.773Z" transform="translate(0 0)"/></clipPath><linearGradient id="b" x1="0.921" y1="0.507" x2="0.157" y2="-0.061" gradientUnits="objectBoundingBox"><stop offset="0" stop-color="#3fffac"/><stop offset="1" stop-color="#73caff" stop-opacity="0"/></linearGradient></defs><g class="b"><g transform="translate(-273.205 -24.823)"><g transform="translate(0 0)"><g transform="translate(0 0)"><path class="c" d="M242.277,2290.115,23.071,2355.926,24.221,2662,226.5,2560.346Z" transform="translate(229.82 -2187.075)"/><path class="d" d="M446.885,2285.562,240.73,2234.6,22.963,2281.936l205.015,69.621Z" transform="translate(25.312 -2182.523)"/><path class="e" d="M465.6,2355.641,260.68,2286.1,277.172,2556l189.384,105.512Z" transform="translate(-212.591 -2186.747)"/><g transform="translate(546.409 401.45) rotate(166)"><path class="f" d="M410.905,413.74,187.56,406.856,0,307.469,80.348,48.9,301.844,0,459.98,147.629Z" transform="translate(0)"/></g></g></g></g></g></svg>