<svg xmlns="http://www.w3.org/2000/svg" xmlns:xlink="http://www.w3.org/1999/xlink" width="480" height="27.968" viewBox="0 0 480 27.968"><defs><linearGradient id="a" x1="0.921" y1="0.493" x2="0.157" y2="1.061" gradientUnits="objectBoundingBox"><stop offset="0" stop-color="#3fffac"/><stop offset="1" stop-color="#73caff" stop-opacity="0"/></linearGradient></defs><g transform="translate(-721 -4453.146)"><line x2="480" transform="translate(721 4467.5)" fill="none" stroke="#16becf" stroke-width="2"/><g transform="translate(284.5 2349.271)"><g transform="translate(662 2103.875)"><path d="M23.071,2290.114l11.957,3.59-.063,16.7-11.034-5.545Z" transform="translate(-19.018 -2284.493)" fill="#1b5aa6"/><path d="M22.963,2237.379l11.245-2.78,11.879,2.582-11.183,3.8Z" transform="translate(-18.915 -2231.758)" fill="#349ddc"/><path d="M260.732,2289.889l11.178-3.793-.9,14.723-10.331,5.755Z" transform="translate(-244.727 -2280.677)" fill="#4ec5ff"/><g transform="translate(5.46 0) rotate(14)"><path d="M22.414,0,10.231.376,0,5.8,4.383,19.9l12.082,2.667,8.626-8.053Z" transform="translate(0 0)" fill="url(#a)"/></g></g></g></g></svg>