<svg xmlns="http://www.w3.org/2000/svg" xmlns:xlink="http://www.w3.org/1999/xlink" width="244.773" height="500" viewBox="0 0 244.773 500"><defs><style>.a{fill:#1a1b1d;}.b{clip-path:url(#a);}.c{fill:#1b5aa6;}.d{fill:#349ddc;}.e{fill:#4ec5ff;}.f{fill:url(#b);}</style><clipPath id="a"><path class="a" d="M0,500H244.773V0H0Z" transform="translate(513.337 4140.507)"/></clipPath><linearGradient id="b" x1="0.921" y1="0.493" x2="0.157" y2="1.061" gradientUnits="objectBoundingBox"><stop offset="0" stop-color="#3fffac"/><stop offset="1" stop-color="#73caff" stop-opacity="0"/></linearGradient></defs><g class="b" transform="translate(-513.337 -4140.507)"><g transform="translate(484.906 4115.685)"><g transform="translate(0 0)"><g transform="translate(0 0)"><path class="c" d="M23.071,2290.115l219.205,65.811L241.127,2662,38.845,2560.347Z" transform="translate(51.241 -2187.075)"/><path class="d" d="M22.963,2285.562,229.118,2234.6l217.767,47.339L241.87,2351.557Z" transform="translate(51.25 -2182.523)"/><path class="e" d="M261.639,2355.641,466.556,2286.1,450.064,2556,260.68,2661.513Z" transform="translate(31.764 -2186.747)"/><g transform="translate(100.093 0) rotate(14)"><path class="f" d="M410.905,0,187.56,6.885,0,106.271,80.348,364.843l221.5,48.9L459.98,266.111Z" transform="translate(0 0)"/></g></g></g></g></g></svg>