<svg xmlns="http://www.w3.org/2000/svg" xmlns:xlink="http://www.w3.org/1999/xlink" width="1920" height="740" viewBox="0 0 1920 740"><defs><style>.a{fill:#212224;}.b{clip-path:url(#a);}.c{opacity:0.08;mix-blend-mode:luminosity;isolation:isolate;}.d{fill:#1b5aa6;}.e{fill:#349ddc;}.f{fill:#4ec5ff;}.g{fill:url(#b);}</style><clipPath id="a"><rect class="a" width="1920" height="740" transform="translate(0 4598)"/></clipPath><linearGradient id="b" x1="0.921" y1="0.493" x2="0.157" y2="1.061" gradientUnits="objectBoundingBox"><stop offset="0" stop-color="#3fffac"/><stop offset="1" stop-color="#73caff" stop-opacity="0"/></linearGradient></defs><g transform="translate(0 -4598)"><rect class="a" width="1920" height="740" transform="translate(0 4598)"/><g class="b"><g class="c" transform="translate(558 1533)"><g transform="translate(255.325 3499.4)"><g transform="translate(0 0)"><path class="d" d="M23.071,2290.114l131.054,39.346-.687,182.989L32.5,2451.674Z" transform="translate(21.357 -2228.51)"/><path class="e" d="M22.963,2265.069l123.251-30.47,130.194,28.3-122.57,41.624Z" transform="translate(21.405 -2203.466)"/><path class="f" d="M261.253,2327.673,383.764,2286.1,373.9,2447.46,260.68,2510.542Z" transform="translate(-85.84 -2226.699)"/><g transform="translate(59.841 0) rotate(14)"><path class="g" d="M245.663,0,112.134,4.116,0,63.535,48.037,218.124l132.423,29.234L275,159.1Z" transform="translate(0 0)"/></g></g></g></g><g class="c" transform="translate(952 1219)"><g transform="translate(255.325 3499.4)"><g transform="translate(0 0)"><path class="d" d="M23.071,2290.114l51.987,15.608-.273,72.589L26.812,2354.2Z" transform="translate(-5.447 -2265.677)"/><path class="e" d="M22.963,2246.686,71.855,2234.6l51.646,11.227L74.88,2262.337Z" transform="translate(-5.363 -2222.249)"/><path class="f" d="M260.907,2302.59l48.6-16.493-3.911,64.011-44.915,25.024Z" transform="translate(-191.323 -2262.534)"/><g transform="translate(23.738) rotate(14)"><path class="g" d="M97.451,0,44.482,1.633,0,25.2,19.056,86.527l52.53,11.6,37.5-35.012Z" transform="translate(0 0)"/></g></g></g></g><g class="c" transform="translate(-147 1203)"><g transform="translate(255.325 3499.4)"><g transform="translate(0 0)"><path class="d" d="M23.071,2290.114l131.054,39.346-.687,182.989L32.5,2451.674Z" transform="translate(21.357 -2228.51)"/><path class="e" d="M22.963,2265.069l123.251-30.47,130.194,28.3-122.57,41.624Z" transform="translate(21.405 -2203.466)"/><path class="f" d="M261.253,2327.673,383.764,2286.1,373.9,2447.46,260.68,2510.542Z" transform="translate(-85.84 -2226.699)"/><g transform="translate(59.841 0) rotate(14)"><path class="g" d="M245.663,0,112.134,4.116,0,63.535,48.037,218.124l132.423,29.234L275,159.1Z" transform="translate(0 0)"/></g></g></g></g><g class="c" transform="translate(1528 1114)"><g transform="translate(255.325 3499.4)"><g transform="translate(0 0)"><path class="d" d="M23.071,2290.114l131.054,39.346-.687,182.989L32.5,2451.674Z" transform="translate(21.357 -2228.51)"/><path class="e" d="M22.963,2265.069l123.251-30.47,130.194,28.3-122.57,41.624Z" transform="translate(21.405 -2203.466)"/><path class="f" d="M261.253,2327.673,383.764,2286.1,373.9,2447.46,260.68,2510.542Z" transform="translate(-85.84 -2226.699)"/><g transform="translate(59.841 0) rotate(14)"><path class="g" d="M245.663,0,112.134,4.116,0,63.535,48.037,218.124l132.423,29.234L275,159.1Z" transform="translate(0 0)"/></g></g></g></g><g class="c" transform="translate(1398 1625)"><g transform="translate(255.325 3499.4)"><g transform="translate(0 0)"><path class="d" d="M23.071,2290.114l51.987,15.608-.273,72.589L26.812,2354.2Z" transform="translate(-5.447 -2265.677)"/><path class="e" d="M22.963,2246.686,71.855,2234.6l51.646,11.227L74.88,2262.337Z" transform="translate(-5.363 -2222.249)"/><path class="f" d="M260.907,2302.59l48.6-16.493-3.911,64.011-44.915,25.024Z" transform="translate(-191.323 -2262.534)"/><g transform="translate(23.738) rotate(14)"><path class="g" d="M97.451,0,44.482,1.633,0,25.2,19.056,86.527l52.53,11.6,37.5-35.012Z" transform="translate(0 0)"/></g></g></g></g><g class="c" transform="translate(-312 1717)"><g transform="translate(255.325 3499.4)"><g transform="translate(0 0)"><path class="d" d="M23.071,2290.114l51.987,15.608-.273,72.589L26.812,2354.2Z" transform="translate(-5.447 -2265.677)"/><path class="e" d="M22.963,2246.686,71.855,2234.6l51.646,11.227L74.88,2262.337Z" transform="translate(-5.363 -2222.249)"/><path class="f" d="M260.907,2302.59l48.6-16.493-3.911,64.011-44.915,25.024Z" transform="translate(-191.323 -2262.534)"/><g transform="translate(23.738) rotate(14)"><path class="g" d="M97.451,0,44.482,1.633,0,25.2,19.056,86.527l52.53,11.6,37.5-35.012Z" transform="translate(0 0)"/></g></g></g></g></g></g></svg>