<svg xmlns="http://www.w3.org/2000/svg" xmlns:xlink="http://www.w3.org/1999/xlink" width="100" height="27.968" viewBox="0 0 100 27.968"><defs><style>.a{fill:none;stroke:#16becf;stroke-width:2px;}.b{fill:#1b5aa6;}.c{fill:#349ddc;}.d{fill:#4ec5ff;}.e{fill:url(#a);}</style><linearGradient id="a" x1="0.921" y1="0.493" x2="0.157" y2="1.061" gradientUnits="objectBoundingBox"><stop offset="0" stop-color="#3fffac"/><stop offset="1" stop-color="#73caff" stop-opacity="0"/></linearGradient></defs><g transform="translate(-396.5 -1482.146)"><line class="a" x2="100" transform="translate(396.5 1496.5)"/><g transform="translate(-230.5 -621.729)"><g transform="translate(662 2103.875)"><path class="b" d="M23.071,2290.114l11.957,3.59-.063,16.7-11.034-5.545Z" transform="translate(-19.018 -2284.493)"/><path class="c" d="M22.963,2237.379l11.245-2.78,11.879,2.582-11.183,3.8Z" transform="translate(-18.915 -2231.758)"/><path class="d" d="M260.732,2289.889l11.178-3.793-.9,14.723-10.331,5.755Z" transform="translate(-244.727 -2280.677)"/><g transform="translate(5.46 0) rotate(14)"><path class="e" d="M22.414,0,10.231.376,0,5.8,4.383,19.9l12.082,2.667,8.626-8.053Z" transform="translate(0 0)"/></g></g></g></g></svg>