<svg xmlns="http://www.w3.org/2000/svg" xmlns:xlink="http://www.w3.org/1999/xlink" width="98.626" height="20.837" viewBox="0 0 98.626 20.837"><defs><linearGradient id="a" x1="0.921" y1="0.493" x2="0.157" y2="1.061" gradientUnits="objectBoundingBox"><stop offset="0" stop-color="#3fffac"/><stop offset="1" stop-color="#73caff" stop-opacity="0"/></linearGradient></defs><g transform="translate(-330.5 -6431)"><line x2="98.626" transform="translate(330.5 6441.137)" fill="none" stroke="#16becf" stroke-width="2"/><g transform="translate(368.581 6431)"><g transform="translate(0 0)"><g transform="translate(0 0)"><path d="M23.071,2290.114l8.909,2.675-.047,12.439-8.221-4.131Z" transform="translate(-20.051 -2285.926)" fill="#1b5aa6"/><path d="M22.963,2236.67l8.378-2.071,8.85,1.924-8.332,2.829Z" transform="translate(-19.947 -2232.482)" fill="#349ddc"/><path d="M260.719,2288.923l8.328-2.826-.67,10.969-7.7,4.288Z" transform="translate(-248.795 -2282.059)" fill="#4ec5ff"/><g transform="translate(4.068 0) rotate(14)"><path d="M16.7,0,7.622.28,0,4.319,3.265,14.827l9,1.987,6.427-6Z" transform="translate(0 0)" fill="url(#a)"/></g></g></g></g></g></svg>