<svg xmlns="http://www.w3.org/2000/svg" width="395.105" height="229.213" viewBox="0 0 395.105 229.213">
  <g id="_1" data-name="1" transform="translate(-0.154 -0.752)">
    <path id="Path_17820" data-name="Path 17820" d="M317.2,123.051a112,112,0,0,0,28.461-7c.437-.184.708,2.8.708,2.8s2.038-3.978,2.746-4.319c7.493-3.5,14.366-8.456,18.047-15.276,0,0,1.819,41.813-51.929,51.1l1.967-27.307Zm17.873,47.7s17.741,9.409,52.462,11.044c0,0-23.608,21.536-77.6,14.121l1.748-24.526Z" fill="#5e8845"/>
    <path id="Path_17821" data-name="Path 17821" d="M310.261,146.9a105.878,105.878,0,0,1,20.985-9.53c.516-.175,1.609,2.885,1.609,2.885s1.748-3.987,2.719-4.267c15.52-4.652,36.776-7.686,59.659-1.233,0,0-6.934,9.662-21.125,20.233-.6.455-4.617.1-4.617.1s1.688,2.029,1.137,2.414a135.928,135.928,0,0,1-57.578,22.734l-2.789-33.332Z" fill="#92a44b"/>
    <path id="Path_17822" data-name="Path 17822" d="M395.259,134.733a199.132,199.132,0,0,1-20.915,11.576c-7.161,3.5-14.523,6.576-21.982,9.391-3.725,1.425-7.528,2.623-11.3,3.9l-5.727,1.749c-.962.28-1.906.586-2.868.874l-2.9.726a192.674,192.674,0,0,1-23.433,4.608l5.849-1.207,2.921-.586c.97-.218,1.932-.472,2.894-.7l5.8-1.382,5.745-1.591c3.83-1.023,7.6-2.282,11.367-3.428,3.742-1.311,7.519-2.535,11.218-3.987,7.458-2.719,14.786-5.8,22.008-9.111q10.891-4.956,21.326-10.833Z" fill="#c0d254"/>
    <path id="Path_17823" data-name="Path 17823" d="M346.731,157.152c1.478-1.382,2.92-2.79,4.372-4.189q2.155-2.091,4.171-4.319t3.891-4.547a56.476,56.476,0,0,0,3.5-4.9,26.716,26.716,0,0,1-2.763,5.43,41.048,41.048,0,0,1-3.777,4.809A42.734,42.734,0,0,1,346.731,157.152ZM325.248,163.6a39.88,39.88,0,0,0,4.476-3.5,35.357,35.357,0,0,0,3.883-4.057,33.443,33.443,0,0,0,3.217-4.582A49.017,49.017,0,0,0,339.4,146.4a21.11,21.11,0,0,1-1.749,5.491,22.748,22.748,0,0,1-3.121,4.9,24.041,24.041,0,0,1-4.206,4.014,19.163,19.163,0,0,1-5.071,2.807Z" fill="#c0d254"/>
    <path id="Path_17824" data-name="Path 17824" d="M346.731,157.152a73.643,73.643,0,0,0,8.219,0c1.355-.07,2.711-.236,4.057-.429s2.685-.489,4.066-.734a15.435,15.435,0,0,1-3.882,1.617,20.243,20.243,0,0,1-4.162.7,22.575,22.575,0,0,1-4.215-.122,16.45,16.45,0,0,1-4.083-1.032Zm-21.046,6.479c1.67.2,3.322.358,4.966.533s3.3.289,4.94.359,3.288.07,4.932,0a45.7,45.7,0,0,0,4.949-.49,17.91,17.91,0,0,1-4.862,1.39,28.845,28.845,0,0,1-5.071.228A31.135,31.135,0,0,1,325.685,163.631Z" fill="#c0d254"/>
    <path id="Path_17825" data-name="Path 17825" d="M361.648,110.11a31.044,31.044,0,0,1-6.82,10.423,45.038,45.038,0,0,1-9.881,7.729l-2.772,1.478c-.926.507-1.906.874-2.859,1.294a52.094,52.094,0,0,1-5.9,2.142c-.979.35-2.011.542-3.025.8l-3.043.726c-2.055.323-4.118.621-6.173.874,2.02-.525,4.048-.927,6.051-1.443l2.972-.874a28.65,28.65,0,0,0,2.947-.936c1.915-.76,3.891-1.364,5.727-2.29.927-.446,1.9-.8,2.79-1.3l2.71-1.478A52.636,52.636,0,0,0,354.2,119.9a30.147,30.147,0,0,0,2.151-2.212c.332-.385.691-.761,1.014-1.154l.953-1.215a30.038,30.038,0,0,0,3.332-5.212Z" fill="#605aca" opacity="0.5"/>
    <path id="Path_17826" data-name="Path 17826" d="M376.18,184.738c-2.431.472-4.9.761-7.353,1.05s-4.932.419-7.406.542a126.246,126.246,0,0,1-14.865-.21q-3.708-.312-7.388-.875a67.087,67.087,0,0,1-7.31-1.46,50.74,50.74,0,0,1-13.754-5.57,53.142,53.142,0,0,0,6.855,2.755,66.957,66.957,0,0,0,7.109,1.95,103.752,103.752,0,0,0,14.584,2.063c4.9.437,9.82.525,14.751.481s9.846-.3,14.777-.726Z" fill="#4c6e37"/>
    <path id="Path_17827" data-name="Path 17827" d="M352.922,193.412a18.633,18.633,0,0,1-9.5-1.88,14.664,14.664,0,0,1-3.961-2.938,11.012,11.012,0,0,1-2.448-4.223,18.147,18.147,0,0,0,3.077,3.576,19.9,19.9,0,0,0,3.856,2.553,30.874,30.874,0,0,0,4.372,1.749,46.417,46.417,0,0,0,4.6,1.163Zm-12.932.77a18.662,18.662,0,0,1-8.858-3.891,14.6,14.6,0,0,1-3.244-3.734,11.127,11.127,0,0,1-1.469-4.652,18.25,18.25,0,0,0,2.23,4.162,19.561,19.561,0,0,0,3.209,3.323,30.142,30.142,0,0,0,3.874,2.623,44.143,44.143,0,0,0,4.258,2.169Z" fill="#4c6e37"/>
    <path id="Path_17828" data-name="Path 17828" d="M198.227,229.524a28.857,28.857,0,0,0-21.86-9.793c-6.12.079-12.057,2.1-18.125,1.749a23.178,23.178,0,0,1-21.51-26.494c.7-4.809,3.218-9.618,7.572-11.787a14.6,14.6,0,0,1,7.747-1.224,21.925,21.925,0,0,1,6.995,1.863,36.334,36.334,0,0,1,12.915,10.492c3.174,3.961,10.431,9.776,15.336,13.527q2.45,1.873,4.949,3.681c3.436,3.235,3.611,13.911,5.981,17.986Z" fill="#4b5923"/>
    <path id="Path_17829" data-name="Path 17829" d="M144.942,196.735c15.284,4.372,32.16,10.492,44.1,20.985Z" fill="#3c481a"/>
    <path id="Path_17830" data-name="Path 17830" d="M243.441,194.566a19.541,19.541,0,0,1-2,7.415,16.886,16.886,0,0,1-3.314,4.215,25.757,25.757,0,0,1-2.116,1.8,30.84,30.84,0,0,1-9.277,4.861c-4.783,1.522-9.9,1.81-14.3,4.5a17.39,17.39,0,0,0-7.162,8.971v-4.284c.473-4.739.945-9.566,2.711-14.1a40.241,40.241,0,0,1,4.59-8.263,56.887,56.887,0,0,1,10-11.244c3.087-2.623,6.619-4.818,10.388-5.378s7.782.875,9.5,4.145a13.487,13.487,0,0,1,.971,7.353Z" fill="#4b5923"/>
    <path id="Path_17831" data-name="Path 17831" d="M207.933,218.078a35.607,35.607,0,0,1,12.993-15.686c3.5-2.317,7.4-3.9,11-6.068s7.073-5.124,8.743-9.085" fill="#3c481a"/>
    <path id="Path_17832" data-name="Path 17832" d="M202.092,221.969c6.724-6.662,16.254-9.723,25.636-11.069,7.817-1.12,16.028-1.163,23.346,1.827a12.375,12.375,0,0,1,5.9,4.3c1.356,2.072,1.548,5.063-.105,6.9-1.4,1.556-3.663,1.932-5.753,2-6.864.254-13.588-1.749-20.312-3.156-11.559-2.422-24.15-3.008-34.66,2.387" fill="#5e8845"/>
    <path id="Path_17833" data-name="Path 17833" d="M210.433,218.463c13.92-5.867,34.022-3.978,42.783,2.09" fill="none" stroke="#4c6e37" stroke-linecap="round" stroke-linejoin="round" stroke-width="1"/>
    <path id="Path_17834" data-name="Path 17834" d="M68.4,141.291a13.83,13.83,0,0,1,6.994,1.652c.219-3.5,1.39-4.2,2.169-5.465-5.8-5.482-14.349-5.919-14.864-17.234-.114-2.43.4-4.144,0-5.876-1.75,3.629-4.836,4.372-4.591,8.08s5.106,7.362,5.98,12.189c.726,3.978,2.23,4.992,4.311,6.654Z" fill="#5a4fd1" opacity="0.37"/>
    <path id="Path_17835" data-name="Path 17835" d="M124.464,198.335c-3.908-1.548-9.128-2.177-11.629,1.189-2.1,2.824-1.014,6.829.437,10.038,1.216,2.7,2.772,5.456,5.352,6.925a15.251,15.251,0,0,0,5.84,1.548,140.721,140.721,0,0,0,16.946.979,35.483,35.483,0,0,1,19.927,6.75c-6.969-12.941-23.722-22.235-36.873-27.429Z" fill="#5e8845"/>
    <path id="Path_17836" data-name="Path 17836" d="M117.609,206.746a60.787,60.787,0,0,1,14.769,1.976c4.774,1.417,23.66,10.056,26.6,13.728" fill="none" stroke="#4c6e37" stroke-linecap="round" stroke-linejoin="round" stroke-width="1"/>
    <path id="Path_17837" data-name="Path 17837" d="M80.081,193.7s-25.96-5.684-45.93-3.5c-.63.061.139-3.873.139-3.873s-4.118,4.372-5.159,4.538C18.149,192.616,7.455,196.4.154,203.808c0,0,13.282-54.569,86.039-46.455L80.081,193.7Z" fill="#5e8845"/>
    <path id="Path_17838" data-name="Path 17838" d="M95.173,196.621s-11.63-5.246-26.153-16.561c-.577-.446,2.055-3.934,2.055-3.934s-5.788.944-6.794.1c-16.613-13.99-35.683-35.613-45.275-66.051,0,0,15.94.674,38.254,8.823.944.35,3.5,5.106,3.5,5.106s1.04-3.384,1.872-3.043a182.3,182.3,0,0,1,67.851,47.9L95.173,196.621Z" fill="#92a44b"/>
    <path id="Path_17839" data-name="Path 17839" d="M21,77a2,2,0,1,1-2-2A2,2,0,0,1,21,77Z" fill="none" stroke="#92a44b" stroke-width="1.03"/>
    <path id="Path_17840" data-name="Path 17840" d="M19.006,110.915A265.551,265.551,0,0,1,47.327,125.84c9.2,5.465,18.065,11.463,26.712,17.759,4.372,3.121,8.482,6.514,12.7,9.81l6.121,5.168c1.023.874,2.055,1.749,3.06,2.623l2.947,2.719a262.765,262.765,0,0,1,22.419,22.9l-5.657-5.666-2.72-2.876c-.961-.927-1.949-1.819-2.92-2.728l-5.823-5.491-6.007-5.247c-3.97-3.558-8.158-6.855-12.242-10.274-4.232-3.244-8.376-6.584-12.73-9.618-8.534-6.374-17.383-12.329-26.415-17.994q-6.763-4.267-13.7-8.246-6.967-4-14.06-7.764Z" fill="#c0d254"/>
    <path id="Path_17841" data-name="Path 17841" d="M79.871,148.88c-2.623-.647-5.246-1.224-7.87-1.8s-5.261-1.079-7.912-1.5-5.3-.764-7.966-1.023-5.386-.28-8.114-.28a35.7,35.7,0,0,1,8.132-.874,54.361,54.361,0,0,1,8.166.708,57.279,57.279,0,0,1,15.564,4.774Z" fill="#5084da"/>
    <path id="Path_17842" data-name="Path 17842" d="M54.322,131.384c-1.889-.114-3.75-.175-5.622-.254s-3.719-.085-5.579-.043-3.71.13-5.56.279a55.558,55.558,0,0,0-5.553.787,24.343,24.343,0,0,1,5.439-1.617,36.994,36.994,0,0,1,5.657-.525,39.445,39.445,0,0,1,11.218,1.373Z" fill="#c0d254"/>
    <path id="Path_17843" data-name="Path 17843" d="M102.92,168.248a51.115,51.115,0,0,0-7.213-2.457,46.565,46.565,0,0,0-7.406-1.373,43.94,43.94,0,0,0-7.511-.245,66.546,66.546,0,0,0-7.581.874A28.891,28.891,0,0,1,80.676,163a31.084,31.084,0,0,1,7.8-.1,31.808,31.808,0,0,1,7.589,1.749,25.713,25.713,0,0,1,6.855,3.594ZM79.871,148.88a99.647,99.647,0,0,0-6.12-9.2,49.87,49.87,0,0,0-3.5-4.232c-1.25-1.364-2.518-2.623-3.82-4.031a20.869,20.869,0,0,1,4.677,3.165,27.1,27.1,0,0,1,3.847,4.162,30.322,30.322,0,0,1,2.964,4.818,21.784,21.784,0,0,1,1.95,5.316Zm22.761,18.852c-1.006-2.02-2.046-4-3.06-5.972s-2.094-3.907-3.236-5.806S94,152.211,92.742,150.4a64.327,64.327,0,0,0-4.2-5.194,24.332,24.332,0,0,1,5.142,4.433,39.237,39.237,0,0,1,3.987,5.526,41.692,41.692,0,0,1,4.958,12.565Z" fill="#5084da"/>
    <path id="Path_17844" data-name="Path 17844" d="M11.33,191.83a41.853,41.853,0,0,1,12.686-10.886,60.508,60.508,0,0,1,15.625-6.261l4.128-.874c1.372-.306,2.78-.4,4.17-.6a69.49,69.49,0,0,1,8.394-.551c1.4-.087,2.8.053,4.2.1l4.189.2c2.78.35,5.543.735,8.3,1.172-2.8-.087-5.56-.315-8.332-.411H60.522a38.892,38.892,0,0,0-4.154.114c-2.754.253-5.517.3-8.236.813-1.364.227-2.746.315-4.084.63l-4.04.874a70.524,70.524,0,0,0-15.415,5.832A38.424,38.424,0,0,0,21,184.03c-.577.367-1.18.717-1.749,1.111L17.6,186.347a40.383,40.383,0,0,0-6.269,5.483Z" fill="#4c6e37"/>
    <path id="Path_17845" data-name="Path 17845" d="M56.237,173.354c-1.513,2.4-2.982,4.687-4.215,7.1a33.938,33.938,0,0,0-1.635,3.7,35.4,35.4,0,0,0-1.11,3.988,12.52,12.52,0,0,1,1.364-8.394,19.221,19.221,0,0,1,2.4-3.559,14.49,14.49,0,0,1,3.192-2.833Z" fill="#4c6e37"/>
    <path id="Path_17846" data-name="Path 17846" d="M170.894,190.876h43v29.571h-43Z" fill="#263238"/>
    <path id="Path_17847" data-name="Path 17847" d="M170.894,190.876h43V201.6h-43Z" fill="#605aca" opacity="0.5"/>
    <path id="Path_17848" data-name="Path 17848" d="M236.035,219.984h-87.28a4.993,4.993,0,1,0,0,9.977h87.28a4.989,4.989,0,0,0,0-9.977Z" fill="#263238"/>
    <path id="Path_17849" data-name="Path 17849" d="M241.028,224.977a4.993,4.993,0,0,1-5,4.984H148.755a4.987,4.987,0,0,1-4.993-4.984,4.264,4.264,0,0,1,.158-1.215,4.966,4.966,0,0,0,4.835,3.786h87.271a4.968,4.968,0,0,0,4.836-3.786,4.3,4.3,0,0,1,.166,1.215Z" fill="#605aca" opacity="0.5"/>
    <rect id="Rectangle_6530" data-name="Rectangle 6530" width="275.201" height="183.82" rx="3.5" transform="translate(54.785 11.183)" fill="#fff"/>
    <path id="Path_17850" data-name="Path 17850" d="M57.82,9H326.935a5.246,5.246,0,0,1,5.246,5.247v177.69a5.246,5.246,0,0,1-5.247,5.247H57.82a5.247,5.247,0,0,1-5.247-5.247V14.244A5.246,5.246,0,0,1,57.82,9Zm269.99,5.247a.875.875,0,0,0-.875-.875H57.82a.874.874,0,0,0-.875.875v177.69a.875.875,0,0,0,.874.875H326.935a.875.875,0,0,0,.875-.875V14.244Z" fill="#263238" fill-rule="evenodd"/>
    <path id="Path_17851" data-name="Path 17851" d="M332.181,191.576V174.2H52.573v17.374a5.92,5.92,0,0,0,5.919,5.919H326.253a5.918,5.918,0,0,0,5.928-5.919Z" fill="#263238"/>
    <circle id="Ellipse_163" data-name="Ellipse 163" cx="21.553" cy="21.553" r="21.553" transform="translate(170.842 27.552)" fill="#c3ced9"/>
    <path id="Path_17852" data-name="Path 17852" d="M195.573,51.89a8.334,8.334,0,1,0-9.088-1.807,8.332,8.332,0,0,0,9.088,1.807ZM204.96,64.5V79.06a2.775,2.775,0,0,1-2.781,2.772h-19.56a2.77,2.77,0,0,1-2.78-2.772V64.5A10.011,10.011,0,0,1,189.85,54.491h5.1A10.013,10.013,0,0,1,204.96,64.5Z" fill="#fff" fill-rule="evenodd"/>
    <path id="Path_17853" data-name="Path 17853" d="M243.948,95.167H140.833a8.525,8.525,0,1,1,0-17.05H243.948a8.525,8.525,0,1,1,0,17.05Z" fill="#c3ced9"/>
    <path id="Path_17854" data-name="Path 17854" d="M240.372,88.872H144.383a2.23,2.23,0,0,1,0-4.46h95.989a2.23,2.23,0,0,1,0,4.46Z" fill="#6a6a6a"/>
    <path id="Path_17855" data-name="Path 17855" d="M244.062,125.84H140.886a8.525,8.525,0,1,1,0-17.05H244.062a8.525,8.525,0,0,1,0,17.05Z" fill="#c3ced9"/>
    <path id="Path_17856" data-name="Path 17856" d="M143.552,119.693a2.23,2.23,0,1,1,2.23-2.23A2.23,2.23,0,0,1,143.552,119.693Zm8.849-2.229a2.23,2.23,0,1,0-2.23,2.229,2.23,2.23,0,0,0,2.23-2.229Zm4.389-2.23a2.23,2.23,0,1,1-2.23,2.23,2.229,2.229,0,0,1,2.23-2.23Zm8.849,2.23a2.226,2.226,0,1,0-2.221,2.229A2.23,2.23,0,0,0,165.639,117.464Zm5.974-1.577a2.23,2.23,0,1,1-3.154,0,2.229,2.229,0,0,1,3.154,0Zm7.272,1.577a2.225,2.225,0,1,0-2.229,2.229,2.226,2.226,0,0,0,2.229-2.229Zm4.4-2.23a2.23,2.23,0,0,1,2.221,2.23h-.027a2.212,2.212,0,1,1-2.194-2.23Z" fill="#6a6a6a" fill-rule="evenodd"/>
    <path id="Path_17857" data-name="Path 17857" d="M207.032,157.974H177.749a8.529,8.529,0,1,1,0-17.059h29.283a8.529,8.529,0,1,1,0,17.059Z" fill="#fff"/>
    <path id="Path_17858" data-name="Path 17858" d="M300.5,187.274v9.749H239.716v-9.749a5.807,5.807,0,0,1,5.806-5.806h.507v-9.032a24.08,24.08,0,1,1,48.161,0v9.032h.507a5.806,5.806,0,0,1,5.806,5.806ZM270.11,156.312a16.124,16.124,0,0,0-16.124,16.124v9.032h32.247v-9.032a16.124,16.124,0,0,0-16.123-16.124Z" fill-rule="evenodd" opacity="0.09"/>
    <path id="Path_17859" data-name="Path 17859" d="M311.887,105.677a15.385,15.385,0,0,0-8.744-3.5q-.025-.52,0-1.041c1.749-.288,3.3-1.845,4.2-3.952,2.4-2.317,4.031-5.176,3.244-8.8a.7.7,0,0,1,.088-.525c-1.032-1.854-2.938-2.745-5.054-4.66-7.109-6.436-15.556,2.51-12.364,6.2a6.544,6.544,0,0,1,.874,2.029.127.127,0,0,0,0,.06,3.049,3.049,0,0,0,.516,2.432,8.872,8.872,0,0,1,.07,1.093v.1a4.37,4.37,0,0,0,.6,1.521,5.64,5.64,0,0,0,3.619,4.25,4.8,4.8,0,0,0,.525.157,2.572,2.572,0,0,1,.079,1.163,13.892,13.892,0,0,0-5.692,1.9c-13.588,6.576-27.019,27.736-25.541,32.4s5.246,10.134,7.756,13.78l.4-.07c.2.708.4,1.408.612,2.107a1.873,1.873,0,0,0,.49.971,1.954,1.954,0,0,0,1.4.288,2.613,2.613,0,0,0,1.7-.481,1.791,1.791,0,0,0,.5-.874,3.819,3.819,0,0,0-.376-2.711l.3-.052s-5.859-8.744-5.649-14.112c.079-1.959,4.652-6.558,8.377-9.986q-.132,1.811-.131,3.629L281.931,171.6s1.539.3,4,.7l2.387,25.435h9.619l.227-23.966h.708l1.425.1h1.006l.944,23.765h9.5l1.95-24.2,1.154-.2.49-.114.927-.219.48-.14.875-.279.4-.14c.4-.149.787-.315,1.154-.49L319,125.91c0-1,0-1.958-.088-2.9v-.21q-.074-1.284-.236-2.561-.006-.127,0-.254v-.227c1.88.376,4.328.822,7.52,1.364a13.587,13.587,0,0,0,6.033-.376v-9.365c-8.036.909-16.945-3.646-20.338-5.7Z" opacity="0.09"/>
    <circle id="Ellipse_164" data-name="Ellipse 164" cx="14.812" cy="14.812" r="14.812" transform="translate(167.361 101.795)" fill="#6a6a6a" opacity="0.3"/>
    <circle id="Ellipse_165" data-name="Ellipse 165" cx="8.036" cy="8.036" r="8.036" transform="translate(174.137 108.571)" fill="#6a6a6a" opacity="0.5"/>
    <path id="Path_17860" data-name="Path 17860" d="M240.022,172.436a24.08,24.08,0,1,1,48.161,0V195.6H240.022V172.436Zm7.957,0v15.205h32.247V172.436a16.123,16.123,0,1,0-32.247,0Z" fill="#f88859" fill-rule="evenodd"/>
    <path id="Path_17861" data-name="Path 17861" d="M244.866,172.348a19.236,19.236,0,1,1,38.473,0v18.485H244.866Zm3.113.088v15.205h32.247V172.436a16.123,16.123,0,1,0-32.247,0Z" fill="#fd7658" fill-rule="evenodd"/>
    <rect id="Rectangle_6531" data-name="Rectangle 6531" width="60.787" height="48.493" rx="6.77" transform="translate(233.709 181.468)" fill="#fda859"/>
    <path id="Path_17862" data-name="Path 17862" d="M272.916,202.357a8.84,8.84,0,1,0-12.906,7.869v9.549h8.132V210.2a8.848,8.848,0,0,0,4.774-7.843Z" fill="#f88859"/>
    <path id="Path_17863" data-name="Path 17863" d="M288.655,181.468h-14.6a91.243,91.243,0,0,1-14.427,27.508c-5.876,7.625-15.127,17.313-25.584,17.112a5.8,5.8,0,0,0,5.473,3.873h49.14a5.805,5.805,0,0,0,5.806-5.807v-36.88a5.808,5.808,0,0,0-5.806-5.806Z" fill="#ffb255" opacity="0.4"/>
    <path id="Path_17864" data-name="Path 17864" d="M269.979,148.364c.384,1.338.769,2.676,1.162,4.005a1.867,1.867,0,0,0,.49.97,1.96,1.96,0,0,0,1.4.289,2.625,2.625,0,0,0,1.7-.481,1.8,1.8,0,0,0,.5-.874,3.927,3.927,0,0,0-.56-2.912,11.512,11.512,0,0,0-1.976-2.3m69.3-44.759a32.4,32.4,0,0,1,1.906-5.439,2.626,2.626,0,0,1,.3,1.933,4.37,4.37,0,0,1,2.133-2.247.438.438,0,0,1,.359-.053.446.446,0,0,1,.218.341,6.121,6.121,0,0,1-3.672,7.223" fill="#ffc2d3"/>
    <path id="Path_17865" data-name="Path 17865" d="M302.645,226.735c3.4.83,6.252,1.827,7.817,3.226H297.346l.254-3.043Zm-16.054,0c-3.4.83-6.243,1.827-7.808,3.226H291.9l-.254-3.043Z" fill="#5084da"/>
    <path id="Path_17866" data-name="Path 17866" d="M309.527,150.323l-6.182,76.945a21.131,21.131,0,0,1-2.912.525,12.909,12.909,0,0,1-1.7-.236c-.717-.14-1.338-.289-1.338-.289L295.082,169.1h-2.929l-.56,58.164a12.413,12.413,0,0,1-3.148.463,16.715,16.715,0,0,1-3.419-.463L277.6,148.355l31.924,1.968Z" fill="#2e2c84"/>
    <g id="Group_3853" data-name="Group 3853" opacity="0.3">
      <path id="Path_17867" data-name="Path 17867" d="M297.67,149.588l-10.886-.664c-.132,14.165,2,64.809,2.212,78.79a13.324,13.324,0,0,0,2.623-.446l.533-58.164h2.9l2.344,58.164s.62.149,1.337.289l.639.113c0-15.843-1.426-71.568-1.7-78.082Z" fill="#2e2c84" opacity="0.5"/>
    </g>
    <path id="Path_17868" data-name="Path 17868" d="M288.742,95.062v.1c.472,2.545,2.886,3.848,5.57,4.59,2.186.6,2.693.875,4.442-.393,3.629-2.623,6.864-6.12,5.814-10.92a.7.7,0,0,1,.088-.525c-1.032-1.854-2.938-2.746-5.054-4.66-7.109-6.436-15.555,2.509-12.355,6.2a11.361,11.361,0,0,1,1.5,5.613Z" fill="#001f64"/>
    <path id="Path_17869" data-name="Path 17869" d="M312.989,125.91c0-14.628-6.059-23.722-17.654-23.722s-17.671,12.242-17.671,26.853l-1.748,42.608s27.027,5.36,37.3.341l-.227-46.08Z" fill="#8fc2ff"/>
    <path id="Path_17870" data-name="Path 17870" d="M312.989,125.91a38.408,38.408,0,0,0-1.417-10.894c-1.023,15.913-2.422,58.294-26.109,58.119,8.8,1.1,21.414,1.933,27.718-1.145Z" fill="#8fc2ff" opacity="0.3"/>
    <path id="Path_17871" data-name="Path 17871" d="M301.29,93.34c-.429-2.877-3-5.762-6.121-4.267a6.33,6.33,0,0,1-5.727.192q-.1,1.105-.175,2.212c-.35-.638-.927-.734-1.1.061s.044,2.431.953,2.729v.428c.044,2.151.927,5.57,4.416,6.392a3.5,3.5,0,0,1-.1,2.02c.192.673,2.911,1.11,3.8.314a17.981,17.981,0,0,1-.07-2.238c2.064-.332,3.786-2.37,4.573-4.984,3.1-1.766.9-4.932-.454-2.86Z" fill="#ffc2d3"/>
    <path id="Path_17872" data-name="Path 17872" d="M301.29,93.34a6.364,6.364,0,0,0-1.417-3.14c.088,5.01-2.037,9.619-6.873,10.729a4.591,4.591,0,0,0,.525.158,3.5,3.5,0,0,1-.1,2.02c.192.673,2.912,1.11,3.8.314a17.788,17.788,0,0,1-.069-2.238c2.063-.332,3.786-2.37,4.573-4.984,3.112-1.766.909-4.932-.446-2.86Z" fill="#ffc2d3" opacity="0.3"/>
    <path id="Path_17873" data-name="Path 17873" d="M287.912,104.147c-13.588,6.575-27.018,27.735-25.541,32.4s5.247,10.134,7.756,13.781l4.94-.875s-5.858-8.744-5.648-14.112c.14-3.3,13.116-14.156,13.116-14.156Zm16.744.778c2.134,1.522,19.884,12.163,29.65,2.772,7.048-6.785,7.765-8.1,7.765-8.1l2.413,4.285s-11.035,19.446-24.351,17.19-13.693-2.947-13.693-2.947l-1.784-13.2Z" fill="#8fc2ff"/>
    <path id="Path_17874" data-name="Path 17874" d="M85.17,188.227A21.405,21.405,0,0,0,73.034,197.4h36.077a21.407,21.407,0,0,0-12.137-9.172V99.863H85.17V101.3H72.57V111.92h12.6v2.536H72.57v10.632h12.6v63.139Z" opacity="0.09"/>
    <path id="Path_17875" data-name="Path 17875" d="M95.41,111.938H80.3V101.3H95.41Zm0,13.168H80.3V114.465H95.41Z" fill="#fda859"/>
    <path id="Path_17876" data-name="Path 17876" d="M95.41,111.938H91.553V101.3h3.856Zm0,13.168H91.553V114.465h3.856Z" fill="#ffc87c" opacity="0.5"/>
    <path id="Path_17877" data-name="Path 17877" d="M104.695,192.31H92.9V99.853h11.795Z" fill="#fda859"/>
    <rect id="Rectangle_6532" data-name="Rectangle 6532" width="1.801" height="92.457" rx="0.82" transform="translate(99.693 195.493) rotate(180)" fill="#ffc87c" opacity="0.5"/>
    <path id="Path_17878" data-name="Path 17878" d="M90.65,189a21.29,21.29,0,1,0,23.2,4.617A21.292,21.292,0,0,0,90.65,189Zm4.2,29.2a10.307,10.307,0,1,1,11.234-2.235A10.31,10.31,0,0,1,94.848,218.2Z" fill="#fda859" fill-rule="evenodd"/>
    <path id="Path_17879" data-name="Path 17879" d="M98.793,219.993a11.314,11.314,0,1,1,11.314-11.314A11.314,11.314,0,0,1,98.793,219.993Zm0-21.623A10.309,10.309,0,1,0,109.1,208.679,10.308,10.308,0,0,0,98.793,198.37Z" fill="#ffc87c" fill-rule="evenodd" opacity="0.5"/>
    <path id="Path_17880" data-name="Path 17880" d="M176.21,119.693c-3.742,3.306-17.2,17.4-19.664,9.732C154.6,123.348,150.5,115,148.1,112.191a11.428,11.428,0,0,0-5.823-3.567v-.971c2.334,0,5.981-.472,5.981-8.883a15.1,15.1,0,0,0-.674-5.317,2.625,2.625,0,0,0,.158-2.894,8.462,8.462,0,0,0-3.5-2.51c-2.693-1.2-6.225-1.748-8.814-.078a11.363,11.363,0,0,0-3.252-2.85,7.87,7.87,0,0,0-3.533-1.18c-2.483,0-4.651,1.862-5.8,4.065a9.079,9.079,0,0,0-.988,5.858,6.533,6.533,0,0,0,3.5,4.678,3.135,3.135,0,0,0,1.748.341,3.574,3.574,0,0,0,1.985-1.2c1.329-1.381,1.548-3.034,2.527-4.529a1.739,1.739,0,0,1,.542-.507,10.924,10.924,0,0,0-.454,3,17.873,17.873,0,0,0,2.334,8.288,4.87,4.87,0,0,0,1.39,1.819c.612.42,2.178.831,2.825.42l-.271,2.063a14.817,14.817,0,0,0-5.474,1.6c-10.117,2.326-17.75,27.167-31.276,25.515-1.644-.455-3.5-.586-3.55,1.023-.184,3.156,1.748,3.558,3.55,3.3v.07A25.813,25.813,0,0,0,121,130.816c-3.637,20.512-2.186,47.382-2.186,47.382.98.14,1.95.262,2.912.385l1.661,18.8H132V179.448q2.623.105,5.176.1l.2,17.837h9.994l1.933-18.712c1.749-.245,3.5-.542,5.246-.874-.358-11.28-.4-26.03-1.154-38.805a4.15,4.15,0,0,0,1.854,1.058c1.171.288,6.234,6.121,9.871,1.687s11.367-13.78,14.226-18.563c-.664-1.556-2.291-2.019-3.139-3.48Z" opacity="0.09"/>
    <path id="Path_17881" data-name="Path 17881" d="M143.412,105.45l-.568,4.354,4.581.507v-4.59l-4.013-.271Z" fill="#f9acc8"/>
    <path id="Path_17882" data-name="Path 17882" d="M108.122,137.277s-6.059-2.981-6.234,0c-.332,5.657,6.234,2.466,6.234,2.466Z" opacity="0.1"/>
    <path id="Path_17883" data-name="Path 17883" d="M108.979,136.4s-6.059-2.991-6.234,0c-.332,5.657,6.234,2.466,6.234,2.466Zm30.3-37.6c0,3.961,4.084,8.883,8.045,8.883,2.325,0,6.12-.35,6.12-8.883,0-8.963-3.008-7.162-6.995-7.162a7.17,7.17,0,0,0-7.17,7.162Z" fill="#ffb27d"/>
    <path id="Path_17884" data-name="Path 17884" d="M145.3,102.1a30.965,30.965,0,0,1,1.67-10.492h-.525a7.17,7.17,0,0,0-7.17,7.16c0,3.883,3.935,8.683,7.817,8.867A7.985,7.985,0,0,1,145.3,102.1Z" fill="#ffc2d3" opacity="0.3"/>
    <path id="Path_17885" data-name="Path 17885" d="M151.894,93.978c-.63.1-1.312-.21-1.906,0-.954.385-1.015,1.836-1.9,2.37-1.093.673-2.745-.481-3.7.376-.569.5-.5,1.39-.446,2.15a16.093,16.093,0,0,1-.647,5.946c-.14.446.445,1.242.1,1.548-.586.507-2.274.061-2.9-.385a4.812,4.812,0,0,1-1.39-1.827,18.26,18.26,0,0,1-2.335-8.386,9.468,9.468,0,0,1,3.585-7.65c2.623-1.863,6.252-1.3,9.023-.062a8.359,8.359,0,0,1,3.5,2.545c.638,1.084.551,3.148-.979,3.375Z" fill="#2c3a64"/>
    <path id="Path_17886" data-name="Path 17886" d="M151.142,89.029c-.936.874-1.88,2.343-2.58,2.833a10.983,10.983,0,0,1-3.244,1.163c-5.1,1.565-5.447,9.373-3.226,13.553a1.746,1.746,0,0,0,1.3-.184c.349-.306-.237-1.1-.1-1.547a16.053,16.053,0,0,0,.647-5.946c-.052-.76-.122-1.653.446-2.151.953-.875,2.623.3,3.7-.376.874-.534.944-1.985,1.9-2.37.6-.236,1.277.07,1.907,0,1.53-.227,1.635-2.282.988-3.349a5.458,5.458,0,0,0-1.74-1.626Z" fill="#ffc87c" opacity="0.5"/>
    <path id="Path_17887" data-name="Path 17887" d="M137.309,85.138a7.868,7.868,0,0,0-3.558-1.163c-2.484,0-4.652,1.88-5.8,4.11a9.255,9.255,0,0,0-.988,5.92,6.594,6.594,0,0,0,3.5,4.72,3.044,3.044,0,0,0,1.749.342,3.5,3.5,0,0,0,1.976-1.207c1.329-1.4,1.556-3.06,2.535-4.573.787-1.224,2.519-.717,3.673-1.512C143.29,89.746,139.137,86.135,137.309,85.138Z" fill="#2c3a64"/>
    <path id="Path_17888" data-name="Path 17888" d="M138.63,90.524c-.534-.27-.945-.77-1.478-1.04-.752-.822-4.626-1.25-5.43,4.144a6.411,6.411,0,0,1-2.754,4.066,5.418,5.418,0,0,0,1.477,1.032,3.044,3.044,0,0,0,1.749.34,3.494,3.494,0,0,0,1.976-1.206c1.329-1.4,1.557-3.06,2.536-4.573.787-1.224,2.518-.717,3.672-1.512a2.353,2.353,0,0,0,.875-.954,3.112,3.112,0,0,1-2.623-.3Z" fill="#ffc87c" opacity="0.5"/>
    <path id="Path_17889" data-name="Path 17889" d="M136.076,226.735c3.4.83,6.252,1.827,7.817,3.226H130.777l.254-3.043Z" fill="#f9714e"/>
    <path id="Path_17890" data-name="Path 17890" d="M147.88,226.735c3.4.83,6.243,1.827,7.808,3.226H142.573l.253-3.043Z" fill="#f9714e"/>
    <path id="Path_17891" data-name="Path 17891" d="M181.833,116.756a2.461,2.461,0,0,0-.272-.123,1.7,1.7,0,0,0-1.329.533,22.31,22.31,0,0,0-2.623,2.3,3.147,3.147,0,0,0-.507.568,2.118,2.118,0,0,0-.157,2.265,1.934,1.934,0,0,0,1.539.9,4.07,4.07,0,0,0,2.754-1.207,2.178,2.178,0,0,0-1.093-3.331,9.67,9.67,0,0,0,1.574-1.146.972.972,0,0,0,.262-.35.331.331,0,0,0-.148-.41Z" opacity="0.1"/>
    <path id="Path_17892" data-name="Path 17892" d="M181.518,118.653a1.924,1.924,0,0,1-.114,2.335,4.065,4.065,0,0,1-2.754,1.206,1.957,1.957,0,0,1-1.574-.918,2.106,2.106,0,0,1,.166-2.273C178.2,117.612,180.547,116.843,181.518,118.653Z" fill="#ffb27d"/>
    <path id="Path_17893" data-name="Path 17893" d="M179.979,117.875a10.49,10.49,0,0,0,1.9-1.364.992.992,0,0,0,.28-.359.351.351,0,0,0-.122-.4l-.28-.122c-.49-.132-.945.209-1.355.515a22.864,22.864,0,0,0-2.624,2.291,4.827,4.827,0,0,0,2.2-.559Z" fill="#ffb27d"/>
    <path id="Path_17894" data-name="Path 17894" d="M163.278,129.915A116.72,116.72,0,0,0,176.394,119.3a.674.674,0,0,1,.953.07c.813.962,2.124,2.387,1.985,2.99a2,2,0,0,1-.543.875q-6.12,6.846-12.337,13.675a13.525,13.525,0,0,1-2.623,2.457,4.567,4.567,0,0,1-3.5.726c-1.984-.49-3.086-2.527-4.17-4.259-5.308-8.533-4.434-11.611-3.786-14.243.454-1.828,1.023-3.629,1.355-5.491.1-.586-1.3-3.848-.5-3.891,2.4,2.807,5.99,11.367,8.447,17.234a1.074,1.074,0,0,0,1.6.472Z" fill="#fd7658"/>
    <path id="Path_17895" data-name="Path 17895" d="M124.9,157.2l6.182,70.143a22.917,22.917,0,0,0,2.911.481,13.445,13.445,0,0,0,1.7-.21c.717-.131,1.337-.271,1.337-.271l.062-53h5.115l.6,53a13.647,13.647,0,0,0,3.148.42,18.472,18.472,0,0,0,3.419-.42l7.423-71.909L124.9,157.2Z" fill="#4b48b5"/>
    <path id="Path_17896" data-name="Path 17896" d="M140.806,162.45c0,2.379-.131,4.521.7,6.681a4.178,4.178,0,0,0,4.214,2.736c3.061-.061,5.185-1.748,5.2-4.817a30.318,30.318,0,0,1,.393-4.6h-10.51Zm-14.514.009a26.494,26.494,0,0,0,.516,6.672c.455,1.7,1.486,2.8,2.947,2.763,2.133,0,3.322-2.414,3.6-4.8.044-.393.114-4.581.254-4.59l-7.319-.044Z" fill="#568edb"/>
    <path id="Path_17897" data-name="Path 17897" d="M137.091,174.307a.132.132,0,0,0,.1-.149c-.814-4.765-.254-13.885-.245-13.99a.141.141,0,0,0-.044-.1.123.123,0,0,0-.1,0c-.079,0-8.245.385-11.673-.481a.128.128,0,0,0-.1.009.122.122,0,0,0-.059.079.13.13,0,0,0,.1.157c3.209.813,10.492.542,11.6.5-.061,1.181-.5,9.426.271,13.894a.122.122,0,0,0,.14.079Zm1.023,0a.14.14,0,0,0,.122-.14,75.721,75.721,0,0,1-.183-13.815,108.147,108.147,0,0,0,17.592-1.9.145.145,0,0,0,.1-.071.141.141,0,0,0,.006-.122.131.131,0,0,0-.149-.1,107.334,107.334,0,0,1-17.662,1.9.132.132,0,0,0-.131.114,76.47,76.47,0,0,0,.166,13.99.131.131,0,0,0,.14.14Z" fill="#5e9ce4"/>
    <path id="Path_17898" data-name="Path 17898" d="M135.691,227.583c.717-.131,1.338-.271,1.338-.271l.061-53h.429a.305.305,0,0,0-.429-.14,5.471,5.471,0,0,0-2.1,1.967,4.06,4.06,0,0,0-.8,2.309c-.411,16.333.568,28.775,1.495,49.131Z" fill="#4e84d9" opacity="0.16"/>
    <path id="Path_17899" data-name="Path 17899" d="M155.295,161.515a.132.132,0,0,0,.114.14h.017a.123.123,0,0,0,.123-.114l.209-2.037a.13.13,0,0,0-.113-.14.122.122,0,0,0-.14.114l-.21,2.037Zm-.306,4.214a.131.131,0,0,1-.114-.14l.21-2.037a.121.121,0,0,1,.14-.113.13.13,0,0,1,.114.139l-.21,2.038a.113.113,0,0,1-.123.113Zm-.525,3.935a.132.132,0,0,0,.114.14h.009a.13.13,0,0,0,.131-.114l.21-2.037a.132.132,0,0,0-.114-.14.113.113,0,0,0-.14.114l-.21,2.037Zm-.306,4.215a.131.131,0,0,1-.113-.14l.21-2.038a.12.12,0,0,1,.139-.113.131.131,0,0,1,.114.14l-.21,2.037a.122.122,0,0,1-.122.114Zm-.524,3.934a.13.13,0,0,0,.113.14h.009a.13.13,0,0,0,.131-.114l.21-2.037a.121.121,0,0,0-.026-.1.124.124,0,0,0-.088-.045.114.114,0,0,0-.139.114Zm-.306,4.206a.12.12,0,0,1-.088-.045.125.125,0,0,1-.026-.1l.21-2.037a.13.13,0,0,1,.253,0l-.209,2.037a.124.124,0,0,1-.123.114l-.017.026Zm-.525,3.935a.132.132,0,0,0,.114.14h.008a.133.133,0,0,0,.132-.114l.2-2.037a.131.131,0,0,0-.114-.14.121.121,0,0,0-.14.113Zm-.306,4.214a.131.131,0,0,1-.114-.14l.21-2.037a.123.123,0,0,1,.123-.114.13.13,0,0,1,.113.14l-.21,2.038a.122.122,0,0,1-.131.113h.009Zm-.533,3.935a.13.13,0,0,0,.113.14l.053-.018a.122.122,0,0,0,.122-.113l.175-2.02a.131.131,0,0,0-.114-.14.121.121,0,0,0-.1.026.128.128,0,0,0-.045.088l-.209,2.037Zm-.3,4.214a.13.13,0,0,1-.113-.14l.21-2.037a.112.112,0,0,1,.139-.113.13.13,0,0,1,.114.139l-.21,2.038a.13.13,0,0,1-.131.113Zm-.533,3.935a.131.131,0,0,0,.114.14l.052.017a.131.131,0,0,0,.123-.113l.209-2.037a.127.127,0,1,0-.253-.027Zm-.3,4.206a.122.122,0,0,1-.114-.14l.2-2.029c0-.07.07-.14.14-.113a.123.123,0,0,1,.114.14l-.2,2.028a.142.142,0,0,1-.132.123l-.008-.009Zm-.508,4.029a.123.123,0,0,0,.088.045h.009a.122.122,0,0,0,.131-.113l.21-2.038a.13.13,0,0,0-.114-.139.112.112,0,0,0-.1.022.114.114,0,0,0-.042.091l-.21,2.038a.123.123,0,0,0,.026.094Zm-.332,4.12a.13.13,0,0,1-.113-.14l.209-2.037a.122.122,0,0,1,.14-.114.132.132,0,0,1,.114.14l-.21,2.037a.116.116,0,0,1-.036.084.114.114,0,0,1-.086.03H150Zm-.524,3.935a.13.13,0,0,0,.113.14h.009a.132.132,0,0,0,.131-.114l.21-2.037a.131.131,0,0,0-.114-.14.116.116,0,0,0-.1.022.113.113,0,0,0-.041.091Zm-.306,4.214a.131.131,0,0,1-.114-.14l.21-2.037a.123.123,0,0,1,.14-.114.13.13,0,0,1,.113.14l-.209,2.038a.123.123,0,0,1-.123.113h-.017Zm-.315,3.087a.132.132,0,0,1-.114-.14l.1-1.049a.122.122,0,0,1,.14-.114.131.131,0,0,1,.114.14l-.1,1.049a.133.133,0,0,1-.123.114Z" fill="#5e9ce4" fill-rule="evenodd"/>
    <path id="Path_17900" data-name="Path 17900" d="M137.571,109.865c-10.116,2.326-17.749,27.167-31.276,25.515V139.8c6.33,0,14.978-2.028,22.069-11.743,10.257-14.051,9.207-18.2,9.207-18.2Z" fill="#f9714e"/>
    <path id="Path_17901" data-name="Path 17901" d="M137.571,109.865c-10.116,2.326-17.749,27.167-31.276,25.515V139.8c6.33,0,14.978-2.028,22.069-11.743,10.257-14.051,9.207-18.2,9.207-18.2Z" fill="#fd7658"/>
    <path id="Path_17902" data-name="Path 17902" d="M153.249,112.191c6.208,7.118,5.692,43.212,6.4,65.631-11.2,2.352-23.206,2.247-35.771.437,0,0-1.958-36.12,4.372-56.581,4.241-13.885,18.441-17,25-9.487Z" fill="#f88859"/>
    <path id="Path_17903" data-name="Path 17903" d="M132.448,159.792a79.223,79.223,0,0,1-3.349-23.468c0-6.7.183-13.99,1.941-20.591a22.009,22.009,0,0,0-2.824,5.945c-6.3,20.461-4.372,56.581-4.372,56.581a122.751,122.751,0,0,0,18.6,1.338,59.814,59.814,0,0,1-9.994-19.8Z" fill="#fd7658"/>
    <path id="Path_17904" data-name="Path 17904" d="M33.608,100.921c.874-.053,7.135-4.66,9.53-6.217a6.407,6.407,0,0,0,1.837-1.548,2.3,2.3,0,0,0,.35-2.265,2.86,2.86,0,0,0-2.92-1.8c-3.1,0-4.172,1.022-5.684,2.622C31.737,96.829,33.608,100.921,33.608,100.921Zm27.91,18.6c2.71,1.215,5.6,2.43,8.552,2.054a3.209,3.209,0,0,0,2.771-1.748,2.572,2.572,0,0,0-.874-2.624,6.16,6.16,0,0,0-2.623-1.2c-3.611-.875-8.674-.394-12.241.62a32.3,32.3,0,0,0,4.415,2.9ZM79.364,79.48c-1.206-.76-2.544-1.748-2.544-3.217a2.826,2.826,0,0,1,2.938-2.527A5.99,5.99,0,0,1,83.6,75.485c4.564,4,4,8.569,4,8.569s-6.881-3.725-8.228-4.573Zm3.6-12.214a5.84,5.84,0,0,1-2.78-1.976,1.889,1.889,0,0,1-.29-1.6c.315-.875.875-1.688,3.105-1.277,7.082,1.277,8.62,6.12,8.62,6.12s-6.784-.454-8.655-1.267Zm20.74,10.728a11.169,11.169,0,0,0,7.555-3.882,6.837,6.837,0,0,0,1.521-2.807,3.06,3.06,0,0,0-.874-2.964,3.14,3.14,0,0,0-3.664,0,7.412,7.412,0,0,0-2.37,3.087C105.158,73,103.707,77.994,103.707,77.994Z" fill="#4b5923"/>
    <path id="Path_17905" data-name="Path 17905" d="M53,181.529,32.375,163.351c-3.663-3.235-7.406-6.558-9.732-10.851-4.984-9.242-2.107-21.247,4.626-29.3s16.613-12.81,26.52-16.272,20.242-5.894,29.728-10.493c5.929-2.877,11.892-7.152,13.518-13.535A13.509,13.509,0,0,0,84.75,66.094M108.533,71.4c-1.88,5.77-9.2,9.277-12.538,14.278" fill="none" stroke="#4b5923" stroke-linecap="round" stroke-linejoin="round" stroke-width="1"/>
    <path id="Path_17906" data-name="Path 17906" d="M82.232,78.038a55.934,55.934,0,0,1,4.424,4.45c2.623,3.55,2.877,9.3-1.049,12.871m-40.4,14.97A39.193,39.193,0,0,0,66.9,118.417m-35.587.428a21.405,21.405,0,0,1,7.2-23.328" fill="none" stroke="#4b5923" stroke-linecap="round" stroke-linejoin="round" stroke-width="1"/>
    <path id="Path_17907" data-name="Path 17907" d="M271.709,5.718a3.07,3.07,0,0,1,.438-3.034,2.246,2.246,0,0,1,2.378-.533c6.007,2.623,5.36,12.058,5.36,12.058s-5.7-.822-8.176-8.49Zm-.139,17.628c-3.891,7.047,9.932,6.514,14.916,2.36C286.486,25.706,274.918,17.269,271.57,23.346ZM289.049,6.252c-.945-1.294-1.277-3.218-.254-4.442a3.437,3.437,0,0,1,3.253-.97A7.665,7.665,0,0,1,295.7,3.078a11.953,11.953,0,0,1,2.413,11.236S290.587,8.359,289.049,6.252Zm54.91,17.461a3.1,3.1,0,0,1,.6-3.209,2.623,2.623,0,0,1,2.02-.6,6.168,6.168,0,0,1,2.063.612,6.6,6.6,0,0,1,3.192,3.183c1.7,3.5.542,7.869.542,7.869s-7.581-5.115-8.412-7.852ZM326.681,36.654a8.857,8.857,0,0,0-9.172-1.478,4.773,4.773,0,0,0-1.967,1.47,4.584,4.584,0,0,0,.428,5.245,11.425,11.425,0,0,0,4.547,3.157c3.078,1.4,7.87,1.679,11.131,2.518a15.78,15.78,0,0,0-4.967-10.912Z" fill="#4b5923"/>
    <path id="Path_17908" data-name="Path 17908" d="M276.021,7.231c2.037,6.672,7.79,11.717,14.2,14.445s13.475,3.445,20.417,3.89,13.99.683,20.7,2.51c6.549,1.749,13.072,5.491,15.878,11.69,3.419,7.538.394,16.553-4.372,23.294S331.5,75.2,326.892,82.078c-2.134,3.147-3.917,6.829-3.5,10.606.569,5.036,4.8,8.744,8.744,11.935m-40.1-99.845A40.072,40.072,0,0,1,301.211,24.7" fill="none" stroke="#4b5923" stroke-linecap="round" stroke-linejoin="round" stroke-width="1"/>
    <path id="Path_17909" data-name="Path 17909" d="M276.554,24.483A31.9,31.9,0,0,0,284.58,25.9a12.242,12.242,0,0,0,7.87-3.41m56.012,1.635a13.678,13.678,0,0,1,4.092,9.2c.132,3.437-1.748,7.6-4.057,10.17m-25.846-3.769a137.905,137.905,0,0,0,14.7,12.093c2.5,1.748,7.459,4.022,9.662,3.436" fill="none" stroke="#4b5923" stroke-linecap="round" stroke-linejoin="round" stroke-width="1"/>
  </g>
</svg>
