<svg xmlns="http://www.w3.org/2000/svg" xmlns:xlink="http://www.w3.org/1999/xlink" width="417.405" height="223.074" viewBox="0 0 417.405 223.074">
  <defs>
    <radialGradient id="radial-gradient" cx="0.85" cy="0.849" r="0.41" gradientTransform="translate(4.116 5.128) scale(1.706 1.706)" gradientUnits="objectBoundingBox">
      <stop offset="0.57" stop-color="#140f10"/>
      <stop offset="0.8" stop-color="#140f10"/>
      <stop offset="1" stop-color="#140f10"/>
    </radialGradient>
  </defs>
  <g id="_2" data-name="2" transform="translate(-0.138 -0.792)">
    <rect id="Rectangle_6534" data-name="Rectangle 6534" width="247.332" height="163.585" rx="12.92" transform="translate(90.804 15.718)" opacity="0.09"/>
    <rect id="Rectangle_6535" data-name="Rectangle 6535" width="256" height="170" rx="12.92" transform="translate(103.666 0.792)" fill="#263238"/>
    <rect id="Rectangle_6536" data-name="Rectangle 6536" width="247.332" height="163.585" rx="12.92" transform="translate(108 4)" fill="#fff"/>
    <rect id="Rectangle_6537" data-name="Rectangle 6537" width="219" height="21" rx="9" transform="translate(122 16)" fill="#eee"/>
    <circle id="Ellipse_167" data-name="Ellipse 167" cx="6.5" cy="6.5" r="6.5" transform="translate(133 20)" fill="#d8d8d8"/>
    <rect id="Rectangle_6538" data-name="Rectangle 6538" width="219" height="21" rx="9" transform="translate(122 47)" fill="#eee"/>
    <circle id="Ellipse_168" data-name="Ellipse 168" cx="6.5" cy="6.5" r="6.5" transform="translate(133 51)" fill="#d8d8d8"/>
    <rect id="Rectangle_6539" data-name="Rectangle 6539" width="219" height="21" rx="9" transform="translate(122 78)" fill="#eee"/>
    <circle id="Ellipse_169" data-name="Ellipse 169" cx="6.5" cy="6.5" r="6.5" transform="translate(133 82)" fill="#d8d8d8"/>
    <path id="Path_17910" data-name="Path 17910" d="M177.208,154.693s15.963-31.973,31.873-28.506,24.146,11.818,33.8,0,5.868-40.284,26.078-39.915c18.029.329,5.1,31.021,24.039,36.219s45.435-41.357,45.435-41.357v72.835Z" fill="#865ae4"/>
    <path id="Path_17911" data-name="Path 17911" d="M338.438,153.969V110.425s-8.143,21.141-18.446,24.468-14.809-38.526-25.112-34.308-.966,28.976-21.57,38.313-14.6-26.669-29.3-25.113c-12.663,1.342-8.72,26.722-23.181,32.517s-28.325-6.707-36.058,8.391l153.665-.724Z" fill="#fff"/>
    <path id="Path_17912" data-name="Path 17912" d="M347.251,155.418h-231.8a.725.725,0,1,1,0-1.449h231.8a.725.725,0,1,1,0,1.449Z" fill="#f7f7f5"/>
    <ellipse id="Ellipse_170" data-name="Ellipse 170" cx="18.354" cy="17.951" rx="18.354" ry="17.951" transform="translate(190.117 22.884)" fill="#fda859"/>
    <ellipse id="Ellipse_171" data-name="Ellipse 171" cx="18.354" cy="17.951" rx="18.354" ry="17.951" transform="translate(189 21)" fill="#fcc700"/>
    <ellipse id="Ellipse_172" data-name="Ellipse 172" cx="13.986" cy="13.341" rx="13.986" ry="13.341" transform="translate(192.596 26.17) rotate(-2.95)" fill="#fda859"/>
    <path id="Path_17913" data-name="Path 17913" d="M205.934,25.548a13.911,13.911,0,0,1,15.222,11.9,1.652,1.652,0,0,0-.031-.39A13.981,13.981,0,0,0,193.3,39.722a2.773,2.773,0,0,0,.049.386A13.777,13.777,0,0,1,205.934,25.548Z" fill="#fda859"/>
    <path id="Path_17914" data-name="Path 17914" d="M213.821,42.053a3.625,3.625,0,0,0-2.668-3.435,3.848,3.848,0,0,0-2.143-6.752l-.232-2.322-2.191.21.215,2.156-1.244.118-.211-2.156-2.19.206.214,2.156-2,.193-1.389.131L200.2,34.7l1.389-.136,1.034,10.419-1.507.162.21,2.143,1.538-.145,1.994-.188.249,2.506,2.191-.21-.25-2.507,1.245-.118.249,2.506,2.191-.206-.258-2.59c2.427-.59,3.57-2.107,3.347-4.284Zm-9.446-7.75,2.961-.281c1.648-.158,2.629.438,2.783,1.792s-.732,2.1-2.379,2.26l-3.365.32-.4-4.052.4-.04Zm.885,10.418,3.588-.342.009.014c1.792-.171,2.672-.925,2.528-2.4s-1.179-2.029-2.971-1.858l-3.842.364.438,4.241.25-.022Z" fill="#fcc700" fill-rule="evenodd"/>
    <path id="Path_17915" data-name="Path 17915" d="M142.866,118.112h6.647s-11.8-14.757-12.127-14.757H131.53Z" fill="#225487"/>
    <path id="Path_17916" data-name="Path 17916" d="M127.949,131.513h12.972v6.761H127.949Zm6.486,19.075h35.287v6.761H134.435Z" fill="#5686db"/>
    <path id="Path_17917" data-name="Path 17917" d="M343.5,218s-1.214-38.1,7.264-39.916,9.39,11.778,9.39,11.778,6.036-40.3,21.108-33.382-3.662,38.822-3.662,38.822,10.51-9.766,14.165.423-27.386,24.025-27.386,24.025L343.5,218Z" fill="#5e8845"/>
    <path id="Path_17918" data-name="Path 17918" d="M361.236,211.766s15.051-33.054,15.467-45.61C376.7,166.163,376.153,194.9,361.236,211.766Z" fill="#4c6e37"/>
    <path id="Path_17919" data-name="Path 17919" d="M386.844,196.923s-11.234,7.787-21.926,9.316c0,0-9.3-13.227-11.751-21.738,0,0,4.024,18.592,10.537,23.287,0,0,15.93-1.9,23.14-10.865Z" fill="#4c6e37"/>
    <path id="Path_17920" data-name="Path 17920" d="M370.15,192.657s-2.8-11.114-.838-17.781c0,0,.04,11.449,2.535,16.1,0,0,7.767-6.707,8.76-10.182,0,0-3.582,9.807-10.457,11.866Z" fill="#4c6e37"/>
    <path id="Path_17921" data-name="Path 17921" d="M72.218,217.353s3.092-29.626-4.092-33.154-6.794,8.277-15.138.61-9.7-31.477-21.886-27.319,5.929-16.1-12.033-18.572S-8.478,158.5,10.537,174.3s-5.171,3.26-3.561,16.164,39.378,7.077,37.165,14.891-3.441,10,3.877,14.964l24.2-2.965Z" fill="#cb99fa"/>
    <path id="Path_17922" data-name="Path 17922" d="M72.218,217.353s3.092-29.626-4.092-33.154-6.794,8.277-15.138.61-9.7-31.477-21.886-27.319,5.929-16.1-12.033-18.572S-8.478,158.5,10.537,174.3s-5.171,3.26-3.561,16.164,39.378,7.077,37.165,14.891-3.441,10,3.877,14.964l24.2-2.965Z" fill="#92a44b"/>
    <path id="Path_17923" data-name="Path 17923" d="M68.039,195.159a.173.173,0,0,0-.2.161c0,.093-.805,9.209-4.749,11.55a4.214,4.214,0,0,1-3.9.127c.175-.248.342-.517.51-.8,2.187-3.683,3.837-10.061,2.294-15.427a.18.18,0,0,0-.221-.127.188.188,0,0,0-.128.228c1.516,5.251-.107,11.536-2.26,15.158-1.093,1.845-2.334,3.032-3.5,3.354-2.3-7.1-6.942-17.875-14.7-21.906-.034-2.757-1.1-3.924-5.084-6.755,3.1-4.487-3.186-17.063-3.461-17.6a.182.182,0,0,0-.322.161c.06.135,6.459,12.919,3.488,17.231-.671-.462-1.342-.965-2.187-1.529l-.436-.3c-6.332-4.4-7.834-13.28-7.847-13.367a.18.18,0,0,0-.072-.121.184.184,0,0,0-.257.038.18.18,0,0,0-.034.136c0,.094,1.543,9.122,8,13.616l.436.3c5.936,4.118,7.318,5.084,7.378,8a14.639,14.639,0,0,0-1.744-.718c-3.474-1.153-7.378-3.729-11.322-7.344v-.041a.123.123,0,0,0-.06-.04,69.121,69.121,0,0,1-7.868-8.719c1.516-3.166-.275-7.13-1.717-10.323a18.03,18.03,0,0,1-1.435-3.776.177.177,0,0,0-.076-.119.184.184,0,0,0-.139-.029.181.181,0,0,0-.147.208,18.764,18.764,0,0,0,1.462,3.89c1.388,3.059,3.1,6.849,1.8,9.84l-.67-.919c-6.178-8.391-9.659-16.621-8.88-20.994a.185.185,0,0,0-.363-.067c-.879,4.944,3.44,14.086,9.726,22.336a1.047,1.047,0,0,1-.839.55C14.9,171.314,5.1,157.819,4.963,157.678a.187.187,0,0,0-.255-.04.18.18,0,0,0-.04.255c.41.563,10.061,13.8,13.878,13.495h.067a1.34,1.34,0,0,0,.972-.59,70.772,70.772,0,0,0,7.714,8.525,4.3,4.3,0,0,1-3.153,1.079c-4.386-.254-9.31-6.036-9.39-6.117a.182.182,0,1,0-.275.235c.2.248,5.07,5.983,9.618,6.245a4.848,4.848,0,0,0,.933,0,4.6,4.6,0,0,0,2.535-1.161c3.756,3.448,7.693,6.124,11.4,7.378a13.206,13.206,0,0,1,1.852.772,2.193,2.193,0,0,1-1.067,1.281,23.9,23.9,0,0,1-7.908,2.73,2.9,2.9,0,0,0-.73-2.113c-1.423-1.69-5.494-3.461-16.83-2.274a.188.188,0,0,0-.16.2.193.193,0,0,0,.2.168c11.155-1.174,15.133.51,16.5,2.126a2.489,2.489,0,0,1,.671,1.965,48.21,48.21,0,0,1-8.048.812h-.141a30.428,30.428,0,0,1-10.933-1.63.174.174,0,0,0-.235.1.182.182,0,0,0,.005.14.177.177,0,0,0,.1.094,30.529,30.529,0,0,0,10.932,1.657,2.563,2.563,0,0,1-.985,1.677c-1.027.825-3.294,1.549-8.284.342a.18.18,0,1,0-.087.349,17.022,17.022,0,0,0,5.95.59,5.07,5.07,0,0,0,2.682-1.006A2.9,2.9,0,0,0,23.576,193a46.9,46.9,0,0,0,5.01-.355q1.544-.188,3.073-.483h.04c3.7-.7,6.747-1.757,8.277-2.817a2.682,2.682,0,0,0,1.194-1.409c7.559,4.025,12.073,14.6,14.38,21.6-3.568.671-6.124-2.213-8.25-9.3s-12.026-4.326-12.127-4.3a.18.18,0,0,0-.12.228.173.173,0,0,0,.221.12c.1,0,9.658-2.683,11.677,4.058,2.12,7.056,4.695,10.061,8.284,9.619l.429-.074c1.154,3.608,1.683,6.191,1.7,6.271a.174.174,0,1,0,.34-.074,58.954,58.954,0,0,0-1.7-6.278,6.123,6.123,0,0,0,2.971-2.421,5.233,5.233,0,0,0,2.683.443,4.084,4.084,0,0,0,1.63-.564c4.1-2.441,4.9-11.449,4.923-11.831a.175.175,0,0,0,.008-.2.173.173,0,0,0-.182-.077Z" fill="#c0d254"/>
    <path id="Path_17924" data-name="Path 17924" d="M188.165,125.867,156.54,129l-2.208-22.28,31.624-3.134,2.209,22.28Z" fill="#f2f2f2"/>
    <path id="Path_17925" data-name="Path 17925" d="M186.693,126.015l-29.168,2.891-2.1-21.212,29.168-2.891,2.1,21.212Z" fill="#4e76c9"/>
    <path id="Path_17926" data-name="Path 17926" d="M186.349,122.585l-18.136-16.151,3.266-.322L186,119.044l.348,3.541Zm-30.672-12.274-.262-2.609.865-.081,21.645,19.27-3.267.322-18.981-16.9Zm3.977-3.025,1.637-.161,19.592,17.446-.8.9-20.424-18.19Z" fill="#fff"/>
    <path id="Path_17927" data-name="Path 17927" d="M189.06,127.789l-43.012,4.263-.2-1.995,43.011-4.263.2,2Z" fill="#e6e6e6"/>
    <path id="Path_17928" data-name="Path 17928" d="M179.021,126.786l9.832-.975.2,2-9.832.974Z" fill="#cacbcc"/>
    <path id="Path_17929" data-name="Path 17929" d="M208.363,191.208c2.441,1.529-.718,6.573-3.159,5.044l-15.179-9.5,3.146-5.01,15.192,9.464Z" fill="#f5a486"/>
    <path id="Path_17930" data-name="Path 17930" d="M205.19,196.232a9.38,9.38,0,0,1,2.563-1.342c1.187-.315.61-3.722.61-3.722s4.6-.108,5.963-1.945a3.556,3.556,0,0,1,3.266-1.51l-8.719,11.792-3.683-3.273Z" fill="#343456"/>
    <path id="Path_17931" data-name="Path 17931" d="M208.51,194.588a1.406,1.406,0,0,1-.623.544,21.489,21.489,0,0,0-2.549,1.341.254.254,0,0,1-.349-.074.247.247,0,0,1,.081-.348,22.167,22.167,0,0,1,2.622-1.342c1-.436.718-2.73.53-3.582a.248.248,0,0,1,.483-.107c.027.114.563,2.4-.2,3.568Z" fill="#52527a"/>
    <path id="Path_17932" data-name="Path 17932" d="M199.959,185.949l-6.788-4.205-3.159,5.044,10.832,6.781a10.4,10.4,0,0,1-.885-7.62Z" fill="#c66547"/>
    <path id="Path_17933" data-name="Path 17933" d="M186.008,208.647c1.187,2.629-4.233,5.084-5.42,2.462L173.21,194.8l5.419-2.455Z" fill="#f5a486"/>
    <path id="Path_17934" data-name="Path 17934" d="M180.588,211.082a9.5,9.5,0,0,1,2.857.322c1.167.395,2.569-2.757,2.569-2.757s3.89,2.448,6.037,1.677a3.541,3.541,0,0,1,3.555.543l-13.8,5Z" fill="#343456"/>
    <path id="Path_17935" data-name="Path 17935" d="M184.263,211.551a1.445,1.445,0,0,1-.825.114,21.236,21.236,0,0,0-2.857-.308.255.255,0,0,1,0-.5,22.647,22.647,0,0,1,2.938.315c1.073.194,2.106-1.878,2.421-2.683a.246.246,0,0,1,.194-.155.248.248,0,0,1,.269.336c-.027.1-.879,2.307-2.14,2.884Z" fill="#52527a"/>
    <path id="Path_17936" data-name="Path 17936" d="M181.916,199.626l-3.3-7.285L173.2,194.8l5.279,11.644a10.33,10.33,0,0,1,3.441-6.814Z" fill="#c66547"/>
    <path id="Path_17937" data-name="Path 17937" d="M174.893,161.709,207.31,182.79l-5.7,14.555L176.161,187.1l-1.268-13.911V161.709Z" fill="#1c3d75"/>
    <path id="Path_17938" data-name="Path 17938" d="M126.936,140.159s-9.665,10.731-3.817,20.236,44.517,11.885,44.517,11.885l6.311,36.85,19.592-5.406-15.2-42.323L144.5,143.78l-17.56-3.621Z" fill="#3961aa"/>
    <path id="Path_17939" data-name="Path 17939" d="M146.166,93.878,148,96.648l-1.831.51Z" fill="#ef9478"/>
    <path id="Path_17940" data-name="Path 17940" d="M143.952,109.513s2.214.429,4.843,6.11c3.6,7.74-2.837,2.817-1.2,14.3l1.006,16c-9.209,1.382-14.233-1.5-24.582-2.8,0,0,2.857-11.06,2.844-14.286-.06-10.249-1.932-17.506,3.756-19.317C130.618,109.513,138.56,107.722,143.952,109.513Z" fill="#f88859"/>
    <path id="Path_17941" data-name="Path 17941" d="M133.154,109.09V97.513h7.378v11.47c.007.429-7.378.537-7.378.107Z" fill="#ffb27d"/>
    <path id="Path_17942" data-name="Path 17942" d="M133.154,104.891V97.513h7.378v6.332C138.842,105.14,136.1,106.528,133.154,104.891Z" fill="#c28358"/>
    <path id="Path_17943" data-name="Path 17943" d="M146.166,89.4s-.228-8-9.853-8.559c-11.221-.67-15.635,10.31-12.858,16.319s10.785,9.149,14.951,3.843c1.556-1.972,8.518-6.077,7.76-11.6Z" fill="#343456"/>
    <path id="Path_17944" data-name="Path 17944" d="M143.181,85.735s1.389,4.695-.57,6.936c0,0,.362,3.836-1.952,5.285,0,0,0-2.6-2.012-2.012s-2.388,3.984-.577,4.923c0,0,.094,2.542,2.194,3.119a14.246,14.246,0,0,0,1.857-.443c6.547-1.952,6-10.805,1.06-17.808Z" fill="#ffb27d"/>
    <ellipse id="Ellipse_173" data-name="Ellipse 173" cx="0.51" cy="0.724" rx="0.51" ry="0.724" transform="translate(145.723 94.194)" fill="#c28358"/>
    <path id="Path_17945" data-name="Path 17945" d="M125.8,92.255s-5.835-3.957-9.39,4.158,10.933,19.646,6.224,25.1c0,0,7.083-3.421,7.083-8.874l1.147,2.368s2.408-5.976-.255-9.39-.12-10.4-4.809-13.361Z" fill="#424266"/>
    <path id="Path_17946" data-name="Path 17946" d="M148.6,145.92l-1.006-16c-1.577-11.033,4.306-6.928,1.569-13.461-3.93,2.26-10.785,6.707-10.584,10.061.228,3.863,7.184,13.347,5.124,19.739a32.1,32.1,0,0,0,4.9-.342Z" fill="#fd7658"/>
    <path id="Path_17947" data-name="Path 17947" d="M179.857,126.328l2.616-1.147c.456-.134.952-.107,1.08.289l-3.22,2.226,3.052-1.6a.57.57,0,0,1,.758.329l-3.045,1.925,2.334-.973s.536-.174.738.255c-.517.671-4.7,2.093-6.828,3.354l-2.093,2.119-2.093-2.012s3.3-7.519,4.38-7.613-.255,2.858-.255,2.858a10.169,10.169,0,0,1,3.589-2.106,1.682,1.682,0,0,1,1.308.248l-2.321,1.851Z" fill="#ffb27d"/>
    <path id="Path_17948" data-name="Path 17948" d="M143.758,109.359s-4.93,1.576-2.6,15.078c.409,3.943,4.7,18.552,10.531,20.7,10.543,3.877,20.511-2.287,25.159-12.912l-3.005-3.534-18.553,2.9c-3.172-10.658-5.547-19.4-11.536-22.241Z" fill="#f88859"/>
    <path id="Path_17949" data-name="Path 17949" d="M131.873,160.207c-3.837-2.9-6.547-9.451-8.27-15.1-2.093,4.024-3.83,9.839-.483,15.286,5.842,9.517,44.516,11.885,44.516,11.885l6.312,36.85,6.62-1.824c-5.44-11.4-8.143-42.256-8.143-42.256s-33.147.771-40.552-4.836Z" fill="#2a5696"/>
    <path id="Path_17950" data-name="Path 17950" d="M106.512,114.349s16,5.265,17.345,14.588-1.576,32.068,6.319,39-10.464,4.7-15.615-3.354-8.049-50.231-8.049-50.231Z" fill="#c6916d"/>
    <path id="Path_17951" data-name="Path 17951" d="M162.525,168.926c-14.978-6.432-34.047,1.536-41.532-10.3s3.132-35.213-7.009-45.375-21.973-7.23-21.973-7.23-7.244,47.052,6.278,63.23,49.788,2.683,57.253,13.287c6.3,8.961,5.232,23.422,1.691,28.593H108.048a2.844,2.844,0,0,0-2.837,2.838v.979a2.844,2.844,0,0,0,2.837,2.837h55.523a2.843,2.843,0,0,0,2.837-2.837v-.979a2.879,2.879,0,0,0-.234-1.121C166.811,210.7,177.073,175.157,162.525,168.926Z" fill="#d39e7a"/>
    <rect id="Rectangle_6540" data-name="Rectangle 6540" width="406.141" height="8.002" rx="4.001" transform="translate(11.402 215.864)" fill="#9cb4f7"/>
    <path id="Path_17952" data-name="Path 17952" d="M65.356,166.317a34.21,34.21,0,0,1,13.12,2.884l2.682-1.6-1.274,2.247a41.8,41.8,0,0,1,6.821,4.2l2.127-2.321-.966,3.219q1.65,1.343,3.105,2.717l2.616-1.154-1.71,2.012a57.8,57.8,0,0,1,10.134,13.569c-4.52-41.78-36.655-25.776-36.655-25.776Z" fill="#5e8845"/>
    <path id="Path_17953" data-name="Path 17953" d="M82.386,152.97a34.334,34.334,0,0,1,9.692,9.323l3.125.04-2.26,1.254a41.165,41.165,0,0,1,3.642,7.117l3.025-.866-2.522,2.207q.692,1.941,1.234,3.931l2.831.382-2.515.845a57.69,57.69,0,0,1,1.576,16.862C118.163,156.048,82.386,152.97,82.386,152.97Z" fill="#4b5923"/>
    <path id="Path_17954" data-name="Path 17954" d="M138.949,164.4a34.217,34.217,0,0,0-12.744,4.166l-2.83-1.342,1.489,2.113a41.751,41.751,0,0,0-6.379,4.849l-2.348-2.1,1.308,3.085q-1.464,1.452-2.824,3.005l-2.682-.885,1.9,1.851a57.925,57.925,0,0,0-8.72,14.5c.275-42.034,33.832-29.244,33.832-29.244Z" fill="#92a44b"/>
    <path id="Path_17955" data-name="Path 17955" d="M121.342,151.8a34.215,34.215,0,0,0-9.2,9.78l-3.118.2,2.314,1.133a41.644,41.644,0,0,0-3.267,7.318L105,169.516l2.629,2.08q-.6,1.973-1.033,3.991l-2.81.523,2.555.717a57.652,57.652,0,0,0-.717,16.916c-19.86-37.058,15.715-41.941,15.715-41.941Z" fill="#5e8845"/>
    <path id="Path_17956" data-name="Path 17956" d="M110.611,215.864H94.56l-5.024-26.1h26.1l-5.023,26.1Z" fill="#fda859"/>
    <path id="Path_17957" data-name="Path 17957" d="M104.815,189.793H89.536l5.037,26.071h3a23.3,23.3,0,0,1-.443-7.646C97.719,200.833,101.9,193.817,104.815,189.793Z" opacity="0.32" fill="url(#radial-gradient)"/>
    <path id="Path_17958" data-name="Path 17958" d="M87.832,187.888h28.909v3.407H87.832Z" fill="#fda859"/>
    <path id="Path_17959" data-name="Path 17959" d="M367.078,149.066c-13.415-6.379-27.856,12.932-45.818,5.466q-.738-11.765-1.455-23.529c15.473,5.775,30.015-7.559,45.811-6.037.489,7.814.972,16.259,1.462,24.1Z" fill="#92a44b"/>
    <path id="Path_17960" data-name="Path 17960" d="M364.207,145.873c-14.427-3.427-25.393,12.134-40.129,7.029-.47-7.418-.671-11.134-1.174-18.592,15.031,2.113,25.273-6.117,40.13-7.043.436,7.418.67,11.141,1.173,18.606Z" fill="none" stroke="#fff" stroke-width="1.04"/>
    <path id="Path_17961" data-name="Path 17961" d="M350.35,137.9c.242,3.676-2.6,7.774-6.338,9.5s-6.976,0-7.217-3.675,2.6-7.8,6.338-9.531,6.989.033,7.217,3.7Z" fill="none" stroke="#fff" stroke-width="1.04"/>
    <path id="Path_17962" data-name="Path 17962" d="M340.276,145.692l.583-1.6a4.785,4.785,0,0,0,2.65-.47c1.106-.51,1.549-1.019,1.516-1.529-.094-1.388-4.629,2.012-4.816-.872-.094-1.382,1.12-2.844,3.139-3.776a5.966,5.966,0,0,1,2.837-.671l-.584,1.6a4.03,4.03,0,0,0-2.186.436c-1.067.49-1.543,1.067-1.509,1.543.094,1.469,4.628-1.952,4.815.9.094,1.342-1.133,2.817-3.232,3.79a5.707,5.707,0,0,1-3.213.637Z" fill="#fff"/>
    <path id="Path_17963" data-name="Path 17963" d="M343.817,145.96l-.671.3q-.323-4.994-.67-9.987l.67-.3C343.415,139.971,343.555,141.97,343.817,145.96Zm1.026-.436-.67.3c-.262-3.991-.4-5.99-.671-9.988l.671-.295C344.448,139.488,344.582,141.5,344.843,145.524Z" fill="#fff"/>
    <path id="Path_17964" data-name="Path 17964" d="M301.393,191.4c-3.481-11.617-23.026-9.8-28.311-24.743q6.707-6.875,13.414-13.73c4.957,12.523,20.961,14.045,28.681,24.422C310.723,181.932,305.853,186.828,301.393,191.4Z" fill="#92a44b"/>
    <path id="Path_17965" data-name="Path 17965" d="M301.742,187.908c-5.8-10.6-21.209-8.753-26.159-20.457l10.611-10.86c6.929,10.256,17.5,11.966,26.159,20.451Z" fill="none" stroke="#fff" stroke-width="0.85"/>
    <path id="Path_17966" data-name="Path 17966" d="M299.025,175.184c-2.092,2.153-6.123,2.683-9.215,1.342s-3.8-4.226-1.711-6.379,6.137-2.683,9.223-1.342S301.111,173.024,299.025,175.184Z" fill="none" stroke="#fff" stroke-width="0.85"/>
    <path id="Path_17967" data-name="Path 17967" d="M288.8,173.34l1.288-.517a3.911,3.911,0,0,0,1.73,1.342c.912.389,1.462.382,1.751.087.791-.818-3.756-1.69-2.1-3.4.785-.8,2.334-.872,4.025-.161a4.948,4.948,0,0,1,1.951,1.342l-1.287.516a3.3,3.3,0,0,0-1.456-1.08c-.879-.375-1.489-.355-1.757-.073-.839.865,3.7,1.737,2.079,3.414-.778.8-2.327.845-4.065.107a4.7,4.7,0,0,1-2.159-1.576Z" fill="#fff"/>
    <path id="Path_17968" data-name="Path 17968" d="M290.574,175.634l-.53-.229c2.274-2.34,3.414-3.507,5.682-5.848l.536.221-5.688,5.856Zm.852.362-.536-.228c2.273-2.341,3.414-3.508,5.687-5.856l.53.228Z" fill="#fff"/>
    <path id="Path_17969" data-name="Path 17969" d="M265.985,205.481c-7.009-6.291-19.223,2.817-28.774-4.95L240.565,186c8.343,6.292,19.572.832,28.881,4.588C268.333,195.434,267.1,200.638,265.985,205.481Z" fill="#92a44b"/>
    <path id="Path_17970" data-name="Path 17970" d="M264.8,203.026c-8.129-4.7-17.593,2.777-25.6-2.978l2.643-11.489c8.719,4.024,16.426.851,25.6,2.971Z" fill="none" stroke="#fff" stroke-width="0.66"/>
    <path id="Path_17971" data-name="Path 17971" d="M257.856,195.7c-.516,2.267-2.978,4.246-5.56,4.621s-4.226-1.267-3.709-3.534,2.978-4.259,5.56-4.635,4.219,1.281,3.709,3.548Z" fill="none" stroke="#fff" stroke-width="0.66"/>
    <path id="Path_17972" data-name="Path 17972" d="M250.337,198.6l.671-.858a3.019,3.019,0,0,0,1.69.194c.765-.114,1.127-.342,1.194-.67.2-.866-3.172.4-2.763-1.4.194-.859,1.194-1.523,2.582-1.724a3.834,3.834,0,0,1,1.845.114l-.678.906a2.533,2.533,0,0,0-1.4-.128c-.731.107-1.126.369-1.193.671-.208.9,3.159-.349,2.763,1.415-.2.845-1.2,1.5-2.649,1.717a3.592,3.592,0,0,1-2.06-.235Z" fill="#fff"/>
    <path id="Path_17973" data-name="Path 17973" d="M252.437,199.4l-.443.067c.564-2.468.839-3.7,1.4-6.177l.443-.06C253.275,195.7,253,196.936,252.437,199.4Zm.711-.1-.443.067c.557-2.475.838-3.709,1.4-6.178l.443-.067C253.986,195.6,253.7,196.835,253.148,199.3Z" fill="#fff"/>
  </g>
</svg>
