<?xml version="1.0" encoding="UTF-8"?> <svg xmlns="http://www.w3.org/2000/svg" width="96" height="96" viewBox="0 0 96 96" fill="none"><g filter="url(#filter0_d)"><circle cx="48" cy="44" r="36" fill="white"></circle></g><path d="M54.9109 58.5384H64.2809C64.3159 58.5384 64.3478 58.5518 64.3817 58.5583C63.8249 56.2473 62.9952 53.9763 61.8546 51.7505C61.0913 50.2605 59.853 49.0665 58.3383 48.3538L52.7897 45.7415C51.938 45.3415 50.923 45.5657 50.3208 46.2892C49.9154 46.7743 49.7553 47.4191 49.8847 48.0379C50.0141 48.6557 50.4184 49.1812 50.9839 49.4643L55.6559 52.0696H45.1355C44.2564 52.0696 43.3911 51.855 42.6138 51.4426L35.9132 47.8955C35.1698 47.5026 34.2523 47.6929 33.7272 48.3489C33.4114 48.7429 33.282 49.2556 33.3715 49.7526C33.461 50.2491 33.7602 50.6842 34.193 50.944L42.1313 55.7061C42.8768 56.153 43.6924 56.4694 44.5447 56.6392L53.3331 57.8299C53.8743 57.9038 54.3551 58.1798 54.6947 58.5868C54.7627 58.5578 54.8355 58.5384 54.9109 58.5384Z" fill="#C5CAE9"></path><path d="M58.3383 48.3543L52.7897 45.742C51.938 45.3409 50.923 45.5662 50.3208 46.2897C49.9154 46.7748 49.7553 47.4196 49.8847 48.0384C50.0141 48.6561 50.4184 49.1817 50.9838 49.4647L55.6559 52.0701H45.1355C44.2564 52.0701 43.3911 51.8555 42.6138 51.4437L35.9132 47.8966C35.1698 47.5036 34.2523 47.6939 33.7272 48.3499C33.4114 48.744 33.282 49.2561 33.3715 49.7531C33.461 50.2512 33.7602 50.6851 34.1935 50.9444L42.1313 55.7071C42.8768 56.1534 43.6924 56.4704 44.5447 56.6397L50.2873 57.4175L61.4051 50.9989C60.6439 49.8599 59.5873 48.9402 58.3383 48.3543Z" fill="#E8EAF6"></path><path d="M65.2509 59.1914C65.2509 58.8361 64.9626 58.5488 64.6078 58.5488H53.4158C53.1926 58.5488 52.9851 58.6637 52.8681 58.8534C52.75 59.0437 52.7398 59.2803 52.8395 59.4798L53.4827 60.7676C53.5915 60.9859 53.8147 61.1234 54.0583 61.1234H64.6057C64.9625 61.1228 65.2509 60.8344 65.2509 60.4797V59.1914Z" fill="url(#paint0_linear)"></path><path d="M65.2509 59.1914C65.2509 58.8361 64.9626 58.5488 64.6078 58.5488H53.4158C53.1926 58.5488 52.9851 58.6637 52.8681 58.8534C52.75 59.0437 52.7398 59.2803 52.8395 59.4798L53.4827 60.7676C53.5915 60.9859 53.8147 61.1234 54.0583 61.1234H64.6057C64.9625 61.1228 65.2509 60.8344 65.2509 60.4797V59.1914Z" fill="url(#paint1_linear)"></path><path d="M65.2509 59.1914C65.2509 58.8361 64.9626 58.5488 64.6078 58.5488H53.4158C53.1926 58.5488 52.9851 58.6637 52.8681 58.8534C52.75 59.0437 52.7398 59.2803 52.8395 59.4798L53.4827 60.7676C53.5915 60.9859 53.8147 61.1234 54.0583 61.1234H64.6057C64.9625 61.1228 65.2509 60.8344 65.2509 60.4797V59.1914Z" fill="url(#paint2_linear)"></path><path d="M56.169 38.1114L51.2345 30.9337C49.8793 29.5791 47.2481 28.2244 43.3399 26.8692C42.8714 26.7069 42.3636 26.7102 41.8979 26.88L32.9062 29.7149V38.8628L34.952 37.6915C35.3741 37.5039 35.8447 37.4575 36.2953 37.5567L43.7452 39.2127C44.6314 39.4095 45.5224 38.9049 45.8092 38.044C45.9602 37.5917 45.9219 37.0974 45.7041 36.6737C45.4864 36.2494 45.1063 35.932 44.6508 35.7912L39.8122 34.3028C39.5524 34.2231 39.375 33.9821 39.375 33.7099C39.375 33.3676 39.6532 33.09 39.995 33.09H46.4761C47.1015 33.09 47.696 33.3617 48.1052 33.8339L53.5606 40.128C54.0856 40.7339 54.9702 40.8751 55.6581 40.4628C56.0489 40.2283 56.3243 39.8428 56.4219 39.3976C56.5189 38.9523 56.4272 38.4866 56.169 38.1114Z" fill="#C5CAE9"></path><path d="M30.75 39.7651C30.75 39.9522 30.847 40.1257 31.006 40.2239C31.1645 40.3219 31.3628 40.3311 31.5305 40.2471L32.6087 39.708C32.7909 39.6169 32.9062 39.4304 32.9062 39.2261V29.6501C32.9062 29.4635 32.8092 29.2899 32.6502 29.1918C32.4912 29.0938 32.2934 29.0846 32.1257 29.1681L31.0475 29.7072C30.8653 29.7988 30.75 29.9848 30.75 30.1892V39.7651Z" fill="url(#paint3_linear)"></path><path d="M30.75 39.7651C30.75 39.9522 30.847 40.1257 31.006 40.2239C31.1645 40.3219 31.3628 40.3311 31.5305 40.2471L32.6087 39.708C32.7909 39.6169 32.9062 39.4304 32.9062 39.2261V29.6501C32.9062 29.4635 32.8092 29.2899 32.6502 29.1918C32.4912 29.0938 32.2934 29.0846 32.1257 29.1681L31.0475 29.7072C30.8653 29.7988 30.75 29.9848 30.75 30.1892V39.7651Z" fill="url(#paint4_linear)"></path><path d="M30.75 39.7651C30.75 39.9522 30.847 40.1257 31.006 40.2239C31.1645 40.3219 31.3628 40.3311 31.5305 40.2471L32.6087 39.708C32.7909 39.6169 32.9062 39.4304 32.9062 39.2261V29.6501C32.9062 29.4635 32.8092 29.2899 32.6502 29.1918C32.4912 29.0938 32.2934 29.0846 32.1257 29.1681L31.0475 29.7072C30.8653 29.7988 30.75 29.9848 30.75 30.1892V39.7651Z" fill="url(#paint5_linear)"></path><path d="M44.4961 50.3398C47.3244 50.3398 49.6172 48.047 49.6172 45.2187C49.6172 42.3904 47.3244 40.0977 44.4961 40.0977C41.6678 40.0977 39.375 42.3904 39.375 45.2187C39.375 48.047 41.6678 50.3398 44.4961 50.3398Z" fill="#1EA2AD"></path><path d="M44.4961 40.0977C41.6682 40.0977 39.375 42.3908 39.375 45.2187C39.375 46.6322 39.947 47.9103 40.872 48.8364L48.1138 41.5941C47.1871 40.6701 45.9084 40.0977 44.4961 40.0977Z" fill="#21BDCA"></path><path d="M44.5808 41.4922C44.7873 41.4922 44.9506 41.6555 44.9506 41.8625V42.0518C45.4584 42.1121 45.8885 42.2755 46.2848 42.5251C46.4228 42.6027 46.543 42.7316 46.543 42.938C46.543 43.2054 46.3279 43.4119 46.0611 43.4119C45.9748 43.4119 45.8886 43.3854 45.8028 43.3337C45.5015 43.1531 45.2088 43.0237 44.9161 42.9547V44.6075C46.2244 44.9342 46.7839 45.4587 46.7839 46.3805C46.7839 47.3271 46.0438 47.9556 44.9505 48.0581V48.575C44.9505 48.7815 44.7872 48.9454 44.5807 48.9454C44.3737 48.9454 44.2018 48.7815 44.2018 48.575V48.0414C43.5565 47.9729 42.9625 47.74 42.4374 47.3702C42.2913 47.2748 42.2051 47.1379 42.2051 46.9568C42.2051 46.6894 42.4116 46.483 42.6784 46.483C42.7813 46.483 42.8849 46.5175 42.9625 46.5778C43.3668 46.8705 43.7625 47.0684 44.2357 47.1546V45.4587C42.9792 45.1326 42.3937 44.6592 42.3937 43.6868C42.3937 42.7655 43.1252 42.1289 44.2018 42.0426V41.862C44.2019 41.6555 44.3737 41.4922 44.5808 41.4922ZM44.2363 44.4268V42.9035C43.6859 42.9546 43.4104 43.2474 43.4104 43.6263C43.4099 43.988 43.5733 44.2118 44.2363 44.4268ZM44.9161 45.6231V47.1895C45.467 47.1297 45.7683 46.8537 45.7683 46.4408C45.7683 46.0619 45.5791 45.83 44.9161 45.6231Z" fill="white"></path><path d="M43.3398 26.8692C42.8714 26.7069 42.3635 26.7102 41.8978 26.88L32.9062 29.7149V35.9352L46.4971 28.0886C45.5549 27.6826 44.5117 27.2757 43.3398 26.8692Z" fill="#E8EAF6"></path><path d="M52.6045 46.6596C52.0631 46.4687 51.463 46.692 51.1777 47.1902C51.0074 47.4889 50.9744 47.847 51.0882 48.1721C51.202 48.4967 51.4517 48.7566 51.7714 48.8828L52.0583 48.9961L53.0009 46.7987L52.6045 46.6596Z" fill="white"></path><path d="M43.3827 38.6889C43.9322 38.855 44.5216 38.6053 44.7836 38.0941C44.9411 37.7878 44.9572 37.4287 44.8289 37.109C44.7005 36.7898 44.4401 36.5417 44.1149 36.4295L43.8232 36.3281L42.9805 38.5659L43.3827 38.6889Z" fill="white"></path><defs><filter id="filter0_d" x="0" y="0" width="96" height="96" color-interpolation-filters="sRGB"><feFlood flood-opacity="0" result="BackgroundImageFix"></feFlood><feColorMatrix in="SourceAlpha" type="matrix" values="0 0 0 0 0 0 0 0 0 0 0 0 0 0 0 0 0 0 127 0"></feColorMatrix><feOffset dy="4"></feOffset><feGaussianBlur stdDeviation="6"></feGaussianBlur><feColorMatrix type="matrix" values="0 0 0 0 0 0 0 0 0 0 0 0 0 0 0 0 0 0 0.06 0"></feColorMatrix><feBlend mode="normal" in2="BackgroundImageFix" result="effect1_dropShadow"></feBlend><feBlend mode="normal" in="SourceGraphic" in2="effect1_dropShadow" result="shape"></feBlend></filter><linearGradient id="paint0_linear" x1="39.5486" y1="54.9526" x2="40.7486" y2="63.0732" gradientUnits="userSpaceOnUse"><stop stop-color="#E8EAF6"></stop><stop offset="1" stop-color="white"></stop></linearGradient><linearGradient id="paint1_linear" x1="55.3615" y1="61.1139" x2="55.3522" y2="60.1056" gradientUnits="userSpaceOnUse"><stop stop-color="#E8EAF6"></stop><stop offset="1" stop-color="white" stop-opacity="0"></stop></linearGradient><linearGradient id="paint2_linear" x1="69.1297" y1="59.5799" x2="62.6511" y2="61.6059" gradientUnits="userSpaceOnUse"><stop stop-color="#E8EAF6"></stop><stop offset="1" stop-color="white" stop-opacity="0"></stop></linearGradient><linearGradient id="paint3_linear" x1="28.4653" y1="13.4767" x2="37.5133" y2="15.9101" gradientUnits="userSpaceOnUse"><stop stop-color="#E8EAF6"></stop><stop offset="1" stop-color="white"></stop></linearGradient><linearGradient id="paint4_linear" x1="31.1975" y1="40.2633" x2="30.2319" y2="36.1031" gradientUnits="userSpaceOnUse"><stop stop-color="#E8EAF6"></stop><stop offset="1" stop-color="white" stop-opacity="0"></stop></linearGradient><linearGradient id="paint5_linear" x1="33.5764" y1="33.594" x2="32.3477" y2="33.6093" gradientUnits="userSpaceOnUse"><stop stop-color="#E8EAF6"></stop><stop offset="1" stop-color="white" stop-opacity="0"></stop></linearGradient></defs></svg> 