<?xml version="1.0" encoding="UTF-8"?> <svg xmlns="http://www.w3.org/2000/svg" width="96" height="97" viewBox="0 0 96 97" fill="none"><g filter="url(#filter0_d)"><circle cx="48" cy="44.4004" r="36" fill="white"></circle></g><path d="M54.2622 28.0762H36.1291C35.5403 28.0762 35.0625 28.554 35.0625 29.1428V60.0758H60.6622V34.4761L54.2622 28.0762Z" fill="url(#paint0_linear)"></path><path d="M54.2622 28.0762H36.1291C35.5403 28.0762 35.0625 28.554 35.0625 29.1428V60.0758H60.6622V34.4761L54.2622 28.0762Z" fill="url(#paint1_linear)"></path><path d="M54.2622 28.0762H36.1291C35.5403 28.0762 35.0625 28.554 35.0625 29.1428V60.0758H60.6622V34.4761L54.2622 28.0762Z" fill="url(#paint2_linear)"></path><path d="M60.6621 54.742V58.4753L64.3954 62.2086L63.4349 54.0449C62.6088 54.4886 61.6653 54.742 60.6621 54.742Z" fill="#22474A"></path><path d="M56.9316 62.2086L60.6649 58.4753V54.742C59.6617 54.742 58.7183 54.4887 57.8922 54.0449L56.9316 62.2086Z" fill="#3C6E72"></path><path d="M60.6635 54.743C63.9035 54.743 66.5301 52.1164 66.5301 48.8764C66.5301 45.6363 63.9035 43.0098 60.6635 43.0098C57.4235 43.0098 54.7969 45.6363 54.7969 48.8764C54.7969 52.1164 57.4235 54.743 60.6635 54.743Z" fill="#1EA2AD"></path><path d="M60.728 43.0135C60.7061 43.0135 60.6854 43.0098 60.6635 43.0098C57.424 43.0098 54.7969 45.6364 54.7969 48.8764C54.7969 52.1164 57.424 54.743 60.6635 54.743C60.6854 54.743 60.7061 54.7398 60.728 54.7398V43.0135Z" fill="#21BDCA"></path><path d="M54.2637 28.0762V34.4761H60.6636L54.2637 28.0762Z" fill="#C5CAE9"></path><path d="M47.3944 36.0763C47.3944 36.3706 47.156 36.6096 46.8611 36.6096H39.9278C39.6329 36.6096 39.3945 36.3706 39.3945 36.0763C39.3945 35.7819 39.633 35.543 39.9278 35.543H46.861C47.156 35.543 47.3944 35.7819 47.3944 36.0763Z" fill="#C5CAE9"></path><path d="M47.3944 53.672C47.3944 53.9663 47.156 54.2053 46.8611 54.2053H39.9278C39.6329 54.2053 39.3945 53.9663 39.3945 53.672C39.3945 53.3776 39.633 53.1387 39.9278 53.1387H46.861C47.156 53.1386 47.3944 53.3776 47.3944 53.672Z" fill="#C5CAE9"></path><path d="M52.1944 40.3438C52.1944 40.6382 51.956 40.8771 51.6611 40.8771H39.9278C39.6329 40.8771 39.3945 40.6382 39.3945 40.3438C39.3945 40.0495 39.633 39.8105 39.9278 39.8105H51.661C51.956 39.8105 52.1944 40.0495 52.1944 40.3438Z" fill="#C5CAE9"></path><path d="M52.1944 44.6075C52.1944 44.9019 51.956 45.1408 51.6611 45.1408H39.9278C39.6329 45.1408 39.3945 44.9019 39.3945 44.6075C39.3945 44.3131 39.633 44.0742 39.9278 44.0742H51.661C51.956 44.0741 52.1944 44.3131 52.1944 44.6075Z" fill="#C5CAE9"></path><path d="M52.1944 48.877C52.1944 49.1714 51.956 49.4103 51.6611 49.4103H39.9278C39.6329 49.4103 39.3945 49.1714 39.3945 48.877C39.3945 48.5827 39.633 48.3438 39.9278 48.3438H51.661C51.956 48.3438 52.1944 48.5827 52.1944 48.877Z" fill="#C5CAE9"></path><path d="M60.6605 46.9172C59.8354 45.6276 57.3613 46.0879 57.3613 48.3913C57.4125 50.4867 60.6605 52.0755 60.6605 52.0755C60.6605 52.0755 63.9084 50.4867 63.9597 48.3913C63.9592 46.0879 61.4855 45.6276 60.6605 46.9172Z" fill="white"></path><defs><filter id="filter0_d" x="0" y="0.400391" width="96" height="96" color-interpolation-filters="sRGB"><feFlood flood-opacity="0" result="BackgroundImageFix"></feFlood><feColorMatrix in="SourceAlpha" type="matrix" values="0 0 0 0 0 0 0 0 0 0 0 0 0 0 0 0 0 0 127 0"></feColorMatrix><feOffset dy="4"></feOffset><feGaussianBlur stdDeviation="6"></feGaussianBlur><feColorMatrix type="matrix" values="0 0 0 0 0 0 0 0 0 0 0 0 0 0 0 0 0 0 0.06 0"></feColorMatrix><feBlend mode="normal" in2="BackgroundImageFix" result="effect1_dropShadow"></feBlend><feBlend mode="normal" in="SourceGraphic" in2="effect1_dropShadow" result="shape"></feBlend></filter><linearGradient id="paint0_linear" x1="7.93783" y1="-16.6217" x2="59.1926" y2="40.6244" gradientUnits="userSpaceOnUse"><stop stop-color="#E8EAF6"></stop><stop offset="1" stop-color="white"></stop></linearGradient><linearGradient id="paint1_linear" x1="40.3756" y1="59.9586" x2="39.6772" y2="47.4634" gradientUnits="userSpaceOnUse"><stop stop-color="#E8EAF6"></stop><stop offset="1" stop-color="white" stop-opacity="0"></stop></linearGradient><linearGradient id="paint2_linear" x1="68.6188" y1="40.8917" x2="54.0681" y2="41.6427" gradientUnits="userSpaceOnUse"><stop stop-color="#E8EAF6"></stop><stop offset="1" stop-color="white" stop-opacity="0"></stop></linearGradient></defs></svg> 