<?xml version="1.0" encoding="UTF-8"?> <svg xmlns="http://www.w3.org/2000/svg" width="96" height="97" viewBox="0 0 96 97" fill="none"><g filter="url(#filter0_d)"><circle cx="48" cy="44.2988" r="36" fill="white"></circle></g><path d="M38.2455 34.6772C38.2455 35.5034 37.7247 36.2404 36.9443 36.5159C35.4295 37.052 34.3438 38.497 34.3438 40.1953V55.8025C34.3438 57.9573 36.0908 59.7043 38.2455 59.7043H48V33.3672H38.2455V34.6772Z" fill="#C5CAE9"></path><path d="M59.0558 36.5154C58.2754 36.2403 57.7545 35.5034 57.7545 34.6772V33.3672H38.2455V34.6772C38.2455 35.5034 37.7247 36.2404 36.9443 36.5159C35.4295 37.052 34.3438 38.497 34.3438 40.1953V55.8025C34.3438 57.9573 36.0908 59.7043 38.2455 59.7043H48H57.7545C59.9092 59.7043 61.6562 57.9573 61.6562 55.8025V40.1953C61.6563 38.497 60.5702 37.052 59.0558 36.5154Z" fill="url(#paint0_linear)"></path><path d="M59.0558 36.5154C58.2754 36.2403 57.7545 35.5034 57.7545 34.6772V33.3672H38.2455V34.6772C38.2455 35.5034 37.7247 36.2404 36.9443 36.5159C35.4295 37.052 34.3438 38.497 34.3438 40.1953V55.8025C34.3438 57.9573 36.0908 59.7043 38.2455 59.7043H48H57.7545C59.9092 59.7043 61.6562 57.9573 61.6562 55.8025V40.1953C61.6563 38.497 60.5702 37.052 59.0558 36.5154Z" fill="url(#paint1_linear)"></path><path d="M59.0558 36.5154C58.2754 36.2403 57.7545 35.5034 57.7545 34.6772V33.3672H38.2455V34.6772C38.2455 35.5034 37.7247 36.2404 36.9443 36.5159C35.4295 37.052 34.3438 38.497 34.3438 40.1953V55.8025C34.3438 57.9573 36.0908 59.7043 38.2455 59.7043H48H57.7545C59.9092 59.7043 61.6562 57.9573 61.6562 55.8025V40.1953C61.6563 38.497 60.5702 37.052 59.0558 36.5154Z" fill="url(#paint2_linear)"></path><path d="M41.1713 37.1158C41.1713 37.9421 40.6504 38.679 39.8701 38.9546C38.3552 39.4906 37.2695 40.9357 37.2695 42.634V53.8516C37.2695 55.4679 38.5801 56.7779 40.1958 56.7779H47.9995V33.3672H41.1713V37.1158Z" fill="#1E88E5"></path><path d="M56.1288 38.9541C55.3485 38.679 54.8276 37.9421 54.8276 37.1159V33.3672H47.9995H41.1713V37.1158C41.1713 37.9421 40.6504 38.679 39.8701 38.9546C38.3552 39.4906 37.2695 40.9357 37.2695 42.634V53.8516C37.2695 55.4679 38.5801 56.7779 40.1958 56.7779H47.9995H55.8031C57.4189 56.7779 58.7294 55.4679 58.7294 53.8516V42.634C58.7294 40.9357 57.6432 39.4906 56.1288 38.9541Z" fill="#C5CAE9"></path><path d="M45.8604 56.504C45.7449 56.7401 45.4595 56.8396 45.2225 56.723L37.512 52.9603C37.2755 52.8452 37.177 52.5603 37.2926 52.3223L45.2362 36.0455C45.3513 35.8085 45.6366 35.71 45.8736 35.8261L53.584 39.5883C53.82 39.7039 53.9195 39.9892 53.803 40.2262L45.8604 56.504Z" fill="white"></path><path d="M46.7423 37.3145L51.8824 39.8228C51.6518 40.2945 51.8502 40.8681 52.3204 41.0978L45.6323 54.8048C45.1612 54.5751 44.5876 54.7736 44.3579 55.2427L39.2172 52.7349C39.4479 52.2632 39.2499 51.6892 38.7793 51.46L45.4684 37.7529C45.9386 37.9831 46.5121 37.7856 46.7423 37.3145Z" fill="#21BDCA"></path><path d="M45.5533 49.134C47.1329 49.134 48.4133 47.8536 48.4133 46.274C48.4133 44.6945 47.1329 43.4141 45.5533 43.4141C43.9738 43.4141 42.6934 44.6945 42.6934 46.274C42.6934 47.8536 43.9738 49.134 45.5533 49.134Z" fill="white"></path><path d="M43.7195 45.3382C43.7702 45.2338 43.8931 45.1909 43.9979 45.2421L44.0936 45.2889C44.2491 45.047 44.4384 44.8705 44.6622 44.7315C44.7349 44.6808 44.8305 44.6515 44.9349 44.7022C45.07 44.768 45.1217 44.9275 45.0558 45.0626C45.0344 45.1065 45.0002 45.1426 44.9524 45.1743C44.7866 45.2821 44.6491 45.3987 44.5423 45.5298L45.3782 45.9376C45.8664 45.3572 46.2702 45.2031 46.736 45.4309C47.215 45.6645 47.3501 46.1937 47.1325 46.7721L47.3934 46.9004C47.4983 46.9511 47.5402 47.074 47.489 47.1788C47.4378 47.2827 47.3134 47.33 47.2086 47.2788L46.9384 47.1467C46.7443 47.4569 46.4805 47.7003 46.1635 47.8734C46.0791 47.9241 45.9884 47.9344 45.8972 47.8895C45.762 47.8226 45.7084 47.6676 45.7743 47.533C45.7997 47.4813 45.8431 47.4374 45.8923 47.413C46.1401 47.2809 46.3381 47.1292 46.4981 46.9107L45.6402 46.4932C45.1647 47.0482 44.7808 47.2272 44.2887 46.9872C43.8229 46.7599 43.681 46.2327 43.9034 45.6674L43.8117 45.6225C43.7083 45.5699 43.6683 45.4426 43.7195 45.3382ZM45.1188 46.2366L44.3482 45.861C44.2385 46.1522 44.3185 46.3629 44.5101 46.457C44.693 46.5463 44.8461 46.519 45.1188 46.2366ZM45.8923 46.1878L46.6844 46.5746C46.7902 46.281 46.7249 46.0611 46.5157 45.9581C46.3244 45.8654 46.1601 45.904 45.8923 46.1878Z" fill="#21BDCA"></path><path d="M58.1963 50.518C58.308 50.7565 58.2046 51.0398 57.9657 51.1516L50.1913 54.7797C49.9528 54.8914 49.6695 54.788 49.5573 54.5491L41.8986 38.1362C41.7869 37.8982 41.8898 37.6153 42.1293 37.5026L49.9031 33.8749C50.1411 33.7637 50.4249 33.8666 50.5367 34.1055L58.1963 50.518Z" fill="#E8EAF6"></path><path d="M43.8285 37.7614L49.0116 35.3418C49.2335 35.8173 49.8036 36.0241 50.2786 35.8027L56.7283 49.6238C56.2528 49.8457 56.0465 50.4153 56.2684 50.8909L51.0854 53.3095C50.8634 52.8344 50.2933 52.6281 49.8173 52.85L43.3672 39.0279C43.8432 38.8061 44.0504 38.2355 43.8285 37.7614Z" fill="#1EA2AD"></path><path d="M50.0475 47.1887C51.627 47.1887 52.9075 45.9083 52.9075 44.3287C52.9075 42.7492 51.627 41.4688 50.0475 41.4688C48.468 41.4688 47.1875 42.7492 47.1875 44.3287C47.1875 45.9083 48.468 47.1887 50.0475 47.1887Z" fill="#E8EAF6"></path><path d="M48.1473 45.1572C48.0976 45.0519 48.142 44.9295 48.2473 44.8812L48.3444 44.8353C48.2537 44.5617 48.2346 44.3037 48.2683 44.0428C48.2751 43.9535 48.3122 43.8613 48.418 43.8121C48.5541 43.7482 48.7111 43.8092 48.7736 43.9453C48.7941 43.9892 48.8019 44.0394 48.7955 44.0955C48.7751 44.292 48.779 44.472 48.8131 44.6379L49.6564 44.2443C49.5115 43.499 49.6466 43.0889 50.1163 42.8699C50.5991 42.6441 51.0956 42.8723 51.4082 43.4054L51.6716 43.2825C51.7774 43.2333 51.8993 43.2776 51.9486 43.3835C51.9979 43.4884 51.9554 43.6156 51.8497 43.6644L51.577 43.7917C51.6956 44.137 51.7185 44.495 51.6546 44.8515C51.6414 44.9485 51.5917 45.0251 51.4995 45.068C51.3639 45.1315 51.2088 45.0754 51.1449 44.9388C51.1205 44.8866 51.1142 44.8256 51.1259 44.771C51.1785 44.4959 51.1854 44.2462 51.1156 43.9843L50.2524 44.3887C50.3845 45.1085 50.2831 45.5188 49.7866 45.7509C49.3169 45.9694 48.818 45.748 48.5175 45.2203L48.4257 45.2632C48.3205 45.3113 48.1961 45.2631 48.1473 45.1572ZM49.7256 44.6344L48.9482 44.9973C49.1052 45.2661 49.3207 45.3367 49.5139 45.247C49.6978 45.1611 49.7744 45.0236 49.7256 44.6344ZM50.1743 44.0028L50.9737 43.6302C50.8118 43.3634 50.5991 43.2756 50.3889 43.3737C50.1953 43.4634 50.1221 43.6156 50.1743 44.0028Z" fill="#21BDCA"></path><path d="M56.7785 28.4863H39.2205C38.143 28.4863 37.2695 29.3598 37.2695 30.4372V31.4127V32.3882C37.2695 32.9266 37.7065 33.3636 38.245 33.3636H57.7539C58.2924 33.3636 58.7294 32.9267 58.7294 32.3882V31.4126V30.4372C58.7294 29.3598 57.8559 28.4863 56.7785 28.4863Z" fill="#1EA2AD"></path><path d="M43.3707 39.019C43.8458 38.7976 44.053 38.2279 43.8311 37.7519L48.0026 35.8059V34.7539L42.1329 37.493C41.8939 37.6046 41.791 37.8885 41.9022 38.1265L48.0027 51.1985V48.9447L43.3707 39.019Z" fill="white"></path><path d="M43.3672 39.0339L47.9991 48.9591V46.3244C47.7821 46.1015 47.5953 45.8411 47.4563 45.5421C46.9393 44.4345 47.1954 43.1684 47.9991 42.3412V35.8203L43.8276 37.7673C44.0495 38.2423 43.8423 38.8121 43.3672 39.0339Z" fill="#21BDCA"></path><path d="M47.4559 45.5999C47.5949 45.8989 47.7817 46.1588 47.9987 46.3827V42.3984C47.195 43.2261 46.9389 44.4927 47.4559 45.5999Z" fill="white"></path><path d="M47.9995 28.4863H39.2205C38.143 28.4863 37.2695 29.3598 37.2695 30.4372V31.4127V32.3882C37.2695 32.9266 37.7065 33.3636 38.245 33.3636H47.9995V28.4863Z" fill="#21BDCA"></path><defs><filter id="filter0_d" x="0" y="0.298828" width="96" height="96" color-interpolation-filters="sRGB"><feFlood flood-opacity="0" result="BackgroundImageFix"></feFlood><feColorMatrix in="SourceAlpha" type="matrix" values="0 0 0 0 0 0 0 0 0 0 0 0 0 0 0 0 0 0 127 0"></feColorMatrix><feOffset dy="4"></feOffset><feGaussianBlur stdDeviation="6"></feGaussianBlur><feColorMatrix type="matrix" values="0 0 0 0 0 0 0 0 0 0 0 0 0 0 0 0 0 0 0.06 0"></feColorMatrix><feBlend mode="normal" in2="BackgroundImageFix" result="effect1_dropShadow"></feBlend><feBlend mode="normal" in="SourceGraphic" in2="effect1_dropShadow" result="shape"></feBlend></filter><linearGradient id="paint0_linear" x1="5.40425" y1="-3.42115" x2="45.0981" y2="54.0485" gradientUnits="userSpaceOnUse"><stop stop-color="#E8EAF6"></stop><stop offset="1" stop-color="white"></stop></linearGradient><linearGradient id="paint1_linear" x1="40.0123" y1="59.6078" x2="39.5684" y2="49.3108" gradientUnits="userSpaceOnUse"><stop stop-color="#E8EAF6"></stop><stop offset="1" stop-color="white" stop-opacity="0"></stop></linearGradient><linearGradient id="paint2_linear" x1="70.1452" y1="43.9149" x2="54.649" y2="44.9517" gradientUnits="userSpaceOnUse"><stop stop-color="#E8EAF6"></stop><stop offset="1" stop-color="white" stop-opacity="0"></stop></linearGradient></defs></svg> 