<svg xmlns="http://www.w3.org/2000/svg" width="73.745" height="82.266" viewBox="0 0 73.745 82.266"><g transform="translate(-0.5 0)"><path d="M116.074,386.009l1.205-2.088,7.883,4.552-1.206,2.087Zm0,0" transform="translate(-97.004 -322.235)" fill="#fff"/><path d="M115.988,91.525l7.9-4.56,1.206,2.088-7.9,4.56Zm0,0" transform="translate(-96.932 -72.992)" fill="#fff"/><path d="M287.336,89.021l1.206-2.088,7.9,4.56-1.205,2.087Zm0,0" transform="translate(-240.749 -72.965)" fill="#fff"/><path d="M393.883,227.609h2.41v9.179h-2.41Zm0,0" transform="translate(-330.176 -191.038)" fill="#fff"/><path d="M181.231,395.832a9.333,9.333,0,1,0,9.332,9.332A9.344,9.344,0,0,0,181.231,395.832Zm0,16.255a6.923,6.923,0,1,1,6.922-6.923A6.931,6.931,0,0,1,181.231,412.087Zm0,0" transform="translate(-143.859 -332.232)" fill="#fff"/><path d="M181.231,18.665A9.333,9.333,0,1,0,171.9,9.333a9.343,9.343,0,0,0,9.333,9.332Zm0-16.255a6.923,6.923,0,1,1-6.923,6.923,6.93,6.93,0,0,1,6.923-6.923Zm0,0" transform="translate(-143.859)" fill="#fff"/><path d="M181.231,216.626a9.333,9.333,0,1,0-9.333-9.332,9.343,9.343,0,0,0,9.333,9.332Zm0-16.255a6.923,6.923,0,1,1-6.923,6.922,6.93,6.93,0,0,1,6.923-6.922Zm0,0" transform="translate(-143.859 -166.154)" fill="#fff"/><path d="M352.633,117.352a9.333,9.333,0,1,0-9.332-9.333A9.343,9.343,0,0,0,352.633,117.352Zm0-16.255a6.923,6.923,0,1,1-6.922,6.922A6.93,6.93,0,0,1,352.633,101.1Zm0,0" transform="translate(-287.721 -82.83)" fill="#fff"/><path d="M352.633,296.977a9.332,9.332,0,1,0,9.333,9.332A9.343,9.343,0,0,0,352.633,296.977Zm0,16.255a6.922,6.922,0,1,1,6.923-6.923A6.93,6.93,0,0,1,352.633,313.232Zm0,0" transform="translate(-287.721 -249.26)" fill="#fff"/><path d="M9.833,117.352A9.333,9.333,0,1,0,.5,108.019,9.343,9.343,0,0,0,9.833,117.352Zm0-16.255a6.923,6.923,0,1,1-6.923,6.922A6.93,6.93,0,0,1,9.833,101.1Zm0,0" transform="translate(0 -82.83)" fill="#fff"/><path d="M9.833,296.977a9.332,9.332,0,1,0,9.332,9.332A9.343,9.343,0,0,0,9.833,296.977Zm0,16.255a6.922,6.922,0,1,1,6.922-6.923A6.931,6.931,0,0,1,9.833,313.232Zm0,0" transform="translate(0 -249.26)" fill="#fff"/><path d="M222.484,128.762h2.41v9.11h-2.41Zm0,0" transform="translate(-186.317 -108.073)" fill="#fff"/><path d="M115.824,289.429l7.921-4.582,1.206,2.086-7.921,4.582Zm0,0" transform="translate(-96.794 -239.079)" fill="#fff"/><path d="M287.34,286.926l1.207-2.086,7.921,4.583-1.207,2.086Zm0,0" transform="translate(-240.752 -239.073)" fill="#fff"/><path d="M214.108,430.422l-1.7-1.7a2.917,2.917,0,0,0,.619-3.192l2.219-.94a5.325,5.325,0,0,1-1.134,5.836Zm-5.814-5.813-1.7-1.7a5.287,5.287,0,0,1,2.71-1.451l.473,2.363A2.889,2.889,0,0,0,208.294,424.608Zm4.094-.015a2.881,2.881,0,0,0-1.484-.781l.456-2.367a5.284,5.284,0,0,1,2.72,1.432Zm0,0" transform="translate(-172.976 -353.73)" fill="#fff"/><path d="M214.108,34.589l-1.7-1.7a2.915,2.915,0,0,0,.619-3.192l2.219-.94a5.325,5.325,0,0,1-1.134,5.836Zm-5.814-5.813-1.7-1.7a5.287,5.287,0,0,1,2.71-1.451l.473,2.363a2.884,2.884,0,0,0-1.479.792Zm4.095-.015a2.886,2.886,0,0,0-1.484-.781l.456-2.367a5.286,5.286,0,0,1,2.72,1.431Zm0,0" transform="translate(-172.976 -21.498)" fill="#fff"/><path d="M214.108,232.55l-1.7-1.7a2.914,2.914,0,0,0,.619-3.192l2.219-.94a5.325,5.325,0,0,1-1.134,5.836Zm-5.814-5.813-1.7-1.7a5.287,5.287,0,0,1,2.71-1.451l.473,2.363A2.884,2.884,0,0,0,208.294,226.737Zm4.095-.015a2.886,2.886,0,0,0-1.484-.781l.456-2.367a5.286,5.286,0,0,1,2.72,1.431Zm0,0" transform="translate(-172.976 -187.652)" fill="#fff"/><path d="M385.509,133.276l-1.7-1.7a2.916,2.916,0,0,0,.619-3.193l2.22-.94a5.327,5.327,0,0,1-1.135,5.836Zm-5.813-5.813-1.7-1.7a5.288,5.288,0,0,1,2.709-1.451l.473,2.363a2.882,2.882,0,0,0-1.478.792Zm4.094-.015a2.889,2.889,0,0,0-1.484-.781l.456-2.366a5.288,5.288,0,0,1,2.72,1.431Zm0,0" transform="translate(-316.838 -104.329)" fill="#fff"/><path d="M385.509,331.565l-1.7-1.7a2.915,2.915,0,0,0,.619-3.192l2.22-.94a5.327,5.327,0,0,1-1.135,5.836Zm-5.813-5.814-1.7-1.7A5.288,5.288,0,0,1,380.7,322.6l.473,2.364A2.885,2.885,0,0,0,379.7,325.752Zm4.094-.014a2.885,2.885,0,0,0-1.484-.781l.456-2.366a5.287,5.287,0,0,1,2.72,1.431Zm0,0" transform="translate(-316.838 -270.758)" fill="#fff"/><path d="M42.709,133.276l-1.7-1.7a2.918,2.918,0,0,0,.619-3.193l2.219-.94a5.327,5.327,0,0,1-1.135,5.836ZM36.9,127.463l-1.7-1.7a5.288,5.288,0,0,1,2.709-1.451l.473,2.363a2.882,2.882,0,0,0-1.478.792Zm4.094-.015a2.891,2.891,0,0,0-1.484-.781l.456-2.366a5.288,5.288,0,0,1,2.72,1.431Zm0,0" transform="translate(-29.117 -104.329)" fill="#fff"/><path d="M42.709,331.565l-1.7-1.7a2.917,2.917,0,0,0,.619-3.192l2.219-.94a5.327,5.327,0,0,1-1.135,5.836ZM36.9,325.752l-1.7-1.7A5.288,5.288,0,0,1,37.9,322.6l.473,2.364A2.885,2.885,0,0,0,36.9,325.752Zm4.094-.014a2.885,2.885,0,0,0-1.484-.781l.456-2.366a5.286,5.286,0,0,1,2.72,1.431Zm0,0" transform="translate(-29.117 -270.758)" fill="#fff"/></g></svg>