<svg xmlns="http://www.w3.org/2000/svg" xmlns:xlink="http://www.w3.org/1999/xlink" width="79.562" height="55.917" viewBox="0 0 79.562 55.917">
  <defs>
    <linearGradient id="linear-gradient" x1="0.5" y1="1" x2="0.5" gradientUnits="objectBoundingBox">
      <stop offset="0" stop-color="#b3b7f4"/>
      <stop offset="1" stop-color="#a7bffb"/>
    </linearGradient>
    <linearGradient id="linear-gradient-2" x1="0.5" x2="0.5" y2="1" gradientUnits="objectBoundingBox">
      <stop offset="0" stop-color="#f2f6ff"/>
      <stop offset="1" stop-color="#dae4ff"/>
    </linearGradient>
  </defs>
  <g id="Icon_Control" data-name="Icon Control" transform="translate(79.562 55.917) rotate(180)">
    <path id="Rectangle" d="M38.609,4.261A4.261,4.261,0,0,0,34.35,0H0V19.305H43.936l-5.326-8.972Z" transform="translate(49.262 55.917) rotate(180)" fill="url(#linear-gradient)"/>
    <path id="Rectangle-2" data-name="Rectangle" d="M0,0H10.651V5.326a5.326,5.326,0,0,1-5.326,5.326h0A5.326,5.326,0,0,1,0,5.326Z" transform="translate(10.651 47.264) rotate(180)" fill="#4c50b1"/>
    <path id="Combined_Shape_Copy" data-name="Combined Shape Copy" d="M0,55.917H36.164A4.655,4.655,0,0,0,40.82,51.48L42.869,8.52l.537-4.293A5.312,5.312,0,0,1,48.195,0H7.342A4.266,4.266,0,0,0,3.089,4.008Z" transform="translate(63.107 55.917) rotate(180)" fill="#757ae9"/>
    <path id="Combined_Shape" data-name="Combined Shape" d="M6.416,10.651H47.254a6.646,6.646,0,0,1-5.978-5.284L40.606,0H0L1.183,6.307a5.328,5.328,0,0,0,5.234,4.343Z" transform="translate(74.556 10.651) rotate(180)" fill="url(#linear-gradient-2)"/>
    <g id="Group_36" data-name="Group 36" transform="translate(29.756 18.371)">
      <path id="Combined_Shape-2" data-name="Combined Shape" d="M1.175,26.163H19.814a1.559,1.559,0,0,0,1.5-1.332,1.18,1.18,0,0,0-.28-.945,1.164,1.164,0,0,0-.89-.387H1.511a1.556,1.556,0,0,0-1.5,1.331,1.183,1.183,0,0,0,.28.946,1.162,1.162,0,0,0,.883.387Zm.839-12.581h18.64a1.559,1.559,0,0,0,1.5-1.334,1.183,1.183,0,0,0-.28-.945,1.163,1.163,0,0,0-.888-.386H2.349a1.559,1.559,0,0,0-1.5,1.331,1.185,1.185,0,0,0,.28.946A1.163,1.163,0,0,0,2.014,13.581ZM2.927,2.663H21.565a1.557,1.557,0,0,0,1.5-1.332A1.183,1.183,0,0,0,22.8.386,1.163,1.163,0,0,0,21.9,0H3.262a1.559,1.559,0,0,0-1.5,1.331,1.184,1.184,0,0,0,.28.945,1.163,1.163,0,0,0,.885.38Z" transform="translate(23.079 26.163) rotate(180)" fill="#fff"/>
    </g>
    <g id="Group_61" data-name="Group 61" transform="translate(79.562 48.928) rotate(180)">
      <path id="Path" d="M21.681,0a1.845,1.845,0,0,1,1.841,1.957L22.355,20.633a1.845,1.845,0,0,1-1.841,1.733H1.844A1.845,1.845,0,0,1,0,20.41L1.171,1.731A1.845,1.845,0,0,1,3.012,0Z" fill="#00d4b0"/>
      <path id="Path-2" data-name="Path" d="M4.2,5.592,1.761,3.355,0,5.431,3.555,8.667a1.378,1.378,0,0,0,1.992-.022l5.636-6.618L8.962,0Z" transform="translate(6.171 6.291)" fill="#fff"/>
    </g>
  </g>
</svg>
