<svg xmlns="http://www.w3.org/2000/svg" xmlns:xlink="http://www.w3.org/1999/xlink" width="68.621" height="49.589" viewBox="0 0 68.621 49.589">
  <defs>
    <linearGradient id="linear-gradient" x1="0.5" y1="1" x2="0.5" gradientUnits="objectBoundingBox">
      <stop offset="0" stop-color="#b3b7f4"/>
      <stop offset="1" stop-color="#a7bffb"/>
    </linearGradient>
    <linearGradient id="linear-gradient-2" x1="0.5" x2="0.5" y2="1" gradientUnits="objectBoundingBox">
      <stop offset="0" stop-color="#f2f6ff"/>
      <stop offset="1" stop-color="#dae4ff"/>
    </linearGradient>
  </defs>
  <g id="Icon_Track" data-name="Icon Track" transform="translate(-0.619)">
    <g id="ic_take_control" data-name="ic_take control" transform="translate(0.619)">
      <path id="Rectangle" d="M3.779,0H34.24V9.164H0V3.779A3.779,3.779,0,0,1,3.779,0Z" fill="url(#linear-gradient)"/>
      <path id="Combined_Shape_Copy" data-name="Combined Shape Copy" d="M42.741,49.589H10.67a4.128,4.128,0,0,1-4.128-3.935L4.723,7.556,4.246,3.749A4.711,4.711,0,0,0,0,0H36.23A3.784,3.784,0,0,1,40,3.554Z" transform="translate(3.779)" fill="#757ae9"/>
      <path id="Combined_Shape" data-name="Combined Shape" d="M36.222,9.446H.006a5.894,5.894,0,0,0,5.3-4.686L5.9,0H41.913L40.864,5.594a4.725,4.725,0,0,1-4.642,3.852Z" transform="translate(14.761 40.144)" fill="url(#linear-gradient-2)"/>
      <g id="Group_36" data-name="Group 36" transform="translate(16.943 10.095)">
        <path id="Combined_Shape-2" data-name="Combined Shape" d="M19.422,23.2H2.893a1.382,1.382,0,0,1-1.33-1.181,1.046,1.046,0,0,1,.248-.838,1.033,1.033,0,0,1,.79-.343H19.125a1.38,1.38,0,0,1,1.329,1.18,1.049,1.049,0,0,1-.248.839,1.03,1.03,0,0,1-.784.343Zm-.744-11.158H2.148A1.382,1.382,0,0,1,.819,10.861a1.049,1.049,0,0,1,.248-.838,1.031,1.031,0,0,1,.787-.342H18.381a1.382,1.382,0,0,1,1.33,1.18,1.051,1.051,0,0,1-.248.839A1.031,1.031,0,0,1,18.678,12.044Zm-.81-9.689H1.34A1.381,1.381,0,0,1,.009,1.18,1.049,1.049,0,0,1,.249.342,1.031,1.031,0,0,1,1.042,0H17.571A1.382,1.382,0,0,1,18.9,1.18a1.05,1.05,0,0,1-.248.838A1.031,1.031,0,0,1,17.869,2.356Z" transform="translate(0.003 0)" fill="#fff"/>
      </g>
    </g>
    <g id="Group_67" data-name="Group 67" transform="translate(32.085 4.959)">
      <rect id="Rectangle-2" data-name="Rectangle" width="2.479" height="11.158" transform="translate(23.643 25.396) rotate(-45)" fill="#757ae9"/>
      <rect id="Rectangle_Copy_116" data-name="Rectangle Copy 116" width="2.479" height="2.479" transform="translate(23.643 25.396) rotate(-45)" fill="#fff"/>
      <rect id="Rectangle_Copy_115" data-name="Rectangle Copy 115" width="4.959" height="11.158" rx="1" transform="translate(25.759 29.266) rotate(-45)" fill="#4c50b1"/>
      <circle id="Oval" cx="14.257" cy="14.257" r="14.257" fill="#fff" stroke="#00d4b0" stroke-miterlimit="10" stroke-width="3"/>
      <path id="Combined_Shape-3" data-name="Combined Shape" d="M2.479,21.076A10.586,10.586,0,0,1,0,20.782,10.5,10.5,0,0,0,8.058,10.538,10.5,10.5,0,0,0,0,.294,10.538,10.538,0,1,1,2.479,21.076Z" transform="translate(11.778 3.719)" fill="url(#linear-gradient-2)"/>
    </g>
  </g>
</svg>
