<svg xmlns="http://www.w3.org/2000/svg" width="95.748" height="67" viewBox="0 0 95.748 67">
  <g id="delivery" transform="translate(-0.101 434)">
    <path id="Path_839" data-name="Path 839" d="M46.74-433.6a3.017,3.017,0,0,0-1.328,4.1,4.193,4.193,0,0,0,.954,1.224c.524.4.636.4,24.746.452l24.2.038.037,11.166.056,11.185.524.678c1.01,1.318.3,1.262,13.729,1.262h12.121l2.207,2.843,2.188,2.843V-382.2l-2.731-.057-2.731-.056-.411-1.149a11,11,0,0,0-2.9-4.425,11.961,11.961,0,0,0-17.04.019,11.807,11.807,0,0,0-3.011,4.839l-.224.81H79.491l-.318-1a13.21,13.21,0,0,0-5.219-6.5,12.225,12.225,0,0,0-11.728-.414,12.734,12.734,0,0,0-6.1,7.042l-.224.772-4.47.094c-4.339.094-4.489.113-5.106.546A3.781,3.781,0,0,0,45-379.113a3.526,3.526,0,0,0,1.59,2.674c.711.414.954.433,5.106.433,3.928,0,4.339.038,4.339.32a9.273,9.273,0,0,0,.767,1.9,12.452,12.452,0,0,0,8.4,6.553,12.726,12.726,0,0,0,8.847-1.563,12.671,12.671,0,0,0,4.994-6.063l.411-1.149H97.13l.411,1.13a14.932,14.932,0,0,0,3.03,4.613,12.493,12.493,0,0,0,7.744,3.239,11.326,11.326,0,0,0,6.06-1.28,12.708,12.708,0,0,0,6.023-6.91l.224-.791H125.3c4.3,0,4.751-.038,5.462-.377a2.806,2.806,0,0,0,1.178-1.111c.411-.734.411-.772.411-11.542v-10.808l-.542-.847c-.3-.452-1.683-2.316-3.086-4.124l-2.544-3.3-4.676-9.339c-2.563-5.122-4.826-9.471-5.032-9.659-.86-.791-1.5-.847-8.38-.866h-6.6v-1.958c0-2.128-.224-2.73-1.365-3.578l-.524-.4-26.037-.056L47.525-434Zm68.646,17.963,2.937,5.931H101.488v-11.862H112.43ZM68.792-385.025a6.183,6.183,0,0,1,4.3,3.465,6.635,6.635,0,0,1,.019,4.651,5.877,5.877,0,0,1-9.6,1.845,5.894,5.894,0,0,1,2.787-9.9A3.867,3.867,0,0,1,68.792-385.025Zm42.74.565a5.886,5.886,0,0,1,1.627,9.3,5.7,5.7,0,0,1-8.324.113,5.581,5.581,0,0,1-1.253-6.609A5.708,5.708,0,0,1,111.532-384.46Z" transform="translate(-36.501 0)" fill="#16becf"/>
    <path id="Path_840" data-name="Path 840" d="M27.849-367.645a3.1,3.1,0,0,0-.281,5.406l.729.411H42.064c15.188,0,14.4.056,15.338-1.16a3.181,3.181,0,0,0-1.44-4.807c-.355-.15-4.919-.206-13.935-.206C29.345-368,28.579-367.981,27.849-367.645Z" transform="translate(-21.146 -53.564)" fill="#16becf"/>
    <path id="Path_841" data-name="Path 841" d="M1.616-303.682a2.72,2.72,0,0,0-1.5,2.581,2.208,2.208,0,0,0,.374,1.758,4.612,4.612,0,0,0,.954,1.029c.524.393.617.393,14.533.393s14.01,0,14.533-.393a4.612,4.612,0,0,0,.954-1.029,2.208,2.208,0,0,0,.374-1.758,2.726,2.726,0,0,0-1.534-2.6c-.561-.262-2.076-.3-14.365-.3C3.692-304,2.158-303.963,1.616-303.682Z" transform="translate(0 -105.506)" fill="#16becf"/>
    <path id="Path_842" data-name="Path 842" d="M28.165-240.506a2.673,2.673,0,0,0-1.665,2.768,2.638,2.638,0,0,0,1.4,2.619c.617.43.636.43,8.473.43,7.65,0,7.856-.019,8.548-.393a3.112,3.112,0,0,0,.262-5.144l-.692-.542-7.781-.037C29.437-240.862,28.875-240.843,28.165-240.506Z" transform="translate(-21.462 -156.773)" fill="#16becf"/>
  </g>
</svg>
