<svg id="developer-focused-slide" xmlns="http://www.w3.org/2000/svg" width="886.833" height="401.347" viewBox="0 0 886.833 401.347">
  <path id="Path_586" data-name="Path 586" d="M639.894,0H281.539c-3.865,0-7.111,2.978-7.111,6.524v224.1c0,3.546,3.247,6.524,7.111,6.524H448.812v47.939h-70.5a3.363,3.363,0,0,0-3.556,3.262v6.524H556.1v-6.524a3.363,3.363,0,0,0-3.556-3.262H472.929V237.144H639.894c3.865,0,7.111-2.978,7.111-6.524V6.524C647,2.978,643.758,0,639.894,0Z" transform="translate(138.655)" fill="#ebebeb"/>
  <path id="Path_587" data-name="Path 587" d="M633.593,193.494H283.743a3.363,3.363,0,0,1-3.556-3.262V12.942a3.363,3.363,0,0,1,3.556-3.262h349.85a3.364,3.364,0,0,1,3.557,3.262V190.091A3.477,3.477,0,0,1,633.593,193.494Z" transform="translate(140.163 1.525)" fill="#fff"/>
  <path id="Path_588" data-name="Path 588" d="M234.274,244.068a6.812,6.812,0,0,0,1.7,2.836,5.119,5.119,0,0,0,2.165,1.134,1.806,1.806,0,0,0,.772.142c.309,0,.773.142,1.083.142h96.468L335.225,132.3c0-6.808-3.865-5.531-10.512-6.382H234.119V243.075C234.119,243.359,234.274,243.642,234.274,244.068Z" transform="translate(88.787 19.843)" fill="#cfdcf9"/>
  <path id="Path_589" data-name="Path 589" d="M701.426,234.931H386.05V217.77a.639.639,0,0,1,.618-.567h314.14a.639.639,0,0,1,.618.567Z" transform="translate(167.873 34.228)" fill="#e0f5f7"/>
  <path id="Path_590" data-name="Path 590" d="M523.708,307.848a.321.321,0,0,1-.309-.284V294.8a.32.32,0,0,1,.309-.284H562.2a.319.319,0,0,1,.309.284v12.765a.32.32,0,0,1-.309.284Z" transform="translate(203.826 46.411)" fill="#fff"/>
  <path id="Path_591" data-name="Path 591" d="M535.471,347.829a.32.32,0,0,1-.309-.284V334.5a.32.32,0,0,1,.309-.284H589.58a.32.32,0,0,1,.309.284v13.048a.32.32,0,0,1-.309.284Z" transform="translate(206.905 52.667)" fill="#fff"/>
  <path id="Path_592" data-name="Path 592" d="M458.036,327.612a.319.319,0,0,1-.309-.284V314.281a.32.32,0,0,1,.309-.284h33.392a.321.321,0,0,1,.309.284v13.048a.32.32,0,0,1-.309.284Z" transform="translate(168.913 49.481)" fill="#fff"/>
  <path id="Path_593" data-name="Path 593" d="M524.323,284.167a.6.6,0,0,1-.464-.141L508.4,275.657a1.862,1.862,0,0,1-.927-1.418,1.706,1.706,0,0,1,.772-1.419l15.46-8.793a.875.875,0,0,1,1.237.284.735.735,0,0,1-.309,1.134l-15.46,8.794,15.46,8.368a.735.735,0,0,1,.309,1.134C524.941,284.025,524.632,284.167,524.323,284.167Z" transform="translate(186.159 41.583)" fill="#16becf"/>
  <path id="Path_594" data-name="Path 594" d="M544.792,284.167a.862.862,0,0,1-.773-.425.734.734,0,0,1,.309-1.134l15.459-8.368-15.459-8.794a.734.734,0,0,1-.309-1.134.875.875,0,0,1,1.237-.284l15.46,8.793a1.706,1.706,0,0,1,.772,1.419,1.546,1.546,0,0,1-.927,1.418L545.1,284.025C545.1,284.167,544.946,284.167,544.792,284.167Z" transform="translate(209.181 41.583)" fill="#16becf"/>
  <path id="Path_595" data-name="Path 595" d="M529.944,284.154h-.309a.864.864,0,0,1-.464-1.134l8.967-18.58a1.011,1.011,0,0,1,1.237-.425.864.864,0,0,1,.463,1.134l-8.966,18.58A.96.96,0,0,1,529.944,284.154Z" transform="translate(205.321 41.596)" fill="#16becf"/>
  <path id="Path_596" data-name="Path 596" d="M562.4,293.9H523.9a1.174,1.174,0,0,0-1.237,1.134V307.8a1.17,1.17,0,0,0,1.237,1.134H562.4a1.174,1.174,0,0,0,1.237-1.134V295.037A1.275,1.275,0,0,0,562.4,293.9Zm-.618,13.332H524.52V295.463h37.258Z" transform="translate(203.633 46.314)" fill="#16becf"/>
  <path id="Path_597" data-name="Path 597" d="M529.26,309.183h-58.9a1.175,1.175,0,0,1-1.236-1.136V295.282a1.17,1.17,0,0,1,1.236-1.134h58.9a1.175,1.175,0,0,1,1.237,1.134v12.765A1.421,1.421,0,0,1,529.26,309.183Z" transform="translate(174.933 46.353)" fill="#e0f5f7"/>
  <path id="Path_598" data-name="Path 598" d="M80.608,60.359h58.9a1.175,1.175,0,0,1,1.238,1.135V74.258a1.171,1.171,0,0,1-1.238,1.135h-58.9a1.175,1.175,0,0,1-1.237-1.135V61.493A1.42,1.42,0,0,1,80.608,60.359Z" transform="translate(20.776 9.512)" fill="#d0fafe"/>
  <path id="Path_599" data-name="Path 599" d="M570.9,328.579H491.434a1.174,1.174,0,0,1-1.237-1.134V314.4a1.17,1.17,0,0,1,1.237-1.134H570.9a1.174,1.174,0,0,1,1.237,1.134v13.048A1.275,1.275,0,0,1,570.9,328.579Z" transform="translate(195.135 49.365)" fill="#e0f5f7"/>
  <path id="Path_600" data-name="Path 600" d="M43.237,41H122.7a1.174,1.174,0,0,1,1.237,1.135V55.182a1.169,1.169,0,0,1-1.237,1.135H43.237A1.175,1.175,0,0,1,42,55.182V42.134A1.277,1.277,0,0,1,43.237,41Z" transform="translate(10.994 6.461)" fill="#ddfcff"/>
  <path id="Path_601" data-name="Path 601" d="M589.771,333.479H535.663a1.174,1.174,0,0,0-1.236,1.134v13.048a1.169,1.169,0,0,0,1.236,1.134h54.108a1.174,1.174,0,0,0,1.238-1.134V334.613A1.174,1.174,0,0,0,589.771,333.479Zm-.618,13.615H536.127V335.038h53.027Z" transform="translate(206.712 52.551)" fill="#16becf"/>
  <path id="Path_602" data-name="Path 602" d="M541.023,348.655h-58.9a1.175,1.175,0,0,1-1.237-1.136V334.613a1.169,1.169,0,0,1,1.237-1.134h58.9a1.174,1.174,0,0,1,1.236,1.134v12.906A1.277,1.277,0,0,1,541.023,348.655Z" transform="translate(179.32 52.551)" fill="#f3f6fe"/>
  <path id="Path_603" data-name="Path 603" d="M491.5,313.262H458.106a1.174,1.174,0,0,0-1.237,1.134v13.048a1.17,1.17,0,0,0,1.237,1.134H491.5a1.174,1.174,0,0,0,1.237-1.134V314.4A1.17,1.17,0,0,0,491.5,313.262Zm-.464,13.615H458.879V314.964h32.156Z" transform="translate(168.713 49.365)" fill="#16becf"/>
  <path id="Path_604" data-name="Path 604" d="M113.078,56.318H146.47a1.176,1.176,0,0,0,1.238-1.135V42.134A1.17,1.17,0,0,0,146.47,41H113.078a1.174,1.174,0,0,0-1.237,1.135V55.183A1.169,1.169,0,0,0,113.078,56.318Zm.464-13.616H145.7V54.616H113.542Z" transform="translate(41.301 6.461)" fill="#16becf"/>
  <g id="Group_2941" data-name="Group 2941" transform="translate(344.735 175.55)">
    <path id="Path_605" data-name="Path 605" d="M274.675,181.647V213.7l29.682-16.027V165.62Z" transform="translate(-244.992 -149.451)" fill="#16becf"/>
    <path id="Path_606" data-name="Path 606" d="M280.833,183.848,251.15,167.821l29.683-16.169,29.837,16.169Z" transform="translate(-251.15 -151.652)" fill="#16becf" opacity="0.71"/>
    <path id="Path_607" data-name="Path 607" d="M280.833,213.7,251.15,197.673V165.62l29.683,16.027Z" transform="translate(-251.15 -149.451)" fill="rgba(22,190,207,0.46)"/>
  </g>
  <path id="Path_608" data-name="Path 608" d="M386,145.9a.959.959,0,0,1,1.021-.936h51.867a5.4,5.4,0,0,0,5.4-5.217V77.628a1.025,1.025,0,0,1,2.042,0V139.61a7.333,7.333,0,0,1-7.437,7.223H387.166C386.438,146.834,386,146.432,386,145.9Z" transform="translate(143.878 12.085)" fill="#16becf"/>
  <path id="Path_609" data-name="Path 609" d="M377.316,318.866h-1.7v-170.7L375.306,131a4.313,4.313,0,0,0-4.483-4.113H78.636v-1.7H370.823a6.208,6.208,0,0,1,6.338,5.673l.31,17.161V318.866Z" transform="translate(20.584 19.727)" fill="#3fffac"/>
  <path id="Path_646" data-name="Path 646" d="M0,0V149.328" transform="translate(99.37 144.698)" fill="none" stroke="#3fffac" stroke-width="1.51"/>
  <path id="Path_647" data-name="Path 647" d="M93.37,0H0" transform="translate(6.309 294.9)" fill="none" stroke="#3fffac" stroke-width="1.51"/>
  <line id="Line_20" data-name="Line 20" x1="283.896" transform="translate(558.907 88.85)" fill="none" stroke="#3fffac" stroke-width="1.51"/>
  <path id="Path_610" data-name="Path 610" d="M204.661,133.823a.959.959,0,0,1-.927-.851V121.626a.959.959,0,0,1,.927-.851h12.368a.959.959,0,0,1,.929.851v11.347a.959.959,0,0,1-.929.851Z" transform="translate(74.646 19.032)" fill="#fff"/>
  <path id="Path_611" data-name="Path 611" d="M73.664,261.783a.959.959,0,0,1-.928-.851V249.586a.959.959,0,0,1,.928-.851H86.032a.959.959,0,0,1,.928.851v11.347a.959.959,0,0,1-.928.851Z" transform="translate(19.039 39.197)" fill="#16becf"/>
  <path id="Path_612" data-name="Path 612" d="M217.221,120.04H204.853a1.81,1.81,0,0,0-1.855,1.7v11.347a1.806,1.806,0,0,0,1.855,1.7h12.368a1.811,1.811,0,0,0,1.856-1.7V121.742A1.805,1.805,0,0,0,217.221,120.04Zm0,13.048H204.853V121.742h12.368Z" transform="translate(74.426 18.916)" fill="#16becf"/>
  <path id="Path_613" data-name="Path 613" d="M86.223,248H73.855A1.81,1.81,0,0,0,72,249.7v11.347a1.806,1.806,0,0,0,1.855,1.7H86.223a1.81,1.81,0,0,0,1.855-1.7V249.7A1.8,1.8,0,0,0,86.223,248Zm0,13.048H73.855V249.7H86.223Z" transform="translate(18.847 39.081)" fill="#3fffac"/>
  <path id="Path_614" data-name="Path 614" d="M79.3,121.878a5.125,5.125,0,1,0,5.565,5.106A5.328,5.328,0,0,0,79.3,121.878Z" transform="translate(19.301 19.206)" fill="#fff"/>
  <path id="Path_615" data-name="Path 615" d="M79.493,122.825a4.413,4.413,0,1,0,4.793,4.4A4.63,4.63,0,0,0,79.493,122.825Zm0,10.353a5.979,5.979,0,1,1,6.493-5.957A6.28,6.28,0,0,1,79.493,133.179Z" transform="translate(19.108 19.109)" fill="#16becf"/>
  <path id="Path_616" data-name="Path 616" d="M321.094,295.455a5.586,5.586,0,1,1-5.566-5.106A5.329,5.329,0,0,1,321.094,295.455Z" transform="translate(113.444 45.754)" fill="#fff"/>
  <path id="Path_617" data-name="Path 617" d="M12.131,256.106a5.329,5.329,0,0,1-5.566,5.106,5.125,5.125,0,1,1,0-10.212A5.328,5.328,0,0,1,12.131,256.106Z" transform="translate(0.262 39.553)" fill="#fff"/>
  <path id="Path_618" data-name="Path 618" d="M315.72,291.174a4.413,4.413,0,1,0,4.792,4.4A4.733,4.733,0,0,0,315.72,291.174Zm0,10.353a5.979,5.979,0,1,1,6.493-5.957A6.28,6.28,0,0,1,315.72,301.528Z" transform="translate(113.249 45.638)" fill="#16becf"/>
  <path id="Path_619" data-name="Path 619" d="M6.493,251.56a4.413,4.413,0,1,0,0,8.793,4.63,4.63,0,0,0,4.793-4.4A4.733,4.733,0,0,0,6.493,251.56Zm0,10.353a5.979,5.979,0,1,1,0-11.914,5.979,5.979,0,1,1,0,11.914Z" transform="translate(0 39.396)" fill="#16becf"/>
  <path id="Path_620" data-name="Path 620" d="M178.351,236.5a.6.6,0,0,1-.463-.142l-16.7-9.077a.775.775,0,0,1,0-1.419l16.7-9.5a.876.876,0,0,1,1.237.284.736.736,0,0,1-.309,1.136l-15.46,8.793,15.46,8.511a.735.735,0,0,1,.309,1.134A1.245,1.245,0,0,1,178.351,236.5Z" transform="translate(58.98 34.072)" fill="#16becf"/>
  <path id="Path_621" data-name="Path 621" d="M198.588,216.958l16.7,9.5-16.7,9.219" transform="translate(72.825 34.189)" fill="#fff"/>
  <path id="Path_622" data-name="Path 622" d="M198.782,236.524a.865.865,0,0,1-.773-.425.736.736,0,0,1,.309-1.136l15.46-8.509-15.46-8.794a.735.735,0,0,1-.309-1.134.876.876,0,0,1,1.237-.284l16.7,9.5a.774.774,0,0,1,0,1.419l-16.7,9.077A.438.438,0,0,1,198.782,236.524Z" transform="translate(72.602 34.053)" fill="#16becf"/>
  <path id="Path_623" data-name="Path 623" d="M183.812,236.492H183.5a.865.865,0,0,1-.464-1.134l8.967-18.58a1.011,1.011,0,0,1,1.237-.426.865.865,0,0,1,.464,1.134l-8.967,18.58A.958.958,0,0,1,183.812,236.492Z" transform="translate(66.961 34.085)" fill="#16becf"/>
  <path id="Path_624" data-name="Path 624" d="M240.613,290.455v-13.9a1.2,1.2,0,0,1,1.238-1.277h52.1a1.3,1.3,0,0,1,1.237,1.277v13.9a1.2,1.2,0,0,1-1.237,1.277h-52.1C241.077,291.589,240.613,291.165,240.613,290.455Z" transform="translate(89.486 43.379)" fill="#16becf"/>
  <path id="Path_625" data-name="Path 625" d="M293.89,275.582h-52.1a.983.983,0,0,0-.927.993v13.9a.983.983,0,0,0,.927.993h52.1a.982.982,0,0,0,.927-.993v-13.9a1.038,1.038,0,0,0-.309-.71A.829.829,0,0,0,293.89,275.582Zm-52.1,16.311a1.6,1.6,0,0,1-1.546-1.419v-13.9a1.4,1.4,0,0,1,1.546-1.418h52.1a1.521,1.521,0,0,1,1.546,1.418v13.9a1.4,1.4,0,0,1-1.546,1.419Z" transform="translate(89.37 43.36)" fill="#16becf"/>
  <path id="Path_626" data-name="Path 626" d="M152.69,276.226a.321.321,0,0,0-.309.284v14.184a.321.321,0,0,0,.309.284H255.806a.32.32,0,0,0,.309-.284V276.51a.32.32,0,0,0-.309-.284Zm103.116,16.312H152.69a1.968,1.968,0,0,1-2.009-1.844V276.51a1.967,1.967,0,0,1,2.009-1.843H255.806a1.967,1.967,0,0,1,2.01,1.843v14.184A1.968,1.968,0,0,1,255.806,292.538Z" transform="translate(57.263 43.283)" fill="#16becf"/>
  <path id="Path_627" data-name="Path 627" d="M302.429,262.292H213.536v6.949h88.893Z" transform="translate(80.52 41.333)" fill="#ebebeb"/>
  <path id="Path_628" data-name="Path 628" d="M216.113,262.292H172.98v6.949h43.133Z" transform="translate(64.052 41.333)" fill="#cdd9f8"/>
  <path id="Path_629" data-name="Path 629" d="M214.876,270.657H174.217a1.176,1.176,0,0,1-1.238-1.134V255.338a1.17,1.17,0,0,1,1.238-1.134h40.659a1.175,1.175,0,0,1,1.237,1.134v14.184A1.277,1.277,0,0,1,214.876,270.657Z" transform="translate(64.052 40.058)" fill="#f4fbf8"/>
  <path id="Path_630" data-name="Path 630" d="M214.457,269.812a.32.32,0,0,1-.31-.284V255.346a.32.32,0,0,1,.31-.284h86.419a.32.32,0,0,1,.309.284v14.183a.32.32,0,0,1-.309.284Z" transform="translate(80.688 40.194)" fill="#fff"/>
  <path id="Path_631" data-name="Path 631" d="M301.191,254.327h-86.42a1.175,1.175,0,0,0-1.237,1.134v14.184a1.17,1.17,0,0,0,1.237,1.134h86.42a1.175,1.175,0,0,0,1.236-1.134V255.461A1.421,1.421,0,0,0,301.191,254.327Zm-.62,14.751H215.235V256.029h85.336Z" transform="translate(80.519 40.078)" fill="#16becf"/>
  <path id="Path_632" data-name="Path 632" d="M420.878,257.387h-90.13l-89.2-.141a8.325,8.325,0,0,1-5.72-2.128,6.982,6.982,0,0,1-2.319-5.248l.463-115.309h1.856l-.464,115.309a5.457,5.457,0,0,0,1.855,4.114,6.49,6.49,0,0,0,4.484,1.7l89.2.141h90.13a4.313,4.313,0,0,0,4.483-4.113V76.5h1.856V251.573A6.267,6.267,0,0,1,420.878,257.387Z" transform="translate(92.565 12.055)" fill="#3fffac"/>
  <path id="Path_633" data-name="Path 633" d="M385.246,73.142a2.5,2.5,0,0,0-2.628,2.411v3.971a2.507,2.507,0,0,0,2.628,2.411h4.329a2.5,2.5,0,0,0,2.628-2.411v-4.4A2.286,2.286,0,0,0,389.884,73h-4.638Z" transform="translate(139.959 11.504)" fill="#16becf"/>
  <path id="Path_634" data-name="Path 634" d="M393.137,136.663a5.586,5.586,0,1,1-5.566-5.1A5.328,5.328,0,0,1,393.137,136.663Z" transform="translate(139.811 20.731)" fill="#fff"/>
  <path id="Path_635" data-name="Path 635" d="M387.764,132.505a4.413,4.413,0,1,0,4.793,4.4A4.631,4.631,0,0,0,387.764,132.505Zm0,10.353a5.979,5.979,0,1,1,6.493-5.957A6.28,6.28,0,0,1,387.764,142.859Z" transform="translate(139.633 20.635)" fill="#3fffac"/>
  <path id="Path_636" data-name="Path 636" d="M620.493,72.56a4.413,4.413,0,1,0,4.792,4.4A4.63,4.63,0,0,0,620.493,72.56Zm0,10.354a5.979,5.979,0,1,1,6.493-5.957A6.28,6.28,0,0,1,620.493,82.914Z" transform="translate(227.541 11.188)" fill="#16becf"/>
  <path id="Path_637" data-name="Path 637" d="M399.153,225.166a2.948,2.948,0,1,1-2.937-2.695A2.732,2.732,0,0,1,399.153,225.166Z" transform="translate(143.672 35.058)" fill="#fff"/>
  <path id="Path_638" data-name="Path 638" d="M405.769,225.166a2.948,2.948,0,1,1-2.936-2.695A2.732,2.732,0,0,1,405.769,225.166Z" transform="translate(146.09 35.058)" fill="#fff"/>
  <path id="Path_639" data-name="Path 639" d="M412.386,225.166a2.948,2.948,0,1,1-2.937-2.695A2.732,2.732,0,0,1,412.386,225.166Z" transform="translate(148.506 35.058)" fill="#fff"/>
  <path id="Path_640" data-name="Path 640" d="M258.264,105.08H231.242c-4.039,0-7.242-2.939-7.242-6.645V73.645c0-3.706,3.2-6.645,7.242-6.645h27.022c4.039,0,7.242,2.939,7.242,6.645v24.79C265.507,102.013,262.164,105.08,258.264,105.08ZM231.242,68.15a5.715,5.715,0,0,0-5.988,5.495v24.79a5.715,5.715,0,0,0,5.988,5.495h27.022a5.716,5.716,0,0,0,5.99-5.495V73.645a5.716,5.716,0,0,0-5.99-5.495Z" transform="translate(82.893 10.558)" fill="#e0f5f7"/>
  <path id="Path_641" data-name="Path 641" d="M652.055,202.074H609.427c-6.373,0-11.427-4.636-11.427-10.482V152.483c0-5.847,5.053-10.483,11.427-10.483h42.628c6.372,0,11.425,4.636,11.425,10.483v39.109C663.48,197.236,658.207,202.074,652.055,202.074Zm-42.628-58.26c-5.274,0-9.449,3.83-9.449,8.669v39.109c0,4.838,4.175,8.668,9.449,8.668h42.628c5.273,0,9.448-3.83,9.448-8.668V152.483c0-4.839-4.175-8.669-9.448-8.669Z" transform="translate(223.353 22.377)" fill="#e0f5f7"/>
  <path id="Path_642" data-name="Path 642" d="M249.846,82c0,4.856-4.318,8.817-9.611,8.817s-9.611-3.961-9.611-8.817,4.318-8.817,9.611-8.817S249.846,77.143,249.846,82Z" transform="translate(84.649 11.532)" fill="#e0f5f7"/>
  <path id="Path_643" data-name="Path 643" d="M638.773,165.663c0,7.661-6.812,13.91-15.163,13.91s-15.161-6.249-15.161-13.91,6.812-13.91,15.161-13.91S638.773,158,638.773,165.663Z" transform="translate(226.088 23.914)" fill="#e0f5f7"/>
  <path id="Path_644" data-name="Path 644" d="M250.35,90.292H233.217c-4.875,0-8.776,3.578-8.776,8.051a2.545,2.545,0,0,0,2.647,2.428h32.036V98.343C259.125,93.87,255.225,90.292,250.35,90.292Z" transform="translate(82.846 14.229)" fill="#e0f5f7"/>
  <path id="Path_645" data-name="Path 645" d="M639.568,178.746H612.541c-7.692,0-13.844,5.644-13.844,12.7a4.015,4.015,0,0,0,4.175,3.83h50.538v-3.83C653.411,184.39,647.258,178.746,639.568,178.746Z" transform="translate(223.535 28.167)" fill="#e0f5f7"/>
</svg>
