<svg xmlns="http://www.w3.org/2000/svg" width="64" height="64" viewBox="0 0 64 64"><g transform="translate(0)"><path d="M44.369,31.3a2.967,2.967,0,1,0,2.966,2.966A2.97,2.97,0,0,0,44.369,31.3Zm0,4.04a1.073,1.073,0,1,1,1.073-1.073A1.074,1.074,0,0,1,44.369,35.344Zm0,0" transform="translate(-36.227 -27.392)" fill="#fff"/><path d="M107.99,31.3a2.967,2.967,0,1,0,2.966,2.967A2.97,2.97,0,0,0,107.99,31.3Zm0,4.04a1.073,1.073,0,1,1,1.073-1.073A1.074,1.074,0,0,1,107.99,35.344Zm0,0" transform="translate(-91.896 -27.392)" fill="#fff"/><path d="M171.615,31.3a2.967,2.967,0,1,0,2.966,2.967A2.97,2.97,0,0,0,171.615,31.3Zm0,4.04a1.073,1.073,0,1,1,1.073-1.073A1.074,1.074,0,0,1,171.615,35.344Zm0,0" transform="translate(-147.568 -27.392)" fill="#fff"/><path d="M60.528,0H3.471A3.475,3.475,0,0,0,0,3.471V45.254a3.475,3.475,0,0,0,3.471,3.471H9.578a.946.946,0,0,0,.077,1.251L14.2,54.525a19.41,19.41,0,0,0-.893,2.153H6.879a.947.947,0,0,0-.946.947v5.428A.947.947,0,0,0,6.879,64H25.562a.947.947,0,0,0,.947-.947,5.239,5.239,0,1,1,10.477,0,.947.947,0,0,0,.947.947H56.615a.947.947,0,0,0,.947-.947V57.625a.947.947,0,0,0-.947-.947H50.183a19.41,19.41,0,0,0-.893-2.153l4.549-4.549a.947.947,0,0,0,.077-1.251h6.612A3.475,3.475,0,0,0,64,45.254V21.833a.947.947,0,1,0-1.893,0V45.254a1.58,1.58,0,0,1-1.578,1.578H52.033l-5.58-5.58V34.777a.947.947,0,0,0-.947-.947H43.8V28l1.336-1.233a.947.947,0,0,0,.262-.977l-2.272-7.321a.947.947,0,0,0-.9-.666H39.7a.947.947,0,0,0-.9.666l-2.272,7.321a.947.947,0,0,0,.262.977L38.122,28V33.83h-1.7a.947.947,0,0,0-.947.947v2.461H28.023V35.8l3.636-3.636a.946.946,0,0,0,.277-.669V23.731a.946.946,0,0,0-.282-.673l-5.049-4.986a.947.947,0,0,0-1.612.673v8.44l-2.461,1.55-2.461-1.55v-.54a.947.947,0,1,0-1.894,0v1.062a.946.946,0,0,0,.442.8l3.408,2.146a.946.946,0,0,0,1.009,0l3.408-2.146a.946.946,0,0,0,.442-.8v-6.7l3.156,3.116V31.1l-3.636,3.636a.947.947,0,0,0-.277.67v1.849a.947.947,0,0,0-.757.928v6.432a19.415,19.415,0,0,0-2.153.893l-4.285-4.285V35.408a.947.947,0,0,0-.277-.67L15.021,31.1V24.127l3.156-3.116v1.2a.947.947,0,0,0,1.894,0V18.746a.947.947,0,0,0-1.612-.674l-5.049,4.986a.946.946,0,0,0-.281.673V31.5a.946.946,0,0,0,.277.669L17.041,35.8v5.452l-5.58,5.58H3.471a1.579,1.579,0,0,1-1.578-1.578v-31.5H62.106v3.663a.947.947,0,0,0,1.894,0V3.471A3.475,3.475,0,0,0,60.528,0ZM39.71,26.886l-1.2-1.109L40.4,19.692h1.129l1.888,6.084-1.2,1.109a.948.948,0,0,0-.3.7v6.249H40.016V27.582a.948.948,0,0,0-.305-.7Zm4.849,8.837v5.5L40.275,45.51a19.511,19.511,0,0,0-2.153-.893V38.186a.947.947,0,0,0-.757-.928V35.724h7.2ZM23.481,47.5A17.534,17.534,0,0,1,26.6,46.21a.947.947,0,0,0,.67-.906V39.132h8.962V45.3a.947.947,0,0,0,.67.906A17.535,17.535,0,0,1,40.013,47.5a.947.947,0,0,0,1.115-.166l4.366-4.366,5.478,5.479h0l.858.858-4.366,4.366a.947.947,0,0,0-.166,1.115A17.5,17.5,0,0,1,48.59,57.9a.947.947,0,0,0,.905.67h6.172v3.535H46.042a14.335,14.335,0,0,0-20.12-12.147.947.947,0,0,0,.771,1.73A12.441,12.441,0,0,1,44.145,62.106H38.816a7.133,7.133,0,0,0-14.139,0h-5.33a12.3,12.3,0,0,1,3.9-8.125A.947.947,0,0,0,21.949,52.6a14.388,14.388,0,0,0-4.5,9.506H7.826V58.572H14a.947.947,0,0,0,.906-.67A17.5,17.5,0,0,1,16.2,54.788a.947.947,0,0,0-.166-1.115l-4.366-4.366.858-.858h0L18,42.97l4.366,4.366a.947.947,0,0,0,1.115.166ZM1.893,11.866V3.471A1.579,1.579,0,0,1,3.471,1.894H60.528a1.579,1.579,0,0,1,1.578,1.578v8.395Zm0,0" fill="#fff"/></g></svg>