<svg xmlns="http://www.w3.org/2000/svg" width="68.815" height="68.875" viewBox="0 0 68.815 68.875">
  <g id="Group_5809" data-name="Group 5809" transform="translate(0 0)">
    <g id="internet-of-things-_2_" transform="translate(0 0)">
      <path id="Path_21013" data-name="Path 21013" d="M139.99-495.64a5.93,5.93,0,0,0-3.663,3.721,5.647,5.647,0,0,0,3.132,6.953,4.517,4.517,0,0,0,2.169.488l1.221.029.3.761c.172.417.359.761.417.747a5.792,5.792,0,0,0,1.954-.862,4.026,4.026,0,0,0-.287-.848l-.287-.675.718-.632a7.3,7.3,0,0,0,1.724-2.873c0-.172,1.006-.2,5.89-.2s5.89.029,5.89.2a7.163,7.163,0,0,0,1.724,2.859l.718.646-.575,1.379-.56,1.394.316.115c.172.072.661.259,1.077.431.7.287.761.287.848.043.057-.129.3-.747.546-1.365l.445-1.121,1.221-.029a4.724,4.724,0,0,0,2.112-.46l.919-.4,4.6,4.612,4.612,4.6-.4.919a4.725,4.725,0,0,0-.46,2.112l-.029,1.221-3.994,1.595c-2.2.876-4.109,1.638-4.238,1.7-.244.086-.244.144.043.848.172.417.359.905.431,1.078.115.3.215.273,4.382-1.394l4.267-1.71.632.7a7.163,7.163,0,0,0,2.859,1.724c.172,0,.2,1.006.2,5.89s-.029,5.89-.2,5.89a7.161,7.161,0,0,0-2.859,1.724l-.632.7-1.623-.647a5.525,5.525,0,0,0-1.738-.532,11.984,11.984,0,0,0-.8,1.983c.014.014.761.316,1.652.675l1.623.632.029,1.221a4.725,4.725,0,0,0,.46,2.112l.4.905-1.135,1.149L174.9-444.5l.833.819.848.8,1.121-1.121,1.135-1.121.905.417a4.229,4.229,0,0,0,2.284.417,3.952,3.952,0,0,0,2.457-.531,5.522,5.522,0,0,0,2.744-2.816,3.984,3.984,0,0,0,.46-2.327,3.984,3.984,0,0,0-.46-2.327,5.524,5.524,0,0,0-2.672-2.773,6.493,6.493,0,0,0-1.192-.5c-.172,0-.2-1.006-.2-5.89s.029-5.89.2-5.89a6.5,6.5,0,0,0,1.192-.5,5.524,5.524,0,0,0,2.672-2.773,3.984,3.984,0,0,0,.46-2.327,3.984,3.984,0,0,0-.46-2.327,5.521,5.521,0,0,0-2.744-2.816,3.951,3.951,0,0,0-2.457-.532,4.228,4.228,0,0,0-2.284.417l-.919.417-4.6-4.612-4.612-4.6.417-.92a4.228,4.228,0,0,0,.417-2.284,3.951,3.951,0,0,0-.532-2.457A5.521,5.521,0,0,0,167.1-495.4a3.983,3.983,0,0,0-2.327-.46,3.984,3.984,0,0,0-2.327.46,5.524,5.524,0,0,0-2.773,2.672,6.492,6.492,0,0,0-.5,1.192c0,.172-1.006.2-5.89.2-4.612,0-5.89-.043-5.89-.187a7.572,7.572,0,0,0-1.365-2.514A5.764,5.764,0,0,0,139.99-495.64Zm2.859,2.184a4.267,4.267,0,0,1,2.212,2.212,3.147,3.147,0,0,1-.905,3.434,3.143,3.143,0,0,1-2.37,1.077,3.618,3.618,0,0,1-3.448-3.448,3.144,3.144,0,0,1,1.077-2.371A3.172,3.172,0,0,1,142.849-493.457Zm22.986,0a3.807,3.807,0,0,1,2.385,3.276,3.618,3.618,0,0,1-3.448,3.448,3.143,3.143,0,0,1-2.37-1.077,3.106,3.106,0,0,1,0-4.741A3.172,3.172,0,0,1,165.835-493.457Zm17.24,17.24a3.807,3.807,0,0,1,2.385,3.276,3.618,3.618,0,0,1-3.448,3.448,3.143,3.143,0,0,1-2.37-1.077,3.106,3.106,0,0,1,0-4.741A3.171,3.171,0,0,1,183.075-476.217Zm0,22.986a3.806,3.806,0,0,1,2.385,3.276,3.618,3.618,0,0,1-3.448,3.448,3.618,3.618,0,0,1-3.448-3.448,3.143,3.143,0,0,1,1.077-2.371A3.172,3.172,0,0,1,183.075-453.23Z" transform="translate(-118.872 495.915)"/>
      <path id="Path_21014" data-name="Path 21014" d="M28.9-415.451l-3.534,3.534-.919-.417a4.228,4.228,0,0,0-2.284-.417,3.951,3.951,0,0,0-2.457.532A5.521,5.521,0,0,0,16.96-409.4a3.984,3.984,0,0,0-.46,2.327,3.984,3.984,0,0,0,.46,2.327,5.524,5.524,0,0,0,2.672,2.773,6.5,6.5,0,0,0,1.192.5c.172,0,.2,1.006.2,5.89s-.029,5.89-.2,5.89a6.494,6.494,0,0,0-1.192.5,5.524,5.524,0,0,0-2.672,2.773,4.008,4.008,0,0,0-.46,2.342,3.952,3.952,0,0,0,.532,2.457,5.521,5.521,0,0,0,2.816,2.744,3.984,3.984,0,0,0,2.327.46,4.2,4.2,0,0,0,2.27-.417l.919-.417,4.6,4.612,4.612,4.6-.417.919a4.228,4.228,0,0,0-.417,2.284,3.862,3.862,0,0,0,.546,2.457,5.524,5.524,0,0,0,2.83,2.758,3.951,3.951,0,0,0,2.3.445,3.985,3.985,0,0,0,2.327-.46,5.524,5.524,0,0,0,2.773-2.672,6.49,6.49,0,0,0,.5-1.192c0-.172,1.006-.2,5.89-.2s5.89.029,5.89.2a6.491,6.491,0,0,0,.5,1.192,5.524,5.524,0,0,0,2.773,2.672,3.985,3.985,0,0,0,2.327.46,3.985,3.985,0,0,0,2.327-.46,5.521,5.521,0,0,0,2.816-2.744,3.951,3.951,0,0,0,.532-2.457,4.228,4.228,0,0,0-.417-2.284l-.417-.905,2.5-2.514,2.5-2.5-.833-.819-.819-.833-2.5,2.5-2.514,2.5-.905-.417a4.2,4.2,0,0,0-2.27-.417,3.984,3.984,0,0,0-2.327.46,5.524,5.524,0,0,0-2.773,2.672,6.5,6.5,0,0,0-.5,1.192c0,.172-1.006.2-5.89.2s-5.89-.029-5.89-.2a7.3,7.3,0,0,0-1.724-2.873l-.718-.632.287-.675a4.027,4.027,0,0,0,.287-.848,5.4,5.4,0,0,0-1.968-.848,2.445,2.445,0,0,0-.417.747l-.287.747-1.221.029a4.725,4.725,0,0,0-2.112.46l-.919.4-4.6-4.612-4.612-4.6.4-.919a4.725,4.725,0,0,0,.46-2.112l.029-1.221,3.994-1.595c2.2-.876,4.109-1.638,4.238-1.7.244-.086.244-.144-.043-.848-.172-.417-.359-.905-.431-1.078-.115-.3-.215-.273-4.382,1.394l-4.267,1.71-.632-.7a7.163,7.163,0,0,0-2.859-1.724c-.172,0-.2-1.006-.2-5.89s.029-5.89.2-5.89a7.162,7.162,0,0,0,2.859-1.724l.632-.7,4.267,1.71c4.166,1.667,4.267,1.7,4.382,1.394.072-.172.259-.661.431-1.077.287-.7.287-.762.043-.848-.129-.057-2.04-.819-4.238-1.7l-3.994-1.595-.029-1.221a4.726,4.726,0,0,0-.46-2.112l-.4-.905L30.55-413.8l3.549-3.548-.79-.833A9.418,9.418,0,0,0,32.49-419C32.461-419,30.852-417.405,28.9-415.451Zm-5.66,5.1a3.806,3.806,0,0,1,2.385,3.276,3.618,3.618,0,0,1-3.448,3.448,3.143,3.143,0,0,1-2.37-1.077,3.106,3.106,0,0,1,0-4.741A3.171,3.171,0,0,1,23.238-410.351Zm0,22.986a4.266,4.266,0,0,1,2.212,2.212,3.147,3.147,0,0,1-.905,3.434,3.106,3.106,0,0,1-4.741,0,3.106,3.106,0,0,1,0-4.741A3.171,3.171,0,0,1,23.238-387.365Zm17.24,17.24a3.807,3.807,0,0,1,2.385,3.276,3.618,3.618,0,0,1-3.448,3.448,3.618,3.618,0,0,1-3.448-3.448,3.143,3.143,0,0,1,1.077-2.371A3.172,3.172,0,0,1,40.478-370.125Zm22.986,0a3.806,3.806,0,0,1,2.385,3.276A3.618,3.618,0,0,1,62.4-363.4a3.618,3.618,0,0,1-3.448-3.448,3.143,3.143,0,0,1,1.077-2.371A3.172,3.172,0,0,1,63.464-370.125Z" transform="translate(-16.5 430.05)"/>
      <path id="Path_21015" data-name="Path 21015" d="M171.334-391.63a5.984,5.984,0,0,0-2.3,1.35,7.465,7.465,0,0,0-.733,1.164,4.779,4.779,0,0,0-.445,2.485l-.057,1.767h2.3l.057-1.566c.043-1.7.172-2.026,1.034-2.658.33-.259.647-.3,2.169-.345l1.781-.057.5,1.02a4.219,4.219,0,0,0,.79,1.164,28.133,28.133,0,0,0,4.037.144,28.134,28.134,0,0,0,4.037-.144,4.048,4.048,0,0,0,.776-1.149l.5-1.006h1.58c1.853,0,2.37.158,2.96.948l.417.532.043,10.488.029,10.487-1.264-1.221c-1.336-1.279-2.112-1.7-3.189-1.7a3.751,3.751,0,0,0-3.592,3.592c0,1.221.374,1.825,2.37,3.879l1.882,1.939-.345.934a8.907,8.907,0,0,0,.33,6.451,3.615,3.615,0,0,1,.359,1.178v.417h2.3v-.7a4.134,4.134,0,0,0-.532-1.825,4.326,4.326,0,0,1-.546-2.73,4,4,0,0,1,.546-2.658,5.648,5.648,0,0,0,.532-1.408c0-.259-.618-.962-2.3-2.672-2.011-2.04-2.3-2.385-2.3-2.787a1.43,1.43,0,0,1,1.307-1.307c.431,0,.8.33,3.721,3.232,1.781,1.781,3.3,3.232,3.376,3.232a6.077,6.077,0,0,0,1.508-1.523,5.634,5.634,0,0,0-.934-1.063l-.934-.919v-8.2l1.293,1.293a9.431,9.431,0,0,1,1.7,2.083l.388.79.043,6.867.043,6.853h2.284v-6.609c0-4.238-.057-6.867-.158-7.356-.345-1.638-.905-2.471-3.319-4.928l-2.256-2.313-.043-6.091-.043-6.106-.388-.733a4.183,4.183,0,0,0-2.011-2.083l-.905-.488-8.979-.029C175.816-391.731,171.578-391.688,171.334-391.63Z" transform="translate(-146.064 406.689)"/>
      <path id="Path_21016" data-name="Path 21016" d="M168.029-314.179l.043,13.835.388.733a4.182,4.182,0,0,0,2.011,2.083l.905.488,6.939.043,6.925.043v-2.3l-6.724-.043-6.738-.043-.532-.417c-1.006-.761-.948.057-.948-14.812V-328H168Z" transform="translate(-146.235 352.124)"/>
      <path id="Path_21017" data-name="Path 21017" d="M209.106-311.855a11.962,11.962,0,0,0-5.272,2.27,4.6,4.6,0,0,0-.833.776,4.891,4.891,0,0,0,.776.862l.79.776.618-.532a9.26,9.26,0,0,1,5.431-1.954,9.259,9.259,0,0,1,5.431,1.954l.632.532.8-.819.819-.819-.575-.5A11.3,11.3,0,0,0,209.106-311.855Z" transform="translate(-176.207 338.378)"/>
      <path id="Path_21018" data-name="Path 21018" d="M229.658-281.438c-.388.115-.761.2-.8.215A9.378,9.378,0,0,0,227-279.944a8.373,8.373,0,0,0,1.509,1.595,1.767,1.767,0,0,0,.5-.287,4.328,4.328,0,0,1,2.155-.718,4.329,4.329,0,0,1,2.155.718,1.766,1.766,0,0,0,.5.287,9.26,9.26,0,0,0,1.509-1.58,6.939,6.939,0,0,0-2.155-1.379A7.326,7.326,0,0,0,229.658-281.438Z" transform="translate(-196.759 312.386)"/>
      <path id="Path_21019" data-name="Path 21019" d="M216-230.851v1.149h2.3V-232H216Z" transform="translate(-187.339 269.915)"/>
      <path id="Path_21020" data-name="Path 21020" d="M248-230.851v1.149h2.3V-232H248Z" transform="translate(-214.742 269.915)"/>
      <path id="Path_21021" data-name="Path 21021" d="M240-158.851v1.149h4.6V-160H240Z" transform="translate(-207.891 208.259)"/>
    </g>
  </g>
</svg>
