<svg xmlns="http://www.w3.org/2000/svg" width="51.5" height="53.031" viewBox="0 0 51.5 53.031">
  <g id="operation" transform="translate(-11.099 495.7)">
    <path id="Path_21707" data-name="Path 21707" d="M43.036-495.612a9.134,9.134,0,0,0-1.438.538,6.271,6.271,0,0,0-3.327,4.326c-.077.428-.121,3.547-.121,8.971,0,7.939-.011,8.323-.2,8.378-.549.176-.933.857-3.086,5.512-1.2,2.591-2.251,4.963-2.35,5.26-.505,1.5-.516,1.812-.516,10.937v8.664h1.746l.033-8.982.033-8.971.285-.824c.154-.45,1.12-2.635,2.141-4.853l1.856-4.041.055,6.9a65.353,65.353,0,0,0,.209,7.434c.143.549.143.549-.264,1.241-.285.494-.373.736-.285.824a3.036,3.036,0,0,0,1.427.681c.055-.066,1.241-2.108,2.646-4.557s2.668-4.568,2.789-4.7a1.645,1.645,0,0,1,1.3-.571,1.649,1.649,0,0,1,1.7,1.812c-.033.483-.3,1-2.141,4.184a43.857,43.857,0,0,0-2.108,3.887,12.686,12.686,0,0,0,1.043,1.988c1.647,2.734,1.526,2.306,1.57,5.666l.033,2.888h1.746v-2.668c0-3.393-.165-4.14-1.3-5.875l-.154-.242H51.71v.846A3.069,3.069,0,0,0,52-449.5c.285.593,3.777,6.687,3.92,6.83a2.228,2.228,0,0,0,.813-.362c.714-.417.736-.45.593-.681-.088-.132-.977-1.658-1.977-3.393a27.056,27.056,0,0,1-1.889-3.591,1.833,1.833,0,0,1,1.482-1.944,2,2,0,0,1,1.515.538c.121.132.648,1,1.186,1.922a10.934,10.934,0,0,0,1.153,1.779.9.9,0,0,0,1-.1l.264-.209.055-8.894c.055-8.774.055-8.905.285-9.2a1.55,1.55,0,0,1,1.471-.758,1.55,1.55,0,0,1,1.471.758c.231.3.231.439.285,7.884l.055,7.577.264.209a.892.892,0,0,0,1.12,0c.264-.209.264-.253.318-2.515.055-2.526.077-2.591.813-3.141a1.986,1.986,0,0,1,1.889,0c.736.549.758.615.813,3.141.055,2.262.055,2.306.318,2.515a.892.892,0,0,0,1.12,0c.253-.2.264-.275.318-2.075.055-2.042.1-2.174.813-2.7a1.986,1.986,0,0,1,1.889,0c.714.527.758.659.813,2.7.055,1.8.066,1.878.318,2.075a.892.892,0,0,0,1.12,0c.242-.2.264-.307.318-1.636.044-1.219.088-1.482.286-1.735a1.55,1.55,0,0,1,1.471-.758,1.55,1.55,0,0,1,1.471.758c.22.3.231.439.264,5.9l.033,5.589H81.2l-.033-5.743-.033-5.732-.373-.692a3.384,3.384,0,0,0-2.811-1.856,3.5,3.5,0,0,0-2.185.538l-.307.231-.351-.384a3.462,3.462,0,0,0-4.3-.867l-.626.34-.45-.494a4.054,4.054,0,0,0-1.087-.769l-.626-.286-.022-16.054-.033-16.054-.285-.725a6.109,6.109,0,0,0-1.46-2.328,5.972,5.972,0,0,0-2.361-1.493l-.725-.285-9.773-.022C47.527-495.7,43.365-495.667,43.036-495.612Zm20.611,2.042a4.22,4.22,0,0,1,2.152,2.1l.406.835.033,15.955.022,15.955-.4.165c-.22.088-.417.165-.439.165s-.044-1.889-.066-4.206l-.033-4.195-.373-.692a3.412,3.412,0,0,0-1.658-1.581,4.09,4.09,0,0,0-2.91.022,3.921,3.921,0,0,0-1.7,1.7l-.275.549-.033,6.61-.033,6.621h-.472a.954.954,0,0,1-.6-.154,3.982,3.982,0,0,0-1.669-.67,4.09,4.09,0,0,0-2.317.549l-.417.275H49.119c-3.2,0-3.733-.022-3.69-.154.033-.088.9-1.614,1.933-3.393a40.361,40.361,0,0,0,2-3.744,3.569,3.569,0,0,0-1.823-4,3.769,3.769,0,0,0-2.833-.132c-1.032.384-1.482.944-3.206,3.953l-1.537,2.679-.033-3.173c-.011-1.757-.011-9.015,0-16.142l.033-12.957.351-.736a5.7,5.7,0,0,1,.791-1.219,5.169,5.169,0,0,1,2.163-1.274c.253-.055,4.458-.1,10.036-.088l9.608.022Z" transform="translate(-18.606)"/>
    <path id="Path_21708" data-name="Path 21708" d="M160-463.122v.878h1.757V-464H160Z" transform="translate(-132.551 -28.219)"/>
    <path id="Path_21709" data-name="Path 21709" d="M192-463.122v.878h7.028V-464H192Z" transform="translate(-161.037 -28.219)"/>
    <path id="Path_21710" data-name="Path 21710" d="M151.637-399.466a8.846,8.846,0,0,0-5.765,3.876,7.935,7.935,0,0,0-1.373,4.755,7.947,7.947,0,0,0,1.362,4.744,8.772,8.772,0,0,0,12.123,2.613,8.76,8.76,0,0,0,1.438-13.55,8.725,8.725,0,0,0-4.107-2.328A10.841,10.841,0,0,0,151.637-399.466ZM154.7-397.7a7.065,7.065,0,0,1,5.194,9.048,6.9,6.9,0,0,1-1.724,2.756,6.9,6.9,0,0,1-9.894-.011,6.94,6.94,0,0,1,0-9.883A6.976,6.976,0,0,1,154.7-397.7Z" transform="translate(-118.753 -85.571)"/>
    <path id="Path_21711" data-name="Path 21711" d="M194.62-367.561c0,.329-.044.439-.176.439a3,3,0,0,0-2.328,1.823,2.4,2.4,0,0,0,.692,2.624c.692.7,1.1.824,2.679.824,1.153,0,1.241.011,1.493.275a.856.856,0,0,1,.275.6.856.856,0,0,1-.275.6c-.253.264-.34.274-1.482.274s-1.23-.011-1.482-.274a.832.832,0,0,1-.275-.439c0-.132-.165-.165-.878-.165-.736,0-.878.033-.878.176a2.888,2.888,0,0,0,2.46,2.46c.132,0,.176.11.176.439v.439h1.757v-.439c0-.351.044-.439.2-.439a2.631,2.631,0,0,0,1.7-.878,2.418,2.418,0,0,0-.088-3.569c-.692-.7-1.1-.824-2.679-.824-1.153,0-1.241-.011-1.493-.275a.807.807,0,0,1,0-1.208c.253-.264.34-.275,1.482-.275s1.23.011,1.482.275a.832.832,0,0,1,.275.439c0,.132.165.165.878.165.736,0,.878-.033.878-.176a2.9,2.9,0,0,0-1.724-2.284,3.218,3.218,0,0,0-.714-.176c-.154,0-.2-.088-.2-.439V-368H194.62Z" transform="translate(-161.021 -113.678)"/>
    <path id="Path_21712" data-name="Path 21712" d="M185.741-175.776a3.5,3.5,0,0,0-1.625,1.68,2.4,2.4,0,0,0,.692,2.624c.758.758,1.032.824,3.591.824s2.921-.088,3.635-.878a2.453,2.453,0,0,0,0-3.514c-.725-.8-1.054-.878-3.7-.867A18.828,18.828,0,0,0,185.741-175.776Zm5,1.889a.856.856,0,0,1,.275.6.856.856,0,0,1-.275.6c-.264.275-.285.275-2.361.275s-2.1,0-2.361-.275a.856.856,0,0,1-.275-.6.856.856,0,0,1,.275-.6c.264-.275.286-.275,2.361-.275S190.474-174.161,190.737-173.887Z" transform="translate(-153.9 -284.676)"/>
    <path id="Path_21713" data-name="Path 21713" d="M12.493-406.605A12.386,12.386,0,0,0,11.1-405.09a3.9,3.9,0,0,0,.6.648l.6.549.538-.538.549-.538v10.146h1.757v-10.146l.549.538.538.538.6-.549a3.9,3.9,0,0,0,.6-.648,12.386,12.386,0,0,0-1.395-1.515c-1.241-1.23-1.46-1.395-1.779-1.395S13.734-407.835,12.493-406.605Z" transform="translate(0 -78.07)"/>
    <path id="Path_21714" data-name="Path 21714" d="M380.493-406.605a12.39,12.39,0,0,0-1.395,1.515,3.9,3.9,0,0,0,.6.648l.6.549.538-.538.549-.538v10.146h1.757v-10.146l.549.538.538.538.6-.549a3.9,3.9,0,0,0,.6-.648,12.387,12.387,0,0,0-1.395-1.515c-1.241-1.23-1.46-1.395-1.779-1.395S381.734-407.835,380.493-406.605Z" transform="translate(-327.591 -78.07)"/>
    <path id="Path_21715" data-name="Path 21715" d="M32-271.122v.878h1.757V-272H32Z" transform="translate(-18.606 -199.136)"/>
    <path id="Path_21716" data-name="Path 21716" d="M400-271.122v.878h1.757V-272H400Z" transform="translate(-346.197 -199.136)"/>
    <path id="Path_21717" data-name="Path 21717" d="M400-239.122v.878h1.757V-240H400Z" transform="translate(-346.197 -227.622)"/>
  </g>
</svg>
