<svg xmlns="http://www.w3.org/2000/svg" xmlns:xlink="http://www.w3.org/1999/xlink" width="178" height="178" viewBox="0 0 178 178">
  <defs>
    <filter id="Rectangle_9148" x="0" y="0" width="178" height="178" filterUnits="userSpaceOnUse">
      <feOffset dy="3" input="SourceAlpha"/>
      <feGaussianBlur stdDeviation="13" result="blur"/>
      <feFlood flood-color="#21bdca" flood-opacity="0.302"/>
      <feComposite operator="in" in2="blur"/>
      <feComposite in="SourceGraphic"/>
    </filter>
  </defs>
  <g id="_03" data-name="03" transform="translate(-1098 -2862.75)">
    <g transform="matrix(1, 0, 0, 1, 1098, 2862.75)" filter="url(#Rectangle_9148)">
      <rect id="Rectangle_9148-2" data-name="Rectangle 9148" width="100" height="100" rx="25" transform="translate(39 36)" fill="rgba(212,244,255,0.53)"/>
    </g>
    <g id="scalable" transform="translate(1154 3427.75)">
      <path id="Path_21597" data-name="Path 21597" d="M8-501.6v2.4H9.6v-2.051l4.1,4.1,4.1,4.1.57-.58.58-.57-4.1-4.1-4.1-4.1H12.8V-504H8Z" fill="#21bdca"/>
      <path id="Path_21598" data-name="Path 21598" d="M63.972-484.528l3.482,3.482.57-.58.58-.57-2.1-2.1-2.1-2.1h2.051V-488H60.5Z" transform="translate(-47.246 -14.399)" fill="#21bdca"/>
      <path id="Path_21599" data-name="Path 21599" d="M264-485.128l.01,2.882.49.23a14.1,14.1,0,0,1,3.422,3.823,22.748,22.748,0,0,1,3.773,10.417c.07.63.14,1.381.17,1.661l.05.53h14.5V-488H264Zm20.814.33v1.6h-1.6v-1.6h-4.8v-1.6h6.4Zm0,4v.8h-1.6v-1.6h1.6Zm0,3.2v.8h-1.6v-1.6h1.6Zm0,3.2v.8h-1.6v-1.6h1.6Z" transform="translate(-230.383 -14.399)" fill="#21bdca"/>
      <path id="Path_21600" data-name="Path 21600" d="M24-448.918v2.572h1.6V-447.6l2.1,2.1,2.1,2.1.57-.58.58-.57-3.482-3.482L24-451.5Z" transform="translate(-14.399 -47.246)" fill="#21bdca"/>
      <path id="Path_21601" data-name="Path 21601" d="M226.6-415.77a16.34,16.34,0,0,0-2.232,2.462l-.37.51h6.4l-.37-.51a16.344,16.344,0,0,0-2.232-2.462,1.256,1.256,0,0,0-.6-.23A1.256,1.256,0,0,0,226.6-415.77Z" transform="translate(-194.385 -79.194)" fill="#21bdca"/>
      <path id="Path_21602" data-name="Path 21602" d="M182.362-367.78a25.131,25.131,0,0,0-1.5,3.372,20.061,20.061,0,0,0-.9,3.462c-.14.76-.961,11.278-.961,12.208v.31l1.181.32a24.252,24.252,0,0,0,10.527.56,35.619,35.619,0,0,0,3.693-.891c.07-.08-.68-10.447-.851-11.758a20.807,20.807,0,0,0-1.971-6.5l-.62-1.251-4.223-.03-4.223-.02Zm5.144,5.384c0,.67.03.8.16.8a2.632,2.632,0,0,1,2.242,2.241c0,.13-.13.16-.8.16-.65,0-.8-.03-.8-.15a.758.758,0,0,0-.25-.4c-.23-.24-.31-.25-1.351-.25s-1.121.01-1.351.25a.735.735,0,0,0,0,1.1c.23.24.31.25,1.361.25,1.441,0,1.811.11,2.442.75a2.192,2.192,0,0,1,.63,2.392,2.731,2.731,0,0,1-2.121,1.661c-.13,0-.16.13-.16.8v.8h-1.6v-.8c0-.67-.03-.8-.16-.8a2.632,2.632,0,0,1-2.242-2.242c0-.13.13-.16.8-.16.65,0,.8.03.8.15a.758.758,0,0,0,.25.4c.23.24.31.25,1.351.25s1.121-.01,1.351-.25a.78.78,0,0,0,.25-.55.78.78,0,0,0-.25-.55c-.23-.24-.31-.25-1.361-.25-1.441,0-1.811-.11-2.442-.75a2.192,2.192,0,0,1-.63-2.392,2.731,2.731,0,0,1,2.121-1.661c.13,0,.16-.13.16-.8v-.8h1.6Z" transform="translate(-153.888 -122.391)" fill="#21bdca"/>
      <path id="Path_21603" data-name="Path 21603" d="M24-236.792v11.208H46.415v-5.6l-.22-.04c-.13-.02-.54-.09-.931-.16a13.7,13.7,0,0,1-4.333-1.681l-.23-.18.2-.811c.28-1.071.27-1.1-.14-1.171-.19-.04-.831-.22-1.421-.41l-1.081-.35H32.005v-.68c.01-2.462,1.681-4.833,4.9-6.935.58-.38,1.1-.731,1.161-.781a4.671,4.671,0,0,0,.18-1.271c.03-.66.09-1.451.12-1.771l.07-.57H24Zm3.2-2.4v.8H25.6v-1.6h1.6Zm0,3.2v.8H25.6v-1.6h1.6Zm0,3.2v.8H25.6v-1.6h1.6Zm0,3.2v.8h4.8v1.6H25.6v-3.2h1.6Z" transform="translate(-14.399 -230.383)" fill="#21bdca"/>
      <path id="Path_21604" data-name="Path 21604" d="M124.372-191.191c-1.9,1.361-3.012,2.672-3.412,4.023l-.06.23h3.973l.17-2.372c.09-1.3.15-2.382.13-2.4A4.342,4.342,0,0,0,124.372-191.191Z" transform="translate(-101.602 -281.038)" fill="#21bdca"/>
      <path id="Path_21605" data-name="Path 21605" d="M347.988-190.977c.04.32.12,1.411.18,2.412l.12,1.831h3.983l-.06-.23a8.9,8.9,0,0,0-3.552-4.143C347.878-191.628,347.918-191.638,347.988-190.977Z" transform="translate(-305.935 -281.241)" fill="#21bdca"/>
      <path id="Path_21606" data-name="Path 21606" d="M176.909-155.35c0,.36,0,.68-.01.72-.02.19,2.282.791,4.393,1.151a17.555,17.555,0,0,0,3.522.22,16.9,16.9,0,0,0,3.8-.27,26.648,26.648,0,0,0,3.743-.891l.4-.13-.03-.7a5.784,5.784,0,0,0-.05-.721c-.02-.02-.65.13-1.421.32a23.075,23.075,0,0,1-6.344.791,26.348,26.348,0,0,1-3.1-.12,40.55,40.55,0,0,1-4.053-.821c-.38-.11-.731-.2-.771-.2S176.909-155.71,176.909-155.35Z" transform="translate(-151.997 -313.176)" fill="#21bdca"/>
      <path id="Path_21607" data-name="Path 21607" d="M419.47-140.52a2.434,2.434,0,0,0-.47.57c0,.06,1.551,1.651,3.452,3.552l3.452,3.452V-138.1h-1.6v1.251l-2.081-2.081c-1.141-1.141-2.121-2.071-2.172-2.071A2.352,2.352,0,0,0,419.47-140.52Z" transform="translate(-369.872 -326.675)" fill="#21bdca"/>
      <path id="Path_21608" data-name="Path 21608" d="M395.47-116.52a2.432,2.432,0,0,0-.47.57c0,.06,1.831,1.931,4.073,4.173l4.083,4.083H401.1v1.6h4.8v-4.8h-1.6v2.051l-4.083-4.083c-2.242-2.242-4.123-4.073-4.173-4.073A2.351,2.351,0,0,0,395.47-116.52Z" transform="translate(-348.274 -348.274)" fill="#21bdca"/>
      <path id="Path_21609" data-name="Path 21609" d="M209.3-115.431l-.1.42.66.3a10.131,10.131,0,0,0,5.514.741,12.129,12.129,0,0,0,2.832-.871c.36-.18.36-.19.26-.6-.1-.39-.12-.4-.42-.35a27.645,27.645,0,0,1-8.326,0C209.42-115.841,209.4-115.831,209.3-115.431Z" transform="translate(-181.066 -349.342)" fill="#21bdca"/>
      <path id="Path_21610" data-name="Path 21610" d="M371.47-92.52a2.432,2.432,0,0,0-.47.57c0,.06.931,1.031,2.071,2.171l2.081,2.081H373.1v1.6h5.954L375.6-89.548c-1.9-1.9-3.5-3.452-3.552-3.452A2.35,2.35,0,0,0,371.47-92.52Z" transform="translate(-326.675 -369.872)" fill="#21bdca"/>
    </g>
  </g>
</svg>
