<svg xmlns="http://www.w3.org/2000/svg" xmlns:xlink="http://www.w3.org/1999/xlink" width="185" height="185" viewBox="0 0 185 185">
  <defs>
    <filter id="Rectangle_9003" x="0" y="0" width="185" height="185" filterUnits="userSpaceOnUse">
      <feOffset dy="3" input="SourceAlpha"/>
      <feGaussianBlur stdDeviation="13" result="blur"/>
      <feFlood flood-color="#21bdca" flood-opacity="0.302"/>
      <feComposite operator="in" in2="blur"/>
      <feComposite in="SourceGraphic"/>
    </filter>
  </defs>
  <g id="asf" transform="translate(38.836 35.878)">
    <g transform="matrix(1, 0, 0, 1, -38.84, -35.88)" filter="url(#Rectangle_9003)">
      <rect id="Rectangle_9003-2" data-name="Rectangle 9003" width="107" height="107" rx="25" transform="translate(39 36)" fill="rgba(212,244,255,0.53)"/>
    </g>
    <g id="wallet-_7_" transform="translate(30.164 39.395)">
      <path id="Path_21580" data-name="Path 21580" d="M18.035-511.545c-1.388.473-13.1,4.771-13.375,4.906a2.62,2.62,0,0,0-1.328,2.678,9.444,9.444,0,0,0,.338,1.125c.143.383.263.728.263.758a1.351,1.351,0,0,1-.5.15,4.4,4.4,0,0,0-2.663,1.808,6.376,6.376,0,0,0-.435.878l-.2.5L.122-487.9c-.015,10.607-.015,10.847.135,11.424a3.869,3.869,0,0,0,1.118,1.928,3.962,3.962,0,0,0,2.01,1.088c.765.165,28.835.165,29.6,0a4.327,4.327,0,0,0,2.738-2c.488-.855.54-1.283.54-4.171V-482.2h.173a2.552,2.552,0,0,0,1.29-.713,3.024,3.024,0,0,0,.548-.773l.2-.428v-7.276l-.2-.413a2.618,2.618,0,0,0-1.665-1.463l-.315-.09-.038-2.693c-.045-2.663-.045-2.7-.233-3.2a4.254,4.254,0,0,0-3.2-2.7l-.54-.09-.022-1.7-.023-1.7-.248-.5a2.8,2.8,0,0,0-1.275-1.275l-.353-.173L26.4-507.4l-3.976-.037-.5-1.373c-.593-1.628-.683-1.815-1.1-2.205a2.72,2.72,0,0,0-1.643-.705A2.371,2.371,0,0,0,18.035-511.545Zm1.178,2.1c.105.068.233.353.578,1.32l.248.7-.615.045a2.1,2.1,0,0,0-1.08.278,2.663,2.663,0,0,0-1.2,1.268c-.188.413-.2.465-.218,2.123L16.9-502H6.37l-.435-1.178c-.383-1.043-.42-1.193-.323-1.328.075-.12,1.83-.788,6.691-2.565,3.623-1.328,6.646-2.415,6.706-2.423A.477.477,0,0,1,19.213-509.445Zm10.7,4.411c.1.1.12.345.12,1.575V-502H19.16v-1.455c0-1.23.023-1.478.12-1.575s.69-.12,5.318-.12S29.812-505.139,29.917-505.034Zm2.843,5.386a1.959,1.959,0,0,1,1.005.855l.21.353L34-495.912l.022,2.528-2.61.023-2.61.023-.6.21a5.725,5.725,0,0,0-3.758,3.953,7.562,7.562,0,0,0-.038,2.693,5.705,5.705,0,0,0,2.963,3.721c1.163.57,1.253.585,4.118.623l2.528.023v2.46c0,2.768-.022,2.933-.518,3.443a2.41,2.41,0,0,1-.57.428c-.293.15-.54.15-14.74.15s-14.447,0-14.74-.15a2.452,2.452,0,0,1-.57-.435c-.555-.57-.525.218-.5-11.6l.023-10.614.21-.353a1.959,1.959,0,0,1,1.005-.855C4.03-499.8,32.34-499.8,32.76-499.648Zm3.383,8.641c.105.1.12.5.12,3.233,0,2.8-.015,3.135-.128,3.263s-.315.135-3.353.135c-3.5,0-3.691-.015-4.486-.42a3.552,3.552,0,0,1-1.7-2.265,3.391,3.391,0,0,1,1.575-3.593c.75-.45.893-.465,4.546-.465C35.633-491.126,36.038-491.112,36.143-491.006Z" transform="translate(-0.115 511.735)"/>
      <path id="Path_21581" data-name="Path 21581" d="M382.811-206.815a1.1,1.1,0,0,0,.022,1.973,1.508,1.508,0,0,0,.488.15,1.285,1.285,0,0,0,.968-.608A1.107,1.107,0,0,0,382.811-206.815Z" transform="translate(-353.549 229.802)"/>
    </g>
    <g id="Group_6378" data-name="Group 6378" transform="translate(0 11)">
      <path id="Path_21718" data-name="Path 21718" d="M160.192-415.7a9.682,9.682,0,0,0-7.478,6.313,9.694,9.694,0,0,0-.037,6.2,9.674,9.674,0,0,0,7.117,6.35,9.736,9.736,0,0,0,7.58-1.581,12.546,12.546,0,0,0,2.218-2.209,10.768,10.768,0,0,0,1.7-4.28,9.785,9.785,0,0,0-1.775-7.016,14.17,14.17,0,0,0-2.3-2.237A9.9,9.9,0,0,0,160.192-415.7Zm3.577,1.6a8.174,8.174,0,0,1,5.925,5.99,9.762,9.762,0,0,1-.028,3.873,8.183,8.183,0,0,1-5.9,5.9,9.763,9.763,0,0,1-3.873.028,8.165,8.165,0,0,1-6.221-7.441,8.043,8.043,0,0,1,2.376-6.2,8.032,8.032,0,0,1,4.3-2.274A9.888,9.888,0,0,1,163.769-414.105Z" transform="translate(-90.514 428.299)"/>
      <path id="Path_21719" data-name="Path 21719" d="M205-383.789c-.111.065-1.248,1.507-2.523,3.207-2.015,2.681-2.32,3.133-2.292,3.374a56.98,56.98,0,0,0,4.936,6.572,1.194,1.194,0,0,0,.444,0,56.981,56.981,0,0,0,4.936-6.572c.028-.24-.277-.693-2.292-3.374-1.276-1.7-2.413-3.143-2.523-3.207a.858.858,0,0,0-.342-.111A.858.858,0,0,0,205-383.789Zm-.4,4.825v1.886l-.971-.573a5.633,5.633,0,0,1-.971-.647c0-.074,1.849-2.56,1.9-2.56C204.584-380.859,204.6-380.009,204.6-378.964Zm2.486-.647c.508.684.934,1.276.934,1.313a5.634,5.634,0,0,1-.971.647l-.971.573v-1.886c0-1.044.019-1.895.037-1.895S206.571-380.3,207.089-379.611Zm-3.217,3.818a8.3,8.3,0,0,0,1.47.758,21.6,21.6,0,0,0,2.958-1.655l.231-.148-.24.323c-1.553,2.1-2.884,3.836-2.949,3.836s-1.4-1.738-2.949-3.836l-.24-.323.231.148C202.513-376.616,203.179-376.21,203.872-375.794Z" transform="translate(-134.072 399.322)"/>
    </g>
  </g>
</svg>
