<svg xmlns="http://www.w3.org/2000/svg" width="52.323" height="52.419" viewBox="0 0 52.323 52.419">
  <g id="transaction-_3_" transform="translate(0 0)">
    <path id="Path_21582" data-name="Path 21582" d="M19.563-507.771a4.532,4.532,0,0,0-3.308,3.349c-.135.51-.156,2.5-.156,14.355V-476.3H13.623l-.042-1.3-.031-1.3-.343-.333a.919.919,0,0,0-.853-.343h-.52l-3.662,3.672L4.5-472.247v1.04l3.693,3.693c3.35,3.35,3.734,3.693,4.036,3.693a1.533,1.533,0,0,0,1.155-.583c.2-.25.218-.416.218-1.508v-1.238h2.5v3.776c0,4.067.042,4.431.572,5.482a4.93,4.93,0,0,0,1.82,1.82c1.155.583.832.572,12.139.572,7.323,0,10.59-.031,10.974-.114a4.791,4.791,0,0,0,3.048-2.278c.593-1.175.572-.52.572-15.468v-13.762h2.5v2.5l.354.4a.893.893,0,0,0,.884.385h.531l3.662-3.672,3.672-3.662v-1.04l-3.672-3.661-3.662-3.672h-.52a.919.919,0,0,0-.853.343l-.343.333-.031,1.3-.042,1.3H45.225v-3.776c0-4.067-.042-4.431-.572-5.482a4.79,4.79,0,0,0-3.048-2.278c-.385-.083-3.641-.115-11.026-.1C21.9-507.917,20.01-507.885,19.563-507.771Zm22.157,2.642a2.734,2.734,0,0,1,.676.666c.26.4.281.51.312,1.81l.042,1.384H18.6v-1.175a8.481,8.481,0,0,1,.114-1.56,2.36,2.36,0,0,1,1.259-1.311c.208-.062,4.4-.094,10.85-.083l10.506.021Zm1.009,7.594v1.248l-2.132.031-2.132.031-.333.343a.919.919,0,0,0-.343.853.919.919,0,0,0,.343.853l.333.343H49.49l.312-.312a1.532,1.532,0,0,0,.4-.759l.073-.437,1.82,1.82,1.82,1.82-1.82,1.82-1.82,1.82L50.2-488.5a1.531,1.531,0,0,0-.4-.759l-.312-.312H38.463l-.333.343a.919.919,0,0,0-.343.853.919.919,0,0,0,.343.853l.333.343,2.132.031,2.132.031v22.458H18.6v-2.486l2.132-.031,2.132-.031.333-.343a.919.919,0,0,0,.343-.853.919.919,0,0,0-.343-.853l-.333-.343H11.834l-.312.312a1.531,1.531,0,0,0-.4.759l-.073.437-1.82-1.82-1.82-1.82,1.82-1.82,1.82-1.82.073.437a1.532,1.532,0,0,0,.4.759l.312.312H22.86l.333-.343a.919.919,0,0,0,.343-.853.919.919,0,0,0-.343-.853l-.333-.343-2.132-.031-2.132-.031v-22.459H42.728Zm-.021,36.762c-.031,1.3-.052,1.415-.312,1.81a2.736,2.736,0,0,1-.676.666l-.4.25H19.989l-.426-.281a2.737,2.737,0,0,1-.666-.676c-.229-.354-.25-.541-.281-1.779l-.042-1.373H42.749Z" transform="translate(-4.5 507.919)"/>
    <path id="Path_21583" data-name="Path 21583" d="M201.944-363.711a1.929,1.929,0,0,0-.468.374c-.239.26-.26.354-.291,1.571l-.042,1.29h-.4a4.6,4.6,0,0,0-4.494,5.305,4.589,4.589,0,0,0,3.079,3.62,12.14,12.14,0,0,0,2.933.218c2.5.062,2.507.062,2.923.343a1.857,1.857,0,0,1,.915,1.758,1.618,1.618,0,0,1-.281,1.1,2.737,2.737,0,0,1-.676.666c-.385.25-.437.25-3.069.25h-2.684l-.312-.312a1.535,1.535,0,0,1-.416-.884c-.156-.822-.551-1.2-1.248-1.2a.919.919,0,0,0-.853.343c-.322.312-.343.385-.343,1.04a3.668,3.668,0,0,0,2.184,3.214,3.582,3.582,0,0,0,1.685.322l1.051.042.042,1.29.031,1.29.343.333a.919.919,0,0,0,.853.343.919.919,0,0,0,.853-.343l.343-.333.031-1.3.042-1.3h.437a5.168,5.168,0,0,0,1.03-.156,4.547,4.547,0,0,0,3.433-3.745,4.661,4.661,0,0,0-3.2-5.076,25.765,25.765,0,0,0-2.819-.166c-2.5-.062-2.507-.062-2.923-.343a1.87,1.87,0,0,1-.915-1.748,1.87,1.87,0,0,1,.915-1.748l.427-.281h5.368l.312.312a1.535,1.535,0,0,1,.416.884c.156.822.551,1.2,1.248,1.2a.919.919,0,0,0,.853-.343c.322-.312.343-.385.343-1.04a3.666,3.666,0,0,0-2.174-3.2,3.643,3.643,0,0,0-1.7-.333l-1.051-.042-.042-1.29c-.031-1.279-.031-1.29-.354-1.612A1.344,1.344,0,0,0,201.944-363.711Z" transform="translate(-176.25 378.776)"/>
  </g>
</svg>
