<svg xmlns="http://www.w3.org/2000/svg" width="54" height="54" viewBox="0 0 54 54">
  <g id="Group_6342" data-name="Group 6342" transform="translate(-211 -2755)">
    <circle id="Ellipse_2900" data-name="Ellipse 2900" cx="27" cy="27" r="27" transform="translate(211 2755)" fill="#21bdca"/>
    <g id="cyber-security-_1_" transform="translate(226.05 3281.762)">
      <path id="Path_21591" data-name="Path 21591" d="M49.7-511.707a5.641,5.641,0,0,0-2.644,1.131,5.785,5.785,0,0,0-1.928,2.668,7.152,7.152,0,0,0-.305,2.921l-.024,1.852h2.873v-1.589a12.046,12.046,0,0,1,.072-1.919,2.91,2.91,0,0,1,2.792-2.267,2.91,2.91,0,0,1,2.792,2.267,12.046,12.046,0,0,1,.072,1.919v1.589h2.873l-.024-1.852a7.182,7.182,0,0,0-.305-2.921,5.817,5.817,0,0,0-3.546-3.546A6.122,6.122,0,0,0,49.7-511.707Z" transform="translate(-42.709)" fill="#fff"/>
      <path id="Path_21592" data-name="Path 21592" d="M364.682-330.713a2.152,2.152,0,0,0-1.58,2.816,1.072,1.072,0,0,1,.081.258s-.282.267-.616.587l-.6.582H360v1.432h1.193c1.021,0,1.222-.01,1.351-.081a9.677,9.677,0,0,0,.912-.8,7.528,7.528,0,0,1,.811-.716c.029,0,.181.043.339.086a2.143,2.143,0,0,0,2.611-2.386A2.148,2.148,0,0,0,364.682-330.713Z" transform="translate(-342.866 -172.37)" fill="#fff"/>
      <path id="Path_21593" data-name="Path 21593" d="M1.675-300.841A2.191,2.191,0,0,0,0-299.132c-.067.348-.067,9.016,0,9.364a2.171,2.171,0,0,0,1.713,1.713c.353.067,11.874.067,12.228,0a2.171,2.171,0,0,0,1.713-1.713c.067-.348.067-9.016,0-9.364a2.171,2.171,0,0,0-1.713-1.713C13.621-300.9,1.986-300.9,1.675-300.841Zm6.539,2.859a2.157,2.157,0,0,1,1.723,1.794A2.134,2.134,0,0,1,8.815-294l-.272.143v1.207c0,1.117-.01,1.222-.1,1.394a.753.753,0,0,1-.62.382.753.753,0,0,1-.62-.382c-.086-.172-.1-.277-.1-1.394v-1.207L6.839-294a2.134,2.134,0,0,1-1.122-2.191A2.135,2.135,0,0,1,8.214-297.982Z" transform="translate(0 -200.81)" fill="#fff"/>
      <path id="Path_21594" data-name="Path 21594" d="M150.372-210.769a.764.764,0,0,0-.372.616.753.753,0,0,0,.382.62.894.894,0,0,0,.334.1.762.762,0,0,0,.716-.716.753.753,0,0,0-.382-.62A.675.675,0,0,0,150.372-210.769Z" transform="translate(-142.889 -286.539)" fill="#fff"/>
      <path id="Path_21595" data-name="Path 21595" d="M364.606-210.8a2.209,2.209,0,0,0-1.384,1.093l-.143.272H360v1.432h3.078l.143.272a2.134,2.134,0,0,0,2.191,1.122,2.147,2.147,0,0,0,1.8-1.795A2.153,2.153,0,0,0,364.606-210.8Z" transform="translate(-342.866 -286.539)" fill="#fff"/>
      <path id="Path_21596" data-name="Path 21596" d="M360-120.284v.716l.964.01.964.014.587.692a2.827,2.827,0,0,1,.558.764c-.014.038-.048.191-.076.334a2.237,2.237,0,0,0,1.174,2.291,2.1,2.1,0,0,0,2.768-.859,2.141,2.141,0,0,0-1.475-3.2,2.155,2.155,0,0,0-1.365.215c-.053.024-.243-.172-.73-.749a5.422,5.422,0,0,0-.821-.864,4.338,4.338,0,0,0-1.355-.076H360Z" transform="translate(-342.866 -372.113)" fill="#fff"/>
    </g>
  </g>
</svg>
