<svg xmlns="http://www.w3.org/2000/svg" xmlns:xlink="http://www.w3.org/1999/xlink" width="178" height="178" viewBox="0 0 178 178">
  <defs>
    <filter id="Rectangle_9003" x="0" y="0" width="178" height="178" filterUnits="userSpaceOnUse">
      <feOffset dy="3" input="SourceAlpha"/>
      <feGaussianBlur stdDeviation="13" result="blur"/>
      <feFlood flood-color="#21bdca" flood-opacity="0.302"/>
      <feComposite operator="in" in2="blur"/>
      <feComposite in="SourceGraphic"/>
    </filter>
  </defs>
  <g id="_02" data-name="02" transform="translate(-963 -2862.75)">
    <g transform="matrix(1, 0, 0, 1, 963, 2862.75)" filter="url(#Rectangle_9003)">
      <rect id="Rectangle_9003-2" data-name="Rectangle 9003" width="100" height="100" rx="25" transform="translate(39 36)" fill="rgba(212,244,255,0.53)"/>
    </g>
    <g id="cyber-security-_1_" transform="translate(1031.049 3440.513)">
      <path id="Path_21591" data-name="Path 21591" d="M53.071-511.669a9.519,9.519,0,0,0-4.462,1.909,9.762,9.762,0,0,0-3.254,4.5c-.451,1.337-.483,1.579-.515,4.929L44.8-497.2h4.848v-2.682a20.328,20.328,0,0,1,.121-3.238,4.91,4.91,0,0,1,4.712-3.826,4.91,4.91,0,0,1,4.712,3.826,20.327,20.327,0,0,1,.121,3.238v2.682h4.848l-.04-3.125c-.032-3.342-.064-3.584-.515-4.929a9.816,9.816,0,0,0-5.984-5.984A10.331,10.331,0,0,0,53.071-511.669Z" transform="translate(-41.238)" fill="#21bdca"/>
      <path id="Path_21592" data-name="Path 21592" d="M367.9-330.685a3.632,3.632,0,0,0-2.666,4.752,1.809,1.809,0,0,1,.137.435c-.008.008-.475.451-1.039.991l-1.015.983H360v2.416h2.014c1.724,0,2.062-.016,2.279-.137a16.324,16.324,0,0,0,1.538-1.345A12.7,12.7,0,0,1,367.2-323.8c.048.008.306.073.572.145a3.616,3.616,0,0,0,4.405-4.027A3.625,3.625,0,0,0,367.9-330.685Z" transform="translate(-331.052 -166.431)" fill="#21bdca"/>
      <path id="Path_21593" data-name="Path 21593" d="M2.861-300.808a3.7,3.7,0,0,0-2.827,2.883c-.113.588-.113,15.214,0,15.8a3.663,3.663,0,0,0,2.891,2.891c.6.113,20.038.113,20.634,0a3.663,3.663,0,0,0,2.891-2.891c.113-.588.113-15.214,0-15.8a3.663,3.663,0,0,0-2.891-2.891C23.02-300.913,3.385-300.913,2.861-300.808ZM13.9-295.984a3.64,3.64,0,0,1,2.907,3.028,3.6,3.6,0,0,1-1.893,3.7l-.459.242v2.038c0,1.885-.016,2.062-.161,2.352a1.271,1.271,0,0,1-1.047.644,1.271,1.271,0,0,1-1.047-.644c-.145-.29-.161-.467-.161-2.352v-2.038l-.459-.242a3.6,3.6,0,0,1-1.893-3.7A3.6,3.6,0,0,1,13.9-295.984Z" transform="translate(0 -193.891)" fill="#21bdca"/>
      <path id="Path_21594" data-name="Path 21594" d="M150.628-210.7a1.29,1.29,0,0,0-.628,1.039,1.271,1.271,0,0,0,.644,1.047,1.508,1.508,0,0,0,.564.161,1.286,1.286,0,0,0,1.208-1.208,1.271,1.271,0,0,0-.644-1.047A1.138,1.138,0,0,0,150.628-210.7Z" transform="translate(-137.965 -276.665)" fill="#21bdca"/>
      <path id="Path_21595" data-name="Path 21595" d="M367.772-210.76a3.727,3.727,0,0,0-2.336,1.844l-.242.459H360v2.416h5.195l.242.459a3.6,3.6,0,0,0,3.7,1.893,3.623,3.623,0,0,0,3.044-3.028A3.633,3.633,0,0,0,367.772-210.76Z" transform="translate(-331.052 -276.666)" fill="#21bdca"/>
      <path id="Path_21596" data-name="Path 21596" d="M360-119.792v1.208l1.627.016,1.627.024.991,1.168a4.772,4.772,0,0,1,.942,1.289c-.024.064-.081.322-.129.564a3.775,3.775,0,0,0,1.981,3.866,3.547,3.547,0,0,0,4.671-1.45,3.613,3.613,0,0,0-2.489-5.4,3.637,3.637,0,0,0-2.3.362c-.089.04-.411-.29-1.232-1.264a9.151,9.151,0,0,0-1.385-1.458,7.321,7.321,0,0,0-2.287-.129H360Z" transform="translate(-331.052 -359.291)" fill="#21bdca"/>
    </g>
  </g>
</svg>
