<svg xmlns="http://www.w3.org/2000/svg" width="54" height="54" viewBox="0 0 54 54">
  <g id="Group_6343" data-name="Group 6343" transform="translate(-211 -2755)">
    <circle id="Ellipse_2900" data-name="Ellipse 2900" cx="27" cy="27" r="27" transform="translate(211 2755)" fill="#21bdca"/>
    <g id="scalable" transform="translate(217 3273)">
      <path id="Path_21597" data-name="Path 21597" d="M8-502.73v1.27h.847v-1.085l2.169,2.169,2.169,2.169.3-.307.307-.3-2.169-2.169-2.169-2.169H10.54V-504H8Z" fill="#fff"/>
      <path id="Path_21598" data-name="Path 21598" d="M62.336-486.164l1.841,1.841.3-.307.307-.3-1.111-1.111-1.111-1.111h1.085V-488H60.5Z" transform="translate(-49.722 -15.153)" fill="#fff"/>
      <path id="Path_21599" data-name="Path 21599" d="M264-486.481l.005,1.524.259.122a7.456,7.456,0,0,1,1.81,2.021,12.028,12.028,0,0,1,1.995,5.508c.037.333.074.73.09.878l.026.28h7.667V-488H264Zm11.006.175v.847h-.847v-.847h-2.54v-.847h3.386Zm0,2.116v.423h-.847v-.847h.847Zm0,1.693v.423h-.847v-.847h.847Zm0,1.693v.423h-.847v-.847h.847Z" transform="translate(-242.455 -15.153)" fill="#fff"/>
      <path id="Path_21600" data-name="Path 21600" d="M24-450.135v1.36h.847v-.661l1.111,1.111,1.111,1.111.3-.307.307-.3-1.841-1.841L24-451.5Z" transform="translate(-15.153 -49.722)" fill="#fff"/>
      <path id="Path_21601" data-name="Path 21601" d="M225.376-415.878a8.64,8.64,0,0,0-1.18,1.3l-.2.27h3.386l-.2-.27a8.642,8.642,0,0,0-1.18-1.3.664.664,0,0,0-.317-.122A.664.664,0,0,0,225.376-415.878Z" transform="translate(-204.571 -83.344)" fill="#fff"/>
      <path id="Path_21602" data-name="Path 21602" d="M180.778-367.884a13.289,13.289,0,0,0-.794,1.783,10.607,10.607,0,0,0-.476,1.831c-.074.4-.508,5.963-.508,6.455v.164l.624.169a12.824,12.824,0,0,0,5.566.3,18.834,18.834,0,0,0,1.952-.471c.037-.042-.36-5.524-.45-6.217a11,11,0,0,0-1.042-3.439l-.328-.661-2.233-.016L180.857-368Zm2.72,2.847c0,.355.016.423.085.423a1.392,1.392,0,0,1,1.185,1.185c0,.069-.069.085-.423.085s-.423-.016-.423-.079a.4.4,0,0,0-.132-.212c-.122-.127-.164-.132-.714-.132s-.593.005-.714.132a.389.389,0,0,0,0,.582c.122.127.164.132.72.132.762,0,.958.058,1.291.4a1.159,1.159,0,0,1,.333,1.265,1.444,1.444,0,0,1-1.122.878c-.069,0-.085.069-.085.423v.423h-.847v-.423c0-.354-.016-.423-.085-.423a1.392,1.392,0,0,1-1.185-1.185c0-.069.069-.085.423-.085s.423.016.423.079a.4.4,0,0,0,.132.212c.122.127.164.132.714.132s.593-.005.714-.132a.412.412,0,0,0,.132-.291.413.413,0,0,0-.132-.291c-.122-.127-.164-.132-.72-.132-.762,0-.958-.058-1.291-.4a1.159,1.159,0,0,1-.333-1.265,1.444,1.444,0,0,1,1.122-.878c.069,0,.085-.069.085-.423v-.423h.847Z" transform="translate(-161.952 -128.804)" fill="#fff"/>
      <path id="Path_21603" data-name="Path 21603" d="M24-242.074v5.926H35.852v-2.963l-.116-.021c-.069-.011-.286-.048-.492-.085a7.243,7.243,0,0,1-2.291-.889l-.122-.1.106-.429c.148-.566.143-.582-.074-.619-.1-.021-.439-.116-.751-.217l-.571-.185H28.233v-.36c.005-1.3.889-2.556,2.593-3.667.307-.2.582-.386.614-.413a2.47,2.47,0,0,0,.1-.672c.016-.349.048-.767.063-.937l.037-.3H24Zm1.693-1.27v.423h-.847v-.847h.847Zm0,1.693v.423h-.847v-.847h.847Zm0,1.693v.423h-.847v-.847h.847Zm0,1.693v.423h2.54v.847H24.847v-1.693h.847Z" transform="translate(-15.153 -242.455)" fill="#fff"/>
      <path id="Path_21604" data-name="Path 21604" d="M122.736-191.436a4.343,4.343,0,0,0-1.8,2.127l-.032.122H123l.09-1.254c.048-.688.079-1.259.069-1.27A2.3,2.3,0,0,0,122.736-191.436Z" transform="translate(-106.926 -295.764)" fill="#fff"/>
      <path id="Path_21605" data-name="Path 21605" d="M347.972-191.217c.021.169.064.746.1,1.275l.063.968h2.106l-.032-.122a4.7,4.7,0,0,0-1.878-2.191C347.914-191.561,347.935-191.567,347.972-191.217Z" transform="translate(-321.966 -295.978)" fill="#fff"/>
      <path id="Path_21606" data-name="Path 21606" d="M176.9-155.656c0,.19,0,.36-.005.381a8.556,8.556,0,0,0,2.323.608,9.281,9.281,0,0,0,1.862.116,8.937,8.937,0,0,0,2.011-.143,14.091,14.091,0,0,0,1.979-.471l.212-.069-.016-.37a3.058,3.058,0,0,0-.026-.381c-.011-.011-.344.069-.751.169a12.2,12.2,0,0,1-3.355.418,13.934,13.934,0,0,1-1.64-.063,21.442,21.442,0,0,1-2.143-.434c-.2-.058-.386-.106-.407-.106S176.9-155.847,176.9-155.656Z" transform="translate(-159.962 -329.587)" fill="#fff"/>
      <path id="Path_21607" data-name="Path 21607" d="M419.249-140.746a1.287,1.287,0,0,0-.249.3c0,.032.82.873,1.825,1.878l1.825,1.825v-2.725H421.8v.661l-1.1-1.1c-.6-.6-1.122-1.1-1.148-1.1A1.243,1.243,0,0,0,419.249-140.746Z" transform="translate(-389.253 -343.793)" fill="#fff"/>
      <path id="Path_21608" data-name="Path 21608" d="M395.249-116.746a1.286,1.286,0,0,0-.249.3c0,.032.968,1.021,2.154,2.206l2.159,2.159h-1.085v.847h2.54v-2.54h-.847v1.085l-2.159-2.159c-1.185-1.185-2.18-2.154-2.206-2.154A1.242,1.242,0,0,0,395.249-116.746Z" transform="translate(-366.523 -366.523)" fill="#fff"/>
      <path id="Path_21609" data-name="Path 21609" d="M209.253-115.611l-.053.222.349.159a5.357,5.357,0,0,0,2.915.392,6.413,6.413,0,0,0,1.5-.46c.19-.1.19-.1.138-.317s-.063-.212-.222-.185a14.618,14.618,0,0,1-4.4,0C209.316-115.828,209.306-115.822,209.253-115.611Z" transform="translate(-190.554 -367.648)" fill="#fff"/>
      <path id="Path_21610" data-name="Path 21610" d="M371.249-92.746a1.286,1.286,0,0,0-.249.3c0,.032.492.545,1.1,1.148l1.1,1.1h-1.085v.847h3.148l-1.825-1.825C372.429-92.18,371.582-93,371.556-93A1.243,1.243,0,0,0,371.249-92.746Z" transform="translate(-343.793 -389.253)" fill="#fff"/>
    </g>
  </g>
</svg>
