<svg xmlns="http://www.w3.org/2000/svg" xmlns:xlink="http://www.w3.org/1999/xlink" width="180" height="179" viewBox="0 0 180 179">
  <defs>
    <filter id="Rectangle_9003" x="0" y="0" width="180" height="179" filterUnits="userSpaceOnUse">
      <feOffset dy="3" input="SourceAlpha"/>
      <feGaussianBlur stdDeviation="13" result="blur"/>
      <feFlood flood-color="#21bdca" flood-opacity="0.302"/>
      <feComposite operator="in" in2="blur"/>
      <feComposite in="SourceGraphic"/>
    </filter>
  </defs>
  <g id="Group_6371" data-name="Group 6371" transform="translate(39.46 35.759)">
    <g transform="matrix(1, 0, 0, 1, -39.46, -35.76)" filter="url(#Rectangle_9003)">
      <rect id="Rectangle_9003-2" data-name="Rectangle 9003" width="102" height="101" rx="25" transform="translate(39 36)" fill="rgba(212,244,255,0.53)"/>
    </g>
    <g id="monitor-_1_" transform="translate(24.464 28.228)">
      <path id="Path_21701" data-name="Path 21701" d="M1.262-471.627a1.583,1.583,0,0,0-1.074.845C.01-470.448,0-469.551,0-456.43v14.008H53.4l-.021-14.122-.031-14.133-.219-.292a2.446,2.446,0,0,0-.574-.5c-.355-.209-.553-.209-25.647-.229C13-471.7,1.46-471.669,1.262-471.627Zm22.5,5.059a2.067,2.067,0,0,1,.553.532c.188.3.2.553.2,3.7s-.01,3.4-.2,3.682a2.185,2.185,0,0,1-.49.49c-.292.188-.657.2-9.074.2H5.976l-.355-.24c-.7-.459-.72-.584-.72-4.172,0-3.536.01-3.588.647-4.078a2.036,2.036,0,0,1,.657-.3c.177-.021,4.12-.042,8.761-.031C23.217-466.777,23.426-466.777,23.76-466.568Zm23.541-.146a1.939,1.939,0,0,1,.657.334c.553.511.542.375.542,6.394,0,5.486,0,5.6-.219,5.987a1.949,1.949,0,0,1-.542.584c-.323.188-.657.2-8.959.2-8.542,0-8.626,0-8.907-.219a2.843,2.843,0,0,1-.5-.5c-.219-.282-.219-.417-.25-5.935-.021-5.225-.01-5.684.156-6.008a1.647,1.647,0,0,1,1.085-.845C30.925-466.86,46.81-466.85,47.3-466.714ZM12.725-455.752c.72.5.741.6.709,4.12-.031,2.993-.042,3.16-.25,3.431a2.842,2.842,0,0,1-.5.5c-.271.209-.417.219-3.484.219-3.6,0-3.64-.01-4.078-.782-.209-.376-.219-.542-.219-3.5,0-2.931.01-3.139.209-3.463a1.919,1.919,0,0,1,.542-.542c.323-.2.532-.209,3.536-.209C12.328-455.982,12.391-455.982,12.725-455.752Zm10.618-.021a1.919,1.919,0,0,1,.542.542c.2.323.209.532.209,3.463,0,4.558.271,4.287-4.3,4.287-3.066,0-3.212-.01-3.484-.219a2.842,2.842,0,0,1-.5-.5c-.209-.271-.219-.438-.25-3.431-.031-3.515-.01-3.619.709-4.12.334-.23.4-.23,3.536-.23C22.81-455.982,23.019-455.972,23.342-455.773Zm24.438,5.455a1.546,1.546,0,0,1-.052,2.618c-.282.219-.386.219-8.886.25-8.344.021-8.615.021-9.064-.177a1.4,1.4,0,0,1-.887-1.429,1.371,1.371,0,0,1,.772-1.3c.313-.188.688-.2,9.043-.2h8.72Z" transform="translate(0.01 471.7)" fill="#fff"/>
      <path id="Path_21702" data-name="Path 21702" d="M77-393.7v1.3H90.465l-.031-1.283-.031-1.272-6.7-.031L77-395Z" transform="translate(-68.958 403)" fill="#fff"/>
      <path id="Path_21703" data-name="Path 21703" d="M309.073-394.927c-.042.031-.073,1.7-.073,3.7v3.63h13.142V-395h-6.5C312.066-395,309.1-394.969,309.073-394.927Z" transform="translate(-276.761 403)" fill="#fff"/>
      <path id="Path_21704" data-name="Path 21704" d="M77-289.853v1.147h2.295V-291H77Z" transform="translate(-68.958 309.847)" fill="#fff"/>
      <path id="Path_21705" data-name="Path 21705" d="M179-289.853v1.147h2.295V-291H179Z" transform="translate(-160.32 309.847)" fill="#fff"/>
      <path id="Path_21706" data-name="Path 21706" d="M-.069-158.664c.031,2.576.042,2.607.751,3.129.282.219.365.219,10.868.25l10.576.021v3.755H20.291c-1.565,0-1.877.031-2.149.188a1.576,1.576,0,0,0,.021,2.681c.355.209.511.209,8.448.209h8.083l.4-.24a1.57,1.57,0,0,0-.01-2.66c-.271-.146-.584-.177-2.149-.177H31.1v-3.755l10.576-.021c10.5-.031,10.586-.031,10.868-.25.709-.522.72-.553.751-3.129L53.323-161H-.1Z" transform="translate(0.1 193.406)" fill="#fff"/>
    </g>
  </g>
</svg>
