<svg id="smart-contracts-_3_" xmlns="http://www.w3.org/2000/svg" width="54.528" height="54.47" viewBox="0 0 54.528 54.47">
  <path id="Path_21584" data-name="Path 21584" d="M106.071-495.716l-.284.273v33.977h-.625c-.534,0-.682.045-.931.3-.284.284-.284.3-.25,1.908a4.2,4.2,0,0,0,.466,2.476,4.366,4.366,0,0,0,2.227,2.17l.761.364h26.582l.716-.386a3.307,3.307,0,0,0,1.59-1.647l.307-.579.034-15.677.023-15.665-3.885-3.9-3.9-3.9h-22.56Zm21.527,4.885v3.362l.284.273.273.284h6.714l-.023,14.87c-.034,14.824-.034,14.881-.273,15.188a1.6,1.6,0,0,1-1.522.784,1.6,1.6,0,0,1-1.522-.784c-.216-.273-.25-.523-.3-2.249-.057-1.863-.068-1.943-.329-2.147s-.613-.216-11.78-.216H107.6v-32.716H127.6Zm3.919.057,2.045,2.045h-4.146v-2.045c0-1.125.011-2.045.034-2.045S130.392-491.9,131.517-490.774Zm-2.1,32.239a5.546,5.546,0,0,0,.4,2.317c.08.193-.477.2-10.792.2-8.213,0-11-.034-11.348-.136a3.374,3.374,0,0,1-1.749-1.749,4.663,4.663,0,0,1-.136-1.113v-.636h23.628Z" transform="translate(-93.972 496)"/>
  <path id="Path_21585" data-name="Path 21585" d="M162.025-415.676a11.9,11.9,0,0,0-9.19,7.759,11.913,11.913,0,0,0-.045,7.622,11.889,11.889,0,0,0,8.747,7.8,11.964,11.964,0,0,0,9.315-1.943,15.422,15.422,0,0,0,2.726-2.715,13.233,13.233,0,0,0,2.09-5.26,12.025,12.025,0,0,0-2.181-8.622,17.415,17.415,0,0,0-2.829-2.749A12.172,12.172,0,0,0,162.025-415.676Zm4.4,1.965a10.046,10.046,0,0,1,7.282,7.361,12,12,0,0,1-.034,4.76,10.057,10.057,0,0,1-7.248,7.248,12,12,0,0,1-4.76.034,10.035,10.035,0,0,1-7.645-9.145,9.885,9.885,0,0,1,2.919-7.622,9.872,9.872,0,0,1,5.282-2.794A12.152,12.152,0,0,1,166.421-413.711Z" transform="translate(-136.715 424.935)"/>
  <path id="Path_21586" data-name="Path 21586" d="M206.1-383.764c-.136.079-1.534,1.852-3.1,3.942-2.476,3.294-2.851,3.851-2.817,4.146a70.03,70.03,0,0,0,6.066,8.077,1.466,1.466,0,0,0,.545,0,70.026,70.026,0,0,0,6.066-8.077c.034-.3-.341-.852-2.817-4.146-1.568-2.09-2.965-3.862-3.1-3.942a1.054,1.054,0,0,0-.42-.136A1.053,1.053,0,0,0,206.1-383.764Zm-.488,5.93v2.317l-1.193-.7a6.922,6.922,0,0,1-1.193-.8c0-.091,2.272-3.147,2.34-3.147C205.591-380.163,205.614-379.118,205.614-377.834Zm3.056-.8c.625.841,1.147,1.568,1.147,1.613a6.923,6.923,0,0,1-1.193.8l-1.193.7v-2.317c0-1.284.023-2.329.045-2.329S208.034-379.47,208.67-378.629Zm-3.953,4.692a10.2,10.2,0,0,0,1.806.931,26.534,26.534,0,0,0,3.635-2.033l.284-.182-.3.4c-1.908,2.579-3.544,4.714-3.624,4.714s-1.715-2.136-3.624-4.714l-.3-.4.284.182C203.047-374.949,203.865-374.449,204.717-373.937Z" transform="translate(-179.259 396.634)"/>
  <path id="Path_21587" data-name="Path 21587" d="M19-335.716l-.284.273v28.524H17.641c-1,0-1.113.023-1.363.284-.273.261-.284.318-.284,1.965,0,1.977-.08,1.806,1.352,2.851a11.712,11.712,0,0,0,3.76,1.852l.966.261H64.443l.954-.25a11.681,11.681,0,0,0,3.771-1.863c1.431-1.045,1.352-.875,1.352-2.851,0-1.647-.011-1.7-.284-1.965-.25-.261-.364-.284-1.363-.284H67.794v-28.524l-.284-.273L67.238-336H61.081l-.273.284a.835.835,0,0,0,0,1.25c.273.284.273.284,2.726.284h2.442v27.263H20.538v-27.263H22.98c2.454,0,2.454,0,2.726-.284a.835.835,0,0,0,0-1.25L25.434-336H19.277Zm17.721,31.41a3.2,3.2,0,0,0,.613.909c.307.159,11.53.159,11.837,0a3.2,3.2,0,0,0,.613-.909l.4-.8H68.7v1.363l-.7.523a9.294,9.294,0,0,1-2.817,1.431l-.852.261H22.185l-.852-.261a9.107,9.107,0,0,1-2.806-1.431l-.716-.523V-305.1H36.328Z" transform="translate(-15.993 354.176)"/>
  <path id="Path_21588" data-name="Path 21588" d="M72.284-303.716l-.284.273v22.515l.284.273.273.284h40.691l.273-.284.284-.273v-22.515l-.284-.273c-.261-.273-.352-.284-1.534-.284s-1.272.011-1.534.284a.835.835,0,0,0,0,1.25c.227.239.386.284.909.284h.625v19.993H73.818v-19.993h.625c.761,0,1.193-.329,1.193-.909a.886.886,0,0,0-.284-.625C75.09-303.989,75-304,73.818-304S72.545-303.989,72.284-303.716Z" transform="translate(-65.638 325.811)"/>
</svg>
