<svg xmlns="http://www.w3.org/2000/svg" width="64.002" height="64" viewBox="0 0 64.002 64"><g transform="translate(-15.887 -15.993)"><path d="M328,256h2.133v2.133H328Z" transform="translate(-270.506 -208.012)" fill="#fff"/><path d="M328,288h2.133v2.133H328Z" transform="translate(-270.506 -235.747)" fill="#fff"/><path d="M328,320h2.133v2.133H328Z" transform="translate(-270.506 -263.481)" fill="#fff"/><path d="M168,256h2.133v2.133H168Z" transform="translate(-131.835 -208.012)" fill="#fff"/><path d="M168,288h2.133v2.133H168Z" transform="translate(-131.835 -235.747)" fill="#fff"/><path d="M168,320h2.133v2.133H168Z" transform="translate(-131.835 -263.481)" fill="#fff"/><path d="M232,192h2.133v2.133H232Z" transform="translate(-187.304 -152.544)" fill="#fff"/><path d="M248,160h2.133v2.133H248Z" transform="translate(-201.171 -124.81)" fill="#fff"/><path d="M264,192h2.133v2.133H264Z" transform="translate(-215.038 -152.544)" fill="#fff"/><path d="M232,224h2.133v2.133H232Z" transform="translate(-187.304 -180.278)" fill="#fff"/><path d="M264,224h2.133v2.133H264Z" transform="translate(-215.038 -180.278)" fill="#fff"/><path d="M232,256h2.133v2.133H232Z" transform="translate(-187.304 -208.012)" fill="#fff"/><path d="M264,256h2.133v2.133H264Z" transform="translate(-215.038 -208.012)" fill="#fff"/><path d="M232,288h2.133v2.133H232Z" transform="translate(-187.304 -235.747)" fill="#fff"/><path d="M264,288h2.133v2.133H264Z" transform="translate(-215.038 -235.747)" fill="#fff"/><path d="M232,320h2.133v2.133H232Z" transform="translate(-187.304 -263.481)" fill="#fff"/><path d="M264,320h2.133v2.133H264Z" transform="translate(-215.038 -263.481)" fill="#fff"/><path d="M198.4,42.133a26.644,26.644,0,0,1,8.2,1.286l.656-2.03a28.947,28.947,0,0,0-17.719,0l.656,2.03A26.644,26.644,0,0,1,198.4,42.133Z" transform="translate(-150.505 -20.807)" fill="#fff"/><path d="M41.389,189.541a28.95,28.95,0,0,0,0,17.719l2.03-.656a26.816,26.816,0,0,1,0-16.408Z" transform="translate(-20.899 -150.413)" fill="#fff"/><path d="M198.4,447.641a26.644,26.644,0,0,1-8.2-1.286l-.656,2.03a28.947,28.947,0,0,0,17.719,0l-.656-2.03A26.644,26.644,0,0,1,198.4,447.641Z" transform="translate(-150.505 -372.992)" fill="#fff"/><path d="M448.385,207.26a28.949,28.949,0,0,0,0-17.719l-2.03.656a26.816,26.816,0,0,1,0,16.408Z" transform="translate(-373.084 -150.413)" fill="#fff"/><path d="M27.731,39.456a11.731,11.731,0,1,0-9.385-18.771l1.706,1.281a9.555,9.555,0,1,1-.96,1.571l-1.92-.932A11.621,11.621,0,0,0,16,27.725,11.744,11.744,0,0,0,27.731,39.456Z" transform="translate(-0.098)" fill="#fff"/><path d="M331.731,39.462A11.731,11.731,0,1,0,320,27.731,11.731,11.731,0,0,0,331.731,39.462Zm0-21.329a9.6,9.6,0,1,1-9.6,9.6A9.6,9.6,0,0,1,331.731,18.133Z" transform="translate(-263.573 -0.006)" fill="#fff"/><path d="M68.158,139.727a11.673,11.673,0,0,0-4.266.8V129.063a1.066,1.066,0,0,0-.5-.9l-8.03-5.019V118.4a1.066,1.066,0,0,0-.384-.819l-6.4-5.332a1.066,1.066,0,0,0-1.366,0l-6.4,5.332a1.066,1.066,0,0,0-.384.819v4.741l-8.03,5.019a1.066,1.066,0,0,0-.5.9V140.53a11.738,11.738,0,1,0,6.182,5.6h19.63a11.731,11.731,0,0,0,20.609,11.2l-1.846-1.068a9.547,9.547,0,1,1,.844-1.918l2.035.639a11.739,11.739,0,0,0-11.194-15.25ZM27.633,161.056a9.6,9.6,0,1,1,9.6-9.6A9.6,9.6,0,0,1,27.633,161.056Zm6.4-19.426V129.654l6.4-4v18.338H36.676a11.825,11.825,0,0,0-2.644-2.363ZM42.563,118.9l5.332-4.444,5.332,4.444v25.1H42.563Zm16.552,25.1H55.361V125.655l6.4,4V141.63A11.825,11.825,0,0,0,59.116,143.993Z" transform="translate(0 -83.208)" fill="#fff"/><path d="M75.351,59.884l-3.2,5.332a1.066,1.066,0,0,0,.914,1.615h3.449l-2.23,3.717,1.829,1.1,3.2-5.332A1.066,1.066,0,0,0,78.4,64.7H74.95l2.23-3.717Z" transform="translate(-48.633 -38.04)" fill="#fff"/><path d="M371.851,74.352l2-2a6.4,6.4,0,0,0,7.911-6.219,6.489,6.489,0,0,0-.047-.766,1.066,1.066,0,0,0-.64-.854,6.4,6.4,0,0,0-8.911,5.886c0,.193.01.393.029.6l-1.849,1.849Zm6.711-8.219a4.258,4.258,0,0,1,1.064.133,4.27,4.27,0,0,1-5.328,4A4.271,4.271,0,0,1,378.562,66.133Z" transform="translate(-307.205 -41.607)" fill="#fff"/><path d="M96,432h2.133v2.133H96Z" transform="translate(-69.433 -360.55)" fill="#fff"/><path d="M75.353,401.218l1.239,1.736a4.469,4.469,0,0,1,5.16,0l1.238-1.737A6.6,6.6,0,0,0,75.353,401.218Z" transform="translate(-51.539 -332.816)" fill="#fff"/><path d="M50.7,370.687l1.413,1.6a8.6,8.6,0,0,1,11.384,0l1.413-1.6A10.737,10.737,0,0,0,50.7,370.687Z" transform="translate(-30.172 -305.082)" fill="#fff"/><path d="M421.173,409.725a1.066,1.066,0,0,0,.047-1.038l-2.133-4.266-1.908.954,1.361,2.722H416v2.133h4.266a1.066,1.066,0,0,0,.907-.506Z" transform="translate(-346.775 -336.649)" fill="#fff"/><path d="M362.246,404.422l-2.133,4.266a1.066,1.066,0,0,0,.954,1.543h4.266V408.1h-2.54l1.361-2.722Z" transform="translate(-298.241 -336.649)" fill="#fff"/><path d="M389.111,357.81a1.066,1.066,0,0,0,1.708.277l2.133-2.133-1.508-1.508-1.087,1.087-1.471-2.942a1.066,1.066,0,0,0-1.908,0l-2.133,4.266,1.908.954,1.179-2.358Z" transform="translate(-319.773 -291.215)" fill="#fff"/></g></svg>