<svg xmlns="http://www.w3.org/2000/svg" width="67.018" height="66.997" viewBox="0 0 67.018 66.997">
  <g id="energy" transform="translate(0 510.742)">
    <path id="Path_833" data-name="Path 833" d="M29.595-510.566a32.461,32.461,0,0,0-15.171,6.228,31.973,31.973,0,0,0-8.877,10.28c-.433.787-.852,1.639-.957,1.862s-.21.433-.262.433a3.156,3.156,0,0,1-.459-.852,2.157,2.157,0,0,0-1.521-1.534,2.1,2.1,0,0,0-1.98.551c-.341.341-.367.459-.367,1.351,0,.931.052,1.088,1.246,3.908a29.743,29.743,0,0,0,1.56,3.357,1.984,1.984,0,0,0,1.77.656c.472-.066,6.228-2.426,6.805-2.793a2.16,2.16,0,0,0,.524-2.78,2.4,2.4,0,0,0-1.718-.944,4.173,4.173,0,0,0-1.154.328l-.787.315.092-.288a23.452,23.452,0,0,1,1.993-3.58,28.091,28.091,0,0,1,16.482-11.788c.944-.236,2.386-.538,3.213-.656a35.863,35.863,0,0,1,7.015-.066,28.777,28.777,0,0,1,14.03,5.756,39.367,39.367,0,0,1,4.55,4.458,28.652,28.652,0,0,1,5.14,9.756c.42,1.469.669,1.875,1.364,2.2a1.983,1.983,0,0,0,2.872-1.6c.1-1.049-1.455-5.4-2.911-8.051A32.237,32.237,0,0,0,48.07-507.485a30.9,30.9,0,0,0-8.93-2.911A45.406,45.406,0,0,0,29.595-510.566Z" fill="#16becf"/>
    <path id="Path_834" data-name="Path 834" d="M162.334-421.786c-.341.223-16.718,19.944-17.177,20.678a2.052,2.052,0,0,0,.708,2.688c.406.249.669.262,4.34.262H154.1v9.27c0,8.877.013,9.3.249,9.664a2.749,2.749,0,0,0,.616.616,2.532,2.532,0,0,0,2.177.013c.341-.223,16.718-19.944,17.177-20.678a2.052,2.052,0,0,0-.708-2.688c-.406-.249-.669-.262-4.327-.262h-3.908v-9.284c0-8.864-.013-9.284-.249-9.651a2.748,2.748,0,0,0-.616-.616A2.532,2.532,0,0,0,162.334-421.786Zm-.6,22.7c.538.76.721.8,3.737.8h2.793l-5.088,6.137-5.075,6.137-.066-7.474c-.066-8.235-.026-7.8-.879-8.353-.328-.223-.669-.249-3.147-.249h-2.793l5.088-6.137,5.074-6.137.066,7.474C161.508-400.125,161.534-399.377,161.731-399.089Z" transform="translate(-125.908 -77.084)" fill="#16becf"/>
    <path id="Path_835" data-name="Path 835" d="M74.3-203.849c-.813.3-6.163,2.583-6.4,2.74a2.146,2.146,0,0,0-.564,2.675,2.182,2.182,0,0,0,.813.761c.695.367,1.259.328,2.386-.157.406-.184.747-.288.747-.236A32.628,32.628,0,0,1,69.111-194a28.4,28.4,0,0,1-18.318,12.417,31.621,31.621,0,0,1-8.562.328,28.677,28.677,0,0,1-14.345-6.032,37.59,37.59,0,0,1-4.55-4.589,28.479,28.479,0,0,1-4.5-8.457c-.761-2.386-.957-2.754-1.665-3.095a1.97,1.97,0,0,0-2.57.682c-.433.59-.42,1.259.026,2.754a32.168,32.168,0,0,0,13.4,17.859,32.592,32.592,0,0,0,12.05,4.668,48.419,48.419,0,0,0,10.673.013,30.693,30.693,0,0,0,8.667-2.74,31.708,31.708,0,0,0,14.935-14.778l.695-1.416.446.918c.38.761.538.957,1.036,1.206a2.006,2.006,0,0,0,2.622-.669c.511-.839.393-1.416-1.062-4.878-1.324-3.147-1.587-3.606-2.242-3.947A2.5,2.5,0,0,0,74.3-203.849Z" transform="translate(-12.413 -266.58)" fill="#16becf"/>
  </g>
</svg>
