<svg xmlns="http://www.w3.org/2000/svg" width="80" height="80" viewBox="0 0 80 80"><g transform="translate(-16 -16)"><path d="M57.884,258.882a1.337,1.337,0,0,0,1.3-.821l2.048-4.943a1.333,1.333,0,0,0-.338-1.5l-3.806-3.436V245.15l3.806-3.436a1.333,1.333,0,0,0,.338-1.5l-2.048-4.944a1.332,1.332,0,0,0-1.3-.821l-5.12.262-2.143-2.143.262-5.121a1.333,1.333,0,0,0-.821-1.3L45.117,224.1a1.333,1.333,0,0,0-1.5.338l-3.436,3.806h-3.03l-3.436-3.806a1.333,1.333,0,0,0-1.5-.338l-4.943,2.049a1.333,1.333,0,0,0-.821,1.3l.262,5.12-2.143,2.142-5.12-.261a1.332,1.332,0,0,0-1.3.821L16.1,240.214a1.333,1.333,0,0,0,.338,1.5l3.806,3.436v3.03l-3.806,3.436a1.333,1.333,0,0,0-.338,1.5l2.048,4.943a1.333,1.333,0,0,0,1.3.821l5.12-.262,2.143,2.143-.261,5.12a1.333,1.333,0,0,0,.821,1.3l4.943,2.048a1.333,1.333,0,0,0,1.5-.338l3.436-3.806h3.03l3.436,3.806a1.333,1.333,0,0,0,1.5.338l4.943-2.048a1.333,1.333,0,0,0,.821-1.3l-.261-5.12,2.143-2.143ZM51.3,256.315l-2.98,2.98a1.333,1.333,0,0,0-.389,1.011l.244,4.772-3.2,1.327-3.2-3.547a1.333,1.333,0,0,0-.99-.44H36.559a1.333,1.333,0,0,0-.99.44l-3.2,3.547-3.2-1.327.244-4.772a1.333,1.333,0,0,0-.389-1.011l-2.981-2.98a1.338,1.338,0,0,0-1.011-.389l-4.772.244-1.327-3.2,3.547-3.2a1.333,1.333,0,0,0,.44-.99v-4.215a1.333,1.333,0,0,0-.44-.99l-3.547-3.2,1.327-3.2,4.772.244a1.338,1.338,0,0,0,1.011-.389l2.981-2.981a1.333,1.333,0,0,0,.389-1.011l-.244-4.772,3.2-1.327,3.2,3.547a1.333,1.333,0,0,0,.99.44h4.215a1.333,1.333,0,0,0,.99-.44l3.2-3.547,3.2,1.327-.244,4.772a1.333,1.333,0,0,0,.389,1.011l2.981,2.98a1.333,1.333,0,0,0,1.011.389l4.772-.244,1.327,3.2-3.547,3.2a1.333,1.333,0,0,0-.44.99v4.215a1.333,1.333,0,0,0,.44.99l3.547,3.2-1.327,3.2-4.772-.244a1.332,1.332,0,0,0-1.011.389Z" transform="translate(0 -173.332)" fill="#fff"/><path d="M118.667,320a6.667,6.667,0,1,0,6.667,6.667A6.667,6.667,0,0,0,118.667,320Zm0,10.667a4,4,0,1,1,4-4A4,4,0,0,1,118.667,330.667Z" transform="translate(-80 -253.333)" fill="#fff"/><path d="M188,16H129.333A1.333,1.333,0,0,0,128,17.333v32h2.667V18.667h56V88h-40v2.667H188a1.333,1.333,0,0,0,1.333-1.333v-72A1.333,1.333,0,0,0,188,16Z" transform="translate(-93.334 0)" fill="#fff"/><path d="M168,68v5.333a1.333,1.333,0,0,0,1.333,1.333H176v2.667h2.667V74.667h6.667a1.333,1.333,0,0,0,1.333-1.333V72h4v38.667h2.667v-16h4V96a1.333,1.333,0,0,0,1.333,1.333h6.667V100h-6.667a1.333,1.333,0,0,0-1.333,1.333v5.333A1.333,1.333,0,0,0,198.667,108h6.667v2.667H208V108h6.667A1.333,1.333,0,0,0,216,106.667v-5.333A1.333,1.333,0,0,0,214.667,100H208V97.333h6.667A1.333,1.333,0,0,0,216,96V90.667a1.333,1.333,0,0,0-1.333-1.333h-16a1.333,1.333,0,0,0-1.333,1.333V92h-4V72h4v1.333a1.333,1.333,0,0,0,1.333,1.333h6.667v2.667h-6.667a1.333,1.333,0,0,0-1.333,1.333V84a1.333,1.333,0,0,0,1.333,1.333h16A1.333,1.333,0,0,0,216,84V78.667a1.333,1.333,0,0,0-1.333-1.333H208V74.667h6.667A1.333,1.333,0,0,0,216,73.333V68a1.333,1.333,0,0,0-1.333-1.333h-16A1.333,1.333,0,0,0,197.333,68v1.333h-4V65.22A7.991,7.991,0,0,0,198.517,52.7l2.035-2.035h14.115V48H200a1.333,1.333,0,0,0-.943.391l-2.426,2.426a8,8,0,1,0-5.965,14.4v4.113h-4V68a1.333,1.333,0,0,0-1.333-1.333h-16A1.333,1.333,0,0,0,168,68Zm45.333,37.333H200v-2.667h13.333ZM200,92h13.333v2.667H200Zm13.333-9.333H200V80h13.333ZM200,69.333h13.333V72H200Zm-13.333-12a5.33,5.33,0,0,1,8.04-4.593l-3.65,3.65,1.886,1.886,3.65-3.65a5.332,5.332,0,1,1-9.926,2.707Zm-16,12H184V72H170.667Z" transform="translate(-126.667 -26.667)" fill="#fff"/><path d="M176,128h2.667v2.667H176Z" transform="translate(-133.334 -93.333)" fill="#fff"/><path d="M208,128h2.667v2.667H208Z" transform="translate(-160 -93.333)" fill="#fff"/><path d="M400,128h2.667v2.667H400Z" transform="translate(-320 -93.333)" fill="#fff"/><path d="M432,128h2.667v2.667H432Z" transform="translate(-346.667 -93.333)" fill="#fff"/><path d="M92,288a12,12,0,1,0,12,12A12,12,0,0,0,92,288Zm0,21.333A9.333,9.333,0,1,1,101.333,300,9.333,9.333,0,0,1,92,309.333Z" transform="translate(-53.334 -226.667)" fill="#fff"/></g></svg>