<svg xmlns="http://www.w3.org/2000/svg" width="53.624" height="47" viewBox="0 0 53.624 47">
  <g id="enterprise-blockchain-icons-02" transform="translate(-0.014 -4)">
    <path id="Path_759" data-name="Path 759" d="M4.471,49.336C3.13,47.28,1.789,45.224.359,43.167c-.536-.715-.447-1.162.268-1.609,3.4-2.414,6.794-4.827,10.191-7.152a7.732,7.732,0,0,1,8.493-.626l13.677,6.973a3.014,3.014,0,0,1,1.7,3.486A2.919,2.919,0,0,1,30.4,46.028c-2.861-1.43-5.721-2.95-8.582-4.38l-1.073-.536c-.358-.179-.8-.268-1.073.179a.714.714,0,0,0,.447,1.073c3.4,1.7,6.7,3.576,10.1,5.1a4.194,4.194,0,0,0,5.9-4.112,1.62,1.62,0,0,1,.894-1.609c3.755-2.592,7.509-5.274,11.174-7.867,2.592-1.788,4.2-1.43,5.453,1.43v1.162a3.515,3.515,0,0,1-1.7,2.324C45.414,43.436,38.8,47.995,32.273,52.643a4.6,4.6,0,0,1-4.649.447c-3.486-1.252-6.973-2.5-10.37-3.844-1.252-.536-2.592-.983-3.844-1.43a4.217,4.217,0,0,0-3.844.447c-.983.626-1.877,1.252-2.771,1.877C5.544,51.124,5.008,50.855,4.471,49.336Z" transform="translate(0 -2.515)" fill="#fff"/>
    <path id="Path_760" data-name="Path 760" d="M35.9,4A12.672,12.672,0,0,0,23.3,16.962,12.822,12.822,0,0,0,35.9,29.835,12.92,12.92,0,0,0,35.9,4ZM41,20.091a3.9,3.9,0,0,1-2.95,3.665c-.8.268-1.252.536-1.073,1.43s-.358,1.073-1.073,1.073c-.8,0-1.341-.089-1.162-1.073.089-.8-.179-1.162-.983-1.341a4.246,4.246,0,0,1-2.5-1.788c-.447-.626-.447-1.073.447-1.252s1.7-.626,2.592.179a3.012,3.012,0,0,0,2.771.179,1.275,1.275,0,0,0,.983-1.341c0-.626-.447-.983-.983-1.252a7.615,7.615,0,0,0-2.056-.358A4.476,4.476,0,0,1,30.9,15.085a4.2,4.2,0,0,1,2.861-5.274c.715-.179,1.073-.447.983-1.252-.089-1.162,0-1.162,1.252-1.162.894-.179,1.073.358.983,1.162a1,1,0,0,0,.894,1.252,4.359,4.359,0,0,1,2.592,1.967c.268.536.358.894-.358,1.073-.983.268-1.788.8-2.861-.089a2.9,2.9,0,0,0-2.95,0,1.155,1.155,0,0,0-.8,1.073,1.266,1.266,0,0,0,.8,1.252,2.89,2.89,0,0,0,1.52.268,5.634,5.634,0,0,1,2.682.626A3.979,3.979,0,0,1,41,20.091Z" transform="translate(-2.469)" fill="#fff"/>
  </g>
</svg>
