<svg xmlns="http://www.w3.org/2000/svg" width="55.84" height="42.806" viewBox="0 0 55.84 42.806">
  <g id="enterprise-blockchain-icons-03" transform="translate(-0.193 -7.076)">
    <path id="Path_761" data-name="Path 761" d="M18.605,31.082c.465,1.487.93,2.882,1.3,4.276.465,1.394.837,2.789,1.3,4.09a2.187,2.187,0,0,0,2.231,1.673,2.34,2.34,0,0,0,2.138-1.859c1.115-4.369,2.231-8.831,3.346-13.2A.8.8,0,0,1,29.2,25.5a19.039,19.039,0,0,1,.465,2.231c.279,1.394.651,2.789.93,4.183a2.1,2.1,0,0,0,2.138,1.766h8.087a2.127,2.127,0,0,0,2.231-2.138A2.055,2.055,0,0,0,40.822,29.5H34.966c-.372,0-.558-.093-.558-.465-.93-4.462-1.952-8.924-2.882-13.293A2.369,2.369,0,0,0,29.574,13.7a2.168,2.168,0,0,0-2.417,1.766c-.651,2.51-1.3,5.113-1.952,7.623-.651,2.6-1.3,5.206-2.045,7.994-.279-.93-.558-1.766-.837-2.6l-1.394-4.462a2.268,2.268,0,0,0-2.045-1.673,2.074,2.074,0,0,0-2.138,1.58c-.651,1.673-1.3,3.439-1.952,5.113-.093.372-.279.465-.651.465H6.614c-.279,0-.558,0-.651-.372-2.324-5.3-2.417-10.5.93-15.431A14.574,14.574,0,0,1,18.605,7.1a13.655,13.655,0,0,1,7.808,2.231c.837.465,1.766,1.023,2.6,1.487a2.433,2.433,0,0,0,2.51,0c.744-.372,1.394-.744,2.138-1.115a15.48,15.48,0,0,1,8.273-2.324c6.321.186,10.69,2.882,12.921,9.11,2.417,6.786,1.023,13.107-3.439,18.778a30.319,30.319,0,0,1-7.994,6.6c-3.161,1.952-6.414,3.9-9.575,5.856-1.023.651-1.952,1.3-2.882,1.952a.846.846,0,0,1-1.115,0,159.09,159.09,0,0,1-15.9-11.341,1.868,1.868,0,0,0-1.208-.372H2.523A2.079,2.079,0,0,1,.2,35.729,1.977,1.977,0,0,1,1.873,33.87a2.866,2.866,0,0,1,.93-.093H15.816a2.319,2.319,0,0,0,2.7-1.859A.708.708,0,0,1,18.605,31.082Z" transform="translate(0 0)" fill="#fff"/>
  </g>
</svg>
