<svg xmlns="http://www.w3.org/2000/svg" width="60" height="44.044" viewBox="0 0 60 44.044">
  <g id="enterprise-blockchain-icons-06" transform="translate(0 -7.956)">
    <path id="Path_774" data-name="Path 774" d="M55.6,20.9H4.4V15.7a.462.462,0,0,1,.3-.5c8.3-2.4,16.7-4.8,25-7.2.2-.1.4,0,.6,0,7.7,2.2,15.4,4.4,23.2,6.6a12.091,12.091,0,0,0,1.8.5c.2.1.3.1.3.3v5.5Z" fill="#fff"/>
    <path id="Path_775" data-name="Path 775" d="M0,52V49.9H2.3V46.7H4.4V44H55.6v2.7h2.1v3.2H60V52Z" fill="#fff"/>
    <path id="Path_776" data-name="Path 776" d="M39.8,40.7h.3c.5,0,.7.3.6.7v.3c.4.3.3.8.3,1.3H31.3c0-.4-.1-.9.3-1.2,0,0,.1-.2,0-.2-.1-.6,0-.8.6-.8h.2V26c0-.3,0-.4-.3-.6a1.952,1.952,0,0,1-.1-.7c.2,0,.3-.1.4-.1v-.1a1.666,1.666,0,0,0-.5-1.6c-.2-.2-.2-.6-.3-.9h8.9a.8.8,0,0,1-.2.9,1.774,1.774,0,0,0-.5,1.7c.1,0,.2.1.4.1-.1.2-.1.4-.2.6a.758.758,0,0,0-.2.4v15Z" fill="#fff"/>
    <path id="Path_777" data-name="Path 777" d="M27.7,40.7h.2c.5,0,.7.2.6.7v.3c.4.3.2.8.3,1.2H19.1c0-.4-.1-.9.3-1.2a.349.349,0,0,0,.1-.2c-.1-.7,0-.8.7-.8h.1V25.9a.735.735,0,0,0-.2-.6c-.1-.1-.1-.3-.2-.5a.756.756,0,0,1,.4-.1c-.1-.4.2-.9-.2-1.3-.3-.4-.7-.7-.5-1.3h8.8a1.163,1.163,0,0,1-.2,1c-.6.7-.5.7-.5,1.6.1.1.4.2.3.3a.764.764,0,0,1-.2.5c0,.1-.2.2-.2.3V40.7C27.7,40.6,27.7,40.6,27.7,40.7Z" fill="#fff"/>
    <path id="Path_778" data-name="Path 778" d="M51.9,40.7h.3c.4,0,.6.2.5.7,0,.1-.1.3,0,.3.4.4.3.8.3,1.3H43.3c0-.4-.1-.9.3-1.2.1,0,.1-.2.1-.2-.1-.6,0-.8.6-.8h.2V26c0-.3,0-.4-.3-.6-.1-.1-.1-.3-.2-.6.2,0,.3-.1.4-.1v-.1a1.666,1.666,0,0,0-.5-1.6.919.919,0,0,1-.2-1h8.8a.919.919,0,0,1-.2,1,1.555,1.555,0,0,0-.4,1.6c.1,0,.2.1.3.1a.618.618,0,0,1-.2.7.749.749,0,0,0-.1.5V38Q51.9,39.2,51.9,40.7Z" fill="#fff"/>
    <path id="Path_779" data-name="Path 779" d="M7,42.9c0-.5-.1-.9.3-1.2a.349.349,0,0,0,.1-.2c-.1-.7-.1-.8.7-.8h.2V25.9a.735.735,0,0,0-.2-.6c-.1-.1-.1-.4-.2-.6.2,0,.3-.1.4-.1A1.555,1.555,0,0,0,7.9,23a.919.919,0,0,1-.2-1h8.8c.1.4.1.7-.2.9a1.706,1.706,0,0,0-.5,1.7c.1,0,.2.1.3.1,0,.3.1.5-.2.7-.1,0-.1.2-.1.3v15h.3c.5,0,.6.2.5.7v.3c.4.4.3.8.3,1.2Z" fill="#fff"/>
  </g>
</svg>
