<svg xmlns="http://www.w3.org/2000/svg" width="44.21" height="51.687" viewBox="0 0 44.21 51.687">
  <g id="enterprise-blockchain-icons-04" transform="translate(-6 -2)">
    <path id="Path_762" data-name="Path 762" d="M36.467,39.067H21.053a.09.09,0,0,0-.092-.092c.185-.923-.369-1.384-1.108-1.846a14.355,14.355,0,0,1-6.276-9.783c-1.569-8.122,3.969-14.214,9.876-16.429A15.275,15.275,0,0,1,43.482,20.7c1.754,5.907-.646,13.568-6.645,16.89a.7.7,0,0,0-.369.646Q36.467,38.652,36.467,39.067ZM29.822,21.992h.092c.554.831,1.108,1.569,1.569,2.4A13.894,13.894,0,0,1,32.5,26.422a4.077,4.077,0,0,1-.646,4.523c-.277.369-.554.646-.831,1.015a1.079,1.079,0,0,0,1.569,1.477c2.307-2.215,3.323-4.8,2.031-7.845A26.018,26.018,0,0,0,32.5,21.808a22.026,22.026,0,0,1-2.769-5.261,1.062,1.062,0,0,0-1.846-.369c-1.108,1.2-2.307,2.307-3.323,3.6a10.607,10.607,0,0,0-2.123,8.584,15.8,15.8,0,0,0,2.677,6.276,1.209,1.209,0,0,0,1.569.461,1.166,1.166,0,0,0,.277-1.661c-.277-.461-.646-.923-.923-1.477a11.744,11.744,0,0,1-1.661-5.538,9.613,9.613,0,0,1,2.4-6,5.971,5.971,0,0,1,.738-.831v16.89a1.266,1.266,0,0,0,.554,1.2c.831.461,1.661-.185,1.661-1.2V26.238C29.822,24.946,29.822,23.469,29.822,21.992Z" transform="translate(-0.563 -0.61)" fill="#fff"/>
    <path id="Path_763" data-name="Path 763" d="M21.592,43.9H37.006v7.384c0,1.108-.369,1.477-1.384,1.477H22.792c-.831,0-1.292-.369-1.292-1.2V44.269C21.592,44.177,21.592,44.085,21.592,43.9Z" transform="translate(-1.194 -3.228)" fill="#fff"/>
    <path id="Path_764" data-name="Path 764" d="M25.8,55.9h7.291A4.4,4.4,0,0,1,25.8,55.9Z" transform="translate(-1.525 -4.152)" fill="#fff"/>
    <path id="Path_765" data-name="Path 765" d="M31.015,4.215V5.323a1.108,1.108,0,0,1-2.215,0V3.108a1.108,1.108,0,0,1,2.215,0Z" transform="translate(-1.756)" fill="#fff"/>
    <path id="Path_766" data-name="Path 766" d="M8.215,26.915H7.108A1.018,1.018,0,0,1,6,25.808,1.18,1.18,0,0,1,7.015,24.7H9.323a1.066,1.066,0,0,1,1.108,1.108,1,1,0,0,1-1.015,1.108A5.2,5.2,0,0,1,8.215,26.915Z" transform="translate(0 -1.749)" fill="#fff"/>
    <path id="Path_767" data-name="Path 767" d="M51.415,26.915h-1.2a1.112,1.112,0,0,1,0-2.215h2.307a1.112,1.112,0,0,1,0,2.215,4.448,4.448,0,0,1-1.108,0Z" transform="translate(-3.328 -1.749)" fill="#fff"/>
    <path id="Path_768" data-name="Path 768" d="M13.99,8.7a2.313,2.313,0,0,1,.646.369,11.163,11.163,0,0,1,1.477,1.477,1.268,1.268,0,0,1,.092,1.661,1.1,1.1,0,0,1-1.661-.092c-.554-.461-1.015-1.015-1.569-1.569a.98.98,0,0,1-.185-1.2C12.974,8.885,13.344,8.7,13.99,8.7Z" transform="translate(-0.514 -0.516)" fill="#fff"/>
    <path id="Path_769" data-name="Path 769" d="M44.5,12.386a1.045,1.045,0,0,1-1.108-.646,1.135,1.135,0,0,1,.092-1.2,15.731,15.731,0,0,1,1.754-1.754,1.27,1.27,0,0,1,1.477.185,1.121,1.121,0,0,1,.092,1.477A15.731,15.731,0,0,1,45.051,12.2,1.913,1.913,0,0,1,44.5,12.386Z" transform="translate(-2.87 -0.51)" fill="#fff"/>
    <path id="Path_770" data-name="Path 770" d="M16.478,40.3a5.152,5.152,0,0,1-.461.738c-.461.554-1.015,1.015-1.477,1.477a1.148,1.148,0,0,1-1.569.092,1.062,1.062,0,0,1,0-1.569c.461-.554,1.015-1.015,1.569-1.569a.887.887,0,0,1,1.2-.185A1,1,0,0,1,16.478,40.3Z" transform="translate(-0.51 -2.86)" fill="#fff"/>
    <path id="Path_771" data-name="Path 771" d="M43.1,40.117a6.713,6.713,0,0,1,.738-.831.84.84,0,0,1,1.108.092c.646.554,1.2,1.2,1.754,1.754A1.118,1.118,0,0,1,45.131,42.7c-.554-.554-1.2-1.108-1.754-1.754A8.5,8.5,0,0,0,43.1,40.117Z" transform="translate(-2.858 -2.859)" fill="#fff"/>
  </g>
</svg>
