<svg xmlns="http://www.w3.org/2000/svg" width="65.444" height="41.503" viewBox="0 0 65.444 41.503">
  <g id="enterprise-blockchain-icons-05" transform="translate(0 -10.985)">
    <path id="Path_772" data-name="Path 772" d="M0,24.636C1.309,24.09,2.618,23.545,3.818,23c9.489-3.927,18.87-7.962,28.359-11.889.436-.109.654-.218,1.091,0,10.58,4.472,21.051,9.053,31.631,13.525.109.109.327.109.545.327-1.309.545-2.4.982-3.6,1.527-4.145,1.745-8.4,3.49-12.543,5.236-5.345,2.291-10.8,4.472-16.143,6.763a1.182,1.182,0,0,1-1.2,0c-3.163-1.309-6.326-2.618-9.38-4.036-2.727-1.2-5.563-2.4-8.29-3.6-.436-.218-.218-.327,0-.545A9.892,9.892,0,0,1,19.415,27.8a30.681,30.681,0,0,1,8.944-.109c1.091.109,2.181.218,3.163.327a1.145,1.145,0,0,0,1.2-1.636A1.814,1.814,0,0,0,31.2,25.29a40.363,40.363,0,0,0-9.6,0,13.71,13.71,0,0,0-7.853,3.818,17.69,17.69,0,0,0-3.709,4.8c-.218.109-.327.327-.218.764A1.32,1.32,0,0,1,9.6,36.2a.868.868,0,0,0-.218.982c.327,2.291.654,4.472.982,6.763.109.545,0,.654-.545.654H6.872c-.545,0-.545-.109-.545-.654.327-2.291.764-4.581,1.091-6.872A.906.906,0,0,0,7.2,36.2a1.47,1.47,0,0,1,.545-2.4.983.983,0,0,0,.654-.654,20.385,20.385,0,0,1,1.854-3.381c.218-.327.109-.436-.218-.545-2.836-1.2-5.672-2.509-8.617-3.6A11.065,11.065,0,0,1,0,24.636Z" fill="#fff"/>
    <path id="Path_773" data-name="Path 773" d="M48.44,37.637v4.472a1.063,1.063,0,0,1-.436.982A25.108,25.108,0,0,1,33.715,50.4a20.849,20.849,0,0,1-12.98-2.727,29.609,29.609,0,0,1-6-4.472,1.184,1.184,0,0,1-.436-.982V32.947c0-.654.109-.654.654-.436C17.572,33.6,20.19,34.8,22.7,35.892c2.618,1.091,5.126,2.181,7.744,3.272a1.863,1.863,0,0,0,1.527,0c5.236-2.181,10.58-4.472,15.816-6.654.545-.218.654-.218.654.436Z" transform="translate(1.298 1.941)" fill="#fff"/>
  </g>
</svg>
