<svg xmlns="http://www.w3.org/2000/svg" width="53.23" height="37.317" viewBox="0 0 53.23 37.317">
  <g id="enterprise-blockchain-icons-01" transform="translate(-0.034 -8.993)">
    <path id="Path_752" data-name="Path 752" d="M29.01,37.771a6.62,6.62,0,0,1-3.644,5.865c-2.044,1.066-4.177,2.133-6.221,3.2-1.155.622-2.4,1.244-3.555,1.777A6.073,6.073,0,0,1,8.57,47.369a12.717,12.717,0,0,1-.978-1.333c-.089-.089-.089-.178.089-.267,1.333-.622,2.577-1.244,3.91-1.866a.391.391,0,0,1,.444.089,1.738,1.738,0,0,0,2.044.089c3.022-1.511,6.043-3.11,8.976-4.621a1.785,1.785,0,0,0,1.066-1.866.411.411,0,0,1,.267-.444c1.244-.622,2.577-1.333,3.821-1.955.178-.089.267-.089.267.178.089.444.355.978.444,1.422A1.847,1.847,0,0,1,29.01,37.771Z" transform="translate(-0.835 -2.91)" fill="#fff"/>
    <path id="Path_753" data-name="Path 753" d="M29.2,20.463a6.42,6.42,0,0,1,3.466-5.777C36.043,12.91,39.42,11.132,42.8,9.532a5.8,5.8,0,0,1,7.376,2.222c.444.8.444.8-.267,1.155-.978.533-2.044.978-3.022,1.511a.981.981,0,0,1-.711,0,2.15,2.15,0,0,0-2.4-.089c-2.488,1.333-5.066,2.666-7.554,4-.444.178-.8.444-1.244.622a1.743,1.743,0,0,0-1.066,1.689.6.6,0,0,1-.355.622c-1.155.622-2.4,1.155-3.555,1.777-.178.089-.178,0-.267-.089A5.677,5.677,0,0,1,29.2,20.463Z" transform="translate(-3.246)" fill="#fff"/>
    <path id="Path_754" data-name="Path 754" d="M55.433,24.293A6.768,6.768,0,0,1,51.7,30.336c-3.2,1.689-6.4,3.2-9.687,4.8a6.172,6.172,0,0,1-7.2-1.511,3.192,3.192,0,0,1-.622-.889c-.089-.089-.089-.178.089-.267,1.244-.711,2.4-1.422,3.644-2.133a.588.588,0,0,1,.533.089,1.877,1.877,0,0,0,2.133.089c3.022-1.511,5.954-3.022,8.976-4.621A1.743,1.743,0,0,0,50.634,24.2a.6.6,0,0,1,.355-.622c1.155-.533,2.311-1.155,3.555-1.689.267-.089.267-.089.444.178A7.044,7.044,0,0,1,55.433,24.293Z" transform="translate(-3.795 -1.43)" fill="#fff"/>
    <path id="Path_755" data-name="Path 755" d="M17.683,22.5a5.815,5.815,0,0,1,4.8,2.4c.178.267.355.622.533.889.089.178,0,.178-.089.267-1.244.622-2.488,1.244-3.644,1.777a.588.588,0,0,1-.533-.089,2.78,2.78,0,0,0-.889-.444,2.534,2.534,0,0,0-1.422.178c-3.022,1.6-5.954,3.11-8.976,4.71a1.559,1.559,0,0,0-.978,1.689c0,.355-.089.533-.355.622-1.155.533-2.4,1.155-3.555,1.689-.178.089-.267,0-.355-.178a3.184,3.184,0,0,1-.622-2.4,7.255,7.255,0,0,1,1.511-3.821,7.934,7.934,0,0,1,2.577-1.955c2.488-1.244,5.066-2.577,7.554-3.91a17.094,17.094,0,0,1,2.933-1.244A7.826,7.826,0,0,1,17.683,22.5Z" transform="translate(-0.172 -1.503)" fill="#fff"/>
    <path id="Path_756" data-name="Path 756" d="M38.965,25.209a2.27,2.27,0,0,1-1.333,2.222c-2.844,1.422-5.688,2.933-8.443,4.355-2.4,1.244-4.8,2.488-7.2,3.644a2.131,2.131,0,0,1-2.577-.355,2.556,2.556,0,0,1-.444-2.844,2.582,2.582,0,0,1,.978-.978c1.866-.978,3.821-1.955,5.688-2.933,3.288-1.689,6.576-3.377,9.776-5.066a2.3,2.3,0,0,1,2.488,0A2.338,2.338,0,0,1,38.965,25.209Z" transform="translate(-2.081 -1.546)" fill="#fff"/>
    <path id="Path_757" data-name="Path 757" d="M45.2,20.2a2.3,2.3,0,0,1,1.422-2.222c2.577-1.333,5.154-2.577,7.643-3.91.622-.355,1.244-.622,1.866-.978.178-.089.267-.089.355.178.533,1.244,1.155,2.488,1.689,3.733.178.355.178.355-.178.533-1.155.533-2.222,1.155-3.377,1.689-1.955.978-4,2.044-5.954,3.022a2.282,2.282,0,0,1-2.755-.267A2.337,2.337,0,0,1,45.2,20.2Z" transform="translate(-5.027 -0.45)" fill="#fff"/>
    <path id="Path_758" data-name="Path 758" d="M13.068,39.1a2.375,2.375,0,0,1-1.333,2.133c-2.4,1.244-4.8,2.4-7.11,3.644-.8.444-1.6.8-2.4,1.244-.178.089-.267.089-.444-.178C1.248,44.7.626,43.367.093,42.122,0,41.856,0,41.856.182,41.767c3.11-1.6,6.221-3.2,9.331-4.71a2.41,2.41,0,0,1,2.755.178A2.3,2.3,0,0,1,13.068,39.1Z" transform="translate(0 -3.085)" fill="#fff"/>
  </g>
</svg>
