<svg xmlns="http://www.w3.org/2000/svg" width="64" height="64" viewBox="0 0 64 64"><g transform="translate(-16 -16)"><path d="M49.507,251.905a1.069,1.069,0,0,0,1.04-.657l1.638-3.955a1.067,1.067,0,0,0-.271-1.2l-3.045-2.749V240.92l3.045-2.749a1.067,1.067,0,0,0,.271-1.2l-1.638-3.955a1.066,1.066,0,0,0-1.04-.657l-4.1.209L43.7,230.854l.209-4.1a1.067,1.067,0,0,0-.657-1.04l-3.955-1.638a1.067,1.067,0,0,0-1.2.271l-2.749,3.045H32.921l-2.749-3.045a1.067,1.067,0,0,0-1.2-.271l-3.955,1.639a1.067,1.067,0,0,0-.657,1.04l.209,4.1-1.714,1.713-4.1-.209a1.065,1.065,0,0,0-1.04.657l-1.638,3.955a1.067,1.067,0,0,0,.271,1.2L19.4,240.92v2.424l-3.045,2.749a1.067,1.067,0,0,0-.271,1.2l1.639,3.955a1.067,1.067,0,0,0,1.04.657l4.1-.209,1.714,1.714-.209,4.1a1.067,1.067,0,0,0,.657,1.04l3.955,1.638a1.067,1.067,0,0,0,1.2-.271l2.749-3.044h2.424l2.749,3.044a1.067,1.067,0,0,0,1.2.271l3.955-1.638a1.067,1.067,0,0,0,.657-1.04l-.209-4.1,1.714-1.714Zm-5.27-2.053-2.384,2.384a1.067,1.067,0,0,0-.311.809l.2,3.818-2.564,1.062-2.562-2.838a1.067,1.067,0,0,0-.792-.352H32.447a1.067,1.067,0,0,0-.792.352l-2.562,2.838-2.564-1.062.2-3.818a1.067,1.067,0,0,0-.311-.809l-2.385-2.384a1.07,1.07,0,0,0-.809-.311l-3.818.2-1.062-2.564,2.838-2.562a1.067,1.067,0,0,0,.352-.792v-3.372a1.067,1.067,0,0,0-.352-.792l-2.838-2.562,1.062-2.564,3.818.2a1.07,1.07,0,0,0,.809-.311l2.384-2.385a1.067,1.067,0,0,0,.311-.809l-.2-3.818,2.564-1.062,2.562,2.838a1.067,1.067,0,0,0,.792.352h3.372a1.067,1.067,0,0,0,.792-.352l2.562-2.838,2.564,1.062-.2,3.818a1.067,1.067,0,0,0,.311.809l2.385,2.384a1.066,1.066,0,0,0,.809.311l3.818-.2,1.062,2.564-2.838,2.562a1.067,1.067,0,0,0-.352.792v3.372a1.067,1.067,0,0,0,.352.792l2.838,2.562-1.062,2.564-3.818-.2a1.066,1.066,0,0,0-.809.311Z" transform="translate(0 -180.265)" fill="#fff"/><path d="M117.333,320a5.333,5.333,0,1,0,5.333,5.333A5.333,5.333,0,0,0,117.333,320Zm0,8.533a3.2,3.2,0,1,1,3.2-3.2A3.2,3.2,0,0,1,117.333,328.533Z" transform="translate(-83.2 -263.467)" fill="#fff"/><path d="M176,16H129.067A1.067,1.067,0,0,0,128,17.067v25.6h2.133V18.133h44.8V73.6h-32v2.133H176a1.067,1.067,0,0,0,1.067-1.067v-57.6A1.067,1.067,0,0,0,176,16Z" transform="translate(-97.067)" fill="#fff"/><path d="M168,64v4.267a1.067,1.067,0,0,0,1.067,1.067H174.4v2.133h2.133V69.333h5.333a1.067,1.067,0,0,0,1.067-1.067V67.2h3.2V98.133h2.133v-12.8h3.2V86.4a1.067,1.067,0,0,0,1.067,1.067h5.333V89.6h-5.333a1.067,1.067,0,0,0-1.067,1.067v4.267A1.067,1.067,0,0,0,192.533,96h5.333v2.133H200V96h5.333a1.067,1.067,0,0,0,1.067-1.067V90.667a1.067,1.067,0,0,0-1.067-1.067H200V87.467h5.333A1.067,1.067,0,0,0,206.4,86.4V82.133a1.067,1.067,0,0,0-1.067-1.067h-12.8a1.067,1.067,0,0,0-1.067,1.067V83.2h-3.2v-16h3.2v1.067a1.067,1.067,0,0,0,1.067,1.067h5.333v2.133h-5.333a1.067,1.067,0,0,0-1.067,1.067V76.8a1.067,1.067,0,0,0,1.067,1.067h12.8A1.067,1.067,0,0,0,206.4,76.8V72.533a1.067,1.067,0,0,0-1.067-1.067H200V69.333h5.333a1.067,1.067,0,0,0,1.067-1.067V64a1.067,1.067,0,0,0-1.067-1.067h-12.8A1.067,1.067,0,0,0,191.467,64v1.067h-3.2V61.776a6.393,6.393,0,0,0,4.147-10.015l1.628-1.628h11.292V48H193.6a1.067,1.067,0,0,0-.754.312L190.9,50.253a6.4,6.4,0,1,0-4.772,11.523v3.291h-3.2V64a1.067,1.067,0,0,0-1.067-1.067h-12.8A1.067,1.067,0,0,0,168,64Zm36.267,29.867H193.6V91.733h10.667ZM193.6,83.2h10.667v2.133H193.6Zm10.667-7.467H193.6V73.6h10.667ZM193.6,65.067h10.667V67.2H193.6Zm-10.667-9.6a4.264,4.264,0,0,1,6.432-3.674l-2.92,2.92,1.509,1.509,2.92-2.92a4.266,4.266,0,1,1-7.941,2.166Zm-12.8,9.6H180.8V67.2H170.133Z" transform="translate(-131.734 -27.733)" fill="#fff"/><path d="M176,128h2.133v2.133H176Z" transform="translate(-138.667 -97.067)" fill="#fff"/><path d="M208,128h2.133v2.133H208Z" transform="translate(-166.4 -97.067)" fill="#fff"/><path d="M400,128h2.133v2.133H400Z" transform="translate(-332.801 -97.067)" fill="#fff"/><path d="M432,128h2.133v2.133H432Z" transform="translate(-360.534 -97.067)" fill="#fff"/><path d="M89.6,288a9.6,9.6,0,1,0,9.6,9.6A9.6,9.6,0,0,0,89.6,288Zm0,17.067a7.467,7.467,0,1,1,7.467-7.467A7.467,7.467,0,0,1,89.6,305.067Z" transform="translate(-55.467 -235.733)" fill="#fff"/></g></svg>