<svg xmlns="http://www.w3.org/2000/svg" width="54.674" height="54.674" viewBox="0 0 54.674 54.674">
  <g id="filecoin" transform="translate(-0.25 -0.25)">
    <path id="Path_1007" data-name="Path 1007" d="M27.587.25A27.337,27.337,0,1,0,54.924,27.587,27.337,27.337,0,0,0,27.587.25Zm8.445,9.918a5.017,5.017,0,0,1,1.865.095,6.423,6.423,0,0,1,1.921.831,4.407,4.407,0,0,1,1.391,1.251,1.462,1.462,0,0,1,.228,1.232,1.587,1.587,0,0,1-.52.756.969.969,0,0,1-.657.271,2.118,2.118,0,0,1-1.52-.413,2.88,2.88,0,0,1-.924-1.232,2.029,2.029,0,0,0-.626-.884,1.085,1.085,0,0,0-.793-.191,2,2,0,0,0-1.068.5l-.4.445a6.66,6.66,0,0,0-.827,1.085,13.322,13.322,0,0,0-1.217,3.069c-.419,1.433-.867,3.34-1.387,5.912l6.9,1.011-.38,2.762-7-1.025-.3,1.818-.078.454c-.041.236-.085.492-.136.766l7.065,1.036-.4,2.759-7.231-1.06c-.418,1.775-.9,3.614-1.378,5.2a24.438,24.438,0,0,1-1.335,3.661,9.133,9.133,0,0,1-1.036,1.7,13.482,13.482,0,0,1-1.807,2.025,8.218,8.218,0,0,1-1.71,1.193,5.636,5.636,0,0,1-1.8.581A5.017,5.017,0,0,1,19,45.674a6.419,6.419,0,0,1-1.921-.831,4.4,4.4,0,0,1-1.391-1.253,1.461,1.461,0,0,1-.226-1.232,1.585,1.585,0,0,1,.52-.756.964.964,0,0,1,.655-.269,2.125,2.125,0,0,1,1.52.411,2.884,2.884,0,0,1,.924,1.234,2.031,2.031,0,0,0,.628.883,1.085,1.085,0,0,0,.793.193,2.012,2.012,0,0,0,1.068-.5,8.084,8.084,0,0,0,1.112-1.637,17.747,17.747,0,0,0,1.052-2.495,69.511,69.511,0,0,0,2.166-8.6l-6.9-1.012.38-2.762,7,1.025.3-1.816q.1-.612.214-1.221l-7.04-1.031.4-2.759L27.47,22.3c.318-1.335.667-2.6,1.039-3.734a20.179,20.179,0,0,1,1.174-2.9,9.089,9.089,0,0,1,1.035-1.7,13.452,13.452,0,0,1,1.808-2.027,8.205,8.205,0,0,1,1.71-1.193,5.631,5.631,0,0,1,1.8-.581Z" fill="#c6c6c6"/>
    <path id="Path_1008" data-name="Path 1008" d="M31.026,24.62a31.259,31.259,0,0,1,2.214-6.638,12.954,12.954,0,0,1,2.843-3.725c2.216-1.973,4.7-2.474,7.291-.849l-.227.361.227-.361c1.321.829,1.85,1.681,1.618,2.484-.171.6-.825,1.076-1.175,1.027a2.119,2.119,0,0,1-1.521-.413,2.879,2.879,0,0,1-.924-1.232c-.362-.854-.837-1.145-1.42-1.076a2,2,0,0,0-1.068.5l-.4.444a6.654,6.654,0,0,0-.827,1.085c-.813,1.355-1.563,3.837-2.6,8.982l6.9,1.01-.379,2.763-7-1.025-.3,1.818-.077.454c-.041.236-.085.492-.137.765l7.067,1.035-.4,2.759-7.232-1.059a51.3,51.3,0,0,1-2.713,8.857A12.986,12.986,0,0,1,27.93,46.31c-2.216,1.972-4.7,2.474-7.29.849-1.321-.829-1.85-1.683-1.618-2.486.171-.6.825-1.075,1.176-1.025a2.126,2.126,0,0,1,1.521.412,2.883,2.883,0,0,1,.924,1.234c.362.853.837,1.145,1.42,1.076a2.012,2.012,0,0,0,1.068-.5c1.55-1.726,2.778-5.051,4.331-12.729l-6.9-1.012.379-2.763,7,1.025.3-1.816q.1-.612.214-1.222l-7.039-1.03.4-2.759Z" transform="translate(-3.557 -2.316)" fill="none"/>
  </g>
</svg>
