<svg xmlns="http://www.w3.org/2000/svg" xmlns:xlink="http://www.w3.org/1999/xlink" width="211.25" height="160.275" viewBox="0 0 211.25 160.275">
  <defs>
    <linearGradient id="linear-gradient" x1="0.499" y1="0.022" x2="0.499" y2="1.002" gradientUnits="objectBoundingBox">
      <stop offset="0" stop-color="#e9f2ff"/>
      <stop offset="1" stop-color="#daeaff"/>
    </linearGradient>
    <linearGradient id="linear-gradient-2" x1="0.496" y1="0.002" x2="0.496" y2="1.002" gradientUnits="objectBoundingBox">
      <stop offset="0" stop-color="#daeaff"/>
      <stop offset="1" stop-color="#66a5ff"/>
    </linearGradient>
    <linearGradient id="linear-gradient-3" x1="0.498" y1="0.002" x2="0.498" y2="1.002" gradientUnits="objectBoundingBox">
      <stop offset="0" stop-color="#66a5ff"/>
      <stop offset="1" stop-color="#0069ff"/>
    </linearGradient>
    <linearGradient id="linear-gradient-4" x1="0.503" y1="1.003" x2="0.503" y2="0.003" gradientUnits="objectBoundingBox">
      <stop offset="0" stop-color="#120078"/>
      <stop offset="1" stop-color="#0069ff"/>
    </linearGradient>
    <linearGradient id="linear-gradient-5" x1="0.503" y1="0.964" x2="0.503" y2="0.074" gradientUnits="objectBoundingBox">
      <stop offset="0" stop-color="#120078" stop-opacity="0.09"/>
      <stop offset="0" stop-color="#120078" stop-opacity="0.086"/>
      <stop offset="1" stop-color="#120078" stop-opacity="0"/>
    </linearGradient>
    <linearGradient id="linear-gradient-6" x1="1.004" y1="0.995" x2="0.004" y2="0.005" gradientUnits="objectBoundingBox">
      <stop offset="0" stop-color="#e6f1ff"/>
      <stop offset="1" stop-color="#fff"/>
    </linearGradient>
    <linearGradient id="linear-gradient-9" x1="-0.131" y1="0.311" x2="0.87" y2="0.731" gradientUnits="objectBoundingBox">
      <stop offset="0" stop-color="#8bbbff" stop-opacity="0.2"/>
      <stop offset="1" stop-color="#0260f5" stop-opacity="0.2"/>
    </linearGradient>
    <linearGradient id="linear-gradient-10" x1="-0.131" y1="0.311" x2="0.87" y2="0.731" gradientUnits="objectBoundingBox">
      <stop offset="0" stop-color="#8bbbff" stop-opacity="0.502"/>
      <stop offset="1" stop-color="#0260f5" stop-opacity="0.502"/>
    </linearGradient>
    <linearGradient id="linear-gradient-11" x1="-0.131" y1="0.311" x2="0.87" y2="0.731" gradientUnits="objectBoundingBox">
      <stop offset="0" stop-color="#8bbbff"/>
      <stop offset="1" stop-color="#0260f5"/>
    </linearGradient>
    <linearGradient id="linear-gradient-12" x1="-0.131" y1="0.328" x2="0.869" y2="0.748" xlink:href="#linear-gradient-9"/>
    <linearGradient id="linear-gradient-13" x1="-0.131" y1="0.328" x2="0.869" y2="0.748" xlink:href="#linear-gradient-10"/>
    <linearGradient id="linear-gradient-14" x1="-0.131" y1="0.328" x2="0.87" y2="0.748" xlink:href="#linear-gradient-11"/>
    <linearGradient id="linear-gradient-15" x1="-0.131" y1="0.246" x2="0.869" y2="0.666" xlink:href="#linear-gradient-9"/>
    <linearGradient id="linear-gradient-16" x1="-0.131" y1="0.246" x2="0.869" y2="0.666" xlink:href="#linear-gradient-10"/>
    <linearGradient id="linear-gradient-17" x1="-0.131" y1="0.246" x2="0.869" y2="0.666" xlink:href="#linear-gradient-11"/>
  </defs>
  <g id="Page-1" transform="translate(6.625)">
    <g id="首页1月7日浅-" transform="translate(-580 -1763)">
      <g id="交易高效-copy" transform="translate(574 1763)">
        <path id="Path" d="M183.426,34.822c-64.5-23.594-135.8,9.851-159.287,74.648" fill="none" stroke="#246bf6" stroke-linecap="round" stroke-linejoin="round" stroke-width="0.907" fill-rule="evenodd" opacity="0.2"/>
        <path id="Path-2" data-name="Path" d="M210,113.409C165.4,41.673,71.377,19.856,0,64.684" fill="none" stroke="#246bf6" stroke-linecap="round" stroke-linejoin="round" stroke-width="0.907" stroke-dasharray="0.454" fill-rule="evenodd" opacity="0.4"/>
        <ellipse id="Oval" cx="76.199" cy="34.644" rx="76.199" ry="34.644" transform="translate(27.735 90.534)" stroke="rgba(0,105,255,0.2)" stroke-width="0.907" fill="url(#linear-gradient)"/>
        <ellipse id="Oval-2" data-name="Oval" cx="54.428" cy="23.704" rx="54.428" ry="23.704" transform="translate(49.506 105.121)" stroke="rgba(0,105,255,0.5)" stroke-width="0.907" fill="url(#linear-gradient-2)"/>
        <ellipse id="Oval-3" data-name="Oval" cx="32.657" cy="10.94" rx="32.657" ry="10.94" transform="translate(71.277 123.355)" stroke="#0069ff" stroke-width="0.907" fill="url(#linear-gradient-3)"/>
        <ellipse id="Oval-4" data-name="Oval" cx="25.4" cy="5.47" rx="25.4" ry="5.47" transform="translate(78.534 134.295)" fill="url(#linear-gradient-4)"/>
        <path id="Path-3" data-name="Path" d="M78.535,53.333h50.8v86.61h-50.8Z" stroke="#120078" stroke-width="1" fill-rule="evenodd" fill="url(#linear-gradient-5)"/>
        <ellipse id="Oval-5" data-name="Oval" cx="3.629" cy="3.647" rx="3.629" ry="3.647" transform="translate(154.733 123.355)" fill="url(#linear-gradient-6)"/>
        <ellipse id="Oval-6" data-name="Oval" cx="3.629" cy="3.647" rx="3.629" ry="3.647" transform="translate(85.792 86.888)" fill="url(#linear-gradient-6)"/>
        <ellipse id="Oval-7" data-name="Oval" cx="3.629" cy="3.647" rx="3.629" ry="3.647" transform="translate(42.249 143.868)" fill="url(#linear-gradient-6)"/>
        <ellipse id="Oval-8" data-name="Oval" cx="1.814" cy="1.823" rx="1.814" ry="1.823" transform="translate(156.548 125.179)" fill="#120078"/>
        <ellipse id="Oval-9" data-name="Oval" cx="1.814" cy="1.823" rx="1.814" ry="1.823" transform="translate(87.606 88.711)" fill="#120078"/>
        <ellipse id="Oval-10" data-name="Oval" cx="1.814" cy="1.823" rx="1.814" ry="1.823" transform="translate(44.064 145.692)" fill="#120078"/>
        <path id="Path-4" data-name="Path" d="M133.869,93.219v-20.8" fill="none" stroke="#120078" stroke-linecap="round" stroke-linejoin="round" stroke-width="1.361" fill-rule="evenodd" opacity="0.44"/>
        <path id="Shape" d="M117.087,139.993V115.606m-16.781,19.829V96.1" fill="none" stroke="#707070" stroke-linecap="round" stroke-linejoin="round" stroke-width="1.361" fill-rule="evenodd" opacity="0.5"/>
        <path id="Shape-2" data-name="Shape" d="M158.23,121.55l.531-41.026M45.878,142.678l.376-29.174m43.2-28.3.381-29.174" fill="none" stroke="#120078" stroke-linecap="round" stroke-linejoin="round" stroke-width="1.361" stroke-dasharray="0.454" fill-rule="evenodd"/>
        <ellipse id="Oval-11" data-name="Oval" cx="3.629" cy="3.647" rx="3.629" ry="3.647" transform="translate(39.074 30.085)" fill="rgba(0,105,255,0.1)"/>
        <ellipse id="Oval-12" data-name="Oval" cx="1.814" cy="1.823" rx="1.814" ry="1.823" transform="translate(46.332 18.234)" fill="rgba(0,105,255,0.15)"/>
        <ellipse id="Oval-13" data-name="Oval" cx="1.814" cy="1.823" rx="1.814" ry="1.823" transform="translate(35.446 0)" fill="rgba(0,105,255,0.25)"/>
        <ellipse id="Oval-14" data-name="Oval" cx="1.814" cy="1.823" rx="1.814" ry="1.823" transform="translate(178.319 96.182)" fill="rgba(0,105,255,0.25)"/>
        <ellipse id="Oval-15" data-name="Oval" cx="3.629" cy="3.647" rx="3.629" ry="3.647" transform="translate(171.061 80.684)" fill="rgba(0,105,255,0.1)"/>
        <ellipse id="Oval-16" data-name="Oval" cx="1.814" cy="1.823" rx="1.814" ry="1.823" transform="translate(106.656 73.39)" fill="rgba(0,105,255,0.1)"/>
        <ellipse id="Oval-17" data-name="Oval" cx="1.814" cy="1.823" rx="1.814" ry="1.823" transform="translate(106.656 114.416)" fill="rgba(0,105,255,0.2)"/>
        <ellipse id="Oval-18" data-name="Oval" cx="1.814" cy="1.823" rx="1.814" ry="1.823" transform="translate(115.727 94.359)" fill="rgba(0,105,255,0.2)"/>
        <ellipse id="Oval-19" data-name="Oval" cx="1.814" cy="1.823" rx="1.814" ry="1.823" transform="translate(92.141 98.006)" fill="rgba(0,105,255,0.1)"/>
        <circle id="Oval-20" data-name="Oval" cx="1" cy="1" r="1" transform="translate(102.934 107.49)" fill="rgba(0,105,255,0.15)"/>
        <ellipse id="Oval-21" data-name="Oval" cx="1.814" cy="1.823" rx="1.814" ry="1.823" transform="translate(113.459 60.627)" fill="rgba(0,105,255,0.25)"/>
        <ellipse id="Oval-22" data-name="Oval" cx="1.814" cy="1.823" rx="1.814" ry="1.823" transform="translate(182.854 64.274)" fill="rgba(0,105,255,0.25)"/>
        <ellipse id="Oval-23" data-name="Oval" cx="1.814" cy="1.823" rx="1.814" ry="1.823" transform="translate(152.919 25.983)" fill="#daeaff"/>
        <ellipse id="Oval-24" data-name="Oval" cx="1.361" cy="1.368" rx="1.361" ry="1.368" transform="translate(56.764 57.436)" fill="#daeaff"/>
        <path id="Path-5" data-name="Path" d="M82.825,2.1l22,12.764a3.782,3.782,0,0,1,1.569,3.018V47.357c0,1.162-.7,1.7-1.569,1.194l-22-12.764a3.794,3.794,0,0,1-1.569-3.018V3.3C81.256,2.133,81.959,1.6,82.825,2.1Z" fill-rule="evenodd" fill="url(#linear-gradient-9)"/>
        <path id="Path-6" data-name="Path" d="M78.29,5.748l22,12.764a3.78,3.78,0,0,1,1.57,3.018V51c0,1.162-.7,1.7-1.57,1.194l-22-12.764a3.794,3.794,0,0,1-1.569-3.018V6.942C76.72,5.78,77.423,5.242,78.29,5.748Z" fill-rule="evenodd" fill="url(#linear-gradient-10)"/>
        <path id="Path-7" data-name="Path" d="M73.754,9.395l22,12.764a3.781,3.781,0,0,1,1.569,3.018V54.651c0,1.162-.7,1.7-1.569,1.194l-22-12.764a3.794,3.794,0,0,1-1.569-3.018V10.589C72.185,9.427,72.888,8.889,73.754,9.395Z" fill-rule="evenodd" fill="url(#linear-gradient-11)"/>
        <path id="Path-8" data-name="Path" d="M30.212,71.389l22-12.764c.866-.5,1.569.032,1.569,1.194V89.295a3.781,3.781,0,0,1-1.569,3.018l-22,12.764c-.866.506-1.569-.028-1.569-1.195V74.407A3.794,3.794,0,0,1,30.212,71.389Z" fill-rule="evenodd" fill="url(#linear-gradient-12)"/>
        <path id="Path-9" data-name="Path" d="M34.748,75.036l22-12.763c.866-.5,1.569.032,1.569,1.194V92.941a3.781,3.781,0,0,1-1.569,3.018l-22,12.764c-.866.5-1.569-.028-1.569-1.195V78.054A3.794,3.794,0,0,1,34.748,75.036Z" fill-rule="evenodd" fill="url(#linear-gradient-13)"/>
        <path id="Path-10" data-name="Path" d="M39.283,78.227l22-12.764c.866-.5,1.569.032,1.569,1.194V96.132a3.781,3.781,0,0,1-1.569,3.018l-22,12.763c-.866.506-1.569-.027-1.569-1.194V81.244A3.794,3.794,0,0,1,39.283,78.227Z" fill-rule="evenodd" fill="url(#linear-gradient-14)"/>
        <path id="Path-11" data-name="Path" d="M142.7,47.863l22-12.764c.866-.506,1.569.032,1.569,1.194V57.349a3.8,3.8,0,0,1-1.569,3.018l-22,12.764c-.867.5-1.57-.032-1.57-1.194V50.881A3.8,3.8,0,0,1,142.7,47.863Z" fill-rule="evenodd" fill="url(#linear-gradient-15)"/>
        <path id="Path-12" data-name="Path" d="M147.231,51.51l22-12.764c.866-.506,1.569.032,1.569,1.194V61a3.792,3.792,0,0,1-1.569,3.018l-22,12.763c-.866.5-1.569-.032-1.569-1.194V54.528A3.794,3.794,0,0,1,147.231,51.51Z" fill-rule="evenodd" fill="url(#linear-gradient-16)"/>
        <path id="Path-13" data-name="Path" d="M151.767,55.157l22-12.764c.866-.5,1.569.032,1.569,1.194V64.643a3.792,3.792,0,0,1-1.569,3.018l-22,12.763c-.866.5-1.569-.032-1.569-1.194V58.174A3.792,3.792,0,0,1,151.767,55.157Z" fill-rule="evenodd" fill="url(#linear-gradient-17)"/>
        <g id="_编组_" transform="translate(74.838 19.145)">
          <path id="Shape-3" data-name="Shape" d="M6.463,17.641a3.461,3.461,0,0,1-.667-.456.689.689,0,0,1-.177-.324,4.7,4.7,0,0,1-.05-.884V12.545l1.946,1.131a10.049,10.049,0,0,1,1.9,1.367,4.486,4.486,0,0,1,.93,1.276,3.268,3.268,0,0,1,.3,1.368,1.371,1.371,0,0,1-.454,1.167,1.152,1.152,0,0,1-1.07.164,7.422,7.422,0,0,1-1.578-.729l-1.1-.634m-.88-7.43V6.354l1.687.939a12.452,12.452,0,0,1,2,1.368,3.754,3.754,0,0,1,.853,1.126,2.865,2.865,0,0,1,.29,1.24,1.13,1.13,0,0,1-.313.88,1.021,1.021,0,0,1-.907.155,7.692,7.692,0,0,1-1.91-.88l-1.646-.953m5.08-6.1L8.164,2.653V5.265L6.531,4.317V1.7L4,.232V2.844L.122.6v2.2l.59.342a3.416,3.416,0,0,1,.8.579,1.3,1.3,0,0,1,.3.479,3.3,3.3,0,0,1,.086.948l-.027,8.852a2.29,2.29,0,0,1-.086.843.29.29,0,0,1-.3.137,2.5,2.5,0,0,1-.8-.356L.1,14.277v2.2l3.869,2.243v2.612l2.508,1.463V20.18l1.442.839.191.1V23.74l2.535,1.472V22.377a5.76,5.76,0,0,0,1.12.315,2.354,2.354,0,0,0,2.041-.456,2.432,2.432,0,0,0,.726-1.91,5.644,5.644,0,0,0-.454-2.188A7.8,7.8,0,0,0,12.8,16.055a13.543,13.543,0,0,0-1.61-1.559,3.159,3.159,0,0,0,1.583.023,1.679,1.679,0,0,0,.907-.716,2.42,2.42,0,0,0,.322-1.3,5.423,5.423,0,0,0-.59-2.334A8.918,8.918,0,0,0,11.7,7.781a10.533,10.533,0,0,0-1.007-.88V4.125" fill="#fff"/>
        </g>
        <path id="Shape-4" data-name="Shape" d="M51.384,77.739v4.066l2.377,3.6.907-4-3.3-3.647m-.277,4.982-2.436,6.537,2.481,7.572L53.521,86.4l-2.431-3.683M47.1,86.637l-1.646,9.851,2.626-6.956-.948-2.895m7.924-4.558-.907,3.911,2.608,3.943L55.04,82.051m-1.12,4.9L51.38,98.042,56.7,91.168l-2.762-4.194M48.3,90.256l-2.749,7.366,5.393.7L48.3,90.256M50.822,78.04,47.47,85.589l.966,2.954,2.4-6.427V78.04" fill="#fff"/>
        <path id="Shape-5" data-name="Shape" d="M168.948,59.784l-5.157,6.637-5.175-.643,5.189,5.693,5.143-11.688m-5.212-8.41L158.6,64.593l5.175.643,5.152-6.637-5.189-7.225" fill="#fff"/>
      </g>
    </g>
  </g>
</svg>
