<svg xmlns="http://www.w3.org/2000/svg" xmlns:xlink="http://www.w3.org/1999/xlink" width="107" height="107" viewBox="0 0 107 107">
  <defs>
    <filter id="Ellipse_175" x="0" y="0" width="107" height="107" filterUnits="userSpaceOnUse">
      <feOffset dy="3" input="SourceAlpha"/>
      <feGaussianBlur stdDeviation="3" result="blur"/>
      <feFlood flood-opacity="0.071"/>
      <feComposite operator="in" in2="blur"/>
      <feComposite in="SourceGraphic"/>
    </filter>
  </defs>
  <g id="fintech" transform="translate(-3 -2)">
    <g id="Group_3858" data-name="Group 3858" transform="translate(12 8)">
      <g transform="matrix(1, 0, 0, 1, -9, -6)" filter="url(#Ellipse_175)">
        <circle id="Ellipse_175-2" data-name="Ellipse 175" cx="44.5" cy="44.5" r="44.5" transform="translate(9 6)" fill="#e4fcfe"/>
      </g>
    </g>
    <g id="Group_6642" data-name="Group 6642" transform="translate(32.311 28.401)">
      <path id="Path_17993" data-name="Path 17993" d="M63.586,63.765H76.725a.75.75,0,0,1,.141.028,42.864,42.864,0,0,0-3.544-9.546,10.618,10.618,0,0,0-4.931-4.763l-7.78-3.663a2.9,2.9,0,0,0-2.532,5.22l6.551,3.653H49.879a7.541,7.541,0,0,1-3.536-.879l-9.4-4.974a2.455,2.455,0,0,0-2.412,4.275l11.131,6.678A10.616,10.616,0,0,0,49.05,61.1l12.323,1.67a3.017,3.017,0,0,1,1.909,1.061A.775.775,0,0,1,63.586,63.765Z" transform="translate(-29.707 -19.19)" fill="#c5cae9"/>
      <path id="Path_17994" data-name="Path 17994" d="M68.392,49.484l-7.78-3.663a2.9,2.9,0,0,0-2.532,5.22l6.551,3.653H49.879a7.551,7.551,0,0,1-3.536-.878l-9.4-4.974a2.454,2.454,0,0,0-2.411,4.274l11.131,6.678A10.618,10.618,0,0,0,49.05,61.1L57.1,62.193l15.59-9A10.588,10.588,0,0,0,68.392,49.484Z" transform="translate(-29.707 -19.19)" fill="#b6aeff"/>
      <path id="Path_17995" data-name="Path 17995" d="M70.271,59.45a.9.9,0,0,0-.9-.9H53.675a.9.9,0,0,0-.808,1.305l.9,1.806a.9.9,0,0,0,.807.5h14.79a.9.9,0,0,0,.9-.9Z" transform="translate(-21.892 -13.959)" fill="#fff"/>
      <path id="Path_17996" data-name="Path 17996" d="M70.271,59.45a.9.9,0,0,0-.9-.9H53.675a.9.9,0,0,0-.808,1.305l.9,1.806a.9.9,0,0,0,.807.5h14.79a.9.9,0,0,0,.9-.9Z" transform="translate(-21.892 -13.959)" fill="#fff"/>
      <path id="Path_17997" data-name="Path 17997" d="M70.271,59.45a.9.9,0,0,0-.9-.9H53.675a.9.9,0,0,0-.808,1.305l.9,1.806a.9.9,0,0,0,.807.5h14.79a.9.9,0,0,0,.9-.9Z" transform="translate(-21.892 -13.959)" fill="#fff"/>
      <path id="Path_17998" data-name="Path 17998" d="M65.526,42.681,58.607,32.617q-2.85-2.849-11.07-5.7a3.014,3.014,0,0,0-2.022.015L32.906,30.907V43.735l2.869-1.642a3.032,3.032,0,0,1,1.884-.189L48.1,44.226a2.483,2.483,0,0,0,1.27-4.8L42.59,37.341a.87.87,0,0,1,.256-1.7h9.088a3.023,3.023,0,0,1,2.284,1.043l7.65,8.826a2.315,2.315,0,0,0,3.658-2.828Z" transform="translate(-29.883 -26.75)" fill="#b6aeff"/>
      <path id="Path_17999" data-name="Path 17999" d="M30.75,44.05a.756.756,0,0,0,1.094.676l1.512-.756a.755.755,0,0,0,.417-.676V29.867a.757.757,0,0,0-1.094-.676l-1.512.756a.756.756,0,0,0-.417.676Z" transform="translate(-30.75 -25.8)" fill="#fff"/>
      <path id="Path_18000" data-name="Path 18000" d="M30.75,44.05a.756.756,0,0,0,1.094.676l1.512-.756a.755.755,0,0,0,.417-.676V29.867a.757.757,0,0,0-1.094-.676l-1.512.756a.756.756,0,0,0-.417.676Z" transform="translate(-30.75 -25.8)" fill="#fff"/>
      <path id="Path_18001" data-name="Path 18001" d="M30.75,44.05a.756.756,0,0,0,1.094.676l1.512-.756a.755.755,0,0,0,.417-.676V29.867a.757.757,0,0,0-1.094-.676l-1.512.756a.756.756,0,0,0-.417.676Z" transform="translate(-30.75 -25.8)" fill="#fff"/>
      <path id="Path_18002" data-name="Path 18002" d="M46.556,54.46a7.181,7.181,0,1,0-7.181-7.181A7.181,7.181,0,0,0,46.556,54.46Z" transform="translate(-27.281 -21.381)" fill="#1ea2ad"/>
      <path id="Path_18003" data-name="Path 18003" d="M46.556,40.1a7.18,7.18,0,0,0-5.082,12.254L51.629,42.2A7.163,7.163,0,0,0,46.556,40.1Z" transform="translate(-27.281 -21.381)" fill="#21bdca"/>
      <path id="Path_18004" data-name="Path 18004" d="M45.536,41.492a.515.515,0,0,1,.519.519v.265a4.4,4.4,0,0,1,1.871.664.645.645,0,0,1,.362.579.665.665,0,0,1-.676.665.7.7,0,0,1-.362-.11,4.4,4.4,0,0,0-1.243-.531v2.318c1.835.458,2.619,1.194,2.619,2.486,0,1.327-1.038,2.209-2.571,2.352v.725a.515.515,0,0,1-.519.519A.526.526,0,0,1,45,51.424v-.748a5.221,5.221,0,0,1-2.474-.941.665.665,0,0,1-.326-.58.664.664,0,0,1,1.062-.531,4.274,4.274,0,0,0,1.785.809V47.054c-1.762-.457-2.583-1.121-2.583-2.485A2.425,2.425,0,0,1,45,42.264v-.253A.525.525,0,0,1,45.536,41.492Zm-.483,4.115V43.471c-.772.072-1.158.482-1.158,1.014C43.895,44.992,44.124,45.306,45.053,45.607Zm.953,1.677v2.2c.772-.084,1.195-.471,1.195-1.05C47.2,47.9,46.936,47.575,46.007,47.285Z" transform="translate(-26.142 -20.82)" fill="#fff"/>
      <path id="Path_18005" data-name="Path 18005" d="M47.537,26.917a3.014,3.014,0,0,0-2.022.015L32.906,30.907V39.63l19.058-11C50.643,28.058,49.18,27.487,47.537,26.917Z" transform="translate(-29.883 -26.75)" fill="#e8eaf6"/>
      <path id="Path_18006" data-name="Path 18006" d="M53.241,46.687A1.665,1.665,0,0,0,52.073,49.8l.4.159L53.8,46.882Z" transform="translate(-22.596 -18.769)" fill="#fff"/>
      <path id="Path_18007" data-name="Path 18007" d="M43.544,39.638a1.666,1.666,0,0,0,1.027-3.168l-.409-.142L42.98,39.466Z" transform="translate(-25.83 -22.897)" fill="#fff"/>
    </g>
  </g>
</svg>
