<svg xmlns="http://www.w3.org/2000/svg" width="127.661" height="31.99" viewBox="0 0 127.661 31.99">
  <g id="Forbes_1_" data-name="Forbes (1)" transform="translate(-27.34 -19.534)">
    <g id="Group_2806" data-name="Group 2806" transform="translate(0 -60.986)">
      <path id="Path_152" data-name="Path 152" d="M105.109,89.617a10.469,10.469,0,0,0-5.282,1.32c0-4.7,0-8.949.148-10.417l-9.832,1.761v.881l1.027.148c1.32.293,1.761,1.027,2.052,2.788.3,3.521.148,22.3,0,25.384a38.226,38.226,0,0,0,8.219,1.027c7.777,0,12.473-4.843,12.473-12.473,0-6.016-3.815-10.419-8.8-10.419Zm-3.376,21.276a6.623,6.623,0,0,1-1.761-.146c-.148-2.054-.293-10.712-.148-18.341a6.519,6.519,0,0,1,2.2-.441c3.23,0,4.991,3.815,4.991,8.509,0,5.87-2.2,10.419-5.284,10.419ZM53.165,81.106H27.34v1.32l1.468.148c1.906.293,2.642,1.468,2.933,4.255a170.4,170.4,0,0,1,0,19.368c-.293,2.788-1.027,4.11-2.933,4.255l-1.468.3v1.174H43.92v-1.174l-1.761-.3c-1.908-.146-2.642-1.466-2.935-4.255-.148-1.908-.293-4.989-.293-8.8l3.521.148c2.2,0,3.228,1.761,3.669,4.255h1.32V91.381h-1.32c-.441,2.495-1.468,4.255-3.669,4.255l-3.521.148c0-4.989.148-9.685.293-12.473h5.135c3.962,0,6.018,2.495,7.484,6.9l1.468-.441-.146-8.662Z" fill="#7d7d7d"/>
      <path id="Path_153" data-name="Path 153" d="M157.5,126.145c7.338,0,11.005,4.989,11.005,11.591,0,6.309-4.11,11.593-11.446,11.593s-11.005-4.989-11.005-11.593c0-6.309,4.108-11.591,11.446-11.591Zm-.441,1.468c-3.228,0-4.11,4.4-4.11,10.124,0,5.575,1.468,10.124,4.4,10.124,3.372,0,4.255-4.4,4.255-10.124C161.6,132.161,160.138,127.613,157.055,127.613Zm54.73,10.271c0-6.016,3.815-11.739,11.3-11.739,6.162,0,9.1,4.55,9.1,10.564H218.533c-.148,5.43,2.495,9.392,7.777,9.392a7.546,7.546,0,0,0,4.991-1.613l.586.734a10.993,10.993,0,0,1-8.8,4.11c-6.6,0-11.3-4.7-11.3-11.448Zm6.75-2.788,6.9-.148c0-2.935-.441-7.336-2.935-7.336S218.68,131.72,218.535,135.1Zm31.111-7.777a17.949,17.949,0,0,0-6.75-1.174c-5.428,0-8.806,3.228-8.806,7.043s2.493,5.43,6.018,6.6c3.667,1.32,4.7,2.347,4.7,4.108a3.4,3.4,0,0,1-3.669,3.374c-2.788,0-4.843-1.613-6.457-6.016l-1.027.3.148,6.457a23.17,23.17,0,0,0,7.777,1.32c5.723,0,9.392-2.935,9.392-7.484,0-3.083-1.615-4.842-5.43-6.311-4.11-1.613-5.575-2.64-5.575-4.548a3.048,3.048,0,0,1,3.083-3.228c2.64,0,4.4,1.615,5.723,5.577l1.027-.293-.149-5.723Zm-62.07-.588c-2.495-1.466-6.9-.734-9.244,4.55l.146-5.137-9.829,1.908v.881l1.027.148c1.322.148,1.908.881,2.054,2.788a123.273,123.273,0,0,1,0,12.766c-.148,1.759-.734,2.64-2.054,2.788l-1.027.148v1.174h13.645v-1.174l-1.761-.148c-1.468-.148-1.908-1.027-2.054-2.788a104.621,104.621,0,0,1-.146-11.886c.734-1.027,3.962-1.908,6.9,0l2.347-6.018Z" transform="translate(-95.966 -36.821)" fill="#7d7d7d"/>
    </g>
  </g>
</svg>
