<svg xmlns="http://www.w3.org/2000/svg" width="1434.422" height="1121.492" viewBox="0 0 1434.422 1121.492">
  <g id="Group_5865" data-name="Group 5865" transform="translate(-243 -1041.708)">
    <g id="_3rd" data-name="3rd" transform="translate(312.72 1041.653)">
      <path id="Path_17746" data-name="Path 17746" d="M1086.7,535.234c0,238.144-193.048,431.192-431.192,431.192S224.322,773.378,224.322,535.234s193.048-431.19,431.183-431.19S1086.7,297.094,1086.7,535.234Z" transform="translate(72.424 25.564)" fill="none" stroke="#fff" stroke-miterlimit="10" stroke-width="0.401" opacity="0.6"/>
      <path id="Path_17747" data-name="Path 17747" d="M931.776,509.668c0,166.7-135.133,301.832-301.834,301.832S328.11,676.372,328.11,509.668s135.135-301.83,301.832-301.83S931.776,342.97,931.776,509.668Z" transform="translate(97.988 51.129)" fill="none" stroke="#fff" stroke-miterlimit="10" stroke-width="0.348" stroke-dasharray="1.39 4.17"/>
      <path id="Path_17748" data-name="Path 17748" d="M1241.62,560.8c0,309.586-250.968,560.549-560.55,560.549S120.528,870.385,120.528,560.8,371.493.255,681.07.255,1241.62,251.219,1241.62,560.8Z" transform="translate(46.859 0)" fill="none" stroke="#fff" stroke-miterlimit="10" stroke-width="0.401" opacity="0.6"/>
      <g id="Group_5864" data-name="Group 5864" transform="translate(-20 10)">
        <path id="Path_17751" data-name="Path 17751" d="M519.5,432.811l-14.072,23.361,14.072-6.4Z" transform="translate(141.663 106.541)" fill="#e6def5"/>
        <path id="Path_17752" data-name="Path 17752" d="M519.5,446.417l-14.072,6.4,14.072,8.31Z" transform="translate(141.663 109.893)" fill="#bfb9df"/>
        <path id="Path_17753" data-name="Path 17753" d="M530.8,456.172l-14.073-23.361v16.957Z" transform="translate(144.444 106.541)" fill="#f5f5fb"/>
        <path id="Path_17754" data-name="Path 17754" d="M516.723,461.131l14.073-8.31-14.073-6.4Z" transform="translate(144.444 109.893)" fill="#e6def5"/>
        <path id="Path_17755" data-name="Path 17755" d="M505.432,453.693l14.072,19.83V462.008Z" transform="translate(141.663 111.685)" fill="#e6def5"/>
        <path id="Path_17756" data-name="Path 17756" d="M516.723,462.008v11.515l14.084-19.83Z" transform="translate(144.444 111.685)" fill="#f5f5fb"/>
      </g>
      <path id="Path_17757" data-name="Path 17757" d="M620.882,455.856l-4.913,4.909-4.925-4.909,4.918-4.919Zm11.95-11.946,8.426,8.425,4.909-4.909-13.335-13.355-13.359,13.355,4.912,4.909Zm16.851,7.027-4.908,4.919,4.908,4.909,4.915-4.909ZM632.832,467.8l-8.435-8.425-4.915,4.912,13.35,13.353,13.335-13.353-4.909-4.912Zm0-7.033,4.909-4.909-4.909-4.919-4.93,4.919Z" transform="translate(195.676 107.809)" fill="#f5f5fb"/>
      <path id="Path_17769" data-name="Path 17769" d="M1040.017,441.987a8.2,8.2,0,0,0-.349-1.471l-.175-.517.312.384a6.2,6.2,0,0,1,1.122,2.019,4.492,4.492,0,0,1,.237,1.955,4.6,4.6,0,0,1-.237,1.878,6.166,6.166,0,0,1-1.47,2.342,8.393,8.393,0,0,1-5.222,2.3c-.424.035-1.608.137-2.655.207a20.272,20.272,0,0,0-5.92.98c-.212.07-.424.133-.449.1a7.653,7.653,0,0,1,1.882-1.115,18.841,18.841,0,0,1,5.222-1.392,24.239,24.239,0,0,0,3.1-.627C1038.87,447.95,1040.578,445.263,1040.017,441.987Z" transform="translate(269.687 108.312)" fill="#f5f5fb"/>
      <path id="Path_17780" data-name="Path 17780" d="M826.955,491.177c0,117.626-95.36,212.991-212.991,212.991S400.97,608.8,400.97,491.177s95.357-213,212.994-213S826.955,373.541,826.955,491.177Z" transform="translate(115.934 68.455)" fill="none" stroke="#fff" stroke-miterlimit="10" stroke-width="30.056" opacity="0.08"/>
      <path id="Path_17781" data-name="Path 17781" d="M606.689,661.792A176.193,176.193,0,1,0,430.5,485.6,176.192,176.192,0,0,0,606.689,661.792Z" transform="translate(123.206 76.146)" fill="none" stroke="#fff" stroke-miterlimit="10" stroke-width="29.504" opacity="0.22"/>
      <path id="Path_17782" data-name="Path 17782" d="M601.1,629.179a147.9,147.9,0,1,0-147.9-147.9A147.9,147.9,0,0,0,601.1,629.179Z" transform="translate(128.798 82.05)" fill="none" stroke="#fff" stroke-miterlimit="10" stroke-width="16.698"/>
      <path id="Path_17783" data-name="Path 17783" d="M106.934,258.962l73.058-.3c40.182-.166,96.247,31.469,124.588,70.3L377.7,429.141c28.341,38.829,74.5,70.191,102.569,69.695l51.039-.9" transform="translate(43.511 63.647)" fill="none" stroke="#707070" stroke-miterlimit="10" stroke-width="16.698"/>
      <path id="Path_17784" data-name="Path 17784" d="M106.934,347.5l73.058-.16c40.182-.087,104.752,23.131,143.49,51.6L358.8,424.893c38.738,28.467,93.4,51.54,121.47,51.274l51.039-.485" transform="translate(43.511 85.489)" fill="none" stroke="#707070" stroke-miterlimit="10" stroke-width="16.698"/>
      <path id="Path_17785" data-name="Path 17785" d="M106.934,594.29l73.058.182c40.182.1,101.014-25.168,135.182-56.151l35.289-32c34.167-30.982,88.837-56.09,121.486-55.793l59.363.541" transform="translate(43.511 110.904)" fill="none" stroke="#707070" stroke-miterlimit="10" stroke-width="16.698"/>
      <path id="Path_17786" data-name="Path 17786" d="M145,451H521.385" transform="translate(52.887 111.021)" fill="none" stroke="#707070" stroke-miterlimit="10" stroke-width="16.698"/>
      <path id="Path_17787" data-name="Path 17787" d="M106.934,710.991l73.058.325c40.182.18,94.273-31.953,120.2-71.4l77.738-118.281c25.928-39.451,71.046-71.289,100.262-70.752l53.12.978" transform="translate(43.511 110.99)" fill="none" stroke="#707070" stroke-miterlimit="10" stroke-width="16.698"/>
      <path id="Path_17788" data-name="Path 17788" d="M106.934,452.317H532.111" transform="translate(43.511 111.346)" fill="none" stroke="#707070" stroke-miterlimit="10" stroke-width="20"/>
      <path id="Path_17789" data-name="Path 17789" d="M1111.809,685.275l-73.062.3c-40.182.166-96.249-31.468-124.59-70.3L841.036,515.1c-28.341-38.829-74.5-70.191-102.567-69.695l-51.036.9" transform="translate(186.491 109.641)" fill="none" stroke="#707070" stroke-miterlimit="10" stroke-width="16.698"/>
      <path id="Path_17790" data-name="Path 17790" d="M1111.809,574.734l-73.062.162c-40.182.087-104.753-23.131-143.49-51.6l-35.32-25.957c-38.738-28.467-93.4-51.54-121.469-51.274l-51.036.486" transform="translate(186.491 109.806)" fill="none" stroke="#707070" stroke-miterlimit="10" stroke-width="16.698"/>
      <path id="Path_17791" data-name="Path 17791" d="M1121.744,446H698" transform="translate(189.094 109.79)" fill="none" stroke="#707070" stroke-miterlimit="10" stroke-width="16.698"/>
      <path id="Path_17792" data-name="Path 17792" d="M1111.809,320.94l-73.062-.194c-40.182-.107-101.08,27.408-135.328,61.141l-35,34.473c-34.247,33.734-88.981,61.071-121.63,60.749l-59.362-.587" transform="translate(186.491 78.939)" fill="none" stroke="#707070" stroke-miterlimit="10" stroke-width="16.698"/>
      <path id="Path_17793" data-name="Path 17793" d="M1111.809,229.52l-73.062-.338c-40.182-.186-94.116,32.883-119.85,73.486L840.458,426.424c-25.734,40.6-70.694,73.368-99.909,72.81l-53.118-1.015" transform="translate(186.491 56.386)" fill="none" stroke="#707070" stroke-miterlimit="10" stroke-width="16.698"/>
      <path id="Path_17794" data-name="Path 17794" d="M381.625,405.56v-5.282h5.095v5.282Zm21.562.674a12.326,12.326,0,0,1-5.319-1.049,9.876,9.876,0,0,1-3.6-2.921,12.5,12.5,0,0,1-1.985-4.232,20.191,20.191,0,0,1-.637-5.132v-2.06a18.316,18.316,0,0,1,1.2-6.78,10.713,10.713,0,0,1,3.784-4.832,11.212,11.212,0,0,1,6.554-1.8,10.935,10.935,0,0,1,6.518,1.8,10.721,10.721,0,0,1,3.784,4.832,17.823,17.823,0,0,1,1.235,6.78v2.06a20.246,20.246,0,0,1-.636,5.132,12.115,12.115,0,0,1-2.023,4.232,9.56,9.56,0,0,1-3.559,2.921A12.168,12.168,0,0,1,403.187,406.234Zm0-4.083a6.012,6.012,0,0,0,5.319-2.435q1.724-2.471,1.724-7.791,0-5.582-1.761-7.979a6.032,6.032,0,0,0-5.282-2.435,6.132,6.132,0,0,0-5.319,2.435q-1.722,2.4-1.722,7.9,0,5.356,1.722,7.828A6.038,6.038,0,0,0,403.187,402.151Zm21.352,3.409v-24.8l1.649,1.274H418.7v-3.821H428.96V405.56Z" transform="translate(111.169 92.9)" fill="#fff"/>
      <path id="Path_17795" data-name="Path 17795" d="M705.2,405.56v-5.282h5.094v5.282Zm21.562.674a12.318,12.318,0,0,1-5.319-1.049,9.88,9.88,0,0,1-3.6-2.921,12.5,12.5,0,0,1-1.985-4.232,20.246,20.246,0,0,1-.637-5.132v-2.06a18.316,18.316,0,0,1,1.2-6.78,10.713,10.713,0,0,1,3.784-4.832,11.215,11.215,0,0,1,6.555-1.8,10.931,10.931,0,0,1,6.517,1.8,10.713,10.713,0,0,1,3.784,4.832,17.823,17.823,0,0,1,1.236,6.78v2.06a20.249,20.249,0,0,1-.637,5.132,12.116,12.116,0,0,1-2.023,4.232,9.552,9.552,0,0,1-3.559,2.921A12.163,12.163,0,0,1,726.762,406.234Zm0-4.083a6.011,6.011,0,0,0,5.318-2.435q1.724-2.471,1.724-7.791,0-5.582-1.761-7.979a6.029,6.029,0,0,0-5.281-2.435,6.129,6.129,0,0,0-5.319,2.435q-1.724,2.4-1.724,7.9,0,5.356,1.724,7.828A6.036,6.036,0,0,0,726.762,402.151Zm16.706,3.409V400.69a7.675,7.675,0,0,1,.487-2.885,5.744,5.744,0,0,1,1.724-2.21,14.425,14.425,0,0,1,3.22-1.873l4.871-2.21a7.288,7.288,0,0,0,2.809-2.06,5.079,5.079,0,0,0,1.011-3.259,4.855,4.855,0,0,0-1.311-3.6,4.986,4.986,0,0,0-3.745-1.348,5.066,5.066,0,0,0-3.746,1.348,4.963,4.963,0,0,0-1.311,3.67h-4.345a9.594,9.594,0,0,1,1.011-4.419,7.81,7.81,0,0,1,3.147-3.222,10.448,10.448,0,0,1,5.244-1.2,10.236,10.236,0,0,1,5.207,1.2,7.458,7.458,0,0,1,3.108,3.11,8.572,8.572,0,0,1,1.049,4.2v.525a7.614,7.614,0,0,1-1.724,5.056,12.976,12.976,0,0,1-4.794,3.409l-4.907,2.21a5.5,5.5,0,0,0-2.06,1.387,2.928,2.928,0,0,0-.562,1.872v2.923l-1.124-1.574H762.16v3.821Z" transform="translate(190.868 92.9)" fill="#fff"/>
      <path id="Path_17806" data-name="Path 17806" d="M465.536,672.064h-2.57V652.571h2.57Zm6.668-14.486.08,1.821a5.281,5.281,0,0,1,4.338-2.089q4.591,0,4.633,5.181v9.573h-2.478v-9.585a3.312,3.312,0,0,0-.723-2.317,2.847,2.847,0,0,0-2.182-.749,3.581,3.581,0,0,0-2.115.642,4.364,4.364,0,0,0-1.42,1.688v10.322h-2.476V657.578Zm16.146-3.508v3.508h2.7v1.914h-2.7v8.983a2.037,2.037,0,0,0,.361,1.312,1.536,1.536,0,0,0,1.231.429,6,6,0,0,0,1.179-.161v2.008a7.2,7.2,0,0,1-1.9.268,3.087,3.087,0,0,1-2.5-1,4.315,4.315,0,0,1-.843-2.852v-8.983h-2.638v-1.914h2.638V654.07Zm11.621,18.262a6.341,6.341,0,0,1-4.792-1.928,7.2,7.2,0,0,1-1.848-5.181v-.455a8.732,8.732,0,0,1,.816-3.844,6.426,6.426,0,0,1,2.3-2.65,5.789,5.789,0,0,1,3.213-.965,5.428,5.428,0,0,1,4.392,1.861,8.066,8.066,0,0,1,1.565,5.329v1.031h-9.813A5.2,5.2,0,0,0,497.051,669a3.966,3.966,0,0,0,3.053,1.312,4.309,4.309,0,0,0,2.222-.536,5.565,5.565,0,0,0,1.593-1.42l1.513,1.179A6.085,6.085,0,0,1,499.97,672.332Zm-.308-12.987a3.294,3.294,0,0,0-2.516,1.1,5.262,5.262,0,0,0-1.259,3.052h7.256v-.187a4.684,4.684,0,0,0-1.017-2.919A3.1,3.1,0,0,0,499.662,659.345Zm15.838.455a7.434,7.434,0,0,0-1.218-.093,3.265,3.265,0,0,0-3.308,2.075v10.282H508.5V657.578h2.41l.04,1.674a3.855,3.855,0,0,1,3.454-1.942,2.533,2.533,0,0,1,1.1.187Zm1.366,4.887a8.61,8.61,0,0,1,.83-3.829,6.3,6.3,0,0,1,2.329-2.625,6.375,6.375,0,0,1,3.414-.924,6.088,6.088,0,0,1,4.78,2.049,7.861,7.861,0,0,1,1.835,5.449v.173a8.627,8.627,0,0,1-.816,3.8,6.106,6.106,0,0,1-2.317,2.611,6.383,6.383,0,0,1-3.453.937,6.113,6.113,0,0,1-4.78-2.049,7.857,7.857,0,0,1-1.821-5.421Zm2.49.294a6.223,6.223,0,0,0,1.112,3.87,3.8,3.8,0,0,0,6-.014,6.811,6.811,0,0,0,1.112-4.15,6.138,6.138,0,0,0-1.138-3.856,3.75,3.75,0,0,0-5.959-.026A6.729,6.729,0,0,0,519.356,664.981Zm26.039,0a8.679,8.679,0,0,1-1.512,5.329,4.852,4.852,0,0,1-4.1,2.022,5.316,5.316,0,0,1-4.15-1.674v6.976h-2.476V657.578h2.263l.12,1.607a5.1,5.1,0,0,1,4.2-1.875,4.92,4.92,0,0,1,4.124,1.968,8.744,8.744,0,0,1,1.526,5.476Zm-2.476-.28a6.4,6.4,0,0,0-1.044-3.87,3.363,3.363,0,0,0-2.865-1.418,3.641,3.641,0,0,0-3.374,1.994v6.922a3.649,3.649,0,0,0,3.4,1.982,3.338,3.338,0,0,0,2.825-1.406A6.993,6.993,0,0,0,542.919,664.7Zm11.648,7.631a6.342,6.342,0,0,1-4.793-1.928,7.2,7.2,0,0,1-1.847-5.181v-.455a8.715,8.715,0,0,1,.816-3.844,6.426,6.426,0,0,1,2.3-2.65,5.789,5.789,0,0,1,3.213-.965,5.426,5.426,0,0,1,4.391,1.861,8.059,8.059,0,0,1,1.567,5.329v1.031H550.4A5.2,5.2,0,0,0,551.648,669a3.965,3.965,0,0,0,3.052,1.312,4.3,4.3,0,0,0,2.222-.536,5.569,5.569,0,0,0,1.594-1.42l1.513,1.179A6.085,6.085,0,0,1,554.567,672.332Zm-.308-12.987a3.3,3.3,0,0,0-2.517,1.1,5.261,5.261,0,0,0-1.258,3.052h7.256v-.187a4.691,4.691,0,0,0-1.018-2.919A3.1,3.1,0,0,0,554.259,659.345Zm15.838.455a7.449,7.449,0,0,0-1.219-.093,3.263,3.263,0,0,0-3.307,2.075v10.282H563.1V657.578H565.5l.04,1.674A3.857,3.857,0,0,1,569,657.31a2.536,2.536,0,0,1,1.1.187Zm10.7,12.264a5.157,5.157,0,0,1-.348-1.527,5.527,5.527,0,0,1-4.124,1.795,5.152,5.152,0,0,1-3.521-1.205,3.947,3.947,0,0,1-1.366-3.08,4.081,4.081,0,0,1,1.714-3.507A8.112,8.112,0,0,1,578,663.281h2.409v-1.138a2.754,2.754,0,0,0-.776-2.061,3.1,3.1,0,0,0-2.289-.776,3.612,3.612,0,0,0-2.222.669,1.972,1.972,0,0,0-.9,1.62h-2.49a3.4,3.4,0,0,1,.764-2.089,5.292,5.292,0,0,1,2.088-1.607,7.075,7.075,0,0,1,2.905-.59,5.708,5.708,0,0,1,3.923,1.259,4.5,4.5,0,0,1,1.473,3.441v6.667a8.155,8.155,0,0,0,.508,3.173v.214Zm-4.11-1.888a4.352,4.352,0,0,0,2.208-.6,3.634,3.634,0,0,0,1.513-1.567v-2.972h-1.941q-4.552,0-4.553,2.665a2.256,2.256,0,0,0,.776,1.821A2.986,2.986,0,0,0,576.684,670.176Zm22.345-5.195a8.651,8.651,0,0,1-1.527,5.343,4.882,4.882,0,0,1-4.1,2.008,5.048,5.048,0,0,1-4.244-1.942l-.121,1.674h-2.276V651.5h2.476v7.671a5.023,5.023,0,0,1,4.136-1.861,4.89,4.89,0,0,1,4.138,2,8.845,8.845,0,0,1,1.513,5.463Zm-2.478-.28a6.692,6.692,0,0,0-.977-3.91,3.235,3.235,0,0,0-2.812-1.378,3.636,3.636,0,0,0-3.521,2.276v6.265a3.738,3.738,0,0,0,3.548,2.276,3.216,3.216,0,0,0,2.771-1.378A7.119,7.119,0,0,0,596.551,664.7Zm8.3,7.363h-2.478V657.578h2.478Zm-2.678-18.328a1.5,1.5,0,0,1,.361-1.017,1.66,1.66,0,0,1,2.2,0,1.465,1.465,0,0,1,.375,1.017,1.539,1.539,0,0,1-2.571,1A1.449,1.449,0,0,1,602.175,653.736Zm9.345,18.328h-2.476V651.5h2.476Zm6.668,0H615.71V657.578h2.478Zm-2.678-18.328a1.5,1.5,0,0,1,.361-1.017,1.66,1.66,0,0,1,2.2,0,1.459,1.459,0,0,1,.375,1.017,1.414,1.414,0,0,1-.375,1,1.7,1.7,0,0,1-2.2,0A1.449,1.449,0,0,1,615.509,653.736Zm10.014.334v3.508h2.7v1.914h-2.7v8.983a2.03,2.03,0,0,0,.363,1.312,1.534,1.534,0,0,0,1.231.429,5.991,5.991,0,0,0,1.178-.161v2.008a7.191,7.191,0,0,1-1.9.268,3.086,3.086,0,0,1-2.5-1,4.315,4.315,0,0,1-.844-2.852v-8.983h-2.637v-1.914h2.637V654.07Zm10.349,14.366,3.374-10.858H641.9L636.073,674.3q-1.352,3.616-4.3,3.614l-.469-.04-.924-.174v-2.008l.669.054a3.263,3.263,0,0,0,1.954-.508,3.657,3.657,0,0,0,1.165-1.861l.548-1.473-5.167-14.325h2.7Zm15.437,3.628V652.571h6.372a7.367,7.367,0,0,1,4.766,1.312,4.717,4.717,0,0,1,1.607,3.882,3.985,3.985,0,0,1-.776,2.424,5.048,5.048,0,0,1-2.115,1.619,4.482,4.482,0,0,1,2.49,1.688,4.772,4.772,0,0,1,.923,2.945,5.212,5.212,0,0,1-1.7,4.124,7.03,7.03,0,0,1-4.806,1.5Zm2.57-9.117v7.014h4.245a4.079,4.079,0,0,0,2.824-.923,3.276,3.276,0,0,0,1.044-2.57q0-3.522-3.829-3.521Zm0-2.063h3.884a4.049,4.049,0,0,0,2.691-.843,2.82,2.82,0,0,0,1.017-2.289,2.757,2.757,0,0,0-.937-2.331,4.586,4.586,0,0,0-2.852-.735h-3.8Zm21.127-1.084a7.45,7.45,0,0,0-1.219-.093,3.263,3.263,0,0,0-3.306,2.075v10.282H668V657.578h2.41l.04,1.674a3.857,3.857,0,0,1,3.455-1.942,2.54,2.54,0,0,1,1.1.187Zm4.98,12.264h-2.478V657.578h2.478Zm-2.678-18.328a1.5,1.5,0,0,1,.361-1.017,1.66,1.66,0,0,1,2.2,0,1.459,1.459,0,0,1,.375,1.017,1.414,1.414,0,0,1-.375,1,1.7,1.7,0,0,1-2.2,0A1.449,1.449,0,0,1,677.308,653.736ZM683.36,664.7a8.458,8.458,0,0,1,1.579-5.355,5.369,5.369,0,0,1,8.167-.294V651.5h2.476v20.564h-2.276l-.121-1.553a5.041,5.041,0,0,1-4.136,1.821,4.97,4.97,0,0,1-4.11-2.061,8.611,8.611,0,0,1-1.579-5.383Zm2.476.28a6.428,6.428,0,0,0,1.017,3.856,3.291,3.291,0,0,0,2.812,1.392,3.612,3.612,0,0,0,3.441-2.115V661.46a3.638,3.638,0,0,0-3.414-2.048,3.307,3.307,0,0,0-2.839,1.406A7.074,7.074,0,0,0,685.837,664.981Zm13.013-.28a8.486,8.486,0,0,1,1.567-5.383,5.4,5.4,0,0,1,8.288-.133l.12-1.607h2.263v14.138a5.878,5.878,0,0,1-1.674,4.431,6.126,6.126,0,0,1-4.472,1.62,7.452,7.452,0,0,1-3.066-.669,5.282,5.282,0,0,1-2.289-1.835l1.285-1.486a4.845,4.845,0,0,0,3.9,1.968,3.773,3.773,0,0,0,2.812-1.017,3.873,3.873,0,0,0,1.018-2.865v-1.245a5.09,5.09,0,0,1-4.057,1.714,4.966,4.966,0,0,1-4.124-2.049A8.976,8.976,0,0,1,698.849,664.7Zm2.49.28a6.528,6.528,0,0,0,1,3.856,3.267,3.267,0,0,0,2.812,1.392A3.629,3.629,0,0,0,708.6,668.1v-6.613a3.671,3.671,0,0,0-3.415-2.075,3.291,3.291,0,0,0-2.824,1.406A7.074,7.074,0,0,0,701.34,664.981Zm19.507,7.351a6.341,6.341,0,0,1-4.793-1.928,7.2,7.2,0,0,1-1.847-5.181v-.455a8.715,8.715,0,0,1,.816-3.844,6.427,6.427,0,0,1,2.3-2.65,5.789,5.789,0,0,1,3.213-.965,5.426,5.426,0,0,1,4.391,1.861A8.06,8.06,0,0,1,726.5,664.5v1.031h-9.813A5.2,5.2,0,0,0,717.928,669a3.965,3.965,0,0,0,3.052,1.312,4.306,4.306,0,0,0,2.222-.536,5.572,5.572,0,0,0,1.594-1.42l1.513,1.179A6.085,6.085,0,0,1,720.847,672.332Zm-.308-12.987a3.3,3.3,0,0,0-2.518,1.1,5.27,5.27,0,0,0-1.259,3.052h7.257v-.187A4.691,4.691,0,0,0,723,660.39,3.1,3.1,0,0,0,720.539,659.345Zm17.27,8.876a1.8,1.8,0,0,0-.763-1.553,7.117,7.117,0,0,0-2.637-.965,12.561,12.561,0,0,1-2.986-.963,4.318,4.318,0,0,1-1.633-1.339,3.23,3.23,0,0,1-.522-1.848,3.765,3.765,0,0,1,1.5-3.012,5.914,5.914,0,0,1,3.856-1.231,6.024,6.024,0,0,1,3.99,1.272,4.033,4.033,0,0,1,1.539,3.253h-2.49a2.232,2.232,0,0,0-.87-1.754,3.212,3.212,0,0,0-2.169-.737,3.38,3.38,0,0,0-2.116.59,1.853,1.853,0,0,0-.763,1.539,1.5,1.5,0,0,0,.709,1.352,8.751,8.751,0,0,0,2.557.87,13.337,13.337,0,0,1,3.012.991,4.291,4.291,0,0,1,1.7,1.392,3.345,3.345,0,0,1,.562,1.968,3.723,3.723,0,0,1-1.553,3.12,6.538,6.538,0,0,1-4.029,1.165,7.3,7.3,0,0,1-3.08-.616,5.081,5.081,0,0,1-2.1-1.714,4.208,4.208,0,0,1-.75-2.4h2.478a2.589,2.589,0,0,0,.99,1.982,3.934,3.934,0,0,0,2.464.723,4.006,4.006,0,0,0,2.25-.562A1.763,1.763,0,0,0,737.809,668.222Z" transform="translate(131.204 160.406)" fill="#a6a7b6"/>
      <g id="Group_3852" data-name="Group 3852" transform="translate(-69.72 255.085)">
        <g id="Group_3845" data-name="Group 3845" transform="translate(0 164.367)">
          <path id="Path_17807" data-name="Path 17807" d="M54.514,350.777h-5.5v4.5H55.4v1.37H47.336v-12.7h7.98v1.378H49.011v4.082h5.5Zm4.247-3.567.052,1.186a3.439,3.439,0,0,1,2.826-1.361q2.992,0,3.018,3.375v6.237H63.044V350.4a2.158,2.158,0,0,0-.471-1.508,1.852,1.852,0,0,0-1.422-.489,2.328,2.328,0,0,0-1.378.419,2.843,2.843,0,0,0-.925,1.1v6.724H57.235v-9.437Zm10.518-2.284v2.284h1.762v1.248H69.28v5.853a1.323,1.323,0,0,0,.235.854,1,1,0,0,0,.8.279,3.906,3.906,0,0,0,.768-.1v1.309a4.7,4.7,0,0,1-1.239.174,2.009,2.009,0,0,1-1.631-.654,2.81,2.81,0,0,1-.549-1.857v-5.853H65.948v-1.248h1.718v-2.284Zm7.57,11.9a4.13,4.13,0,0,1-3.122-1.256,4.691,4.691,0,0,1-1.2-3.375v-.3a5.668,5.668,0,0,1,.532-2.5,4.185,4.185,0,0,1,1.5-1.727,3.773,3.773,0,0,1,2.093-.628,3.533,3.533,0,0,1,2.861,1.213,5.248,5.248,0,0,1,1.02,3.471v.672H74.138a3.381,3.381,0,0,0,.811,2.258,2.58,2.58,0,0,0,1.988.855,2.806,2.806,0,0,0,1.448-.349,3.639,3.639,0,0,0,1.038-.924l.986.766A3.963,3.963,0,0,1,76.85,356.822Zm-.2-8.46a2.144,2.144,0,0,0-1.64.715,3.429,3.429,0,0,0-.82,1.988h4.727v-.122a3.049,3.049,0,0,0-.663-1.9A2.02,2.02,0,0,0,76.65,348.362Zm10.318.3a4.788,4.788,0,0,0-.794-.061,2.125,2.125,0,0,0-2.154,1.352v6.7H82.406v-9.437h1.57L84,348.3a2.511,2.511,0,0,1,2.25-1.265,1.655,1.655,0,0,1,.715.122Zm9.463,3.375a5.649,5.649,0,0,1-.986,3.471,3.158,3.158,0,0,1-2.669,1.317,3.462,3.462,0,0,1-2.7-1.091v4.544H88.459V347.211h1.474l.079,1.047a3.325,3.325,0,0,1,2.739-1.221,3.206,3.206,0,0,1,2.686,1.282,5.7,5.7,0,0,1,.994,3.567Zm-1.614-.183a4.166,4.166,0,0,0-.68-2.52,2.19,2.19,0,0,0-1.866-.925,2.37,2.37,0,0,0-2.2,1.3v4.509a2.377,2.377,0,0,0,2.215,1.29,2.173,2.173,0,0,0,1.84-.916A4.548,4.548,0,0,0,94.817,351.85Zm8.233-3.192a4.788,4.788,0,0,0-.794-.061,2.125,2.125,0,0,0-2.154,1.352v6.7H98.489v-9.437h1.57l.026,1.091a2.511,2.511,0,0,1,2.25-1.265,1.655,1.655,0,0,1,.715.122Zm3.245,7.989h-1.614v-9.437h1.614Zm-1.744-11.94a.973.973,0,0,1,.235-.663,1.081,1.081,0,0,1,1.43,0,.952.952,0,0,1,.244.663.922.922,0,0,1-.244.654.951.951,0,0,1-1.666-.654Zm8.12,10.8a2.327,2.327,0,0,0,1.509-.523,1.843,1.843,0,0,0,.715-1.307h1.525a2.912,2.912,0,0,1-.558,1.543,3.658,3.658,0,0,1-1.377,1.169,3.947,3.947,0,0,1-1.815.436,3.907,3.907,0,0,1-3.07-1.283,5.152,5.152,0,0,1-1.134-3.523v-.27a5.676,5.676,0,0,1,.506-2.45,3.861,3.861,0,0,1,1.448-1.666,4.15,4.15,0,0,1,2.241-.593,3.763,3.763,0,0,1,2.633.951,3.386,3.386,0,0,1,1.125,2.468H114.9a2.2,2.2,0,0,0-.7-1.5,2.132,2.132,0,0,0-1.535-.593,2.266,2.266,0,0,0-1.91.89,4.154,4.154,0,0,0-.672,2.555v.305a4.073,4.073,0,0,0,.672,2.511A2.267,2.267,0,0,0,112.67,355.5Zm9.481,1.317a4.128,4.128,0,0,1-3.122-1.256,4.691,4.691,0,0,1-1.2-3.375v-.3a5.662,5.662,0,0,1,.532-2.5,4.182,4.182,0,0,1,1.5-1.727,3.775,3.775,0,0,1,2.094-.628,3.533,3.533,0,0,1,2.86,1.213,5.247,5.247,0,0,1,1.021,3.471v.672h-6.392a3.378,3.378,0,0,0,.81,2.258,2.581,2.581,0,0,0,1.989.855,2.81,2.81,0,0,0,1.448-.349,3.642,3.642,0,0,0,1.037-.924l.986.766A3.962,3.962,0,0,1,122.151,356.822Zm-.2-8.46a2.145,2.145,0,0,0-1.64.715,3.426,3.426,0,0,0-.819,1.988h4.726v-.122a3.049,3.049,0,0,0-.662-1.9A2.022,2.022,0,0,0,121.95,348.362Zm10.51,9.376h-1.387l5.3-13.789h1.377Zm11.722-1.091v-12.7h4.151a4.792,4.792,0,0,1,3.1.855,3.072,3.072,0,0,1,1.047,2.529,2.6,2.6,0,0,1-.506,1.579,3.282,3.282,0,0,1-1.377,1.054,2.915,2.915,0,0,1,1.621,1.1,3.108,3.108,0,0,1,.6,1.919,3.393,3.393,0,0,1-1.108,2.686,4.576,4.576,0,0,1-3.131.977Zm1.675-5.94v4.57h2.764a2.661,2.661,0,0,0,1.841-.6,2.136,2.136,0,0,0,.679-1.674q0-2.294-2.494-2.294Zm0-1.342h2.529a2.638,2.638,0,0,0,1.754-.55,1.838,1.838,0,0,0,.663-1.492,1.8,1.8,0,0,0-.611-1.518,2.991,2.991,0,0,0-1.858-.479h-2.476Zm13.763-.707a4.8,4.8,0,0,0-.794-.061,2.126,2.126,0,0,0-2.155,1.352v6.7h-1.613v-9.437h1.569l.026,1.091a2.513,2.513,0,0,1,2.251-1.265,1.657,1.657,0,0,1,.715.122Zm6.968,7.989a3.384,3.384,0,0,1-.227-.995,3.6,3.6,0,0,1-2.686,1.169,3.36,3.36,0,0,1-2.294-.785,2.57,2.57,0,0,1-.89-2.005,2.661,2.661,0,0,1,1.117-2.286,5.288,5.288,0,0,1,3.157-.82h1.57v-.742a1.8,1.8,0,0,0-.506-1.342,2.019,2.019,0,0,0-1.492-.506,2.345,2.345,0,0,0-1.447.436,1.283,1.283,0,0,0-.585,1.056h-1.623a2.221,2.221,0,0,1,.5-1.361,3.445,3.445,0,0,1,1.361-1.047,4.613,4.613,0,0,1,1.892-.384,3.717,3.717,0,0,1,2.556.82,2.931,2.931,0,0,1,.96,2.241v4.343a5.3,5.3,0,0,0,.332,2.068v.14Zm-2.677-1.23a2.836,2.836,0,0,0,1.438-.393,2.376,2.376,0,0,0,.986-1.019v-1.937H165.07q-2.965,0-2.965,1.736a1.464,1.464,0,0,0,.506,1.185A1.941,1.941,0,0,0,163.911,355.417ZM172,347.211l.052,1.186a3.437,3.437,0,0,1,2.825-1.361q2.991,0,3.017,3.375v6.237h-1.613V350.4a2.161,2.161,0,0,0-.471-1.508,1.853,1.853,0,0,0-1.422-.489,2.325,2.325,0,0,0-1.377.419,2.833,2.833,0,0,0-.925,1.1v6.724h-1.614v-9.437Zm7.936,4.64a5.5,5.5,0,0,1,1.029-3.488,3.5,3.5,0,0,1,5.32-.192v-4.919H187.9v13.4h-1.482l-.079-1.012a3.286,3.286,0,0,1-2.7,1.187,3.232,3.232,0,0,1-2.677-1.344,5.6,5.6,0,0,1-1.029-3.506Zm1.614.183a4.189,4.189,0,0,0,.662,2.511,2.142,2.142,0,0,0,1.832.907,2.354,2.354,0,0,0,2.242-1.377v-4.335a2.374,2.374,0,0,0-2.225-1.335,2.155,2.155,0,0,0-1.85.916A4.613,4.613,0,0,0,181.555,352.034ZM51.078,372.174a7.964,7.964,0,0,1-3.14-1.517,2.93,2.93,0,0,1-.977-2.233,3.062,3.062,0,0,1,1.195-2.476,4.764,4.764,0,0,1,3.122-.986,5.169,5.169,0,0,1,2.329.506,3.8,3.8,0,0,1,1.587,1.395,3.551,3.551,0,0,1,.567,1.945H54.078A2.3,2.3,0,0,0,53.345,367a2.976,2.976,0,0,0-2.067-.662,3.063,3.063,0,0,0-1.936.548,1.811,1.811,0,0,0-.689,1.509,1.651,1.651,0,0,0,.654,1.317,6.6,6.6,0,0,0,2.241.977,10.167,10.167,0,0,1,2.477.985,3.688,3.688,0,0,1,1.326,1.248,3.173,3.173,0,0,1,.436,1.684,2.979,2.979,0,0,1-1.2,2.476,5.145,5.145,0,0,1-3.218.925,6.013,6.013,0,0,1-2.442-.5,4.172,4.172,0,0,1-1.753-1.378,3.367,3.367,0,0,1-.611-1.979h1.683a2.2,2.2,0,0,0,.846,1.822,3.613,3.613,0,0,0,2.276.663A3.285,3.285,0,0,0,53.4,376.1a1.755,1.755,0,0,0,.707-1.473,1.714,1.714,0,0,0-.654-1.439A7.467,7.467,0,0,0,51.078,372.174Zm14.583,1.047a5.649,5.649,0,0,1-.986,3.471,3.157,3.157,0,0,1-2.669,1.317,3.462,3.462,0,0,1-2.7-1.091v4.544H57.689V368.4h1.474l.079,1.047a3.325,3.325,0,0,1,2.739-1.221,3.206,3.206,0,0,1,2.686,1.282,5.7,5.7,0,0,1,.994,3.567Zm-1.614-.183a4.166,4.166,0,0,0-.68-2.52,2.19,2.19,0,0,0-1.866-.925,2.37,2.37,0,0,0-2.2,1.3V375.4a2.377,2.377,0,0,0,2.215,1.29,2.173,2.173,0,0,0,1.84-.916A4.549,4.549,0,0,0,64.047,373.038Zm7.588,4.972a4.13,4.13,0,0,1-3.122-1.256,4.692,4.692,0,0,1-1.2-3.375v-.3a5.668,5.668,0,0,1,.532-2.5,4.185,4.185,0,0,1,1.5-1.727,3.773,3.773,0,0,1,2.093-.628,3.532,3.532,0,0,1,2.861,1.213,5.247,5.247,0,0,1,1.02,3.471v.672H68.922a3.381,3.381,0,0,0,.811,2.258,2.579,2.579,0,0,0,1.988.855,2.806,2.806,0,0,0,1.448-.349,3.642,3.642,0,0,0,1.038-.923l.985.766A3.963,3.963,0,0,1,71.635,378.009Zm-.2-8.46a2.145,2.145,0,0,0-1.64.715,3.431,3.431,0,0,0-.82,1.988H73.7v-.122a3.05,3.05,0,0,0-.663-1.9A2.02,2.02,0,0,0,71.434,369.549Zm9.541,7.143a2.324,2.324,0,0,0,1.509-.523,1.839,1.839,0,0,0,.715-1.307h1.526a2.922,2.922,0,0,1-.558,1.543,3.664,3.664,0,0,1-1.378,1.169,4.2,4.2,0,0,1-4.884-.846,5.152,5.152,0,0,1-1.134-3.523v-.27a5.676,5.676,0,0,1,.506-2.45,3.861,3.861,0,0,1,1.448-1.666,4.15,4.15,0,0,1,2.241-.593,3.766,3.766,0,0,1,2.634.951,3.389,3.389,0,0,1,1.125,2.468H83.2a2.2,2.2,0,0,0-.7-1.5,2.129,2.129,0,0,0-1.535-.593,2.266,2.266,0,0,0-1.91.89,4.154,4.154,0,0,0-.672,2.555v.305a4.073,4.073,0,0,0,.672,2.511A2.267,2.267,0,0,0,80.976,376.692Zm7.318,1.143H86.68V368.4h1.613ZM86.549,365.9a.973.973,0,0,1,.235-.663,1.081,1.081,0,0,1,1.43,0,.952.952,0,0,1,.244.663.922.922,0,0,1-.244.654.951.951,0,0,1-1.666-.654Zm4.875,11.94v-8.189H89.933V368.4h1.491v-.8a3.287,3.287,0,0,1,.9-2.459,3.517,3.517,0,0,1,2.555-.881,7.669,7.669,0,0,1,2.468.532l-.27,1.361A5.573,5.573,0,0,0,95,365.712a2.035,2.035,0,0,0-1.5.471,1.917,1.917,0,0,0-.454,1.395v.82h1.928v1.248H93.047v8.189Zm6.724,0H96.527V368.4h1.622Zm6.41-1.143a2.324,2.324,0,0,0,1.509-.523,1.839,1.839,0,0,0,.715-1.307h1.526a2.923,2.923,0,0,1-.558,1.543,3.664,3.664,0,0,1-1.378,1.169,4.2,4.2,0,0,1-4.884-.846,5.152,5.152,0,0,1-1.134-3.523v-.27a5.676,5.676,0,0,1,.506-2.45,3.861,3.861,0,0,1,1.448-1.666,4.15,4.15,0,0,1,2.241-.593,3.766,3.766,0,0,1,2.634.951,3.39,3.39,0,0,1,1.125,2.468h-1.526a2.2,2.2,0,0,0-.7-1.5,2.129,2.129,0,0,0-1.535-.593,2.266,2.266,0,0,0-1.91.89,4.155,4.155,0,0,0-.672,2.555v.305a4.074,4.074,0,0,0,.672,2.511A2.267,2.267,0,0,0,104.559,376.692Zm19.588-2.886a4.677,4.677,0,0,1-1.491,3.113,4.87,4.87,0,0,1-3.323,1.091,4.49,4.49,0,0,1-3.612-1.614,6.5,6.5,0,0,1-1.351-4.317v-1.22a7.279,7.279,0,0,1,.628-3.115,4.718,4.718,0,0,1,1.8-2.058,4.962,4.962,0,0,1,2.687-.724,4.575,4.575,0,0,1,3.244,1.134,4.707,4.707,0,0,1,1.421,3.122h-1.683a3.62,3.62,0,0,0-.951-2.2,2.856,2.856,0,0,0-2.031-.679,3.01,3.01,0,0,0-2.521,1.185,5.467,5.467,0,0,0-.907,3.376v1.229a5.6,5.6,0,0,0,.864,3.289,2.791,2.791,0,0,0,2.417,1.22,3.217,3.217,0,0,0,2.136-.628,3.515,3.515,0,0,0,.995-2.206Zm3.655-4.265a3.427,3.427,0,0,1,2.79-1.317q2.991,0,3.017,3.375v6.237H132V371.59a2.161,2.161,0,0,0-.471-1.508,1.853,1.853,0,0,0-1.422-.489,2.331,2.331,0,0,0-1.378.419,2.841,2.841,0,0,0-.924,1.1v6.724h-1.614v-13.4H127.8Zm14.051,8.294a3.343,3.343,0,0,1-.227-.995,3.6,3.6,0,0,1-2.687,1.169,3.357,3.357,0,0,1-2.293-.785,2.57,2.57,0,0,1-.89-2.005,2.658,2.658,0,0,1,1.117-2.286,5.285,5.285,0,0,1,3.157-.82h1.57v-.742a1.8,1.8,0,0,0-.506-1.342,2.022,2.022,0,0,0-1.492-.506,2.349,2.349,0,0,0-1.448.436,1.286,1.286,0,0,0-.585,1.056h-1.621a2.221,2.221,0,0,1,.5-1.361,3.432,3.432,0,0,1,1.36-1.047,4.614,4.614,0,0,1,1.893-.384,3.713,3.713,0,0,1,2.555.82,2.922,2.922,0,0,1,.96,2.241v4.343a5.318,5.318,0,0,0,.332,2.068v.14Zm-2.678-1.23a2.837,2.837,0,0,0,1.439-.393,2.384,2.384,0,0,0,.986-1.019v-1.937h-1.265q-2.965,0-2.965,1.736a1.467,1.467,0,0,0,.5,1.185A1.945,1.945,0,0,0,139.176,376.6Zm8.32,1.23h-1.613V368.4H147.5Zm-1.744-11.94a.973.973,0,0,1,.236-.663,1.08,1.08,0,0,1,1.43,0,.95.95,0,0,1,.244.663.92.92,0,0,1-.244.654.951.951,0,0,1-1.665-.654Zm5.86,2.5.052,1.186a3.441,3.441,0,0,1,2.827-1.361q2.991,0,3.017,3.375v6.237h-1.614V371.59a2.149,2.149,0,0,0-.471-1.508,1.848,1.848,0,0,0-1.421-.489,2.329,2.329,0,0,0-1.378.419,2.854,2.854,0,0,0-.925,1.1v6.724h-1.613V368.4Zm13.824,6.934a1.173,1.173,0,0,0-.5-1.012,4.626,4.626,0,0,0-1.717-.628,8.214,8.214,0,0,1-1.945-.628,2.818,2.818,0,0,1-1.064-.872,2.1,2.1,0,0,1-.34-1.2,2.454,2.454,0,0,1,.977-1.963,3.851,3.851,0,0,1,2.513-.8,3.927,3.927,0,0,1,2.6.829,2.625,2.625,0,0,1,1,2.119h-1.623a1.448,1.448,0,0,0-.567-1.142,2.085,2.085,0,0,0-1.412-.48,2.2,2.2,0,0,0-1.378.384,1.207,1.207,0,0,0-.5,1,.978.978,0,0,0,.462.88,5.642,5.642,0,0,0,1.666.567,8.692,8.692,0,0,1,1.962.646,2.8,2.8,0,0,1,1.108.907,2.18,2.18,0,0,1,.366,1.282,2.426,2.426,0,0,1-1.012,2.031,4.258,4.258,0,0,1-2.625.759,4.747,4.747,0,0,1-2.007-.4,3.313,3.313,0,0,1-1.37-1.117,2.736,2.736,0,0,1-.487-1.56h1.613a1.688,1.688,0,0,0,.646,1.29,2.557,2.557,0,0,0,1.605.471,2.6,2.6,0,0,0,1.464-.366A1.144,1.144,0,0,0,165.436,375.332Z" transform="translate(11.119 -341.201)" fill="#a6a7b6"/>
          <path id="Path_17808" data-name="Path 17808" d="M.28,347.652H27.128" transform="translate(-0.28 -340.117)" fill="none" stroke="#fff" stroke-miterlimit="10" stroke-width="0.584"/>
          <path id="Path_17809" data-name="Path 17809" d="M16.46,341.606,24,349.141l-7.535,7.536" transform="translate(3.705 -341.606)" fill="none" stroke="#fff" stroke-miterlimit="10" stroke-width="0.584"/>
        </g>
        <g id="Group_3846" data-name="Group 3846" transform="translate(0 542.078)">
          <path id="Path_17810" data-name="Path 17810" d="M51.078,651.883a7.966,7.966,0,0,1-3.14-1.517,2.931,2.931,0,0,1-.977-2.234,3.062,3.062,0,0,1,1.195-2.476,4.765,4.765,0,0,1,3.122-.986,5.168,5.168,0,0,1,2.329.506,3.8,3.8,0,0,1,1.587,1.395,3.551,3.551,0,0,1,.567,1.945H54.078a2.3,2.3,0,0,0-.733-1.806,2.976,2.976,0,0,0-2.067-.662,3.063,3.063,0,0,0-1.936.548,1.811,1.811,0,0,0-.689,1.509,1.652,1.652,0,0,0,.654,1.317,6.6,6.6,0,0,0,2.241.977,10.165,10.165,0,0,1,2.477.985,3.688,3.688,0,0,1,1.326,1.248,3.173,3.173,0,0,1,.436,1.684,2.979,2.979,0,0,1-1.2,2.476,5.145,5.145,0,0,1-3.218.925,6.012,6.012,0,0,1-2.442-.5,4.172,4.172,0,0,1-1.753-1.378,3.367,3.367,0,0,1-.611-1.979h1.683a2.2,2.2,0,0,0,.846,1.822,3.612,3.612,0,0,0,2.276.663,3.285,3.285,0,0,0,2.032-.541,1.755,1.755,0,0,0,.707-1.473,1.714,1.714,0,0,0-.654-1.439A7.464,7.464,0,0,0,51.078,651.883Zm12.437,5.661a3.388,3.388,0,0,1-.227-.995,3.6,3.6,0,0,1-2.686,1.169,3.359,3.359,0,0,1-2.294-.785,2.571,2.571,0,0,1-.89-2.005,2.66,2.66,0,0,1,1.116-2.286,5.288,5.288,0,0,1,3.157-.82h1.57v-.741a1.8,1.8,0,0,0-.506-1.342,2.02,2.02,0,0,0-1.491-.506,2.347,2.347,0,0,0-1.448.436,1.284,1.284,0,0,0-.584,1.056H57.61a2.222,2.222,0,0,1,.5-1.361,3.439,3.439,0,0,1,1.361-1.047,4.612,4.612,0,0,1,1.893-.384,3.715,3.715,0,0,1,2.556.82,2.926,2.926,0,0,1,.959,2.241v4.343a5.311,5.311,0,0,0,.332,2.068v.14Zm-2.678-1.23a2.835,2.835,0,0,0,1.439-.393,2.379,2.379,0,0,0,.986-1.019v-1.937H62q-2.965,0-2.965,1.736a1.465,1.465,0,0,0,.506,1.185A1.942,1.942,0,0,0,60.837,656.314Zm12.394,1.23A3.383,3.383,0,0,1,73,656.55a3.6,3.6,0,0,1-2.686,1.169,3.36,3.36,0,0,1-2.294-.785,2.571,2.571,0,0,1-.89-2.005,2.66,2.66,0,0,1,1.116-2.286,5.288,5.288,0,0,1,3.157-.82h1.57v-.741a1.8,1.8,0,0,0-.506-1.342,2.02,2.02,0,0,0-1.491-.506,2.347,2.347,0,0,0-1.448.436,1.284,1.284,0,0,0-.584,1.056H67.326a2.222,2.222,0,0,1,.5-1.361,3.441,3.441,0,0,1,1.361-1.047,4.613,4.613,0,0,1,1.893-.384,3.715,3.715,0,0,1,2.555.82,2.927,2.927,0,0,1,.959,2.241v4.343a5.312,5.312,0,0,0,.331,2.068v.14Zm-2.678-1.23a2.835,2.835,0,0,0,1.439-.393,2.379,2.379,0,0,0,.986-1.019v-1.937H71.713q-2.965,0-2.965,1.736a1.466,1.466,0,0,0,.506,1.185A1.942,1.942,0,0,0,70.553,656.314Zm12.062-1.272a1.173,1.173,0,0,0-.5-1.012A4.634,4.634,0,0,0,80.4,653.4a8.208,8.208,0,0,1-1.945-.628,2.808,2.808,0,0,1-1.064-.872,2.1,2.1,0,0,1-.34-1.2,2.452,2.452,0,0,1,.977-1.963,3.851,3.851,0,0,1,2.512-.8,3.927,3.927,0,0,1,2.6.829,2.626,2.626,0,0,1,1,2.119H82.519a1.451,1.451,0,0,0-.567-1.142,2.089,2.089,0,0,0-1.413-.48,2.2,2.2,0,0,0-1.378.384,1.207,1.207,0,0,0-.5,1,.977.977,0,0,0,.462.88,5.645,5.645,0,0,0,1.666.567,8.693,8.693,0,0,1,1.962.646,2.8,2.8,0,0,1,1.108.907,2.182,2.182,0,0,1,.366,1.282,2.425,2.425,0,0,1-1.012,2.031,4.26,4.26,0,0,1-2.625.759,4.744,4.744,0,0,1-2.006-.4,3.307,3.307,0,0,1-1.369-1.117,2.734,2.734,0,0,1-.488-1.56h1.613a1.686,1.686,0,0,0,.645,1.29,2.556,2.556,0,0,0,1.6.471,2.6,2.6,0,0,0,1.465-.366A1.145,1.145,0,0,0,82.615,655.042Zm8.469,3.593H89.7L95,644.845h1.378Zm11.722-1.091v-12.7h4.152a4.8,4.8,0,0,1,3.1.855,3.073,3.073,0,0,1,1.047,2.529,2.6,2.6,0,0,1-.506,1.579,3.286,3.286,0,0,1-1.378,1.054,2.916,2.916,0,0,1,1.622,1.1,3.108,3.108,0,0,1,.6,1.919,3.4,3.4,0,0,1-1.108,2.686,4.578,4.578,0,0,1-3.131.977Zm1.675-5.94v4.57h2.765a2.657,2.657,0,0,0,1.84-.6,2.134,2.134,0,0,0,.68-1.674q0-2.294-2.494-2.294Zm0-1.342h2.529a2.637,2.637,0,0,0,1.753-.55,1.836,1.836,0,0,0,.663-1.492,1.8,1.8,0,0,0-.611-1.518,2.987,2.987,0,0,0-1.858-.479h-2.477Zm11.251,7.282h-1.674v-12.7h1.674ZM49.5,666.033l4.152,10.362L57.8,666.033h2.172v12.7H58.3v-4.945l.157-5.338-4.169,10.283H53.005l-4.16-10.257.166,5.312v4.945H47.336v-12.7Zm19,12.7a3.384,3.384,0,0,1-.227-.995,3.6,3.6,0,0,1-2.686,1.169,3.359,3.359,0,0,1-2.294-.785,2.571,2.571,0,0,1-.89-2.005,2.661,2.661,0,0,1,1.116-2.286,5.288,5.288,0,0,1,3.157-.82h1.57v-.742a1.8,1.8,0,0,0-.506-1.342,2.02,2.02,0,0,0-1.491-.506,2.347,2.347,0,0,0-1.448.436,1.283,1.283,0,0,0-.584,1.056H62.6a2.222,2.222,0,0,1,.5-1.361,3.44,3.44,0,0,1,1.361-1.047,4.613,4.613,0,0,1,1.893-.384,3.715,3.715,0,0,1,2.555.82,2.926,2.926,0,0,1,.959,2.241v4.343a5.311,5.311,0,0,0,.332,2.068v.14Zm-2.678-1.23a2.835,2.835,0,0,0,1.439-.393,2.379,2.379,0,0,0,.986-1.02v-1.937H66.986q-2.966,0-2.965,1.736a1.466,1.466,0,0,0,.506,1.185A1.942,1.942,0,0,0,65.826,677.5Zm11.129-6.759a4.786,4.786,0,0,0-.794-.061,2.125,2.125,0,0,0-2.154,1.352v6.7H72.394v-9.437h1.57l.026,1.091a2.511,2.511,0,0,1,2.25-1.265,1.653,1.653,0,0,1,.715.122Zm4.125,3.619-1.012,1.056v3.314H78.455v-13.4h1.613v8.1l.863-1.038,2.939-3.1h1.962l-3.672,3.942,4.1,5.495H84.368Zm10.161,4.544a4.13,4.13,0,0,1-3.122-1.256,4.692,4.692,0,0,1-1.2-3.375v-.3a5.668,5.668,0,0,1,.532-2.5,4.185,4.185,0,0,1,1.5-1.727,3.773,3.773,0,0,1,2.093-.628,3.532,3.532,0,0,1,2.861,1.213,5.248,5.248,0,0,1,1.02,3.471v.672H88.529a3.38,3.38,0,0,0,.811,2.258,2.579,2.579,0,0,0,1.988.855,2.806,2.806,0,0,0,1.448-.349,3.641,3.641,0,0,0,1.038-.924l.985.766A3.963,3.963,0,0,1,91.241,678.906Zm-.2-8.46a2.145,2.145,0,0,0-1.64.715,3.431,3.431,0,0,0-.82,1.988h4.727v-.122a3.05,3.05,0,0,0-.663-1.9A2.02,2.02,0,0,0,91.041,670.446Zm7.945-3.436v2.284h1.762v1.248H98.986v5.853a1.324,1.324,0,0,0,.235.854,1,1,0,0,0,.8.279,3.911,3.911,0,0,0,.767-.1v1.309a4.691,4.691,0,0,1-1.238.174,2.009,2.009,0,0,1-1.631-.654,2.81,2.81,0,0,1-.549-1.857v-5.853H95.654v-1.248h1.718V667.01Zm11.626,7.108a5.65,5.65,0,0,1-.986,3.471,3.157,3.157,0,0,1-2.669,1.317,3.462,3.462,0,0,1-2.7-1.09v4.544H102.64V669.294h1.474l.078,1.047a3.325,3.325,0,0,1,2.739-1.221,3.206,3.206,0,0,1,2.686,1.282,5.694,5.694,0,0,1,.994,3.567ZM109,673.934a4.165,4.165,0,0,0-.68-2.52,2.19,2.19,0,0,0-1.866-.925,2.37,2.37,0,0,0-2.2,1.3V676.3a2.377,2.377,0,0,0,2.215,1.29,2.173,2.173,0,0,0,1.84-.916A4.548,4.548,0,0,0,109,673.934Zm5.425,4.8H112.81v-13.4h1.614Zm8.416,0a3.343,3.343,0,0,1-.227-.995,3.6,3.6,0,0,1-2.687,1.169,3.357,3.357,0,0,1-2.293-.785,2.57,2.57,0,0,1-.89-2.005,2.661,2.661,0,0,1,1.117-2.286,5.287,5.287,0,0,1,3.157-.82h1.57v-.742a1.8,1.8,0,0,0-.506-1.342,2.022,2.022,0,0,0-1.492-.506,2.343,2.343,0,0,0-1.447.436,1.282,1.282,0,0,0-.585,1.056h-1.623a2.222,2.222,0,0,1,.5-1.361,3.437,3.437,0,0,1,1.361-1.047,4.612,4.612,0,0,1,1.892-.384,3.717,3.717,0,0,1,2.556.82,2.926,2.926,0,0,1,.958,2.241v4.343a5.318,5.318,0,0,0,.332,2.068v.14Zm-2.678-1.23a2.837,2.837,0,0,0,1.439-.393,2.377,2.377,0,0,0,.986-1.02v-1.937h-1.265q-2.965,0-2.965,1.736a1.464,1.464,0,0,0,.506,1.185A1.939,1.939,0,0,0,120.162,677.5Zm10.353.087a2.327,2.327,0,0,0,1.509-.523,1.844,1.844,0,0,0,.715-1.307h1.525a2.912,2.912,0,0,1-.558,1.543,3.659,3.659,0,0,1-1.377,1.169,3.947,3.947,0,0,1-1.815.436,3.906,3.906,0,0,1-3.07-1.282,5.15,5.15,0,0,1-1.134-3.523v-.27a5.669,5.669,0,0,1,.506-2.45,3.856,3.856,0,0,1,1.448-1.666,4.148,4.148,0,0,1,2.241-.593,3.763,3.763,0,0,1,2.633.951,3.386,3.386,0,0,1,1.125,2.468H132.74a2.2,2.2,0,0,0-.7-1.5,2.132,2.132,0,0,0-1.535-.593,2.267,2.267,0,0,0-1.911.89,4.157,4.157,0,0,0-.671,2.555v.305a4.075,4.075,0,0,0,.671,2.511A2.269,2.269,0,0,0,130.515,677.589ZM140,678.906a4.128,4.128,0,0,1-3.122-1.256,4.691,4.691,0,0,1-1.2-3.375v-.3a5.661,5.661,0,0,1,.532-2.5,4.183,4.183,0,0,1,1.5-1.727,3.774,3.774,0,0,1,2.094-.628,3.533,3.533,0,0,1,2.86,1.213,5.247,5.247,0,0,1,1.021,3.471v.672h-6.392a3.377,3.377,0,0,0,.81,2.258,2.581,2.581,0,0,0,1.989.855,2.81,2.81,0,0,0,1.448-.349,3.64,3.64,0,0,0,1.037-.924l.986.766A3.962,3.962,0,0,1,140,678.906Zm-.2-8.46a2.145,2.145,0,0,0-1.64.715,3.426,3.426,0,0,0-.819,1.988h4.726v-.122a3.049,3.049,0,0,0-.662-1.9A2.023,2.023,0,0,0,139.795,670.446Zm11.25,5.783a1.175,1.175,0,0,0-.5-1.012,4.643,4.643,0,0,0-1.719-.628,8.238,8.238,0,0,1-1.945-.628,2.8,2.8,0,0,1-1.063-.872,2.1,2.1,0,0,1-.34-1.2,2.453,2.453,0,0,1,.976-1.963,3.854,3.854,0,0,1,2.513-.8,3.927,3.927,0,0,1,2.6.829,2.625,2.625,0,0,1,1,2.119h-1.623a1.451,1.451,0,0,0-.566-1.142,2.091,2.091,0,0,0-1.413-.48,2.2,2.2,0,0,0-1.378.384,1.207,1.207,0,0,0-.5,1,.978.978,0,0,0,.462.88,5.638,5.638,0,0,0,1.666.567,8.7,8.7,0,0,1,1.962.646,2.793,2.793,0,0,1,1.108.907,2.18,2.18,0,0,1,.366,1.282,2.426,2.426,0,0,1-1.012,2.031,4.259,4.259,0,0,1-2.625.759,4.747,4.747,0,0,1-2.007-.4,3.31,3.31,0,0,1-1.368-1.117,2.728,2.728,0,0,1-.489-1.56h1.613a1.688,1.688,0,0,0,.646,1.29,2.557,2.557,0,0,0,1.605.471,2.6,2.6,0,0,0,1.466-.366A1.146,1.146,0,0,0,151.045,676.229Z" transform="translate(11.119 -644.671)" fill="#a6a7b6"/>
          <path id="Path_17811" data-name="Path 17811" d="M.28,651.047H27.128" transform="translate(-0.28 -643.101)" fill="none" stroke="#fff" stroke-miterlimit="10" stroke-width="0.584"/>
          <path id="Path_17812" data-name="Path 17812" d="M16.46,645,24,652.536l-7.535,7.531" transform="translate(3.705 -644.59)" fill="none" stroke="#fff" stroke-miterlimit="10" stroke-width="0.584"/>
        </g>
        <g id="Group_3844" data-name="Group 3844" transform="translate(0 287.125)">
          <path id="Path_17761" data-name="Path 17761" d="M51.63,451.459l3.628-10.474h1.832l-4.71,12.7H50.9l-4.7-12.7h1.823Zm10.449,2.4a4.13,4.13,0,0,1-3.122-1.256,4.691,4.691,0,0,1-1.2-3.375v-.3a5.67,5.67,0,0,1,.532-2.5,4.185,4.185,0,0,1,1.5-1.727,3.773,3.773,0,0,1,2.093-.628,3.533,3.533,0,0,1,2.861,1.213,5.248,5.248,0,0,1,1.02,3.471v.672H59.366a3.381,3.381,0,0,0,.811,2.258,2.58,2.58,0,0,0,1.989.855,2.805,2.805,0,0,0,1.448-.349,3.639,3.639,0,0,0,1.038-.924l.986.766A3.963,3.963,0,0,1,62.078,453.858Zm-.2-8.46a2.144,2.144,0,0,0-1.64.715,3.43,3.43,0,0,0-.82,1.988h4.727v-.122a3.05,3.05,0,0,0-.663-1.9A2.02,2.02,0,0,0,61.878,445.4Zm10.318.3a4.787,4.787,0,0,0-.794-.061,2.125,2.125,0,0,0-2.154,1.352v6.7H67.634v-9.437H69.2l.026,1.091a2.511,2.511,0,0,1,2.25-1.265,1.655,1.655,0,0,1,.715.122Zm4.117-3.733v2.284h1.762v1.248H76.312v5.853a1.324,1.324,0,0,0,.235.854,1,1,0,0,0,.8.279,3.9,3.9,0,0,0,.767-.1v1.309a4.7,4.7,0,0,1-1.238.174,2.01,2.01,0,0,1-1.631-.654,2.81,2.81,0,0,1-.549-1.857v-5.853H72.98v-1.248H74.7v-2.284Zm5.407,11.722H80.106v-9.437h1.613Zm-1.744-11.94a.973.973,0,0,1,.235-.663,1.081,1.081,0,0,1,1.43,0,.952.952,0,0,1,.244.663.922.922,0,0,1-.244.654.951.951,0,0,1-1.666-.654Zm8.12,10.8a2.324,2.324,0,0,0,1.509-.523,1.839,1.839,0,0,0,.715-1.307h1.526a2.923,2.923,0,0,1-.558,1.543,3.665,3.665,0,0,1-1.378,1.169,4.2,4.2,0,0,1-4.884-.846,5.152,5.152,0,0,1-1.134-3.523v-.271a5.676,5.676,0,0,1,.506-2.45,3.861,3.861,0,0,1,1.448-1.666,4.15,4.15,0,0,1,2.241-.593,3.766,3.766,0,0,1,2.634.951,3.39,3.39,0,0,1,1.125,2.468H90.319a2.2,2.2,0,0,0-.7-1.5,2.129,2.129,0,0,0-1.535-.593,2.266,2.266,0,0,0-1.91.89,4.155,4.155,0,0,0-.672,2.555v.305a4.074,4.074,0,0,0,.672,2.511A2.267,2.267,0,0,0,88.1,452.541Zm11.391,1.143a3.385,3.385,0,0,1-.227-.995,3.6,3.6,0,0,1-2.686,1.169,3.359,3.359,0,0,1-2.294-.785,2.571,2.571,0,0,1-.89-2.005,2.661,2.661,0,0,1,1.116-2.286,5.289,5.289,0,0,1,3.157-.82h1.57v-.742a1.8,1.8,0,0,0-.506-1.342,2.021,2.021,0,0,0-1.491-.506,2.347,2.347,0,0,0-1.448.436,1.284,1.284,0,0,0-.584,1.056H93.581a2.222,2.222,0,0,1,.5-1.361,3.439,3.439,0,0,1,1.361-1.047,4.613,4.613,0,0,1,1.893-.384,3.715,3.715,0,0,1,2.555.82,2.927,2.927,0,0,1,.959,2.241v4.343a5.314,5.314,0,0,0,.331,2.068v.14Zm-2.678-1.23a2.835,2.835,0,0,0,1.439-.393,2.378,2.378,0,0,0,.986-1.019V449.1H97.968Q95,449.1,95,450.841a1.466,1.466,0,0,0,.506,1.185A1.942,1.942,0,0,0,96.808,452.454Zm8.32,1.23h-1.613v-13.4h1.613Zm11.015-5.661A7.962,7.962,0,0,1,113,446.506a2.931,2.931,0,0,1-.977-2.233,3.063,3.063,0,0,1,1.195-2.476,4.765,4.765,0,0,1,3.122-.986,5.171,5.171,0,0,1,2.329.506,3.8,3.8,0,0,1,1.587,1.395,3.544,3.544,0,0,1,.567,1.945h-1.683a2.3,2.3,0,0,0-.733-1.806,2.978,2.978,0,0,0-2.068-.662,3.061,3.061,0,0,0-1.936.548,1.81,1.81,0,0,0-.689,1.509,1.651,1.651,0,0,0,.654,1.317,6.591,6.591,0,0,0,2.241.977,10.174,10.174,0,0,1,2.478.985,3.683,3.683,0,0,1,1.325,1.248,3.164,3.164,0,0,1,.436,1.684,2.979,2.979,0,0,1-1.2,2.476,5.141,5.141,0,0,1-3.218.925,6.007,6.007,0,0,1-2.442-.5,4.171,4.171,0,0,1-1.753-1.378,3.366,3.366,0,0,1-.611-1.979h1.683a2.2,2.2,0,0,0,.846,1.822,3.611,3.611,0,0,0,2.276.663,3.288,3.288,0,0,0,2.033-.541,1.755,1.755,0,0,0,.707-1.473,1.714,1.714,0,0,0-.654-1.439A7.474,7.474,0,0,0,116.144,448.023Zm14.583,1.047a5.651,5.651,0,0,1-.986,3.471,3.157,3.157,0,0,1-2.668,1.317,3.465,3.465,0,0,1-2.7-1.091v4.544h-1.613V444.247h1.473l.079,1.047a3.327,3.327,0,0,1,2.739-1.221,3.2,3.2,0,0,1,2.686,1.282,5.693,5.693,0,0,1,.995,3.567Zm-1.614-.183a4.173,4.173,0,0,0-.679-2.52,2.192,2.192,0,0,0-1.867-.925,2.371,2.371,0,0,0-2.2,1.3v4.509a2.378,2.378,0,0,0,2.216,1.29,2.175,2.175,0,0,0,1.841-.916A4.553,4.553,0,0,0,129.113,448.887Zm7.589,4.972a4.131,4.131,0,0,1-3.123-1.256,4.7,4.7,0,0,1-1.2-3.375v-.3a5.661,5.661,0,0,1,.532-2.5,4.182,4.182,0,0,1,1.5-1.727,3.775,3.775,0,0,1,2.094-.628,3.533,3.533,0,0,1,2.86,1.213,5.247,5.247,0,0,1,1.021,3.471v.672h-6.394a3.385,3.385,0,0,0,.811,2.258,2.581,2.581,0,0,0,1.989.855,2.8,2.8,0,0,0,1.447-.349,3.63,3.63,0,0,0,1.038-.924l.986.766A3.964,3.964,0,0,1,136.7,453.858Zm-.2-8.46a2.145,2.145,0,0,0-1.64.715,3.435,3.435,0,0,0-.82,1.988h4.727v-.122a3.042,3.042,0,0,0-.663-1.9A2.018,2.018,0,0,0,136.5,445.4Zm9.542,7.143a2.323,2.323,0,0,0,1.508-.523,1.839,1.839,0,0,0,.715-1.307h1.527a2.933,2.933,0,0,1-.558,1.543,3.663,3.663,0,0,1-1.378,1.169,4.2,4.2,0,0,1-4.884-.846,5.155,5.155,0,0,1-1.133-3.523v-.271a5.687,5.687,0,0,1,.5-2.45,3.864,3.864,0,0,1,1.448-1.666,4.152,4.152,0,0,1,2.242-.593,3.766,3.766,0,0,1,2.633.951,3.391,3.391,0,0,1,1.125,2.468h-1.527a2.2,2.2,0,0,0-.7-1.5,2.128,2.128,0,0,0-1.534-.593,2.267,2.267,0,0,0-1.911.89,4.156,4.156,0,0,0-.672,2.555v.305a4.075,4.075,0,0,0,.672,2.511A2.266,2.266,0,0,0,146.043,452.541Zm7.317,1.143h-1.614v-9.437h1.614Zm-1.745-11.94a.972.972,0,0,1,.236-.663,1.081,1.081,0,0,1,1.431,0,.95.95,0,0,1,.244.663.92.92,0,0,1-.244.654.951.951,0,0,1-1.666-.654Zm4.876,11.94v-8.19H155v-1.248h1.491v-.8a3.289,3.289,0,0,1,.9-2.459,3.517,3.517,0,0,1,2.555-.881,7.671,7.671,0,0,1,2.469.532l-.27,1.361a5.571,5.571,0,0,0-2.076-.436,2.032,2.032,0,0,0-1.5.471,1.915,1.915,0,0,0-.454,1.395v.82h1.927v1.248h-1.927v8.19Zm6.725,0h-1.623v-9.437h1.623Zm6.41-1.143a2.324,2.324,0,0,0,1.509-.523,1.843,1.843,0,0,0,.715-1.307h1.525a2.921,2.921,0,0,1-.557,1.543,3.672,3.672,0,0,1-1.378,1.169,4.2,4.2,0,0,1-4.884-.846,5.149,5.149,0,0,1-1.134-3.523v-.271a5.687,5.687,0,0,1,.506-2.45,3.864,3.864,0,0,1,1.448-1.666,4.148,4.148,0,0,1,2.241-.593,3.769,3.769,0,0,1,2.635.951,3.39,3.39,0,0,1,1.124,2.468H171.85a2.2,2.2,0,0,0-.7-1.5,2.129,2.129,0,0,0-1.535-.593,2.264,2.264,0,0,0-1.909.89,4.148,4.148,0,0,0-.672,2.555v.305a4.067,4.067,0,0,0,.672,2.511A2.265,2.265,0,0,0,169.625,452.541Zm-112.859,18.3a4.679,4.679,0,0,1-1.491,3.113,4.87,4.87,0,0,1-3.323,1.091,4.488,4.488,0,0,1-3.611-1.614,6.5,6.5,0,0,1-1.352-4.317v-1.22a7.281,7.281,0,0,1,.628-3.115,4.72,4.72,0,0,1,1.8-2.058A4.959,4.959,0,0,1,52.1,462a4.575,4.575,0,0,1,3.245,1.134,4.709,4.709,0,0,1,1.422,3.122H55.083a3.619,3.619,0,0,0-.951-2.2,2.858,2.858,0,0,0-2.032-.679,3.01,3.01,0,0,0-2.521,1.185,5.465,5.465,0,0,0-.907,3.376v1.229a5.6,5.6,0,0,0,.863,3.289,2.79,2.79,0,0,0,2.416,1.22,3.219,3.219,0,0,0,2.137-.628,3.512,3.512,0,0,0,.994-2.206Zm3.654-4.265a3.429,3.429,0,0,1,2.791-1.317q2.992,0,3.018,3.375v6.237H64.616v-6.245a2.157,2.157,0,0,0-.471-1.508,1.851,1.851,0,0,0-1.422-.489,2.328,2.328,0,0,0-1.378.419,2.841,2.841,0,0,0-.925,1.1v6.724H58.808v-13.4h1.614Zm14.051,8.294a3.384,3.384,0,0,1-.227-.995,3.6,3.6,0,0,1-2.686,1.169,3.359,3.359,0,0,1-2.294-.785,2.571,2.571,0,0,1-.89-2.005,2.661,2.661,0,0,1,1.116-2.286,5.288,5.288,0,0,1,3.157-.82h1.57v-.742a1.8,1.8,0,0,0-.506-1.342,2.02,2.02,0,0,0-1.491-.506,2.347,2.347,0,0,0-1.448.436,1.284,1.284,0,0,0-.584,1.056H68.567a2.222,2.222,0,0,1,.5-1.361,3.439,3.439,0,0,1,1.361-1.047,4.613,4.613,0,0,1,1.893-.384,3.715,3.715,0,0,1,2.555.82,2.927,2.927,0,0,1,.959,2.241v4.343a5.311,5.311,0,0,0,.331,2.068v.14Zm-2.678-1.23a2.836,2.836,0,0,0,1.439-.393,2.379,2.379,0,0,0,.986-1.019v-1.937H72.954q-2.966,0-2.965,1.736a1.466,1.466,0,0,0,.506,1.185A1.942,1.942,0,0,0,71.794,473.641Zm8.321,1.23H78.5v-9.437h1.614Zm-1.744-11.94a.973.973,0,0,1,.236-.663,1.081,1.081,0,0,1,1.43,0,.952.952,0,0,1,.244.663.922.922,0,0,1-.244.654.951.951,0,0,1-1.666-.654Zm5.861,2.5.052,1.186a3.439,3.439,0,0,1,2.826-1.361q2.992,0,3.018,3.375v6.237H88.514v-6.245a2.158,2.158,0,0,0-.471-1.508,1.852,1.852,0,0,0-1.422-.489,2.328,2.328,0,0,0-1.378.419,2.843,2.843,0,0,0-.925,1.1v6.724H82.705v-9.437Zm13.824,6.934a1.173,1.173,0,0,0-.5-1.012,4.635,4.635,0,0,0-1.718-.628A8.209,8.209,0,0,1,93.9,470.1a2.807,2.807,0,0,1-1.064-.872,2.1,2.1,0,0,1-.34-1.2,2.451,2.451,0,0,1,.977-1.963,3.851,3.851,0,0,1,2.512-.8,3.927,3.927,0,0,1,2.6.829,2.626,2.626,0,0,1,1,2.119H97.959a1.451,1.451,0,0,0-.567-1.142,2.089,2.089,0,0,0-1.413-.48,2.2,2.2,0,0,0-1.378.384,1.207,1.207,0,0,0-.5,1,.977.977,0,0,0,.462.88,5.644,5.644,0,0,0,1.666.567,8.693,8.693,0,0,1,1.962.646,2.8,2.8,0,0,1,1.108.907,2.181,2.181,0,0,1,.366,1.282,2.425,2.425,0,0,1-1.012,2.031,4.26,4.26,0,0,1-2.625.759,4.745,4.745,0,0,1-2.006-.4,3.308,3.308,0,0,1-1.369-1.117,2.735,2.735,0,0,1-.488-1.56h1.614a1.685,1.685,0,0,0,.645,1.29,2.555,2.555,0,0,0,1.6.471,2.6,2.6,0,0,0,1.465-.366A1.145,1.145,0,0,0,98.055,472.368Z" transform="translate(11.029 -440.104)" fill="#a6a7b6"/>
          <path id="Path_17762" data-name="Path 17762" d="M105.873,465.677a13.589,13.589,0,0,1,.523-3.785,11.077,11.077,0,0,1,1.579-3.3,6.705,6.705,0,0,1,2.172-2.094l.331,1.064a6.97,6.97,0,0,0-2.093,2.982,13,13,0,0,0-.89,4.492l-.009.742a13,13,0,0,0,1.23,5.844,6.978,6.978,0,0,0,1.762,2.319l-.331.986a6.915,6.915,0,0,1-2.215-2.162A12.126,12.126,0,0,1,105.873,465.677Zm8.094.183v4.972h-1.675v-12.7h4.684a4.684,4.684,0,0,1,3.262,1.064,4.009,4.009,0,0,1,.026,5.668,4.912,4.912,0,0,1-3.305.995Zm0-1.37h3.009a3.033,3.033,0,0,0,2.059-.627,2.328,2.328,0,0,0,.714-1.832,2.389,2.389,0,0,0-.714-1.815,2.823,2.823,0,0,0-1.963-.705h-3.1Zm15.062,6.341a3.424,3.424,0,0,1-.227-.995,3.6,3.6,0,0,1-2.686,1.169,3.357,3.357,0,0,1-2.293-.785,2.57,2.57,0,0,1-.89-2.005,2.66,2.66,0,0,1,1.115-2.286,5.291,5.291,0,0,1,3.158-.82h1.569v-.742a1.8,1.8,0,0,0-.5-1.342,2.022,2.022,0,0,0-1.492-.506,2.349,2.349,0,0,0-1.448.436,1.286,1.286,0,0,0-.585,1.056h-1.621a2.221,2.221,0,0,1,.5-1.361,3.432,3.432,0,0,1,1.36-1.047,4.614,4.614,0,0,1,1.893-.384,3.713,3.713,0,0,1,2.555.82,2.926,2.926,0,0,1,.96,2.241v4.343a5.318,5.318,0,0,0,.332,2.068v.14Zm-2.677-1.23a2.837,2.837,0,0,0,1.439-.393,2.373,2.373,0,0,0,.985-1.019v-1.937h-1.264q-2.967,0-2.966,1.736a1.468,1.468,0,0,0,.506,1.185A1.943,1.943,0,0,0,126.352,469.6Zm9.516-1.133,2.2-7.074h1.727L136,472.289q-.881,2.354-2.8,2.354l-.305-.026-.6-.113V473.2l.436.035A2.126,2.126,0,0,0,134,472.9a2.394,2.394,0,0,0,.759-1.213l.358-.96-3.366-9.332h1.761Zm6.89-7.074.044,1.047a3.486,3.486,0,0,1,2.8-1.221,2.7,2.7,0,0,1,2.695,1.518,3.591,3.591,0,0,1,1.221-1.1,3.643,3.643,0,0,1,1.787-.419q3.105,0,3.158,3.288v6.324h-1.614V464.6a2.15,2.15,0,0,0-.462-1.508,2.022,2.022,0,0,0-1.553-.506,2.124,2.124,0,0,0-1.491.541,2.155,2.155,0,0,0-.689,1.438v6.263H147.03v-6.184a1.8,1.8,0,0,0-2.014-2.058,2.159,2.159,0,0,0-2.172,1.352v6.89h-1.613V461.4Zm18.063,9.612a4.13,4.13,0,0,1-3.122-1.256,4.69,4.69,0,0,1-1.2-3.375v-.3a5.661,5.661,0,0,1,.532-2.5,4.185,4.185,0,0,1,1.5-1.727,3.771,3.771,0,0,1,2.093-.628,3.533,3.533,0,0,1,2.862,1.213A5.253,5.253,0,0,1,164.5,465.9v.672h-6.392a3.372,3.372,0,0,0,.811,2.258,2.578,2.578,0,0,0,1.988.855,2.807,2.807,0,0,0,1.448-.349,3.647,3.647,0,0,0,1.038-.924l.985.766A3.962,3.962,0,0,1,160.82,471.007Zm-.2-8.46a2.143,2.143,0,0,0-1.639.715,3.427,3.427,0,0,0-.82,1.988h4.727v-.122a3.057,3.057,0,0,0-.663-1.9A2.021,2.021,0,0,0,160.619,462.547ZM167.9,461.4l.052,1.186a3.437,3.437,0,0,1,2.825-1.361q2.991,0,3.017,3.375v6.237h-1.613v-6.245a2.161,2.161,0,0,0-.471-1.508,1.853,1.853,0,0,0-1.422-.489,2.331,2.331,0,0,0-1.378.419,2.84,2.84,0,0,0-.924,1.1v6.724h-1.614V461.4Zm10.518-2.284V461.4h1.762v1.247H178.42V468.5a1.323,1.323,0,0,0,.236.854,1,1,0,0,0,.8.279,3.909,3.909,0,0,0,.768-.1v1.309a4.7,4.7,0,0,1-1.239.174,2.007,2.007,0,0,1-1.63-.654,2.809,2.809,0,0,1-.55-1.857v-5.853h-1.719V461.4h1.719v-2.284Zm3.6,14.25-.915-.627a4.209,4.209,0,0,0,.854-2.356v-1.457h1.579v1.265a3.947,3.947,0,0,1-.436,1.762A4.063,4.063,0,0,1,182.022,473.361ZM48.955,492.019H47.281v-12.7h1.675Zm2.425-4.8a5.507,5.507,0,0,1,1.029-3.488,3.5,3.5,0,0,1,5.32-.192v-4.919h1.613v13.4H57.86l-.079-1.012a3.284,3.284,0,0,1-2.7,1.187,3.234,3.234,0,0,1-2.678-1.344,5.606,5.606,0,0,1-1.029-3.506Zm1.614.183a4.184,4.184,0,0,0,.663,2.511,2.141,2.141,0,0,0,1.832.907,2.353,2.353,0,0,0,2.241-1.377v-4.335a2.372,2.372,0,0,0-2.224-1.335,2.153,2.153,0,0,0-1.849.916A4.607,4.607,0,0,0,52.993,487.405Zm12.777,4.788a4.13,4.13,0,0,1-3.122-1.256,4.692,4.692,0,0,1-1.2-3.375v-.3a5.668,5.668,0,0,1,.532-2.5,4.184,4.184,0,0,1,1.5-1.727,3.773,3.773,0,0,1,2.093-.628,3.533,3.533,0,0,1,2.861,1.213,5.247,5.247,0,0,1,1.02,3.471v.672H63.058a3.382,3.382,0,0,0,.811,2.258,2.58,2.58,0,0,0,1.989.855,2.806,2.806,0,0,0,1.448-.349,3.639,3.639,0,0,0,1.038-.924l.986.766A3.963,3.963,0,0,1,65.771,492.194Zm-.2-8.46a2.144,2.144,0,0,0-1.64.715,3.43,3.43,0,0,0-.82,1.988h4.727v-.122a3.05,3.05,0,0,0-.663-1.9A2.02,2.02,0,0,0,65.57,483.734Zm7.283-1.152.052,1.186a3.439,3.439,0,0,1,2.826-1.361q2.992,0,3.018,3.375v6.237H77.135v-6.245a2.158,2.158,0,0,0-.471-1.508,1.852,1.852,0,0,0-1.422-.489,2.328,2.328,0,0,0-1.378.419,2.843,2.843,0,0,0-.925,1.1v6.724H71.326v-9.437ZM83.371,480.3v2.284h1.762v1.247H83.371v5.853a1.323,1.323,0,0,0,.235.854,1,1,0,0,0,.8.279,3.909,3.909,0,0,0,.768-.1v1.309a4.7,4.7,0,0,1-1.239.174,2.009,2.009,0,0,1-1.631-.654,2.81,2.81,0,0,1-.549-1.857V483.83H80.039v-1.247h1.718V480.3Zm5.407,11.721H87.165v-9.437h1.613Zm-1.744-11.94a.973.973,0,0,1,.236-.663,1.081,1.081,0,0,1,1.43,0,.952.952,0,0,1,.244.663.922.922,0,0,1-.244.654.951.951,0,0,1-1.666-.654Zm6.524.218v2.284H95.32v1.247H93.558v5.853a1.324,1.324,0,0,0,.235.854,1,1,0,0,0,.8.279,3.908,3.908,0,0,0,.768-.1v1.309a4.694,4.694,0,0,1-1.239.174,2.009,2.009,0,0,1-1.631-.654,2.81,2.81,0,0,1-.549-1.857V483.83H90.226v-1.247h1.718V480.3Zm6.742,9.359,2.2-7.074h1.727l-3.794,10.894q-.881,2.354-2.8,2.354l-.305-.026-.6-.113v-1.309l.436.035a2.129,2.129,0,0,0,1.273-.33,2.388,2.388,0,0,0,.759-1.213l.358-.96-3.367-9.332h1.762Zm4.378,4.892-.916-.627a4.212,4.212,0,0,0,.855-2.356v-1.457H106.2v1.265a3.942,3.942,0,0,1-.436,1.762A4.072,4.072,0,0,1,104.678,494.548Zm11.9-2.354a4.13,4.13,0,0,1-3.122-1.256,4.691,4.691,0,0,1-1.2-3.375v-.3a5.668,5.668,0,0,1,.532-2.5,4.176,4.176,0,0,1,1.5-1.727,3.768,3.768,0,0,1,2.093-.628,3.533,3.533,0,0,1,2.862,1.213,5.254,5.254,0,0,1,1.019,3.471v.672h-6.392a3.372,3.372,0,0,0,.811,2.258,2.576,2.576,0,0,0,1.988.855,2.807,2.807,0,0,0,1.448-.349,3.646,3.646,0,0,0,1.038-.924l.985.766A3.962,3.962,0,0,1,116.583,492.194Zm-.2-8.46a2.143,2.143,0,0,0-1.639.715,3.427,3.427,0,0,0-.82,1.988h4.727v-.122a3.057,3.057,0,0,0-.663-1.9A2.021,2.021,0,0,0,116.383,483.734Zm7.945-3.436v2.284h1.762v1.247h-1.762v5.853a1.323,1.323,0,0,0,.236.854,1,1,0,0,0,.8.279,3.91,3.91,0,0,0,.768-.1v1.309a4.7,4.7,0,0,1-1.239.174,2.008,2.008,0,0,1-1.63-.654,2.809,2.809,0,0,1-.55-1.857V483.83H121v-1.247h1.719V480.3Zm7.44,10.579a2.321,2.321,0,0,0,1.508-.523,1.835,1.835,0,0,0,.715-1.307h1.527a2.923,2.923,0,0,1-.558,1.543,3.662,3.662,0,0,1-1.378,1.169,4.2,4.2,0,0,1-4.884-.846,5.155,5.155,0,0,1-1.133-3.523v-.27a5.669,5.669,0,0,1,.506-2.45A3.853,3.853,0,0,1,129.517,483a4.152,4.152,0,0,1,2.242-.593,3.765,3.765,0,0,1,2.633.951,3.386,3.386,0,0,1,1.125,2.468h-1.527a2.2,2.2,0,0,0-.7-1.5,2.127,2.127,0,0,0-1.534-.593,2.267,2.267,0,0,0-1.911.89,4.156,4.156,0,0,0-.672,2.555v.305a4.075,4.075,0,0,0,.672,2.511A2.268,2.268,0,0,0,131.768,490.876Zm9.289-3.925a13.434,13.434,0,0,1-.515,3.733,10.907,10.907,0,0,1-1.562,3.289,6.805,6.805,0,0,1-2.2,2.145l-.34-.986a6.985,6.985,0,0,0,2.154-3.192,13.776,13.776,0,0,0,.838-4.815v-.279a14.318,14.318,0,0,0-.384-3.4,11.323,11.323,0,0,0-1.073-2.825,6.453,6.453,0,0,0-1.534-1.945l.34-.986a6.787,6.787,0,0,1,2.189,2.129,10.9,10.9,0,0,1,1.562,3.288A13.692,13.692,0,0,1,141.057,486.952Z" transform="translate(11.296 -436.065)" fill="#5e6679"/>
          <path id="Path_17800" data-name="Path 17800" d="M.28,446.452H27.128" transform="translate(-0.28 -438.54)" fill="none" stroke="#fff" stroke-miterlimit="10" stroke-width="0.584"/>
          <path id="Path_17801" data-name="Path 17801" d="M16.46,440.406,24,447.941l-7.535,7.534" transform="translate(3.705 -440.03)" fill="none" stroke="#fff" stroke-miterlimit="10" stroke-width="0.584"/>
        </g>
        <g id="Group_3847" data-name="Group 3847" transform="translate(0 414.065)">
          <path id="Path_17763" data-name="Path 17763" d="M56.712,554.878a3.888,3.888,0,0,1-1.805,1.387,7.293,7.293,0,0,1-2.686.454,5.245,5.245,0,0,1-2.756-.724,4.911,4.911,0,0,1-1.866-2.075,7.2,7.2,0,0,1-.672-3.114V549.7a6.692,6.692,0,0,1,1.334-4.448,4.676,4.676,0,0,1,3.768-1.579,4.8,4.8,0,0,1,3.2,1.021,4.409,4.409,0,0,1,1.483,2.878H55.037a2.766,2.766,0,0,0-3-2.52,2.973,2.973,0,0,0-2.555,1.185,5.771,5.771,0,0,0-.872,3.42v1.037a5.427,5.427,0,0,0,.977,3.4,3.173,3.173,0,0,0,2.643,1.255,5.823,5.823,0,0,0,1.648-.209,2.547,2.547,0,0,0,1.169-.707v-2.852H52.107V550.22h4.605Zm2.119-3.14a5.606,5.606,0,0,1,.541-2.494,4.1,4.1,0,0,1,1.518-1.71,4.152,4.152,0,0,1,2.224-.6,3.966,3.966,0,0,1,3.114,1.335,5.122,5.122,0,0,1,1.195,3.549v.113a5.606,5.606,0,0,1-.532,2.476,3.965,3.965,0,0,1-1.509,1.7,4.152,4.152,0,0,1-2.25.611,3.983,3.983,0,0,1-3.114-1.335,5.119,5.119,0,0,1-1.186-3.532Zm1.622.192a4.05,4.05,0,0,0,.724,2.52,2.341,2.341,0,0,0,1.954.951,2.318,2.318,0,0,0,1.954-.96,4.432,4.432,0,0,0,.724-2.7,3.993,3.993,0,0,0-.741-2.511,2.442,2.442,0,0,0-3.881-.018A4.379,4.379,0,0,0,60.453,551.93Zm11.966,2.424,2.337-7.247h1.648l-3.384,9.437h-1.23l-3.419-9.437h1.648Zm9.332,2.364a4.13,4.13,0,0,1-3.122-1.256,4.691,4.691,0,0,1-1.2-3.375v-.3a5.668,5.668,0,0,1,.532-2.5,4.186,4.186,0,0,1,1.5-1.727,3.773,3.773,0,0,1,2.093-.628,3.533,3.533,0,0,1,2.861,1.213,5.248,5.248,0,0,1,1.02,3.471v.672H79.04a3.381,3.381,0,0,0,.811,2.258,2.579,2.579,0,0,0,1.988.855,2.806,2.806,0,0,0,1.448-.349,3.639,3.639,0,0,0,1.038-.923l.986.766A3.963,3.963,0,0,1,81.752,556.719Zm-.2-8.46a2.144,2.144,0,0,0-1.64.715,3.429,3.429,0,0,0-.82,1.988h4.727v-.122a3.05,3.05,0,0,0-.663-1.9A2.02,2.02,0,0,0,81.551,548.259Zm10.318.3a4.788,4.788,0,0,0-.794-.061,2.125,2.125,0,0,0-2.154,1.352v6.7H87.308v-9.437h1.57L88.9,548.2a2.511,2.511,0,0,1,2.25-1.265,1.654,1.654,0,0,1,.715.122Zm3.018-1.448.052,1.186a3.438,3.438,0,0,1,2.826-1.361q2.991,0,3.018,3.375v6.237H99.169V550.3a2.158,2.158,0,0,0-.471-1.508,1.852,1.852,0,0,0-1.422-.488,2.328,2.328,0,0,0-1.378.419,2.844,2.844,0,0,0-.925,1.1v6.724H93.361v-9.437Zm14.155,9.437a3.382,3.382,0,0,1-.227-.995,3.6,3.6,0,0,1-2.686,1.169,3.359,3.359,0,0,1-2.294-.785,2.571,2.571,0,0,1-.89-2.005,2.66,2.66,0,0,1,1.116-2.286,5.288,5.288,0,0,1,3.157-.82h1.57v-.742a1.8,1.8,0,0,0-.506-1.342,2.02,2.02,0,0,0-1.491-.506,2.347,2.347,0,0,0-1.448.436,1.284,1.284,0,0,0-.584,1.056h-1.622a2.222,2.222,0,0,1,.5-1.361A3.439,3.439,0,0,1,105,547.316a4.611,4.611,0,0,1,1.893-.384,3.715,3.715,0,0,1,2.556.82,2.927,2.927,0,0,1,.959,2.241v4.343a5.311,5.311,0,0,0,.332,2.068v.14Zm-2.678-1.23a2.835,2.835,0,0,0,1.439-.393,2.378,2.378,0,0,0,.986-1.019v-1.937h-1.265q-2.965,0-2.965,1.736a1.466,1.466,0,0,0,.506,1.185A1.942,1.942,0,0,0,106.365,555.314Zm8.094-8.207.052,1.186a3.437,3.437,0,0,1,2.825-1.361q2.991,0,3.017,3.375v6.237h-1.613V550.3a2.161,2.161,0,0,0-.471-1.508,1.853,1.853,0,0,0-1.422-.488,2.331,2.331,0,0,0-1.378.419,2.841,2.841,0,0,0-.924,1.1v6.724h-1.614v-9.437Zm12.114,8.294a2.327,2.327,0,0,0,1.509-.523,1.838,1.838,0,0,0,.714-1.307h1.527a2.922,2.922,0,0,1-.558,1.543,3.667,3.667,0,0,1-1.377,1.169,3.947,3.947,0,0,1-1.815.436,3.906,3.906,0,0,1-3.07-1.282,5.15,5.15,0,0,1-1.134-3.523v-.27a5.669,5.669,0,0,1,.506-2.45,3.861,3.861,0,0,1,1.447-1.666,4.153,4.153,0,0,1,2.242-.593,3.765,3.765,0,0,1,2.633.951,3.386,3.386,0,0,1,1.125,2.468H128.8a2.2,2.2,0,0,0-.7-1.5,2.132,2.132,0,0,0-1.535-.593,2.267,2.267,0,0,0-1.911.89,4.157,4.157,0,0,0-.671,2.555v.305a4.075,4.075,0,0,0,.671,2.511A2.269,2.269,0,0,0,126.573,555.4Zm9.481,1.317a4.131,4.131,0,0,1-3.123-1.256,4.7,4.7,0,0,1-1.2-3.375v-.3a5.662,5.662,0,0,1,.532-2.5,4.183,4.183,0,0,1,1.5-1.727,3.775,3.775,0,0,1,2.094-.628,3.533,3.533,0,0,1,2.86,1.213,5.247,5.247,0,0,1,1.021,3.471v.672H133.34a3.384,3.384,0,0,0,.811,2.258,2.581,2.581,0,0,0,1.989.855,2.8,2.8,0,0,0,1.447-.349,3.63,3.63,0,0,0,1.038-.923l.986.766A3.962,3.962,0,0,1,136.054,556.719Zm-.2-8.46a2.145,2.145,0,0,0-1.64.715,3.435,3.435,0,0,0-.82,1.988h4.727v-.122a3.042,3.042,0,0,0-.663-1.9A2.018,2.018,0,0,0,135.853,548.259Zm10.509,9.376h-1.386l5.3-13.789h1.377ZM51.078,572.071a7.964,7.964,0,0,1-3.14-1.517,2.93,2.93,0,0,1-.977-2.233,3.062,3.062,0,0,1,1.195-2.476,4.764,4.764,0,0,1,3.122-.986,5.169,5.169,0,0,1,2.329.506,3.8,3.8,0,0,1,1.587,1.395,3.552,3.552,0,0,1,.567,1.946H54.078a2.3,2.3,0,0,0-.733-1.806,2.976,2.976,0,0,0-2.067-.662,3.063,3.063,0,0,0-1.936.548,1.811,1.811,0,0,0-.689,1.509,1.651,1.651,0,0,0,.654,1.317,6.6,6.6,0,0,0,2.241.977,10.17,10.17,0,0,1,2.477.985,3.687,3.687,0,0,1,1.326,1.248,3.173,3.173,0,0,1,.436,1.684,2.979,2.979,0,0,1-1.2,2.476,5.145,5.145,0,0,1-3.218.925,6.012,6.012,0,0,1-2.442-.5,4.172,4.172,0,0,1-1.753-1.378,3.366,3.366,0,0,1-.611-1.979h1.683a2.2,2.2,0,0,0,.846,1.822,3.612,3.612,0,0,0,2.276.663A3.286,3.286,0,0,0,53.4,576a1.755,1.755,0,0,0,.707-1.473,1.714,1.714,0,0,0-.654-1.439A7.466,7.466,0,0,0,51.078,572.071Zm8.8-6.061v2.284H61.64v1.248H59.878v5.853a1.323,1.323,0,0,0,.235.854,1,1,0,0,0,.8.279,3.908,3.908,0,0,0,.768-.1v1.309a4.692,4.692,0,0,1-1.239.174,2.009,2.009,0,0,1-1.631-.654,2.81,2.81,0,0,1-.549-1.857v-5.853H56.546v-1.248h1.718V566.01Zm9.48,11.721a3.383,3.383,0,0,1-.227-.995,3.6,3.6,0,0,1-2.686,1.169,3.359,3.359,0,0,1-2.294-.785,2.571,2.571,0,0,1-.89-2.005,2.66,2.66,0,0,1,1.116-2.286,5.288,5.288,0,0,1,3.157-.82h1.57v-.742a1.8,1.8,0,0,0-.506-1.342,2.021,2.021,0,0,0-1.491-.506,2.347,2.347,0,0,0-1.448.436,1.284,1.284,0,0,0-.584,1.056H63.454a2.222,2.222,0,0,1,.5-1.361,3.439,3.439,0,0,1,1.361-1.047,4.613,4.613,0,0,1,1.893-.384,3.715,3.715,0,0,1,2.555.82,2.926,2.926,0,0,1,.959,2.241v4.343a5.311,5.311,0,0,0,.332,2.068v.14Zm-2.678-1.23a2.835,2.835,0,0,0,1.439-.393,2.378,2.378,0,0,0,.986-1.019v-1.937H67.841q-2.965,0-2.965,1.736a1.466,1.466,0,0,0,.506,1.185A1.942,1.942,0,0,0,66.681,576.5Zm9.2-3.139-1.012,1.056v3.314H73.257v-13.4h1.613v8.1l.863-1.038,2.939-3.1h1.962l-3.672,3.942,4.1,5.495H79.17Zm8.172,4.37H82.441v-9.437h1.613Zm-1.744-11.94a.972.972,0,0,1,.236-.663,1.081,1.081,0,0,1,1.43,0,.952.952,0,0,1,.244.663.922.922,0,0,1-.244.654.951.951,0,0,1-1.666-.654Zm5.861,2.5.052,1.187a3.438,3.438,0,0,1,2.826-1.361q2.992,0,3.018,3.375v6.237H92.454v-6.245a2.158,2.158,0,0,0-.471-1.508,1.852,1.852,0,0,0-1.422-.489,2.328,2.328,0,0,0-1.378.419,2.844,2.844,0,0,0-.925,1.1v6.724H86.645v-9.437Zm7.945,4.64a5.528,5.528,0,0,1,1.02-3.506,3.514,3.514,0,0,1,5.4-.087l.079-1.047h1.474v9.21a3.828,3.828,0,0,1-1.09,2.886,3.989,3.989,0,0,1-2.913,1.056,4.839,4.839,0,0,1-2-.436,3.442,3.442,0,0,1-1.491-1.194l.837-.968a3.154,3.154,0,0,0,2.538,1.281,2.46,2.46,0,0,0,1.832-.662,2.526,2.526,0,0,0,.663-1.867v-.811a3.317,3.317,0,0,1-2.643,1.117,3.235,3.235,0,0,1-2.686-1.335A5.848,5.848,0,0,1,96.117,572.934Zm1.622.183a4.248,4.248,0,0,0,.654,2.511,2.127,2.127,0,0,0,1.832.907,2.364,2.364,0,0,0,2.241-1.386v-4.309a2.39,2.39,0,0,0-2.224-1.352,2.145,2.145,0,0,0-1.84.916A4.608,4.608,0,0,0,97.739,573.117Z" transform="translate(11.119 -541.535)" fill="#a6a7b6"/>
          <path id="Path_17802" data-name="Path 17802" d="M.28,548H27.128" transform="translate(-0.28 -540.468)" fill="none" stroke="#fff" stroke-miterlimit="10" stroke-width="0.584"/>
          <path id="Path_17803" data-name="Path 17803" d="M16.46,541.957,24,549.493l-7.535,7.534" transform="translate(3.705 -541.957)" fill="none" stroke="#fff" stroke-miterlimit="10" stroke-width="0.584"/>
        </g>
        <g id="Group_3848" data-name="Group 3848" transform="translate(0 40.227)">
          <path id="Path_17813" data-name="Path 17813" d="M54.438,252.23h-5.32l-1.195,3.314H46.2l4.849-12.7H52.51l4.858,12.7H55.65Zm-4.814-1.378h4.317l-2.163-5.94Zm17.173.079a5.65,5.65,0,0,1-.985,3.471,3.158,3.158,0,0,1-2.669,1.317,3.461,3.461,0,0,1-2.7-1.091v4.544H58.825V246.107H60.3l.079,1.047a3.325,3.325,0,0,1,2.739-1.221,3.206,3.206,0,0,1,2.686,1.282,5.7,5.7,0,0,1,.994,3.567Zm-1.613-.183a4.166,4.166,0,0,0-.68-2.52,2.19,2.19,0,0,0-1.866-.925,2.37,2.37,0,0,0-2.2,1.3v4.509a2.377,2.377,0,0,0,2.215,1.29,2.173,2.173,0,0,0,1.84-.916A4.548,4.548,0,0,0,65.183,250.747Zm11.643.183a5.649,5.649,0,0,1-.986,3.471,3.157,3.157,0,0,1-2.669,1.317,3.462,3.462,0,0,1-2.7-1.091v4.544H68.855V246.107h1.474l.079,1.047a3.325,3.325,0,0,1,2.739-1.221,3.206,3.206,0,0,1,2.686,1.282,5.694,5.694,0,0,1,.994,3.567Zm-1.614-.183a4.166,4.166,0,0,0-.68-2.52,2.19,2.19,0,0,0-1.866-.925,2.37,2.37,0,0,0-2.2,1.3v4.509a2.377,2.377,0,0,0,2.215,1.29,2.173,2.173,0,0,0,1.84-.916A4.548,4.548,0,0,0,75.213,250.747Zm9.167,2.294a1.173,1.173,0,0,0-.5-1.012,4.636,4.636,0,0,0-1.718-.628,8.209,8.209,0,0,1-1.945-.628,2.808,2.808,0,0,1-1.064-.872,2.1,2.1,0,0,1-.34-1.2,2.452,2.452,0,0,1,.977-1.963,3.851,3.851,0,0,1,2.512-.8,3.927,3.927,0,0,1,2.6.829,2.626,2.626,0,0,1,1,2.119H84.284a1.451,1.451,0,0,0-.567-1.142,2.088,2.088,0,0,0-1.413-.48,2.2,2.2,0,0,0-1.378.384,1.207,1.207,0,0,0-.5,1,.977.977,0,0,0,.462.88,5.643,5.643,0,0,0,1.666.567,8.7,8.7,0,0,1,1.962.646,2.8,2.8,0,0,1,1.108.907,2.18,2.18,0,0,1,.366,1.282,2.426,2.426,0,0,1-1.012,2.031,4.261,4.261,0,0,1-2.625.759,4.744,4.744,0,0,1-2.006-.4,3.307,3.307,0,0,1-1.369-1.117,2.734,2.734,0,0,1-.488-1.56h1.613a1.686,1.686,0,0,0,.645,1.29,2.555,2.555,0,0,0,1.6.471,2.6,2.6,0,0,0,1.465-.366A1.145,1.145,0,0,0,84.38,253.042Zm7.806-.907a3,3,0,0,1,.506-1.684,7.859,7.859,0,0,1,1.954-1.787,8.438,8.438,0,0,1-1.134-1.658,3.213,3.213,0,0,1,.567-3.515,3.209,3.209,0,0,1,2.32-.82,3.113,3.113,0,0,1,2.163.768,2.455,2.455,0,0,1,.855,1.918,2.713,2.713,0,0,1-.392,1.422,5.021,5.021,0,0,1-1.352,1.361l-.933.689,2.826,3.375a5.359,5.359,0,0,0,.593-2.521h1.456a6.077,6.077,0,0,1-1.073,3.689l1.814,2.172h-1.936l-.846-1a4.462,4.462,0,0,1-1.518.881,5.376,5.376,0,0,1-1.762.3,4.365,4.365,0,0,1-2.983-.986A3.286,3.286,0,0,1,92.185,252.134Zm4.108,2.267a3.394,3.394,0,0,0,2.346-.977l-3.1-3.707-.288.209a2.9,2.9,0,0,0-1.457,2.207,2.148,2.148,0,0,0,.663,1.648A2.593,2.593,0,0,0,96.293,254.4Zm-1.456-8.7a3.665,3.665,0,0,0,1.029,2.094l1.029-.724a2.763,2.763,0,0,0,.811-.794,1.841,1.841,0,0,0,.218-.925,1.238,1.238,0,0,0-.436-.968,1.586,1.586,0,0,0-1.1-.391,1.416,1.416,0,0,0-1.134.487A1.792,1.792,0,0,0,94.837,245.706Zm17.225,4.178a7.963,7.963,0,0,1-3.14-1.517,2.93,2.93,0,0,1-.977-2.233,3.063,3.063,0,0,1,1.195-2.476,4.765,4.765,0,0,1,3.122-.986,5.171,5.171,0,0,1,2.329.506,3.8,3.8,0,0,1,1.587,1.395,3.544,3.544,0,0,1,.567,1.945h-1.683a2.3,2.3,0,0,0-.733-1.806,2.978,2.978,0,0,0-2.067-.662,3.063,3.063,0,0,0-1.936.548,1.811,1.811,0,0,0-.689,1.509,1.651,1.651,0,0,0,.654,1.317,6.6,6.6,0,0,0,2.241.977,10.178,10.178,0,0,1,2.478.985,3.683,3.683,0,0,1,1.325,1.248,3.164,3.164,0,0,1,.436,1.684,2.978,2.978,0,0,1-1.2,2.476,5.141,5.141,0,0,1-3.218.925,6.012,6.012,0,0,1-2.442-.5,4.172,4.172,0,0,1-1.753-1.378,3.367,3.367,0,0,1-.611-1.979h1.683a2.2,2.2,0,0,0,.846,1.822,3.613,3.613,0,0,0,2.276.663,3.287,3.287,0,0,0,2.033-.541,1.755,1.755,0,0,0,.707-1.473,1.714,1.714,0,0,0-.654-1.439A7.471,7.471,0,0,0,112.062,249.883Zm12.437,5.661a3.424,3.424,0,0,1-.227-.995,3.6,3.6,0,0,1-2.686,1.169,3.357,3.357,0,0,1-2.293-.785,2.57,2.57,0,0,1-.89-2.005,2.658,2.658,0,0,1,1.117-2.286,5.285,5.285,0,0,1,3.157-.82h1.569v-.742a1.8,1.8,0,0,0-.5-1.342,2.022,2.022,0,0,0-1.492-.506,2.349,2.349,0,0,0-1.448.436,1.286,1.286,0,0,0-.585,1.056H118.6a2.221,2.221,0,0,1,.5-1.361,3.433,3.433,0,0,1,1.36-1.047,4.615,4.615,0,0,1,1.893-.384,3.713,3.713,0,0,1,2.555.82,2.926,2.926,0,0,1,.96,2.241v4.343a5.318,5.318,0,0,0,.332,2.068v.14Zm-2.677-1.23a2.837,2.837,0,0,0,1.439-.393,2.373,2.373,0,0,0,.985-1.019v-1.937h-1.264q-2.965,0-2.966,1.736a1.468,1.468,0,0,0,.506,1.185A1.943,1.943,0,0,0,121.822,254.314Zm12.393,1.23a3.425,3.425,0,0,1-.227-.995,3.6,3.6,0,0,1-2.686,1.169,3.36,3.36,0,0,1-2.294-.785,2.573,2.573,0,0,1-.889-2.005,2.66,2.66,0,0,1,1.115-2.286,5.291,5.291,0,0,1,3.158-.82h1.569v-.742a1.8,1.8,0,0,0-.506-1.342,2.017,2.017,0,0,0-1.491-.506,2.349,2.349,0,0,0-1.448.436,1.283,1.283,0,0,0-.585,1.056h-1.621a2.227,2.227,0,0,1,.5-1.361,3.446,3.446,0,0,1,1.361-1.047,4.615,4.615,0,0,1,1.893-.384,3.713,3.713,0,0,1,2.555.82,2.926,2.926,0,0,1,.96,2.241v4.343a5.318,5.318,0,0,0,.332,2.068v.14Zm-2.677-1.23a2.837,2.837,0,0,0,1.439-.393,2.38,2.38,0,0,0,.985-1.019v-1.937H132.7q-2.967,0-2.966,1.736a1.468,1.468,0,0,0,.506,1.185A1.943,1.943,0,0,0,131.538,254.314Zm12.062-1.272a1.173,1.173,0,0,0-.5-1.012,4.635,4.635,0,0,0-1.717-.628,8.194,8.194,0,0,1-1.945-.628,2.809,2.809,0,0,1-1.064-.872,2.1,2.1,0,0,1-.34-1.2,2.454,2.454,0,0,1,.977-1.963,3.851,3.851,0,0,1,2.513-.8,3.927,3.927,0,0,1,2.6.829,2.625,2.625,0,0,1,1,2.119H143.5a1.448,1.448,0,0,0-.567-1.142,2.085,2.085,0,0,0-1.412-.48,2.2,2.2,0,0,0-1.378.384,1.207,1.207,0,0,0-.5,1,.978.978,0,0,0,.462.88,5.642,5.642,0,0,0,1.666.567,8.692,8.692,0,0,1,1.962.646,2.8,2.8,0,0,1,1.108.907,2.18,2.18,0,0,1,.366,1.282,2.426,2.426,0,0,1-1.012,2.031,4.259,4.259,0,0,1-2.625.759,4.747,4.747,0,0,1-2.007-.4,3.305,3.305,0,0,1-1.37-1.117,2.737,2.737,0,0,1-.489-1.56h1.614a1.684,1.684,0,0,0,.646,1.29,2.557,2.557,0,0,0,1.605.471,2.6,2.6,0,0,0,1.464-.366A1.144,1.144,0,0,0,143.6,253.042Z" transform="translate(11.029 -241.835)" fill="#a6a7b6"/>
          <path id="Path_17814" data-name="Path 17814" d="M46.931,267.677a13.589,13.589,0,0,1,.523-3.785,11.077,11.077,0,0,1,1.579-3.3A6.707,6.707,0,0,1,51.2,258.5l.331,1.064a6.971,6.971,0,0,0-2.093,2.982,13,13,0,0,0-.89,4.492l-.009.742a13,13,0,0,0,1.23,5.844,6.981,6.981,0,0,0,1.762,2.319l-.331.986a6.917,6.917,0,0,1-2.215-2.162A12.127,12.127,0,0,1,46.931,267.677Zm6.419,5.155v-12.7h3.585a5.769,5.769,0,0,1,2.93.733,4.927,4.927,0,0,1,1.962,2.084,6.751,6.751,0,0,1,.706,3.106v.81a6.781,6.781,0,0,1-.7,3.149,4.841,4.841,0,0,1-1.98,2.075,6.111,6.111,0,0,1-2.992.742Zm1.675-11.32v9.951h1.762a3.824,3.824,0,0,0,3.009-1.2,4.959,4.959,0,0,0,1.081-3.429v-.74a5.016,5.016,0,0,0-1.02-3.359,3.6,3.6,0,0,0-2.878-1.22Zm15.621,11.32a3.384,3.384,0,0,1-.227-.995,3.6,3.6,0,0,1-2.686,1.169,3.359,3.359,0,0,1-2.294-.785,2.571,2.571,0,0,1-.89-2.005,2.661,2.661,0,0,1,1.116-2.286,5.288,5.288,0,0,1,3.157-.82h1.57v-.742a1.8,1.8,0,0,0-.506-1.342,2.02,2.02,0,0,0-1.491-.506,2.347,2.347,0,0,0-1.448.436,1.284,1.284,0,0,0-.584,1.056H64.741a2.222,2.222,0,0,1,.5-1.361A3.439,3.439,0,0,1,66.6,263.6a4.613,4.613,0,0,1,1.893-.384,3.715,3.715,0,0,1,2.555.82,2.926,2.926,0,0,1,.959,2.241v4.343a5.314,5.314,0,0,0,.331,2.068v.14Zm-2.678-1.23a2.835,2.835,0,0,0,1.439-.393,2.379,2.379,0,0,0,.986-1.019v-1.937H69.128q-2.966,0-2.965,1.736a1.466,1.466,0,0,0,.506,1.185A1.942,1.942,0,0,0,67.967,271.6Zm8.757-10.491v2.284h1.762v1.248H76.724V270.5a1.323,1.323,0,0,0,.235.854,1,1,0,0,0,.8.279,3.906,3.906,0,0,0,.768-.1v1.309a4.7,4.7,0,0,1-1.239.174,2.009,2.009,0,0,1-1.631-.654,2.81,2.81,0,0,1-.549-1.857v-5.853H73.392v-1.248h1.718v-2.284Zm9.48,11.722a3.384,3.384,0,0,1-.227-.995,3.6,3.6,0,0,1-2.686,1.169A3.359,3.359,0,0,1,81,272.221a2.571,2.571,0,0,1-.89-2.005,2.66,2.66,0,0,1,1.116-2.286,5.288,5.288,0,0,1,3.157-.82h1.57v-.742a1.8,1.8,0,0,0-.506-1.342,2.02,2.02,0,0,0-1.491-.506,2.347,2.347,0,0,0-1.448.436,1.284,1.284,0,0,0-.584,1.056H80.3a2.221,2.221,0,0,1,.5-1.361,3.437,3.437,0,0,1,1.361-1.047,4.612,4.612,0,0,1,1.893-.384,3.715,3.715,0,0,1,2.556.82,2.926,2.926,0,0,1,.959,2.241v4.343a5.311,5.311,0,0,0,.332,2.068v.14Zm-2.678-1.23a2.835,2.835,0,0,0,1.439-.393,2.379,2.379,0,0,0,.986-1.019v-1.937H84.687q-2.965,0-2.965,1.736a1.466,1.466,0,0,0,.506,1.185A1.942,1.942,0,0,0,83.527,271.6Zm10.658-2.18a3,3,0,0,1,.506-1.684,7.857,7.857,0,0,1,1.954-1.787,8.43,8.43,0,0,1-1.134-1.658,3.212,3.212,0,0,1,.567-3.515,3.209,3.209,0,0,1,2.32-.82,3.113,3.113,0,0,1,2.163.768,2.455,2.455,0,0,1,.855,1.918,2.713,2.713,0,0,1-.392,1.422,5.019,5.019,0,0,1-1.352,1.361l-.933.689,2.826,3.375a5.359,5.359,0,0,0,.593-2.521h1.456a6.077,6.077,0,0,1-1.073,3.689l1.814,2.172h-1.936l-.846-1a4.463,4.463,0,0,1-1.518.881,5.376,5.376,0,0,1-1.762.3,4.365,4.365,0,0,1-2.983-.986A3.286,3.286,0,0,1,94.185,269.422Zm4.108,2.267a3.394,3.394,0,0,0,2.346-.977l-3.1-3.707-.288.209a2.9,2.9,0,0,0-1.457,2.207,2.148,2.148,0,0,0,.663,1.648A2.593,2.593,0,0,0,98.293,271.689Zm-1.456-8.7a3.665,3.665,0,0,0,1.029,2.094l1.029-.724a2.763,2.763,0,0,0,.811-.794,1.84,1.84,0,0,0,.218-.925,1.238,1.238,0,0,0-.436-.968,1.586,1.586,0,0,0-1.1-.391,1.416,1.416,0,0,0-1.134.487A1.792,1.792,0,0,0,96.836,262.994Zm15.158,4.867v4.972H110.32v-12.7H115a4.685,4.685,0,0,1,3.263,1.064,4.012,4.012,0,0,1,.026,5.668,4.913,4.913,0,0,1-3.306.995Zm0-1.37H115a3.033,3.033,0,0,0,2.059-.627,2.324,2.324,0,0,0,.715-1.832,2.385,2.385,0,0,0-.715-1.815,2.821,2.821,0,0,0-1.963-.705h-3.1Zm13.9-1.648a4.787,4.787,0,0,0-.794-.061,2.124,2.124,0,0,0-2.154,1.352v6.7h-1.614v-9.437h1.57l.026,1.091a2.51,2.51,0,0,1,2.25-1.265,1.657,1.657,0,0,1,.715.122Zm3.244,7.989h-1.613v-9.437h1.613Zm-1.744-11.94a.973.973,0,0,1,.236-.663,1.08,1.08,0,0,1,1.43,0,.95.95,0,0,1,.244.663.92.92,0,0,1-.244.654.951.951,0,0,1-1.665-.654Zm7.448,9.75,2.338-7.247h1.648l-3.384,9.437h-1.23l-3.419-9.437h1.649Zm11.225,2.19a3.343,3.343,0,0,1-.227-.995,3.6,3.6,0,0,1-2.687,1.169,3.357,3.357,0,0,1-2.293-.785,2.57,2.57,0,0,1-.89-2.005,2.658,2.658,0,0,1,1.117-2.286,5.285,5.285,0,0,1,3.157-.82h1.57v-.742a1.8,1.8,0,0,0-.506-1.342,2.023,2.023,0,0,0-1.492-.506,2.349,2.349,0,0,0-1.448.436,1.286,1.286,0,0,0-.585,1.056h-1.621a2.221,2.221,0,0,1,.5-1.361,3.432,3.432,0,0,1,1.36-1.047,4.618,4.618,0,0,1,1.893-.384,3.713,3.713,0,0,1,2.555.82,2.922,2.922,0,0,1,.96,2.241v4.343a5.318,5.318,0,0,0,.332,2.068v.14Zm-2.678-1.23a2.837,2.837,0,0,0,1.439-.393,2.384,2.384,0,0,0,.986-1.019v-1.937h-1.265q-2.965,0-2.965,1.736a1.467,1.467,0,0,0,.5,1.185A1.945,1.945,0,0,0,143.393,271.6Zm10.353.087a2.321,2.321,0,0,0,1.508-.523,1.835,1.835,0,0,0,.715-1.307H157.5a2.923,2.923,0,0,1-.558,1.543,3.663,3.663,0,0,1-1.378,1.169,4.2,4.2,0,0,1-4.883-.846,5.149,5.149,0,0,1-1.134-3.523v-.27a5.668,5.668,0,0,1,.506-2.45,3.853,3.853,0,0,1,1.447-1.666,4.152,4.152,0,0,1,2.242-.593,3.766,3.766,0,0,1,2.633.951,3.386,3.386,0,0,1,1.125,2.468h-1.527a2.2,2.2,0,0,0-.7-1.5,2.127,2.127,0,0,0-1.534-.593,2.267,2.267,0,0,0-1.911.89,4.157,4.157,0,0,0-.672,2.555v.305a4.075,4.075,0,0,0,.672,2.511A2.268,2.268,0,0,0,153.746,271.689Zm8.652-1.22,2.2-7.074h1.727l-3.794,10.894q-.881,2.354-2.8,2.354l-.3-.026-.6-.113V275.2l.436.035a2.126,2.126,0,0,0,1.272-.33,2.377,2.377,0,0,0,.759-1.213l.358-.96-3.366-9.332h1.761Zm9.1-2.7a13.434,13.434,0,0,1-.515,3.733,10.907,10.907,0,0,1-1.562,3.289,6.793,6.793,0,0,1-2.2,2.145l-.34-.986a6.975,6.975,0,0,0,2.154-3.192,13.776,13.776,0,0,0,.838-4.814v-.279a14.254,14.254,0,0,0-.384-3.4,11.369,11.369,0,0,0-1.072-2.825,6.456,6.456,0,0,0-1.535-1.945l.34-.986a6.775,6.775,0,0,1,2.189,2.129,10.9,10.9,0,0,1,1.562,3.288A13.692,13.692,0,0,1,171.494,267.765Z" transform="translate(11.21 -237.935)" fill="#5e6679"/>
          <path id="Path_17815" data-name="Path 17815" d="M.28,248.046H27.128" transform="translate(-0.28 -240.511)" fill="none" stroke="#fff" stroke-miterlimit="10" stroke-width="0.584"/>
          <path id="Path_17816" data-name="Path 17816" d="M16.46,242,24,249.535,16.46,257.07" transform="translate(3.705 -242)" fill="none" stroke="#fff" stroke-miterlimit="10" stroke-width="0.584"/>
        </g>
        <g id="Group_3849" data-name="Group 3849" transform="translate(1368.019)">
          <path id="Path_17817" data-name="Path 17817" d="M1016.431,236.971l-6.593,6.593-6.618-6.593,6.593-6.6Zm16.028-16.039,11.316,11.319,6.605-6.6-17.922-17.933-17.922,17.933,6.593,6.6Zm22.633,9.44-6.593,6.6,6.593,6.593,6.605-6.593Zm-22.633,22.633-11.317-11.316-6.593,6.6,17.91,17.924,17.922-17.924-6.605-6.6Zm0-9.441,6.605-6.593-6.605-6.6-6.605,6.6Z" transform="translate(-1003.22 -207.723)" fill="#f5f5fb"/>
        </g>
        <path id="Path_17818" data-name="Path 17818" d="M1012.37,320.464l17.835-10.3,17.847,10.3V341.07L1030.2,351.376,1012.37,341.07Z" transform="translate(361.469 -186.229)" fill="none" stroke="#f5f5fb" stroke-miterlimit="10" stroke-width="6.095"/>
        <g id="Group_3851" data-name="Group 3851" transform="translate(1362.549 526.748)">
          <path id="Path_17777" data-name="Path 17777" d="M1031.885,662.647c-14.544,0-26.335-4.2-26.335-9.837,0-2.939,3.2-5.587,8.35-7.45,4,2.574,10.743,3.89,18.37,3.89,7.453,0,14.046-1.605,18.1-4.075,4.848,1.848,7.852,4.421,7.852,7.262C1058.219,658.083,1046.429,662.647,1031.885,662.647Z" transform="translate(-1005.55 -622.985)" fill="#fff"/>
          <path id="Path_17778" data-name="Path 17778" d="M1030.746,650.126c-11.017,0-19.966-3.457-19.966-7.722,0-2.366,2.754-4.49,7.079-5.9a32.878,32.878,0,0,0,25.786,0c4.325,1.417,7.079,3.531,7.079,5.9C1050.737,646.668,1041.788,650.126,1030.746,650.126Z" transform="translate(-1004.262 -625.119)" fill="#fff"/>
          <path id="Path_17779" data-name="Path 17779" d="M1029.792,640.11c-8.525,0-15.442-2.852-15.442-6.367s6.917-6.372,15.442-6.372,15.442,2.864,15.442,6.372S1038.329,640.11,1029.792,640.11Z" transform="translate(-1003.383 -627.37)" fill="#fff"/>
        </g>
        <g id="Group_3850" data-name="Group 3850" transform="translate(1375.746 251.41)">
          <path id="Path_17765" data-name="Path 17765" d="M1021.724,420.827c-.735-.1-.76-.141-.411-.174a11.455,11.455,0,0,1,3.265.277c2.505.6,4.773,2.127,7.179,4.814l.636.73.9-.138a19.569,19.569,0,0,1,11.167,1.39,14.035,14.035,0,0,1,2.505,1.469,3.026,3.026,0,0,1,.237.975,5.87,5.87,0,0,1-.374,3.8,1.064,1.064,0,0,0,.835,1.711c.835,0,1.707-1.327,2.131-3.174l.162-.732.324.348a13.8,13.8,0,0,1,3.377,6.689l.062.526-.312-.45a5.651,5.651,0,0,0-1.67-1.776c-1.184-.806-2.443-1.053-5.746-1.224a23.559,23.559,0,0,1-6.381-.976c-2.854-.942-4.325-2.161-7.7-6.657a31.956,31.956,0,0,0-3.377-3.973A11.891,11.891,0,0,0,1021.724,420.827Z" transform="translate(-998.716 -405.449)" fill="#f5f5fb"/>
          <path id="Path_17766" data-name="Path 17766" d="M1043.371,425.046a7.4,7.4,0,0,1,.623-3,2.337,2.337,0,0,1,.312-.591c.037,0-.037.243-.15.525a6.917,6.917,0,0,0-.125,3.066c.237,1.573.349,1.781,2.019,3.487.773.805,1.67,1.813,2.019,2.232l.6.769-.6-.563a20.237,20.237,0,0,0-2.792-2.194c-.237-.133-.274-.133-.449.031-.137.142-.175.348-.175,1.367a7.651,7.651,0,0,1-.76,3.552c-.287.521-.324.416-.075-.174a5.078,5.078,0,0,0,.212-2.164c0-3.031-.349-3.765-2.48-4.987-.511-.31-1.421-.76-1.944-1.007a7.281,7.281,0,0,1-.947-.455,15.828,15.828,0,0,1,2.929.872c1.221.482,1.433.526,1.57.482C1043.259,426.195,1043.334,425.918,1043.371,425.046Z" transform="translate(-994.39 -405.243)" fill="#f5f5fb"/>
          <path id="Path_17767" data-name="Path 17767" d="M1023.19,430.134a12.2,12.2,0,0,1-2.193-7.5l.062-.727.349.07a8.183,8.183,0,0,1,2.231.834c1.4.841,2.019,1.983,2.617,4.844.175.841.411,1.813.523,2.126a11.905,11.905,0,0,0,1.4,2.509c.374.56.125.835-.735.765A7.06,7.06,0,0,1,1023.19,430.134Z" transform="translate(-998.748 -405.132)" fill="#f5f5fb"/>
          <path id="Path_17768" data-name="Path 17768" d="M1042.857,442.718c-6.9-2.789-9.347-5.195-9.347-9.278,0-.592.037-1.076.037-1.076a5.537,5.537,0,0,1,.6.452c1.4,1.114,2.966,1.6,7.316,2.231a30.372,30.372,0,0,1,5.334,1.115c4.213,1.392,6.83,4.251,7.453,8.12a13.845,13.845,0,0,1-.212,4.356,8.653,8.653,0,0,1-1.109,2.514c-.037,0-.1-.172-.1-.455a5.7,5.7,0,0,0-2.031-3.938C1049.338,445.5,1047.456,444.563,1042.857,442.718Z" transform="translate(-995.658 -402.556)" fill="#f5f5fb"/>
          <path id="Path_17770" data-name="Path 17770" d="M1039.815,447.275a8.185,8.185,0,0,1-.636-5.642c.075-.174.137-.348.212-.348a1.319,1.319,0,0,1,.486.249c.424.27,1.3.758,3.527,1.983a17.715,17.715,0,0,1,5.533,4.079,8.616,8.616,0,0,1,1.844,4.216,14.025,14.025,0,0,1-.162,4.145,10.293,10.293,0,0,1-5.06,6.689,5.865,5.865,0,0,1-.723.354,2.248,2.248,0,0,1,.3-.767,6.948,6.948,0,0,0,.324-5.4,21.666,21.666,0,0,0-2.792-5.018A31.855,31.855,0,0,1,1039.815,447.275Z" transform="translate(-994.323 -400.359)" fill="#f5f5fb"/>
          <path id="Path_17771" data-name="Path 17771" d="M1018.945,455.5a19.029,19.029,0,0,1,8.674-4.181,13.133,13.133,0,0,1,4.512.174,7.781,7.781,0,0,1,4.387,2.822,10.5,10.5,0,0,1,1.6,4.738c.137.95.324,1.919.361,2.13a4.644,4.644,0,0,0,1.52,2.752c1.084.805,2.966.839,4.811.141a2.715,2.715,0,0,1,.6-.177,5.247,5.247,0,0,1-1.508,1.011,4.864,4.864,0,0,1-2.505.6,5.021,5.021,0,0,1-4.25-2.612,18.156,18.156,0,0,1-1.147-2.3c-1.221-2.824-1.844-3.662-3.278-4.605a4.325,4.325,0,0,0-4.088-.386,2.626,2.626,0,0,0-.9,4.08,3.573,3.573,0,0,0,1.982,1.049,2.137,2.137,0,0,0,2.418-2.126,1.661,1.661,0,0,0-1.159-1.706c-1.109-.489-2.343.07-2.306,1.149a.975.975,0,0,0,.673.941c.274.136.274.136.062.1a1.288,1.288,0,0,1-.449-2.263,2.505,2.505,0,0,1,3.726.805,3.644,3.644,0,0,1,.075,2.37,3.271,3.271,0,0,1-3.988,1.881c-1.147-.317-1.633-.627-3.016-2.058-2.443-2.51-3.39-3-6.867-3.522l-.673-.107Z" transform="translate(-999.427 -397.916)" fill="#f5f5fb"/>
          <path id="Path_17772" data-name="Path 17772" d="M1004.324,409.951c8.113,9.867,20.639,25.2,21.262,26.037.523.7.324,1.36-.561,1.846a5.244,5.244,0,0,1-1.982.56,2.507,2.507,0,0,1-1.67-.732c-.324-.315-1.683-2.3-4.736-7.073-2.355-3.662-4.337-6.7-4.362-6.726-.137-.072-.137-.072,4.113,7.523,2.679,4.777,3.552,6.483,3.552,6.691,0,.459-.137.7-.7,1.329-.947,1.039-1.359,2.232-1.67,4.7-.349,2.757-1.3,4.706-3.976,8.021a14.316,14.316,0,0,0-2.193,3.1,5.818,5.818,0,0,0-.7,2.786,8.8,8.8,0,0,0,.449,3.417,11.631,11.631,0,0,0,1.682,3.283,7.892,7.892,0,0,1,1.271,2.542c0,.279.087.279,1.333,0,3-.7,5.471-1.883,6.83-3.348a3.136,3.136,0,0,0,1.047-2.655,2.833,2.833,0,0,0-.237-1.463,6.258,6.258,0,0,0-2.443-2.367c-1.882-1.294-2.679-2.333-2.891-3.729-.175-1.187.025-1.989,1.072-4.181a12.652,12.652,0,0,0,1.546-5.509c.1-1.471.274-2.059.685-2.515a2.652,2.652,0,0,1,1.932-.8,6.4,6.4,0,0,0,3.826-1.57,3.294,3.294,0,0,0,1.184-2.545l.037-.8-.449-.489c-1.645-1.881-24.34-26.84-24.44-26.84C1003.1,408.451,1003.664,409.117,1004.324,409.951Zm10.706,49.561a1.436,1.436,0,0,0-.461-1.912c-.586-.384-1.5-.212-1.5.313a.366.366,0,0,0,.274.349c.324.173.349.344.112.728s-.237.74.062.975A1,1,0,0,0,1015.03,459.512Z" transform="translate(-1003.139 -408.447)" fill="#f5f5fb"/>
          <path id="Path_17773" data-name="Path 17773" d="M1024.4,434.725a3.122,3.122,0,0,0-1.894,2.063,3.091,3.091,0,0,0,.175,1.886c.386.484.735.624,1.72.624,1.907,0,3.552-.841,3.714-1.848a2.651,2.651,0,0,0-1.558-2.508A3.534,3.534,0,0,0,1024.4,434.725Zm2.219,1.744a.787.787,0,0,0-.337-1.182c-.947-.594-2.38-.1-2.38.8,0,.461.735.948,1.433.948A1.89,1.89,0,0,0,1026.616,436.469Z" transform="translate(-998.386 -401.995)" fill="#f5f5fb"/>
        </g>
        <path id="Path_17819" data-name="Path 17819" d="M1013.813,529.664l4.387-2.324.523,1.037,16-9.3-1.034-.778-1.284-.77-.523-.261-26.335,15.236v.513l7.49-4.133Zm0,9.807,12.65-7.488.523,1.037,16.252-9.3-1.284-.774-1.284-.516-.523-.258-34.6,19.881v.516l7.49-4.13Zm0,4.651,16.775-9.554.524.775,16.264-9.294-1.284-.515-1.3-.776-.523-.257-38.723,22.2v.771l7.49-4.386Zm0,4.645,20.913-11.872.523.771,16.252-9.033-1.284-.774-1.3-.78-.523-.257-42.848,24.785v.515l7.49-4.13Zm0,4.905,25.038-14.458.523,1.034,16.264-9.3-1.3-.771-1.034-.517-.773-.517-46.986,27.108v.774l7.49-4.388Zm43.371-21.689-.523-.513-51.111,29.691v.52l7.49-4.136.773,1.039,25.038-14.719.523,1.034,18.844-10.59v-1.8ZM1008.9,564.777l4.138-2.585.511,1.037,25.3-14.462.523,1.032,18.844-10.844V535.6l-50.089,28.664Zm29.949-11.1.523,1.034,18.844-11.1V540.25l-45.964,26.589.785.265,4.125-2.587.773,1.033Zm-21.686,15.75,4.4-2.319.511,1.028,16.775-9.813.523,1.037,18.844-10.844v-3.356l-41.826,24.015Zm4.125,2.324,4.4-2.324.511,1.033,12.65-7.227.523,1.033,18.844-10.844V549.8l-37.7,21.693Zm3.365,2.061.773.517,4.387-2.577.523,1.028,8.512-4.9.523,1.033,18.844-10.844v-3.356Zm4.91,2.843,4.125-2.58.773,1.033,4.387-2.328.523,1.032,18.844-10.842v-3.611l-29.164,17.038Zm9.547-55.246-1.284-.776-1.3-.514-.511-.523-30.472,17.56v.771l7.49-4.389.773,1.036,8.525-4.905.511,1.032Z" transform="translate(361.984 -122.755)" fill="#f5f5fb"/>
      </g>
    </g>
    <g id="loog-dark" transform="translate(980 1582.48)">
      <g id="Layer_1" data-name="Layer 1" transform="translate(0 10.448)">
        <path id="Path_1" data-name="Path 1" d="M2.265,51.277H0V40.672Q0,36.394,4.272,36.4h1.76v2.265H4.272a1.774,1.774,0,0,0-2.007,2.007Z" transform="translate(0 -24.747)" fill="#fff"/>
        <path id="Path_2" data-name="Path 2" d="M24.064,36.4q4.3,0,4.3,4.272v6.361c0,2.835-1.431,4.244-4.3,4.244H19.01q-4.277,0-4.277-4.3V40.672q0-4.277,4.277-4.272ZM19.01,38.665A1.774,1.774,0,0,0,17,40.672v6.306a1.789,1.789,0,0,0,2.007,2.034h5.054a1.777,1.777,0,0,0,2.034-1.98V40.672a1.786,1.786,0,0,0-2.034-2.007Z" transform="translate(-6.654 -24.747)" fill="#fff"/>
        <path id="Path_3" data-name="Path 3" d="M48.642,41.756a1.789,1.789,0,0,0,2.007,2.034H55.7a1.8,1.8,0,0,0,2.034-2.034V35.45A1.786,1.786,0,0,0,55.7,33.443H49.946V31.179h5.76q4.3,0,4.3,4.272v6.306q0,4.3-4.3,4.3H50.652q-4.277,0-4.277-4.3V24.84h2.27Z" transform="translate(-20.944 -19.527)" fill="#fff"/>
        <path id="Path_4" data-name="Path 4" d="M87.327,36.4q4.3,0,4.3,4.272v6.361c0,2.835-1.431,4.244-4.3,4.244H82.287q-4.277,0-4.277-4.3V40.672q0-4.277,4.277-4.272Zm-5.054,2.265a1.774,1.774,0,0,0-2.007,2.007v6.306a1.789,1.789,0,0,0,2.007,2.034h5.054a1.777,1.777,0,0,0,2.034-1.98V40.672a1.786,1.786,0,0,0-2.034-2.007Z" transform="translate(-35.233 -24.747)" fill="#fff"/>
        <path id="Path_5" data-name="Path 5" d="M107,31.179h1.19V24.84h2.27v6.339H113.1v2.265H110.46V46.056h-2.27V33.443H107Z" transform="translate(-48.326 -19.527)" fill="#fff"/>
        <path id="Path_6" data-name="Path 6" d="M130.008,36.4q4.3,0,4.3,4.272v6.361c0,2.835-1.437,4.244-4.3,4.244h-5.054q-4.266,0-4.272-4.3V40.672q0-4.277,4.272-4.272Zm-5.054,2.265a1.774,1.774,0,0,0-2.007,2.007v6.306a1.789,1.789,0,0,0,2.007,2.034h5.054a1.772,1.772,0,0,0,2.034-1.98V40.672a1.785,1.785,0,0,0-2.034-2.007Z" transform="translate(-54.506 -24.747)" fill="#fff"/>
        <path id="Path_7" data-name="Path 7" d="M157.54,47.024V44.968h7.292a1.629,1.629,0,0,0,1.842-1.842V39.682a1.93,1.93,0,0,0-.433-1.333,1.645,1.645,0,0,0-1.305-.488h-7.4V35.84h7.452a1.634,1.634,0,0,0,1.684-1.87V31.7a1.618,1.618,0,0,0-1.842-1.815h-7.292V27.81h7.292q3.9,0,3.893,3.893v2.243a4.063,4.063,0,0,1-.97,2.868,4.036,4.036,0,0,1,.97,2.846V43.1q0,3.9-3.893,3.9Z" transform="translate(-71.152 -20.868)" fill="#16becf"/>
        <path id="Path_8" data-name="Path 8" d="M192.571,44.967a1.606,1.606,0,0,0,1.842-1.788v-3.5a1.621,1.621,0,0,0-1.842-1.821h-5.237V35.839h5.212q3.888,0,3.893,3.839v3.5q0,3.839-3.893,3.839h-4.584q-3.839,0-3.866-3.9V31.7q0-3.888,3.866-3.893h7.32v2.078h-7.3a1.607,1.607,0,0,0-1.815,1.815V43.124a1.618,1.618,0,0,0,1.815,1.842Z" transform="translate(-83.147 -20.867)" fill="#16becf"/>
        <path id="Path_9" data-name="Path 9" d="M212.46,31.7q0-3.888,3.839-3.893h5.714q3.888,0,3.893,3.893V43.179q0,3.839-3.893,3.839h-5.687q-3.839,0-3.839-3.9Zm9.579,13.265a1.6,1.6,0,0,0,1.842-1.788V31.7a1.618,1.618,0,0,0-1.842-1.815h-5.714A1.6,1.6,0,0,0,214.51,31.7V43.124a1.616,1.616,0,0,0,1.815,1.842Z" transform="translate(-95.957 -20.867)" fill="#16becf"/>
        <path id="Path_10" data-name="Path 10" d="M79.28,81.739V75.35h1.645v4.476h31.939V75.35h1.645v6.389Z" transform="translate(-35.806 -42.339)" fill="#fff"/>
        <path id="Path_11" data-name="Path 11" d="M114.442,15.15v6.361H112.8V17.035H80.885v4.476H79.24V15.15Z" transform="translate(-35.789 -15.15)" fill="#fff"/>
        <rect id="Rectangle_1" data-name="Rectangle 1" width="2.879" height="2.879" transform="translate(47.794 16.166)" fill="#16becf"/>
        <rect id="Rectangle_2" data-name="Rectangle 2" width="2.879" height="2.879" transform="translate(71.922 16.166)" fill="#16becf"/>
        <rect id="Rectangle_3" data-name="Rectangle 3" width="6.032" height="1.645" transform="translate(53.804 30.697)" fill="#fff"/>
        <rect id="Rectangle_4" data-name="Rectangle 4" width="6.032" height="1.645" transform="translate(62.073 30.697)" fill="#fff"/>
        <path id="Path_12" data-name="Path 12" d="M111.7,70.893A2.193,2.193,0,1,1,109.5,68.7,2.193,2.193,0,0,1,111.7,70.893Z" transform="translate(-48.466 -39.336)" fill="#fff"/>
      </g>
    </g>
  </g>
</svg>
