<svg id="Group_3629" data-name="Group 3629" xmlns="http://www.w3.org/2000/svg" width="106.709" height="88" viewBox="0 0 106.709 88">
  <ellipse id="Ellipse_64" data-name="Ellipse 64" cx="41.5" cy="42" rx="41.5" ry="42" transform="translate(9)" fill="#e4fcfe"/>
  <g id="dai" transform="translate(30.327 21.694)">
    <path id="Path_1768" data-name="Path 1768" d="M22.6-503.761a16.636,16.636,0,0,0-5.476,1.629,14.849,14.849,0,0,0-4.175,2.972,15.255,15.255,0,0,0-3.2,4.405,16.373,16.373,0,0,0,1.711,17.309,17.491,17.491,0,0,0,5.476,4.536,1.3,1.3,0,0,1,.761.762,16.721,16.721,0,0,0,3.233,4.323,15.211,15.211,0,0,0,4.224,2.948,16.333,16.333,0,0,0,18.679-3.16,15.576,15.576,0,0,0,3.078-4.3A16.373,16.373,0,0,0,45.2-489.645a17.492,17.492,0,0,0-5.476-4.536,1.3,1.3,0,0,1-.761-.761,17.5,17.5,0,0,0-4.535-5.478,16.805,16.805,0,0,0-8.324-3.341A20.017,20.017,0,0,0,22.6-503.761Zm3.34,1.31a15.112,15.112,0,0,1,10.174,5.527,8.494,8.494,0,0,1,1.113,1.638,6.426,6.426,0,0,1-.909-.18l-.876-.221-.524-.622a13.7,13.7,0,0,0-9.945-4.9,13.375,13.375,0,0,0-4.936.712,13.647,13.647,0,0,0-8.652,8.663,12.177,12.177,0,0,0-.671,3.316,13.431,13.431,0,0,0,1.457,7.263,13.56,13.56,0,0,0,3.315,4.233l.712.606.213.868a4.379,4.379,0,0,1,.18.9,1.652,1.652,0,0,1-.516-.287,16.043,16.043,0,0,1-4.617-4.855,15.078,15.078,0,0,1,1.6-17.6,15.579,15.579,0,0,1,4.617-3.553,15.242,15.242,0,0,1,5.451-1.539A18.087,18.087,0,0,1,25.938-502.451Zm-.532,2.53a12.266,12.266,0,0,1,4.027,1.04,12.38,12.38,0,0,1,3.577,2.456l.467.475-.909-.025a16.422,16.422,0,0,0-6.712,1.294c-.409.18-.761.328-.778.328a.542.542,0,0,1-.025-.237c0-.18.049-.254.246-.336a2.078,2.078,0,0,0,1.064-1.736,2.19,2.19,0,0,0-1.1-1.769,2.7,2.7,0,0,0-1.743.008,2.028,2.028,0,0,0-.99,2.366,2.234,2.234,0,0,0,.966,1.13c.246.1.246.106.246.737,0,.573-.016.639-.18.712a17.986,17.986,0,0,0-2.6,2.039l-.712.688H19.161v-.4c0-.368.016-.409.246-.5a2.078,2.078,0,0,0,1.064-1.736,2.189,2.189,0,0,0-1.1-1.769,2.705,2.705,0,0,0-1.743.008,2.028,2.028,0,0,0-.99,2.366,2.235,2.235,0,0,0,.966,1.13l.246.1v.86c0,.794.016.868.2,1.048.164.172.278.2.647.2h.45l-.426.647-.426.647-.622.008c-.622.008-.63.008-.728-.237a2.234,2.234,0,0,0-1.13-.966,2.027,2.027,0,0,0-2.366.991,2.708,2.708,0,0,0-.008,1.744,2.188,2.188,0,0,0,1.768,1.1,2.077,2.077,0,0,0,1.735-1.064c.082-.2.156-.246.336-.246a.54.54,0,0,1,.237.025c0,.016-.147.368-.327.778A16.435,16.435,0,0,0,15.9-479.3l.025.909-.475-.467a11.135,11.135,0,0,1-.974-1.105,12.434,12.434,0,0,1,.548-15.8,12.548,12.548,0,0,1,8.1-4.143A9.2,9.2,0,0,1,25.406-499.921ZM24.85-497.1a.646.646,0,0,1-.45,1.105.691.691,0,0,1-.655-.655.691.691,0,0,1,.655-.655A.638.638,0,0,1,24.85-497.1Zm8.947,2.505a15.3,15.3,0,0,1,9.8,5.06,15.056,15.056,0,0,1-.115,19.929,15.056,15.056,0,0,1-17.909,3.472,15.091,15.091,0,0,1-8.284-11.946,15.179,15.179,0,0,1,4.944-12.773A15.184,15.184,0,0,1,33.8-494.591Zm-14.84.77a.646.646,0,0,1-.45,1.105.691.691,0,0,1-.655-.655.691.691,0,0,1,.655-.655A.638.638,0,0,1,18.956-493.821Zm-3.274,5.9a.646.646,0,0,1-.45,1.105.691.691,0,0,1-.655-.655.691.691,0,0,1,.655-.655A.638.638,0,0,1,15.682-487.926Z" transform="translate(-8.031 503.838)" fill="#16becf"/>
    <path id="Path_1769" data-name="Path 1769" d="M147.917-375.8a13.718,13.718,0,0,0-7.561,3.618,13.628,13.628,0,0,0-.462,19.3,13.623,13.623,0,0,0,16.056,2.7,13.578,13.578,0,0,0,7.383-12.567,12.921,12.921,0,0,0-1.485-5.76A13.637,13.637,0,0,0,147.917-375.8Zm4.178,1.4a11.884,11.884,0,0,1,6.328,3.407,11.968,11.968,0,0,1,3.448,6.539,15.27,15.27,0,0,1,0,4.3,12.223,12.223,0,0,1-3.732,6.831,12.373,12.373,0,0,1-6.255,3.156,14.688,14.688,0,0,1-4.3,0,11.969,11.969,0,0,1-6.539-3.448,11.968,11.968,0,0,1-3.448-6.539,14.689,14.689,0,0,1,0-4.3,11.943,11.943,0,0,1,3.448-6.539,11.981,11.981,0,0,1,7.513-3.594A18.551,18.551,0,0,1,152.095-374.4Z" transform="translate(-125.363 386.671)" fill="#16becf"/>
    <path id="Path_1770" data-name="Path 1770" d="M218.173-295.9l-.2.2v4.795H217.2c-.714,0-.8.016-.974.2a.6.6,0,0,0,0,.892c.178.187.26.2.974.2h.771v1.3H217.2c-.714,0-.8.016-.974.2a.6.6,0,0,0,0,.892c.178.187.26.2.974.2h.771v4.795l.2.2.2.2,3.31-.024c3.594-.041,3.659-.041,4.933-.568a7.366,7.366,0,0,0,3.943-4.267l.105-.341h.917c.868,0,.925-.008,1.111-.2a.6.6,0,0,0,0-.892c-.178-.187-.26-.2-.974-.2h-.771v-1.3h.771c.714,0,.8-.016.974-.2a.6.6,0,0,0,0-.892c-.187-.195-.243-.2-1.111-.2h-.917l-.105-.349a7.375,7.375,0,0,0-3.943-4.259c-1.274-.527-1.339-.527-4.933-.568l-3.31-.024Zm6.709,1.217a5.951,5.951,0,0,1,4.243,3.326l.2.454h-10.06v-3.894h2.507A21.763,21.763,0,0,1,224.882-294.68Zm4.77,5.728v.649H219.268v-1.3h10.385Zm-.487,2.312a6.047,6.047,0,0,1-3.091,3.059c-.982.414-1.525.471-4.3.471h-2.507v-3.894H229.32Z" transform="translate(-198.891 313.195)" fill="#16becf"/>
  </g>
  <g id="Group_3628" data-name="Group 3628" transform="translate(0 4.134)">
    <g id="Group_3626" data-name="Group 3626" transform="translate(0.364 62.987)" opacity="0.56">
      <rect id="Rectangle_6364" data-name="Rectangle 6364" width="1.933" height="14.498" rx="0.967" transform="translate(6.282)" fill="#16becf"/>
      <rect id="Rectangle_6365" data-name="Rectangle 6365" width="1.933" height="14.498" rx="0.967" transform="translate(14.498 6.282) rotate(90)" fill="#16becf"/>
    </g>
    <g id="Group_3627" data-name="Group 3627" transform="matrix(0.695, 0.719, -0.719, 0.695, 101.002, 9.828)" opacity="0.56">
      <rect id="Rectangle_6364-2" data-name="Rectangle 6364" width="1.933" height="14.498" rx="0.967" transform="translate(6.282 0)" fill="#16becf"/>
      <rect id="Rectangle_6365-2" data-name="Rectangle 6365" width="1.933" height="14.498" rx="0.967" transform="translate(14.498 6.282) rotate(90)" fill="#16becf"/>
    </g>
    <g id="Ellipse_69" data-name="Ellipse 69" transform="translate(0 -0.134)" fill="#fff" stroke="#7bdae4" stroke-width="1.5">
      <ellipse cx="7" cy="7.5" rx="7" ry="7.5" stroke="none"/>
      <ellipse cx="7" cy="7.5" rx="6.25" ry="6.75" fill="none"/>
    </g>
    <g id="Ellipse_71" data-name="Ellipse 71" transform="translate(85 68.866)" fill="#fff" stroke="#7bdae4" stroke-width="1.5">
      <ellipse cx="6.5" cy="7.5" rx="6.5" ry="7.5" stroke="none"/>
      <ellipse cx="6.5" cy="7.5" rx="5.75" ry="6.75" fill="none"/>
    </g>
    <g id="Ellipse_70" data-name="Ellipse 70" transform="translate(81 -0.134)" fill="#aae7ed" stroke="#aae7ed" stroke-width="1.5">
      <circle cx="3" cy="3" r="3" stroke="none"/>
      <circle cx="3" cy="3" r="2.25" fill="none"/>
    </g>
  </g>
</svg>
