<svg xmlns="http://www.w3.org/2000/svg" width="64.622" height="50.714" viewBox="0 0 64.622 50.714">
  <g id="Group_6631" data-name="Group 6631" transform="translate(-1168 -2933.643)">
    <g id="Group_5624" data-name="Group 5624" transform="translate(1796 2947.719)">
      <g id="Group_4016" data-name="Group 4016" transform="translate(-628 -14.076)">
        <g id="btc" transform="translate(0 0)" opacity="0.26">
          <ellipse id="Oval" cx="25.511" cy="25.357" rx="25.511" ry="25.357" transform="translate(0 0)" fill="#21bdca"/>
        </g>
      </g>
    </g>
    <g id="coding-_2_" transform="translate(1189 3442.843)">
      <path id="Path_25651" data-name="Path 25651" d="M22.827-503.8a19.606,19.606,0,0,0-8.5,2.673c-.506.306-.62.435-.62.713,0,.335.178.463,1.119.777.777.257.955.342,1.2.592a1.473,1.473,0,0,1,.456,1.012,3.851,3.851,0,0,1-.15.641,2.543,2.543,0,0,0-.121,1.048c.036.549.057.606.863,2.224l.827,1.668-.378.107a2.088,2.088,0,0,0-1.062,3.315,14.92,14.92,0,0,0,1.361,1.176l1.119.9.242.713c.135.392.413,1.069.62,1.5s.385.806.385.82-1.226.029-2.723.043l-2.73.021-.478.228a2.74,2.74,0,0,0-1.4,1.361l-.264.542-.021,1.483-.029,1.49-.421.214a7.756,7.756,0,0,0-2.637,2.188,7.9,7.9,0,0,0-1.411,3.414c-.043.278-.078,1.319-.078,2.3v1.789l.178.171.171.178H43.007l.178-.178.185-.185-.029-2.081a9.248,9.248,0,0,0-.221-2.794,7.51,7.51,0,0,0-3.878-4.8l-.435-.221-.029-1.49-.021-1.483-.264-.542a2.74,2.74,0,0,0-1.4-1.361l-.478-.228-2.723-.021c-1.5-.014-2.73-.043-2.73-.071a.709.709,0,0,1,.107-.214,17.048,17.048,0,0,0,.969-2.274l.164-.513,1.126-.9c1.3-1.048,1.561-1.319,1.732-1.861a2.092,2.092,0,0,0-1.554-2.673.853.853,0,0,1-.335-.121c0-.029.307-.9.684-1.932s.727-2.124.784-2.416a5.924,5.924,0,0,0-4.89-6.929C29.534-503.847,23.475-503.869,22.827-503.8Zm7.221,1.2a5.645,5.645,0,0,1,1.989.941,4.786,4.786,0,0,1,1.461,5.4c-.371,1.055-.47,1.3-.47,1.169a8.594,8.594,0,0,0-.613-1.853,20.981,20.981,0,0,0-1.925-2.873c-.292-.107-.478-.014-1.361.691-.506.4-1.069.813-1.247.919a5.228,5.228,0,0,1-2.331.627,6.147,6.147,0,0,0-1.967.356,13.892,13.892,0,0,0-3.1,1.846c-1.041.7-1.939,1.29-1.982,1.319-.064.036-.257-.278-.634-1.041-.506-1.026-.535-1.112-.506-1.483a5.8,5.8,0,0,1,.157-.884,1.717,1.717,0,0,0,.057-.941,3.828,3.828,0,0,0-.242-.791,2.925,2.925,0,0,0-1.247-1.212c-.463-.214-.513-.157.606-.663a18.987,18.987,0,0,1,5.282-1.49c.371-.043.777-.093.891-.107s1.668-.029,3.443-.036A22.493,22.493,0,0,1,30.048-502.6Zm.713,5.125a5.7,5.7,0,0,1,1.19,3.956v1.069H26.6l-.171.178c-.15.143-.178.242-.178.57v.392H25.108v-.392c0-.328-.029-.428-.178-.57l-.171-.178H19.405v-.834l1.946-1.29c1.062-.713,2.117-1.376,2.345-1.476a4.893,4.893,0,0,1,1.875-.392,6.257,6.257,0,0,0,3.821-1.454c.371-.292.684-.535.706-.535A9.167,9.167,0,0,1,30.76-497.475Zm-12.467,6.786c.029.349.078.891.121,1.219a3.484,3.484,0,0,1,.05.62,5.07,5.07,0,0,1-1.219-1.048.974.974,0,0,1,.813-1.4C18.243-491.309,18.243-491.3,18.293-490.689Zm2.253.349c0,1.212.064,1.454.535,1.918.449.456.713.535,1.761.535s1.369-.107,1.789-.57a1.731,1.731,0,0,0,.478-1.312v-.4h1.141v.4a1.61,1.61,0,0,0,.535,1.347c.449.456.713.535,1.761.535s1.369-.107,1.789-.57.478-.72.478-1.882v-.969h1.155l-.05.656a15.638,15.638,0,0,1-.905,4.263,17.231,17.231,0,0,1-1.055,2.26l-.143.235H21.544l-.15-.235a18.007,18.007,0,0,1-1.048-2.26,15.717,15.717,0,0,1-.905-4.263l-.05-.656h1.155Zm3.422-.007c0,.934-.007.977-.178,1.141s-.221.178-.962.178-.8-.007-.962-.178-.178-.207-.178-1.141v-.962h2.281Zm5.7,0c0,.934-.007.977-.178,1.141s-.221.178-.962.178-.8-.007-.962-.178-.178-.207-.178-1.141v-.962H29.67Zm4.049-.82a.94.94,0,0,1,.392,1.269,4.939,4.939,0,0,1-1.219,1.048,3.91,3.91,0,0,1,.043-.62c.043-.328.1-.87.128-1.219.043-.613.05-.62.235-.62A1.014,1.014,0,0,1,33.719-491.166Zm2.751,8.5a2.117,2.117,0,0,1,1.1,1.1c.064.221.086,1.753.086,6.116v5.817H13.7v-5.817c0-4.363.021-5.9.086-6.116a2.273,2.273,0,0,1,1.055-1.091C15.221-482.784,36.071-482.784,36.47-482.67Zm-23.908,9.11v3.921H9.126l.036-1.654a8.223,8.223,0,0,1,.185-2.231,6.469,6.469,0,0,1,1.975-3.129,6.33,6.33,0,0,1,1.226-.827C12.555-477.48,12.562-475.72,12.562-473.56Zm26.809-3.6a6.551,6.551,0,0,1,2.324,2.766,6.59,6.59,0,0,1,.5,3.094l.036,1.661H38.794v-3.921c0-2.16.021-3.921.043-3.921A4.593,4.593,0,0,1,39.371-477.159Z" stroke="#000" stroke-width="0.5"/>
      <path id="Path_25652" data-name="Path 25652" d="M169.19-195.8c-1.069,1.076-1.19,1.226-1.19,1.44s.121.364,1.212,1.454l1.212,1.219.406-.406.413-.413-.927-.927-.927-.927.912-.912a8.786,8.786,0,0,0,.905-.984,2.771,2.771,0,0,0-.756-.741C170.416-197,169.846-196.458,169.19-195.8Z" transform="translate(-148.595 -284.971)" stroke="#000" stroke-width="0.5"/>
      <path id="Path_25653" data-name="Path 25653" d="M298.871-196.658a1.733,1.733,0,0,0-.335.406,9.916,9.916,0,0,0,.905.977l.912.912-.927.927-.927.927.413.413.406.406,1.212-1.219c1.091-1.091,1.212-1.24,1.212-1.454s-.121-.364-1.19-1.44a15.413,15.413,0,0,0-1.269-1.2A1.674,1.674,0,0,0,298.871-196.658Z" transform="translate(-269.793 -284.971)" stroke="#000" stroke-width="0.5"/>
      <path id="Path_25654" data-name="Path 25654" d="M227.848-193.755c-.927,1.24-1.675,2.267-1.654,2.288a6.868,6.868,0,0,0,.855.6c.078,0,3.436-4.484,3.393-4.534a6.872,6.872,0,0,0-.855-.6C229.559-196,228.775-194.988,227.848-193.755Z" transform="translate(-202.64 -285.9)" stroke="#000" stroke-width="0.5"/>
      <path id="Path_25655" data-name="Path 25655" d="M225.728-111.662a2.276,2.276,0,0,0-1.547,2.345,2.187,2.187,0,0,0,1.2,1.825,1.609,1.609,0,0,0,1.055.242,1.593,1.593,0,0,0,1.069-.257,2.264,2.264,0,0,0-.107-4.049A2.522,2.522,0,0,0,225.728-111.662Zm1.162,1.126a1.1,1.1,0,0,1,.335,1.825,1.056,1.056,0,0,1-1.575.007A1.126,1.126,0,0,1,226.89-110.535Z" transform="translate(-200.763 -364.136)" stroke="#000" stroke-width="0.5"/>
    </g>
  </g>
</svg>
