<svg xmlns="http://www.w3.org/2000/svg" width="38.478" height="38.483" viewBox="0 0 38.478 38.483">
  <g id="Group_3619" data-name="Group 3619" transform="translate(-1116.003 -2805)">
    <g id="check-mark" transform="translate(1116.003 2805)">
      <path id="Path_1766" data-name="Path 1766" d="M18.241-804.744a19.269,19.269,0,0,0-11.829,5.572A19.255,19.255,0,0,0,.922-788.178a25.69,25.69,0,0,0,0,5.271A19.263,19.263,0,0,0,6.4-771.929a19.255,19.255,0,0,0,10.994,5.489,25.7,25.7,0,0,0,5.271,0,19.263,19.263,0,0,0,10.979-5.474,19.255,19.255,0,0,0,5.489-10.994,25.69,25.69,0,0,0,0-5.271,19.263,19.263,0,0,0-5.474-10.979,19.212,19.212,0,0,0-10.918-5.474A28.838,28.838,0,0,0,18.241-804.744Zm4.232,3.125a16.08,16.08,0,0,1,9.036,4.593,16.1,16.1,0,0,1,4.608,9.111,15.644,15.644,0,0,1,.128,2.372,15.644,15.644,0,0,1-.128,2.372,16.1,16.1,0,0,1-4.608,9.111,16.1,16.1,0,0,1-9.111,4.608,20.828,20.828,0,0,1-4.744,0,16.1,16.1,0,0,1-9.111-4.608,16.1,16.1,0,0,1-4.608-9.111,20.822,20.822,0,0,1,0-4.744,16.1,16.1,0,0,1,4.608-9.111,16.11,16.11,0,0,1,10.165-4.736A28.092,28.092,0,0,1,22.473-801.619Z" transform="translate(-0.787 804.786)" fill="#16becf"/>
      <path id="Path_1767" data-name="Path 1767" d="M231.495-539.409c-.166.068-1.935,1.785-4.872,4.721l-4.616,4.6-1.935-1.928c-1.069-1.054-2.048-1.973-2.169-2.041a1.472,1.472,0,0,0-2.033.655,1.357,1.357,0,0,0-.038,1.28,31.38,31.38,0,0,0,2.763,2.914,18.919,18.919,0,0,0,2.914,2.7,1.684,1.684,0,0,0,1.273-.158c.361-.249,10.263-10.143,10.542-10.534a1.1,1.1,0,0,0,.241-.843,1.083,1.083,0,0,0-.226-.821A1.539,1.539,0,0,0,231.495-539.409Z" transform="translate(-205.404 552.223)" fill="#16becf"/>
    </g>
  </g>
</svg>
