<svg xmlns="http://www.w3.org/2000/svg" width="98" height="112.849" viewBox="0 0 98 112.849">
  <g id="Uniswap_Logo" transform="translate(-40.039)">
    <path id="Path_245" data-name="Path 245" d="M220.548,121.878c-1.218-.189-1.269-.211-.7-.3a18.911,18.911,0,0,1,5.478.486c4.172.992,7.968,3.532,12.02,8.043l1.077,1.2,1.54-.248a32.491,32.491,0,0,1,18.608,2.336,24.064,24.064,0,0,1,4.212,2.457,6.507,6.507,0,0,1,.389,1.636c.41,2.718.2,4.8-.627,6.357a1.666,1.666,0,0,0-.173,1.84,1.777,1.777,0,0,0,1.59,1.005c1.372,0,2.848-2.22,3.532-5.305l.272-1.226.538.61c2.953,3.346,5.272,7.908,5.671,11.156l.1.847-.5-.77a9.5,9.5,0,0,0-2.812-2.954c-1.981-1.311-4.076-1.757-9.624-2.049-5.011-.264-7.847-.692-10.659-1.609-4.784-1.56-7.2-3.637-12.879-11.094a54.37,54.37,0,0,0-5.636-6.62A20.148,20.148,0,0,0,220.548,121.878Z" transform="translate(-142.056 -96.195)" fill="#ff007a"/>
    <path id="Path_246" data-name="Path 246" d="M402.669,135.985a13.487,13.487,0,0,1,1.032-5.02,5.413,5.413,0,0,1,.5-.962,3.3,3.3,0,0,1-.231.868,11.406,11.406,0,0,0-.209,5.136c.385,2.619.6,3,3.372,5.827,1.3,1.327,2.809,3,3.357,3.72l1,1.307-1-.934a42.458,42.458,0,0,0-4.636-3.688c-.415-.213-.476-.21-.732.045-.236.235-.285.587-.318,2.254a12.6,12.6,0,0,1-1.26,5.932c-.462.9-.535.709-.117-.308.312-.76.344-1.094.342-3.609,0-5.052-.6-6.267-4.122-8.348-.891-.527-2.36-1.287-3.263-1.689a12.371,12.371,0,0,1-1.6-.778,33.987,33.987,0,0,1,4.911,1.433c2.054.79,2.393.892,2.642.8C402.507,137.9,402.588,137.416,402.669,135.985Z" transform="translate(-280.808 -102.907)" fill="#ff007a"/>
    <path id="Path_247" data-name="Path 247" d="M221.772,148.031a20.583,20.583,0,0,1-3.671-12.523l.1-1.207.563.1a14.128,14.128,0,0,1,3.732,1.389c2.341,1.422,3.355,3.294,4.386,8.1.3,1.408.7,3,.881,3.541a23.953,23.953,0,0,0,2.3,4.214c.65.949.218,1.4-1.218,1.268C226.66,152.719,223.689,150.669,221.772,148.031Z" transform="translate(-140.914 -106.309)" fill="#ff007a"/>
    <path id="Path_248" data-name="Path 248" d="M358.893,255.91c-11.553-4.652-15.622-8.689-15.622-15.5a11.013,11.013,0,0,1,.077-1.823,8.78,8.78,0,0,1,.993.735c2.343,1.879,4.966,2.682,12.229,3.741a50.581,50.581,0,0,1,8.9,1.863c7.051,2.339,11.414,7.084,12.454,13.549a22.348,22.348,0,0,1-.365,7.257c-.387,1.466-1.568,4.109-1.881,4.21-.087.028-.172-.3-.194-.757a9.363,9.363,0,0,0-3.405-6.56C369.733,260.61,366.587,259.007,358.893,255.91Z" transform="translate(-240.031 -188.858)" fill="#ff007a"/>
    <path id="Path_249" data-name="Path 249" d="M285.73,318.359a20.518,20.518,0,0,0-.558-2.444l-.295-.878.548.615a9.851,9.851,0,0,1,1.864,3.388,7.36,7.36,0,0,1,.428,3.233,7.237,7.237,0,0,1-.409,3.131,9.9,9.9,0,0,1-2.438,3.879c-2.11,2.148-4.824,3.337-8.739,3.83-.681.086-2.664.23-4.408.321a34.328,34.328,0,0,0-9.887,1.613,2.08,2.08,0,0,1-.741.177,13.64,13.64,0,0,1,3.126-1.864c2.061-.993,4.112-1.534,8.709-2.3,2.271-.378,4.616-.837,5.211-1.02C283.765,328.315,286.655,323.866,285.73,318.359Z" transform="translate(-174.979 -249.374)" fill="#ff007a"/>
    <path id="Path_250" data-name="Path 250" d="M399.055,338a13.388,13.388,0,0,1-1.047-9.457c.09-.317.235-.577.322-.577a3.115,3.115,0,0,1,.8.435c.707.476,2.126,1.278,5.906,3.339,4.716,2.571,7.405,4.562,9.234,6.837a14.87,14.87,0,0,1,3.069,7.028,23.937,23.937,0,0,1-.29,6.917,17.17,17.17,0,0,1-8.419,11.166,10.794,10.794,0,0,1-1.228.61,4.553,4.553,0,0,1,.5-1.268,11.407,11.407,0,0,0,.506-9.032c-.655-1.96-1.989-4.351-4.684-8.392C400.594,340.9,399.826,339.653,399.055,338Z" transform="translate(-283.008 -259.606)" fill="#ff007a"/>
    <path id="Path_251" data-name="Path 251" d="M191.671,434.3a31.277,31.277,0,0,1,14.481-6.981,22.586,22.586,0,0,1,7.522.291,12.9,12.9,0,0,1,7.335,4.7c1.413,2.075,2.02,3.883,2.651,7.905.249,1.587.52,3.18.6,3.541a7.84,7.84,0,0,0,2.54,4.588c1.816,1.329,4.942,1.412,8.018.212a3.994,3.994,0,0,1,1.007-.313,9.149,9.149,0,0,1-2.53,1.693,8.6,8.6,0,0,1-4.192,1.018c-2.817,0-5.156-1.433-7.107-4.355a34.658,34.658,0,0,1-1.918-3.827c-2.06-4.7-3.078-6.131-5.47-7.7a7.053,7.053,0,0,0-6.787-.617,4.4,4.4,0,0,0-1.493,6.84,5.887,5.887,0,0,0,3.315,1.734,3.54,3.54,0,0,0,4.006-3.546,2.763,2.763,0,0,0-1.91-2.835c-1.867-.842-3.873.142-3.863,1.9a1.572,1.572,0,0,0,1.079,1.556c.481.218.492.235.1.153-1.713-.355-2.114-2.42-.737-3.791,1.653-1.646,5.072-.919,6.246,1.327a5.8,5.8,0,0,1,.12,3.957,5.461,5.461,0,0,1-6.615,3.148c-1.938-.495-2.727-1.03-5.064-3.437-4.06-4.183-5.637-4.993-11.49-5.907l-1.122-.175Z" transform="translate(-119.018 -338.104)" fill="#ff007a"/>
    <path id="Path_252" data-name="Path 252" d="M42.036,2.5C55.6,18.959,76.5,44.582,77.539,46.017c.857,1.184.534,2.249-.934,3.084a8.9,8.9,0,0,1-3.335.934,4.275,4.275,0,0,1-2.8-1.2c-.551-.523-2.776-3.844-7.911-11.812-3.929-6.1-7.217-11.154-7.307-11.239-.207-.2-.2-.189,6.906,12.532,4.464,7.988,5.972,10.812,5.972,11.19,0,.768-.209,1.172-1.157,2.229-1.58,1.762-2.286,3.743-2.8,7.841C63.6,64.175,62,67.42,57.544,72.974c-2.607,3.251-3.034,3.847-3.691,5.158A9.512,9.512,0,0,0,52.7,82.791a14.5,14.5,0,0,0,.766,5.733,20.523,20.523,0,0,0,2.777,5.5c1.357,2.1,2.139,3.664,2.139,4.275,0,.486.093.487,2.2.012C65.613,97.172,69.7,95.173,72,92.724a5.278,5.278,0,0,0,1.767-4.431,4.325,4.325,0,0,0-.408-2.425c-.6-1.272-1.687-2.33-4.086-3.97-3.144-2.149-4.486-3.879-4.857-6.259-.3-1.952.049-3.33,1.788-6.975A21.109,21.109,0,0,0,68.75,59.48c.195-2.457.465-3.426,1.171-4.2.736-.811,1.4-1.086,3.221-1.335,2.97-.406,4.862-1.174,6.417-2.607a5.573,5.573,0,0,0,2-4.243l.066-1.366-.754-.879C78.141,41.663,40.208,0,40.04,0,40,0,40.9,1.126,42.036,2.5ZM59.917,85.284a2.417,2.417,0,0,0-.743-3.184c-.975-.649-2.491-.343-2.491.5,0,.258.143.446.464.611.541.278.58.592.155,1.232s-.4,1.218.1,1.605A1.7,1.7,0,0,0,59.917,85.284Z" transform="translate(0)" fill="#ff007a" fill-rule="evenodd"/>
    <path id="Path_253" data-name="Path 253" d="M236.026,261.749a5.239,5.239,0,0,0-3.17,3.456,4.922,4.922,0,0,0,.273,3.116c.619.827,1.218,1.045,2.841,1.034,3.176-.022,5.936-1.384,6.257-3.087.263-1.4-.949-3.33-2.619-4.179A6.214,6.214,0,0,0,236.026,261.749Zm3.712,2.9a1.288,1.288,0,0,0-.557-1.956c-1.586-.969-3.985-.167-3.985,1.331,0,.746,1.251,1.56,2.4,1.56A3.1,3.1,0,0,0,239.739,264.652Z" transform="translate(-152.528 -207.091)" fill="#ff007a" fill-rule="evenodd"/>
  </g>
</svg>
