<svg xmlns="http://www.w3.org/2000/svg" width="315.966" height="61.18" viewBox="0 0 315.966 61.18">
  <g id="Hyperledger" transform="translate(-284 -5403.39)">
    <g id="Group_3112" data-name="Group 3112" transform="translate(284 5403.39)">
      <path id="Path_3016" data-name="Path 3016" d="M21.085,60.911a.287.287,0,0,1-.261-.156L2.152,34.311A.662.662,0,0,1,2.1,34L15.661,4.529a.287.287,0,0,1,.261-.156L48.155,1.4a.287.287,0,0,1,.261.156L67.087,28a.661.661,0,0,1,.052.313L53.579,57.782a.287.287,0,0,1-.261.156L21.085,60.911ZM2.778,34.1,21.242,60.285l31.868-2.973,13.4-29.1L48,2.026,16.13,5Zm50.54,23.523Z" transform="translate(-2.1 -1.4)" fill="#373a36"/>
      <path id="Path_3017" data-name="Path 3017" d="M33.564,63.682,28.4,36.769V7.3l25.192,7.406L79.722,30.979,60.268,48.191Zm-4.9-55.964v29l5.111,26.5,26.339-15.23L79.2,31.031,53.435,15.019Z" transform="translate(-14.683 -4.223)" fill="#373a36"/>
      <g id="Group_3106" data-name="Group 3106" transform="translate(37.344 8.867)">
        <circle id="Ellipse_833" data-name="Ellipse 833" cx="0.939" cy="0.939" r="0.939" transform="translate(0.991 0.991)" fill="#373a36"/>
        <path id="Path_3018" data-name="Path 3018" d="M75.63,22.26a1.93,1.93,0,1,1,1.93-1.93A1.863,1.863,0,0,1,75.63,22.26Zm0-1.982-.052.052a.051.051,0,0,0,.052.052Z" transform="translate(-73.7 -18.4)" fill="#373a36"/>
      </g>
      <g id="Group_3107" data-name="Group 3107" transform="translate(43.655 41.934)">
        <circle id="Ellipse_834" data-name="Ellipse 834" cx="0.939" cy="0.939" r="0.939" transform="translate(0.991 0.991)" fill="#373a36"/>
        <path id="Path_3019" data-name="Path 3019" d="M87.73,85.66a1.93,1.93,0,1,1,1.93-1.93A1.96,1.96,0,0,1,87.73,85.66Zm0-1.982h0c-.052.1-.052.1,0,.1Z" transform="translate(-85.8 -81.8)" fill="#373a36"/>
      </g>
      <g id="Group_3108" data-name="Group 3108" transform="translate(17.316 57.32)">
        <circle id="Ellipse_835" data-name="Ellipse 835" cx="0.939" cy="0.939" r="0.939" transform="translate(0.991 0.939)" fill="#373a36"/>
        <path id="Path_3020" data-name="Path 3020" d="M37.23,115.16a1.93,1.93,0,1,1,1.93-1.93A1.96,1.96,0,0,1,37.23,115.16Zm0-2.034h0c-.052.1-.052.1,0,.1Z" transform="translate(-35.3 -111.3)" fill="#373a36"/>
      </g>
      <g id="Group_3109" data-name="Group 3109" transform="translate(11.892 30.877)">
        <circle id="Ellipse_836" data-name="Ellipse 836" cx="0.939" cy="0.939" r="0.939" transform="translate(0.991 0.939)" fill="#373a36"/>
        <path id="Path_3021" data-name="Path 3021" d="M26.83,64.46a1.93,1.93,0,1,1,1.93-1.93A1.893,1.893,0,0,1,26.83,64.46Zm0-1.982-.052.052a.051.051,0,0,0,.052.052Z" transform="translate(-24.9 -60.6)" fill="#373a36"/>
      </g>
      <g id="Group_3110" data-name="Group 3110" transform="translate(62.849 24.879)">
        <circle id="Ellipse_837" data-name="Ellipse 837" cx="0.939" cy="0.939" r="0.939" transform="translate(0.991 0.991)" fill="#373a36"/>
        <path id="Path_3022" data-name="Path 3022" d="M124.53,52.96a1.93,1.93,0,1,1,1.93-1.93A1.96,1.96,0,0,1,124.53,52.96Zm0-2.034h0c-.052.1-.052.1,0,.1Z" transform="translate(-122.6 -49.1)" fill="#373a36"/>
      </g>
      <g id="Group_3111" data-name="Group 3111" transform="translate(11.892 1.356)">
        <circle id="Ellipse_838" data-name="Ellipse 838" cx="0.939" cy="0.939" r="0.939" transform="translate(0.991 0.991)" fill="#373a36"/>
        <path id="Path_3023" data-name="Path 3023" d="M26.83,7.86a1.93,1.93,0,1,1,1.93-1.93A1.893,1.893,0,0,1,26.83,7.86Zm0-1.982-.052.052a.051.051,0,0,0,.052.052Z" transform="translate(-24.9 -4)" fill="#373a36"/>
      </g>
      <path id="Path_3024" data-name="Path 3024" d="M53.318,57.95h-.1L28.648,49.292,2.256,34.427a.287.287,0,0,1-.156-.261c0-.1,0-.209.1-.261L22.076,15.755,48,1.464a.233.233,0,0,1,.261,0c.1.052.156.1.156.209L54.257,27.23l-.678,30.407a.287.287,0,0,1-.156.261C53.422,57.95,53.37,57.95,53.318,57.95ZM2.935,34.114l25.974,14.6,24.1,8.5.678-29.886L47.946,2.246,22.389,16.277Z" transform="translate(-2.1 -1.412)" fill="#373a36"/>
      <path id="Path_3025" data-name="Path 3025" d="M60.324,55.128l-.156-.052L28.3,44.019l.1-.1L53.961,21.8ZM28.613,43.915,60.064,54.867,53.857,22.113Z" transform="translate(-14.635 -11.16)" fill="#373a36"/>
      <path id="Path_3026" data-name="Path 3026" d="M46.676,62.458,40,28.4,72.755,40.135ZM40.782,29.287l6.259,31.92L71.5,40.292Z" transform="translate(-20.233 -14.318)" fill="#373a36"/>
      <rect id="Rectangle_6329" data-name="Rectangle 6329" width="0.626" height="12.883" transform="translate(13.587 3.431) rotate(-29.328)" fill="#373a36"/>
      <path id="Path_3027" data-name="Path 3027" d="M39.022,104.2l-.522-.313L45.906,92.2l.522.365Z" transform="translate(-19.515 -44.842)" fill="#373a36"/>
      <rect id="Rectangle_6330" data-name="Rectangle 6330" width="0.626" height="12.883" transform="translate(51.906 26.18) rotate(-85.822)" fill="#373a36"/>
    </g>
    <g id="Group_3113" data-name="Group 3113" transform="translate(363.383 5421.123)">
      <path id="Path_3028" data-name="Path 3028" d="M154.3,38.156l5.164-.052.052,8.762,10.066-.052-.052-8.762L174.693,38l.1,23.523-5.164.052L169.582,51.4l-10.014.052.052,10.171-5.164.052Z" transform="translate(-154.3 -36.644)" fill="#373a36"/>
      <path id="Path_3029" data-name="Path 3029" d="M205.119,51.461l-8.919-13.4L202.667,38l5.007,8.762,5.216-8.815,6.155-.052-8.762,13.509.052,10.014-5.164.052Z" transform="translate(-174.346 -36.596)" fill="#373a36"/>
      <path id="Path_3030" data-name="Path 3030" d="M242.7,37.752l8.762-.052a18.369,18.369,0,0,1,3.442.313,7.377,7.377,0,0,1,2.869,1.147,5.269,5.269,0,0,1,1.93,2.191,7.633,7.633,0,0,1,.73,3.442,8.459,8.459,0,0,1-.626,3.442,5.522,5.522,0,0,1-1.825,2.243,7.419,7.419,0,0,1-2.764,1.2,14.23,14.23,0,0,1-3.442.365h-3.807l.052,9.18-5.164.052Zm5.216,10.014h3.442a6.013,6.013,0,0,0,1.356-.156,3.787,3.787,0,0,0,1.147-.469,2.276,2.276,0,0,0,.835-.887,2.744,2.744,0,0,0,.313-1.356,2.544,2.544,0,0,0-.417-1.46,2.745,2.745,0,0,0-1.043-.835,4.294,4.294,0,0,0-1.46-.365c-.522-.052-1.043-.052-1.513-.052h-2.66Z" transform="translate(-196.593 -36.5)" fill="#373a36"/>
      <path id="Path_3031" data-name="Path 3031" d="M282.452,37.5l15.96-.1v4.8l-10.8.052v4.381l10.223-.052v4.8l-10.223.052v4.8l11.37-.052v4.8l-16.586.1Z" transform="translate(-215.587 -36.357)" fill="#373a36"/>
      <path id="Path_3032" data-name="Path 3032" d="M321.6,37.452l9.127-.052a17.42,17.42,0,0,1,3.39.313,7.622,7.622,0,0,1,2.816,1.147,5.269,5.269,0,0,1,1.93,2.191,7.633,7.633,0,0,1,.73,3.442,6.99,6.99,0,0,1-1.252,4.225,5.907,5.907,0,0,1-3.755,2.243l6.05,9.91-6.207.052-4.955-9.388H326.92l.052,9.388-5.163.052Zm5.268,9.649h3.077a14.162,14.162,0,0,0,1.46-.052,5.588,5.588,0,0,0,1.408-.313,2.222,2.222,0,0,0,1.043-.782,2.487,2.487,0,0,0,.417-1.513,2.259,2.259,0,0,0-.365-1.408,2.233,2.233,0,0,0-.939-.782,3.448,3.448,0,0,0-1.3-.365,12.789,12.789,0,0,0-1.408-.1h-3.39Z" transform="translate(-234.342 -36.357)" fill="#373a36"/>
      <path id="Path_3033" data-name="Path 3033" d="M362.7,37.152l5.164-.052.1,18.724,9.6-.052v4.8l-14.76.052Z" transform="translate(-254.005 -36.213)" fill="#373a36"/>
      <path id="Path_3034" data-name="Path 3034" d="M396.152,36.9l15.96-.1v4.8l-10.8.052v4.381l10.223-.052v4.8l-10.223.052v4.8l11.37-.052v4.8l-16.586.1Z" transform="translate(-269.985 -36.07)" fill="#373a36"/>
      <path id="Path_3035" data-name="Path 3035" d="M435.3,36.752l7.771-.052a22.618,22.618,0,0,1,5.372.626,12.351,12.351,0,0,1,4.433,2.034,9.9,9.9,0,0,1,3.025,3.651,12.491,12.491,0,0,1,1.147,5.476,12.008,12.008,0,0,1-1.043,5.059,11.024,11.024,0,0,1-2.869,3.651,12.6,12.6,0,0,1-4.225,2.243,16.209,16.209,0,0,1-5.007.782l-8.449.1Zm5.268,18.776h2.712a16.777,16.777,0,0,0,3.338-.365,6.986,6.986,0,0,0,2.66-1.252,5.859,5.859,0,0,0,1.773-2.243,8.2,8.2,0,0,0,.626-3.39A6.308,6.308,0,0,0,451,45.254a5.747,5.747,0,0,0-1.773-2.086,8.34,8.34,0,0,0-2.556-1.252,12.25,12.25,0,0,0-3.129-.417h-3.077Z" transform="translate(-288.739 -36.022)" fill="#373a36"/>
      <path id="Path_3036" data-name="Path 3036" d="M503.436,57.723a19.658,19.658,0,0,1-4.8,1.773,23.51,23.51,0,0,1-5.059.574,14.805,14.805,0,0,1-5.111-.835,11.551,11.551,0,0,1-4.016-2.451,10.653,10.653,0,0,1-2.66-3.86,14.382,14.382,0,0,1-.991-5.111,13.321,13.321,0,0,1,.939-5.111,11.958,11.958,0,0,1,2.608-3.912,11.377,11.377,0,0,1,4.016-2.5,14.52,14.52,0,0,1,5.059-.887,20.719,20.719,0,0,1,5.216.626,10.572,10.572,0,0,1,4.173,2.295l-3.651,4.016a8.287,8.287,0,0,0-2.4-1.669,7.88,7.88,0,0,0-3.338-.522,8.216,8.216,0,0,0-3.025.574,6.417,6.417,0,0,0-2.295,1.565,6.6,6.6,0,0,0-1.46,2.4,9.435,9.435,0,0,0-.522,3.025,8.012,8.012,0,0,0,.522,3.025,6.715,6.715,0,0,0,1.513,2.4,6.417,6.417,0,0,0,2.295,1.565,7.819,7.819,0,0,0,3.025.574,9.606,9.606,0,0,0,2.921-.417,10.408,10.408,0,0,0,1.93-.782V50.265H494.1v-4.8l9.18-.052Z" transform="translate(-310.508 -35.4)" fill="#373a36"/>
      <path id="Path_3037" data-name="Path 3037" d="M532.4,36.2l15.96-.1v4.8l-10.8.052v4.381l10.223-.052v4.8l-10.118.052v4.8l11.37-.052v4.8l-16.586.1Z" transform="translate(-335.195 -35.735)" fill="#373a36"/>
      <path id="Path_3038" data-name="Path 3038" d="M571.5,36.052,580.575,36a17.421,17.421,0,0,1,3.39.313,7.622,7.622,0,0,1,2.816,1.147,5.269,5.269,0,0,1,1.93,2.191,7.633,7.633,0,0,1,.73,3.442,6.989,6.989,0,0,1-1.252,4.225,5.906,5.906,0,0,1-3.755,2.243l6.05,9.91-6.207.1-4.955-9.388h-2.556l.052,9.388-5.164.052Zm5.216,9.753h3.077a14.163,14.163,0,0,0,1.46-.052,5.587,5.587,0,0,0,1.408-.313,2.222,2.222,0,0,0,1.043-.782,2.486,2.486,0,0,0,.417-1.513,2.259,2.259,0,0,0-.365-1.408,2.232,2.232,0,0,0-.939-.782,3.447,3.447,0,0,0-1.3-.365,12.788,12.788,0,0,0-1.408-.1h-3.39Z" transform="translate(-353.901 -35.687)" fill="#373a36"/>
    </g>
  </g>
</svg>
