<svg xmlns="http://www.w3.org/2000/svg" xmlns:xlink="http://www.w3.org/1999/xlink" width="90" height="102" viewBox="0 0 90 102">
  <defs>
    <linearGradient id="linear-gradient" x1="0.5" x2="0.5" y2="1" gradientUnits="objectBoundingBox">
      <stop offset="0" stop-color="#16becf"/>
      <stop offset="1" stop-color="#3fffac"/>
    </linearGradient>
  </defs>
  <g id="government" transform="translate(-414 -2404)">
    <g id="Group_2800" data-name="Group 2800" transform="translate(-35)">
      <path id="Path_149" data-name="Path 149" d="M84.1,43.758l0,0A11.781,11.781,0,0,1,90,53.951V94.606a11.778,11.778,0,0,1-6.032,10.265l-33.117,18.6a11.961,11.961,0,0,1-11.709,0L6.03,104.871A11.78,11.78,0,0,1,0,94.607V53.953A11.782,11.782,0,0,1,5.9,43.76L39,24.6a11.975,11.975,0,0,1,11.973,0L84.1,43.76Z" transform="translate(449 2381)" fill-rule="evenodd" fill="url(#linear-gradient)"/>
    </g>
    <g id="government-2" data-name="government" transform="translate(435 2940.706)">
      <path id="Path_227" data-name="Path 227" d="M13.55-502.819,3.573-495.9H2.821c-.622,0-.8.037-1,.195l-.241.186v1.856c0,2.376-.121,2.218,1.717,2.218H4.641v1.346c0,1.643.037,1.717.928,1.717h.557v15.221H5.754c-.52,0-1,.213-1.067.483-.028.121-.056.752-.074,1.42l-.019,1.207-1.364.046a4.093,4.093,0,0,0-1.485.167,4.094,4.094,0,0,0-.167,1.485l-.046,1.364-.575.028c-.492.028-.6.065-.77.269-.167.223-.186.371-.186,2,0,1.736,0,1.754.232,1.977l.223.232H47.064l.223-.232c.232-.223.232-.241.232-1.977,0-1.624-.019-1.773-.186-2-.167-.2-.278-.241-.77-.269l-.575-.028-.046-1.364a4.094,4.094,0,0,0-.167-1.485,4.093,4.093,0,0,0-1.485-.167l-1.364-.046-.019-1.207c-.019-.668-.046-1.3-.074-1.42-.065-.269-.548-.483-1.067-.483h-.371v-15.221h.557c.891,0,.928-.074.928-1.717v-1.346h1.346c1.838,0,1.717.158,1.717-2.209,0-2.255.046-2.172-1.244-2.246l-.845-.046-9.884-6.868c-6.673-4.622-9.977-6.868-10.163-6.887C23.564-509.733,22.117-508.759,13.55-502.819Zm19.175.835,8.789,6.079H17.625l-.223.232a.6.6,0,0,0,0,.928l.223.232H44.549v1.671H2.97v-1.671H15.323l.223-.232a.608.608,0,0,0,.056-.891l-.176-.223-4.668-.046-4.678-.046,8.817-6.107c4.854-3.35,8.863-6.079,8.928-6.06S27.889-505.334,32.725-501.984ZM12.325-490.6l.028.817H6.033v-1.671l3.137.019,3.128.028Zm6.887.436c0,1.151.019,1.309.186,1.522s.278.241.77.269l.575.028.028,7.573.019,7.573-.575.056c-.473.046-.622.093-.789.3-.2.223-.213.325-.213,1.541v1.29H13.754l-.037-1.346c-.037-1.624-.084-1.7-.993-1.782l-.566-.056v-15.193h.548a1.116,1.116,0,0,0,.761-.176c.213-.167.223-.241.251-1.531l.037-1.355h5.457Zm7.7-.455v.835H20.6v-1.671h6.311Zm6.887.52c.028,1.29.037,1.364.251,1.531a1.116,1.116,0,0,0,.761.176h.548v15.193l-.566.056c-.91.084-.956.158-.993,1.782l-.037,1.346H28.307v-1.29c0-1.216-.009-1.318-.213-1.541-.167-.2-.316-.251-.789-.3l-.575-.056.019-7.573.028-7.573.575-.028c.492-.028.6-.065.77-.269s.186-.371.186-1.522v-1.29h5.457Zm7.685-.52v.835H35.175v-.77a3.029,3.029,0,0,1,.065-.835c.028-.037,1.448-.065,3.156-.065h3.091Zm-30.72,9.838v7.61H7.518v-7.545c0-4.158.028-7.583.065-7.61a10.676,10.676,0,0,1,1.624-.065h1.559Zm14.571,0v7.61H22.182v-15.221h3.156Zm14.645.019L40-473.166H36.753v-15.221l1.606.019,1.6.028ZM12.3-470.892v.835l-3.128.028-3.137.019v-1.763l3.137.019,3.128.028Zm14.6.019.028.863H20.6v-.817a3.335,3.335,0,0,1,.065-.882c.037-.037,1.439-.056,3.128-.046l3.072.028Zm14.59-.019v.882l-3.128-.019-3.137-.028-.028-.733a4.261,4.261,0,0,1,.019-.863c.037-.093.65-.121,3.165-.121h3.109Zm3.063,3.109v.835H2.97v-1.671H44.549Zm1.578,3.063v.835H1.392v-1.671H46.127Z" transform="translate(0 0)" fill="#fff"/>
      <path id="Path_228" data-name="Path 228" d="M233.437-426.824a2.214,2.214,0,0,0-1.318,1.773,2.006,2.006,0,0,0,.659,1.81,2.064,2.064,0,0,0,1.541.7,2.385,2.385,0,0,0,2.125-1.606A2.214,2.214,0,0,0,234.318-427,2.33,2.33,0,0,0,233.437-426.824Zm1.448,1.485a.775.775,0,0,1,.269.566.775.775,0,0,1-.269.566.775.775,0,0,1-.566.269.93.93,0,0,1-.835-.835.93.93,0,0,1,.835-.835A.775.775,0,0,1,234.884-425.339Z" transform="translate(-210.559 -75.03)" fill="#fff"/>
    </g>
  </g>
</svg>
