<svg xmlns="http://www.w3.org/2000/svg" xmlns:xlink="http://www.w3.org/1999/xlink" width="90" height="102" viewBox="0 0 90 102">
  <defs>
    <linearGradient id="linear-gradient" x1="0.5" x2="0.5" y2="1" gradientUnits="objectBoundingBox">
      <stop offset="0" stop-color="#16becf"/>
      <stop offset="1" stop-color="#3fffac"/>
    </linearGradient>
  </defs>
  <g id="transparency" transform="translate(-449 -2404)">
    <path id="Path_149" data-name="Path 149" d="M84.1,43.758l0,0A11.781,11.781,0,0,1,90,53.951V94.606a11.778,11.778,0,0,1-6.032,10.265l-33.117,18.6a11.961,11.961,0,0,1-11.709,0L6.03,104.871A11.78,11.78,0,0,1,0,94.607V53.953A11.782,11.782,0,0,1,5.9,43.76L39,24.6a11.975,11.975,0,0,1,11.973,0L84.1,43.76Z" transform="translate(449 2381)" fill-rule="evenodd" fill="url(#linear-gradient)"/>
    <g id="transparency-2" data-name="transparency" transform="translate(470.375 2943.633)">
      <path id="Path_223" data-name="Path 223" d="M15.622-511.612A16.169,16.169,0,0,0,5.375-506.86a16.341,16.341,0,0,0-4.634,9.2,23.182,23.182,0,0,0,0,4.625,16.2,16.2,0,0,0,4.607,9.177,15.25,15.25,0,0,0,4.571,3.237,16.276,16.276,0,0,0,15.788-1l.644-.417,1.025,1.025L28.4-479.99l-.4.453c-.444.508-.535.807-.363,1.2.063.145,2.848,2.993,6.176,6.312,5.895,5.867,6.085,6.04,6.729,6.33a4.39,4.39,0,0,0,3.963-.073,4.464,4.464,0,0,0,2.031-5.922c-.29-.644-.462-.825-6.375-6.756-4.126-4.144-6.176-6.13-6.366-6.194-.363-.127-.608-.027-1.134.435l-.417.372-1.016-1.025L30.2-485.884l.417-.644a16.3,16.3,0,0,0,1-15.8,15.3,15.3,0,0,0-3.237-4.561,16.2,16.2,0,0,0-9.132-4.6A27.612,27.612,0,0,0,15.622-511.612Zm2.73,1.85a14.369,14.369,0,0,1,8.769,4.162,14.5,14.5,0,0,1-2.884,22.753,14.526,14.526,0,0,1-18.872-3.709,14.5,14.5,0,0,1,0-17.575A14.533,14.533,0,0,1,18.352-509.762ZM30.331-481.9l-.653.662-.952-.952-.952-.952.653-.653.662-.662.952.952.952.952Zm4.543.689,1.242,1.242-1.932,1.932-1.923,1.922-1.27-1.27-1.27-1.27,1.9-1.9c1.043-1.052,1.923-1.9,1.95-1.9S34.185-481.9,34.875-481.214ZM44.932-470.9a3.056,3.056,0,0,1,.009,2.231,2.655,2.655,0,0,1-2.43,1.578c-1.215,0-1.115.082-5.242-4.026L33.578-474.8l1.923-1.923,1.932-1.932,3.646,3.646C43.979-472.1,44.768-471.266,44.932-470.9Z" fill="#fff"/>
      <path id="Path_224" data-name="Path 224" d="M51.222-471.683a12.657,12.657,0,0,0-10.873,11.454,12.671,12.671,0,0,0,4.906,11.163,12.668,12.668,0,0,0,19.416-5.2,12.779,12.779,0,0,0-.009-9.731A12.678,12.678,0,0,0,51.222-471.683Zm3.872,1.9a10.851,10.851,0,0,1,7.463,5.586,9.937,9.937,0,0,1,1.242,5.069,9.937,9.937,0,0,1-1.224,5.042A10.827,10.827,0,0,1,48.2-449.365a10.864,10.864,0,0,1-5.9-7.672,14.357,14.357,0,0,1-.045-3.99,10.858,10.858,0,0,1,10.982-8.942A13.409,13.409,0,0,1,55.094-469.778Z" transform="translate(-36.071 -36.22)" fill="#fff"/>
      <path id="Path_225" data-name="Path 225" d="M92.276-431.54A9.131,9.131,0,0,0,86.4-427.85a9.293,9.293,0,0,0-1.215,2.467.887.887,0,0,0,1.043,1.007c.363-.073.6-.354.862-1.025a7.612,7.612,0,0,1,2.7-3.237,7.026,7.026,0,0,1,3.428-1.179c.871-.073,1.161-.181,1.324-.508a.789.789,0,0,0-.127-1.007c-.236-.263-.308-.29-.834-.308A6.787,6.787,0,0,0,92.276-431.54Z" transform="translate(-76.88 -72.735)" fill="#fff"/>
      <path id="Path_226" data-name="Path 226" d="M81.185-330.779a.862.862,0,0,0,.635,1.487.863.863,0,0,0,.78-1.233A.862.862,0,0,0,81.185-330.779Z" transform="translate(-73.008 -164.21)" fill="#fff"/>
    </g>
  </g>
</svg>
