<svg xmlns="http://www.w3.org/2000/svg" xmlns:xlink="http://www.w3.org/1999/xlink" width="90" height="102" viewBox="0 0 90 102">
  <defs>
    <linearGradient id="linear-gradient" x1="0.5" x2="0.5" y2="1" gradientUnits="objectBoundingBox">
      <stop offset="0" stop-color="#16becf"/>
      <stop offset="1" stop-color="#3fffac"/>
    </linearGradient>
  </defs>
  <g id="Open_Source" data-name="Open Source" transform="translate(-414 -2404)">
    <g id="Group_2800" data-name="Group 2800" transform="translate(-35)">
      <path id="Path_149" data-name="Path 149" d="M84.1,43.758l0,0A11.781,11.781,0,0,1,90,53.951V94.606a11.778,11.778,0,0,1-6.032,10.265l-33.117,18.6a11.961,11.961,0,0,1-11.709,0L6.03,104.871A11.78,11.78,0,0,1,0,94.607V53.953A11.782,11.782,0,0,1,5.9,43.76L39,24.6a11.975,11.975,0,0,1,11.973,0L84.1,43.76Z" transform="translate(449 2381)" fill-rule="evenodd" fill="url(#linear-gradient)"/>
    </g>
    <g id="open-source" transform="translate(433.896 2934.929)">
      <path id="Path_229" data-name="Path 229" d="M22.948-503.828a25.585,25.585,0,0,0-13.459,5.413,35.13,35.13,0,0,0-4.023,4.072A24.994,24.994,0,0,0,.191-476.871a24.787,24.787,0,0,0,2.584,9.152,24.977,24.977,0,0,0,10.738,11,15.613,15.613,0,0,0,3.24,1.331,2,2,0,0,0,1.272-.734c.088-.166,1.233-3.69,2.535-7.831,1.752-5.56,2.369-7.664,2.379-8.036,0-.617-.294-1.057-1.047-1.547a6.3,6.3,0,0,1-2.927-4.522,6.232,6.232,0,0,1,3.015-6.186,5.741,5.741,0,0,1,3.171-.852,5.175,5.175,0,0,1,1.762.225,6.246,6.246,0,0,1,3.289,9.651,8.2,8.2,0,0,1-2.026,1.87c-.636.45-.812.754-.812,1.351.01.382.6,2.388,2.369,8.036,1.3,4.14,2.447,7.664,2.545,7.831a2.013,2.013,0,0,0,1.272.744,20.276,20.276,0,0,0,4.914-2.3,25.208,25.208,0,0,0,11.648-19.185,24.912,24.912,0,0,0-3.984-15.651,22.477,22.477,0,0,0-3.26-3.984,21.824,21.824,0,0,0-4-3.3A25.226,25.226,0,0,0,22.948-503.828Zm4.013,3.122a21.725,21.725,0,0,1,13.664,6.362,21.683,21.683,0,0,1,4.15,25.107,21.615,21.615,0,0,1-9.27,9.641l-.949.5-.44-1.4c-.245-.773-1.106-3.5-1.909-6.079l-1.458-4.689.9-.891a9.042,9.042,0,0,0,2.809-5.6,9.018,9.018,0,0,0-.94-5.286,9.208,9.208,0,0,0-6.989-5.09,6.9,6.9,0,0,0-2.76,0,9.362,9.362,0,0,0-5.863,3.308,10.846,10.846,0,0,0-1.86,3.69,9.369,9.369,0,0,0,2.8,9.181l.715.666-1.468,4.689c-.8,2.584-1.664,5.325-1.909,6.1l-.44,1.4-.949-.5a21.615,21.615,0,0,1-9.27-9.641A21.764,21.764,0,0,1,8.4-492.992,22.034,22.034,0,0,1,26.962-500.706Z" transform="translate(0)" fill="#fff"/>
    </g>
  </g>
</svg>
