<svg xmlns="http://www.w3.org/2000/svg" xmlns:xlink="http://www.w3.org/1999/xlink" width="90" height="102" viewBox="0 0 90 102">
  <defs>
    <linearGradient id="linear-gradient" x1="0.5" x2="0.5" y2="1" gradientUnits="objectBoundingBox">
      <stop offset="0" stop-color="#16becf"/>
      <stop offset="1" stop-color="#3fffac"/>
    </linearGradient>
  </defs>
  <g id="Fault" transform="translate(-414 -2404)">
    <g id="Group_2800" data-name="Group 2800" transform="translate(-35)">
      <path id="Path_149" data-name="Path 149" d="M84.1,43.758l0,0A11.781,11.781,0,0,1,90,53.951V94.606a11.778,11.778,0,0,1-6.032,10.265l-33.117,18.6a11.961,11.961,0,0,1-11.709,0L6.03,104.871A11.78,11.78,0,0,1,0,94.607V53.953A11.782,11.782,0,0,1,5.9,43.76L39,24.6a11.975,11.975,0,0,1,11.973,0L84.1,43.76Z" transform="translate(449 2381)" fill-rule="evenodd" fill="url(#linear-gradient)"/>
    </g>
    <g id="noun_fault_tolerance_2619211" data-name="noun_fault tolerance_2619211" transform="translate(416 2412)">
      <path id="Path_233" data-name="Path 233" d="M49.754,15a1.625,1.625,0,0,0-1.622,1.727l.61,9.752A1.625,1.625,0,0,0,50.364,28h1.822a1.625,1.625,0,0,0,1.622-1.524l.61-9.752A1.625,1.625,0,0,0,52.8,15ZM52.8,16.625H49.754l.61,9.752h1.822Z" transform="translate(-7.142)" fill="#fff" fill-rule="evenodd"/>
      <path id="Path_234" data-name="Path 234" d="M23.547,52.183a8.126,8.126,0,1,1,2.335-8.494H38.926L40.4,41.6a.813.813,0,0,1,1.329.936l-1.71,2.429,0,.006-.008.012L38.3,47.407a.813.813,0,0,1-1.329-.936l.815-1.158H26.214q.04.4.04.813a8.091,8.091,0,0,1-1.606,4.851L36.956,64.572a8.127,8.127,0,0,1,11.212.1L60.787,51.5a8.1,8.1,0,0,1-2.026-5.369q0-.411.04-.813H47.084L45.61,47.407a.813.813,0,0,1-1.329-.936L47.714,41.6a.813.813,0,0,1,1.329.936l-.815,1.158H59.133A8.128,8.128,0,1,1,61.977,52.6L49.221,65.926A8.127,8.127,0,1,1,35.879,65.8Zm1.082-6.056a6.5,6.5,0,1,1-6.5-6.5A6.5,6.5,0,0,1,24.628,46.127Zm48.761,0a6.5,6.5,0,1,1-6.5-6.5A6.5,6.5,0,0,1,73.389,46.127ZM42.507,77.009a6.5,6.5,0,1,0-6.5-6.5A6.5,6.5,0,0,0,42.507,77.009Z" transform="translate(0 -4.308)" fill="#fff" fill-rule="evenodd"/>
      <path id="Path_235" data-name="Path 235" d="M53.876,35.438A2.438,2.438,0,1,1,51.438,33,2.438,2.438,0,0,1,53.876,35.438Zm-1.625,0a.813.813,0,1,1-.813-.813A.813.813,0,0,1,52.251,35.438Z" transform="translate(-7.305 -3.372)" fill="#fff" fill-rule="evenodd"/>
    </g>
  </g>
</svg>
