<svg xmlns="http://www.w3.org/2000/svg" xmlns:xlink="http://www.w3.org/1999/xlink" width="90" height="102" viewBox="0 0 90 102">
  <defs>
    <linearGradient id="linear-gradient" x1="0.5" x2="0.5" y2="1" gradientUnits="objectBoundingBox">
      <stop offset="0" stop-color="#16becf"/>
      <stop offset="1" stop-color="#3fffac"/>
    </linearGradient>
  </defs>
  <g id="Privacy" transform="translate(-414 -2404)">
    <g id="Group_2800" data-name="Group 2800" transform="translate(-35)">
      <path id="Path_149" data-name="Path 149" d="M84.1,43.758l0,0A11.781,11.781,0,0,1,90,53.951V94.606a11.778,11.778,0,0,1-6.032,10.265l-33.117,18.6a11.961,11.961,0,0,1-11.709,0L6.03,104.871A11.78,11.78,0,0,1,0,94.607V53.953A11.782,11.782,0,0,1,5.9,43.76L39,24.6a11.975,11.975,0,0,1,11.973,0L84.1,43.76Z" transform="translate(449 2381)" fill-rule="evenodd" fill="url(#linear-gradient)"/>
    </g>
    <g id="privacy-2" data-name="privacy" transform="translate(407 2946)">
      <path id="Path_230" data-name="Path 230" d="M38.875-510.585l-1.415,1.415H31v9.374c0,5.772.038,9.846.1,10.591a28.765,28.765,0,0,0,5.055,14.147,30.683,30.683,0,0,0,7.337,7.309A30.605,30.605,0,0,0,51.258-464l.981.292,1.094-.34a30.018,30.018,0,0,0,6.253-2.839,29.358,29.358,0,0,0,9.657-9.657,29.343,29.343,0,0,0,3.98-11.317c.141-.953.16-2.3.189-11.2l.038-10.11h-6.47l-1.415-1.415L64.15-512H40.29Zm25.464,2.829,1.415,1.415H70.62l-.038,8.648c-.028,8.29-.038,8.714-.236,9.9a26.211,26.211,0,0,1-11.572,18.07,29.713,29.713,0,0,1-5.347,2.65l-1.207.434-1.2-.434a29.527,29.527,0,0,1-5.357-2.66A26.16,26.16,0,0,1,34.1-487.724c-.207-1.273-.217-1.556-.245-9.969l-.038-8.648h4.866l1.415-1.415,1.415-1.415H62.924Z" fill="#fff"/>
      <path id="Path_231" data-name="Path 231" d="M159.35-451.683a7.136,7.136,0,0,0-5.461,5.517,17.924,17.924,0,0,0-.151,3.235v2.5H150.9l.028,5.725c.038,6.366.009,6.064.726,7.9a10.272,10.272,0,0,0,5.432,5.432,8.1,8.1,0,0,0,3.678.688,7.508,7.508,0,0,0,2.348-.217,10.007,10.007,0,0,0,7.347-7.366c.189-.679.2-.953.236-6.441l.028-5.725h-2.839v-2.5c0-2.726-.085-3.452-.538-4.527a7.43,7.43,0,0,0-3.876-3.867A7.409,7.409,0,0,0,159.35-451.683Zm2.329,2.773a4.3,4.3,0,0,1,3.273,3.273,25.673,25.673,0,0,1,.1,2.848v2.358h-8.488v-2.358a26.07,26.07,0,0,1,.1-2.848,4.029,4.029,0,0,1,1.16-2.1A4.144,4.144,0,0,1,161.68-448.91Zm6.177,15.476c-.028,3.556-.057,4.253-.189,4.706a7.227,7.227,0,0,1-5.461,5.121,7.094,7.094,0,0,1-8.318-5.527,28.149,28.149,0,0,1-.151-4.6V-437.6h14.156Z" transform="translate(-108.592 -54.498)" fill="#fff"/>
      <path id="Path_232" data-name="Path 232" d="M241-266.756v4.244h2.829V-271H241Z" transform="translate(-190.195 -218.271)" fill="#fff"/>
    </g>
  </g>
</svg>
