<svg xmlns="http://www.w3.org/2000/svg" width="65.816" height="50.179" viewBox="0 0 65.816 50.179">
  <g id="Group_5625" data-name="Group 5625" transform="translate(-752.96 -1534.199)">
    <g id="btc" transform="translate(752.96 1534.199)" opacity="0.26">
      <ellipse id="Oval" cx="24.936" cy="25.089" rx="24.936" ry="25.089" transform="translate(0 0)" fill="#21bdca"/>
    </g>
    <g id="audience" transform="translate(780.299 1540.199)">
      <path id="Path_18957" data-name="Path 18957" d="M99.92-505.708a7.25,7.25,0,0,0-2.888,1.113,6.894,6.894,0,0,0-2.934,4.4,6.886,6.886,0,0,0,5.115,7.951,9.086,9.086,0,0,0,3.189.008,6.894,6.894,0,0,0,4.558-3.7,5.688,5.688,0,0,0,.654-2.971,5.688,5.688,0,0,0-.654-2.971,6.861,6.861,0,0,0-4.446-3.663A11,11,0,0,0,99.92-505.708Zm1.993,2.512a4.465,4.465,0,0,1,3.234,3.347,4.428,4.428,0,0,1-5.408,5.228,4.142,4.142,0,0,1-2.046-1.173,4.359,4.359,0,0,1,0-6.228A4.331,4.331,0,0,1,101.914-503.2Z" transform="translate(-86.914 505.733)"/>
      <path id="Path_18958" data-name="Path 18958" d="M19.754-304.555c-.331.06-.76.158-.963.218a2.254,2.254,0,0,1-1.015.03,37.222,37.222,0,0,0-11.035.572,9.9,9.9,0,0,0-4.175,2.58,9.891,9.891,0,0,0-1.986,3.362c-.429,1.3-.444,1.437-.474,4.649-.03,2.911-.03,3,.12,3.31a1.14,1.14,0,0,0,.451.489l.293.165H13.391l.534.632a10.005,10.005,0,0,0,5.7,3.332,12.2,12.2,0,0,0,3.626,0,10.623,10.623,0,0,0,3.671-1.527,3.931,3.931,0,0,1,.527-.331c.03,0,1.083,1.038,2.347,2.3s2.422,2.362,2.573,2.445a1.16,1.16,0,0,0,1.715-1.008,1.931,1.931,0,0,0-.083-.557c-.045-.113-1.143-1.279-2.437-2.58L29.2-288.841l.376-.564a10.806,10.806,0,0,0,1.219-2.52,11.368,11.368,0,0,0,.429-2.287c0-.271.015-.286,2.189-1.813,1.2-.85,2.211-1.55,2.242-1.565a5.643,5.643,0,0,1-.135,1.091c-.211,1.286-.188,1.55.165,1.933a1.2,1.2,0,0,0,2.008-.481c.173-.617.91-5.25.873-5.476a1.516,1.516,0,0,0-.2-.5c-.286-.466-.436-.5-3.377-.685-1.474-.09-2.791-.135-2.934-.105a1.281,1.281,0,0,0-.5.3,1.129,1.129,0,0,0-.128,1.572c.308.369.557.451,1.5.519a5.751,5.751,0,0,1,.9.1c.038.038-2.573,1.911-2.768,1.986-.068.023-.15-.143-.271-.511a9.924,9.924,0,0,0-7.342-6.65A14.062,14.062,0,0,0,19.754-304.555Zm3.686,2.55a8.215,8.215,0,0,1,2.324,1.121,9.516,9.516,0,0,1,1.768,1.8,8.22,8.22,0,0,1,1.219,3.092l.03.293-1.805,1.271a17.126,17.126,0,0,1-1.888,1.234c-.053-.023-1.316-.9-2.821-1.971-2.573-1.828-2.761-1.941-3.114-1.971a1.755,1.755,0,0,0-.564.045c-.105.045-1.151.842-2.324,1.783s-2.151,1.677-2.181,1.655a7.827,7.827,0,0,1-.038-1.151,6.742,6.742,0,0,1,.527-2.888,7.574,7.574,0,0,1,4.476-4.2,6.127,6.127,0,0,1,2.588-.346A5.484,5.484,0,0,1,23.44-302.005Zm-8.884-.068c.09.038.008.165-.376.587a9.881,9.881,0,0,0-2.287,8.974l.15.557-.211.181-.2.181-4.573.008H2.476l.03-2.166c.038-2.347.083-2.678.549-3.784a7.1,7.1,0,0,1,4.415-3.9,24.614,24.614,0,0,1,3.671-.527A24.53,24.53,0,0,1,14.557-302.073Zm7.289,9.561c1.5,1.068,2.843,1.963,2.986,2.008.489.128.745.008,2.181-1.008a15.633,15.633,0,0,1,1.414-.94,8.454,8.454,0,0,1-.873,1.745,7.431,7.431,0,0,1-8.319,2.9,7.107,7.107,0,0,1-3.107-1.933,5.287,5.287,0,0,1-1.083-1.437c-.015-.075,3.9-3.257,4.017-3.265C19.1-294.445,20.349-293.573,21.845-292.512Z" transform="translate(-0.091 319.775)"/>
    </g>
  </g>
</svg>
