<svg xmlns="http://www.w3.org/2000/svg" xmlns:xlink="http://www.w3.org/1999/xlink" width="753.501" height="550.712" viewBox="0 0 753.501 550.712">
  <defs>
    <filter id="Rectangle_8446" x="44.032" y="47.032" width="665.436" height="503.679" filterUnits="userSpaceOnUse">
      <feOffset dy="3" input="SourceAlpha"/>
      <feGaussianBlur stdDeviation="3" result="blur"/>
      <feFlood flood-opacity="0.161"/>
      <feComposite operator="in" in2="blur"/>
      <feComposite in="SourceGraphic"/>
    </filter>
  </defs>
  <g id="IDE" transform="translate(-0.994)">
    <path id="Path_19496" data-name="Path 19496" d="M512.41,294.317A100.942,100.942,0,0,1,411.467,395.26H385.831a9.614,9.614,0,0,1-9.614-9.613V220.613A9.614,9.614,0,0,1,385.831,211H502.8a9.613,9.613,0,0,1,9.613,9.613Z" transform="translate(242.085 136.132)" fill="#16becf"/>
    <path id="Path_19497" data-name="Path 19497" d="M3.078,246.61a2.084,2.084,0,1,1,2.084-2.084A2.084,2.084,0,0,1,3.078,246.61Z" transform="translate(0 156.417)" fill="#ff8577"/>
    <path id="Path_19498" data-name="Path 19498" d="M3.078,257.757a2.084,2.084,0,1,1,2.084-2.083A2.084,2.084,0,0,1,3.078,257.757Z" transform="translate(0 163.61)" fill="#ff8577"/>
    <path id="Path_19499" data-name="Path 19499" d="M3.078,268.9a2.084,2.084,0,1,1,2.084-2.084A2.084,2.084,0,0,1,3.078,268.9Z" transform="translate(0 170.801)" fill="#ff8577"/>
    <path id="Path_19500" data-name="Path 19500" d="M3.078,280.046a2.084,2.084,0,1,1,2.084-2.083A2.084,2.084,0,0,1,3.078,280.046Z" transform="translate(0 177.991)" fill="#ff8577"/>
    <path id="Path_19501" data-name="Path 19501" d="M3.078,291.2a2.084,2.084,0,1,1,2.084-2.084A2.084,2.084,0,0,1,3.078,291.2Z" transform="translate(0 185.183)" fill="#ff8577"/>
    <path id="Path_19502" data-name="Path 19502" d="M3.078,302.337a2.084,2.084,0,1,1,2.084-2.083A2.084,2.084,0,0,1,3.078,302.337Z" transform="translate(0 192.372)" fill="#ff8577"/>
    <path id="Path_19503" data-name="Path 19503" d="M14.23,235.46a2.084,2.084,0,1,1,2.084-2.083A2.084,2.084,0,0,1,14.23,235.46Z" transform="translate(7.195 149.225)" fill="#ff8577"/>
    <path id="Path_19504" data-name="Path 19504" d="M14.23,246.608a2.084,2.084,0,1,1,2.084-2.084A2.084,2.084,0,0,1,14.23,246.608Z" transform="translate(7.195 156.416)" fill="#ff8577"/>
    <path id="Path_19505" data-name="Path 19505" d="M14.23,257.753a2.084,2.084,0,1,1,2.084-2.083A2.083,2.083,0,0,1,14.23,257.753Z" transform="translate(7.195 163.608)" fill="#ff8577"/>
    <path id="Path_19506" data-name="Path 19506" d="M14.23,268.9a2.084,2.084,0,1,1,2.084-2.084A2.084,2.084,0,0,1,14.23,268.9Z" transform="translate(7.195 170.799)" fill="#ff8577"/>
    <path id="Path_19507" data-name="Path 19507" d="M14.23,280.048a2.084,2.084,0,1,1,2.084-2.083A2.084,2.084,0,0,1,14.23,280.048Z" transform="translate(7.195 177.992)" fill="#ff8577"/>
    <path id="Path_19508" data-name="Path 19508" d="M14.23,291.2a2.084,2.084,0,1,1,2.084-2.084A2.084,2.084,0,0,1,14.23,291.2Z" transform="translate(7.195 185.183)" fill="#ff8577"/>
    <path id="Path_19509" data-name="Path 19509" d="M14.23,302.341a2.084,2.084,0,1,1,2.084-2.084A2.084,2.084,0,0,1,14.23,302.341Z" transform="translate(7.195 192.375)" fill="#ff8577"/>
    <path id="Path_19510" data-name="Path 19510" d="M14.23,313.489a2.084,2.084,0,1,1,2.084-2.084A2.084,2.084,0,0,1,14.23,313.489Z" transform="translate(7.195 199.566)" fill="#ff8577"/>
    <path id="Path_19511" data-name="Path 19511" d="M25.371,224.315a2.084,2.084,0,1,1,2.084-2.084A2.084,2.084,0,0,1,25.371,224.315Z" transform="translate(14.383 142.033)" fill="#ff8577"/>
    <path id="Path_19512" data-name="Path 19512" d="M25.371,235.462a2.084,2.084,0,1,1,2.084-2.083A2.084,2.084,0,0,1,25.371,235.462Z" transform="translate(14.383 149.226)" fill="#ff8577"/>
    <path id="Path_19513" data-name="Path 19513" d="M25.371,246.61a2.084,2.084,0,1,1,2.084-2.084A2.084,2.084,0,0,1,25.371,246.61Z" transform="translate(14.383 156.417)" fill="#ff8577"/>
    <path id="Path_19514" data-name="Path 19514" d="M25.371,257.757a2.084,2.084,0,1,1,2.084-2.083A2.083,2.083,0,0,1,25.371,257.757Z" transform="translate(14.383 163.61)" fill="#ff8577"/>
    <path id="Path_19515" data-name="Path 19515" d="M25.371,268.9a2.084,2.084,0,1,1,2.084-2.084A2.084,2.084,0,0,1,25.371,268.9Z" transform="translate(14.383 170.801)" fill="#ff8577"/>
    <path id="Path_19516" data-name="Path 19516" d="M25.371,280.046a2.084,2.084,0,1,1,2.084-2.083A2.084,2.084,0,0,1,25.371,280.046Z" transform="translate(14.383 177.991)" fill="#ff8577"/>
    <path id="Path_19517" data-name="Path 19517" d="M25.371,291.2a2.084,2.084,0,1,1,2.084-2.084A2.084,2.084,0,0,1,25.371,291.2Z" transform="translate(14.383 185.183)" fill="#ff8577"/>
    <path id="Path_19518" data-name="Path 19518" d="M25.371,302.337a2.084,2.084,0,1,1,2.084-2.083A2.083,2.083,0,0,1,25.371,302.337Z" transform="translate(14.383 192.372)" fill="#ff8577"/>
    <path id="Path_19519" data-name="Path 19519" d="M25.371,313.489a2.084,2.084,0,1,1,2.084-2.084A2.084,2.084,0,0,1,25.371,313.489Z" transform="translate(14.383 199.566)" fill="#ff8577"/>
    <path id="Path_19520" data-name="Path 19520" d="M25.371,324.632a2.084,2.084,0,1,1,2.084-2.083A2.083,2.083,0,0,1,25.371,324.632Z" transform="translate(14.383 206.756)" fill="#ff8577"/>
    <path id="Path_19521" data-name="Path 19521" d="M36.523,213.167a2.084,2.084,0,1,1,2.084-2.083A2.084,2.084,0,0,1,36.523,213.167Z" transform="translate(21.578 134.842)" fill="#ff8577"/>
    <path id="Path_19522" data-name="Path 19522" d="M36.523,224.315a2.084,2.084,0,1,1,2.084-2.084A2.084,2.084,0,0,1,36.523,224.315Z" transform="translate(21.578 142.033)" fill="#ff8577"/>
    <path id="Path_19523" data-name="Path 19523" d="M36.523,235.46a2.084,2.084,0,1,1,2.084-2.083A2.084,2.084,0,0,1,36.523,235.46Z" transform="translate(21.578 149.225)" fill="#ff8577"/>
    <path id="Path_19524" data-name="Path 19524" d="M36.523,246.608a2.084,2.084,0,1,1,2.084-2.084A2.084,2.084,0,0,1,36.523,246.608Z" transform="translate(21.578 156.416)" fill="#ff8577"/>
    <path id="Path_19525" data-name="Path 19525" d="M36.523,257.753a2.084,2.084,0,1,1,2.084-2.083A2.084,2.084,0,0,1,36.523,257.753Z" transform="translate(21.578 163.608)" fill="#ff8577"/>
    <path id="Path_19526" data-name="Path 19526" d="M36.523,268.9a2.084,2.084,0,1,1,2.084-2.084A2.084,2.084,0,0,1,36.523,268.9Z" transform="translate(21.578 170.799)" fill="#ff8577"/>
    <path id="Path_19527" data-name="Path 19527" d="M36.523,291.2a2.084,2.084,0,1,1,2.084-2.084A2.084,2.084,0,0,1,36.523,291.2Z" transform="translate(21.578 185.183)" fill="#ff8577"/>
    <path id="Path_19528" data-name="Path 19528" d="M36.523,302.341a2.084,2.084,0,1,1,2.084-2.084A2.084,2.084,0,0,1,36.523,302.341Z" transform="translate(21.578 192.375)" fill="#ff8577"/>
    <path id="Path_19529" data-name="Path 19529" d="M36.523,313.489a2.084,2.084,0,1,1,2.084-2.084A2.084,2.084,0,0,1,36.523,313.489Z" transform="translate(21.578 199.566)" fill="#ff8577"/>
    <path id="Path_19530" data-name="Path 19530" d="M36.523,324.634a2.084,2.084,0,1,1,2.084-2.084A2.084,2.084,0,0,1,36.523,324.634Z" transform="translate(21.578 206.758)" fill="#ff8577"/>
    <path id="Path_19531" data-name="Path 19531" d="M47.672,213.167a2.084,2.084,0,1,1,2.084-2.083A2.084,2.084,0,0,1,47.672,213.167Z" transform="translate(28.771 134.842)" fill="#ff8577"/>
    <path id="Path_19532" data-name="Path 19532" d="M47.672,224.315a2.084,2.084,0,1,1,2.084-2.084A2.084,2.084,0,0,1,47.672,224.315Z" transform="translate(28.771 142.033)" fill="#ff8577"/>
    <path id="Path_19533" data-name="Path 19533" d="M47.672,235.46a2.084,2.084,0,1,1,2.084-2.083A2.084,2.084,0,0,1,47.672,235.46Z" transform="translate(28.771 149.225)" fill="#ff8577"/>
    <path id="Path_19534" data-name="Path 19534" d="M47.672,246.608a2.084,2.084,0,1,1,2.084-2.084A2.084,2.084,0,0,1,47.672,246.608Z" transform="translate(28.771 156.416)" fill="#ff8577"/>
    <path id="Path_19535" data-name="Path 19535" d="M47.672,257.753a2.084,2.084,0,1,1,2.084-2.083A2.083,2.083,0,0,1,47.672,257.753Z" transform="translate(28.771 163.608)" fill="#ff8577"/>
    <path id="Path_19536" data-name="Path 19536" d="M47.672,268.9a2.084,2.084,0,1,1,2.084-2.084A2.084,2.084,0,0,1,47.672,268.9Z" transform="translate(28.771 170.799)" fill="#ff8577"/>
    <path id="Path_19537" data-name="Path 19537" d="M47.672,280.048a2.084,2.084,0,1,1,2.084-2.083A2.084,2.084,0,0,1,47.672,280.048Z" transform="translate(28.771 177.992)" fill="#ff8577"/>
    <path id="Path_19538" data-name="Path 19538" d="M47.672,302.341a2.084,2.084,0,1,1,2.084-2.084A2.084,2.084,0,0,1,47.672,302.341Z" transform="translate(28.771 192.375)" fill="#ff8577"/>
    <path id="Path_19539" data-name="Path 19539" d="M47.672,313.489a2.084,2.084,0,1,1,2.084-2.084A2.084,2.084,0,0,1,47.672,313.489Z" transform="translate(28.771 199.566)" fill="#ff8577"/>
    <path id="Path_19540" data-name="Path 19540" d="M47.672,324.634a2.084,2.084,0,1,1,2.084-2.084A2.084,2.084,0,0,1,47.672,324.634Z" transform="translate(28.771 206.758)" fill="#ff8577"/>
    <path id="Path_19541" data-name="Path 19541" d="M58.812,213.167a2.084,2.084,0,1,1,2.084-2.083A2.084,2.084,0,0,1,58.812,213.167Z" transform="translate(35.958 134.842)" fill="#ff8577"/>
    <path id="Path_19542" data-name="Path 19542" d="M58.812,224.315A2.084,2.084,0,1,1,60.9,222.23,2.084,2.084,0,0,1,58.812,224.315Z" transform="translate(35.958 142.033)" fill="#ff8577"/>
    <path id="Path_19543" data-name="Path 19543" d="M58.812,235.462a2.084,2.084,0,1,1,2.084-2.083A2.084,2.084,0,0,1,58.812,235.462Z" transform="translate(35.958 149.226)" fill="#ff8577"/>
    <path id="Path_19544" data-name="Path 19544" d="M58.812,246.61a2.084,2.084,0,1,1,2.084-2.084A2.084,2.084,0,0,1,58.812,246.61Z" transform="translate(35.958 156.417)" fill="#ff8577"/>
    <path id="Path_19545" data-name="Path 19545" d="M58.812,257.757a2.084,2.084,0,1,1,2.084-2.083A2.084,2.084,0,0,1,58.812,257.757Z" transform="translate(35.958 163.61)" fill="#ff8577"/>
    <path id="Path_19546" data-name="Path 19546" d="M58.812,268.9A2.084,2.084,0,1,1,60.9,266.82,2.084,2.084,0,0,1,58.812,268.9Z" transform="translate(35.958 170.801)" fill="#ff8577"/>
    <path id="Path_19547" data-name="Path 19547" d="M58.812,280.046a2.084,2.084,0,1,1,2.084-2.083A2.084,2.084,0,0,1,58.812,280.046Z" transform="translate(35.958 177.991)" fill="#ff8577"/>
    <path id="Path_19548" data-name="Path 19548" d="M58.812,291.2a2.084,2.084,0,1,1,2.084-2.084A2.084,2.084,0,0,1,58.812,291.2Z" transform="translate(35.958 185.183)" fill="#ff8577"/>
    <path id="Path_19549" data-name="Path 19549" d="M58.812,302.337a2.084,2.084,0,1,1,2.084-2.083A2.084,2.084,0,0,1,58.812,302.337Z" transform="translate(35.958 192.372)" fill="#ff8577"/>
    <path id="Path_19550" data-name="Path 19550" d="M58.812,313.489A2.084,2.084,0,1,1,60.9,311.4,2.084,2.084,0,0,1,58.812,313.489Z" transform="translate(35.958 199.566)" fill="#ff8577"/>
    <path id="Path_19551" data-name="Path 19551" d="M58.812,324.632a2.084,2.084,0,1,1,2.084-2.083A2.084,2.084,0,0,1,58.812,324.632Z" transform="translate(35.958 206.756)" fill="#ff8577"/>
    <path id="Path_19552" data-name="Path 19552" d="M69.965,213.167a2.084,2.084,0,1,1,2.084-2.083A2.084,2.084,0,0,1,69.965,213.167Z" transform="translate(43.154 134.842)" fill="#ff8577"/>
    <path id="Path_19553" data-name="Path 19553" d="M69.965,224.315a2.084,2.084,0,1,1,2.084-2.084A2.084,2.084,0,0,1,69.965,224.315Z" transform="translate(43.154 142.033)" fill="#ff8577"/>
    <path id="Path_19554" data-name="Path 19554" d="M69.965,235.46a2.084,2.084,0,1,1,2.084-2.083A2.084,2.084,0,0,1,69.965,235.46Z" transform="translate(43.154 149.225)" fill="#ff8577"/>
    <path id="Path_19555" data-name="Path 19555" d="M69.965,246.608a2.084,2.084,0,1,1,2.084-2.084A2.084,2.084,0,0,1,69.965,246.608Z" transform="translate(43.154 156.416)" fill="#ff8577"/>
    <path id="Path_19556" data-name="Path 19556" d="M69.965,257.753a2.084,2.084,0,1,1,2.084-2.083A2.084,2.084,0,0,1,69.965,257.753Z" transform="translate(43.154 163.608)" fill="#ff8577"/>
    <path id="Path_19557" data-name="Path 19557" d="M69.965,268.9a2.084,2.084,0,1,1,2.084-2.084A2.084,2.084,0,0,1,69.965,268.9Z" transform="translate(43.154 170.799)" fill="#ff8577"/>
    <path id="Path_19558" data-name="Path 19558" d="M69.965,280.048a2.084,2.084,0,1,1,2.084-2.083A2.084,2.084,0,0,1,69.965,280.048Z" transform="translate(43.154 177.992)" fill="#ff8577"/>
    <path id="Path_19559" data-name="Path 19559" d="M69.965,291.2a2.084,2.084,0,1,1,2.084-2.084A2.084,2.084,0,0,1,69.965,291.2Z" transform="translate(43.154 185.183)" fill="#ff8577"/>
    <path id="Path_19560" data-name="Path 19560" d="M69.965,302.341a2.084,2.084,0,1,1,2.084-2.084A2.084,2.084,0,0,1,69.965,302.341Z" transform="translate(43.154 192.375)" fill="#ff8577"/>
    <path id="Path_19561" data-name="Path 19561" d="M69.965,313.489a2.084,2.084,0,1,1,2.084-2.084A2.084,2.084,0,0,1,69.965,313.489Z" transform="translate(43.154 199.566)" fill="#ff8577"/>
    <path id="Path_19562" data-name="Path 19562" d="M69.965,324.634a2.084,2.084,0,1,1,2.084-2.084A2.084,2.084,0,0,1,69.965,324.634Z" transform="translate(43.154 206.758)" fill="#ff8577"/>
    <path id="Path_19563" data-name="Path 19563" d="M81.117,213.167a2.084,2.084,0,1,1,2.084-2.083A2.084,2.084,0,0,1,81.117,213.167Z" transform="translate(50.349 134.842)" fill="#ff8577"/>
    <path id="Path_19564" data-name="Path 19564" d="M81.117,224.315A2.084,2.084,0,1,1,83.2,222.23,2.084,2.084,0,0,1,81.117,224.315Z" transform="translate(50.349 142.033)" fill="#ff8577"/>
    <path id="Path_19565" data-name="Path 19565" d="M81.117,235.462a2.084,2.084,0,1,1,2.084-2.083A2.084,2.084,0,0,1,81.117,235.462Z" transform="translate(50.349 149.226)" fill="#ff8577"/>
    <path id="Path_19566" data-name="Path 19566" d="M81.117,246.61a2.084,2.084,0,1,1,2.084-2.084A2.084,2.084,0,0,1,81.117,246.61Z" transform="translate(50.349 156.417)" fill="#ff8577"/>
    <path id="Path_19567" data-name="Path 19567" d="M81.117,257.757a2.084,2.084,0,1,1,2.084-2.083A2.083,2.083,0,0,1,81.117,257.757Z" transform="translate(50.349 163.61)" fill="#ff8577"/>
    <path id="Path_19568" data-name="Path 19568" d="M81.117,268.9A2.084,2.084,0,1,1,83.2,266.82,2.084,2.084,0,0,1,81.117,268.9Z" transform="translate(50.349 170.801)" fill="#ff8577"/>
    <path id="Path_19569" data-name="Path 19569" d="M81.117,280.046a2.084,2.084,0,1,1,2.084-2.083A2.084,2.084,0,0,1,81.117,280.046Z" transform="translate(50.349 177.991)" fill="#ff8577"/>
    <path id="Path_19570" data-name="Path 19570" d="M81.117,291.2a2.084,2.084,0,1,1,2.084-2.084A2.084,2.084,0,0,1,81.117,291.2Z" transform="translate(50.349 185.183)" fill="#ff8577"/>
    <path id="Path_19571" data-name="Path 19571" d="M81.117,302.337a2.084,2.084,0,1,1,2.084-2.083A2.084,2.084,0,0,1,81.117,302.337Z" transform="translate(50.349 192.372)" fill="#ff8577"/>
    <path id="Path_19572" data-name="Path 19572" d="M81.117,313.489A2.084,2.084,0,1,1,83.2,311.4,2.084,2.084,0,0,1,81.117,313.489Z" transform="translate(50.349 199.566)" fill="#ff8577"/>
    <path id="Path_19573" data-name="Path 19573" d="M81.117,324.632a2.084,2.084,0,1,1,2.084-2.083A2.084,2.084,0,0,1,81.117,324.632Z" transform="translate(50.349 206.756)" fill="#ff8577"/>
    <path id="Path_19574" data-name="Path 19574" d="M92.258,213.167a2.084,2.084,0,1,1,2.084-2.083A2.084,2.084,0,0,1,92.258,213.167Z" transform="translate(57.537 134.842)" fill="#ff8577"/>
    <path id="Path_19575" data-name="Path 19575" d="M92.258,224.315a2.084,2.084,0,1,1,2.084-2.084A2.084,2.084,0,0,1,92.258,224.315Z" transform="translate(57.537 142.033)" fill="#ff8577"/>
    <path id="Path_19576" data-name="Path 19576" d="M92.258,235.46a2.084,2.084,0,1,1,2.084-2.083A2.084,2.084,0,0,1,92.258,235.46Z" transform="translate(57.537 149.225)" fill="#ff8577"/>
    <path id="Path_19577" data-name="Path 19577" d="M92.258,246.608a2.084,2.084,0,1,1,2.084-2.084A2.084,2.084,0,0,1,92.258,246.608Z" transform="translate(57.537 156.416)" fill="#ff8577"/>
    <path id="Path_19578" data-name="Path 19578" d="M92.258,257.753a2.084,2.084,0,1,1,2.084-2.083A2.084,2.084,0,0,1,92.258,257.753Z" transform="translate(57.537 163.608)" fill="#ff8577"/>
    <path id="Path_19579" data-name="Path 19579" d="M92.258,268.9a2.084,2.084,0,1,1,2.084-2.084A2.084,2.084,0,0,1,92.258,268.9Z" transform="translate(57.537 170.799)" fill="#ff8577"/>
    <path id="Path_19580" data-name="Path 19580" d="M92.258,280.048a2.084,2.084,0,1,1,2.084-2.083A2.084,2.084,0,0,1,92.258,280.048Z" transform="translate(57.537 177.992)" fill="#ff8577"/>
    <path id="Path_19581" data-name="Path 19581" d="M92.258,291.2a2.084,2.084,0,1,1,2.084-2.084A2.084,2.084,0,0,1,92.258,291.2Z" transform="translate(57.537 185.183)" fill="#ff8577"/>
    <path id="Path_19582" data-name="Path 19582" d="M92.258,302.341a2.084,2.084,0,1,1,2.084-2.084A2.084,2.084,0,0,1,92.258,302.341Z" transform="translate(57.537 192.375)" fill="#ff8577"/>
    <path id="Path_19583" data-name="Path 19583" d="M92.258,313.489a2.084,2.084,0,1,1,2.084-2.084A2.084,2.084,0,0,1,92.258,313.489Z" transform="translate(57.537 199.566)" fill="#ff8577"/>
    <path id="Path_19584" data-name="Path 19584" d="M103.406,213.167a2.084,2.084,0,1,1,2.083-2.083A2.084,2.084,0,0,1,103.406,213.167Z" transform="translate(64.729 134.842)" fill="#ff8577"/>
    <path id="Path_19585" data-name="Path 19585" d="M103.406,224.315a2.084,2.084,0,1,1,2.083-2.084A2.084,2.084,0,0,1,103.406,224.315Z" transform="translate(64.729 142.033)" fill="#ff8577"/>
    <path id="Path_19586" data-name="Path 19586" d="M103.406,235.46a2.084,2.084,0,1,1,2.083-2.083A2.084,2.084,0,0,1,103.406,235.46Z" transform="translate(64.729 149.225)" fill="#ff8577"/>
    <path id="Path_19587" data-name="Path 19587" d="M103.406,246.608a2.084,2.084,0,1,1,2.083-2.084A2.084,2.084,0,0,1,103.406,246.608Z" transform="translate(64.729 156.416)" fill="#ff8577"/>
    <path id="Path_19588" data-name="Path 19588" d="M103.406,257.753a2.084,2.084,0,1,1,2.083-2.083A2.084,2.084,0,0,1,103.406,257.753Z" transform="translate(64.729 163.608)" fill="#ff8577"/>
    <path id="Path_19589" data-name="Path 19589" d="M103.406,268.9a2.084,2.084,0,1,1,2.083-2.084A2.084,2.084,0,0,1,103.406,268.9Z" transform="translate(64.729 170.799)" fill="#ff8577"/>
    <path id="Path_19590" data-name="Path 19590" d="M103.406,280.048a2.084,2.084,0,1,1,2.083-2.083A2.084,2.084,0,0,1,103.406,280.048Z" transform="translate(64.729 177.992)" fill="#ff8577"/>
    <path id="Path_19591" data-name="Path 19591" d="M103.406,291.2a2.084,2.084,0,1,1,2.083-2.084A2.084,2.084,0,0,1,103.406,291.2Z" transform="translate(64.729 185.183)" fill="#ff8577"/>
    <path id="Path_19592" data-name="Path 19592" d="M103.406,302.341a2.084,2.084,0,1,1,2.083-2.084A2.084,2.084,0,0,1,103.406,302.341Z" transform="translate(64.729 192.375)" fill="#ff8577"/>
    <path id="Path_19593" data-name="Path 19593" d="M114.55,224.315a2.084,2.084,0,1,1,2.084-2.084A2.084,2.084,0,0,1,114.55,224.315Z" transform="translate(71.92 142.033)" fill="#ff8577"/>
    <path id="Path_19594" data-name="Path 19594" d="M114.55,235.46a2.084,2.084,0,1,1,2.084-2.083A2.083,2.083,0,0,1,114.55,235.46Z" transform="translate(71.92 149.225)" fill="#ff8577"/>
    <path id="Path_19595" data-name="Path 19595" d="M114.55,246.608a2.084,2.084,0,1,1,2.084-2.084A2.084,2.084,0,0,1,114.55,246.608Z" transform="translate(71.92 156.416)" fill="#ff8577"/>
    <path id="Path_19596" data-name="Path 19596" d="M114.55,257.753a2.084,2.084,0,1,1,2.084-2.083A2.083,2.083,0,0,1,114.55,257.753Z" transform="translate(71.92 163.608)" fill="#ff8577"/>
    <path id="Path_19597" data-name="Path 19597" d="M114.55,268.9a2.084,2.084,0,1,1,2.084-2.084A2.084,2.084,0,0,1,114.55,268.9Z" transform="translate(71.92 170.799)" fill="#ff8577"/>
    <path id="Path_19598" data-name="Path 19598" d="M114.55,280.048a2.084,2.084,0,1,1,2.084-2.083A2.083,2.083,0,0,1,114.55,280.048Z" transform="translate(71.92 177.992)" fill="#ff8577"/>
    <path id="Path_19599" data-name="Path 19599" d="M114.55,291.2a2.084,2.084,0,1,1,2.084-2.084A2.084,2.084,0,0,1,114.55,291.2Z" transform="translate(71.92 185.183)" fill="#ff8577"/>
    <g id="Group_4191" data-name="Group 4191" transform="translate(54.026 53.032)">
      <g transform="matrix(1, 0, 0, 1, -53.03, -53.03)" filter="url(#Rectangle_8446)">
        <rect id="Rectangle_8446-2" data-name="Rectangle 8446" width="647.436" height="485.68" rx="24" transform="translate(53.03 53.03)" fill="#fff"/>
      </g>
      <path id="Rectangle_8600" data-name="Rectangle 8600" d="M24,0H66.436a0,0,0,0,1,0,0V485.68a0,0,0,0,1,0,0H24a24,24,0,0,1-24-24V24A24,24,0,0,1,24,0Z" fill="#e2f1ff"/>
    </g>
    <path id="Path_19601" data-name="Path 19601" d="M54.1,68.443V60.086h-.3l-1.086,3.948H50.643v-.2L52.025,59H56.27v9.443h2.863v2.073H50.841V68.443Zm4.82,32.9v2.073H50.824v-2.27a4.07,4.07,0,0,1,.263-1.546,3.112,3.112,0,0,1,.773-1.086,4.165,4.165,0,0,1,1.217-.724,9.443,9.443,0,0,1,1.6-.494,5.974,5.974,0,0,0,1.069-.329,2.558,2.558,0,0,0,.675-.428,1.244,1.244,0,0,0,.329-.526,2.072,2.072,0,0,0,.1-.658,1.487,1.487,0,0,0-.51-1.152,1.947,1.947,0,0,0-1.382-.461,1.992,1.992,0,0,0-1.5.576,2.113,2.113,0,0,0-.559,1.563v.724H50.725v-.921a4.209,4.209,0,0,1,.28-1.53,3.9,3.9,0,0,1,.823-1.283A3.784,3.784,0,0,1,53.144,92a4.415,4.415,0,0,1,1.744-.329,4.808,4.808,0,0,1,1.81.313,3.742,3.742,0,0,1,1.283.79,3.011,3.011,0,0,1,.773,1.152,3.477,3.477,0,0,1,.263,1.333v.2a3.548,3.548,0,0,1-.823,2.4,4.777,4.777,0,0,1-2.649,1.382,9.841,9.841,0,0,0-1.283.378,2.657,2.657,0,0,0-.773.411,1.316,1.316,0,0,0-.395.51,1.729,1.729,0,0,0-.1.609v.2ZM53.67,131.388v-3.422l2.863-.79v-.3H50.808v-2.073h7.5v3.619l-3.06.888v.3h.395a3.775,3.775,0,0,1,1.2.2,2.74,2.74,0,0,1,1.036.576,2.922,2.922,0,0,1,.74.987,3.1,3.1,0,0,1,.28,1.365v.2a3.822,3.822,0,0,1-.263,1.431,3.093,3.093,0,0,1-.757,1.152,3.556,3.556,0,0,1-1.234.757,4.786,4.786,0,0,1-1.695.28,4.735,4.735,0,0,1-1.76-.313,4.061,4.061,0,0,1-1.349-.855,3.856,3.856,0,0,1-1.135-2.747v-.691h2.172v.592a1.99,1.99,0,0,0,.51,1.365,1.94,1.94,0,0,0,1.53.576,1.845,1.845,0,0,0,1.333-.444,1.522,1.522,0,0,0,.477-1.168,1.254,1.254,0,0,0-.51-1.119,2.084,2.084,0,0,0-1.267-.362Zm-.1,26.323h4.113v7.272h1.678v2.073H57.685v2.172H55.513v-2.172H50.38v-2.994Zm-1.316,6.976v.3h3.257V158.8h-.3ZM50.841,197v-6.383h7.7v2.073H53.012v3.126h.3a2.355,2.355,0,0,1,.855-1.1,2.805,2.805,0,0,1,1.711-.477,3.6,3.6,0,0,1,1.448.28,3.106,3.106,0,0,1,1.086.773,3.309,3.309,0,0,1,.675,1.185,4.473,4.473,0,0,1,.247,1.514v.1a4.56,4.56,0,0,1-.3,1.645,3.9,3.9,0,0,1-.839,1.365,3.987,3.987,0,0,1-1.349.921,4.684,4.684,0,0,1-1.859.345,5.679,5.679,0,0,1-1.859-.28,4.085,4.085,0,0,1-1.365-.806,3.667,3.667,0,0,1-.839-1.234,4.3,4.3,0,0,1-.28-1.563v-.395h2.172v.2a2.064,2.064,0,0,0,.526,1.448,2.1,2.1,0,0,0,1.579.559,2.274,2.274,0,0,0,1.629-.559,2,2,0,0,0,.609-1.546,1.947,1.947,0,0,0-.444-1.4,1.523,1.523,0,0,0-1.168-.477,1.287,1.287,0,0,0-.773.214.874.874,0,0,0-.378.477Zm5.676,29.778a1.323,1.323,0,0,0-.428-.987,1.736,1.736,0,0,0-1.3-.428,1.914,1.914,0,0,0-1.415.526,1.824,1.824,0,0,0-.51,1.349v1.481h.3a2.1,2.1,0,0,1,.9-.921,2.766,2.766,0,0,1,1.415-.362,3.389,3.389,0,0,1,1.333.263,3.054,3.054,0,0,1,1.086.724,3.263,3.263,0,0,1,.724,1.135,4.178,4.178,0,0,1,.263,1.53v.2a4.3,4.3,0,0,1-.3,1.612,3.451,3.451,0,0,1-.823,1.25,3.7,3.7,0,0,1-1.283.823,4.892,4.892,0,0,1-3.307.016,4.162,4.162,0,0,1-1.3-.773,3.983,3.983,0,0,1-.872-1.2,3.785,3.785,0,0,1-.313-1.546v-4.2a4.006,4.006,0,0,1,.329-1.645,3.705,3.705,0,0,1,.888-1.25,3.911,3.911,0,0,1,1.283-.806,4.4,4.4,0,0,1,1.563-.28,4.615,4.615,0,0,1,1.53.247,3.454,3.454,0,0,1,1.25.691,2.98,2.98,0,0,1,.839,1.1,3.26,3.26,0,0,1,.313,1.448Zm-1.727,6.416a1.976,1.976,0,0,0,1.382-.494,1.765,1.765,0,0,0,.543-1.349,1.712,1.712,0,0,0-.543-1.333,2.127,2.127,0,0,0-2.764,0,1.712,1.712,0,0,0-.543,1.333,1.765,1.765,0,0,0,.543,1.349A1.976,1.976,0,0,0,54.789,233.191Zm-4.047,23.23h8.094v3.389L54.674,265.9q-.329.494-.526.856a1.677,1.677,0,0,0-.181.79v.395H51.63v-.494a3.239,3.239,0,0,1,.049-.592,3.152,3.152,0,0,1,.148-.526,4.654,4.654,0,0,1,.3-.559q.181-.3.444-.691l4.294-6.285v-.3h-6.12Zm4.047,44.65a6.125,6.125,0,0,1-1.744-.23,4.148,4.148,0,0,1-1.316-.675,3.044,3.044,0,0,1-.839-1,2.9,2.9,0,0,1-.3-1.316v-.1a3.174,3.174,0,0,1,.165-1.069,2.758,2.758,0,0,1,.461-.79,2.826,2.826,0,0,1,.658-.543,3.3,3.3,0,0,1,.757-.329v-.3a3.5,3.5,0,0,1-.675-.345,2.752,2.752,0,0,1-.559-.51,2.826,2.826,0,0,1-.378-.724,3.239,3.239,0,0,1-.132-.954v-.1a2.452,2.452,0,0,1,.329-1.267,2.952,2.952,0,0,1,.872-.938,3.9,3.9,0,0,1,1.234-.592,5.423,5.423,0,0,1,1.464-.2,5.245,5.245,0,0,1,1.448.2,3.875,3.875,0,0,1,1.25.592,2.952,2.952,0,0,1,.872.938,2.452,2.452,0,0,1,.329,1.267v.1a2.9,2.9,0,0,1-.148.954,2.261,2.261,0,0,1-.938,1.234,3.094,3.094,0,0,1-.658.345v.3a3.3,3.3,0,0,1,.757.329,2.542,2.542,0,0,1,.642.543,2.333,2.333,0,0,1,.461.79,2.914,2.914,0,0,1,.181,1.069v.1a2.9,2.9,0,0,1-.3,1.316,2.987,2.987,0,0,1-.839,1.02,4.311,4.311,0,0,1-1.333.658A6.061,6.061,0,0,1,54.789,301.071Zm0-2.073a2.321,2.321,0,0,0,1.5-.428,1.4,1.4,0,0,0,.526-1.119,1.356,1.356,0,0,0-.526-1.1,2.745,2.745,0,0,0-2.994,0,1.356,1.356,0,0,0-.526,1.1,1.4,1.4,0,0,0,.526,1.119A2.321,2.321,0,0,0,54.789,299Zm0-7.831a1.972,1.972,0,0,0-1.234.378,1.169,1.169,0,0,0,0,1.908,2.2,2.2,0,0,0,2.468,0,1.169,1.169,0,0,0,0-1.908A1.972,1.972,0,0,0,54.789,291.167Zm-1.727,39.32a1.4,1.4,0,0,0,.411,1,1.836,1.836,0,0,0,1.316.411,1.888,1.888,0,0,0,1.4-.51,1.847,1.847,0,0,0,.526-1.366v-1.481h-.3a2.041,2.041,0,0,1-.757.938,2.724,2.724,0,0,1-1.5.346,3.6,3.6,0,0,1-1.382-.263,3.508,3.508,0,0,1-1.1-.773,3.583,3.583,0,0,1-.724-1.185,4.266,4.266,0,0,1-.263-1.53v-.2a3.926,3.926,0,0,1,.3-1.53,3.593,3.593,0,0,1,.823-1.234,3.873,3.873,0,0,1,1.3-.823,4.748,4.748,0,0,1,1.711-.3,4.491,4.491,0,0,1,1.6.28,3.776,3.776,0,0,1,1.3.79,3.522,3.522,0,0,1,.855,1.2,3.669,3.669,0,0,1,.313,1.53v4.2a4.277,4.277,0,0,1-.313,1.678,3.629,3.629,0,0,1-.855,1.25,3.808,3.808,0,0,1-1.283.79,4.576,4.576,0,0,1-1.579.263,5.144,5.144,0,0,1-1.563-.23,4.036,4.036,0,0,1-1.267-.691,3.219,3.219,0,0,1-1.135-2.566Zm1.727-6.416a1.936,1.936,0,0,0-1.382.51,1.712,1.712,0,0,0-.543,1.333,1.765,1.765,0,0,0,.543,1.349,2.181,2.181,0,0,0,2.764,0,1.765,1.765,0,0,0,.543-1.349,1.712,1.712,0,0,0-.543-1.333A1.936,1.936,0,0,0,54.789,324.071Zm-.691,40.5v-8.358h-.3l-1.086,3.948H50.643v-.2l1.382-4.837H56.27v9.443h2.863v2.073H50.841v-2.073Zm9.382-3.685a1.4,1.4,0,1,1,.411.971A1.328,1.328,0,0,1,63.481,360.89Zm-2.863-1.283a4.985,4.985,0,0,1,1.119-3.471,4.036,4.036,0,0,1,3.126-1.234,3.984,3.984,0,0,1,3.109,1.234,4.938,4.938,0,0,1,1.135,3.471v2.566a4.918,4.918,0,0,1-1.135,3.5,4.038,4.038,0,0,1-3.109,1.2,4.092,4.092,0,0,1-3.126-1.2,4.965,4.965,0,0,1-1.119-3.5Zm4.245,5.3a2.378,2.378,0,0,0,.987-.181,1.719,1.719,0,0,0,.642-.543,2.147,2.147,0,0,0,.345-.823,5.206,5.206,0,0,0,.1-1.053v-2.83a4.331,4.331,0,0,0-.115-1.02,2.349,2.349,0,0,0-.362-.823,1.719,1.719,0,0,0-.642-.543,2.235,2.235,0,0,0-1.908,0,1.719,1.719,0,0,0-.642.543,2.352,2.352,0,0,0-.362.823,4.34,4.34,0,0,0-.115,1.02v2.83a5.206,5.206,0,0,0,.1,1.053,2.147,2.147,0,0,0,.345.823,1.719,1.719,0,0,0,.642.543A2.378,2.378,0,0,0,64.862,364.9ZM54.1,397.479v-8.357h-.3l-1.086,3.948H50.643v-.2l1.382-4.837H56.27v9.443h2.863v2.073H50.841v-2.073Zm10.073,0v-8.357h-.3l-1.086,3.948H60.717v-.2l1.382-4.837h4.245v9.443h2.863v2.073H60.914v-2.073Z" transform="translate(31.863 38.065)" fill="#536387"/>
    <path id="Path_19602" data-name="Path 19602" d="M103.244,70.516h-2.073V64.791a.657.657,0,0,0-.181-.51.571.571,0,0,0-.444-.181.712.712,0,0,0-.526.2.851.851,0,0,0-.181.592v5.627H97.766V64.791a.626.626,0,0,0-.2-.51.6.6,0,0,0-.444-.181.67.67,0,0,0-.494.2.8.8,0,0,0-.2.592v5.627H94.36v-8.16h2.073v.79h.3a1.254,1.254,0,0,1,.444-.724,1.433,1.433,0,0,1,.938-.3,1.449,1.449,0,0,1,.921.3,1.359,1.359,0,0,1,.51.724h.3a1.309,1.309,0,0,1,.543-.724,1.805,1.805,0,0,1,1.053-.3,1.668,1.668,0,0,1,1.316.559,2.168,2.168,0,0,1,.494,1.514Zm9.876-3.981a4.476,4.476,0,0,1-.345,1.81,3.944,3.944,0,0,1-.938,1.316,4.172,4.172,0,0,1-1.366.806,4.57,4.57,0,0,1-1.6.28,4.7,4.7,0,0,1-1.612-.28,4.2,4.2,0,0,1-1.349-.806,3.944,3.944,0,0,1-.938-1.316,4.476,4.476,0,0,1-.345-1.81v-.2a4.315,4.315,0,0,1,.345-1.777,3.9,3.9,0,0,1,.938-1.333,4.054,4.054,0,0,1,1.349-.823,4.7,4.7,0,0,1,1.612-.28,4.57,4.57,0,0,1,1.6.28,4.029,4.029,0,0,1,1.366.823,3.9,3.9,0,0,1,.938,1.333,4.315,4.315,0,0,1,.345,1.777Zm-4.245,2.237a2.37,2.37,0,0,0,.839-.148,2.036,2.036,0,0,0,.691-.428,1.95,1.95,0,0,0,.461-.675,2.273,2.273,0,0,0,.181-.921v-.329a2.158,2.158,0,0,0-.181-.9,1.917,1.917,0,0,0-.461-.691,2.036,2.036,0,0,0-.691-.428,2.451,2.451,0,0,0-1.678,0,2.037,2.037,0,0,0-.691.428,2.09,2.09,0,0,0-.477.691,2.326,2.326,0,0,0-.165.9V66.6a2.451,2.451,0,0,0,.165.921,2.136,2.136,0,0,0,.477.675,2.037,2.037,0,0,0,.691.428A2.37,2.37,0,0,0,108.875,68.772Zm12.179.559h-.3a3.086,3.086,0,0,1-.329.543,1.763,1.763,0,0,1-.494.444,2.45,2.45,0,0,1-.724.313,4.124,4.124,0,0,1-2.418-.148,3.413,3.413,0,0,1-1.135-.806,4.062,4.062,0,0,1-.757-1.316,5.49,5.49,0,0,1-.263-1.777v-.3a5.168,5.168,0,0,1,.28-1.76,3.927,3.927,0,0,1,.79-1.3,3.433,3.433,0,0,1,1.168-.823,3.657,3.657,0,0,1,1.415-.28,2.816,2.816,0,0,1,1.563.378,2.466,2.466,0,0,1,.9,1.036h.3V59h2.073V70.516h-2.073Zm-2.172-.559a2.082,2.082,0,0,0,1.563-.609,2.233,2.233,0,0,0,.609-1.629v-.2a2.177,2.177,0,0,0-.609-1.612,2.054,2.054,0,0,0-1.563-.625,2.138,2.138,0,0,0-1.579.609,2.2,2.2,0,0,0-.592,1.629v.2a2.258,2.258,0,0,0,.592,1.645A2.171,2.171,0,0,0,118.883,68.772ZM130.8,62.356h2.073v8.16H130.8V69.332h-.3a2.233,2.233,0,0,1-2.336,1.415,3.2,3.2,0,0,1-1.135-.2,2.464,2.464,0,0,1-.921-.609,2.959,2.959,0,0,1-.625-1.02,4.513,4.513,0,0,1-.214-1.464v-5.1h2.073v4.672a2.068,2.068,0,0,0,.411,1.365,1.542,1.542,0,0,0,1.234.477,1.569,1.569,0,0,0,1.366-.592,2.735,2.735,0,0,0,.444-1.645Zm4.5,6.186h2.863V60.974h-2.764V59h4.837v9.542H142.9v1.974h-7.6Zm11.949-1.431a1.754,1.754,0,0,0,.165.675,1.994,1.994,0,0,0,.428.526,2.1,2.1,0,0,0,1.382.461,2.2,2.2,0,0,0,1.185-.263,1.67,1.67,0,0,0,.592-.658l1.777.987a3.72,3.72,0,0,1-.411.658,2.877,2.877,0,0,1-.691.609,3.644,3.644,0,0,1-1.02.461,4.808,4.808,0,0,1-1.4.181,4.573,4.573,0,0,1-1.678-.3,3.808,3.808,0,0,1-1.316-.855,4.026,4.026,0,0,1-.856-1.366,5.272,5.272,0,0,1-.3-1.826v-.1a4.547,4.547,0,0,1,.313-1.711,4.015,4.015,0,0,1,.888-1.316,3.961,3.961,0,0,1,1.3-.839,4.186,4.186,0,0,1,1.612-.313,4,4,0,0,1,1.81.378,3.746,3.746,0,0,1,1.25.938,3.582,3.582,0,0,1,.724,1.25,4.031,4.031,0,0,1,.23,1.316v1.1ZM149.2,64a1.937,1.937,0,0,0-1.283.411,1.8,1.8,0,0,0-.642.921h3.85a1.449,1.449,0,0,0-.625-.954A2.121,2.121,0,0,0,149.2,64Zm11.6,5.182a1.505,1.505,0,0,1-.132.625,1.475,1.475,0,0,1-.329.494,1.584,1.584,0,0,1-.51.313,1.371,1.371,0,0,1-.592.132,1.418,1.418,0,0,1-.609-.132,1.658,1.658,0,0,1-.494-.313,1.787,1.787,0,0,1-.346-.494,1.733,1.733,0,0,1-.115-.625,1.6,1.6,0,0,1,.115-.609,1.616,1.616,0,0,1,.839-.823,1.418,1.418,0,0,1,.609-.132,1.371,1.371,0,0,1,.592.132,1.45,1.45,0,0,1,.51.329,1.283,1.283,0,0,1,.329.494A1.4,1.4,0,0,1,160.805,69.184Zm6.586-2.073a1.753,1.753,0,0,0,.164.675,1.994,1.994,0,0,0,.428.526,2.1,2.1,0,0,0,1.382.461,2.2,2.2,0,0,0,1.185-.263,1.67,1.67,0,0,0,.592-.658l1.777.987a3.717,3.717,0,0,1-.411.658,2.876,2.876,0,0,1-.691.609,3.644,3.644,0,0,1-1.02.461,4.808,4.808,0,0,1-1.4.181,4.573,4.573,0,0,1-1.678-.3,3.808,3.808,0,0,1-1.316-.855,4.026,4.026,0,0,1-.855-1.366,5.272,5.272,0,0,1-.3-1.826v-.1a4.547,4.547,0,0,1,.313-1.711,4.015,4.015,0,0,1,.888-1.316,3.961,3.961,0,0,1,1.3-.839,4.186,4.186,0,0,1,1.612-.313,4,4,0,0,1,1.81.378,3.747,3.747,0,0,1,1.25.938,3.582,3.582,0,0,1,.724,1.25,4.031,4.031,0,0,1,.23,1.316v1.1ZM169.349,64a1.937,1.937,0,0,0-1.283.411,1.8,1.8,0,0,0-.642.921h3.85a1.449,1.449,0,0,0-.625-.954A2.121,2.121,0,0,0,169.349,64Zm11.7-1.645h2.287l-1.974,3.833v.3l2.089,4.031h-2.386l-1.53-3.192h-.3l-1.53,3.192h-2.385l2.089-4.031v-.3l-1.991-3.833h2.3l1.514,2.994h.3Zm6.306,11.45h-2.073V62.356h2.073v1.185h.3a2.374,2.374,0,0,1,.954-1.036,3.047,3.047,0,0,1,1.6-.378,3.377,3.377,0,0,1,1.365.28,3.107,3.107,0,0,1,1.135.823,3.715,3.715,0,0,1,.773,1.3,4.895,4.895,0,0,1,.3,1.76v.3a5.182,5.182,0,0,1-.28,1.777,4.033,4.033,0,0,1-.757,1.316,3.2,3.2,0,0,1-1.135.806,3.963,3.963,0,0,1-2.369.148,2.747,2.747,0,0,1-.724-.313,2.531,2.531,0,0,1-.51-.444,4.115,4.115,0,0,1-.345-.543h-.3Zm2.172-5.034a2.111,2.111,0,0,0,1.563-.592,2.221,2.221,0,0,0,.609-1.645v-.2a2.165,2.165,0,0,0-.609-1.629,2.08,2.08,0,0,0-1.563-.609,2.108,2.108,0,0,0-1.579.625,2.213,2.213,0,0,0-.592,1.612v.2a2.271,2.271,0,0,0,.592,1.629A2.138,2.138,0,0,0,189.529,68.772Zm14.252-2.237a4.476,4.476,0,0,1-.345,1.81,3.944,3.944,0,0,1-.938,1.316,4.155,4.155,0,0,1-1.366.806,4.563,4.563,0,0,1-1.6.28,4.709,4.709,0,0,1-1.612-.28,4.218,4.218,0,0,1-1.349-.806,3.944,3.944,0,0,1-.938-1.316,4.476,4.476,0,0,1-.345-1.81v-.2a4.316,4.316,0,0,1,.345-1.777,3.9,3.9,0,0,1,.938-1.333,4.07,4.07,0,0,1,1.349-.823,4.709,4.709,0,0,1,1.612-.28,4.563,4.563,0,0,1,1.6.28,4.013,4.013,0,0,1,1.366.823,3.9,3.9,0,0,1,.938,1.333,4.315,4.315,0,0,1,.345,1.777Zm-4.245,2.237a2.37,2.37,0,0,0,.839-.148,2.036,2.036,0,0,0,.691-.428,1.928,1.928,0,0,0,.461-.675,2.246,2.246,0,0,0,.181-.921v-.329a2.132,2.132,0,0,0-.181-.9,1.9,1.9,0,0,0-.461-.691,2.036,2.036,0,0,0-.691-.428,2.451,2.451,0,0,0-1.678,0,2.036,2.036,0,0,0-.691.428,2.114,2.114,0,0,0-.477.691,2.356,2.356,0,0,0-.165.9V66.6a2.484,2.484,0,0,0,.165.921,2.163,2.163,0,0,0,.477.675,2.036,2.036,0,0,0,.691.428A2.37,2.37,0,0,0,199.536,68.772Zm5.929-6.416h3.455v1.185h.3a1.962,1.962,0,0,1,.773-1.036,2.317,2.317,0,0,1,1.333-.378,2.586,2.586,0,0,1,1.958.773,3.2,3.2,0,0,1,.74,2.32v.362l-2.139.2v-.23a1.567,1.567,0,0,0-.345-1.069,1.277,1.277,0,0,0-1.036-.411,1.333,1.333,0,0,0-1.086.477,2.089,2.089,0,0,0-.395,1.366v2.632h1.876v1.974h-5.627V68.542h1.678V64.33h-1.481Zm10.238,0h2.418V59h2.073v3.356h2.945V64.33h-2.945v3.718q0,.494.444.494h2.2v1.974h-3.455a1.245,1.245,0,0,1-.921-.362,1.28,1.28,0,0,1-.345-.921v-4.9H215.7Zm12.9,2.3a.6.6,0,0,0,.411.576,6.429,6.429,0,0,0,1.5.28,3.868,3.868,0,0,1,2.04.757,2.036,2.036,0,0,1,.79,1.711v.1a2.375,2.375,0,0,1-.888,1.941,3.861,3.861,0,0,1-2.5.724,4.753,4.753,0,0,1-1.629-.247,3.838,3.838,0,0,1-1.119-.609,3,3,0,0,1-.691-.823,3.394,3.394,0,0,1-.313-.888l1.908-.625a1.888,1.888,0,0,0,.543.921,1.858,1.858,0,0,0,1.3.395,1.735,1.735,0,0,0,1.053-.23.694.694,0,0,0,.3-.526.552.552,0,0,0-.082-.3.609.609,0,0,0-.263-.263,1.7,1.7,0,0,0-.543-.214,5.961,5.961,0,0,0-.839-.132,4.335,4.335,0,0,1-2.2-.707,2.088,2.088,0,0,1-.806-1.777v-.1a2.112,2.112,0,0,1,.263-1.069,2.43,2.43,0,0,1,.691-.773,2.973,2.973,0,0,1,.987-.494,4.359,4.359,0,0,1,2.484.033,3,3,0,0,1,.971.494,2.662,2.662,0,0,1,.642.675,3.491,3.491,0,0,1,.378.707l-1.876.757a1.316,1.316,0,0,0-.51-.691,1.558,1.558,0,0,0-.938-.263,1.3,1.3,0,0,0-.79.2A.54.54,0,0,0,228.606,64.659Z" transform="translate(60.238 38.065)" fill="#1b3cdb"/>
    <path id="Path_20586" data-name="Path 20586" d="M103.244,70.516h-2.073V64.791a.657.657,0,0,0-.181-.51.571.571,0,0,0-.444-.181.712.712,0,0,0-.526.2.851.851,0,0,0-.181.592v5.627H97.766V64.791a.626.626,0,0,0-.2-.51.6.6,0,0,0-.444-.181.67.67,0,0,0-.494.2.8.8,0,0,0-.2.592v5.627H94.36v-8.16h2.073v.79h.3a1.254,1.254,0,0,1,.444-.724,1.433,1.433,0,0,1,.938-.3,1.449,1.449,0,0,1,.921.3,1.359,1.359,0,0,1,.51.724h.3a1.309,1.309,0,0,1,.543-.724,1.805,1.805,0,0,1,1.053-.3,1.668,1.668,0,0,1,1.316.559,2.168,2.168,0,0,1,.494,1.514Zm9.876-3.981a4.476,4.476,0,0,1-.345,1.81,3.944,3.944,0,0,1-.938,1.316,4.172,4.172,0,0,1-1.366.806,4.57,4.57,0,0,1-1.6.28,4.7,4.7,0,0,1-1.612-.28,4.2,4.2,0,0,1-1.349-.806,3.944,3.944,0,0,1-.938-1.316,4.476,4.476,0,0,1-.345-1.81v-.2a4.315,4.315,0,0,1,.345-1.777,3.9,3.9,0,0,1,.938-1.333,4.054,4.054,0,0,1,1.349-.823,4.7,4.7,0,0,1,1.612-.28,4.57,4.57,0,0,1,1.6.28,4.029,4.029,0,0,1,1.366.823,3.9,3.9,0,0,1,.938,1.333,4.315,4.315,0,0,1,.345,1.777Zm-4.245,2.237a2.37,2.37,0,0,0,.839-.148,2.036,2.036,0,0,0,.691-.428,1.95,1.95,0,0,0,.461-.675,2.273,2.273,0,0,0,.181-.921v-.329a2.158,2.158,0,0,0-.181-.9,1.917,1.917,0,0,0-.461-.691,2.036,2.036,0,0,0-.691-.428,2.451,2.451,0,0,0-1.678,0,2.037,2.037,0,0,0-.691.428,2.09,2.09,0,0,0-.477.691,2.326,2.326,0,0,0-.165.9V66.6a2.451,2.451,0,0,0,.165.921,2.136,2.136,0,0,0,.477.675,2.037,2.037,0,0,0,.691.428A2.37,2.37,0,0,0,108.875,68.772Zm12.179.559h-.3a3.086,3.086,0,0,1-.329.543,1.763,1.763,0,0,1-.494.444,2.45,2.45,0,0,1-.724.313,4.124,4.124,0,0,1-2.418-.148,3.413,3.413,0,0,1-1.135-.806,4.062,4.062,0,0,1-.757-1.316,5.49,5.49,0,0,1-.263-1.777v-.3a5.168,5.168,0,0,1,.28-1.76,3.927,3.927,0,0,1,.79-1.3,3.433,3.433,0,0,1,1.168-.823,3.657,3.657,0,0,1,1.415-.28,2.816,2.816,0,0,1,1.563.378,2.466,2.466,0,0,1,.9,1.036h.3V59h2.073V70.516h-2.073Zm-2.172-.559a2.082,2.082,0,0,0,1.563-.609,2.233,2.233,0,0,0,.609-1.629v-.2a2.177,2.177,0,0,0-.609-1.612,2.054,2.054,0,0,0-1.563-.625,2.138,2.138,0,0,0-1.579.609,2.2,2.2,0,0,0-.592,1.629v.2a2.258,2.258,0,0,0,.592,1.645A2.171,2.171,0,0,0,118.883,68.772ZM130.8,62.356h2.073v8.16H130.8V69.332h-.3a2.233,2.233,0,0,1-2.336,1.415,3.2,3.2,0,0,1-1.135-.2,2.464,2.464,0,0,1-.921-.609,2.959,2.959,0,0,1-.625-1.02,4.513,4.513,0,0,1-.214-1.464v-5.1h2.073v4.672a2.068,2.068,0,0,0,.411,1.365,1.542,1.542,0,0,0,1.234.477,1.569,1.569,0,0,0,1.366-.592,2.735,2.735,0,0,0,.444-1.645Zm4.5,6.186h2.863V60.974h-2.764V59h4.837v9.542H142.9v1.974h-7.6Zm11.949-1.431a1.754,1.754,0,0,0,.165.675,1.994,1.994,0,0,0,.428.526,2.1,2.1,0,0,0,1.382.461,2.2,2.2,0,0,0,1.185-.263,1.67,1.67,0,0,0,.592-.658l1.777.987a3.72,3.72,0,0,1-.411.658,2.877,2.877,0,0,1-.691.609,3.644,3.644,0,0,1-1.02.461,4.808,4.808,0,0,1-1.4.181,4.573,4.573,0,0,1-1.678-.3,3.808,3.808,0,0,1-1.316-.855,4.026,4.026,0,0,1-.856-1.366,5.272,5.272,0,0,1-.3-1.826v-.1a4.547,4.547,0,0,1,.313-1.711,4.015,4.015,0,0,1,.888-1.316,3.961,3.961,0,0,1,1.3-.839,4.186,4.186,0,0,1,1.612-.313,4,4,0,0,1,1.81.378,3.746,3.746,0,0,1,1.25.938,3.582,3.582,0,0,1,.724,1.25,4.031,4.031,0,0,1,.23,1.316v1.1ZM149.2,64a1.937,1.937,0,0,0-1.283.411,1.8,1.8,0,0,0-.642.921h3.85a1.449,1.449,0,0,0-.625-.954A2.121,2.121,0,0,0,149.2,64Zm11.6,5.182a1.505,1.505,0,0,1-.132.625,1.475,1.475,0,0,1-.329.494,1.584,1.584,0,0,1-.51.313,1.371,1.371,0,0,1-.592.132,1.418,1.418,0,0,1-.609-.132,1.658,1.658,0,0,1-.494-.313,1.787,1.787,0,0,1-.346-.494,1.733,1.733,0,0,1-.115-.625,1.6,1.6,0,0,1,.115-.609,1.616,1.616,0,0,1,.839-.823,1.418,1.418,0,0,1,.609-.132,1.371,1.371,0,0,1,.592.132,1.45,1.45,0,0,1,.51.329,1.283,1.283,0,0,1,.329.494A1.4,1.4,0,0,1,160.805,69.184Zm6.586-2.073a1.753,1.753,0,0,0,.164.675,1.994,1.994,0,0,0,.428.526,2.1,2.1,0,0,0,1.382.461,2.2,2.2,0,0,0,1.185-.263,1.67,1.67,0,0,0,.592-.658l1.777.987a3.717,3.717,0,0,1-.411.658,2.876,2.876,0,0,1-.691.609,3.644,3.644,0,0,1-1.02.461,4.808,4.808,0,0,1-1.4.181,4.573,4.573,0,0,1-1.678-.3,3.808,3.808,0,0,1-1.316-.855,4.026,4.026,0,0,1-.855-1.366,5.272,5.272,0,0,1-.3-1.826v-.1a4.547,4.547,0,0,1,.313-1.711,4.015,4.015,0,0,1,.888-1.316,3.961,3.961,0,0,1,1.3-.839,4.186,4.186,0,0,1,1.612-.313,4,4,0,0,1,1.81.378,3.747,3.747,0,0,1,1.25.938,3.582,3.582,0,0,1,.724,1.25,4.031,4.031,0,0,1,.23,1.316v1.1ZM169.349,64a1.937,1.937,0,0,0-1.283.411,1.8,1.8,0,0,0-.642.921h3.85a1.449,1.449,0,0,0-.625-.954A2.121,2.121,0,0,0,169.349,64Zm11.7-1.645h2.287l-1.974,3.833v.3l2.089,4.031h-2.386l-1.53-3.192h-.3l-1.53,3.192h-2.385l2.089-4.031v-.3l-1.991-3.833h2.3l1.514,2.994h.3Zm6.306,11.45h-2.073V62.356h2.073v1.185h.3a2.374,2.374,0,0,1,.954-1.036,3.047,3.047,0,0,1,1.6-.378,3.377,3.377,0,0,1,1.365.28,3.107,3.107,0,0,1,1.135.823,3.715,3.715,0,0,1,.773,1.3,4.895,4.895,0,0,1,.3,1.76v.3a5.182,5.182,0,0,1-.28,1.777,4.033,4.033,0,0,1-.757,1.316,3.2,3.2,0,0,1-1.135.806,3.963,3.963,0,0,1-2.369.148,2.747,2.747,0,0,1-.724-.313,2.531,2.531,0,0,1-.51-.444,4.115,4.115,0,0,1-.345-.543h-.3Zm2.172-5.034a2.111,2.111,0,0,0,1.563-.592,2.221,2.221,0,0,0,.609-1.645v-.2a2.165,2.165,0,0,0-.609-1.629,2.08,2.08,0,0,0-1.563-.609,2.108,2.108,0,0,0-1.579.625,2.213,2.213,0,0,0-.592,1.612v.2a2.271,2.271,0,0,0,.592,1.629A2.138,2.138,0,0,0,189.529,68.772Zm14.252-2.237a4.476,4.476,0,0,1-.345,1.81,3.944,3.944,0,0,1-.938,1.316,4.155,4.155,0,0,1-1.366.806,4.563,4.563,0,0,1-1.6.28,4.709,4.709,0,0,1-1.612-.28,4.218,4.218,0,0,1-1.349-.806,3.944,3.944,0,0,1-.938-1.316,4.476,4.476,0,0,1-.345-1.81v-.2a4.316,4.316,0,0,1,.345-1.777,3.9,3.9,0,0,1,.938-1.333,4.07,4.07,0,0,1,1.349-.823,4.709,4.709,0,0,1,1.612-.28,4.563,4.563,0,0,1,1.6.28,4.013,4.013,0,0,1,1.366.823,3.9,3.9,0,0,1,.938,1.333,4.315,4.315,0,0,1,.345,1.777Zm-4.245,2.237a2.37,2.37,0,0,0,.839-.148,2.036,2.036,0,0,0,.691-.428,1.928,1.928,0,0,0,.461-.675,2.246,2.246,0,0,0,.181-.921v-.329a2.132,2.132,0,0,0-.181-.9,1.9,1.9,0,0,0-.461-.691,2.036,2.036,0,0,0-.691-.428,2.451,2.451,0,0,0-1.678,0,2.036,2.036,0,0,0-.691.428,2.114,2.114,0,0,0-.477.691,2.356,2.356,0,0,0-.165.9V66.6a2.484,2.484,0,0,0,.165.921,2.163,2.163,0,0,0,.477.675,2.036,2.036,0,0,0,.691.428A2.37,2.37,0,0,0,199.536,68.772Zm5.929-6.416h3.455v1.185h.3a1.962,1.962,0,0,1,.773-1.036,2.317,2.317,0,0,1,1.333-.378,2.586,2.586,0,0,1,1.958.773,3.2,3.2,0,0,1,.74,2.32v.362l-2.139.2v-.23a1.567,1.567,0,0,0-.345-1.069,1.277,1.277,0,0,0-1.036-.411,1.333,1.333,0,0,0-1.086.477,2.089,2.089,0,0,0-.395,1.366v2.632h1.876v1.974h-5.627V68.542h1.678V64.33h-1.481Zm10.238,0h2.418V59h2.073v3.356h2.945V64.33h-2.945v3.718q0,.494.444.494h2.2v1.974h-3.455a1.245,1.245,0,0,1-.921-.362,1.28,1.28,0,0,1-.345-.921v-4.9H215.7Zm12.9,2.3a.6.6,0,0,0,.411.576,6.429,6.429,0,0,0,1.5.28,3.868,3.868,0,0,1,2.04.757,2.036,2.036,0,0,1,.79,1.711v.1a2.375,2.375,0,0,1-.888,1.941,3.861,3.861,0,0,1-2.5.724,4.753,4.753,0,0,1-1.629-.247,3.838,3.838,0,0,1-1.119-.609,3,3,0,0,1-.691-.823,3.394,3.394,0,0,1-.313-.888l1.908-.625a1.888,1.888,0,0,0,.543.921,1.858,1.858,0,0,0,1.3.395,1.735,1.735,0,0,0,1.053-.23.694.694,0,0,0,.3-.526.552.552,0,0,0-.082-.3.609.609,0,0,0-.263-.263,1.7,1.7,0,0,0-.543-.214,5.961,5.961,0,0,0-.839-.132,4.335,4.335,0,0,1-2.2-.707,2.088,2.088,0,0,1-.806-1.777v-.1a2.112,2.112,0,0,1,.263-1.069,2.43,2.43,0,0,1,.691-.773,2.973,2.973,0,0,1,.987-.494,4.359,4.359,0,0,1,2.484.033,3,3,0,0,1,.971.494,2.662,2.662,0,0,1,.642.675,3.491,3.491,0,0,1,.378.707l-1.876.757a1.316,1.316,0,0,0-.51-.691,1.558,1.558,0,0,0-.938-.263,1.3,1.3,0,0,0-.79.2A.54.54,0,0,0,228.606,64.659Z" transform="translate(60.238 409.214)" fill="#1b3cdb"/>
    <path id="Path_19603" data-name="Path 19603" d="M241.23,145.8a1.526,1.526,0,0,1,.115-.592,1.463,1.463,0,0,1,.345-.494,1.509,1.509,0,0,1,.494-.329,1.419,1.419,0,0,1,.609-.132,1.378,1.378,0,0,1,.592.132,1.465,1.465,0,0,1,.51.329,1.3,1.3,0,0,1,.329.494,1.379,1.379,0,0,1,.132.592V147.8a1.433,1.433,0,0,1-.428,1.053,1.381,1.381,0,0,1-1.036.428h-1.053V148h.79q.444,0,.444-.494v-.2a.788.788,0,0,1-.28.049,1.419,1.419,0,0,1-.609-.132,1.509,1.509,0,0,1-.494-.329,1.734,1.734,0,0,1-.345-.494A1.573,1.573,0,0,1,241.23,145.8Zm-70.1,94.186a.6.6,0,0,0,.411.576,6.429,6.429,0,0,0,1.5.28,3.868,3.868,0,0,1,2.04.757,2.036,2.036,0,0,1,.79,1.711v.1a2.375,2.375,0,0,1-.888,1.941,3.864,3.864,0,0,1-2.5.724,4.752,4.752,0,0,1-1.629-.247,3.826,3.826,0,0,1-1.119-.609,3,3,0,0,1-.691-.823,3.408,3.408,0,0,1-.313-.888l1.908-.625a1.89,1.89,0,0,0,.543.921,1.858,1.858,0,0,0,1.3.395,1.739,1.739,0,0,0,1.053-.23.7.7,0,0,0,.3-.526.549.549,0,0,0-.082-.3.611.611,0,0,0-.263-.263,1.694,1.694,0,0,0-.543-.214,6.035,6.035,0,0,0-.839-.132,4.34,4.34,0,0,1-2.2-.707,2.089,2.089,0,0,1-.806-1.777v-.1a2.112,2.112,0,0,1,.263-1.069,2.43,2.43,0,0,1,.691-.773,2.991,2.991,0,0,1,.987-.494,4.359,4.359,0,0,1,2.484.033,2.976,2.976,0,0,1,.971.494,2.67,2.67,0,0,1,.642.675,3.506,3.506,0,0,1,.378.707l-1.875.757a1.316,1.316,0,0,0-.51-.691,1.555,1.555,0,0,0-.938-.263,1.3,1.3,0,0,0-.79.2A.54.54,0,0,0,171.127,239.983Zm15.667,5.857h-2.073v-5.725a.659.659,0,0,0-.181-.51.574.574,0,0,0-.444-.181.71.71,0,0,0-.526.2.845.845,0,0,0-.181.592v5.627h-2.073v-5.725a.627.627,0,0,0-.2-.51.61.61,0,0,0-.444-.181.67.67,0,0,0-.494.2.8.8,0,0,0-.2.592v5.627H177.91v-8.16h2.073v.79h.3a1.252,1.252,0,0,1,.444-.724,1.429,1.429,0,0,1,.938-.3,1.451,1.451,0,0,1,.921.3,1.366,1.366,0,0,1,.51.724h.3a1.3,1.3,0,0,1,.543-.724,1.8,1.8,0,0,1,1.053-.3,1.667,1.667,0,0,1,1.316.559,2.169,2.169,0,0,1,.494,1.514Zm7.194-1.333a1.629,1.629,0,0,1-.461,1.119,1.61,1.61,0,0,1-.51.313,1.389,1.389,0,0,1-.592.132,1.413,1.413,0,0,1-.609-.132,1.625,1.625,0,0,1-.494-.313,1.732,1.732,0,0,1-.346-.493,1.7,1.7,0,0,1-.115-.625,1.573,1.573,0,0,1,.115-.609,1.616,1.616,0,0,1,.839-.823,1.413,1.413,0,0,1,.609-.132,1.389,1.389,0,0,1,.592.132,1.465,1.465,0,0,1,.51.329,1.321,1.321,0,0,1,.329.494A1.419,1.419,0,0,1,193.989,244.507Zm0-5.495a1.629,1.629,0,0,1-.461,1.119,1.851,1.851,0,0,1-.51.329,1.538,1.538,0,0,1-.592.115,1.567,1.567,0,0,1-.609-.115,1.886,1.886,0,0,1-.494-.329,1.733,1.733,0,0,1-.346-.494,1.7,1.7,0,0,1-.115-.625,1.573,1.573,0,0,1,.115-.609,1.616,1.616,0,0,1,.839-.823,1.415,1.415,0,0,1,.609-.132,1.39,1.39,0,0,1,.592.132,1.466,1.466,0,0,1,.51.329,1.321,1.321,0,0,1,.329.494A1.419,1.419,0,0,1,193.989,239.012Zm87.535,5.495a1.527,1.527,0,0,1,.115-.592,1.463,1.463,0,0,1,.345-.494,1.51,1.51,0,0,1,.494-.329,1.419,1.419,0,0,1,.609-.132,1.379,1.379,0,0,1,.592.132,1.465,1.465,0,0,1,.51.329,1.3,1.3,0,0,1,.329.494,1.378,1.378,0,0,1,.132.592v2.007a1.433,1.433,0,0,1-.428,1.053,1.381,1.381,0,0,1-1.036.428h-1.053v-1.283h.79q.444,0,.444-.494v-.2a.787.787,0,0,1-.28.049,1.419,1.419,0,0,1-.609-.132,1.509,1.509,0,0,1-.494-.329,1.734,1.734,0,0,1-.345-.494A1.573,1.573,0,0,1,281.524,244.507Zm-104.8,34.236h-2.073v-5.725a.659.659,0,0,0-.181-.51.574.574,0,0,0-.444-.181.71.71,0,0,0-.526.2.845.845,0,0,0-.181.592v5.627h-2.073v-5.725a.627.627,0,0,0-.2-.51.609.609,0,0,0-.444-.181.67.67,0,0,0-.494.2.8.8,0,0,0-.2.592v5.627h-2.073v-8.16h2.073v.79h.3a1.252,1.252,0,0,1,.444-.724,1.429,1.429,0,0,1,.938-.3,1.451,1.451,0,0,1,.921.3,1.366,1.366,0,0,1,.51.724h.3a1.3,1.3,0,0,1,.543-.724,1.8,1.8,0,0,1,1.053-.3,1.667,1.667,0,0,1,1.316.559,2.169,2.169,0,0,1,.494,1.514Zm7.737-1.185h-.3a3.226,3.226,0,0,1-.329.543,1.81,1.81,0,0,1-.494.444,2.465,2.465,0,0,1-.724.313,4.124,4.124,0,0,1-2.418-.148,3.414,3.414,0,0,1-1.135-.806,4.038,4.038,0,0,1-.757-1.316,5.486,5.486,0,0,1-.263-1.777v-.3a5.126,5.126,0,0,1,.28-1.76,3.927,3.927,0,0,1,.79-1.3,3.41,3.41,0,0,1,1.168-.823,3.666,3.666,0,0,1,1.415-.28,2.823,2.823,0,0,1,1.563.378,2.483,2.483,0,0,1,.9,1.036h.3v-4.541h2.073v11.516h-2.073ZM182.287,277a2.081,2.081,0,0,0,1.563-.609,2.239,2.239,0,0,0,.609-1.629v-.2a2.184,2.184,0,0,0-.609-1.612,2.056,2.056,0,0,0-1.563-.625,2.131,2.131,0,0,0-1.579.609,2.2,2.2,0,0,0-.592,1.629v.2a2.259,2.259,0,0,0,.592,1.645A2.166,2.166,0,0,0,182.287,277Zm11.7.411a1.629,1.629,0,0,1-.461,1.119,1.61,1.61,0,0,1-.51.313,1.389,1.389,0,0,1-.592.132,1.413,1.413,0,0,1-.609-.132,1.625,1.625,0,0,1-.494-.313,1.732,1.732,0,0,1-.346-.493,1.7,1.7,0,0,1-.115-.625,1.573,1.573,0,0,1,.115-.609,1.616,1.616,0,0,1,.839-.823,1.414,1.414,0,0,1,.609-.132,1.389,1.389,0,0,1,.592.132,1.465,1.465,0,0,1,.51.329,1.321,1.321,0,0,1,.329.494A1.419,1.419,0,0,1,193.989,277.411Zm0-5.495a1.629,1.629,0,0,1-.461,1.119,1.851,1.851,0,0,1-.51.329,1.539,1.539,0,0,1-.592.115,1.568,1.568,0,0,1-.609-.115,1.887,1.887,0,0,1-.494-.329,1.733,1.733,0,0,1-.346-.494,1.7,1.7,0,0,1-.115-.625,1.573,1.573,0,0,1,.115-.609,1.616,1.616,0,0,1,.839-.823,1.415,1.415,0,0,1,.609-.132,1.39,1.39,0,0,1,.592.132,1.465,1.465,0,0,1,.51.329,1.321,1.321,0,0,1,.329.494A1.419,1.419,0,0,1,193.989,271.916Zm87.535,5.495a1.526,1.526,0,0,1,.115-.592,1.463,1.463,0,0,1,.345-.494,1.51,1.51,0,0,1,.494-.329,1.419,1.419,0,0,1,.609-.132,1.379,1.379,0,0,1,.592.132,1.466,1.466,0,0,1,.51.329,1.3,1.3,0,0,1,.329.494,1.378,1.378,0,0,1,.132.592v2.007a1.433,1.433,0,0,1-.428,1.053,1.381,1.381,0,0,1-1.036.428h-1.053v-1.283h.79q.444,0,.444-.494v-.2a.788.788,0,0,1-.28.049,1.419,1.419,0,0,1-.609-.132,1.509,1.509,0,0,1-.494-.329,1.734,1.734,0,0,1-.345-.494A1.573,1.573,0,0,1,281.524,277.411ZM168.479,309.672h2.863V302.1h-2.764V300.13h4.837v9.542h2.665v1.974h-7.6Zm15.947.79h-.3a3.228,3.228,0,0,1-.329.543,1.81,1.81,0,0,1-.494.444,2.463,2.463,0,0,1-.724.313,4.123,4.123,0,0,1-2.418-.148,3.413,3.413,0,0,1-1.135-.806,4.038,4.038,0,0,1-.757-1.316,5.486,5.486,0,0,1-.263-1.777v-.3a5.127,5.127,0,0,1,.28-1.76,3.927,3.927,0,0,1,.79-1.3,3.41,3.41,0,0,1,1.168-.823,3.666,3.666,0,0,1,1.415-.28,2.823,2.823,0,0,1,1.563.378,2.483,2.483,0,0,1,.9,1.036h.3v-1.185H186.5v10.167a1.252,1.252,0,0,1-.362.921,1.193,1.193,0,0,1-.9.362h-5.495v-1.974h4.245q.444,0,.444-.494Zm-2.172-.559a2.081,2.081,0,0,0,1.563-.609,2.239,2.239,0,0,0,.609-1.629v-.2a2.184,2.184,0,0,0-.609-1.612,2.056,2.056,0,0,0-1.563-.625,2.131,2.131,0,0,0-1.579.609,2.2,2.2,0,0,0-.592,1.629v.2a2.259,2.259,0,0,0,.592,1.645A2.166,2.166,0,0,0,182.254,309.9Zm11.735.411a1.629,1.629,0,0,1-.461,1.119,1.611,1.611,0,0,1-.51.313,1.389,1.389,0,0,1-.592.132,1.414,1.414,0,0,1-.609-.132,1.625,1.625,0,0,1-.494-.313,1.732,1.732,0,0,1-.346-.493,1.7,1.7,0,0,1-.115-.625,1.573,1.573,0,0,1,.115-.609,1.616,1.616,0,0,1,.839-.823,1.414,1.414,0,0,1,.609-.132,1.389,1.389,0,0,1,.592.132,1.465,1.465,0,0,1,.51.329,1.321,1.321,0,0,1,.329.494A1.419,1.419,0,0,1,193.989,310.314Zm0-5.495a1.629,1.629,0,0,1-.461,1.119,1.852,1.852,0,0,1-.51.329,1.539,1.539,0,0,1-.592.115,1.568,1.568,0,0,1-.609-.115,1.888,1.888,0,0,1-.494-.329,1.734,1.734,0,0,1-.346-.494,1.7,1.7,0,0,1-.115-.625,1.573,1.573,0,0,1,.115-.609,1.616,1.616,0,0,1,.839-.823,1.414,1.414,0,0,1,.609-.132,1.389,1.389,0,0,1,.592.132,1.465,1.465,0,0,1,.51.329,1.32,1.32,0,0,1,.329.494A1.419,1.419,0,0,1,193.989,304.819Zm97.608,5.495a1.526,1.526,0,0,1,.115-.592,1.463,1.463,0,0,1,.345-.494,1.509,1.509,0,0,1,.494-.329,1.419,1.419,0,0,1,.609-.132,1.379,1.379,0,0,1,.592.132,1.465,1.465,0,0,1,.51.329,1.3,1.3,0,0,1,.329.494,1.378,1.378,0,0,1,.132.592v2.007a1.433,1.433,0,0,1-.428,1.053,1.381,1.381,0,0,1-1.036.428h-1.053v-1.283H293q.444,0,.444-.494v-.2a.788.788,0,0,1-.28.049,1.419,1.419,0,0,1-.609-.132,1.508,1.508,0,0,1-.494-.329,1.733,1.733,0,0,1-.345-.494A1.573,1.573,0,0,1,291.6,310.314ZM173.941,336.39h2.287l-1.974,3.833v.3l2.089,4.031h-2.385l-1.53-3.192h-.3l-1.53,3.192h-2.385l2.089-4.031v-.3l-1.991-3.833h2.3l1.514,2.994h.3Zm4.611,6.186h2.863v-7.568h-2.764v-1.974h4.837v9.542h2.665v1.974h-7.6Zm15.437.642a1.629,1.629,0,0,1-.461,1.119,1.611,1.611,0,0,1-.51.313,1.389,1.389,0,0,1-.592.132,1.414,1.414,0,0,1-.609-.132,1.625,1.625,0,0,1-.494-.313,1.732,1.732,0,0,1-.346-.493,1.7,1.7,0,0,1-.115-.625,1.573,1.573,0,0,1,.115-.609,1.616,1.616,0,0,1,.839-.823,1.414,1.414,0,0,1,.609-.132,1.389,1.389,0,0,1,.592.132,1.466,1.466,0,0,1,.51.329,1.321,1.321,0,0,1,.329.494A1.419,1.419,0,0,1,193.989,343.218Zm0-5.495a1.629,1.629,0,0,1-.461,1.119,1.853,1.853,0,0,1-.51.329,1.539,1.539,0,0,1-.592.115,1.568,1.568,0,0,1-.609-.115,1.889,1.889,0,0,1-.494-.329,1.733,1.733,0,0,1-.346-.493,1.7,1.7,0,0,1-.115-.625,1.573,1.573,0,0,1,.115-.609,1.616,1.616,0,0,1,.839-.823,1.414,1.414,0,0,1,.609-.132,1.389,1.389,0,0,1,.592.132,1.465,1.465,0,0,1,.51.329,1.321,1.321,0,0,1,.329.494A1.419,1.419,0,0,1,193.989,337.723Zm97.608,5.495a1.527,1.527,0,0,1,.115-.592,1.462,1.462,0,0,1,.345-.494,1.51,1.51,0,0,1,.494-.329,1.42,1.42,0,0,1,.609-.132,1.379,1.379,0,0,1,.592.132,1.466,1.466,0,0,1,.51.329,1.3,1.3,0,0,1,.329.494,1.379,1.379,0,0,1,.132.592v2.007a1.433,1.433,0,0,1-.428,1.053,1.381,1.381,0,0,1-1.036.428h-1.053v-1.283H293q.444,0,.444-.493v-.2a.787.787,0,0,1-.28.049,1.419,1.419,0,0,1-.609-.132,1.509,1.509,0,0,1-.494-.329,1.732,1.732,0,0,1-.345-.494A1.573,1.573,0,0,1,291.6,343.218Z" transform="translate(107.643 93.067)" fill="#546487"/>
    <path id="Path_19604" data-name="Path 19604" d="M186.816,61.06h6.877v1.876h-6.877Zm0,2.863h6.877V65.8h-6.877Z" transform="translate(119.888 39.394)" fill="#ff8577"/>
    <path id="Path_20587" data-name="Path 20587" d="M186.816,61.06h6.877v1.876h-6.877Zm0,2.863h6.877V65.8h-6.877Z" transform="translate(119.888 410.543)" fill="#ff8577"/>
    <path id="Path_19605" data-name="Path 19605" d="M253.376,59.118a1.622,1.622,0,0,1,.461-1.2,1.648,1.648,0,0,1,1.217-.477h2.172v1.974h-1.333q-.444,0-.444.494v4.426a1.252,1.252,0,0,1-.362.921,1.215,1.215,0,0,1-.921.362h-.1v.3h.1a1.215,1.215,0,0,1,.921.362,1.252,1.252,0,0,1,.362.921v4.426q0,.494.444.494h1.333v1.974h-2.172a1.648,1.648,0,0,1-1.217-.477,1.622,1.622,0,0,1-.461-1.2V67.426q0-.477-.444-.477H251.9V64.58h1.036q.444,0,.444-.477Zm-132.239,48.6h-2.073V96.266h2.073v1.185h.3a2.374,2.374,0,0,1,.954-1.036,3.047,3.047,0,0,1,1.6-.378,3.377,3.377,0,0,1,1.365.28,3.107,3.107,0,0,1,1.135.823,3.715,3.715,0,0,1,.773,1.3,4.9,4.9,0,0,1,.3,1.76v.3a5.182,5.182,0,0,1-.28,1.777,4.032,4.032,0,0,1-.757,1.316,3.2,3.2,0,0,1-1.135.806,3.963,3.963,0,0,1-2.369.148,2.746,2.746,0,0,1-.724-.313,2.531,2.531,0,0,1-.51-.444,4.114,4.114,0,0,1-.345-.543h-.3Zm2.172-5.034a2.111,2.111,0,0,0,1.563-.592,2.221,2.221,0,0,0,.609-1.645v-.2a2.165,2.165,0,0,0-.609-1.629,2.08,2.08,0,0,0-1.563-.609,2.108,2.108,0,0,0-1.579.625,2.213,2.213,0,0,0-.592,1.612v.2a2.271,2.271,0,0,0,.592,1.629A2.138,2.138,0,0,0,123.308,102.682Zm11.784-6.416h2.073v8.16h-2.073v-1.185h-.3a2.233,2.233,0,0,1-2.336,1.415,3.216,3.216,0,0,1-1.135-.2,2.464,2.464,0,0,1-.921-.609,2.983,2.983,0,0,1-.625-1.02,4.557,4.557,0,0,1-.214-1.464v-5.1h2.073v4.672a2.077,2.077,0,0,0,.411,1.365,1.542,1.542,0,0,0,1.234.477,1.569,1.569,0,0,0,1.366-.592,2.736,2.736,0,0,0,.444-1.645Zm4.151,0H142.7v1.185h.3a1.971,1.971,0,0,1,.773-1.036,2.324,2.324,0,0,1,1.333-.378,2.584,2.584,0,0,1,1.958.773,3.2,3.2,0,0,1,.74,2.32v.362l-2.139.2v-.23a1.567,1.567,0,0,0-.345-1.069,1.277,1.277,0,0,0-1.036-.411,1.333,1.333,0,0,0-1.086.477,2.089,2.089,0,0,0-.395,1.365v2.632h1.875v1.974h-5.626v-1.974h1.678V98.24h-1.481Zm16.292,6.976h-.3a3.087,3.087,0,0,1-.329.543,1.763,1.763,0,0,1-.494.444,2.431,2.431,0,0,1-.724.313,4.124,4.124,0,0,1-2.418-.148,3.413,3.413,0,0,1-1.135-.806,4.092,4.092,0,0,1-.757-1.316,5.537,5.537,0,0,1-.263-1.777v-.3a5.169,5.169,0,0,1,.28-1.76,3.928,3.928,0,0,1,.79-1.3,3.449,3.449,0,0,1,1.168-.823,3.663,3.663,0,0,1,1.415-.28,2.816,2.816,0,0,1,1.563.378,2.455,2.455,0,0,1,.9,1.036h.3V96.266h2.073v10.167a1.246,1.246,0,0,1-.362.921,1.193,1.193,0,0,1-.9.362h-5.495v-1.974h4.245q.444,0,.444-.494Zm-2.172-.559a2.08,2.08,0,0,0,1.563-.609,2.233,2.233,0,0,0,.609-1.629v-.2a2.177,2.177,0,0,0-.609-1.612,2.051,2.051,0,0,0-1.563-.625,2.138,2.138,0,0,0-1.579.609,2.2,2.2,0,0,0-.592,1.629v.2a2.258,2.258,0,0,0,.592,1.645A2.171,2.171,0,0,0,153.364,102.682Zm8.247-1.662a1.755,1.755,0,0,0,.165.675,1.994,1.994,0,0,0,.428.526,2.1,2.1,0,0,0,1.382.461,2.2,2.2,0,0,0,1.185-.263,1.67,1.67,0,0,0,.592-.658l1.777.987a3.715,3.715,0,0,1-.411.658,2.876,2.876,0,0,1-.691.609,3.643,3.643,0,0,1-1.02.461,4.808,4.808,0,0,1-1.4.181,4.573,4.573,0,0,1-1.678-.3,3.808,3.808,0,0,1-1.316-.855,4.026,4.026,0,0,1-.855-1.365,5.272,5.272,0,0,1-.3-1.826v-.1a4.547,4.547,0,0,1,.313-1.711,4.015,4.015,0,0,1,.888-1.316,3.962,3.962,0,0,1,1.3-.839,4.186,4.186,0,0,1,1.612-.313,4,4,0,0,1,1.81.378,3.747,3.747,0,0,1,1.25.938,3.582,3.582,0,0,1,.724,1.25,4.031,4.031,0,0,1,.23,1.316v1.1Zm1.958-3.109a1.937,1.937,0,0,0-1.283.411,1.8,1.8,0,0,0-.642.921h3.85a1.449,1.449,0,0,0-.625-.954A2.122,2.122,0,0,0,163.569,97.911Zm11.6,5.182a1.505,1.505,0,0,1-.132.625,1.474,1.474,0,0,1-.329.494,1.584,1.584,0,0,1-.51.313,1.371,1.371,0,0,1-.592.132,1.418,1.418,0,0,1-.609-.132,1.658,1.658,0,0,1-.494-.313,1.786,1.786,0,0,1-.345-.494,1.733,1.733,0,0,1-.115-.625,1.6,1.6,0,0,1,.115-.609,1.616,1.616,0,0,1,.839-.823,1.418,1.418,0,0,1,.609-.132,1.371,1.371,0,0,1,.592.132,1.45,1.45,0,0,1,.51.329,1.283,1.283,0,0,1,.329.494A1.4,1.4,0,0,1,175.172,103.094Zm0-5.495a1.505,1.505,0,0,1-.132.625,1.474,1.474,0,0,1-.329.494,1.837,1.837,0,0,1-.51.329,1.535,1.535,0,0,1-.592.115,1.588,1.588,0,0,1-.609-.115,1.957,1.957,0,0,1-.494-.329,1.786,1.786,0,0,1-.345-.494,1.733,1.733,0,0,1-.115-.625,1.6,1.6,0,0,1,.115-.609,1.616,1.616,0,0,1,.839-.823,1.417,1.417,0,0,1,.609-.132,1.371,1.371,0,0,1,.592.132,1.45,1.45,0,0,1,.51.329,1.283,1.283,0,0,1,.329.494A1.4,1.4,0,0,1,175.172,97.6Zm17.434-5.577a1.622,1.622,0,0,1,.461-1.2,1.648,1.648,0,0,1,1.217-.477h2.172v1.974h-1.333q-.444,0-.444.494v11.714q0,.494.444.494h1.333v1.974h-2.172a1.648,1.648,0,0,1-1.217-.477,1.622,1.622,0,0,1-.461-1.2ZM292.929,136a1.525,1.525,0,0,1,.115-.592,1.462,1.462,0,0,1,.345-.494,1.509,1.509,0,0,1,.494-.329,1.419,1.419,0,0,1,.609-.132,1.379,1.379,0,0,1,.592.132,1.465,1.465,0,0,1,.51.329,1.3,1.3,0,0,1,.329.494,1.379,1.379,0,0,1,.132.592V138a1.433,1.433,0,0,1-.428,1.053,1.381,1.381,0,0,1-1.036.428h-1.053V138.2h.79q.444,0,.444-.494v-.2a.788.788,0,0,1-.28.049,1.419,1.419,0,0,1-.609-.132,1.509,1.509,0,0,1-.494-.329,1.732,1.732,0,0,1-.345-.494A1.572,1.572,0,0,1,292.929,136ZM124.394,171.122a1.631,1.631,0,0,1-1.678,1.678h-2.172v-1.974h1.333q.444,0,.444-.494V158.618q0-.494-.444-.494h-1.333v-1.974h2.172a1.631,1.631,0,0,1,1.678,1.678Zm7.359-2.221a1.557,1.557,0,0,1,.115-.592,1.616,1.616,0,0,1,.839-.823,1.425,1.425,0,0,1,.609-.132,1.378,1.378,0,0,1,.592.132,1.45,1.45,0,0,1,.51.329,1.283,1.283,0,0,1,.329.494,1.355,1.355,0,0,1,.132.592v2.007a1.427,1.427,0,0,1-.428,1.053,1.376,1.376,0,0,1-1.036.428h-1.053v-1.283h.79q.444,0,.444-.494v-.2a.788.788,0,0,1-.28.049,1.425,1.425,0,0,1-.609-.132,1.509,1.509,0,0,1-.494-.329,1.8,1.8,0,0,1-.346-.494A1.6,1.6,0,0,1,131.753,168.9Zm-6.4,33.052h-.3a3.124,3.124,0,0,1-.329.543,1.763,1.763,0,0,1-.494.444,2.445,2.445,0,0,1-.724.313,4.124,4.124,0,0,1-2.418-.148,3.413,3.413,0,0,1-1.135-.806,4.1,4.1,0,0,1-.757-1.316,5.531,5.531,0,0,1-.263-1.777v-.3a5.167,5.167,0,0,1,.28-1.76,3.928,3.928,0,0,1,.79-1.3,3.442,3.442,0,0,1,1.168-.823,3.672,3.672,0,0,1,1.415-.28,2.82,2.82,0,0,1,1.563.378,2.46,2.46,0,0,1,.9,1.036h.3v-4.541h2.073v11.516h-2.073Zm-2.172-.559a2.078,2.078,0,0,0,1.563-.609,2.232,2.232,0,0,0,.609-1.629v-.2a2.177,2.177,0,0,0-.609-1.612,2.053,2.053,0,0,0-1.563-.625,2.136,2.136,0,0,0-1.579.609,2.2,2.2,0,0,0-.592,1.629v.2a2.259,2.259,0,0,0,.592,1.645A2.171,2.171,0,0,0,123.177,201.393Zm11.669.559a2.171,2.171,0,0,1-.921,1.1,2.912,2.912,0,0,1-1.382.313,3.55,3.55,0,0,1-1.4-.28,3.305,3.305,0,0,1-1.135-.823,4.131,4.131,0,0,1-.79-1.316,5.166,5.166,0,0,1-.28-1.76v-.263a5.115,5.115,0,0,1,.28-1.744,4.1,4.1,0,0,1,.757-1.316,3.267,3.267,0,0,1,2.468-1.119,2.843,2.843,0,0,1,1.4.3,2.056,2.056,0,0,1,.855.921h.3v-.987h2.073v5.692q0,.494.444.494h.313v1.974h-1.415a1.322,1.322,0,0,1-.921-.329,1.128,1.128,0,0,1-.345-.855ZM133,201.393a1.868,1.868,0,0,0,1.448-.592,2.382,2.382,0,0,0,.543-1.645v-.2a2.319,2.319,0,0,0-.543-1.629,2.026,2.026,0,0,0-2.9,0,2.319,2.319,0,0,0-.543,1.629v.2a2.382,2.382,0,0,0,.543,1.645A1.871,1.871,0,0,0,133,201.393Zm6.24-6.416H142.7v1.185h.3a1.974,1.974,0,0,1,.773-1.036,2.328,2.328,0,0,1,1.333-.378,2.586,2.586,0,0,1,1.958.773,3.2,3.2,0,0,1,.74,2.32v.362l-2.139.2v-.23a1.568,1.568,0,0,0-.345-1.069,1.275,1.275,0,0,0-1.036-.411,1.335,1.335,0,0,0-1.086.477,2.088,2.088,0,0,0-.395,1.365v2.632h1.875v1.974h-5.626v-1.974h1.678v-4.212h-1.481Zm13.2,2.994h.395l2.172-2.994h2.27v.1l-2.632,3.735v.3l2.9,3.932v.1h-2.369l-2.336-3.192h-.395v3.192H150.37V191.621h2.073Zm6.421-6.35h3.817l.658,8.654v1.678h.395v-1.678l.658-8.654h3.817v11.516h-1.974v-7.7l.2-2.632h-.395l-.855,10.332h-3.257l-.888-10.332h-.395l.2,2.632v7.7h-1.974Zm18.99,7.535a4.478,4.478,0,0,1-.345,1.81,3.949,3.949,0,0,1-.938,1.316,4.155,4.155,0,0,1-1.366.806,4.575,4.575,0,0,1-1.6.28,4.722,4.722,0,0,1-1.612-.28,4.217,4.217,0,0,1-1.349-.806,3.949,3.949,0,0,1-.938-1.316,4.478,4.478,0,0,1-.345-1.81v-.2a4.312,4.312,0,0,1,.345-1.777,3.9,3.9,0,0,1,.938-1.333,4.062,4.062,0,0,1,1.349-.823,4.721,4.721,0,0,1,1.612-.28,4.574,4.574,0,0,1,1.6.28,4,4,0,0,1,1.366.823,3.9,3.9,0,0,1,.938,1.333,4.312,4.312,0,0,1,.345,1.777Zm-4.245,2.237a2.37,2.37,0,0,0,.839-.148,2.044,2.044,0,0,0,.691-.428,1.923,1.923,0,0,0,.461-.675,2.246,2.246,0,0,0,.181-.921v-.329a2.131,2.131,0,0,0-.181-.9,1.888,1.888,0,0,0-.461-.691,2.044,2.044,0,0,0-.691-.428,2.451,2.451,0,0,0-1.678,0,2.044,2.044,0,0,0-.691.428,2.1,2.1,0,0,0-.477.691,2.354,2.354,0,0,0-.165.9v.329a2.483,2.483,0,0,0,.165.921,2.157,2.157,0,0,0,.477.675,2.044,2.044,0,0,0,.691.428A2.37,2.37,0,0,0,173.609,201.393Zm12.179.559h-.3a3.123,3.123,0,0,1-.329.543,1.763,1.763,0,0,1-.494.444,2.445,2.445,0,0,1-.724.313,4.124,4.124,0,0,1-2.418-.148,3.414,3.414,0,0,1-1.135-.806,4.1,4.1,0,0,1-.757-1.316,5.532,5.532,0,0,1-.263-1.777v-.3a5.166,5.166,0,0,1,.28-1.76,3.927,3.927,0,0,1,.79-1.3,3.442,3.442,0,0,1,1.168-.823,3.672,3.672,0,0,1,1.415-.28,2.82,2.82,0,0,1,1.563.378,2.46,2.46,0,0,1,.9,1.036h.3v-4.541h2.073v11.516h-2.073Zm-2.172-.559a2.078,2.078,0,0,0,1.563-.609,2.232,2.232,0,0,0,.609-1.629v-.2a2.177,2.177,0,0,0-.609-1.612,2.053,2.053,0,0,0-1.563-.625,2.136,2.136,0,0,0-1.579.609,2.2,2.2,0,0,0-.592,1.629v.2a2.259,2.259,0,0,0,.592,1.645A2.171,2.171,0,0,0,183.617,201.393Zm8.216-1.662a1.725,1.725,0,0,0,.165.675,1.923,1.923,0,0,0,.428.526,2.426,2.426,0,0,0,.625.345,2.458,2.458,0,0,0,.757.115,2.2,2.2,0,0,0,1.185-.263,1.7,1.7,0,0,0,.592-.658l1.777.987a3.8,3.8,0,0,1-.411.658,2.942,2.942,0,0,1-.691.609,3.688,3.688,0,0,1-1.02.461,4.833,4.833,0,0,1-1.4.181,4.561,4.561,0,0,1-1.678-.3,3.771,3.771,0,0,1-1.316-.855,4,4,0,0,1-.855-1.366,5.276,5.276,0,0,1-.3-1.826v-.1a4.513,4.513,0,0,1,.313-1.711,3.908,3.908,0,0,1,2.188-2.155,4.165,4.165,0,0,1,1.612-.313,4.019,4.019,0,0,1,1.81.378,3.776,3.776,0,0,1,1.25.938,3.612,3.612,0,0,1,.724,1.25,4.072,4.072,0,0,1,.23,1.316v1.1Zm1.958-3.109a1.935,1.935,0,0,0-1.283.411,1.8,1.8,0,0,0-.642.921h3.85a1.456,1.456,0,0,0-.625-.954A2.128,2.128,0,0,0,193.791,196.622Zm11.6,5.182a1.629,1.629,0,0,1-.461,1.119,1.611,1.611,0,0,1-.51.313,1.389,1.389,0,0,1-.592.132,1.414,1.414,0,0,1-.609-.132,1.626,1.626,0,0,1-.494-.313,1.733,1.733,0,0,1-.345-.494,1.7,1.7,0,0,1-.115-.625,1.573,1.573,0,0,1,.115-.609,1.616,1.616,0,0,1,.839-.823,1.414,1.414,0,0,1,.609-.132,1.389,1.389,0,0,1,.592.132,1.465,1.465,0,0,1,.51.329,1.321,1.321,0,0,1,.329.494A1.419,1.419,0,0,1,205.394,201.8Zm0-5.495a1.629,1.629,0,0,1-.461,1.119,1.851,1.851,0,0,1-.51.329,1.538,1.538,0,0,1-.592.115,1.567,1.567,0,0,1-.609-.115,1.887,1.887,0,0,1-.494-.329,1.733,1.733,0,0,1-.345-.494,1.7,1.7,0,0,1-.115-.625,1.573,1.573,0,0,1,.115-.609,1.616,1.616,0,0,1,.839-.823,1.414,1.414,0,0,1,.609-.132,1.389,1.389,0,0,1,.592.132,1.465,1.465,0,0,1,.51.329,1.321,1.321,0,0,1,.329.494A1.419,1.419,0,0,1,205.394,196.309ZM119.261,227.88h2.418v-3.356h2.073v3.356H126.7v1.974h-2.945v3.718q0,.494.444.494h2.2v1.974h-3.455a1.249,1.249,0,0,1-.921-.362,1.28,1.28,0,0,1-.345-.921v-4.9h-2.418Zm12.41,8.16H129.6V224.524h2.073V229.2h.3a2.451,2.451,0,0,1,.921-1.135,2.61,2.61,0,0,1,1.5-.411,3.068,3.068,0,0,1,1.119.2,2.423,2.423,0,0,1,.888.592,2.7,2.7,0,0,1,.592,1.02,4.366,4.366,0,0,1,.214,1.448v5.133h-2.073V231.4a2.012,2.012,0,0,0-.428-1.365,1.449,1.449,0,0,0-1.2-.51,1.609,1.609,0,0,0-1.382.625,2.737,2.737,0,0,0-.444,1.645Zm9.794-3.406a1.753,1.753,0,0,0,.165.675,1.985,1.985,0,0,0,.428.526,2.1,2.1,0,0,0,1.382.461,2.195,2.195,0,0,0,1.185-.263,1.669,1.669,0,0,0,.592-.658l1.777.987a3.7,3.7,0,0,1-.411.658,2.876,2.876,0,0,1-.691.609,3.642,3.642,0,0,1-1.02.461,4.825,4.825,0,0,1-1.4.181,4.573,4.573,0,0,1-1.678-.3,3.8,3.8,0,0,1-1.316-.855,4.026,4.026,0,0,1-.855-1.365,5.276,5.276,0,0,1-.3-1.826v-.1a4.545,4.545,0,0,1,.313-1.711,4.021,4.021,0,0,1,.888-1.316,3.961,3.961,0,0,1,1.3-.839,4.177,4.177,0,0,1,1.612-.313,4.009,4.009,0,0,1,1.81.378,3.759,3.759,0,0,1,1.25.938,3.586,3.586,0,0,1,.724,1.25,4.029,4.029,0,0,1,.23,1.316v1.1Zm1.958-3.109a1.935,1.935,0,0,0-1.283.411,1.8,1.8,0,0,0-.642.921h3.85a1.449,1.449,0,0,0-.625-.954A2.125,2.125,0,0,0,143.422,229.525ZM157.9,236.04h-2.073v-5.725a.654.654,0,0,0-.181-.51.569.569,0,0,0-.444-.181.712.712,0,0,0-.526.2.853.853,0,0,0-.181.592v5.626h-2.073v-5.725a.627.627,0,0,0-.2-.51.6.6,0,0,0-.444-.181.67.67,0,0,0-.494.2.8.8,0,0,0-.2.592v5.626h-2.073v-8.16h2.073v.79h.3a1.252,1.252,0,0,1,.444-.724,1.607,1.607,0,0,1,1.859,0,1.349,1.349,0,0,1,.51.724h.3a1.317,1.317,0,0,1,.543-.724,1.809,1.809,0,0,1,1.053-.3,1.665,1.665,0,0,1,1.316.559,2.169,2.169,0,0,1,.494,1.514Zm3.707-3.406a1.755,1.755,0,0,0,.165.675,1.986,1.986,0,0,0,.428.526,2.1,2.1,0,0,0,1.382.461,2.195,2.195,0,0,0,1.185-.263,1.67,1.67,0,0,0,.592-.658l1.777.987a3.7,3.7,0,0,1-.411.658,2.877,2.877,0,0,1-.691.609,3.643,3.643,0,0,1-1.02.461,4.826,4.826,0,0,1-1.4.181,4.573,4.573,0,0,1-1.678-.3,3.8,3.8,0,0,1-1.316-.855,4.026,4.026,0,0,1-.855-1.365,5.276,5.276,0,0,1-.3-1.826v-.1a4.545,4.545,0,0,1,.313-1.711,4.02,4.02,0,0,1,.888-1.316,3.962,3.962,0,0,1,1.3-.839,4.177,4.177,0,0,1,1.612-.313,4.009,4.009,0,0,1,1.81.378,3.76,3.76,0,0,1,1.25.938,3.586,3.586,0,0,1,.724,1.25,4.028,4.028,0,0,1,.23,1.316v1.1Zm1.958-3.109a1.935,1.935,0,0,0-1.283.411,1.8,1.8,0,0,0-.642.921h3.85a1.449,1.449,0,0,0-.625-.954A2.125,2.125,0,0,0,163.569,229.525Zm11.6,5.182a1.507,1.507,0,0,1-.132.625,1.484,1.484,0,0,1-.329.494,1.592,1.592,0,0,1-.51.313,1.378,1.378,0,0,1-.592.132,1.425,1.425,0,0,1-.609-.132,1.668,1.668,0,0,1-.494-.313,1.8,1.8,0,0,1-.345-.494,1.735,1.735,0,0,1-.115-.625,1.6,1.6,0,0,1,.115-.609,1.616,1.616,0,0,1,.839-.823,1.424,1.424,0,0,1,.609-.132,1.378,1.378,0,0,1,.592.132,1.449,1.449,0,0,1,.51.329,1.283,1.283,0,0,1,.329.494A1.4,1.4,0,0,1,175.172,234.708Zm0-5.495a1.507,1.507,0,0,1-.132.625,1.484,1.484,0,0,1-.329.494,1.825,1.825,0,0,1-.51.329,1.526,1.526,0,0,1-.592.115,1.579,1.579,0,0,1-.609-.115,1.943,1.943,0,0,1-.494-.329,1.8,1.8,0,0,1-.345-.494,1.735,1.735,0,0,1-.115-.625,1.6,1.6,0,0,1,.115-.609,1.616,1.616,0,0,1,.839-.823,1.425,1.425,0,0,1,.609-.132,1.379,1.379,0,0,1,.592.132,1.45,1.45,0,0,1,.51.329,1.283,1.283,0,0,1,.329.494A1.4,1.4,0,0,1,175.172,229.213Zm17.763-5.577a1.623,1.623,0,0,1,.461-1.2,1.65,1.65,0,0,1,1.217-.477h2.172v1.974h-1.333q-.444,0-.444.494v4.426a1.252,1.252,0,0,1-.362.921,1.213,1.213,0,0,1-.921.362h-.1v.3h.1a1.213,1.213,0,0,1,.921.362,1.252,1.252,0,0,1,.362.921v4.426q0,.494.444.494h1.333v1.974h-2.172a1.65,1.65,0,0,1-1.217-.477,1.623,1.623,0,0,1-.461-1.2v-4.985c0-.318-.148-.477-.444-.477h-1.036V229.1h1.036c.3,0,.444-.16.444-.477Zm-30.551,39.451a.6.6,0,0,0,.411.576,6.449,6.449,0,0,0,1.5.28,3.863,3.863,0,0,1,2.04.757,2.036,2.036,0,0,1,.79,1.711v.1a2.375,2.375,0,0,1-.888,1.941,3.861,3.861,0,0,1-2.5.724,4.766,4.766,0,0,1-1.629-.247,3.847,3.847,0,0,1-1.119-.609,2.994,2.994,0,0,1-.691-.823,3.531,3.531,0,0,1-.313-.888l1.908-.625a1.915,1.915,0,0,0,.543.921,1.864,1.864,0,0,0,1.3.395,1.732,1.732,0,0,0,1.053-.23.7.7,0,0,0,.3-.526.535.535,0,0,0-.082-.3.6.6,0,0,0-.263-.263,1.694,1.694,0,0,0-.543-.214,5.945,5.945,0,0,0-.839-.132,4.345,4.345,0,0,1-2.2-.707,2.093,2.093,0,0,1-.806-1.777v-.1a2.129,2.129,0,0,1,.263-1.069,2.471,2.471,0,0,1,.691-.773,3.024,3.024,0,0,1,.987-.494,4.359,4.359,0,0,1,2.484.033,2.961,2.961,0,0,1,.971.494,2.67,2.67,0,0,1,.642.675,3.425,3.425,0,0,1,.378.707l-1.876.757a1.308,1.308,0,0,0-.51-.691,1.548,1.548,0,0,0-.938-.263,1.311,1.311,0,0,0-.79.2A.544.544,0,0,0,162.384,263.087Zm15.437,2.863a3.922,3.922,0,0,1-1.333,2.336,4.127,4.127,0,0,1-2.78.888,5.058,5.058,0,0,1-1.695-.28,4,4,0,0,1-1.349-.806,3.713,3.713,0,0,1-.9-1.3,4.467,4.467,0,0,1-.329-1.76v-.2a4.591,4.591,0,0,1,.329-1.777,4.03,4.03,0,0,1,.9-1.349,4.1,4.1,0,0,1,1.366-.856,4.74,4.74,0,0,1,1.678-.3,4.137,4.137,0,0,1,2.764.888,3.886,3.886,0,0,1,1.349,2.336l-2.04.526a2.127,2.127,0,0,0-.625-1.25,2,2,0,0,0-1.481-.526,2.149,2.149,0,0,0-.839.165,2,2,0,0,0-.691.477,2.228,2.228,0,0,0-.477.74,2.711,2.711,0,0,0-.165.971v.1a2.71,2.71,0,0,0,.165.971,2.1,2.1,0,0,0,.477.691,2.044,2.044,0,0,0,.691.428,2.651,2.651,0,0,0,.839.132,2.005,2.005,0,0,0,1.448-.477,2.25,2.25,0,0,0,.658-1.283Zm1.716-5.166h3.455v1.185h.3a1.974,1.974,0,0,1,.773-1.036,2.328,2.328,0,0,1,1.333-.378,2.586,2.586,0,0,1,1.958.773,3.2,3.2,0,0,1,.74,2.32v.362l-2.139.2v-.23a1.568,1.568,0,0,0-.345-1.069,1.275,1.275,0,0,0-1.036-.411,1.335,1.335,0,0,0-1.086.477,2.088,2.088,0,0,0-.395,1.366v2.632h1.876v1.974H179.34V266.97h1.678v-4.212h-1.481Zm12.3,4.755a1.725,1.725,0,0,0,.165.674,1.923,1.923,0,0,0,.428.526,2.427,2.427,0,0,0,.625.345,2.458,2.458,0,0,0,.757.115,2.2,2.2,0,0,0,1.185-.263,1.7,1.7,0,0,0,.592-.658l1.777.987a3.8,3.8,0,0,1-.411.658,2.942,2.942,0,0,1-.691.609,3.687,3.687,0,0,1-1.02.461,4.833,4.833,0,0,1-1.4.181,4.561,4.561,0,0,1-1.678-.3,3.771,3.771,0,0,1-1.316-.855,4,4,0,0,1-.855-1.366,5.276,5.276,0,0,1-.3-1.826v-.1a4.513,4.513,0,0,1,.313-1.711,3.908,3.908,0,0,1,2.188-2.155,4.165,4.165,0,0,1,1.612-.313,4.019,4.019,0,0,1,1.81.378,3.776,3.776,0,0,1,1.25.938,3.612,3.612,0,0,1,.724,1.25,4.072,4.072,0,0,1,.23,1.316v1.1Zm1.958-3.109a1.935,1.935,0,0,0-1.283.411,1.8,1.8,0,0,0-.642.921h3.85a1.455,1.455,0,0,0-.625-.954A2.128,2.128,0,0,0,193.791,262.429Zm8.116,3.109a1.724,1.724,0,0,0,.165.674,1.923,1.923,0,0,0,.428.526,2.428,2.428,0,0,0,.625.345,2.458,2.458,0,0,0,.757.115,2.2,2.2,0,0,0,1.185-.263,1.7,1.7,0,0,0,.592-.658l1.777.987a3.8,3.8,0,0,1-.411.658,2.943,2.943,0,0,1-.691.609,3.687,3.687,0,0,1-1.02.461,4.833,4.833,0,0,1-1.4.181,4.561,4.561,0,0,1-1.678-.3,3.771,3.771,0,0,1-1.316-.855,4,4,0,0,1-.855-1.366,5.276,5.276,0,0,1-.3-1.826v-.1a4.513,4.513,0,0,1,.313-1.711,3.908,3.908,0,0,1,2.188-2.155,4.165,4.165,0,0,1,1.612-.313,4.019,4.019,0,0,1,1.81.378,3.776,3.776,0,0,1,1.25.938,3.612,3.612,0,0,1,.724,1.25,4.072,4.072,0,0,1,.23,1.316v1.1Zm1.958-3.109a1.935,1.935,0,0,0-1.283.411,1.8,1.8,0,0,0-.642.921h3.85a1.455,1.455,0,0,0-.625-.954A2.128,2.128,0,0,0,203.864,262.429Zm8.362,6.515h-2.073v-8.16h2.073V262h.3a2.154,2.154,0,0,1,.9-1.069,2.777,2.777,0,0,1,1.464-.378,3.029,3.029,0,0,1,1.1.2,2.38,2.38,0,0,1,.921.576,2.625,2.625,0,0,1,.609,1,4.106,4.106,0,0,1,.23,1.448v5.166h-2.073V264.3a2.021,2.021,0,0,0-.428-1.365,1.451,1.451,0,0,0-1.2-.51,1.6,1.6,0,0,0-1.382.625,2.736,2.736,0,0,0-.444,1.645Zm10.6-5.857a.6.6,0,0,0,.411.576,6.43,6.43,0,0,0,1.5.28,3.868,3.868,0,0,1,2.04.757,2.036,2.036,0,0,1,.79,1.711v.1a2.375,2.375,0,0,1-.888,1.941,3.864,3.864,0,0,1-2.5.724,4.753,4.753,0,0,1-1.629-.247,3.825,3.825,0,0,1-1.119-.609,2.994,2.994,0,0,1-.691-.823,3.406,3.406,0,0,1-.313-.888l1.908-.625a1.89,1.89,0,0,0,.543.921,1.858,1.858,0,0,0,1.3.395,1.739,1.739,0,0,0,1.053-.23.7.7,0,0,0,.3-.526.549.549,0,0,0-.082-.3.611.611,0,0,0-.263-.263,1.693,1.693,0,0,0-.543-.214,6.025,6.025,0,0,0-.839-.132,4.34,4.34,0,0,1-2.2-.707,2.089,2.089,0,0,1-.806-1.777v-.1a2.112,2.112,0,0,1,.263-1.069,2.43,2.43,0,0,1,.691-.773,2.991,2.991,0,0,1,.987-.494,4.359,4.359,0,0,1,2.484.033,2.977,2.977,0,0,1,.971.494,2.671,2.671,0,0,1,.642.675,3.506,3.506,0,0,1,.378.707l-1.876.757a1.316,1.316,0,0,0-.51-.691,1.554,1.554,0,0,0-.938-.263,1.3,1.3,0,0,0-.79.2A.54.54,0,0,0,222.827,263.087Zm12.788,4.524a1.629,1.629,0,0,1-.461,1.119,1.611,1.611,0,0,1-.51.313,1.389,1.389,0,0,1-.592.132,1.414,1.414,0,0,1-.609-.132,1.627,1.627,0,0,1-.494-.313,1.733,1.733,0,0,1-.345-.494,1.7,1.7,0,0,1-.115-.625A1.573,1.573,0,0,1,232.6,267a1.616,1.616,0,0,1,.839-.823,1.414,1.414,0,0,1,.609-.132,1.389,1.389,0,0,1,.592.132,1.465,1.465,0,0,1,.51.329,1.321,1.321,0,0,1,.329.494A1.42,1.42,0,0,1,235.614,267.611Zm0-5.495a1.629,1.629,0,0,1-.461,1.119,1.85,1.85,0,0,1-.51.329,1.538,1.538,0,0,1-.592.115,1.567,1.567,0,0,1-.609-.115,1.888,1.888,0,0,1-.494-.329,1.733,1.733,0,0,1-.345-.494,1.7,1.7,0,0,1-.115-.625,1.573,1.573,0,0,1,.115-.609,1.616,1.616,0,0,1,.839-.823,1.414,1.414,0,0,1,.609-.132,1.389,1.389,0,0,1,.592.132,1.465,1.465,0,0,1,.51.329,1.321,1.321,0,0,1,.329.494A1.42,1.42,0,0,1,235.614,262.116Zm17.761-5.577a1.623,1.623,0,0,1,.461-1.2,1.65,1.65,0,0,1,1.217-.477h2.172v1.974h-1.333q-.444,0-.444.494v4.426a1.252,1.252,0,0,1-.362.921,1.213,1.213,0,0,1-.921.362h-.1v.3h.1a1.213,1.213,0,0,1,.921.362,1.252,1.252,0,0,1,.362.921v4.426q0,.494.444.494h1.333v1.974h-2.172a1.65,1.65,0,0,1-1.217-.477,1.623,1.623,0,0,1-.461-1.2v-4.985c0-.317-.148-.477-.444-.477H251.9V262h1.036c.3,0,.444-.16.444-.477Z" transform="translate(76.091 37.059)" fill="#536387"/>
    <path id="Path_19606" data-name="Path 19606" d="M146.015,102.554a1.5,1.5,0,0,1-.921-1.431,1.56,1.56,0,0,1,.115-.592,1.616,1.616,0,0,1,.839-.823,1.417,1.417,0,0,1,.609-.132,1.371,1.371,0,0,1,.592.132,1.3,1.3,0,0,1,.494.329,1.283,1.283,0,0,1,.329.494,1.359,1.359,0,0,1,.132.592,1.535,1.535,0,0,1-.263.872,1.5,1.5,0,0,1-.642.559v2.056h-1.283Zm12.278,7.436a1.506,1.506,0,0,1-.132.625,1.484,1.484,0,0,1-.329.494,1.593,1.593,0,0,1-.51.313,1.379,1.379,0,0,1-.592.132,1.425,1.425,0,0,1-.609-.132,1.668,1.668,0,0,1-.494-.313,1.8,1.8,0,0,1-.345-.494,1.735,1.735,0,0,1-.115-.625,1.6,1.6,0,0,1,.115-.609,1.616,1.616,0,0,1,.839-.823,1.425,1.425,0,0,1,.609-.132,1.378,1.378,0,0,1,.592.132,1.45,1.45,0,0,1,.51.329,1.283,1.283,0,0,1,.329.494A1.4,1.4,0,0,1,158.293,109.99Zm10.041-12.24,1.876.592-4.919,15.037-1.892-.592Zm7.393,7.716a.6.6,0,0,0,.411.576,6.429,6.429,0,0,0,1.5.28,3.868,3.868,0,0,1,2.04.757,2.036,2.036,0,0,1,.79,1.711v.1a2.375,2.375,0,0,1-.888,1.941,3.864,3.864,0,0,1-2.5.724,4.753,4.753,0,0,1-1.629-.247,3.827,3.827,0,0,1-1.119-.609,3,3,0,0,1-.691-.823,3.408,3.408,0,0,1-.313-.888l1.908-.625a1.89,1.89,0,0,0,.543.921,1.858,1.858,0,0,0,1.3.395,1.739,1.739,0,0,0,1.053-.23.7.7,0,0,0,.3-.526.549.549,0,0,0-.082-.3.611.611,0,0,0-.263-.263,1.7,1.7,0,0,0-.543-.214,6.039,6.039,0,0,0-.839-.132,4.339,4.339,0,0,1-2.2-.707,2.089,2.089,0,0,1-.806-1.777v-.1a2.112,2.112,0,0,1,.263-1.069,2.431,2.431,0,0,1,.691-.773,2.991,2.991,0,0,1,.987-.494,4.359,4.359,0,0,1,2.484.033,2.977,2.977,0,0,1,.971.494,2.67,2.67,0,0,1,.642.675,3.5,3.5,0,0,1,.378.707l-1.876.757a1.316,1.316,0,0,0-.51-.691,1.554,1.554,0,0,0-.938-.263,1.3,1.3,0,0,0-.79.2A.54.54,0,0,0,175.727,105.466Zm7.079-2.3h3.455v1.185h.3a1.966,1.966,0,0,1,.773-1.036,2.32,2.32,0,0,1,1.333-.378,2.588,2.588,0,0,1,1.958.773,3.2,3.2,0,0,1,.74,2.32v.362l-2.139.2v-.23a1.568,1.568,0,0,0-.346-1.069,1.275,1.275,0,0,0-1.036-.411,1.335,1.335,0,0,0-1.086.477,2.088,2.088,0,0,0-.395,1.365v2.632h1.876v1.974h-5.627v-1.974h1.678v-4.212h-1.481Zm18.431,5.166a3.939,3.939,0,0,1-1.333,2.336,4.129,4.129,0,0,1-2.78.888,5.051,5.051,0,0,1-1.695-.28,3.967,3.967,0,0,1-1.349-.806,3.672,3.672,0,0,1-.9-1.3,4.438,4.438,0,0,1-.329-1.76v-.2a4.561,4.561,0,0,1,.329-1.777,3.982,3.982,0,0,1,.9-1.349,4.088,4.088,0,0,1,1.366-.855,4.74,4.74,0,0,1,1.678-.3,4.143,4.143,0,0,1,2.764.888,3.9,3.9,0,0,1,1.349,2.336l-2.04.526a2.137,2.137,0,0,0-.625-1.25,2.008,2.008,0,0,0-1.481-.526,2.15,2.15,0,0,0-.839.165,2,2,0,0,0-.691.477,2.2,2.2,0,0,0-.477.74,2.674,2.674,0,0,0-.165.971v.1a2.674,2.674,0,0,0,.165.971,2.079,2.079,0,0,0,.477.691,2.044,2.044,0,0,0,.691.428,2.652,2.652,0,0,0,.839.132,2.008,2.008,0,0,0,1.448-.477,2.26,2.26,0,0,0,.658-1.283Zm7.392-10.578,1.875.592-4.919,15.037-1.892-.592ZM219.509,109l-1.2-1.2-.543-1.217-.263.115.461,1.2v1.744h-1.579V107.9l.461-1.2-.263-.115-.543,1.217-1.2,1.2-1.1-1.1,1.2-1.2,1.217-.543-.115-.263-1.2.461h-1.744v-1.579h1.744l1.2.461.115-.263-1.217-.543-1.2-1.2,1.1-1.1,1.2,1.2.543,1.217.263-.115-.461-1.2v-1.744h1.579v1.744l-.461,1.2.263.115.543-1.217,1.2-1.2,1.1,1.1-1.2,1.2-1.217.543.115.263,1.2-.461h1.744v1.579h-1.744l-1.2-.461-.115.263,1.217.543,1.2,1.2Zm9.3.987a1.629,1.629,0,0,1-.461,1.119,1.612,1.612,0,0,1-.51.313,1.389,1.389,0,0,1-.592.132,1.414,1.414,0,0,1-.609-.132,1.627,1.627,0,0,1-.494-.313,1.733,1.733,0,0,1-.345-.494,1.7,1.7,0,0,1-.115-.625,1.573,1.573,0,0,1,.115-.609,1.616,1.616,0,0,1,.839-.823,1.414,1.414,0,0,1,.609-.132,1.389,1.389,0,0,1,.592.132,1.465,1.465,0,0,1,.51.329,1.321,1.321,0,0,1,.329.494A1.42,1.42,0,0,1,228.809,109.99Zm6.4,4.623h-2.073v-11.45h2.073v1.185h.3a2.36,2.36,0,0,1,.954-1.036,3.043,3.043,0,0,1,1.6-.378,3.391,3.391,0,0,1,1.365.28,3.129,3.129,0,0,1,1.135.823,3.739,3.739,0,0,1,.773,1.3,4.893,4.893,0,0,1,.3,1.76v.3a5.218,5.218,0,0,1-.28,1.777,4.1,4.1,0,0,1-.757,1.316,3.225,3.225,0,0,1-1.135.806,3.643,3.643,0,0,1-1.4.263,3.594,3.594,0,0,1-.971-.115,2.717,2.717,0,0,1-.724-.313,2.487,2.487,0,0,1-.51-.444,4.184,4.184,0,0,1-.346-.543h-.3Zm2.172-5.034a2.114,2.114,0,0,0,1.563-.592,2.228,2.228,0,0,0,.609-1.645v-.2a2.171,2.171,0,0,0-.609-1.629,2.081,2.081,0,0,0-1.563-.609,2.105,2.105,0,0,0-1.579.625,2.213,2.213,0,0,0-.592,1.612v.2a2.269,2.269,0,0,0,.592,1.629A2.131,2.131,0,0,0,237.385,109.579Zm11.784-6.416h2.073v8.16H249.17v-1.185h-.3a2.234,2.234,0,0,1-2.336,1.415,3.2,3.2,0,0,1-1.135-.2,2.458,2.458,0,0,1-.921-.609,2.958,2.958,0,0,1-.625-1.02,4.511,4.511,0,0,1-.214-1.464v-5.1h2.073v4.672a2.069,2.069,0,0,0,.411,1.366,1.544,1.544,0,0,0,1.234.477,1.569,1.569,0,0,0,1.366-.592,2.737,2.737,0,0,0,.444-1.645Zm10.37,6.976h-.3a3.125,3.125,0,0,1-.329.543,1.763,1.763,0,0,1-.494.444,2.463,2.463,0,0,1-.724.313,4.124,4.124,0,0,1-2.418-.148,3.414,3.414,0,0,1-1.135-.806,4.068,4.068,0,0,1-.757-1.316,5.487,5.487,0,0,1-.263-1.777v-.3a5.166,5.166,0,0,1,.28-1.76,3.928,3.928,0,0,1,.79-1.3,3.426,3.426,0,0,1,1.168-.823,3.666,3.666,0,0,1,1.415-.28,2.82,2.82,0,0,1,1.563.378,2.472,2.472,0,0,1,.9,1.036h.3v-1.185h2.073V113.33a1.246,1.246,0,0,1-.362.921,1.191,1.191,0,0,1-.9.362H254.85v-1.974h4.245q.444,0,.444-.494Zm-2.172-.559a2.08,2.08,0,0,0,1.563-.609,2.232,2.232,0,0,0,.609-1.629v-.2a2.177,2.177,0,0,0-.609-1.612,2.056,2.056,0,0,0-1.563-.625,2.136,2.136,0,0,0-1.579.609,2.2,2.2,0,0,0-.592,1.629v.2a2.259,2.259,0,0,0,.592,1.645A2.171,2.171,0,0,0,257.367,109.579Zm9.531-7.025a1.589,1.589,0,0,1-.675-.559,1.613,1.613,0,0,1-.247-.872,1.53,1.53,0,0,1,.115-.592,1.462,1.462,0,0,1,.345-.494,1.509,1.509,0,0,1,.494-.329,1.412,1.412,0,0,1,.609-.132,1.371,1.371,0,0,1,.592.132,1.513,1.513,0,0,1,.823.823,1.381,1.381,0,0,1,.132.592,1.534,1.534,0,0,1-.263.872,1.5,1.5,0,0,1-.642.559v2.056H266.9Z" transform="translate(92.97 63.066)" fill="#fcbf04"/>
    <path id="Path_19607" data-name="Path 19607" d="M180.463,142.356h2.32v-1.678a1.6,1.6,0,0,1,.477-1.185,1.579,1.579,0,0,1,1.185-.494h3.323v1.974H185.3q-.444,0-.444.494v.888h3.208v1.974h-3.208v6.186h-2.073V144.33h-2.32Zm15.42,6.976a2.178,2.178,0,0,1-.921,1.1,2.913,2.913,0,0,1-1.382.313,3.544,3.544,0,0,1-1.4-.28,3.3,3.3,0,0,1-1.135-.823,4.131,4.131,0,0,1-.79-1.316,5.127,5.127,0,0,1-.28-1.76V146.3a5.077,5.077,0,0,1,.28-1.744,4.038,4.038,0,0,1,.757-1.316,3.172,3.172,0,0,1,1.1-.823,3.216,3.216,0,0,1,1.366-.3,2.852,2.852,0,0,1,1.4.3,2.065,2.065,0,0,1,.856.921h.3v-.987H198.1v5.692q0,.494.444.494h.313v1.974h-1.415a1.317,1.317,0,0,1-.921-.329,1.128,1.128,0,0,1-.345-.855Zm-1.843-.559a1.87,1.87,0,0,0,1.448-.592,2.382,2.382,0,0,0,.543-1.645v-.2a2.319,2.319,0,0,0-.543-1.629,2.026,2.026,0,0,0-2.9,0,2.319,2.319,0,0,0-.543,1.629v.2a2.382,2.382,0,0,0,.543,1.645A1.868,1.868,0,0,0,194.041,148.772Zm6.586-.23h2.863v-7.568h-2.764V139h4.837v9.542h2.665v1.974h-7.6Zm12.722-3.883a.6.6,0,0,0,.411.576,6.429,6.429,0,0,0,1.5.28,3.869,3.869,0,0,1,2.04.757,2.036,2.036,0,0,1,.79,1.711v.1a2.375,2.375,0,0,1-.888,1.941,3.864,3.864,0,0,1-2.5.724,4.753,4.753,0,0,1-1.629-.247,3.826,3.826,0,0,1-1.119-.609,2.994,2.994,0,0,1-.691-.823,3.407,3.407,0,0,1-.313-.888l1.908-.625a1.89,1.89,0,0,0,.543.921,1.858,1.858,0,0,0,1.3.395,1.739,1.739,0,0,0,1.053-.23.7.7,0,0,0,.3-.526.549.549,0,0,0-.082-.3.611.611,0,0,0-.263-.263,1.7,1.7,0,0,0-.543-.214,6.034,6.034,0,0,0-.839-.132,4.34,4.34,0,0,1-2.2-.707,2.089,2.089,0,0,1-.806-1.777v-.1a2.112,2.112,0,0,1,.263-1.069,2.43,2.43,0,0,1,.691-.773,2.991,2.991,0,0,1,.987-.494,4.359,4.359,0,0,1,2.484.033,2.976,2.976,0,0,1,.971.494,2.671,2.671,0,0,1,.642.675,3.507,3.507,0,0,1,.378.707l-1.876.757a1.316,1.316,0,0,0-.51-.691A1.555,1.555,0,0,0,214.4,144a1.3,1.3,0,0,0-.79.2A.54.54,0,0,0,213.348,144.659Zm9.3,2.451a1.754,1.754,0,0,0,.165.675,1.954,1.954,0,0,0,.428.526,2.428,2.428,0,0,0,.625.345,2.466,2.466,0,0,0,.757.115,2.2,2.2,0,0,0,1.185-.263,1.67,1.67,0,0,0,.592-.658l1.777.987a3.7,3.7,0,0,1-.411.658,2.941,2.941,0,0,1-.691.609,3.665,3.665,0,0,1-1.02.461,4.826,4.826,0,0,1-1.4.181,4.574,4.574,0,0,1-1.678-.3,3.786,3.786,0,0,1-1.316-.855,4.027,4.027,0,0,1-.856-1.366,5.276,5.276,0,0,1-.3-1.826v-.1a4.513,4.513,0,0,1,.313-1.711,3.909,3.909,0,0,1,2.188-2.155,4.171,4.171,0,0,1,1.612-.313,4.014,4.014,0,0,1,1.81.378,3.759,3.759,0,0,1,1.25.938,3.585,3.585,0,0,1,.724,1.25,4.072,4.072,0,0,1,.23,1.316v1.1ZM224.606,144a1.935,1.935,0,0,0-1.283.411,1.8,1.8,0,0,0-.642.921h3.85a1.455,1.455,0,0,0-.625-.954A2.128,2.128,0,0,0,224.606,144Z" transform="translate(115.789 89.679)" fill="#ff60f9"/>
    <path id="Path_19608" data-name="Path 19608" d="M195,201.838a1.579,1.579,0,0,1-.675-.559,1.614,1.614,0,0,1-.247-.872,1.526,1.526,0,0,1,.115-.592,1.616,1.616,0,0,1,.839-.823,1.414,1.414,0,0,1,.609-.132,1.389,1.389,0,0,1,.592.132,1.3,1.3,0,0,1,.494.329,1.322,1.322,0,0,1,.329.494,1.379,1.379,0,0,1,.132.592,1.548,1.548,0,0,1-.263.872,1.5,1.5,0,0,1-.642.559v2.056H195Zm12.442.51a1.324,1.324,0,0,0-.428-.987,1.737,1.737,0,0,0-1.3-.428,1.913,1.913,0,0,0-1.415.526,1.823,1.823,0,0,0-.51,1.349v1.481h.3a2.087,2.087,0,0,1,.9-.921,2.765,2.765,0,0,1,1.415-.362,3.4,3.4,0,0,1,1.333.263,3.063,3.063,0,0,1,1.086.724,3.287,3.287,0,0,1,.724,1.135,4.2,4.2,0,0,1,.263,1.53v.2a4.3,4.3,0,0,1-.3,1.612,3.466,3.466,0,0,1-.823,1.25,3.717,3.717,0,0,1-1.283.823,4.892,4.892,0,0,1-3.307.016,4.149,4.149,0,0,1-1.3-.773,3.973,3.973,0,0,1-.872-1.2,3.776,3.776,0,0,1-.313-1.546v-4.2a3.987,3.987,0,0,1,.329-1.645,3.692,3.692,0,0,1,.888-1.25,3.888,3.888,0,0,1,1.283-.806,4.393,4.393,0,0,1,1.563-.28,4.619,4.619,0,0,1,1.53.247,3.468,3.468,0,0,1,1.25.691,2.98,2.98,0,0,1,.839,1.1,3.276,3.276,0,0,1,.313,1.448Zm-1.727,6.416a1.976,1.976,0,0,0,1.382-.494,1.765,1.765,0,0,0,.543-1.349,1.712,1.712,0,0,0-.543-1.333,2.127,2.127,0,0,0-2.764,0,1.712,1.712,0,0,0-.543,1.333,1.765,1.765,0,0,0,.543,1.349A1.976,1.976,0,0,0,205.715,208.764Zm8.856-9.674h4.113v7.272h1.678v2.073h-1.678v2.172h-2.172v-2.172H211.38v-2.994Zm-1.316,6.976v.3h3.257v-6.186h-.3Zm11.225-1.217a1.4,1.4,0,1,1,.411.971A1.325,1.325,0,0,1,224.48,204.848Zm-2.863-1.283a4.987,4.987,0,0,1,1.119-3.471,4.036,4.036,0,0,1,3.126-1.234,3.982,3.982,0,0,1,3.109,1.234,4.938,4.938,0,0,1,1.135,3.471v2.566a4.918,4.918,0,0,1-1.135,3.5,4.037,4.037,0,0,1-3.109,1.2,4.091,4.091,0,0,1-3.126-1.2,4.967,4.967,0,0,1-1.119-3.5Zm4.245,5.3a2.378,2.378,0,0,0,.987-.181,1.718,1.718,0,0,0,.642-.543,2.147,2.147,0,0,0,.346-.823,5.208,5.208,0,0,0,.1-1.053v-2.83a4.3,4.3,0,0,0-.115-1.02,2.36,2.36,0,0,0-.362-.823,1.718,1.718,0,0,0-.642-.543,2.235,2.235,0,0,0-1.908,0,1.719,1.719,0,0,0-.642.543,2.361,2.361,0,0,0-.362.823,4.305,4.305,0,0,0-.115,1.02v2.83a5.2,5.2,0,0,0,.1,1.053,2.147,2.147,0,0,0,.345.823,1.718,1.718,0,0,0,.642.543A2.378,2.378,0,0,0,225.862,208.863Zm7.968,5.034h-2.073v-11.45h2.073v1.185h.3a2.369,2.369,0,0,1,.954-1.036,3.047,3.047,0,0,1,1.6-.378,3.391,3.391,0,0,1,1.366.28,3.1,3.1,0,0,1,1.135.823,3.715,3.715,0,0,1,.773,1.3,4.894,4.894,0,0,1,.3,1.76v.3a5.217,5.217,0,0,1-.28,1.777,4.067,4.067,0,0,1-.757,1.316,3.2,3.2,0,0,1-1.135.806,3.963,3.963,0,0,1-2.369.148,2.742,2.742,0,0,1-.724-.313,2.531,2.531,0,0,1-.51-.444,4.178,4.178,0,0,1-.345-.543h-.3ZM236,208.863a2.114,2.114,0,0,0,1.563-.592,2.222,2.222,0,0,0,.609-1.645v-.2a2.165,2.165,0,0,0-.609-1.629A2.081,2.081,0,0,0,236,204.19a2.11,2.11,0,0,0-1.579.625,2.213,2.213,0,0,0-.592,1.612v.2a2.269,2.269,0,0,0,.592,1.629A2.136,2.136,0,0,0,236,208.863Zm11.669-6.416h2.287l-1.974,3.833v.3l2.089,4.031h-2.385l-1.53-3.192h-.3l-1.53,3.192h-2.385l2.089-4.031v-.3l-1.991-3.833h2.3l1.514,2.994h.3Zm7.77-.609a1.589,1.589,0,0,1-.675-.559,1.614,1.614,0,0,1-.247-.872,1.526,1.526,0,0,1,.115-.592,1.463,1.463,0,0,1,.345-.494,1.509,1.509,0,0,1,.494-.329,1.419,1.419,0,0,1,.609-.132,1.378,1.378,0,0,1,.592.132,1.512,1.512,0,0,1,.823.823,1.378,1.378,0,0,1,.132.592,1.536,1.536,0,0,1-.263.872,1.5,1.5,0,0,1-.642.559v2.056h-1.283Z" transform="translate(124.574 128.3)" fill="#fbbf05"/>
    <path id="Path_19609" data-name="Path 19609" d="M195,221.838a1.578,1.578,0,0,1-.675-.559,1.614,1.614,0,0,1-.247-.872,1.527,1.527,0,0,1,.115-.592,1.616,1.616,0,0,1,.839-.823,1.414,1.414,0,0,1,.609-.132,1.389,1.389,0,0,1,.592.132,1.3,1.3,0,0,1,.494.329,1.322,1.322,0,0,1,.329.494,1.379,1.379,0,0,1,.132.592,1.548,1.548,0,0,1-.263.872,1.5,1.5,0,0,1-.642.559v2.057H195Zm6.668-2.747h8.094v3.389l-4.162,6.087c-.22.329-.395.614-.526.855a1.664,1.664,0,0,0-.181.79v.395h-2.336v-.494a3.241,3.241,0,0,1,.049-.592,3.154,3.154,0,0,1,.148-.526,4.341,4.341,0,0,1,.3-.559q.18-.3.444-.691l4.294-6.285v-.3h-6.12Zm15.848,3.257a1.325,1.325,0,0,0-.428-.987,1.737,1.737,0,0,0-1.3-.428,1.913,1.913,0,0,0-1.415.526,1.822,1.822,0,0,0-.51,1.349v1.481h.3a2.1,2.1,0,0,1,.9-.921,2.765,2.765,0,0,1,1.415-.362,3.385,3.385,0,0,1,1.333.263,3.062,3.062,0,0,1,1.086.724,3.263,3.263,0,0,1,.724,1.135,4.167,4.167,0,0,1,.263,1.53v.2a4.3,4.3,0,0,1-.3,1.612,3.445,3.445,0,0,1-.823,1.25,3.686,3.686,0,0,1-1.283.823,4.892,4.892,0,0,1-3.307.016,4.168,4.168,0,0,1-1.3-.773,3.974,3.974,0,0,1-.872-1.2,3.777,3.777,0,0,1-.313-1.546v-4.2a4.014,4.014,0,0,1,.329-1.645,3.693,3.693,0,0,1,.888-1.25,3.922,3.922,0,0,1,1.283-.806,4.4,4.4,0,0,1,1.563-.28,4.62,4.62,0,0,1,1.53.247,3.455,3.455,0,0,1,1.25.691,2.98,2.98,0,0,1,.839,1.1,3.254,3.254,0,0,1,.313,1.448Zm-1.727,6.416a1.976,1.976,0,0,0,1.382-.494,1.765,1.765,0,0,0,.543-1.349,1.712,1.712,0,0,0-.543-1.333,2.127,2.127,0,0,0-2.764,0,1.712,1.712,0,0,0-.543,1.333,1.765,1.765,0,0,0,.543,1.349A1.976,1.976,0,0,0,215.789,228.764Zm10.073,2.073a6.124,6.124,0,0,1-1.744-.23,4.153,4.153,0,0,1-1.316-.675,3.044,3.044,0,0,1-.839-1,2.9,2.9,0,0,1-.3-1.316v-.1a3.161,3.161,0,0,1,.165-1.069,2.758,2.758,0,0,1,.461-.79,2.816,2.816,0,0,1,.658-.543,3.309,3.309,0,0,1,.757-.329v-.3a3.489,3.489,0,0,1-.675-.345,2.74,2.74,0,0,1-.559-.51,2.84,2.84,0,0,1-.378-.724,3.254,3.254,0,0,1-.132-.954v-.1a2.456,2.456,0,0,1,.329-1.267,2.947,2.947,0,0,1,.872-.938,3.9,3.9,0,0,1,1.234-.592,5.421,5.421,0,0,1,1.464-.2,5.242,5.242,0,0,1,1.448.2,3.87,3.87,0,0,1,1.25.592,2.946,2.946,0,0,1,.872.938,2.456,2.456,0,0,1,.329,1.267v.1a2.9,2.9,0,0,1-.148.954,2.261,2.261,0,0,1-.938,1.234,3.106,3.106,0,0,1-.658.345v.3a3.309,3.309,0,0,1,.757.329,2.524,2.524,0,0,1,.642.543,2.342,2.342,0,0,1,.461.79,2.924,2.924,0,0,1,.181,1.069v.1a2.9,2.9,0,0,1-.3,1.316,2.987,2.987,0,0,1-.839,1.02,4.311,4.311,0,0,1-1.333.658A6.055,6.055,0,0,1,225.862,230.837Zm0-2.073a2.321,2.321,0,0,0,1.5-.428,1.4,1.4,0,0,0,.526-1.119,1.357,1.357,0,0,0-.526-1.1,2.745,2.745,0,0,0-2.994,0,1.357,1.357,0,0,0-.526,1.1,1.4,1.4,0,0,0,.526,1.119A2.321,2.321,0,0,0,225.862,228.764Zm0-7.831a1.972,1.972,0,0,0-1.234.378,1.169,1.169,0,0,0,0,1.908,2.2,2.2,0,0,0,2.468,0,1.169,1.169,0,0,0,0-1.908A1.972,1.972,0,0,0,225.862,220.933ZM233.83,233.9h-2.073v-11.45h2.073v1.185h.3a2.369,2.369,0,0,1,.954-1.036,3.047,3.047,0,0,1,1.6-.378,3.391,3.391,0,0,1,1.366.28,3.1,3.1,0,0,1,1.135.823,3.715,3.715,0,0,1,.773,1.3,4.894,4.894,0,0,1,.3,1.76v.3a5.217,5.217,0,0,1-.28,1.777,4.067,4.067,0,0,1-.757,1.316,3.2,3.2,0,0,1-1.135.806,3.963,3.963,0,0,1-2.369.148,2.742,2.742,0,0,1-.724-.313,2.531,2.531,0,0,1-.51-.444,4.178,4.178,0,0,1-.345-.543h-.3ZM236,228.863a2.114,2.114,0,0,0,1.563-.592,2.222,2.222,0,0,0,.609-1.645v-.2a2.165,2.165,0,0,0-.609-1.629A2.081,2.081,0,0,0,236,224.19a2.11,2.11,0,0,0-1.579.625,2.213,2.213,0,0,0-.592,1.612v.2a2.269,2.269,0,0,0,.592,1.629A2.136,2.136,0,0,0,236,228.863Zm11.669-6.416h2.287l-1.974,3.833v.3l2.089,4.031h-2.385l-1.53-3.192h-.3l-1.53,3.192h-2.385l2.089-4.031v-.3l-1.991-3.833h2.3l1.514,2.994h.3Zm7.77-.609a1.589,1.589,0,0,1-.675-.559,1.614,1.614,0,0,1-.247-.872,1.527,1.527,0,0,1,.115-.592,1.463,1.463,0,0,1,.345-.494,1.509,1.509,0,0,1,.494-.329,1.419,1.419,0,0,1,.609-.132,1.378,1.378,0,0,1,.592.132,1.512,1.512,0,0,1,.823.823,1.379,1.379,0,0,1,.132.592,1.536,1.536,0,0,1-.263.872,1.5,1.5,0,0,1-.642.559v2.057h-1.283Z" transform="translate(124.574 141.203)" fill="#fcbf03"/>
    <path id="Path_19610" data-name="Path 19610" d="M195,241.838a1.579,1.579,0,0,1-.675-.559,1.614,1.614,0,0,1-.247-.872,1.527,1.527,0,0,1,.115-.592,1.616,1.616,0,0,1,.839-.823,1.414,1.414,0,0,1,.609-.132,1.389,1.389,0,0,1,.592.132,1.3,1.3,0,0,1,.494.329,1.321,1.321,0,0,1,.329.494,1.379,1.379,0,0,1,.132.592,1.548,1.548,0,0,1-.263.872,1.5,1.5,0,0,1-.642.559v2.056H195Zm10.024,6.7v-8.358h-.3l-1.086,3.948h-2.073v-.2l1.382-4.837H207.2v9.443h2.863v2.073h-8.292v-2.073Zm9.382-3.685a1.4,1.4,0,1,1,.411.971A1.325,1.325,0,0,1,214.407,244.848Zm-2.863-1.283a4.987,4.987,0,0,1,1.119-3.471,4.036,4.036,0,0,1,3.126-1.234,3.983,3.983,0,0,1,3.109,1.234,4.938,4.938,0,0,1,1.135,3.471v2.566a4.918,4.918,0,0,1-1.135,3.5,4.037,4.037,0,0,1-3.109,1.2,4.091,4.091,0,0,1-3.126-1.2,4.967,4.967,0,0,1-1.119-3.5Zm4.245,5.3a2.378,2.378,0,0,0,.987-.181,1.719,1.719,0,0,0,.642-.543,2.147,2.147,0,0,0,.346-.823,5.206,5.206,0,0,0,.1-1.053v-2.83a4.306,4.306,0,0,0-.115-1.02,2.36,2.36,0,0,0-.362-.823,1.718,1.718,0,0,0-.642-.543,2.235,2.235,0,0,0-1.908,0,1.719,1.719,0,0,0-.642.543,2.361,2.361,0,0,0-.362.823,4.3,4.3,0,0,0-.115,1.02v2.83a5.208,5.208,0,0,0,.1,1.053,2.147,2.147,0,0,0,.346.823,1.718,1.718,0,0,0,.642.543A2.378,2.378,0,0,0,215.789,248.863Zm14.2-.329v2.073H221.9v-2.27a4.059,4.059,0,0,1,.263-1.546,3.106,3.106,0,0,1,.773-1.086,4.154,4.154,0,0,1,1.217-.724,9.458,9.458,0,0,1,1.6-.494,6.016,6.016,0,0,0,1.069-.329,2.58,2.58,0,0,0,.675-.428,1.242,1.242,0,0,0,.329-.526,2.069,2.069,0,0,0,.1-.658,1.486,1.486,0,0,0-.51-1.152,1.945,1.945,0,0,0-1.382-.461,1.994,1.994,0,0,0-1.5.576,2.11,2.11,0,0,0-.559,1.563v.724H221.8v-.921a4.215,4.215,0,0,1,.28-1.53,3.912,3.912,0,0,1,.823-1.283,3.788,3.788,0,0,1,1.316-.872,4.423,4.423,0,0,1,1.744-.329,4.8,4.8,0,0,1,1.81.313,3.752,3.752,0,0,1,1.283.79,3.013,3.013,0,0,1,.773,1.152,3.469,3.469,0,0,1,.263,1.333v.2a3.551,3.551,0,0,1-.823,2.4,4.771,4.771,0,0,1-2.649,1.382,9.81,9.81,0,0,0-1.283.378,2.651,2.651,0,0,0-.773.411,1.325,1.325,0,0,0-.395.51,1.73,1.73,0,0,0-.1.609v.2Zm4.727-9.443h4.113v7.272h1.678v2.073h-1.678v2.172h-2.172v-2.172h-5.133v-2.994Zm-1.316,6.976v.3h3.257v-6.186h-.3Zm10.5,7.831H241.83v-11.45H243.9v1.185h.3a2.369,2.369,0,0,1,.954-1.036,3.047,3.047,0,0,1,1.6-.378,3.391,3.391,0,0,1,1.366.28,3.1,3.1,0,0,1,1.135.823,3.716,3.716,0,0,1,.773,1.3,4.894,4.894,0,0,1,.3,1.76v.3a5.218,5.218,0,0,1-.28,1.777,4.068,4.068,0,0,1-.757,1.316,3.2,3.2,0,0,1-1.135.806,3.962,3.962,0,0,1-2.369.148,2.739,2.739,0,0,1-.724-.313,2.532,2.532,0,0,1-.51-.444,4.181,4.181,0,0,1-.345-.543h-.3Zm2.172-5.034a2.114,2.114,0,0,0,1.563-.592,2.222,2.222,0,0,0,.609-1.645v-.2a2.165,2.165,0,0,0-.609-1.629,2.081,2.081,0,0,0-1.563-.609,2.11,2.11,0,0,0-1.579.625,2.213,2.213,0,0,0-.592,1.612v.2a2.269,2.269,0,0,0,.592,1.629A2.136,2.136,0,0,0,246.075,248.863Zm11.669-6.416h2.287l-1.974,3.833v.3l2.089,4.031H257.76l-1.53-3.192h-.3l-1.53,3.192h-2.385l2.089-4.031v-.3l-1.991-3.833h2.3l1.514,2.994h.3Zm7.77-.609a1.589,1.589,0,0,1-.675-.559,1.614,1.614,0,0,1-.247-.872,1.527,1.527,0,0,1,.115-.592,1.463,1.463,0,0,1,.346-.494,1.509,1.509,0,0,1,.494-.329,1.419,1.419,0,0,1,.609-.132,1.378,1.378,0,0,1,.592.132,1.512,1.512,0,0,1,.823.823,1.379,1.379,0,0,1,.132.592,1.536,1.536,0,0,1-.263.872,1.5,1.5,0,0,1-.642.559v2.056h-1.283ZM195,274.741a1.579,1.579,0,0,1-.675-.559,1.613,1.613,0,0,1-.247-.872,1.526,1.526,0,0,1,.115-.592,1.616,1.616,0,0,1,.839-.823,1.414,1.414,0,0,1,.609-.132,1.389,1.389,0,0,1,.592.132,1.3,1.3,0,0,1,.494.329,1.321,1.321,0,0,1,.329.494,1.379,1.379,0,0,1,.132.592,1.548,1.548,0,0,1-.263.872,1.5,1.5,0,0,1-.642.559V276.8H195Zm10.024,6.7V273.08h-.3l-1.086,3.948h-2.073v-.2l1.382-4.837H207.2v9.443h2.863v2.073h-8.292v-2.073Zm10.073,0V273.08h-.3l-1.086,3.948h-2.073v-.2l1.382-4.837h4.245v9.443h2.863v2.073H211.84v-2.073Zm9.547-9.443h4.113v7.272h1.678v2.073h-1.678v2.172h-2.172v-2.172h-5.133v-2.994Zm-1.316,6.976v.3h3.257V273.08h-.3Zm11.225-1.217a1.4,1.4,0,1,1,.411.971A1.325,1.325,0,0,1,234.554,277.752Zm-2.863-1.283A4.987,4.987,0,0,1,232.81,273a4.036,4.036,0,0,1,3.126-1.234A3.983,3.983,0,0,1,239.045,273a4.938,4.938,0,0,1,1.135,3.471v2.566a4.918,4.918,0,0,1-1.135,3.5,4.037,4.037,0,0,1-3.109,1.2,4.091,4.091,0,0,1-3.126-1.2,4.967,4.967,0,0,1-1.119-3.5Zm4.245,5.3a2.377,2.377,0,0,0,.987-.181,1.718,1.718,0,0,0,.642-.543,2.148,2.148,0,0,0,.345-.823,5.2,5.2,0,0,0,.1-1.053v-2.83a4.307,4.307,0,0,0-.115-1.02,2.36,2.36,0,0,0-.362-.823,1.718,1.718,0,0,0-.642-.543,2.236,2.236,0,0,0-1.908,0,1.719,1.719,0,0,0-.642.543,2.362,2.362,0,0,0-.362.823,4.306,4.306,0,0,0-.115,1.02v2.83a5.208,5.208,0,0,0,.1,1.053,2.148,2.148,0,0,0,.345.823,1.718,1.718,0,0,0,.642.543A2.376,2.376,0,0,0,235.936,281.766ZM243.9,286.8H241.83V275.35H243.9v1.185h.3a2.369,2.369,0,0,1,.954-1.036,3.047,3.047,0,0,1,1.6-.378,3.391,3.391,0,0,1,1.366.28,3.1,3.1,0,0,1,1.135.823,3.716,3.716,0,0,1,.773,1.3,4.894,4.894,0,0,1,.3,1.76v.3a5.217,5.217,0,0,1-.28,1.777,4.067,4.067,0,0,1-.757,1.316,3.2,3.2,0,0,1-1.135.806,3.637,3.637,0,0,1-1.4.263,3.6,3.6,0,0,1-.971-.115,2.738,2.738,0,0,1-.724-.313,2.531,2.531,0,0,1-.51-.444,4.178,4.178,0,0,1-.345-.543h-.3Zm2.172-5.034a2.114,2.114,0,0,0,1.563-.592,2.222,2.222,0,0,0,.609-1.645v-.2a2.165,2.165,0,0,0-.609-1.629,2.08,2.08,0,0,0-1.563-.609,2.11,2.11,0,0,0-1.579.625,2.213,2.213,0,0,0-.592,1.612v.2a2.269,2.269,0,0,0,.592,1.629A2.136,2.136,0,0,0,246.075,281.766Zm11.669-6.416h2.287l-1.974,3.833v.3l2.089,4.031H257.76l-1.53-3.192h-.3l-1.53,3.192h-2.385l2.089-4.031v-.3l-1.991-3.833h2.3l1.514,2.994h.3Zm7.77-.609a1.589,1.589,0,0,1-.675-.559,1.614,1.614,0,0,1-.247-.872,1.526,1.526,0,0,1,.115-.592,1.463,1.463,0,0,1,.346-.494,1.509,1.509,0,0,1,.494-.329,1.42,1.42,0,0,1,.609-.132,1.379,1.379,0,0,1,.592.132,1.513,1.513,0,0,1,.823.823,1.379,1.379,0,0,1,.132.592,1.535,1.535,0,0,1-.263.872,1.5,1.5,0,0,1-.642.559V276.8h-1.283Z" transform="translate(124.574 154.107)" fill="#fbbf04"/>
    <g id="Group_4192" data-name="Group 4192" transform="translate(536.841)">
      <rect id="Rectangle_8447" data-name="Rectangle 8447" width="217.653" height="243.065" rx="24" transform="translate(0)" fill="#fff"/>
    </g>
    <path id="Path_19611" data-name="Path 19611" d="M475.453,50.758V151.281H357V62.518l4.626-16.5h109.2Z" transform="translate(229.687 29.688)" fill="#f6faff"/>
    <path id="Path_19612" data-name="Path 19612" d="M452.226,50.758V151.281H393V46.016h54.6Z" transform="translate(252.913 29.688)" fill="#dfedff"/>
    <path id="Path_19613" data-name="Path 19613" d="M475.453,38V55.93H425.018l-8.792,11.76H357V38Z" transform="translate(229.687 24.517)" fill="#21bdca"/>
    <path id="Path_19614" data-name="Path 19614" d="M363.855,44.678H370.8v6.941h-6.941Z" transform="translate(234.109 28.825)" fill="#ff8577"/>
    <path id="Path_19615" data-name="Path 19615" d="M372.508,44.678h6.941v6.941h-6.941Z" transform="translate(239.692 28.825)" fill="#16c8be"/>
    <path id="Path_19616" data-name="Path 19616" d="M381.164,44.678h6.941v6.941h-6.941Z" transform="translate(245.277 28.825)" fill="#ffc100"/>
    <path id="Path_19617" data-name="Path 19617" d="M452.226,38V55.93H401.792L393,67.69V38Z" transform="translate(252.913 24.517)" fill="#21bdca"/>
    <path id="Path_19618" data-name="Path 19618" d="M390.188,93.375h9.253v9.254h-9.253Z" transform="translate(251.099 60.243)" fill="#3fffac"/>
    <path id="Path_19619" data-name="Path 19619" d="M390.188,67h9.253v9.254h-9.253Z" transform="translate(251.099 43.227)" fill="#3fffac"/>
    <path id="Path_19620" data-name="Path 19620" d="M377,80.188h9.254v9.254H377Z" transform="translate(242.59 51.735)" fill="#3fffac"/>
    <path id="Path_19621" data-name="Path 19621" d="M403.375,80.188h9.254v9.254h-9.254Z" transform="translate(259.607 51.735)" fill="#3fffac"/>
    <path id="Path_19622" data-name="Path 19622" d="M379.7,94.89l6.543-6.543,6.543,6.543-6.543,6.543Z" transform="translate(244.329 57)" fill="#3fffac"/>
    <path id="Path_19623" data-name="Path 19623" d="M379.7,76.24l6.543-6.543,6.543,6.543-6.543,6.543Z" transform="translate(244.331 44.967)" fill="#3fffac"/>
    <path id="Path_19624" data-name="Path 19624" d="M398.344,94.892l6.543-6.543,6.543,6.543-6.543,6.543Z" transform="translate(256.361 57.001)" fill="#3fffac"/>
    <path id="Path_19625" data-name="Path 19625" d="M392.062,82.063h3.086v3.085h-3.086Z" transform="translate(252.308 52.945)" fill="#c6dcf8"/>
    <path id="Path_19626" data-name="Path 19626" d="M387.688,82.063h3.083v3.085h-3.083Z" transform="translate(249.486 52.945)" fill="#c6dcf8"/>
    <path id="Path_19627" data-name="Path 19627" d="M396.438,82.063h3.083v3.085h-3.083Z" transform="translate(255.131 52.945)" fill="#8fb2de"/>
    <path id="Path_19628" data-name="Path 19628" d="M393.031,82.063h1.492v3.085h-1.492Z" transform="translate(252.933 52.945)" fill="#8fb2de"/>
    <path id="Path_19629" data-name="Path 19629" d="M393.039,67h4.575v9.254h-4.575Z" transform="translate(252.938 43.227)" fill="#3fffac"/>
    <path id="Path_19630" data-name="Path 19630" d="M393.039,93.375h4.575v9.254h-4.575Z" transform="translate(252.938 60.243)" fill="#3fffac"/>
  </g>
</svg>
