<svg xmlns="http://www.w3.org/2000/svg" width="171.504" height="31.602" viewBox="0 0 171.504 31.602">
  <g id="Bloomberg" transform="translate(-7.21 -98.9)">
    <path id="Path_154" data-name="Path 154" d="M7.21,98.9H19.783a8.937,8.937,0,0,1,5.522,1.6,6.273,6.273,0,0,1,2.262,5.056,4.89,4.89,0,0,1-2.993,4.922v.133a6.143,6.143,0,0,1,4.192,6.121,7.522,7.522,0,0,1-2.794,6.187,9.551,9.551,0,0,1-5.855,1.529H7.21Zm11.309,9.978a2.232,2.232,0,1,0-.068-4.456H14.128v4.391h4.391Zm.6,9.913a2.462,2.462,0,0,0,2.66-2.595,2.425,2.425,0,0,0-2.66-2.595H14.2v5.255h4.922Z" transform="translate(0 0)" fill="#7d7d7d"/>
    <path id="Path_155" data-name="Path 155" d="M100.67,98.9h6.585v25.612H100.67Z" transform="translate(-70.775 0)" fill="#7d7d7d"/>
    <path id="Path_156" data-name="Path 156" d="M133.29,136.776c0-5.789,3.726-9.646,9.512-9.646s9.447,3.925,9.447,9.646c0,5.789-3.658,9.646-9.447,9.646S133.29,142.565,133.29,136.776Zm12.372,0c0-3.194-1-5.189-2.993-5.189s-2.927,2-2.927,5.189.932,5.255,2.927,5.255C144.664,141.965,145.662,139.97,145.662,136.776Z" transform="translate(-95.477 -21.378)" fill="#7d7d7d"/>
    <path id="Path_157" data-name="Path 157" d="M214.41,136.776c0-5.789,3.726-9.646,9.512-9.646s9.381,3.859,9.381,9.646-3.658,9.646-9.447,9.646C218.136,146.424,214.41,142.565,214.41,136.776Zm12.374,0c0-3.194-1-5.189-2.993-5.189s-2.927,2-2.927,5.189.932,5.255,2.927,5.255C225.786,141.965,226.784,139.97,226.784,136.776Z" transform="translate(-156.908 -21.378)" fill="#7d7d7d"/>
    <path id="Path_158" data-name="Path 158" d="M297.74,127.392h6.122v2.728h.133a5.8,5.8,0,0,1,5.522-3.26,5.052,5.052,0,0,1,4.922,3.126h.133a6.058,6.058,0,0,1,5.655-3.126c4.257,0,6.054,3.126,6.054,7.318V145.62h-6.391V135.309c0-1.862-.6-3.061-2.194-3.061s-2.4,1.464-2.4,3.459v9.913h-6.386V135.309c0-1.862-.6-3.061-2.194-3.061s-2.4,1.464-2.4,3.459v9.913H297.74Z" transform="translate(-220.011 -21.173)" fill="#7d7d7d"/>
    <path id="Path_159" data-name="Path 159" d="M429.177,122.051h-.066v2.4H422.99V98.9h6.386v9.18h.134a6.056,6.056,0,0,1,5.189-2.461c4.59,0,7.253,4.124,7.253,9.646,0,6.187-2.862,9.779-7.651,9.779A5.626,5.626,0,0,1,429.177,122.051Zm6.187-6.852c0-2.927-1.066-4.857-2.993-4.857-2,0-3.194,1.93-3.194,4.857s1.265,4.857,3.194,4.857S435.364,118.194,435.364,115.2Z" transform="translate(-314.86 0)" fill="#7d7d7d"/>
    <path id="Path_160" data-name="Path 160" d="M504.12,136.506c0-5.721,3.791-9.646,9.248-9.646a8.785,8.785,0,0,1,6.386,2.4c2.129,2.063,3.061,5.255,2.993,8.981H510.506c.267,2.262,1.33,3.459,3.26,3.459a2.5,2.5,0,0,0,2.529-1.731h6.187c-1.066,4.192-4.325,6.253-8.915,6.253C507.911,146.152,504.12,142.295,504.12,136.506Zm6.386-1.93h5.855c-.133-2.194-1.33-3.325-2.862-3.325C511.7,131.183,510.705,132.448,510.506,134.576Z" transform="translate(-376.298 -21.173)" fill="#7d7d7d"/>
    <path id="Path_161" data-name="Path 161" d="M591.642,130.927h.133c1.33-2.529,3.061-3.527,5.255-3.527a1.993,1.993,0,0,1,1.066.2v5.588h-.133c-3.791-.665-5.988,1.131-5.988,5.255v7.651H585.52V127.8h6.122Z" transform="translate(-437.94 -21.582)" fill="#7d7d7d"/>
    <path id="Path_162" data-name="Path 162" d="M639.023,145.474h6.187A2.472,2.472,0,0,0,647.8,147c2.063,0,2.794-1.265,2.794-3.194v-1.33h-.133a5.47,5.47,0,0,1-4.391,2.063c-3.925,0-7.384-2.927-7.384-8.648,0-5.255,2.794-9.313,7.051-9.313a5.378,5.378,0,0,1,4.922,2.529h.134v-2h6.121v15.833a8.429,8.429,0,0,1-2.529,6.52,9.6,9.6,0,0,1-6.454,2C643.015,151.53,639.622,149.532,639.023,145.474Zm11.842-9.845c0-2.262-1.066-4.124-2.927-4.124-1.8,0-2.927,1.6-2.927,4.124,0,2.461,1.131,4.192,2.927,4.192S650.865,138.024,650.865,135.629Z" transform="translate(-478.205 -20.961)" fill="#7d7d7d"/>
  </g>
</svg>
