<svg xmlns="http://www.w3.org/2000/svg" width="90.793" height="67.001" viewBox="0 0 90.793 67.001">
  <g id="CNBC" transform="translate(-191.244 -39.104)">
    <path id="Path_163" data-name="Path 163" d="M207.146,236.821c-.335-1.62-1.666-2.052-3.157-2.191-4.812-.445-5.665,3.149-5.665,4.667,0,2.594.759,4.742,5.482,4.742.872,0,3.278-.9,3.278-2.352h6.794c-.276,4.318-7.54,5.354-10.71,5.354-6.566,0-12.188-1.223-11.915-7.685.193-4.613,4.554-7.851,13.234-7.65,4.836.115,9.484,1.617,9.5,5.115Zm68.046,0c-.333-1.62-1.666-2.052-3.154-2.191-4.812-.445-5.665,3.149-5.665,4.667,0,2.594.756,4.742,5.483,4.742.872,0,3.275-.9,3.275-2.352h6.794c-.276,4.318-7.537,5.354-10.71,5.354-6.566,0-12.185-1.223-11.915-7.685.193-4.613,4.557-7.851,13.234-7.65,4.836.115,9.482,1.617,9.5,5.115Zm-59.986-4.8h8.819l7.526,10.541h.059V232.017h5.654v14.637h-8.449l-7.894-10.544h-.059v10.544h-5.654V232.017Zm23.8,0h10.713c5.15,0,8.178,1.435,8.178,3.608,0,1.282-1.269,2.865-4.093,3.331V239c3.4.2,4.659,2.352,4.659,3.64,0,2.58-2.95,4.018-8.709,4.018H239.014v-14.64Zm6.2,5.686h1.778c2.736,0,4.187-.215,4.187-1.346,0-1.218-1.21-1.62-3.672-1.62h-2.3l0,2.967Zm0,5.882h1.778c3.3,0,4.506-.346,4.506-1.481,0-1.218-1.526-1.623-3.989-1.623h-2.3v3.1Z" transform="translate(0 -140.935)" fill="#7d7d7d"/>
    <path id="Path_164" data-name="Path 164" d="M246.15,87.912l12.3,28.137L233.071,98.668a9.183,9.183,0,0,1-1.548-14.626c4.992-4.216,12.046-2.752,14.626,3.87Z" transform="translate(-27.325 -31.146)" fill="#7d7d7d"/>
    <path id="Path_165" data-name="Path 165" d="M308.135,50.321l-4.474,31.49L290.928,51.871A9.036,9.036,0,0,1,298.5,39.4C303.235,38.876,309.168,42.491,308.135,50.321Z" transform="translate(-72.447 -0.178)" fill="#7d7d7d"/>
    <path id="Path_166" data-name="Path 166" d="M381.684,51.608,369.038,81.635l-4.045-27.1c-.346-4.128,2.237-4.214,3.184-4.989-.172-.6-1.462-.6-1.462-.6h-2.409c-.257-7.057,5.249-10.152,9.723-9.809a9.134,9.134,0,0,1,7.655,12.478Z" transform="translate(-126.636 0)" fill="#7d7d7d"/>
    <path id="Path_167" data-name="Path 167" d="M407.992,98.7,382.61,116.169l11.957-27.793c3.613-8.776,12.046-7.057,15.055-3.7C412.9,87.944,413.842,94.571,407.992,98.7Z" transform="translate(-140.037 -31.35)" fill="#7d7d7d"/>
    <path id="Path_168" data-name="Path 168" d="M407.138,171.283H377.8l23.832-16.608a8.933,8.933,0,0,1,13.679,4.731C417.033,165.089,413.16,171.283,407.138,171.283Z" transform="translate(-136.517 -83.368)" fill="#7d7d7d"/>
    <path id="Path_169" data-name="Path 169" d="M202.779,158.834c2.237-5.853,8.433-7.918,13.937-4.388l23.834,16.608H211.641c-6.022,0-10.753-5.509-8.862-12.22Z" transform="translate(-8.132 -83.137)" fill="#7d7d7d"/>
  </g>
</svg>
