<svg xmlns="http://www.w3.org/2000/svg" width="215.641" height="67.001" viewBox="0 0 215.641 67.001">
  <g id="BusinessInsider" transform="translate(-47.15 -66.64)">
    <path id="Path_170" data-name="Path 170" d="M63.866,133.638h5.017v-26.8H63.866Zm18.388-.4h4.494V116.327l18.911,17.311v-26.4h-4.48v16.62L82.254,106.84Zm33.659-6.49a13.8,13.8,0,0,0,8.527,3.007c3.066,0,5.216-1.056,5.216-3.386,0-2.03-1.373-2.825-3.771-3.716L122,121.3c-3.585-1.273-6.311-3.131-6.311-7.4,0-4.57,4.126-7.054,9.06-7.054a14.988,14.988,0,0,1,7.931,2.106v4.532a12.707,12.707,0,0,0-7.835-2.794c-2.708,0-4.735,1.012-4.735,3.121,0,1.906,1.27,2.667,3.51,3.434l4.332,1.521c4.2,1.476,6.125,3.764,6.125,7.529,0,4.735-4.167,7.35-9.631,7.35a15.681,15.681,0,0,1-8.527-2.274S115.913,126.746,115.913,126.746Zm29.864,6.892h5.013v-26.8h-5.013Zm28.539-4.053c5.653,0,8.674-3.627,8.674-9.349,0-5.767-3.025-9.38-8.674-9.38h-5.591v18.729ZM164.161,106.84h10.323c7.945,0,13.082,5.234,13.082,13.392s-5.137,13.406-13.082,13.406H164.161Zm48.482,0v4.012H200.507V117.3h10.884v3.967H200.5v8.313h12.139v4.057H195.927v-26.8Zm17.8,12.136h4.976c2.945,0,4.607-1.617,4.607-4.1s-1.659-4.1-4.607-4.1h-4.976v8.207Zm0,3.788v10.873h-4.428v-26.8H235.5c5.409,0,8.912,2.787,8.912,8.035,0,4.487-1.944,7.064-6.083,7.725l9.414,11.038h-5.037l-9.112-10.873ZM62.114,80.441c1.961-.719,3.489-2.873,3.489-5.836,0-4.938-3.489-7.494-9.074-7.494H47.15V94.67H57.4c5.585,0,9.074-2.739,9.074-7.9A6.652,6.652,0,0,0,62.114,80.441ZM51.554,78.69V71.151h4.934c3.1,0,4.755,1.122,4.755,3.723s-1.659,3.816-4.755,3.816Zm0,3.861h5.757c3.056,0,4.714,1.524,4.714,4.04,0,2.467-1.659,4.04-4.711,4.04H51.558l0-8.079ZM86.941,95.117c6.414,0,10.732-3.861,10.732-11.4V67.111H93.134V83.177c0,5.3-2.182,7.766-6.194,7.766s-6.194-2.471-6.194-7.766V67.111H76.208V83.672C76.208,91.256,80.571,95.117,86.941,95.117Zm21.413-2.426a14.958,14.958,0,0,0,8.506,2.426c5.454,0,9.6-2.784,9.6-7.811,0-3.995-1.917-6.417-6.108-7.99L116.03,77.7c-2.226-.805-3.489-1.614-3.489-3.634,0-2.243,2.006-3.32,4.711-3.32a12.218,12.218,0,0,1,7.811,2.963V68.9a14.156,14.156,0,0,0-7.9-2.243c-4.927,0-9.029,2.649-9.029,7.494,0,4.532,2.7,6.507,6.28,7.852l3.885,1.435c2.4.943,3.751,1.8,3.751,3.95,0,2.467-2.137,3.589-5.192,3.589a13.291,13.291,0,0,1-8.506-3.186C108.353,87.8,108.353,92.691,108.353,92.691Zm34.313-25.58h-4.535V94.666h4.535Zm12.945,27.52h4.37V76.7l18.4,18.354V67.067h-4.36V84.688L155.607,66.64S155.61,94.632,155.61,94.632Zm51.118-27.517V71.24H194.95v6.634h10.564v4.081H194.95V90.5h11.778v4.17H190.5V67.115Zm10.564,25.559A14.949,14.949,0,0,0,225.8,95.1c5.45,0,9.6-2.784,9.6-7.811,0-3.995-1.92-6.417-6.108-7.99l-4.318-1.614c-2.226-.809-3.489-1.617-3.489-3.637,0-2.243,2.006-3.32,4.711-3.32A12.218,12.218,0,0,1,234,73.69v-4.8a14.156,14.156,0,0,0-7.9-2.243c-4.927,0-9.029,2.649-9.029,7.494,0,4.532,2.7,6.507,6.28,7.852l3.885,1.435c2.4.943,3.751,1.8,3.751,3.95,0,2.467-2.137,3.589-5.192,3.589a13.272,13.272,0,0,1-8.506-3.186Zm27.4,0a14.958,14.958,0,0,0,8.506,2.426c5.454,0,9.6-2.784,9.6-7.811,0-3.995-1.92-6.417-6.108-7.99l-4.318-1.614c-2.223-.809-3.489-1.617-3.489-3.637,0-2.243,2.009-3.32,4.711-3.32A12.218,12.218,0,0,1,261.4,73.69v-4.8a14.153,14.153,0,0,0-7.893-2.243c-4.931,0-9.029,2.649-9.029,7.494,0,4.532,2.7,6.507,6.28,7.852l3.885,1.435c2.4.943,3.751,1.8,3.751,3.95,0,2.467-2.137,3.589-5.192,3.589a13.272,13.272,0,0,1-8.506-3.186S244.688,92.674,244.688,92.674Z" fill="#7d7d7d" fill-rule="evenodd"/>
  </g>
</svg>
