<svg xmlns="http://www.w3.org/2000/svg" width="168.751" height="31.641" viewBox="0 0 168.751 31.641">
  <g id="interchain" transform="translate(-0.625 -0.813)">
    <path id="Path_972" data-name="Path 972" d="M47.179,24.7H45.742V9.147h1.437Z" transform="translate(0 0)" fill="#c6c6c6"/>
    <path id="Path_973" data-name="Path 973" d="M63.091,9.147V24.7H61.726L53.249,11.751v12.92H51.813V9.147h1.365L61.654,22.2V9.147Z" transform="translate(0 0)" fill="#c6c6c6"/>
    <path id="Path_974" data-name="Path 974" d="M77.708,9.147v1.219H72.321V24.7H70.884V10.367H65.5V9.147Z" transform="translate(0 0)" fill="#c6c6c6"/>
    <path id="Path_975" data-name="Path 975" d="M90.137,9.147v1.219H81.588v5.669h7.794v1.219H81.588v6.229h8.549V24.7H80.188V9.147Z" transform="translate(0 0)" fill="#c6c6c6"/>
    <path id="Path_976" data-name="Path 976" d="M103.681,24.7l-3.772-6.658c-.359.033-.754.033-1.114.033H94.952v6.592H93.516V9.147H98.8c3.843,0,6.034,1.516,6.034,4.482a4.092,4.092,0,0,1-3.484,4.186l3.915,6.888ZM98.8,16.893c2.981,0,4.633-.923,4.633-3.23S101.777,10.4,98.8,10.4H94.952v6.526H98.8Z" transform="translate(0 0)" fill="#c6c6c6"/>
    <path id="Path_977" data-name="Path 977" d="M118.08,13.861a4.191,4.191,0,0,0-4.561-3.625c-2.91,0-4.6,1.516-4.6,5.768v1.846c0,4.252,1.724,5.768,4.6,5.768a4.238,4.238,0,0,0,4.561-3.658h1.365c-.538,3.494-3.053,4.878-5.926,4.878-3.7,0-6.035-1.944-6.035-6.987V16c0-5.01,2.335-6.987,6.035-6.987,3.017,0,5.423,1.45,5.962,4.845Z" transform="translate(0 0)" fill="#c6c6c6"/>
    <path id="Path_978" data-name="Path 978" d="M124.007,16.036h8.4V9.147h1.437V24.7h-1.437V17.255h-8.4V24.7H122.57V9.147h1.437Z" transform="translate(0 0)" fill="#c6c6c6"/>
    <path id="Path_979" data-name="Path 979" d="M136.328,24.7l5.783-15.557h1.329L149.223,24.7H147.75l-1.4-3.79h-7.111l-1.365,3.79Zm3.341-5.01h6.249l-3.124-8.437Z" transform="translate(0 0)" fill="#c6c6c6"/>
    <path id="Path_980" data-name="Path 980" d="M153.464,24.7h-1.437V9.147h1.437Z" transform="translate(0 0)" fill="#c6c6c6"/>
    <path id="Path_981" data-name="Path 981" d="M169.376,9.147V24.7h-1.365l-8.477-12.953v12.92H158.1V9.147h1.365L167.939,22.2V9.147Z" transform="translate(0 0)" fill="#c6c6c6"/>
    <path id="Path_982" data-name="Path 982" d="M8.8,32.415a8.159,8.159,0,0,1-5.77-13.934l.062-.062L13.9,7.613l1.762,1.762L4.8,20.244a5.682,5.682,0,1,0,8.028,8.04l1.042-1.042L15.633,29l-1.042,1.055A8.335,8.335,0,0,1,8.8,32.415Z" transform="translate(0 0)" fill="#c6c6c6"/>
    <path id="Path_983" data-name="Path 983" d="M23.685,15.827,12.816,4.958a5.681,5.681,0,0,0-8.04,8.028l1.042,1.042L4.056,15.79,3.014,14.747A8.168,8.168,0,0,1,14.565,3.2l.062.062L25.446,14.065Z" transform="translate(0 0)" fill="#c6c6c6"/>
    <path id="Path_984" data-name="Path 984" d="M19.008,25.654,17.246,23.9,28.115,13.035a5.677,5.677,0,0,0-8.028-8.028L19.045,6.05,17.283,4.288l1.042-1.042A8.168,8.168,0,0,1,29.877,14.8Z" transform="translate(0 0)" fill="#c6c6c6"/>
    <path id="Path_985" data-name="Path 985" d="M24.1,32.453a8.058,8.058,0,0,1-5.769-2.395L7.457,19.189l1.762-1.762L20.088,28.3a5.676,5.676,0,0,0,8.028-8.028l-1.042-1.042,1.762-1.762,1.042,1.042A8.169,8.169,0,0,1,24.1,32.453Z" transform="translate(0 0)" fill="#c6c6c6"/>
  </g>
</svg>
