<svg xmlns="http://www.w3.org/2000/svg" width="113.919" height="105" viewBox="0 0 113.919 105">
  <g id="Interoperability_120px" transform="translate(0 -6)">
    <g id="Interoperability" transform="translate(1 6)">
      <path id="Stroke-7" d="M66.87,21.878A32.878,32.878,0,0,0,48.848,3.694,35.637,35.637,0,0,0,34.811,1a35.089,35.089,0,0,0-14.04,2.742,34.66,34.66,0,0,0-11,7.414A33.235,33.235,0,0,0,2.56,22.066,34.485,34.485,0,0,0,0,35.294,34.487,34.487,0,0,0,2.56,48.517,32.87,32.87,0,0,0,20.584,66.7,35.63,35.63,0,0,0,34.62,69.395a35.1,35.1,0,0,0,14.038-2.74,34.672,34.672,0,0,0,11-7.415A33.176,33.176,0,0,0,66.87,48.328,34.483,34.483,0,0,0,69.431,35.1,34.49,34.49,0,0,0,66.87,21.878Z" transform="translate(0 0.036)" fill="none" stroke="#16becf" stroke-width="2" fill-rule="evenodd"/>
      <path id="Stroke-7-2" data-name="Stroke-7" d="M107.869,21.878A32.876,32.876,0,0,0,89.848,3.694,35.637,35.637,0,0,0,75.811,1a35.089,35.089,0,0,0-14.04,2.742,34.659,34.659,0,0,0-11,7.414A33.235,33.235,0,0,0,43.56,22.066,34.485,34.485,0,0,0,41,35.294a34.486,34.486,0,0,0,2.56,13.224A32.87,32.87,0,0,0,61.584,66.7,35.63,35.63,0,0,0,75.62,69.395a35.1,35.1,0,0,0,14.038-2.74,34.672,34.672,0,0,0,11-7.415,33.173,33.173,0,0,0,7.207-10.911A34.478,34.478,0,0,0,110.431,35.1,34.484,34.484,0,0,0,107.869,21.878Z" transform="translate(1.488 0.036)" fill="none" stroke="#16becf" stroke-width="2" fill-rule="evenodd"/>
      <path id="Stroke-7-3" data-name="Stroke-7" d="M85.87,52.878A32.878,32.878,0,0,0,67.848,34.694,35.636,35.636,0,0,0,53.811,32a35.09,35.09,0,0,0-14.04,2.742,34.66,34.66,0,0,0-11,7.414A33.234,33.234,0,0,0,21.56,53.066a35.447,35.447,0,0,0,0,26.451A32.87,32.87,0,0,0,39.584,97.7a35.63,35.63,0,0,0,14.036,2.692,35.1,35.1,0,0,0,14.038-2.74,34.672,34.672,0,0,0,11-7.415A33.176,33.176,0,0,0,85.87,79.328a35.426,35.426,0,0,0,0-26.451Z" transform="translate(0.689 1.161)" fill="none" stroke="#16becf" stroke-width="2" fill-rule="evenodd"/>
      <ellipse id="Oval-Copy-2" cx="4.5" cy="5" rx="4.5" ry="5" transform="translate(51 58)" fill="#16becf"/>
      <circle id="Oval-Copy-3" cx="4.5" cy="4.5" r="4.5" transform="translate(51)" fill="#16becf"/>
      <ellipse id="Oval-Copy-4" cx="5" cy="4.5" rx="5" ry="4.5" transform="translate(39 30)" fill="#16becf"/>
      <circle id="Oval-Copy-5" cx="4.5" cy="4.5" r="4.5" transform="translate(63 30)" fill="#16becf"/>
      <ellipse id="Oval-Copy-6" cx="4" cy="5" rx="4" ry="5" transform="translate(6 8)" fill="#16becf"/>
      <circle id="Oval-Copy-7" cx="5" cy="5" r="5" transform="translate(98 8)" fill="#16becf"/>
      <circle id="Oval-Copy-8" cx="4.5" cy="4.5" r="4.5" transform="translate(51 96)" fill="#16becf"/>
    </g>
  </g>
</svg>
