<svg xmlns="http://www.w3.org/2000/svg" width="168.75" height="38.836" viewBox="0 0 168.75 38.836">
  <path id="kusama" d="M24.972,12.044a4.143,4.143,0,0,0-5.836.532L10.777,22.6a4.143,4.143,0,0,0,0,5.307l8.359,10.02A4.143,4.143,0,1,0,25.5,32.624l-6.147-7.368L25.5,17.88a4.143,4.143,0,0,0-.529-5.836Zm-20.2-.96A4.143,4.143,0,0,0,.625,15.228V35.286a4.145,4.145,0,0,0,8.288,0V15.228a4.143,4.143,0,0,0-4.145-4.145Zm72.707,8.288a4.145,4.145,0,0,0,0-8.288H59.925a4.145,4.145,0,0,0-4.145,4.145v7.521a4.147,4.147,0,0,0,3.007,3.985L73.33,30.89v.25H59.925a4.145,4.145,0,1,0,0,8.288h17.55a4.143,4.143,0,0,0,4.143-4.143V27.764a4.143,4.143,0,0,0-3.007-3.985L64.068,19.623v-.252ZM49.9,11.083a4.143,4.143,0,0,0-4.143,4.145V31.14H36.49V15.228a4.145,4.145,0,1,0-8.288,0V35.286a4.143,4.143,0,0,0,4.145,4.143H49.9a4.143,4.143,0,0,0,4.145-4.143V15.228A4.143,4.143,0,0,0,49.9,11.083Zm48.312,1.491a4.141,4.141,0,0,0-3.183-1.491H87.5a4.143,4.143,0,0,0-4.143,4.145V35.286A4.143,4.143,0,0,0,87.5,39.43H97.877a4.145,4.145,0,0,0,0-8.288h-6.23V19.373h1.436l10.332,12.4v3.515a4.145,4.145,0,0,0,8.288,0V30.27a4.146,4.146,0,0,0-.964-2.654Zm70.209,15.042L155.881,12.575a4.14,4.14,0,0,0-3.183-1.491h-7.522a4.143,4.143,0,0,0-4.145,4.145V35.286a4.143,4.143,0,0,0,4.145,4.141h10.373a4.145,4.145,0,0,0,0-8.288h-6.23V19.371h1.436l10.332,12.4v3.515a4.145,4.145,0,0,0,8.288,0V30.27A4.144,4.144,0,0,0,168.416,27.616ZM136.879,11.463a4.143,4.143,0,0,0-4.427.618l-6.08,5.212-6.09-5.213a4.142,4.142,0,0,0-6.837,3.149V35.286a4.144,4.144,0,0,0,8.287,0V24.23l1.953,1.667a4.144,4.144,0,0,0,5.392,0l1.934-1.658V35.285a4.145,4.145,0,1,0,8.289,0V15.226a4.144,4.144,0,0,0-2.421-3.763ZM107.835,9.195v.156s5.7-2.254,6.809-1.672l-.669.2c.059,0,1.143.071,1.143.071a1.523,1.523,0,0,0,.687,1.108c.654.431.666.666.666.666s-.339.138-.339.314a3.632,3.632,0,0,1,.969-.14,3.583,3.583,0,0,1,.873.14s-.033-.178-.489-.314a2.77,2.77,0,0,1-1.119-.888,1.255,1.255,0,0,1-.177-1.225c.158-.4.71-.63,1.83-1.212,1.329-.687,1.633-1.2,1.819-1.6s.467-1.189.622-1.562a2.037,2.037,0,0,1,.639-.888,8.2,8.2,0,0,1,1.1-.49s-.685-.584-.909-.76a1.9,1.9,0,0,0-1.014-.5,2.081,2.081,0,0,0-1.285.465c-.326.211-.958.829-1.214,1.006s-.91.355-1.952.992-5.178,3.277-5.178,3.277l1.065.011-4.781,2.48h.478l-.689.533A1.542,1.542,0,0,0,107.835,9.195Z" transform="translate(-0.625 -0.594)" fill="#c6c6c6"/>
</svg>
