<svg xmlns="http://www.w3.org/2000/svg" xmlns:xlink="http://www.w3.org/1999/xlink" width="107" height="107" viewBox="0 0 107 107">
  <defs>
    <filter id="Ellipse_176" x="0" y="0" width="107" height="107" filterUnits="userSpaceOnUse">
      <feOffset dy="3" input="SourceAlpha"/>
      <feGaussianBlur stdDeviation="3" result="blur"/>
      <feFlood flood-opacity="0.071"/>
      <feComposite operator="in" in2="blur"/>
      <feComposite in="SourceGraphic"/>
    </filter>
  </defs>
  <g id="licensed" transform="translate(-3 -2.4)">
    <g id="Group_3859" data-name="Group 3859">
      <g transform="matrix(1, 0, 0, 1, 3, 2.4)" filter="url(#Ellipse_176)">
        <circle id="Ellipse_176-2" data-name="Ellipse 176" cx="44.5" cy="44.5" r="44.5" transform="translate(9 6)" fill="#e4fcfe"/>
      </g>
    </g>
    <g id="Group_6643" data-name="Group 6643" transform="translate(0.189 1.776)">
      <path id="Path_18008" data-name="Path 18008" d="M60.992,28.076H36.5a1.441,1.441,0,0,0-1.44,1.44V71.292H69.635V36.719Z" transform="translate(0 0)" fill="#fff"/>
      <path id="Path_18009" data-name="Path 18009" d="M60.992,28.076H36.5a1.441,1.441,0,0,0-1.44,1.44V71.292H69.635V36.719Z" transform="translate(0 0)" fill="#fff"/>
      <path id="Path_18010" data-name="Path 18010" d="M60.992,28.076H36.5a1.441,1.441,0,0,0-1.44,1.44V71.292H69.635V36.719Z" transform="translate(0 0)" fill="#fff"/>
      <path id="Path_18011" data-name="Path 18011" d="M60.662,54.986v5.042L65.7,65.07l-1.3-11.025A7.89,7.89,0,0,1,60.662,54.986Z" transform="translate(8.973 9.102)" fill="#22474a"/>
      <path id="Path_18012" data-name="Path 18012" d="M56.932,65.07l5.042-5.042V54.986a7.887,7.887,0,0,1-3.745-.941Z" transform="translate(7.665 9.102)" fill="#3c6e72"/>
      <path id="Path_18013" data-name="Path 18013" d="M62.72,58.856A7.923,7.923,0,1,0,54.8,50.933,7.923,7.923,0,0,0,62.72,58.856Z" transform="translate(6.917 5.234)" fill="#1ea2ad"/>
      <path id="Path_18014" data-name="Path 18014" d="M62.807,43.015c-.03,0-.058-.005-.087-.005a7.923,7.923,0,0,0,0,15.846c.03,0,.058,0,.087,0Z" transform="translate(6.917 5.234)" fill="#21bdca"/>
      <path id="Path_18015" data-name="Path 18015" d="M54.264,28.076v8.643h8.643Z" transform="translate(6.73 0)" fill="#b6aeff"/>
      <path id="Path_18016" data-name="Path 18016" d="M50.2,36.263a.72.72,0,0,1-.72.72H40.115a.72.72,0,0,1,0-1.44h9.363A.72.72,0,0,1,50.2,36.263Z" transform="translate(1.518 2.617)" fill="#b6aeff"/>
      <path id="Path_18017" data-name="Path 18017" d="M50.2,53.859a.72.72,0,0,1-.72.72H40.115a.72.72,0,1,1,0-1.44h9.363A.72.72,0,0,1,50.2,53.859Z" transform="translate(1.518 8.784)" fill="#b6aeff"/>
      <path id="Path_18018" data-name="Path 18018" d="M56.681,40.531a.72.72,0,0,1-.72.72H40.115a.72.72,0,0,1,0-1.44H55.96A.72.72,0,0,1,56.681,40.531Z" transform="translate(1.518 4.113)" fill="#b6aeff"/>
      <path id="Path_18019" data-name="Path 18019" d="M56.681,44.794a.72.72,0,0,1-.72.72H40.115a.72.72,0,0,1,0-1.44H55.96A.72.72,0,0,1,56.681,44.794Z" transform="translate(1.518 5.607)" fill="#b6aeff"/>
      <path id="Path_18020" data-name="Path 18020" d="M56.681,49.064a.72.72,0,0,1-.72.72H40.115a.72.72,0,1,1,0-1.44H55.96A.72.72,0,0,1,56.681,49.064Z" transform="translate(1.518 7.104)" fill="#b6aeff"/>
      <path id="Path_18021" data-name="Path 18021" d="M61.817,47.165c-1.114-1.742-4.456-1.12-4.456,1.991.069,2.83,4.456,4.976,4.456,4.976s4.386-2.146,4.456-4.976C66.272,46.045,62.931,45.424,61.817,47.165Z" transform="translate(7.816 6.356)" fill="#fff"/>
    </g>
  </g>
</svg>
