<svg xmlns="http://www.w3.org/2000/svg" width="119" height="119" viewBox="0 0 119 119">
  <g id="_3" data-name="3" transform="translate(-0.479 0.105)">
    <circle id="Ellipse_62" data-name="Ellipse 62" cx="59.5" cy="59.5" r="59.5" transform="translate(0.479 -0.105)" fill="rgba(22,190,207,0.67)"/>
    <g id="blocks" transform="translate(25.142 29.798)">
      <path id="Path_1048" data-name="Path 1048" d="M39.231-463.377c-4.609,1.931-8.443,3.58-8.528,3.665s-.169,3.369-.211,9.74l-.07,9.585-7.964,2.932c-4.384,1.607-8.077,3.016-8.2,3.157-.24.211-.254.888-.254,10.205,0,7.767.042,10.036.169,10.219.113.141,3.947,1.621,8.767,3.411l8.584,3.157,8.232-3.016c4.511-1.663,8.274-3.031,8.359-3.031s3.848,1.367,8.373,3.031l8.218,3.016,8.584-3.157c4.962-1.832,8.655-3.27,8.753-3.411.268-.352.268-20.044.014-20.382-.1-.127-3.792-1.55-8.218-3.186L65.8-440.387l-.07-1.973c-.085-2.227-.211-2.565-1.057-2.565-.818,0-.916.268-.916,2.481v1.973L57.1-438.033c-3.665,1.353-6.963,2.565-7.33,2.706l-.677.268v-17.267l1.24-.451c.677-.24,3.919-1.438,7.2-2.636s6.019-2.2,6.089-2.2a10.753,10.753,0,0,1,.127,2.326c0,2.2.014,2.326.31,2.608a.876.876,0,0,0,1.254.014c.338-.268.338-.31.381-3.327.042-3.045-.028-3.749-.437-3.919-.1-.042-3.9-1.635-8.471-3.538-5.187-2.171-8.471-3.468-8.739-3.453C47.815-466.887,43.84-465.308,39.231-463.377Zm15.124,1.029c3.425,1.424,6.554,2.734,6.935,2.9l.7.31-6.484,2.382c-3.566,1.311-6.709,2.453-6.977,2.537-.451.141-1-.042-7.4-2.382-6.146-2.269-6.864-2.565-6.554-2.692.522-.24,13.447-5.638,13.5-5.652C48.111-464.941,50.944-463.771,54.355-462.348ZM40.1-454.905l7.02,2.579v17.267l-.451-.183c-.254-.1-3.552-1.325-7.33-2.706l-6.879-2.523V-457.64l.31.085C32.958-457.513,36.257-456.315,40.1-454.905Zm-2.128,18.592c3.594,1.325,6.752,2.481,7.005,2.579.451.155.3.24-6.456,3.1-4.13,1.734-7.019,2.89-7.16,2.833-1.085-.381-13.687-5.779-13.6-5.821.056-.028,3.157-1.184,6.879-2.565s6.766-2.509,6.78-2.523S34.368-437.639,37.976-436.314Zm33.6.127c3.792,1.41,6.921,2.565,6.935,2.594s-3.059,1.353-6.864,2.96a69.433,69.433,0,0,1-7.16,2.847c-.789-.31-13.362-5.652-13.461-5.723a8.907,8.907,0,0,1,2.044-.888c3.341-1.24,11.6-4.3,11.6-4.313S67.788-437.582,71.58-436.187Zm-48.446,7.062c3.848,1.635,7.09,3,7.189,3.045.127.056.169,1.818.169,8.175,0,6.427-.042,8.091-.169,8.048-.1-.042-3.369-1.226-7.259-2.664l-7.09-2.594V-423.6c0-4.68.028-8.5.07-8.5S19.272-430.76,23.134-429.125Zm23.99,5.511v8.5l-7.09,2.594c-3.89,1.438-7.16,2.636-7.245,2.664-.141.042-.183-1.621-.183-8.048v-8.1l3.355-1.424c1.832-.775,5.06-2.143,7.146-3.03s3.848-1.621,3.919-1.635S47.124-428.279,47.124-423.614ZM56.6-429l6.949,2.946.042,8.133c.028,6.484,0,8.1-.141,8.063-.1-.042-3.369-1.24-7.259-2.664l-7.09-2.594v-8.5c0-8.415,0-8.5.282-8.415C49.534-431.986,52.776-430.619,56.6-429Zm23.652,5.4v8.485l-7.175,2.65c-3.947,1.452-7.2,2.636-7.259,2.636s-.085-3.637-.085-8.091V-426l7.16-3.045c3.933-1.677,7.189-3.045,7.259-3.045S80.248-428.279,80.248-423.6Z" transform="translate(-14 466.901)" fill="#fff"/>
      <path id="Path_1049" data-name="Path 1049" d="M367.118-349.718a3.076,3.076,0,0,0,.042,2.565.957.957,0,0,0,1.353-.014c.211-.226.268-.507.268-1.255s-.056-1.029-.268-1.254A1.039,1.039,0,0,0,367.118-349.718Z" transform="translate(-317.121 366.449)" fill="#fff"/>
    </g>
  </g>
</svg>
