<svg xmlns="http://www.w3.org/2000/svg" width="33.924" height="10.285" viewBox="0 0 33.924 10.285">
  <g id="loog-dark" transform="translate(0 -10.448)">
    <g id="Layer_1" data-name="Layer 1" transform="translate(0 10.448)">
      <path id="Path_1" data-name="Path 1" d="M.591,40.284H0V37.515A.985.985,0,0,1,1.115,36.4h.459v.591H1.115a.463.463,0,0,0-.524.524Z" transform="translate(0 -33.358)" fill="#1a1b1d"/>
      <path id="Path_2" data-name="Path 2" d="M17.169,36.4a.989.989,0,0,1,1.122,1.115v1.661a.985.985,0,0,1-1.122,1.108H15.85a.989.989,0,0,1-1.117-1.122V37.515A.986.986,0,0,1,15.85,36.4Zm-1.319.591a.463.463,0,0,0-.524.524v1.646a.467.467,0,0,0,.524.531h1.319a.464.464,0,0,0,.531-.517V37.515a.466.466,0,0,0-.531-.524Z" transform="translate(-12.624 -33.358)" fill="#1a1b1d"/>
      <path id="Path_3" data-name="Path 3" d="M46.967,29.256a.467.467,0,0,0,.524.531H48.81a.471.471,0,0,0,.531-.531V27.61a.466.466,0,0,0-.531-.524h-1.5v-.591h1.5a.988.988,0,0,1,1.122,1.115v1.646a.991.991,0,0,1-1.122,1.122H47.492a.99.99,0,0,1-1.117-1.122V24.84h.593Z" transform="translate(-39.736 -23.453)" fill="#1a1b1d"/>
      <path id="Path_4" data-name="Path 4" d="M80.442,36.4a.989.989,0,0,1,1.122,1.115v1.661a.985.985,0,0,1-1.122,1.108H79.127a.99.99,0,0,1-1.117-1.122V37.515A.986.986,0,0,1,79.127,36.4Zm-1.319.591a.463.463,0,0,0-.524.524v1.646a.467.467,0,0,0,.524.531h1.319a.464.464,0,0,0,.531-.517V37.515a.466.466,0,0,0-.531-.524Z" transform="translate(-66.843 -33.358)" fill="#1a1b1d"/>
      <path id="Path_5" data-name="Path 5" d="M107,26.495h.311V24.84h.593v1.655h.69v.591h-.69v3.292h-.593V27.086H107Z" transform="translate(-91.683 -23.453)" fill="#1a1b1d"/>
      <path id="Path_6" data-name="Path 6" d="M123.117,36.4a.99.99,0,0,1,1.124,1.115v1.661a.986.986,0,0,1-1.124,1.108H121.8a.99.99,0,0,1-1.115-1.122V37.515A.985.985,0,0,1,121.8,36.4Zm-1.319.591a.463.463,0,0,0-.524.524v1.646a.467.467,0,0,0,.524.531h1.319a.463.463,0,0,0,.531-.517V37.515a.466.466,0,0,0-.531-.524Z" transform="translate(-103.407 -33.358)" fill="#1a1b1d"/>
      <path id="Path_7" data-name="Path 7" d="M157.54,32.826v-.537h1.9a.425.425,0,0,0,.481-.481v-.9a.5.5,0,0,0-.113-.348.43.43,0,0,0-.341-.127H157.54v-.528h1.945a.426.426,0,0,0,.439-.488v-.592a.422.422,0,0,0-.481-.474h-1.9V27.81h1.9a.9.9,0,0,1,1.016,1.016v.586a1.061,1.061,0,0,1-.253.749,1.054,1.054,0,0,1,.253.743v.9a.9.9,0,0,1-1.016,1.018Z" transform="translate(-134.988 -25.998)" fill="#16becf"/>
      <path id="Path_8" data-name="Path 8" d="M186.308,32.287a.419.419,0,0,0,.481-.467v-.913a.423.423,0,0,0-.481-.475H184.94V29.9H186.3a.893.893,0,0,1,1.016,1v.913a.892.892,0,0,1-1.016,1h-1.2A.9.9,0,0,1,184.1,31.8v-2.98a.9.9,0,0,1,1.009-1.016h1.911v.543H185.11a.42.42,0,0,0-.474.474v2.982a.422.422,0,0,0,.474.481Z" transform="translate(-157.742 -25.995)" fill="#16becf"/>
      <path id="Path_9" data-name="Path 9" d="M212.46,28.823a.893.893,0,0,1,1-1.016h1.492a.9.9,0,0,1,1.016,1.016v3a.892.892,0,0,1-1.016,1h-1.485a.893.893,0,0,1-1-1.018Zm2.5,3.463a.419.419,0,0,0,.481-.467v-3a.422.422,0,0,0-.481-.474h-1.492a.419.419,0,0,0-.474.474v2.982a.422.422,0,0,0,.474.481Z" transform="translate(-182.046 -25.995)" fill="#16becf"/>
      <path id="Path_10" data-name="Path 10" d="M79.28,77.018V75.35h.43v1.168h8.338V75.35h.43v1.668Z" transform="translate(-67.931 -66.732)" fill="#1a1b1d"/>
      <path id="Path_11" data-name="Path 11" d="M88.43,15.15v1.661H88V15.642H79.67v1.168h-.43V15.15Z" transform="translate(-67.897 -15.15)" fill="#1a1b1d"/>
      <rect id="Rectangle_1" data-name="Rectangle 1" width="0.752" height="0.752" transform="translate(12.477 4.22)" fill="#16becf"/>
      <rect id="Rectangle_2" data-name="Rectangle 2" width="0.752" height="0.752" transform="translate(18.776 4.22)" fill="#16becf"/>
      <rect id="Rectangle_3" data-name="Rectangle 3" width="1.575" height="0.43" transform="translate(14.046 8.014)" fill="#fff"/>
      <rect id="Rectangle_4" data-name="Rectangle 4" width="1.575" height="0.43" transform="translate(16.205 8.014)" fill="#fff"/>
      <path id="Path_12" data-name="Path 12" d="M108.455,69.273a.573.573,0,1,1-.573-.573A.573.573,0,0,1,108.455,69.273Z" transform="translate(-91.949 -61.034)" fill="#1a1b1d"/>
    </g>
  </g>
</svg>
