<svg xmlns="http://www.w3.org/2000/svg" xmlns:xlink="http://www.w3.org/1999/xlink" width="198" height="183" viewBox="0 0 198 183">
  <defs>
    <filter id="Rectangle_8377" x="0" y="0" width="198" height="183" filterUnits="userSpaceOnUse">
      <feOffset dy="3" input="SourceAlpha"/>
      <feGaussianBlur stdDeviation="13" result="blur"/>
      <feFlood flood-opacity="0.078"/>
      <feComposite operator="in" in2="blur"/>
      <feComposite in="SourceGraphic"/>
    </filter>
    <filter id="Rectangle_8377-2" x="40.617" y="21.813" width="130.576" height="139.72" filterUnits="userSpaceOnUse">
      <feOffset dy="3" input="SourceAlpha"/>
      <feGaussianBlur stdDeviation="13" result="blur-2"/>
      <feFlood flood-opacity="0.078"/>
      <feComposite operator="in" in2="blur-2"/>
      <feComposite in="SourceGraphic"/>
    </filter>
  </defs>
  <g id="Group_5809" data-name="Group 5809" transform="translate(39.492 36)">
    <g transform="matrix(1, 0, 0, 1, -39.49, -36)" filter="url(#Rectangle_8377)">
      <rect id="Rectangle_8377-3" data-name="Rectangle 8377" width="120" height="105" rx="20" transform="translate(39 36)" fill="#fff"/>
    </g>
    <g id="Group_5809-2" data-name="Group 5809" transform="translate(27.009 21.813)">
      <g transform="matrix(1, 0, 0, 1, -66.5, -57.81)" filter="url(#Rectangle_8377-2)">
        <rect id="Rectangle_8377-4" data-name="Rectangle 8377" width="52.576" height="61.72" rx="15" transform="translate(79.62 57.81)" fill="#e7fbff"/>
      </g>
      <g id="web-programming-_1_" transform="translate(0 7.94)">
        <path id="Path_20990" data-name="Path 20990" d="M4.59-481.782a5.948,5.948,0,0,0-4.478,4.57c-.082.418-.112,6.2-.112,18.36,0,14.841.031,17.871.143,18.432a5.825,5.825,0,0,0,3.142,3.958,7.339,7.339,0,0,0,1.448.51c.857.153,41.9.153,42.759,0a5.933,5.933,0,0,0,4.59-4.468c.112-.561.143-3.59.143-18.432,0-12.159-.031-17.942-.112-18.36a6.019,6.019,0,0,0-3.06-4.06c-1.459-.714.061-.673-22.991-.663C8.619-481.935,5.141-481.9,4.59-481.782Zm42.535,1.673a4.117,4.117,0,0,1,2.989,2.326l.326.683.031,3.641.031,3.652H1.724l.031-3.652.031-3.641.326-.683A4.161,4.161,0,0,1,5.019-480.1C5.661-480.232,46.462-480.232,47.125-480.11Zm3.366,25.48c0,14.841.031,14.086-.643,15.147a4.016,4.016,0,0,1-1.805,1.54l-.663.316H4.845l-.663-.316a4.016,4.016,0,0,1-1.805-1.54c-.673-1.061-.643-.306-.643-15.147v-13.444H50.491Z" transform="translate(0 481.939)"/>
        <path id="Path_20991" data-name="Path 20991" d="M38-440.4a2.706,2.706,0,0,0-1.907,3.815,2.694,2.694,0,0,0,4.376.714,3.176,3.176,0,0,0,.785-1.887,2.847,2.847,0,0,0-.877-1.938A2.568,2.568,0,0,0,38-440.4Zm1.244,2.04a.864.864,0,0,1,.163,1.051,1.132,1.132,0,0,1-1.1.52.973.973,0,0,1-.224-1.805A.877.877,0,0,1,39.244-438.356Z" transform="translate(-32.175 444.684)"/>
        <path id="Path_20992" data-name="Path 20992" d="M119.632-439.786A2.7,2.7,0,0,0,118-437.3a2.687,2.687,0,0,0,4.6,1.887,2.682,2.682,0,0,0-1.9-4.59A2.672,2.672,0,0,0,119.632-439.786Zm1.775,1.836a.918.918,0,0,1-.031,1.326.871.871,0,0,1-.673.3A1,1,0,0,1,120-438,.954.954,0,0,1,121.407-437.95Z" transform="translate(-105.964 444.278)"/>
        <path id="Path_20993" data-name="Path 20993" d="M201.857-439.741a2.95,2.95,0,0,0-.928.632,2.687,2.687,0,0,0,1.887,4.6,2.682,2.682,0,0,0,2.7-2.7A2.714,2.714,0,0,0,201.857-439.741Zm1.632,1.856a.953.953,0,0,1,.031,1.377,1,1,0,0,1-1.673-.7.989.989,0,0,1,.969-.969A.872.872,0,0,1,203.489-437.885Z" transform="translate(-179.712 444.193)"/>
        <path id="Path_20994" data-name="Path 20994" d="M232.614-296.682c-.245.224-.377.775-2.05,8.721-1.622,7.7-1.775,8.517-1.652,8.772a.807.807,0,0,0,1.418.122c.122-.153.785-3.142,1.918-8.517.959-4.549,1.744-8.344,1.744-8.436a.942.942,0,0,0-.479-.775A.737.737,0,0,0,232.614-296.682Z" transform="translate(-205.533 315.771)"/>
        <path id="Path_20995" data-name="Path 20995" d="M144.91-262.745c-.561.4-5.722,4.855-5.814,5.029a.812.812,0,0,0,.235,1.04c.551.551,5.478,4.713,5.753,4.855a.923.923,0,0,0,1.051-.286.988.988,0,0,0-.173-1.112c-.163-.163-1.275-1.132-2.479-2.152s-2.2-1.9-2.224-1.938,1.01-.959,2.275-2.03,2.4-2.06,2.5-2.183a.838.838,0,0,0-.051-1.142A.809.809,0,0,0,144.91-262.745Z" transform="translate(-124.815 285.251)"/>
        <path id="Path_20996" data-name="Path 20996" d="M302.267-262.663a.838.838,0,0,0-.051,1.142c.1.122,1.234,1.1,2.5,2.183s2.285,1.989,2.275,2.03-1.02.908-2.224,1.938-2.315,1.989-2.468,2.152a.975.975,0,0,0-.184,1.112.923.923,0,0,0,1.051.286c.275-.143,5.2-4.3,5.753-4.855a.812.812,0,0,0,.235-1.04c-.092-.173-5.253-4.631-5.814-5.029A.809.809,0,0,0,302.267-262.663Z" transform="translate(-271.207 285.251)"/>
      </g>
    </g>
  </g>
</svg>
