<svg xmlns="http://www.w3.org/2000/svg" xmlns:xlink="http://www.w3.org/1999/xlink" width="197" height="183" viewBox="0 0 197 183">
  <defs>
    <filter id="Rectangle_8377" x="0" y="0" width="197" height="183" filterUnits="userSpaceOnUse">
      <feOffset dy="3" input="SourceAlpha"/>
      <feGaussianBlur stdDeviation="13" result="blur"/>
      <feFlood flood-opacity="0.078"/>
      <feComposite operator="in" in2="blur"/>
      <feComposite in="SourceGraphic"/>
    </filter>
    <filter id="Rectangle_8377-2" x="39.898" y="20.775" width="130.576" height="139.72" filterUnits="userSpaceOnUse">
      <feOffset dy="3" input="SourceAlpha"/>
      <feGaussianBlur stdDeviation="13" result="blur-2"/>
      <feFlood flood-opacity="0.078"/>
      <feComposite operator="in" in2="blur-2"/>
      <feComposite in="SourceGraphic"/>
    </filter>
  </defs>
  <g id="Group_5809" data-name="Group 5809" transform="translate(38.773 36)">
    <g transform="matrix(1, 0, 0, 1, -38.77, -36)" filter="url(#Rectangle_8377)">
      <rect id="Rectangle_8377-3" data-name="Rectangle 8377" width="119" height="105" rx="20" transform="translate(39 36)" fill="#fff"/>
    </g>
    <g id="Group_5809-2" data-name="Group 5809" transform="translate(15.005 20.775)">
      <g transform="matrix(1, 0, 0, 1, -53.78, -56.77)" filter="url(#Rectangle_8377-2)">
        <rect id="Rectangle_8377-4" data-name="Rectangle 8377" width="52.576" height="61.72" rx="15" transform="translate(78.9 56.77)" fill="#def3ef"/>
      </g>
      <g id="internet-of-things-_2_" transform="translate(0 7.271)">
        <path id="Path_21013" data-name="Path 21013" d="M138.66-495.733a3.93,3.93,0,0,0-2.428,2.466,3.742,3.742,0,0,0,2.075,4.608,2.994,2.994,0,0,0,1.438.324l.809.019.2.5c.114.276.238.5.276.5a3.837,3.837,0,0,0,1.295-.571,2.668,2.668,0,0,0-.19-.562l-.19-.447.476-.419a4.837,4.837,0,0,0,1.142-1.9c0-.114.666-.133,3.9-.133s3.9.019,3.9.133a4.746,4.746,0,0,0,1.142,1.894l.476.428-.381.914-.371.923.209.076c.114.048.438.171.714.286.466.19.5.19.562.029.038-.086.2-.5.362-.9l.3-.743.809-.019a3.131,3.131,0,0,0,1.4-.3l.609-.267,3.046,3.056L163.3-482.8l-.267.609a3.131,3.131,0,0,0-.3,1.4l-.019.809-2.647,1.057c-1.457.581-2.723,1.085-2.808,1.123-.162.057-.162.1.029.562.114.276.238.6.286.714.076.2.143.181,2.9-.923l2.827-1.133.419.466a4.746,4.746,0,0,0,1.894,1.142c.114,0,.133.666.133,3.9s-.019,3.9-.133,3.9a4.746,4.746,0,0,0-1.894,1.142l-.419.466-1.076-.428a3.66,3.66,0,0,0-1.152-.352,7.938,7.938,0,0,0-.533,1.314c.01.01.5.209,1.095.447l1.076.419.019.809a3.131,3.131,0,0,0,.3,1.4l.267.6-.752.762-.752.752.552.543.562.533.743-.743.752-.743.6.276a2.8,2.8,0,0,0,1.514.276,2.619,2.619,0,0,0,1.628-.352,3.659,3.659,0,0,0,1.818-1.866,2.64,2.64,0,0,0,.3-1.542,2.64,2.64,0,0,0-.3-1.542,3.66,3.66,0,0,0-1.771-1.837,4.3,4.3,0,0,0-.79-.333c-.114,0-.133-.666-.133-3.9s.019-3.9.133-3.9a4.3,4.3,0,0,0,.79-.333,3.66,3.66,0,0,0,1.771-1.837,2.64,2.64,0,0,0,.3-1.542,2.64,2.64,0,0,0-.3-1.542,3.659,3.659,0,0,0-1.818-1.866,2.618,2.618,0,0,0-1.628-.352,2.8,2.8,0,0,0-1.514.276l-.609.276-3.046-3.056L158.29-490l.276-.609a2.8,2.8,0,0,0,.276-1.514,2.618,2.618,0,0,0-.352-1.628,3.659,3.659,0,0,0-1.866-1.818,2.64,2.64,0,0,0-1.542-.3,2.64,2.64,0,0,0-1.542.3A3.66,3.66,0,0,0,151.7-493.8a4.3,4.3,0,0,0-.333.79c0,.114-.666.133-3.9.133-3.056,0-3.9-.029-3.9-.124a5.019,5.019,0,0,0-.9-1.666A3.82,3.82,0,0,0,138.66-495.733Zm1.894,1.447a2.828,2.828,0,0,1,1.466,1.466,2.085,2.085,0,0,1-.6,2.275,2.083,2.083,0,0,1-1.571.714,2.4,2.4,0,0,1-2.285-2.285,2.083,2.083,0,0,1,.714-1.571A2.1,2.1,0,0,1,140.554-494.286Zm15.232,0a2.522,2.522,0,0,1,1.58,2.171,2.4,2.4,0,0,1-2.285,2.285,2.083,2.083,0,0,1-1.571-.714,2.058,2.058,0,0,1,0-3.142A2.1,2.1,0,0,1,155.786-494.286Zm11.424,11.424a2.522,2.522,0,0,1,1.58,2.171,2.4,2.4,0,0,1-2.285,2.285,2.083,2.083,0,0,1-1.571-.714,2.058,2.058,0,0,1,0-3.142A2.1,2.1,0,0,1,167.21-482.862Zm0,15.232a2.522,2.522,0,0,1,1.58,2.171,2.4,2.4,0,0,1-2.285,2.285,2.4,2.4,0,0,1-2.285-2.285,2.083,2.083,0,0,1,.714-1.571A2.1,2.1,0,0,1,167.21-467.63Z" transform="translate(-124.665 495.915)"/>
        <path id="Path_21014" data-name="Path 21014" d="M24.716-416.649l-2.342,2.342-.609-.276a2.8,2.8,0,0,0-1.514-.276,2.618,2.618,0,0,0-1.628.352,3.659,3.659,0,0,0-1.818,1.866,2.64,2.64,0,0,0-.3,1.542,2.64,2.64,0,0,0,.3,1.542,3.66,3.66,0,0,0,1.771,1.837,4.3,4.3,0,0,0,.79.333c.114,0,.133.666.133,3.9s-.019,3.9-.133,3.9a4.3,4.3,0,0,0-.79.333,3.661,3.661,0,0,0-1.771,1.837,2.656,2.656,0,0,0-.3,1.552,2.619,2.619,0,0,0,.352,1.628,3.659,3.659,0,0,0,1.866,1.818,2.64,2.64,0,0,0,1.542.3,2.784,2.784,0,0,0,1.5-.276l.609-.276L25.42-389.6l3.056,3.046-.276.609a2.8,2.8,0,0,0-.276,1.514,2.559,2.559,0,0,0,.362,1.628,3.661,3.661,0,0,0,1.875,1.828,2.618,2.618,0,0,0,1.523.3,2.64,2.64,0,0,0,1.542-.3,3.661,3.661,0,0,0,1.837-1.771,4.3,4.3,0,0,0,.333-.79c0-.114.666-.133,3.9-.133s3.9.019,3.9.133a4.3,4.3,0,0,0,.333.79,3.661,3.661,0,0,0,1.837,1.771,2.64,2.64,0,0,0,1.542.3,2.64,2.64,0,0,0,1.542-.3,3.659,3.659,0,0,0,1.866-1.818,2.618,2.618,0,0,0,.352-1.628,2.8,2.8,0,0,0-.276-1.514l-.276-.6,1.656-1.666,1.656-1.656-.552-.543-.543-.552-1.656,1.656-1.666,1.656-.6-.276a2.785,2.785,0,0,0-1.5-.276,2.64,2.64,0,0,0-1.542.3,3.661,3.661,0,0,0-1.837,1.771,4.305,4.305,0,0,0-.333.79c0,.114-.666.133-3.9.133s-3.9-.019-3.9-.133a4.837,4.837,0,0,0-1.142-1.9l-.476-.419.19-.447a2.668,2.668,0,0,0,.19-.562,3.578,3.578,0,0,0-1.3-.562,1.62,1.62,0,0,0-.276.5l-.19.5-.809.019a3.131,3.131,0,0,0-1.4.3l-.609.267-3.046-3.056-3.056-3.046.267-.609a3.131,3.131,0,0,0,.3-1.4l.019-.809,2.647-1.057c1.457-.581,2.723-1.085,2.808-1.123.162-.057.162-.1-.029-.562-.114-.276-.238-.6-.286-.714-.076-.2-.143-.181-2.9.923l-2.827,1.133-.419-.466a4.747,4.747,0,0,0-1.894-1.142c-.114,0-.133-.666-.133-3.9s.019-3.9.133-3.9a4.746,4.746,0,0,0,1.894-1.142l.419-.466,2.827,1.133c2.761,1.1,2.827,1.123,2.9.923.048-.114.171-.438.286-.714.19-.466.19-.5.029-.562-.086-.038-1.352-.543-2.808-1.123l-2.647-1.057-.019-.809a3.131,3.131,0,0,0-.3-1.4l-.267-.6,2.342-2.351,2.351-2.351-.524-.552A6.238,6.238,0,0,0,27.1-419C27.077-419,26.01-417.943,24.716-416.649Zm-3.751,3.38a2.522,2.522,0,0,1,1.58,2.171,2.4,2.4,0,0,1-2.285,2.285,2.083,2.083,0,0,1-1.571-.714,2.058,2.058,0,0,1,0-3.142A2.1,2.1,0,0,1,20.965-413.269Zm0,15.232a2.827,2.827,0,0,1,1.466,1.466,2.085,2.085,0,0,1-.6,2.275,2.058,2.058,0,0,1-3.142,0,2.058,2.058,0,0,1,0-3.142A2.1,2.1,0,0,1,20.965-398.037Zm11.424,11.424a2.522,2.522,0,0,1,1.58,2.171,2.4,2.4,0,0,1-2.285,2.285,2.4,2.4,0,0,1-2.285-2.285,2.083,2.083,0,0,1,.714-1.571A2.1,2.1,0,0,1,32.389-386.613Zm15.232,0a2.522,2.522,0,0,1,1.58,2.171,2.4,2.4,0,0,1-2.285,2.285,2.4,2.4,0,0,1-2.285-2.285,2.083,2.083,0,0,1,.714-1.571A2.1,2.1,0,0,1,47.621-386.613Z" transform="translate(-16.5 426.322)"/>
        <path id="Path_21015" data-name="Path 21015" d="M170.142-391.66a3.966,3.966,0,0,0-1.523.895,4.944,4.944,0,0,0-.486.771,3.167,3.167,0,0,0-.3,1.647l-.038,1.171h1.523l.038-1.038c.029-1.123.114-1.342.685-1.761.219-.171.428-.2,1.438-.228l1.18-.038.333.676a2.8,2.8,0,0,0,.524.771,18.639,18.639,0,0,0,2.675.1,18.64,18.64,0,0,0,2.675-.1,2.682,2.682,0,0,0,.514-.762l.333-.666h1.047c1.228,0,1.571.1,1.961.628l.276.352.029,6.95.019,6.95-.838-.809c-.885-.847-1.4-1.123-2.113-1.123a2.486,2.486,0,0,0-2.38,2.38c0,.809.248,1.209,1.571,2.57l1.247,1.285-.229.619a5.9,5.9,0,0,0,.219,4.274,2.4,2.4,0,0,1,.238.781v.276h1.523v-.466a2.739,2.739,0,0,0-.352-1.209,2.867,2.867,0,0,1-.362-1.809,2.65,2.65,0,0,1,.362-1.761,3.742,3.742,0,0,0,.352-.933c0-.171-.409-.638-1.523-1.771-1.333-1.352-1.523-1.58-1.523-1.847a.947.947,0,0,1,.866-.866c.286,0,.533.219,2.466,2.142,1.18,1.18,2.19,2.142,2.237,2.142a4.027,4.027,0,0,0,1-1.009,3.736,3.736,0,0,0-.619-.7l-.619-.609v-5.436l.857.857a6.253,6.253,0,0,1,1.123,1.38l.257.524.029,4.551.029,4.541h1.514v-4.379c0-2.808-.038-4.551-.1-4.874-.228-1.085-.6-1.637-2.2-3.265l-1.495-1.533-.029-4.036-.029-4.046-.257-.486a2.771,2.771,0,0,0-1.333-1.38l-.6-.324-5.95-.019C173.112-391.727,170.3-391.7,170.142-391.66Z" transform="translate(-153.396 401.639)"/>
        <path id="Path_21016" data-name="Path 21016" d="M168.019-318.842l.029,9.168.257.486a2.771,2.771,0,0,0,1.333,1.38l.6.324,4.6.029,4.589.029v-1.523l-4.455-.029-4.465-.029-.352-.276c-.666-.5-.628.038-.628-9.815V-328H168Z" transform="translate(-153.577 343.986)"/>
        <path id="Path_21017" data-name="Path 21017" d="M207.046-311.886a7.926,7.926,0,0,0-3.494,1.5,3.047,3.047,0,0,0-.552.514,3.243,3.243,0,0,0,.514.571l.524.514.409-.352a6.136,6.136,0,0,1,3.6-1.295,6.136,6.136,0,0,1,3.6,1.295l.419.352.533-.543.543-.543-.381-.333A7.488,7.488,0,0,0,207.046-311.886Z" transform="translate(-185.245 329.462)"/>
        <path id="Path_21018" data-name="Path 21018" d="M228.761-281.491c-.257.076-.5.133-.533.143A6.215,6.215,0,0,0,227-280.5a5.549,5.549,0,0,0,1,1.057,1.17,1.17,0,0,0,.333-.19,2.868,2.868,0,0,1,1.428-.476,2.868,2.868,0,0,1,1.428.476,1.17,1.17,0,0,0,.333.19,6.136,6.136,0,0,0,1-1.047,4.6,4.6,0,0,0-1.428-.914A4.855,4.855,0,0,0,228.761-281.491Z" transform="translate(-206.96 301.999)"/>
        <path id="Path_21019" data-name="Path 21019" d="M216-231.238v.762h1.523V-232H216Z" transform="translate(-197.008 257.125)"/>
        <path id="Path_21020" data-name="Path 21020" d="M248-231.238v.762h1.523V-232H248Z" transform="translate(-225.961 257.125)"/>
        <path id="Path_21021" data-name="Path 21021" d="M240-159.238v.762h3.046V-160H240Z" transform="translate(-218.723 191.979)"/>
      </g>
    </g>
  </g>
</svg>
