<svg xmlns="http://www.w3.org/2000/svg" xmlns:xlink="http://www.w3.org/1999/xlink" width="197" height="183" viewBox="0 0 197 183">
  <defs>
    <filter id="Rectangle_8377" x="0" y="0" width="197" height="183" filterUnits="userSpaceOnUse">
      <feOffset dy="3" input="SourceAlpha"/>
      <feGaussianBlur stdDeviation="13" result="blur"/>
      <feFlood flood-opacity="0.078"/>
      <feComposite operator="in" in2="blur"/>
      <feComposite in="SourceGraphic"/>
    </filter>
    <filter id="Rectangle_8377-2" x="39.908" y="21.813" width="130.576" height="139.72" filterUnits="userSpaceOnUse">
      <feOffset dy="3" input="SourceAlpha"/>
      <feGaussianBlur stdDeviation="13" result="blur-2"/>
      <feFlood flood-opacity="0.078"/>
      <feComposite operator="in" in2="blur-2"/>
      <feComposite in="SourceGraphic"/>
    </filter>
  </defs>
  <g id="Group_5809" data-name="Group 5809" transform="translate(38.783 36)">
    <g transform="matrix(1, 0, 0, 1, -38.78, -36)" filter="url(#Rectangle_8377)">
      <rect id="Rectangle_8377-3" data-name="Rectangle 8377" width="119" height="105" rx="20" transform="translate(39 36)" fill="#fff"/>
    </g>
    <g id="Group_5809-2" data-name="Group 5809" transform="translate(20.775 21.813)">
      <g transform="matrix(1, 0, 0, 1, -59.56, -57.81)" filter="url(#Rectangle_8377-2)">
        <rect id="Rectangle_8377-4" data-name="Rectangle 8377" width="52.576" height="61.72" rx="15" transform="translate(78.91 57.81)" fill="#ede8e1"/>
      </g>
      <g id="wallet-_4_" transform="translate(0 8.31)">
        <path id="Path_21002" data-name="Path 21002" d="M20.965-511.514c-1.615.55-15.248,5.551-15.562,5.708a3.049,3.049,0,0,0-1.545,3.116,10.984,10.984,0,0,0,.393,1.309c.166.445.305.847.305.881a1.575,1.575,0,0,1-.576.175,5.117,5.117,0,0,0-3.1,2.1A7.425,7.425,0,0,0,.376-497.2l-.227.585L.123-484c-.017,12.341-.017,12.62.157,13.293a4.5,4.5,0,0,0,1.3,2.243A4.61,4.61,0,0,0,3.919-467.2c.89.192,33.55.192,34.44,0a5.034,5.034,0,0,0,3.186-2.322c.567-.995.628-1.492.628-4.853v-2.994h.2a2.969,2.969,0,0,0,1.5-.829,3.518,3.518,0,0,0,.637-.9l.236-.5v-8.466l-.227-.48a3.046,3.046,0,0,0-1.938-1.7l-.367-.1-.044-3.133c-.052-3.1-.052-3.142-.271-3.718a4.95,4.95,0,0,0-3.718-3.142l-.628-.1-.026-1.972-.026-1.973-.288-.576a3.258,3.258,0,0,0-1.484-1.484l-.41-.2L30.7-506.7l-4.626-.044-.576-1.6c-.69-1.894-.794-2.112-1.283-2.566a3.165,3.165,0,0,0-1.911-.82A2.758,2.758,0,0,0,20.965-511.514Zm1.37,2.444c.122.079.271.41.672,1.536l.288.812-.716.052a2.439,2.439,0,0,0-1.257.323,3.1,3.1,0,0,0-1.4,1.475c-.218.48-.227.541-.253,2.47l-.026,1.99H7.393l-.506-1.37c-.445-1.213-.489-1.388-.375-1.545.087-.14,2.13-.916,7.785-2.985,4.216-1.545,7.733-2.81,7.8-2.819A.556.556,0,0,1,22.335-509.07Zm12.455,5.132c.113.113.14.4.14,1.833v1.693H22.274v-1.693c0-1.431.026-1.719.14-1.833s.8-.14,6.188-.14S34.668-504.06,34.79-503.938Zm3.308,6.267a2.279,2.279,0,0,1,1.17.995l.244.41.026,2.941.026,2.941-3.037.026-3.037.026-.7.244a6.661,6.661,0,0,0-4.373,4.6,8.8,8.8,0,0,0-.044,3.133,6.638,6.638,0,0,0,3.448,4.329c1.353.663,1.458.681,4.792.724l2.941.026v2.863c0,3.221-.026,3.413-.6,4.006a2.8,2.8,0,0,1-.663.5c-.34.175-.628.175-17.15.175s-16.81,0-17.15-.175a2.854,2.854,0,0,1-.663-.506c-.646-.663-.611.253-.585-13.5l.026-12.35.244-.41a2.279,2.279,0,0,1,1.17-.995C4.67-497.846,37.609-497.846,38.1-497.672Zm3.936,10.055c.122.113.14.585.14,3.762,0,3.255-.017,3.648-.148,3.8s-.367.157-3.9.157c-4.076,0-4.294-.017-5.219-.489a4.133,4.133,0,0,1-1.981-2.636,3.946,3.946,0,0,1,1.833-4.181c.873-.524,1.039-.541,5.289-.541C41.44-487.757,41.912-487.739,42.034-487.617Z" transform="translate(-0.115 511.735)"/>
        <path id="Path_21003" data-name="Path 21003" d="M382.909-206.8a1.283,1.283,0,0,0,.026,2.3,1.754,1.754,0,0,0,.567.175,1.5,1.5,0,0,0,1.126-.707A1.288,1.288,0,0,0,382.909-206.8Z" transform="translate(-348.863 233.541)"/>
      </g>
    </g>
  </g>
</svg>
