<svg xmlns="http://www.w3.org/2000/svg" xmlns:xlink="http://www.w3.org/1999/xlink" width="198" height="183" viewBox="0 0 198 183">
  <defs>
    <filter id="Rectangle_8377" x="0" y="0" width="198" height="183" filterUnits="userSpaceOnUse">
      <feOffset dy="3" input="SourceAlpha"/>
      <feGaussianBlur stdDeviation="13" result="blur"/>
      <feFlood flood-opacity="0.078"/>
      <feComposite operator="in" in2="blur"/>
      <feComposite in="SourceGraphic"/>
    </filter>
    <filter id="Rectangle_8377-2" x="40.607" y="21.813" width="130.576" height="139.72" filterUnits="userSpaceOnUse">
      <feOffset dy="3" input="SourceAlpha"/>
      <feGaussianBlur stdDeviation="13" result="blur-2"/>
      <feFlood flood-opacity="0.078"/>
      <feComposite operator="in" in2="blur-2"/>
      <feComposite in="SourceGraphic"/>
    </filter>
  </defs>
  <g id="Group_5809" data-name="Group 5809" transform="translate(39.482 36)">
    <g transform="matrix(1, 0, 0, 1, -39.48, -36)" filter="url(#Rectangle_8377)">
      <rect id="Rectangle_8377-3" data-name="Rectangle 8377" width="120" height="105" rx="20" transform="translate(39 36)" fill="#fff"/>
    </g>
    <g id="Group_5809-2" data-name="Group 5809" transform="translate(25.968 21.813)">
      <g transform="matrix(1, 0, 0, 1, -65.45, -57.81)" filter="url(#Rectangle_8377-2)">
        <rect id="Rectangle_8377-4" data-name="Rectangle 8377" width="52.576" height="61.72" rx="15" transform="translate(79.61 57.81)" fill="#ece6f2"/>
      </g>
      <g id="creativity" transform="translate(0 7.271)">
        <path id="Path_20997" data-name="Path 20997" d="M13.421-511.919a1.811,1.811,0,0,0-1.3,1.554c-.027.218-.109,2.163-.191,4.316l-.136,3.926,1.917,8.2c1.063,4.507,1.9,8.215,1.872,8.251a2.536,2.536,0,0,1-.582.118c-.282.036-.663.091-.836.118l-.318.064-2.09-5.071c-1.145-2.781-2.172-5.18-2.272-5.334a1.359,1.359,0,0,0-1.154-.663c-.454-.036-.7.055-3.889,1.372-1.872.781-3.508,1.49-3.635,1.59a1.792,1.792,0,0,0-.4.454c-.373.645-.382.618,2.708,8.069C4.7-481.15,5.987-478,5.987-477.951s-.227.109-.509.145a6.178,6.178,0,0,0-4.08,2.463,6.162,6.162,0,0,0-.9,5.57,5.529,5.529,0,0,0,1.527,2.435,5.643,5.643,0,0,0,2.463,1.554l.727.254H41.564l.727-.245a6.339,6.339,0,0,0,4.062-4.162,7.449,7.449,0,0,0,.036-3.408,6.266,6.266,0,0,0-1.6-2.681,5.965,5.965,0,0,0-3.689-1.808,3.581,3.581,0,0,1-.709-.109,4.7,4.7,0,0,1,.055-.945,8.383,8.383,0,0,0-.018-1.963l-.109-1.054,1.427-3.444c.791-1.89,1.708-4.126,2.054-4.962a14.853,14.853,0,0,1,2.326-4.171c.645-.836.654-.663-.209-4.425a30.071,30.071,0,0,0-.927-3.508.727.727,0,0,0-.809-.227c-.4.145-5.5,3.353-5.816,3.653a1.113,1.113,0,0,0-.336.554,19.962,19.962,0,0,1-1.936,6.5c-.636,1.527-1.154,2.79-1.163,2.8a5.261,5.261,0,0,1-.781-.3,12.435,12.435,0,0,0-1.354-.482c-.691-.191-.654.045-.418-2.3.082-.891.164-2.463.164-3.544l.009-1.936.4-.563a8.5,8.5,0,0,0,.845-8.2,14.366,14.366,0,0,0-3.662-5.025c-.691-.6-.99-.663-1.39-.318-.264.236-.282.354-.173,1.381a3.809,3.809,0,0,1-.5,2.363,16.033,16.033,0,0,1-2.308,3.171,4.557,4.557,0,0,0-1.508,3.471,5.024,5.024,0,0,0,1.1,3.09l.282.382-.191,1.39a35.351,35.351,0,0,0-.373,5.507v2.008l-.391.227c-.218.127-.645.427-.963.654a2.988,2.988,0,0,1-.591.4c-.009-.018-.845-3.6-1.863-7.942s-1.917-8.088-2.017-8.315-1.009-1.926-2.008-3.771c-1.917-3.553-2.19-3.944-2.853-4.125A1.46,1.46,0,0,0,13.421-511.919Zm1.454,3.053c.454.845.836,1.563.836,1.6a1.291,1.291,0,0,1-.382.318,1.468,1.468,0,0,1-1.063.254h-.691l.036-1.772c.027-1.708.082-2.045.318-1.972A11.989,11.989,0,0,1,14.875-508.865Zm16.275.809a10.775,10.775,0,0,1,1.745,4.244,7.128,7.128,0,0,1-1.363,4.88l-.173.218-2.3-.136-2.3-.136-.218-.264a4.562,4.562,0,0,1-.454-.763,2.355,2.355,0,0,1-.245-1.318c0-1.081.2-1.5,1.4-2.908a11.784,11.784,0,0,0,2.79-4.662l.055-.4.318.309A8.559,8.559,0,0,1,31.15-508.057Zm-13.976,3.408a10.487,10.487,0,0,1,.627,1.272,2.971,2.971,0,0,1-1.508,1.872,2.621,2.621,0,0,1-2.644-.618l-.3-.309.064-1.336.055-1.336h.718a3.508,3.508,0,0,0,1.963-.536.742.742,0,0,1,.327-.164A8.439,8.439,0,0,1,17.174-504.649Zm2.935,10.823c.927,3.98,1.69,7.3,1.69,7.37a3.942,3.942,0,0,1-.491.863,9.427,9.427,0,0,0-.527.854c-.027.073-.064.109-.091.082s-.536-2.172-1.145-4.762c-.881-3.771-1.145-4.762-1.309-4.934a.744.744,0,0,0-1.254.454c0,.164.436,2.163.963,4.453s.954,4.171.927,4.2a10.036,10.036,0,0,1-1.6-.364c-.045-.045-3.38-14.339-3.344-14.376a2.106,2.106,0,0,1,.563.109,4.55,4.55,0,0,0,.781.136c.282,0,.264-.027.636,1.59.236,1.036.427,1.318.918,1.318a.79.79,0,0,0,.745-.572,6.018,6.018,0,0,0-.218-1.372c-.154-.645-.282-1.218-.282-1.281s.109-.164.254-.218a3.2,3.2,0,0,0,.654-.454,3.823,3.823,0,0,1,.418-.336C18.41-501.069,19.182-497.806,20.109-493.826Zm22.055-4.68c-.7,1.69-.718,2.081-.1,2.29a.78.78,0,0,0,.945-.336c.109-.2.781-1.817,1.072-2.553.091-.218.091-.218.164-.045.036.1.236.927.445,1.836l.382,1.663-.309.382a15.775,15.775,0,0,0-1.554,2.5c-.418.836-.418.836-.891.981a2.869,2.869,0,0,1-1.827-.045,3.37,3.37,0,0,1-1.79-1.472l-.209-.391.327-1a17.738,17.738,0,0,0,.654-2.862l.064-.409,1.554-.972a17.676,17.676,0,0,1,1.59-.936A13.669,13.669,0,0,1,42.163-498.506Zm-12.04,1.281.827.055.055.518a9.316,9.316,0,0,1,0,1.127l-.055.6-1.236-.009a9.909,9.909,0,0,1-2.862-.291c0-.036.064-.545.127-1.127l.118-1.054,1.1.064C28.8-497.316,29.669-497.261,30.123-497.225Zm-21.6,3a3.967,3.967,0,0,1,.254.718c-.009.009-.682.291-1.5.627-1.627.672-1.89.882-1.8,1.363a.932.932,0,0,0,.7.681,13.359,13.359,0,0,0,1.708-.627l1.527-.618.282.682a3.187,3.187,0,0,1,.245.745,1.831,1.831,0,0,1-.473.227c-1.127.418-1.39.645-1.39,1.145a1.068,1.068,0,0,0,.727.718,5,5,0,0,0,.972-.318,5.733,5.733,0,0,1,.809-.3,10.634,10.634,0,0,1,.563,1.39c-.018.018-.682.3-1.481.627a11.454,11.454,0,0,0-1.627.782.733.733,0,0,0,.073,1.054.9.9,0,0,0,.454.218,10.974,10.974,0,0,0,1.645-.591,13.8,13.8,0,0,1,1.518-.573,5.025,5.025,0,0,1,.618,1.39c0,.064-.127.164-.282.227a6.674,6.674,0,0,0-.836.482,8.809,8.809,0,0,0-3.562,4.534,2.161,2.161,0,0,1-.336.745c-.027-.045-1.29-3.062-2.8-6.715-2.2-5.3-2.726-6.643-2.626-6.706.145-.091,6.188-2.6,6.27-2.608A2.776,2.776,0,0,1,8.523-494.226Zm21.164.845,1.2.009v.382c0,.209-.064.872-.136,1.472s-.136,1.118-.136,1.154a1.467,1.467,0,0,1-.654.073,10.882,10.882,0,0,0-3.135.509l-.209.055v-1.617c0-.9.027-1.772.055-1.945l.055-.327.872.118A19.868,19.868,0,0,0,29.687-493.381Zm9.269,2.554a5.441,5.441,0,0,0,2.435.718c.318,0,.582.036.582.091,0,.109-2.281,5.652-2.372,5.761-.036.045-.191-.164-.336-.454a10.851,10.851,0,0,0-2.59-3.18l-.436-.363.745-1.79.736-1.79.4.363A7.07,7.07,0,0,0,38.956-490.827Zm-6.779,2.344a8.885,8.885,0,0,1,4.107,2.317,9.107,9.107,0,0,1,2.517,4.734,11.005,11.005,0,0,1-.055,3.408c-.282,1.19-.282,1.236.018,1.536l.264.264,1.136-.045a3.514,3.514,0,0,1,1.772.173,4.654,4.654,0,0,1,3.09,3.4,4.693,4.693,0,0,1-3.144,5.452c-.482.164-1.181.173-18.447.173-14.876,0-18.011-.018-18.311-.127a4.81,4.81,0,0,1-3.135-2.971,4.665,4.665,0,0,1,3.026-5.952,3.462,3.462,0,0,1,1.545-.136c.509.027,1.081.073,1.263.109a.535.535,0,0,0,.6-.209c.227-.218.264-.345.309-.936a7.365,7.365,0,0,1,4.026-5.988,7.286,7.286,0,0,1,7.261.354c.745.454,1.018.527,1.318.364a4.819,4.819,0,0,0,.672-1.109,8.882,8.882,0,0,1,6.406-4.934A11.113,11.113,0,0,1,32.177-488.483Z" transform="translate(-0.189 512.01)"/>
        <path id="Path_20998" data-name="Path 20998" d="M323.286-437.726c-.213.2-.222.24-.249,1.368l-.018,1.172-.418.835c-.48.942-.524,1.226-.2,1.537.5.506,1.075.169,1.617-.942a4.991,4.991,0,0,0,.542-2.727c-.027-.977-.036-1.022-.275-1.226A.728.728,0,0,0,323.286-437.726Z" transform="translate(-292.896 444.496)"/>
        <path id="Path_20999" data-name="Path 20999" d="M268.722-238.74a4.678,4.678,0,0,0-3.669,3.6c-.036.417-.018.48.2.648a.948.948,0,0,0,.489.2c.266,0,.711-.3.711-.48a3.89,3.89,0,0,1,.32-.746,3.047,3.047,0,0,1,2.5-1.75c.764-.133,1-.32,1-.755,0-.373-.08-.524-.364-.666A1.816,1.816,0,0,0,268.722-238.74Z" transform="translate(-240.901 263.7)"/>
        <path id="Path_21000" data-name="Path 21000" d="M121.984-178.734a4.693,4.693,0,0,0-1.848,1.8,3.112,3.112,0,0,0-.311,1.99c.311.755,1.279.56,1.421-.293a2.6,2.6,0,0,1,1.386-2.114,4.933,4.933,0,0,0,.684-.435.729.729,0,0,0-.533-1.217A2.681,2.681,0,0,0,121.984-178.734Z" transform="translate(-108.872 209.337)"/>
        <path id="Path_21001" data-name="Path 21001" d="M211.508-135.934a4.6,4.6,0,0,0-3.358,4.726c.124,1.537.791,2.274,1.528,1.7.213-.169.231-.24.2-.6a6.462,6.462,0,0,0-.151-.808,3.083,3.083,0,0,1,1.848-3.464,2.569,2.569,0,0,1,1.261-.16A2.873,2.873,0,0,1,215.345-133c.417.64.631.675,1.421.275a2.361,2.361,0,0,1,1.937-.222,2.559,2.559,0,0,1,1.244,1.03c.266.444.418.551.791.551a.678.678,0,0,0,.711-.72c0-.64-.995-1.759-1.937-2.185a4.352,4.352,0,0,0-2.665-.142l-.462.16-.56-.533A4.551,4.551,0,0,0,211.508-135.934Z" transform="translate(-189.062 170.521)"/>
      </g>
    </g>
  </g>
</svg>
