<svg xmlns="http://www.w3.org/2000/svg" xmlns:xlink="http://www.w3.org/1999/xlink" width="93.38" height="137.293" viewBox="0 0 93.38 137.293">
  <defs>
    <linearGradient id="linear-gradient" x1="0.5" x2="0.5" y2="1" gradientUnits="objectBoundingBox">
      <stop offset="0" stop-color="#091a4d"/>
      <stop offset="1" stop-color="#507dff"/>
    </linearGradient>
  </defs>
  <g id="Group_6580" data-name="Group 6580" transform="translate(-275 -2805)">
    <circle id="Ellipse_2983" data-name="Ellipse 2983" cx="15" cy="15" r="15" transform="translate(275 2836)" fill="#ccecff"/>
    <g id="Group-6" transform="translate(139 2224.92)">
      <g id="ethereum" transform="translate(-16 -19)">
        <g id="Group" transform="translate(162.99 616.396)" opacity="0.6">
          <path id="Path" d="M177.228,619.11l-14.238,6.363,14.238,8.273,14.221-8.273Z" transform="translate(-162.99 -619.11)" fill="url(#linear-gradient)"/>
        </g>
        <g id="Group-2" data-name="Group" transform="translate(163.863 599.08)" opacity="0.45">
          <path id="Path-2" data-name="Path" d="M164,622.646l14.662,8.386V599.08Z" transform="translate(-164 -599.08)" fill="url(#linear-gradient)"/>
        </g>
        <g id="Group-3" data-name="Group" transform="translate(176.796 599.08)" opacity="0.8">
          <path id="Path-3" data-name="Path" d="M178.96,599.08v31.952l14.653-8.386Z" transform="translate(-178.96 -599.08)" fill="url(#linear-gradient)"/>
        </g>
        <g id="Group-4" data-name="Group" transform="translate(163.863 625.897)" opacity="0.45">
          <path id="Path-4" data-name="Path" d="M164,630.1l14.662,20.714V638.788Z" transform="translate(-164 -630.1)" fill="url(#linear-gradient)"/>
        </g>
        <g id="Group-5" data-name="Group" transform="translate(176.796 625.897)" opacity="0.8">
          <path id="Path-5" data-name="Path" d="M178.96,638.788v12.025L193.622,630.1Z" transform="translate(-178.96 -630.1)" fill="url(#linear-gradient)"/>
        </g>
      </g>
      <path id="ERC-721" d="M144.82,703.08v-2H134.27v-5.84h9.51v-2h-9.51v-5.26h10.15v-2H132v17.18Zm5.45,0v-7.63h2.64a7.32,7.32,0,0,1,1.26.08,3.531,3.531,0,0,1,1,.46,5.129,5.129,0,0,1,1.15,1.15,25.618,25.618,0,0,1,1.64,2.37h0l2.28,3.57h2.86l-3-4.68a11.94,11.94,0,0,0-1.89-2.28,5.929,5.929,0,0,0-1.37-.86,5.94,5.94,0,0,0,3.66-1.59,4.31,4.31,0,0,0,1.18-3.08A4.92,4.92,0,0,0,161,688a3.89,3.89,0,0,0-1.91-1.64,10.18,10.18,0,0,0-3.5-.46H148v17.18Zm4.89-9.6h-4.89V687.8h5.44a4.149,4.149,0,0,1,2.79.78,2.59,2.59,0,0,1,.89,2,2.83,2.83,0,0,1-.46,1.54,2.6,2.6,0,0,1-1.34,1,7.13,7.13,0,0,1-2.43.32Zm17.55,9.89a7.09,7.09,0,0,0,4.54-1.47,7.59,7.59,0,0,0,2.57-4.27h0l-2.27-.57a5.67,5.67,0,0,1-1.79,3.27,4.91,4.91,0,0,1-3.24,1.1,5.53,5.53,0,0,1-2.91-.81,4.72,4.72,0,0,1-2-2.44,10.42,10.42,0,0,1-.64-3.83,10.281,10.281,0,0,1,.54-3.3,5,5,0,0,1,1.87-2.55,5.58,5.58,0,0,1,3.31-1,4.63,4.63,0,0,1,2.86.86,5.3,5.3,0,0,1,1.73,2.73h0l2.24-.53a6.86,6.86,0,0,0-2.45-3.69,7.07,7.07,0,0,0-4.33-1.31,8.53,8.53,0,0,0-4.17,1,7.15,7.15,0,0,0-2.92,3,10.15,10.15,0,0,0-1,4.68,11.8,11.8,0,0,0,.9,4.61,7.06,7.06,0,0,0,2.65,3.27,8.12,8.12,0,0,0,4.51,1.25ZM188,697.92V695.8h-6.48v2.12Zm6.45,5.16a22.427,22.427,0,0,1,.81-4.72,28.741,28.741,0,0,1,2.49-6,24,24,0,0,1,3.25-4.64h0v-1.64H189.9v2h8.42a24,24,0,0,0-3,4.49,26,26,0,0,0-2.19,5.54,21.393,21.393,0,0,0-.8,4.9h2.17Zm19.73,0v-2h-8.43a6.811,6.811,0,0,1,.89-1.14c.36-.38,1.17-1.1,2.44-2.16a33.4,33.4,0,0,0,3.25-3,7.86,7.86,0,0,0,1.4-2.09,5.2,5.2,0,0,0,.42-2,4.52,4.52,0,0,0-1.44-3.4,5.46,5.46,0,0,0-3.91-1.37,5.71,5.71,0,0,0-3.91,1.27,5.38,5.38,0,0,0-1.67,3.7h0l2.17.22a3.42,3.42,0,0,1,.92-2.53,3.29,3.29,0,0,1,2.44-.91,3.22,3.22,0,0,1,2.34.86,2.8,2.8,0,0,1,.89,2.11,4.31,4.31,0,0,1-1,2.54,23.659,23.659,0,0,1-3.79,3.64,21.881,21.881,0,0,0-2.76,2.6,7.809,7.809,0,0,0-1.38,2.29,3.6,3.6,0,0,0-.25,1.46h11.4Zm10.2,0V685.83H223a7.88,7.88,0,0,1-1.87,2.3,12.54,12.54,0,0,1-3.1,2h0v2a13.188,13.188,0,0,0,2.22-1.09,10.47,10.47,0,0,0,2-1.45h0v13.44Z" transform="translate(5 14)"/>
    </g>
  </g>
</svg>
