<svg xmlns="http://www.w3.org/2000/svg" xmlns:xlink="http://www.w3.org/1999/xlink" width="104" height="103.865" viewBox="0 0 104 103.865">
  <defs>
    <linearGradient id="linear-gradient" x1="0.5" x2="0.5" y2="1" gradientUnits="objectBoundingBox">
      <stop offset="0" stop-color="#091a4d"/>
      <stop offset="1" stop-color="#507dff"/>
    </linearGradient>
  </defs>
  <g id="Group-5" transform="translate(-263 -606.215)">
    <path id="ERC-1155" d="M277.82,703.08v-2H267.27v-5.84h9.51v-2h-9.51v-5.26h10.15v-2H265v17.18Zm5.45,0v-7.63h2.64a7.315,7.315,0,0,1,1.26.08,3.531,3.531,0,0,1,1,.46,5.129,5.129,0,0,1,1.15,1.15,25.631,25.631,0,0,1,1.64,2.37h0l2.28,3.57h2.86l-3-4.68a11.94,11.94,0,0,0-1.89-2.28,5.927,5.927,0,0,0-1.37-.86,5.94,5.94,0,0,0,3.66-1.59,4.31,4.31,0,0,0,1.18-3.08A4.92,4.92,0,0,0,294,688a3.89,3.89,0,0,0-1.91-1.64,10.18,10.18,0,0,0-3.5-.46H281v17.18Zm4.89-9.6h-4.89V687.8h5.44a4.149,4.149,0,0,1,2.79.78,2.59,2.59,0,0,1,.89,2,2.83,2.83,0,0,1-.46,1.54,2.6,2.6,0,0,1-1.34,1,7.13,7.13,0,0,1-2.43.32Zm17.55,9.89a7.09,7.09,0,0,0,4.54-1.47,7.59,7.59,0,0,0,2.57-4.27h0l-2.27-.57a5.67,5.67,0,0,1-1.79,3.27,4.91,4.91,0,0,1-3.24,1.1,5.53,5.53,0,0,1-2.91-.81,4.72,4.72,0,0,1-2-2.44,10.42,10.42,0,0,1-.64-3.83,10.28,10.28,0,0,1,.54-3.3,5,5,0,0,1,1.87-2.55,5.58,5.58,0,0,1,3.31-1,4.63,4.63,0,0,1,2.86.86,5.3,5.3,0,0,1,1.73,2.73h0l2.24-.53a6.86,6.86,0,0,0-2.45-3.69,7.07,7.07,0,0,0-4.33-1.31,8.53,8.53,0,0,0-4.17,1,7.15,7.15,0,0,0-2.92,3,10.15,10.15,0,0,0-1,4.68,11.8,11.8,0,0,0,.9,4.61,7.06,7.06,0,0,0,2.65,3.27,8.12,8.12,0,0,0,4.51,1.25ZM321,697.92V695.8h-6.48v2.12Z"/>
    <text id="_988" data-name="988" transform="translate(323 703.08)" font-size="26" font-family="Roboto-Regular, Roboto"><tspan x="0" y="0">998</tspan></text>
    <circle id="Ellipse_2984" data-name="Ellipse 2984" cx="15" cy="15" r="15" transform="translate(263 639.08)" fill="#ccecff"/>
    <g id="ethereum" transform="translate(-28 7.135)">
      <g id="Group" transform="translate(302.67 615.782)" opacity="0.6">
        <path id="Path" d="M316.4,619.11l-13.725,6.137,13.725,7.98,13.717-7.98Z" transform="translate(-302.67 -619.11)" fill="url(#linear-gradient)"/>
      </g>
      <g id="Group-2" data-name="Group" transform="translate(303.504 599.08)" opacity="0.45">
        <path id="Path-2" data-name="Path" d="M303.67,621.811l14.142,8.088V599.08Z" transform="translate(-303.67 -599.08)" fill="url(#linear-gradient)"/>
      </g>
      <g id="Group-3" data-name="Group" transform="translate(315.978 599.08)" opacity="0.8">
        <path id="Path-3" data-name="Path" d="M318.63,599.08V629.9l14.134-8.088Z" transform="translate(-318.63 -599.08)" fill="url(#linear-gradient)"/>
      </g>
      <g id="Group-4" data-name="Group" transform="translate(303.504 624.946)" opacity="0.45">
        <path id="Path-4" data-name="Path" d="M303.67,630.1l14.142,19.979v-11.6Z" transform="translate(-303.67 -630.1)" fill="url(#linear-gradient)"/>
      </g>
      <g id="Group-5-2" data-name="Group" transform="translate(315.978 624.946)" opacity="0.8">
        <path id="Path-5" data-name="Path" d="M318.63,638.48v11.6L332.78,630.1Z" transform="translate(-318.63 -630.1)" fill="url(#linear-gradient)"/>
      </g>
    </g>
  </g>
</svg>
