<svg xmlns="http://www.w3.org/2000/svg" xmlns:xlink="http://www.w3.org/1999/xlink" width="110.184" height="137.042" viewBox="0 0 110.184 137.042">
  <defs>
    <linearGradient id="linear-gradient" x1="0.5" x2="0.5" y2="1" gradientUnits="objectBoundingBox">
      <stop offset="0" stop-color="#091a4d"/>
      <stop offset="1" stop-color="#507dff"/>
    </linearGradient>
  </defs>
  <g id="Group_6579" data-name="Group 6579" transform="translate(-274.5 -2813.754)">
    <circle id="Ellipse_2983" data-name="Ellipse 2983" cx="15" cy="15" r="15" transform="translate(275 2836)" fill="#ccecff"/>
    <g id="Group-5" transform="translate(10 2246.92)">
      <g id="ethereum" transform="translate(-27 -32.246)">
        <g id="Group" transform="translate(302.67 616.285)" opacity="0.6">
          <path id="Path" d="M316.809,619.11l-14.139,6.322,14.139,8.22,14.13-8.22Z" transform="translate(-302.67 -619.11)" fill="url(#linear-gradient)"/>
        </g>
        <g id="Group-2" data-name="Group" transform="translate(303.529 599.08)" opacity="0.45">
          <path id="Path-2" data-name="Path" d="M303.67,622.5l14.568,8.332V599.08Z" transform="translate(-303.67 -599.08)" fill="url(#linear-gradient)"/>
        </g>
        <g id="Group-3" data-name="Group" transform="translate(316.379 599.08)" opacity="0.8">
          <path id="Path-3" data-name="Path" d="M318.63,599.08v31.747l14.56-8.332Z" transform="translate(-318.63 -599.08)" fill="url(#linear-gradient)"/>
        </g>
        <g id="Group-4" data-name="Group" transform="translate(303.529 625.725)" opacity="0.45">
          <path id="Path-4" data-name="Path" d="M303.67,630.1l14.568,20.581V638.733Z" transform="translate(-303.67 -630.1)" fill="url(#linear-gradient)"/>
        </g>
        <g id="Group-5-2" data-name="Group" transform="translate(316.379 625.725)" opacity="0.8">
          <path id="Path-5" data-name="Path" d="M318.63,638.733v11.948L333.207,630.1Z" transform="translate(-318.63 -630.1)" fill="url(#linear-gradient)"/>
        </g>
      </g>
      <path id="ERC-1155" d="M277.82,703.08v-2H267.27v-5.84h9.51v-2h-9.51v-5.26h10.15v-2H265v17.18Zm5.45,0v-7.63h2.64a7.309,7.309,0,0,1,1.26.08,3.531,3.531,0,0,1,1,.46,5.129,5.129,0,0,1,1.15,1.15,25.625,25.625,0,0,1,1.64,2.37h0l2.28,3.57h2.86l-3-4.68a11.94,11.94,0,0,0-1.89-2.28,5.929,5.929,0,0,0-1.37-.86,5.94,5.94,0,0,0,3.66-1.59,4.31,4.31,0,0,0,1.18-3.08A4.92,4.92,0,0,0,294,688a3.89,3.89,0,0,0-1.91-1.64,10.18,10.18,0,0,0-3.5-.46H281v17.18Zm4.89-9.6h-4.89V687.8h5.44a4.149,4.149,0,0,1,2.79.78,2.59,2.59,0,0,1,.89,2,2.83,2.83,0,0,1-.46,1.54,2.6,2.6,0,0,1-1.34,1,7.13,7.13,0,0,1-2.43.32Zm17.55,9.89a7.09,7.09,0,0,0,4.54-1.47,7.59,7.59,0,0,0,2.57-4.27h0l-2.27-.57a5.67,5.67,0,0,1-1.79,3.27,4.91,4.91,0,0,1-3.24,1.1,5.53,5.53,0,0,1-2.91-.81,4.72,4.72,0,0,1-2-2.44,10.42,10.42,0,0,1-.64-3.83,10.28,10.28,0,0,1,.54-3.3,5,5,0,0,1,1.87-2.55,5.58,5.58,0,0,1,3.31-1,4.63,4.63,0,0,1,2.86.86,5.3,5.3,0,0,1,1.73,2.73h0l2.24-.53a6.86,6.86,0,0,0-2.45-3.69,7.07,7.07,0,0,0-4.33-1.31,8.53,8.53,0,0,0-4.17,1,7.15,7.15,0,0,0-2.92,3,10.15,10.15,0,0,0-1,4.68,11.8,11.8,0,0,0,.9,4.61,7.06,7.06,0,0,0,2.65,3.27,8.12,8.12,0,0,0,4.51,1.25ZM321,697.92V695.8h-6.48v2.12Zm9.69,5.16V685.83h-1.36a7.93,7.93,0,0,1-1.88,2.3,12.481,12.481,0,0,1-3.09,2h0v2a13.2,13.2,0,0,0,2.22-1.09,11.149,11.149,0,0,0,2-1.45h0v13.44Zm13.34,0V685.83H342.7a8.1,8.1,0,0,1-1.88,2.3,12.483,12.483,0,0,1-3.09,2h0v2a14,14,0,0,0,2.22-1.09,11.149,11.149,0,0,0,2-1.45h0v13.44Zm10.93.29a5.44,5.44,0,0,0,4.51-2.08,6.31,6.31,0,0,0,1.36-4,5.45,5.45,0,0,0-1.55-4,5.14,5.14,0,0,0-3.8-1.56,5.57,5.57,0,0,0-3.24,1.08h0l.92-4.62H360v-2h-8.5L349.83,695l2,.26a3.4,3.4,0,0,1,1.29-1.2,3.682,3.682,0,0,1,1.84-.47,3.53,3.53,0,0,1,2.66,1.05,3.91,3.91,0,0,1,1,2.84,4.31,4.31,0,0,1-1.06,3,3.34,3.34,0,0,1-2.57,1.15,3.09,3.09,0,0,1-2.17-.82,4,4,0,0,1-1.14-2.43h0l-2.21.19a5.09,5.09,0,0,0,1.69,3.48,5.53,5.53,0,0,0,3.84,1.32Zm13.34,0a5.46,5.46,0,0,0,4.52-2.08,6.31,6.31,0,0,0,1.36-4,5.45,5.45,0,0,0-1.55-4,5.14,5.14,0,0,0-3.8-1.56,5.569,5.569,0,0,0-3.24,1.08h0l.92-4.62h6.86v-2h-8.55L363.18,695l2,.26a3.4,3.4,0,0,1,1.29-1.2,3.68,3.68,0,0,1,1.84-.47,3.51,3.51,0,0,1,2.65,1.05,3.88,3.88,0,0,1,1,2.84,4.31,4.31,0,0,1-1.06,3,3.35,3.35,0,0,1-2.58,1.15,3.08,3.08,0,0,1-2.16-.82,3.92,3.92,0,0,1-1.14-2.43h0l-2.22.19a5.14,5.14,0,0,0,1.7,3.48,5.52,5.52,0,0,0,3.82,1.32Z" stroke="#707070" stroke-width="1"/>
    </g>
  </g>
</svg>
