<svg xmlns="http://www.w3.org/2000/svg" xmlns:xlink="http://www.w3.org/1999/xlink" width="143.105" height="119" viewBox="0 0 143.105 119">
  <defs>
    <linearGradient id="linear-gradient" x1="0.5" x2="0.5" y2="1" gradientUnits="objectBoundingBox">
      <stop offset="0" stop-color="#16becf"/>
      <stop offset="1" stop-color="#3fffac"/>
    </linearGradient>
  </defs>
  <g id="_6" data-name="6" transform="translate(-16802.947 -6)">
    <rect id="Rectangle_6366" data-name="Rectangle 6366" width="155" height="22" rx="11" transform="matrix(0.848, -0.53, 0.53, 0.848, 16802.947, 101.74)" fill="url(#linear-gradient)"/>
    <g id="Group_3662" data-name="Group 3662" transform="translate(533 -155)">
      <circle id="Ellipse_77" data-name="Ellipse 77" cx="59.5" cy="59.5" r="59.5" transform="translate(16282 161)" fill="url(#linear-gradient)"/>
      <g id="Auditability" transform="translate(16313.001 704)">
        <path id="Path_952" data-name="Path 952" d="M1.445-511.822a2.637,2.637,0,0,0-1.234,1.179c-.2.389-.212.7-.212,4.526V-502l.289.223a.783.783,0,0,0,.568.221.782.782,0,0,0,.555-.254l.312-.267.034-3.892c.034-3.758.045-3.892.267-4.093s.745-.212,14-.241l13.778-.022v4.281c0,4,.011,4.315.212,4.7a2.927,2.927,0,0,0,1.234,1.2c.361.189.745.212,4.648.241l4.248.034v4.96l-.59-.2c-.312-.111-1.083-.312-1.685-.445-1.1-.255-1.2-.255-11.4-.289l-10.3-.045-.3.234a.963.963,0,0,0-.078,1.334c.212.212.361.223,6.14.223h5.91l-1,.656a16.436,16.436,0,0,0-1.565,1.168l-.567.512H20.361c-4.2,0-4.359.011-4.575.223a.953.953,0,0,0,.066,1.324c.289.223.423.234,3.769.234H23.1l-.5.745a15.544,15.544,0,0,0-2.034,4.671l-.12.482H18.255c-2.569,0-2.691.034-2.691.823,0,.843.134.9,2.546.934l2.068.034v2.213H18.171c-1.868,0-2.034.011-2.313.234a.953.953,0,0,0-.066,1.324c.212.212.361.223,2.425.223h2.213l.144.634a14.878,14.878,0,0,0,2.034,4.737l.5.745H19.623c-3.347,0-3.48.011-3.769.234a.953.953,0,0,0-.066,1.324c.212.211.361.223,4.559.223h4.348l.745.634a17.031,17.031,0,0,0,1.579,1.168l.834.533H21.929c-5.771,0-5.927.011-6.14.223a1.008,1.008,0,0,0,.011,1.29c.223.2.556.211,10.487.211,11.187,0,10.909.011,13.044-.667l.823-.255-.034,4.992-.034,4.982-.255.255-.255.255H20.917c-18.2,0-18.67,0-18.9-.212l-.234-.212v-20.928c0-14.99-.034-21.028-.12-21.284a.927.927,0,0,0-.323-.456,1.067,1.067,0,0,0-1.112.111c-.223.223-.223.361-.223,21.539,0,20.527.011,21.354.212,21.771a2.428,2.428,0,0,0,1.257,1.212c.361.155,2.5.178,19.494.178,17.335,0,19.116-.011,19.438-.178a2.921,2.921,0,0,0,1.223-1.212c.241-.433.241-.556.278-6.028l.034-5.582.512-.289.512-.3.934.934c.923.923.923.934.8,1.29a.843.843,0,0,0,.011.678,38.077,38.077,0,0,0,2.992,3.17c3.425,3.391,3.525,3.459,5.3,3.459a3.187,3.187,0,0,0,1.735-.289,4.161,4.161,0,0,0,1.848-1.795,2.889,2.889,0,0,0,.312-1.813c0-1.806.022-1.768-3.491-5.3-3.058-3.091-3.336-3.3-3.87-2.992-.167.089-.344-.034-1.168-.843l-.956-.956.533-1.012a14.687,14.687,0,0,0,1.669-5.27c.144-1.279-.066-1.685-.879-1.685-.234,0-.79.333-.79.482a20.621,20.621,0,0,1-.467,2.8A13.262,13.262,0,0,1,39.9-469.1a12.852,12.852,0,0,1-8.128.59,13.068,13.068,0,0,1-9.174-8.607,13.06,13.06,0,0,1,.035-8.032,13.185,13.185,0,0,1,7.464-7.928,12.832,12.832,0,0,1,13.689,2.6,12.355,12.355,0,0,1,3.767,6.41c.312,1.234.533,1.5,1.168,1.4.578-.089.811-.444.734-1.083a15.818,15.818,0,0,0-2.224-5.516,14.965,14.965,0,0,0-4.236-4.159l-1-.667-.055-3.548-.055-3.548-5.393-5.393L31.081-512H16.458C3.648-511.989,1.79-511.966,1.445-511.822ZM37.9-501.681c-.512.022-2.034.022-3.38,0-2.246-.034-2.491-.055-2.7-.241-.223-.212-.234-.3-.234-3.612v-3.4l3.612,3.612,3.612,3.612Zm9.252,30.992.834.834-.923.923-.911.911-.856-.856-.856-.856.879-.89a10.133,10.133,0,0,1,.945-.9,9.729,9.729,0,0,1,.891.833Zm5.249,3.914a36.648,36.648,0,0,1,2.58,2.78A2.7,2.7,0,0,1,55-462.15a2.7,2.7,0,0,1-1.212,1.179,2.9,2.9,0,0,1-1.6.011,33.236,33.236,0,0,1-2.835-2.648l-2.535-2.528,1.523-1.524c.843-.843,1.557-1.535,1.59-1.535s1.147,1.1,2.47,2.422Z" transform="translate(0)" fill="#fff"/>
        <path id="Path_953" data-name="Path 953" d="M52.223-373.679a2.018,2.018,0,0,0-1,.923c-.2.389-.223.667-.223,2.724,0,2.569.078,2.889.8,3.414.361.241.456.255,2.869.289,2.469.034,2.514.034,2.889-.223a2.854,2.854,0,0,0,.634-.634c.241-.361.255-.467.255-2.847s-.011-2.48-.241-2.835c-.567-.823-.612-.834-3.347-.856C53.5-373.734,52.312-373.712,52.223-373.679Zm4.448,3.648v1.947H52.779v-3.892h3.892Z" transform="translate(-45.329 -122.897)" fill="#fff"/>
        <path id="Path_954" data-name="Path 954" d="M225.337-331.856a11.021,11.021,0,0,0-9.185,9.162c-.267,1.835.066,4.715.622,5.327a1.008,1.008,0,0,0,1.291-.011c.255-.255.255-.445-.055-1.935a9.066,9.066,0,0,1,3.236-8.818,8.774,8.774,0,0,1,2.924-1.6,6.131,6.131,0,0,1,2.724-.361,7.274,7.274,0,0,1,4,.843,9.133,9.133,0,0,1,4.936,6.14,9.133,9.133,0,0,1-1.685,7.7,9.581,9.581,0,0,1-3.781,2.858,9.333,9.333,0,0,1-6.194.2,9.1,9.1,0,0,1-4.126-2.758c-.567-.656-.9-.843-1.334-.756a.855.855,0,0,0-.656.89c0,.811,2.157,2.792,4.059,3.725a8.823,8.823,0,0,0,4.892,1.045,8.871,8.871,0,0,0,2.758-.241,11.1,11.1,0,0,0,7.718-7.551,7.845,7.845,0,0,0,.3-3.036,7.912,7.912,0,0,0-.3-3.047,11,11,0,0,0-8.229-7.64A15.42,15.42,0,0,0,225.337-331.856Z" transform="translate(-192.032 -160.051)" fill="#fff"/>
        <path id="Path_955" data-name="Path 955" d="M270.526-276.7c-.633.155-1.012.444-2.38,1.835l-1.378,1.4-.4-.323a2.649,2.649,0,0,0-2.446-.667,2.515,2.515,0,0,0-2.024,2.528c-.011,1.045.234,1.445,1.868,3.047,1.6,1.579,2.068,1.858,3.047,1.868,1.057,0,1.467-.312,4.159-3.091,2.6-2.669,2.824-3,2.835-4.036a2.648,2.648,0,0,0-1.018-2.077,2.648,2.648,0,0,0-2.262-.485Zm.979,1.813a.843.843,0,0,1,.522.79c0,.267-.378.711-2.246,2.614-1.234,1.268-2.346,2.391-2.469,2.491-.512.423-.767.289-2.246-1.157-1.223-1.189-1.378-1.39-1.378-1.724a.793.793,0,0,1,.289-.656.793.793,0,0,1,.7-.155,5.072,5.072,0,0,1,.979.734c1.234,1.083,1.157,1.1,3.314-1.112,1.979-2.035,2.047-2.091,2.535-1.824Z" transform="translate(-232.774 -209.066)" fill="#fff"/>
        <path id="Path_956" data-name="Path 956" d="M52.2-268.806a2.181,2.181,0,0,0-1.134,1.083,20.206,20.206,0,0,0,0,5.176,2.047,2.047,0,0,0,1.312,1.083,14.931,14.931,0,0,0,2.58.089c2-.034,2.146-.045,2.546-.3a1.953,1.953,0,0,0,.645-.7c.212-.4.223-.612.189-2.9-.034-2.408-.045-2.48-.3-2.847-.5-.69-.9-.79-3.347-.779a22.135,22.135,0,0,0-2.492.1Zm4.357,3.639-.034,1.979H52.745l-.04-1.835c-.011-1,0-1.89.022-1.968.045-.111.512-.144,1.957-.144h1.89Z" transform="translate(-45.239 -216.061)" fill="#fff"/>
        <path id="Path_957" data-name="Path 957" d="M52.152-160.841a2.24,2.24,0,0,0-.667.578l-.323.412-.034,2.457c-.022,2.38-.022,2.469.234,2.9a2.046,2.046,0,0,0,.69.69c.433.255.522.255,2.913.234,2.735-.034,2.78-.045,3.336-.867.241-.361.255-.456.255-2.835s-.011-2.48-.255-2.847a2.758,2.758,0,0,0-.622-.622c-.361-.241-.467-.255-2.78-.255a11.362,11.362,0,0,0-2.747.154Zm4.626,3.569v1.947H52.885v-3.892h3.892Z" transform="translate(-45.434 -311.973)" fill="#fff"/>
      </g>
    </g>
  </g>
</svg>
