<svg xmlns="http://www.w3.org/2000/svg" xmlns:xlink="http://www.w3.org/1999/xlink" width="143.105" height="119" viewBox="0 0 143.105 119">
  <defs>
    <linearGradient id="linear-gradient" x1="0.5" x2="0.5" y2="1" gradientUnits="objectBoundingBox">
      <stop offset="0" stop-color="#16becf"/>
      <stop offset="1" stop-color="#3fffac"/>
    </linearGradient>
  </defs>
  <g id="_1" data-name="1" transform="translate(-16094.947 -161)">
    <rect id="Rectangle_6367" data-name="Rectangle 6367" width="155" height="22" rx="11" transform="matrix(0.848, -0.53, 0.53, 0.848, 16094.947, 252.24)" fill="url(#linear-gradient)"/>
    <circle id="Ellipse_76" data-name="Ellipse 76" cx="59.5" cy="59.5" r="59.5" transform="translate(16107 161)" fill="url(#linear-gradient)"/>
    <g id="setting" transform="translate(16121.901 688.157)">
      <path id="Path_1907" data-name="Path 1907" d="M172.423-495.892a3.843,3.843,0,0,0-2.009,2.044,4.042,4.042,0,0,0,.74,4.1,3.51,3.51,0,0,0,1.657,1.01c.141,0,.176.176.176.987v.975l-.963.082a19.37,19.37,0,0,0-6.486,1.856A14.078,14.078,0,0,0,163-483.261a11.9,11.9,0,0,0,1.128,1.574,7.678,7.678,0,0,0,.74-.458,17.91,17.91,0,0,1,3.913-1.821,16.858,16.858,0,0,1,3.819-.775h.388v1.762h1.88v-1.762h.388a17.882,17.882,0,0,1,7.7,2.573,7.644,7.644,0,0,0,.775.482,11.906,11.906,0,0,0,1.128-1.574A13.559,13.559,0,0,0,182-484.977a18.222,18.222,0,0,0-6.169-1.715l-.963-.082v-1.9l.587-.211a3.72,3.72,0,0,0,1.986-2.021,3.986,3.986,0,0,0-.811-4.171A4.051,4.051,0,0,0,172.423-495.892Zm2.42,1.986a1.775,1.775,0,0,1-.916,3.29,1.731,1.731,0,0,1-1.762-1.762,1.779,1.779,0,0,1,.846-1.527,1.928,1.928,0,0,1,.916-.235A1.928,1.928,0,0,1,174.844-493.907Z" transform="translate(-129.641)" fill="#fff"/>
      <path id="Path_1908" data-name="Path 1908" d="M79.879-435.329a3.669,3.669,0,0,0-3.09,3.607,5.549,5.549,0,0,0,.117,1.269A3.9,3.9,0,0,0,79.291-428a4.959,4.959,0,0,0,2.62-.012l.564-.2,2.021,2.021,2.009,2.009.74-.728.728-.74-2.009-2.009-2.021-2.021.2-.564a4.721,4.721,0,0,0-.035-2.738A3.742,3.742,0,0,0,79.879-435.329Zm1.574,2.209a1.772,1.772,0,0,1-.881,3.3,1.767,1.767,0,0,1-1.257-3.031A1.7,1.7,0,0,1,81.453-433.12Z" transform="translate(-53.558 -53.631)" fill="#fff"/>
      <path id="Path_1909" data-name="Path 1909" d="M346.58-435.32a3.41,3.41,0,0,0-1.95,1.081,4.1,4.1,0,0,0-.8,3.971l.2.564-2.021,2.021L340-425.674l.728.74.74.728,2.009-2.009,2.021-2.021.564.2a4.959,4.959,0,0,0,2.62.012,3.866,3.866,0,0,0,1.551-6.2,4.482,4.482,0,0,0-2.42-1.175A4.453,4.453,0,0,0,346.58-435.32Zm1.433,2.021a2.083,2.083,0,0,1,1.14,1.281,1.782,1.782,0,0,1-1.751,2.174,1.784,1.784,0,0,1-1.2-3.09,2.3,2.3,0,0,1,1.316-.493C347.614-433.4,347.837-433.346,348.013-433.3Z" transform="translate(-285.844 -53.605)" fill="#fff"/>
      <path id="Path_1910" data-name="Path 1910" d="M153.609-367.765c-.211.212-.235.388-.235,1.762,0,1.351-.023,1.527-.2,1.527a5.389,5.389,0,0,1-1.222-1c-1.527-1.5-1.363-1.551-4.183,1.269s-2.761,2.632-1.269,4.183a5.088,5.088,0,0,1,1,1.234c0,.164-.188.188-1.527.188-2.174,0-2-.329-2,3.76s-.176,3.76,2,3.76c1.351,0,1.527.023,1.527.2a5.39,5.39,0,0,1-1,1.222c-1.5,1.527-1.551,1.363,1.269,4.183s2.632,2.761,4.183,1.269a6.408,6.408,0,0,1,1.175-1c.082,0,.129.376.129,1.2,0,1.363.141,2.033.47,2.209a25.43,25.43,0,0,0,3.454.118c4.03,0,3.713.164,3.713-2,0-1.351.023-1.527.2-1.527a5.389,5.389,0,0,1,1.222,1c1.527,1.5,1.363,1.551,4.183-1.269s2.773-2.655,1.269-4.183a5.39,5.39,0,0,1-1-1.222c0-.176.176-.2,1.527-.2,2.174,0,2,.329,2-3.76s.176-3.76-2-3.76c-1.339,0-1.527-.023-1.527-.188a5.088,5.088,0,0,1,1-1.234c1.492-1.551,1.551-1.375-1.269-4.183s-2.655-2.773-4.183-1.269a7.021,7.021,0,0,1-1.163,1c-.106,0-.141-.352-.141-1.21,0-1.351-.141-2.021-.47-2.2a25.439,25.439,0,0,0-3.454-.117C154-368,153.832-367.988,153.609-367.765Zm5.4,3.031c0,1.657,0,1.657,1.492,2.232,1.187.47,1.316.435,2.444-.681l.822-.822,1.269,1.269,1.257,1.257-.775.764a5.476,5.476,0,0,0-.94,1.151c-.153.353-.141.447.211,1.351.576,1.492.576,1.492,2.232,1.492h1.386v3.76h-1.386c-1.657,0-1.657,0-2.232,1.492-.47,1.187-.435,1.316.681,2.444l.822.822-1.269,1.269-1.257,1.257-.764-.775a5.474,5.474,0,0,0-1.151-.94c-.352-.153-.446-.141-1.351.211-1.492.576-1.492.576-1.492,2.232v1.386h-3.76v-1.386c0-1.657,0-1.657-1.492-2.232-.9-.352-1-.364-1.351-.211a5.475,5.475,0,0,0-1.151.94l-.764.775-1.257-1.257-1.269-1.269.822-.822c1.116-1.128,1.151-1.257.681-2.444-.576-1.492-.576-1.492-2.232-1.492h-1.386v-3.76h1.386c1.657,0,1.657,0,2.232-1.492.352-.9.364-1,.211-1.351a5.475,5.475,0,0,0-.94-1.151l-.775-.764,1.257-1.257,1.269-1.269.822.822c1.14,1.128,1.257,1.151,2.491.646,1.48-.6,1.445-.54,1.445-2.2v-1.386h3.76Z" transform="translate(-112.848 -113.1)" fill="#fff"/>
      <path id="Path_1911" data-name="Path 1911" d="M204.4-311.76a6.422,6.422,0,0,0-4.195,4.195,7.341,7.341,0,0,0-.047,4.03,6.687,6.687,0,0,0,2.738,3.631,6.864,6.864,0,0,0,7.179,0,6.467,6.467,0,0,0,2.7-3.5,7.539,7.539,0,0,0,.106-3.854,6.846,6.846,0,0,0-4.618-4.618A7.584,7.584,0,0,0,204.4-311.76Zm3.49,1.88a4.739,4.739,0,0,1,2.808,2.491,3.4,3.4,0,0,1,.317,1.9,3.493,3.493,0,0,1-.317,1.915,5.522,5.522,0,0,1-2.291,2.291,3.493,3.493,0,0,1-1.915.317,3.272,3.272,0,0,1-2.009-.376,4.841,4.841,0,0,1-2.2-2.244,3.4,3.4,0,0,1-.317-1.9,3.4,3.4,0,0,1,.317-1.9A4.662,4.662,0,0,1,207.885-309.88Z" transform="translate(-162.201 -162.454)" fill="#fff"/>
      <path id="Path_1912" data-name="Path 1912" d="M229.648-276.508l-1.5,1.5-.587-.587-.587-.587-.74.74-.728.74,1.069,1.046c1.01,1,1.093,1.057,1.574,1.057.505,0,.54-.023,2.514-2l2.009-1.986-.7-.717a6.757,6.757,0,0,0-.764-.7C231.163-278,230.47-277.33,229.648-276.508Z" transform="translate(-184.798 -192.525)" fill="#fff"/>
      <path id="Path_1913" data-name="Path 1913" d="M28.377-348.213a19.134,19.134,0,0,0-2.843,8.236l-.082.963h-.975c-.811,0-.987-.035-.987-.176a3.51,3.51,0,0,0-1.01-1.657,3.95,3.95,0,0,0-5.264,0,3.24,3.24,0,0,0-1.1,2.538,3.468,3.468,0,0,0,.211,1.68,3.856,3.856,0,0,0,4.994,2.068,3.72,3.72,0,0,0,2.021-1.986l.211-.587h1.9l.082.963a19.369,19.369,0,0,0,1.856,6.486,14.08,14.08,0,0,0,1.574,2.538,11.9,11.9,0,0,0,1.574-1.128,7.678,7.678,0,0,0-.458-.74,17.909,17.909,0,0,1-1.821-3.913,16.859,16.859,0,0,1-.775-3.819v-.388h1.762v-1.88H27.484v-.388a17.2,17.2,0,0,1,.764-3.807,18.317,18.317,0,0,1,1.809-3.889,7.643,7.643,0,0,0,.482-.775A11.9,11.9,0,0,0,28.965-349,3.879,3.879,0,0,0,28.377-348.213ZM20.763-339.6a1.775,1.775,0,0,1-.916,3.29,1.731,1.731,0,0,1-1.762-1.762,1.731,1.731,0,0,1,1.762-1.762A1.928,1.928,0,0,1,20.763-339.6Z" transform="translate(0 -129.867)" fill="#fff"/>
      <path id="Path_1914" data-name="Path 1914" d="M373.822-348.518c-.352.258-.693.517-.752.576s.059.317.247.611a17.554,17.554,0,0,1,2.691,7.449l.082.869h-1.8v1.88h1.8l-.082.869a17.645,17.645,0,0,1-2.679,7.437,5.237,5.237,0,0,0-.329.54,11.241,11.241,0,0,0,1.574,1.14,14.08,14.08,0,0,0,1.574-2.538,19.369,19.369,0,0,0,1.856-6.486l.082-.963h.975c.811,0,.987.035.987.176a3.511,3.511,0,0,0,1.01,1.657,3.941,3.941,0,0,0,5.334-.07,3.941,3.941,0,0,0,.07-5.334,3.24,3.24,0,0,0-2.538-1.1,3.5,3.5,0,0,0-2.867.963,3.511,3.511,0,0,0-1.01,1.657c0,.141-.176.176-.987.176h-.975l-.082-.963a19.369,19.369,0,0,0-1.856-6.486A12.466,12.466,0,0,0,374.563-349,5.007,5.007,0,0,0,373.822-348.518Zm10.786,8.918a1.8,1.8,0,0,1,0,3.055,1.948,1.948,0,0,1-1.833,0,1.775,1.775,0,0,1,.916-3.29A1.928,1.928,0,0,1,384.609-339.6Z" transform="translate(-314.967 -129.867)" fill="#fff"/>
      <path id="Path_1915" data-name="Path 1915" d="M84.507-169.991l-2.021,2.009-.6-.2a4.62,4.62,0,0,0-3.008.176,3.693,3.693,0,0,0-2.08,3.5,3.638,3.638,0,0,0,3.631,3.689,6.336,6.336,0,0,0,1.281-.129,3.8,3.8,0,0,0,2.456-2.373,4.959,4.959,0,0,0-.012-2.62l-.2-.564,2.021-2.021,2.009-2.009-.74-.74L86.516-172ZM81.5-166.125a1.805,1.805,0,0,1-.552,3.29,1.9,1.9,0,0,1-2.1-1.328A1.805,1.805,0,0,1,81.5-166.125Z" transform="translate(-53.568 -286.07)" fill="#fff"/>
      <path id="Path_1916" data-name="Path 1916" d="M340.728-171.272l-.728.74,2.009,2.009,2.021,2.021-.2.564a4.1,4.1,0,0,0,.8,3.971,3.593,3.593,0,0,0,2.091,1.116,3.78,3.78,0,0,0,4.43-4.43,3.646,3.646,0,0,0-3.736-3.078,5.066,5.066,0,0,0-1.351.188l-.564.2-2.021-2.021L341.469-172Zm7.59,5.146a1.784,1.784,0,0,1,.846,1.539,1.768,1.768,0,0,1-2.608,1.551,1.77,1.77,0,0,1,.846-3.325A1.927,1.927,0,0,1,348.319-166.125Z" transform="translate(-285.844 -286.07)" fill="#fff"/>
      <path id="Path_1917" data-name="Path 1917" d="M163.54-138.248a8.571,8.571,0,0,0-.54.822,14.079,14.079,0,0,0,2.538,1.574,19.37,19.37,0,0,0,6.486,1.856l.963.082v.963c0,.963,0,.975-.329,1.034a4.072,4.072,0,0,0-2.373,2.409,5.145,5.145,0,0,0,.129,2.667,3.863,3.863,0,0,0,6.216,1.234,3.941,3.941,0,0,0,.07-5.334,3.51,3.51,0,0,0-1.657-1.01c-.141,0-.176-.176-.176-.987v-.975l.963-.082a19.369,19.369,0,0,0,6.486-1.856,14.08,14.08,0,0,0,2.538-1.574,11.241,11.241,0,0,0-1.14-1.574,5.229,5.229,0,0,0-.54.329,17.645,17.645,0,0,1-7.437,2.679l-.869.082v-1.8h-1.88v1.762H172.6a16.859,16.859,0,0,1-3.819-.775,17.91,17.91,0,0,1-3.913-1.821,7.68,7.68,0,0,0-.74-.458A5.261,5.261,0,0,0,163.54-138.248Zm11.3,8.413a1.775,1.775,0,0,1-.916,3.29,1.775,1.775,0,0,1-.916-3.29A1.947,1.947,0,0,1,174.844-129.835Z" transform="translate(-129.641 -315.193)" fill="#fff"/>
    </g>
  </g>
</svg>
