<svg xmlns="http://www.w3.org/2000/svg" xmlns:xlink="http://www.w3.org/1999/xlink" width="143.105" height="119" viewBox="0 0 143.105 119">
  <defs>
    <linearGradient id="linear-gradient" x1="0.5" x2="0.5" y2="1" gradientUnits="objectBoundingBox">
      <stop offset="0" stop-color="#16becf"/>
      <stop offset="1" stop-color="#3fffac"/>
    </linearGradient>
  </defs>
  <g id="_5" data-name="5" transform="translate(-16094.947 359)">
    <rect id="Rectangle_6370" data-name="Rectangle 6370" width="155" height="22" rx="11" transform="matrix(0.848, -0.53, 0.53, 0.848, 16094.947, -267.759)" fill="url(#linear-gradient)"/>
    <circle id="Ellipse_73" data-name="Ellipse 73" cx="59.5" cy="59.5" r="59.5" transform="translate(16107 -359)" fill="url(#linear-gradient)"/>
    <g id="transparency" transform="translate(16137.872 183.899)">
      <path id="Path_1885" data-name="Path 1885" d="M17.815-511.833c-.156.022-.824.145-1.5.267A20.048,20.048,0,0,0,1.16-498.384,17.649,17.649,0,0,0,.147-492.5a17.365,17.365,0,0,0,.423,5.077,20.145,20.145,0,0,0,14.573,15,21.311,21.311,0,0,0,9.3.189,20.287,20.287,0,0,0,6.6-2.75l.712-.445,1.236,1.236,1.236,1.236-.523.557c-.456.479-.523.623-.523,1.035v.468l7.325,7.336c4.609,4.631,7.559,7.5,7.971,7.771a5.73,5.73,0,0,0,6.145,0,5.3,5.3,0,0,0,2.494-4.687,5.24,5.24,0,0,0-.879-3.073c-.267-.412-3.139-3.362-7.771-7.982l-7.336-7.314h-.468c-.412,0-.557.067-1.035.523l-.557.523-1.236-1.236-1.225-1.225.757-1.247A19.377,19.377,0,0,0,40.2-491.8a19.7,19.7,0,0,0-5.834-14.239,19.977,19.977,0,0,0-11.3-5.7A33.654,33.654,0,0,0,17.815-511.833Zm5.266,2.483A17.861,17.861,0,0,1,37.7-494.488a21.908,21.908,0,0,1,.045,4.976A17.878,17.878,0,0,1,22.5-474.282a22.09,22.09,0,0,1-4.7,0,17.831,17.831,0,0,1-13.448-9.585,17.72,17.72,0,0,1,1.38-18.3,21.257,21.257,0,0,1,4.086-4.1,18.586,18.586,0,0,1,7.314-3.084A20.457,20.457,0,0,1,23.08-509.35Zm13.582,33.977-.757.757-1.136-1.136L33.623-476.9l.746-.746.757-.757,1.136,1.136,1.147,1.147Zm5.511.9,1.47,1.47-2.316,2.316-2.3,2.3-1.5-1.5-1.5-1.5L38.3-473.67c1.258-1.258,2.3-2.282,2.338-2.282S41.36-475.284,42.173-474.471ZM54.441-461.88a3.151,3.151,0,0,1-1.47,4.286,2.565,2.565,0,0,1-1.414.345c-1.38,0-1.436-.045-6.39-4.987l-4.42-4.42,2.3-2.3,2.316-2.316,4.375,4.364C53.373-463.283,54.174-462.426,54.441-461.88Z" transform="translate(0)" fill="#fff"/>
      <path id="Path_1886" data-name="Path 1886" d="M53.582-471.749a16.674,16.674,0,0,0-5.333,1.726,15.427,15.427,0,0,0-6.613,6.8A14.891,14.891,0,0,0,40-456.274a14.958,14.958,0,0,0,1.8,7.392,15.614,15.614,0,0,0,11.233,8.071,19.632,19.632,0,0,0,5.11.011,15.683,15.683,0,0,0,12.769-12.313,22.489,22.489,0,0,0,0-6.234,15.742,15.742,0,0,0-8.093-10.721,16.53,16.53,0,0,0-4.008-1.47A31.08,31.08,0,0,0,53.582-471.749Zm5.232,2.638a13.1,13.1,0,0,1,6.134,3.518,13.433,13.433,0,0,1,3.529,6.134,9.349,9.349,0,0,1,.289,3.228,9.323,9.323,0,0,1-.3,3.262,13.237,13.237,0,0,1-3.518,6.1A13.052,13.052,0,0,1,54.461-443,13.387,13.387,0,0,1,42.5-453.936a14.366,14.366,0,0,1,.456-6.4,13.444,13.444,0,0,1,10.331-8.984,14.594,14.594,0,0,1,2.627-.111A10.231,10.231,0,0,1,58.814-469.11Z" transform="translate(-35.433 -35.642)" fill="#fff"/>
      <path id="Path_1887" data-name="Path 1887" d="M93.133-431.806a11.4,11.4,0,0,0-7.036,4.364c-.913,1.236-1.77,3.151-1.625,3.607a1.093,1.093,0,0,0,1.191.924c.568,0,.8-.256,1.458-1.592a8.71,8.71,0,0,1,7.314-5.088c1.458-.145,1.759-.356,1.77-1.236a.934.934,0,0,0-.289-.813c-.278-.267-.356-.289-1.258-.278A12.9,12.9,0,0,0,93.133-431.806Z" transform="translate(-74.94 -71.076)" fill="#fff"/>
      <path id="Path_1888" data-name="Path 1888" d="M81.148-331.358a1.134,1.134,0,0,0-.223,1.893,1.066,1.066,0,0,0,1.525-.067A1.138,1.138,0,0,0,81.148-331.358Z" transform="translate(-71.437 -160.347)" fill="#fff"/>
    </g>
  </g>
</svg>
