<svg xmlns="http://www.w3.org/2000/svg" xmlns:xlink="http://www.w3.org/1999/xlink" width="143.105" height="119" viewBox="0 0 143.105 119">
  <defs>
    <linearGradient id="linear-gradient" x1="0.5" x2="0.5" y2="1" gradientUnits="objectBoundingBox">
      <stop offset="0" stop-color="#16becf"/>
      <stop offset="1" stop-color="#3fffac"/>
    </linearGradient>
  </defs>
  <g id="_3" data-name="3" transform="translate(-16095.148 203)">
    <g id="Group_3656" data-name="Group 3656">
      <rect id="Rectangle_6369" data-name="Rectangle 6369" width="155" height="22" rx="11" transform="matrix(0.848, -0.53, 0.53, 0.848, 16095.148, -111.558)" fill="url(#linear-gradient)"/>
      <circle id="Ellipse_74" data-name="Ellipse 74" cx="59.5" cy="59.5" r="59.5" transform="translate(16107 -203)" fill="url(#linear-gradient)"/>
      <g id="smart-contracts_1_" data-name="smart-contracts (1)" transform="translate(16130 332)">
        <path id="Path_1889" data-name="Path 1889" d="M16.043-503.78a3.468,3.468,0,0,0-.833.6c-.752.8-.729.486-.729,8.761v7.511l-.486.162a13.394,13.394,0,0,0-3.449,3.287,3.361,3.361,0,0,0,0,2.488c.44.856.278,1.215-.706,1.655a2.832,2.832,0,0,0-1.6,1.412c-.22.463-.243.718-.243,2.6,0,2,.012,2.118.289,2.662A2.861,2.861,0,0,0,9.9-471.248c.926.393,1.076.787.637,1.632a3.115,3.115,0,0,0,0,2.453,9.709,9.709,0,0,0,1.609,1.829c1.042,1.03,1.47,1.366,1.852,1.47l.486.15v7.523c0,8.286-.023,7.974.729,8.772a3.465,3.465,0,0,0,.833.6c.44.208,1.2.22,19.709.22,21.248,0,19.663.058,20.5-.729.856-.822.81-.324.822-9.571l.012-8.275.544-.347A2.468,2.468,0,0,0,58.9-467.66a4.134,4.134,0,0,0-.093-1.215,3.088,3.088,0,0,0-1.447-1.574,3.511,3.511,0,0,0-2.43,0,3.318,3.318,0,0,0-1.354,1.354c-.127.278-.127.278-2.222.278H49.259l-1.852-1.852-1.852-1.852H37.628v1.852h6.886l1.852,1.852,1.852,1.852,2.6.012h2.6l.347.544a3.621,3.621,0,0,0,.891.891l.544.347v7.824c.012,5.555-.023,7.928-.116,8.205-.266.741.926.694-19.316.694s-19.05.046-19.316-.694c-.093-.266-.127-2.523-.127-7.65v-7.28l.289-.069c.579-.139.868.035,1.18.741a2.907,2.907,0,0,0,1.424,1.7c.544.278.66.289,2.662.289s2.118-.012,2.662-.289a2.861,2.861,0,0,0,1.389-1.609c.393-.914.787-1.076,1.62-.648a3.613,3.613,0,0,0,2.4.058,15.79,15.79,0,0,0,3.275-3.241,3.419,3.419,0,0,0,0-2.488c-.428-.833-.266-1.227.648-1.62a2.742,2.742,0,0,0,1.9-2.546v-.579h1.852v-1.852H35.776v-.579a2.743,2.743,0,0,0-1.9-2.546c-.914-.393-1.076-.787-.648-1.62a3.613,3.613,0,0,0,.058-2.4,15.79,15.79,0,0,0-3.241-3.275,3.419,3.419,0,0,0-2.488,0c-.856.44-1.215.278-1.655-.706a2.832,2.832,0,0,0-1.412-1.6c-.463-.22-.718-.243-2.6-.243s-2.141.023-2.6.243a2.832,2.832,0,0,0-1.412,1.6c-.312.694-.544.926-.926.937-.66.012-.613.5-.613-7.418,0-8.055-.012-7.939.694-8.194.278-.093,4.305-.127,14.652-.127H45.96v3.611c0,4.039.023,4.155.822,4.919.752.706.88.729,4.849.729h3.588l-.012,3.727v3.738l-.544.347a3.433,3.433,0,0,0-.891.891l-.347.544h-2.6l-2.6.012-1.852,1.852-1.852,1.852H37.628v1.852h7.928l1.852-1.852,1.852-1.852,2.083.012h2.083l.347.544a2.468,2.468,0,0,0,2.141,1.273,4.135,4.135,0,0,0,1.215-.093A3.088,3.088,0,0,0,58.7-481.49a3.511,3.511,0,0,0,0-2.43,3.317,3.317,0,0,0-1.354-1.354l-.278-.127v-8.472l-.336-.579a124.31,124.31,0,0,0-9.351-9.3L46.9-504H31.7C17.143-504,16.483-503.988,16.043-503.78Zm35.333,9.016a16.1,16.1,0,0,1-2.789-.093c-.706-.208-.775-.5-.775-3.379V-500.7l2.951,2.951,2.951,2.951ZM23.682-487.1a3.282,3.282,0,0,1,.486.81,2.779,2.779,0,0,0,2.523,1.829,2.269,2.269,0,0,0,1.273-.2c.984-.44,1.123-.382,2.4.891s1.331,1.412.891,2.4a2.269,2.269,0,0,0-.2,1.273,2.779,2.779,0,0,0,1.829,2.523c.972.428.984.451.984,2.28s-.012,1.852-.984,2.28a2.761,2.761,0,0,0-1.574,1.481,2.943,2.943,0,0,0-.046,2.361c.428.926.359,1.088-.9,2.349s-1.412,1.331-2.4.891a2.269,2.269,0,0,0-1.273-.2,2.779,2.779,0,0,0-2.523,1.829c-.428.972-.451.984-2.28.984s-1.852-.012-2.28-.984a2.761,2.761,0,0,0-1.481-1.574,2.8,2.8,0,0,0-2.2-.081,4.5,4.5,0,0,1-.9.231c-.44.058-.475.035-1.6-1.088-1.285-1.285-1.342-1.424-.9-2.407a2.269,2.269,0,0,0,.2-1.273,2.779,2.779,0,0,0-1.829-2.523c-.972-.428-.984-.451-.984-2.28s.012-1.852.984-2.28a2.779,2.779,0,0,0,1.829-2.523,2.269,2.269,0,0,0-.2-1.273c-.44-.984-.382-1.123.891-2.4s1.412-1.331,2.4-.891a2.269,2.269,0,0,0,1.273.2,2.779,2.779,0,0,0,2.523-1.829c.451-1.018.5-1.03,2.465-1.007C23.1-487.277,23.531-487.23,23.682-487.1Zm33.042,3.819a.926.926,0,0,1,.231.579.926.926,0,0,1-.231.579.926.926,0,0,1-.579.231.926.926,0,0,1-.579-.231.926.926,0,0,1-.231-.579.926.926,0,0,1,.231-.579.926.926,0,0,1,.579-.231A.926.926,0,0,1,56.723-483.284Zm0,14.814a.926.926,0,0,1,.231.579.926.926,0,0,1-.231.579.926.926,0,0,1-.579.231.926.926,0,0,1-.579-.231.926.926,0,0,1-.231-.579.926.926,0,0,1,.231-.579.926.926,0,0,1,.579-.231A.926.926,0,0,1,56.723-468.47Z" fill="#fff"/>
        <path id="Path_1890" data-name="Path 1890" d="M98.778-327.074v.926H96v12.962h2.778v1.852h1.852v-1.944l.336-.081a4.054,4.054,0,0,0,1.748-1.3,3.965,3.965,0,0,0-.058-4.595l-.312-.417.312-.417a4.225,4.225,0,0,0,.579-3.634,3.915,3.915,0,0,0-2.268-2.257l-.336-.081V-328H98.778ZM100.525-324a1.767,1.767,0,0,1,0,3.1,3.527,3.527,0,0,1-1.528.278l-1.146.058v-3.773l1.146.058A3.527,3.527,0,0,1,100.525-324Zm0,5.555a1.767,1.767,0,0,1,0,3.1,3.527,3.527,0,0,1-1.528.278L97.852-315v-3.773l1.146.058A3.527,3.527,0,0,1,100.525-318.441Z" transform="translate(-77.816 -155.631)" fill="#fff"/>
        <path id="Path_1891" data-name="Path 1891" d="M96-467.371v4.629h12.962V-472H96Zm11.11,0v2.778H97.852v-5.555h9.259Z" transform="translate(-77.816 -28.297)" fill="#fff"/>
        <path id="Path_1892" data-name="Path 1892" d="M224-471.074v.926h1.852V-472H224Z" transform="translate(-191.002 -28.297)" fill="#fff"/>
        <path id="Path_1893" data-name="Path 1893" d="M256-471.074v.926h7.407V-472H256Z" transform="translate(-219.298 -28.297)" fill="#fff"/>
        <path id="Path_1894" data-name="Path 1894" d="M224-439.074v.926h11.11V-440H224Z" transform="translate(-191.002 -56.593)" fill="#fff"/>
        <path id="Path_1895" data-name="Path 1895" d="M224-407.074v.926h11.11V-408H224Z" transform="translate(-191.002 -84.89)" fill="#fff"/>
        <path id="Path_1896" data-name="Path 1896" d="M225.562-375.729A2.68,2.68,0,0,0,224-373.149a2.63,2.63,0,0,0,2.778,2.754,2.624,2.624,0,0,0,2.778-2.778,2.683,2.683,0,0,0-1.643-2.592A3.629,3.629,0,0,0,225.562-375.729Zm1.794,1.979a.926.926,0,0,1,.231.579.926.926,0,0,1-.231.579.926.926,0,0,1-.579.231.926.926,0,0,1-.579-.231.926.926,0,0,1-.231-.579.926.926,0,0,1,.231-.579.926.926,0,0,1,.579-.231A.926.926,0,0,1,227.356-373.75Z" transform="translate(-191.002 -113.237)" fill="#fff"/>
        <path id="Path_1897" data-name="Path 1897" d="M289.562-375.729A2.68,2.68,0,0,0,288-373.149a2.63,2.63,0,0,0,2.778,2.754,2.624,2.624,0,0,0,2.778-2.778,2.683,2.683,0,0,0-1.643-2.592A3.629,3.629,0,0,0,289.562-375.729Zm1.794,1.979a.926.926,0,0,1,.231.579.926.926,0,0,1-.231.579.926.926,0,0,1-.579.231.926.926,0,0,1-.579-.231.926.926,0,0,1-.231-.579.926.926,0,0,1,.231-.579.926.926,0,0,1,.579-.231A.926.926,0,0,1,291.356-373.75Z" transform="translate(-247.595 -113.237)" fill="#fff"/>
        <path id="Path_1898" data-name="Path 1898" d="M330.332-279.741a3.321,3.321,0,0,0-1.377,1.273l-.231.417H312v1.852l8.367.012h8.356l.347.544a2.468,2.468,0,0,0,2.141,1.273,2.493,2.493,0,0,0,2.118-.66,2.513,2.513,0,0,0,.891-2.095,2.683,2.683,0,0,0-1.643-2.592A4.008,4.008,0,0,0,330.332-279.741Zm1.69,2.037a.926.926,0,0,1,.231.579.926.926,0,0,1-.231.579.926.926,0,0,1-.579.231.926.926,0,0,1-.579-.231.926.926,0,0,1-.231-.579.926.926,0,0,1,.231-.579.926.926,0,0,1,.579-.231A.926.926,0,0,1,332.022-277.7Z" transform="translate(-268.817 -198.173)" fill="#fff"/>
        <path id="Path_1899" data-name="Path 1899" d="M280-263.074v.926h1.852V-264H280Z" transform="translate(-240.521 -212.224)" fill="#fff"/>
        <path id="Path_1900" data-name="Path 1900" d="M105.752-137.29l-4.722,4.722-1.042-1.042-1.042-1.042-.718.729-.729.718,1.771,1.771,1.759,1.759,5.463-5.463,5.474-5.474-.694-.694a6.654,6.654,0,0,0-.752-.694C110.485-142,108.344-139.882,105.752-137.29Z" transform="translate(-79.142 -320.105)" fill="#fff"/>
        <path id="Path_1901" data-name="Path 1901" d="M193.752-137.29l-4.722,4.722-1.042-1.042-1.042-1.042-.718.729-.729.718,1.771,1.771,1.759,1.759,5.463-5.463,5.474-5.474-.694-.694a6.653,6.653,0,0,0-.752-.694C198.485-142,196.344-139.882,193.752-137.29Z" transform="translate(-156.957 -320.105)" fill="#fff"/>
        <path id="Path_1902" data-name="Path 1902" d="M281.752-137.29l-4.722,4.722-1.042-1.042-1.042-1.042-.718.729-.729.718,1.771,1.771,1.759,1.759,5.463-5.463,5.474-5.474-.694-.694a6.655,6.655,0,0,0-.752-.694C286.485-142,284.344-139.882,281.752-137.29Z" transform="translate(-234.773 -320.105)" fill="#fff"/>
      </g>
    </g>
  </g>
</svg>
