<svg xmlns="http://www.w3.org/2000/svg" xmlns:xlink="http://www.w3.org/1999/xlink" width="143.105" height="119" viewBox="0 0 143.105 119">
  <defs>
    <linearGradient id="linear-gradient" x1="0.5" x2="0.5" y2="1" gradientUnits="objectBoundingBox">
      <stop offset="0" stop-color="#16becf"/>
      <stop offset="1" stop-color="#3fffac"/>
    </linearGradient>
  </defs>
  <g id="_4" data-name="4" transform="translate(-15926.49 359)">
    <rect id="Rectangle_6371" data-name="Rectangle 6371" width="155" height="22" rx="11" transform="matrix(0.848, -0.53, 0.53, 0.848, 15926.49, -267.725)" fill="url(#linear-gradient)"/>
    <circle id="Ellipse_72" data-name="Ellipse 72" cx="59.5" cy="59.5" r="59.5" transform="translate(15939 -359)" fill="url(#linear-gradient)"/>
    <g id="scam" transform="translate(15967 170.523)">
      <path id="Path_1882" data-name="Path 1882" d="M29.527-499.411c-2.086.4-3.007.982-8.6,5.335l-4.608,3.589H7.979l-.352.352-.352.352v6.075l-2.207,1.9C1.31-478.566.861-478.057.3-476.274l-.3.958v15.606c.012,14.66.024,15.642.218,16.237a4.826,4.826,0,0,0,2.716,2.74l.643.267h23l.352-.4a1.206,1.206,0,0,0,.17-1.479,1.4,1.4,0,0,0-.412-.485c-.158-.085-3.941-.121-11.289-.121-11.956,0-11.52.024-12.223-.643-.74-.691-.691.4-.728-15.7l-.024-14.709,4.45,3.735c17.643,14.769,20.384,17.037,21.148,17.437a6.531,6.531,0,0,0,3.626.752,6.455,6.455,0,0,0,3.444-1.1c.582-.4,20.675-17.207,23.815-19.935l.752-.655-.024,14.588c-.036,15.982.012,14.915-.728,15.594-.7.667-.291.643-11.944.643-11.811,0-11.119-.048-11.435.716a1.366,1.366,0,0,0,.315,1.479l.315.291H58.508l.643-.267a4.826,4.826,0,0,0,2.716-2.74c.194-.594.206-1.576.218-16.237v-15.606l-.3-.958c-.558-1.783-1.006-2.292-4.753-5.529l-2.219-1.9v-6.075l-.352-.352-.352-.352H49.631l-4.462-.012-4.426-3.516c-4.3-3.42-5.517-4.293-6.73-4.826A7.939,7.939,0,0,0,29.527-499.411Zm3,2.74c1.091.412,2,1.031,5.3,3.638l3.141,2.486-5.081.036c-2.8.012-7.373.012-10.186,0l-5.093-.036,3.31-2.583c3.323-2.583,4.547-3.359,5.808-3.723A4.764,4.764,0,0,1,32.522-496.67Zm19.717,17.243-.036,8.634-9.216,7.736c-5.857,4.911-9.458,7.858-9.883,8.064a3.023,3.023,0,0,1-1.819.34,3.15,3.15,0,0,1-1.819-.327c-.424-.206-4.159-3.213-10.149-8.161l-9.495-7.833v-17.085H52.263ZM7.276-476.711c0,2.728-.036,3.444-.146,3.371-.218-.121-1.952-1.649-2.728-2.4-.679-.643-.825-1.116-.485-1.564a41.163,41.163,0,0,1,3.274-2.862A34.533,34.533,0,0,1,7.276-476.711Zm49.292-2.061a14.938,14.938,0,0,1,1.686,1.588,1.459,1.459,0,0,1-.218,1.334c-.17.194-.958.909-1.758,1.6l-1.467,1.237V-476.6c0-1.964.036-3.577.073-3.577S55.67-479.548,56.568-478.772Z" transform="translate(0 0)" fill="#fff"/>
      <path id="Path_1883" data-name="Path 1883" d="M174-371.562a11.485,11.485,0,0,0-6.257,3.238A11.322,11.322,0,0,0,165-363.6a7.743,7.743,0,0,0-.315,3.007,9.07,9.07,0,0,0,.255,2.862,11.08,11.08,0,0,0,7.918,7.882,13.62,13.62,0,0,0,5.687.012,11.38,11.38,0,0,0,5.8-3.747,11.214,11.214,0,0,0-.437-14.478,11.324,11.324,0,0,0-5.42-3.262A14.749,14.749,0,0,0,174-371.562Zm3.868,2.74a11.624,11.624,0,0,1,2.68,1.213c.218.17-.061.473-5.7,6.112-3.274,3.274-5.99,5.93-6.063,5.905a10.416,10.416,0,0,1-1.455-3.262A8.577,8.577,0,0,1,177.867-368.822Zm5.784,5.141a8.554,8.554,0,0,1-.4,7.082,9.16,9.16,0,0,1-3.565,3.565,8.7,8.7,0,0,1-8.561-.3l-.473-.327,5.978-5.978,5.978-5.978.388.631A8.251,8.251,0,0,1,183.651-363.68Z" transform="translate(-144.714 -112.376)" fill="#fff"/>
      <path id="Path_1884" data-name="Path 1884" d="M248.9-32.749a1.246,1.246,0,0,0,1.2,2.134,1.143,1.143,0,0,0,.837-1.225A1.218,1.218,0,0,0,248.9-32.749Z" transform="translate(-218.316 -409.901)" fill="#fff"/>
    </g>
  </g>
</svg>
