<svg xmlns="http://www.w3.org/2000/svg" xmlns:xlink="http://www.w3.org/1999/xlink" width="143.105" height="119" viewBox="0 0 143.105 119">
  <defs>
    <linearGradient id="linear-gradient" x1="0.5" x2="0.5" y2="1" gradientUnits="objectBoundingBox">
      <stop offset="0" stop-color="#16becf"/>
      <stop offset="1" stop-color="#3fffac"/>
    </linearGradient>
  </defs>
  <g id="_2" data-name="2" transform="translate(-16094.686 9)">
    <rect id="Rectangle_6368" data-name="Rectangle 6368" width="155" height="22" rx="11" transform="matrix(0.848, -0.53, 0.53, 0.848, 16094.686, 82.24)" fill="url(#linear-gradient)"/>
    <circle id="Ellipse_75" data-name="Ellipse 75" cx="59.5" cy="59.5" r="59.5" transform="translate(16107 -9)" fill="url(#linear-gradient)"/>
    <g id="increase" transform="translate(16129.075 525.008)">
      <path id="Path_1903" data-name="Path 1903" d="M17.069-503.783a3.53,3.53,0,0,0-.849.613c-.766.813-.743.53-.743,8.558l-.012,7.285-.707.413A14.713,14.713,0,0,0,9.9-482.094a15.325,15.325,0,0,0-1.721,4.456,16.13,16.13,0,0,0,0,5.729,14.209,14.209,0,0,0,9.336,10.562l.79.271v6.283c0,6.071.012,6.318.248,6.943a3.57,3.57,0,0,0,3.348,2.287A3.478,3.478,0,0,0,24.79-446.6c1.026-1.037,1.061-1.214,1.061-6.071v-4.185H45.1c18.483,0,19.261-.012,19.709-.224a3.53,3.53,0,0,0,.849-.613c.8-.849.743.967.743-22.762,0-20.688-.012-21.513-.224-21.961a3.53,3.53,0,0,0-.613-.849c-.849-.8,1.167-.743-24.648-.743C18.4-504.007,17.529-504,17.069-503.783Zm46.739,1.792c.684.248.707.436.707,5.116v4.185h-2.3a14.876,14.876,0,0,1-2.3-.094c0-.059.189-1.026.413-2.145a22.1,22.1,0,0,0,.413-2.7,2.513,2.513,0,0,0-2.629-2.605c-.625,0-8.605,1.544-9.171,1.78a3.269,3.269,0,0,0-1.273,1.32,3.639,3.639,0,0,0,.047,2.039,5.954,5.954,0,0,0,.908,1.191l.743.766-.283.224c-.271.212-.7.224-16,.224H17.364v-4.173a36.93,36.93,0,0,1,.13-4.55c.271-.743-1.3-.7,23.4-.707C57.407-502.121,63.525-502.086,63.808-501.992Zm-5.257,3.949a.75.75,0,0,1,.189.5c0,.436-1.532,8.039-1.662,8.3-.236.448-.613.236-2-1.155l-1.367-1.367-7.768,7.308-7.768,7.308-3.336-3.312-3.324-3.324-7.58,7.58-7.591,7.591-.6-.684a4.793,4.793,0,0,1-.613-.754c0-.035,3.69-3.749,8.193-8.251l8.193-8.193,3.277,3.277,3.289,3.289,6.648-6.153c3.654-3.383,6.86-6.365,7.12-6.613l.472-.46-1.391-1.391c-1.45-1.45-1.639-1.8-1.108-2.027.365-.177,7.591-1.627,8.122-1.638A.906.906,0,0,1,58.551-498.043Zm-12.012,7.473c-.13.118-2.063,1.921-4.3,4L38.17-482.8l-3.324-3.324-3.336-3.324-1.167,1.167-1.179,1.167-.872-.424a12.791,12.791,0,0,0-6.684-1.344,11.5,11.5,0,0,0-3.972.625c-.271.071-.271.071-.271-1.238V-490.8h14.7C46.645-490.8,46.763-490.8,46.539-490.569ZM64.515-475.3c0,17.057.035,16.161-.707,16.432-.283.094-5.458.13-19.167.13H25.851v-2.334l.8-.259a14.528,14.528,0,0,0,7.061-5.328l.566-.825.035,3.43.024,3.43H62.629v-24.519H56.971v22.633H55.085v-20.747H49.427v20.747H47.541V-477.6H41.883v15.088H40v-9.43H37.981c-1.874,0-2.016-.012-1.933-.212a15.906,15.906,0,0,0,.153-2.063l.059-1.874.908.908.908.908,7.768-7.308,7.768-7.3.837.79a2.692,2.692,0,0,0,2.475,1.037,1.668,1.668,0,0,0,1.191-.4,3.039,3.039,0,0,0,1.167-2.228l.212-1.12h5.022ZM23.447-486.868a13.215,13.215,0,0,1,3.536.955l.684.306-.648.648-.648.648-1.12-.377a7.192,7.192,0,0,0-2.817-.436,8.832,8.832,0,0,0-2.77.2,10.585,10.585,0,0,0-7.721,7.674,12.724,12.724,0,0,0,0,4.951,10.867,10.867,0,0,0,3.713,5.741,12.766,12.766,0,0,0,3.654,1.862,14.516,14.516,0,0,0,4.9.118,10.434,10.434,0,0,0,8-7.745,10.1,10.1,0,0,0,.236-2.44,9.575,9.575,0,0,0-.978-4.527l-.507-1.026.271-.259.283-.259,1.049,1.049c1.014,1,1.049,1.073,1.32,1.992a9.053,9.053,0,0,1,.259,3.077,8.349,8.349,0,0,1-.318,3.183,12.311,12.311,0,0,1-10.656,8.876,12.243,12.243,0,0,1-12.849-8.876,8.53,8.53,0,0,1-.318-3.242,8.529,8.529,0,0,1,.318-3.242,12.335,12.335,0,0,1,8.511-8.487,12.948,12.948,0,0,1,3.477-.46C22.48-486.939,22.987-486.9,23.447-486.868Zm.849,3.984.5.153-5.352,5.352-5.352,5.352-.2-.908a9.312,9.312,0,0,1,.224-4.491,8.417,8.417,0,0,1,8.794-5.694A9.618,9.618,0,0,1,24.3-482.884Zm36.448,10v10.373H58.857v-20.747h1.886Zm-7.544.943v9.43H51.313v-18.86H53.2Zm-22.915-4.621a9.43,9.43,0,0,1-.236,4.444,8.424,8.424,0,0,1-11.3,5.045l-.7-.306,5.705-5.705,5.694-5.693.318.672A8.78,8.78,0,0,1,30.284-476.565Zm15.371,7.45v6.6H43.769v-13.2h1.886Zm-7.544,2.829v3.772H36.225v-7.544h1.886ZM23.942-454.793c-.035,5.705-.047,5.906-.283,6.306a1.792,1.792,0,0,1-3.159,0c-.236-.4-.248-.6-.283-6.306l-.035-5.894h3.8Z" fill="#fff"/>
      <path id="Path_1904" data-name="Path 1904" d="M104-469.171v2.829h5.658V-472H104Zm3.772,0v.943h-1.886v-1.886h1.886Z" transform="translate(-84.75 -28.235)" fill="#fff"/>
      <path id="Path_1905" data-name="Path 1905" d="M168-469.171v2.829h5.658V-472H168Zm3.772,0v.943h-1.886v-1.886h1.886Z" transform="translate(-141.206 -28.235)" fill="#fff"/>
      <path id="Path_1906" data-name="Path 1906" d="M232-469.171v2.829h5.658V-472H232Zm3.772,0v.943h-1.886v-1.886h1.886Z" transform="translate(-197.661 -28.235)" fill="#fff"/>
    </g>
  </g>
</svg>
