<svg xmlns="http://www.w3.org/2000/svg" xmlns:xlink="http://www.w3.org/1999/xlink" width="207.395" height="196.405" viewBox="0 0 207.395 196.405">
  <defs>
    <clipPath id="clip-path">
      <path id="Path_19442" data-name="Path 19442" d="M990.78,740.462a7.387,7.387,0,0,0,7.385,7.386h82.042a7.387,7.387,0,0,0,7.386-7.385V690.54H990.78Z" transform="translate(-990.78 -690.54)" fill="none"/>
    </clipPath>
  </defs>
  <g id="Work_7_Converted_" data-name="Work_7 [Converted]" transform="translate(0 0.006)">
    <path id="Path_19431" data-name="Path 19431" d="M589.4,840.035l-.221-.231,1.381-1.322.221.231Zm2.767-2.652-.225-.227c.451-.443.9-.9,1.343-1.36l.23.221c-.442.461-.9.921-1.347,1.366Zm2.661-2.766-.236-.214c.424-.465.85-.946,1.268-1.43l.241.209C595.681,833.665,595.254,834.147,594.828,834.617Zm2.509-2.9-.246-.2c.4-.485.8-.987,1.194-1.491l.255.2c-.4.5-.8,1.009-1.2,1.5Zm2.362-3.025-.255-.19c.374-.5.753-1.021,1.124-1.546l.255.185c-.368.522-.747,1.044-1.124,1.55Zm2.225-3.136-.264-.179q.536-.792,1.056-1.593l.268.174Q602.458,824.763,601.925,825.552Zm17.492-2.213a4.673,4.673,0,0,1-1.719-.328l.118-.3a4.358,4.358,0,0,0,1.6.305,1.868,1.868,0,0,1,.207,0l.015.319c-.082,0-.17,0-.23.005Zm2.119-.545-.16-.276a3.466,3.466,0,0,0,1.277-1.286l.277.158a3.784,3.784,0,0,1-1.4,1.408Zm-17.52-.461-.271-.169q.5-.812.992-1.634l.275.163q-.5.83-1,1.645Zm12.063-.444a5.6,5.6,0,0,1-1.051-1.66l.294-.128a5.284,5.284,0,0,0,.991,1.563Zm7.376-2.4-.319-.006V819.4a3.32,3.32,0,0,0-.282-1.356q-.073-.16-.158-.312l.278-.157q.093.165.171.337a3.633,3.633,0,0,1,.31,1.487Zm-17.353-.335-.245-.206a12.141,12.141,0,0,1,1.353-1.376l.209.241a11.844,11.844,0,0,0-1.325,1.346Zm8.427-.811a7.777,7.777,0,0,1-.055-.923,8.189,8.189,0,0,1,.065-1.021l.317.04a7.873,7.873,0,0,0-.063.986,7.442,7.442,0,0,0,.052.885Zm-5.582-1.647-.168-.272a13.13,13.13,0,0,1,1.719-.894l.128.294A12.824,12.824,0,0,0,608.947,816.7Zm12.512-.329a7.012,7.012,0,0,0-1.63-.908l.119-.3a7.336,7.336,0,0,1,1.7.95ZM612.4,815.2l-.084-.308a13.722,13.722,0,0,1,1.9-.375l.04.317a13.394,13.394,0,0,0-1.854.366Zm5.618-.264a11.568,11.568,0,0,0-1.877-.2l.008-.319a11.9,11.9,0,0,1,1.928.2Zm-2.728-.323-.3-.107a9.547,9.547,0,0,1,.843-1.753l.272.167a9.221,9.221,0,0,0-.812,1.693Zm1.951-3.192-.234-.217q.139-.149.286-.295a10.371,10.371,0,0,1,1.168-.993l.189.255a10.047,10.047,0,0,0-1.132.964q-.139.142-.273.286Zm3.021-2.225-.142-.286a11.889,11.889,0,0,1,1.8-.716l.093.305a11.6,11.6,0,0,0-1.749.7Zm3.6-1.172-.079-.309c.624-.16,1.245-.327,1.845-.5l.087.306c-.6.172-1.222.34-1.849.5Zm3.692-1.05-.1-.305c.615-.194,1.226-.4,1.813-.6l.106.3c-.587.207-1.2.414-1.819.605Zm3.625-1.268-.115-.3c.6-.232,1.193-.475,1.767-.723l.128.292c-.577.25-1.175.494-1.776.728Zm3.526-1.523-.138-.287,1.722-.836.139.287Zm3.447-1.674-.139-.287,1.722-.838.139.287Zm3.447-1.675-.139-.287,1.722-.838.139.287Zm3.447-1.675-.139-.287,1.722-.838.139.287Zm3.447-1.675-.139-.287,1.722-.838.139.287Z" transform="translate(-538.158 -725.267)" fill="#9192ff"/>
    <path id="Path_19432" data-name="Path 19432" d="M1007.628,252.363a1.631,1.631,0,0,0,.008.2h41.976a6.649,6.649,0,0,0-6.815-6.234,7.123,7.123,0,0,0-3.266.783,7.447,7.447,0,0,0-3.627-6.656,7.7,7.7,0,0,0-10.448,3.145,8.385,8.385,0,0,0-1.1,3.612,15.171,15.171,0,0,0-6.256-1.277C1012.315,245.934,1007.628,248.814,1007.628,252.363Z" transform="translate(-903.179 -239.5)" fill="#c5f1ff"/>
    <path id="Path_19433" data-name="Path 19433" d="M224.173,1033.743H189.56v-.128a5.536,5.536,0,0,1,5.7-5.223,6.006,6.006,0,0,1,2.554.568,6.231,6.231,0,0,1,3.032-5.363,6.019,6.019,0,0,1,4.612-.583,6.748,6.748,0,0,1,4.11,3.2,6.95,6.95,0,0,1,.905,2.839,12.608,12.608,0,0,1,5.018-.984c4.8,0,8.7,2.417,8.7,5.387a1.465,1.465,0,0,1-.008.174Zm-34.364-.239h34.145v-.04c0-2.838-3.793-5.147-8.457-5.147a12.29,12.29,0,0,0-5.074,1.033l-.158.073-.011-.172a6.7,6.7,0,0,0-.894-2.907,6.512,6.512,0,0,0-3.958-3.091,5.786,5.786,0,0,0-4.429.559,6.006,6.006,0,0,0-2.912,5.346v.2l-.179-.092a5.756,5.756,0,0,0-2.62-.628,5.3,5.3,0,0,0-5.452,4.866Z" transform="translate(-189.56 -922.792)" fill="#9192ff"/>
    <g id="Group_4180" data-name="Group 4180" transform="translate(102.297 57.582)" clip-path="url(#clip-path)">
      <path id="Path_19434" data-name="Path 19434" d="M990.78,740.462a7.387,7.387,0,0,0,7.385,7.386h82.042a7.387,7.387,0,0,0,7.386-7.385V690.54H990.78Z" transform="translate(-990.78 -690.54)" fill="#fff"/>
      <path id="Path_19435" data-name="Path 19435" d="M855.572,744.264a9.982,9.982,0,0,1,8.625-6.708,10.159,10.159,0,0,1,9.617,5.333,5.986,5.986,0,0,1,5.144,2.894,5.566,5.566,0,0,1-.179,5.745,8.121,8.121,0,0,1,5.8,4.252,7.622,7.622,0,0,1-.156,7.022,9.333,9.333,0,0,1,8.834.319,8.685,8.685,0,0,1,4.175,7.533,9.294,9.294,0,0,1,15.965.728,14.77,14.77,0,0,1,10.373-9.4,15.386,15.386,0,0,1,13.77,3.489c5.4.845,9.336,6.708,7.929,11.811a10.9,10.9,0,0,1,3.8,10,11.14,11.14,0,0,1-6.851,8.326l-92.909-.055-7.916-35.447Z" transform="translate(-860.638 -731.531)" fill="#c5f1ff"/>
      <g id="Group_4179" data-name="Group 4179" transform="translate(-20.071 17.762)" opacity="0.8">
        <path id="Path_19436" data-name="Path 19436" d="M847.111,836.4a9.488,9.488,0,0,1,17.623-1.39,5.618,5.618,0,0,1,4.789,8.635,7.728,7.728,0,0,1,5.445,11.275,8.571,8.571,0,0,1,12.563,7.844,8.821,8.821,0,0,1,15.417.715,14.22,14.22,0,0,1,23.33-5.926,9.883,9.883,0,0,1,7.65,11.805,10.873,10.873,0,0,1-2.963,18.325L841.2,887.7l-7.624-35.441Z" transform="translate(-833.58 -829.659)" fill="#fff"/>
      </g>
      <path id="Path_19437" data-name="Path 19437" d="M1009.467,703.055c-26.89,25.288-45.964,32.106-69.981,34.544l-1.6,25.535,25.216,8.618c22.024-.638,43.171-32.522,56.234-59.88l-9.875-8.823" transform="translate(-944.643 -701.453)" fill="#fff2e0" opacity="0.7"/>
      <path id="Path_19438" data-name="Path 19438" d="M1400.112,705.67c-4.372,5.172-10.965,10.12-18.742,16.8l10.611-4.324a71.546,71.546,0,0,1-4.258,6.468,35.745,35.745,0,0,0,7.685-4.93c0,1.837-2.214,4.91-3.179,6.589,5.66-4.844,10.808-10.757,12.472-15.952l-4.587-4.654" transform="translate(-1331.501 -703.738)" fill="#ffa121"/>
      <path id="Path_19439" data-name="Path 19439" d="M1462.5,707.72c-2.585,3.428-6.457,6.732-11.031,11.183l6.192-2.937c-.776,1.424-1.9,3.417-2.533,4.275a21.664,21.664,0,0,0,4.5-3.3c-.019,1.2-1.333,3.235-1.915,4.341,3.328-3.226,6.372-7.15,7.39-10.563l-2.61-3" transform="translate(-1392.651 -705.526)" fill="#fff" opacity="0.4"/>
      <path id="Path_19440" data-name="Path 19440" d="M1196.082,827.5c.034.8,0,2.149-.8,2.611-1.333.766-2.383-1.1-2.871-2.043a2.026,2.026,0,0,1,.886-3.022C1195.041,824.387,1196.018,826.012,1196.082,827.5Z" transform="translate(-1166.384 -807.743)" fill="#d1d1ff"/>
      <path id="Path_19441" data-name="Path 19441" d="M1691.2,1017.61c.034.8,0,2.149-.8,2.611-1.333.766-2.382-1.1-2.871-2.043a2.026,2.026,0,0,1,.886-3.022C1690.161,1014.493,1691.138,1016.119,1691.2,1017.61Z" transform="translate(-1598.289 -973.577)" fill="#d1d1ff"/>
      <circle id="Ellipse_2742" data-name="Ellipse 2742" cx="1.117" cy="1.117" r="1.117" transform="translate(21.496 9.601)" fill="#d1d1ff"/>
      <circle id="Ellipse_2743" data-name="Ellipse 2743" cx="1.701" cy="1.701" r="1.701" transform="translate(77.728 29.181)" fill="#d1d1ff"/>
    </g>
    <path id="Path_19443" data-name="Path 19443" d="M1079.126,746.952h-82.04a7.555,7.555,0,0,1-7.546-7.546V689.33h97.131v50.076A7.555,7.555,0,0,1,1079.126,746.952Zm-89.272-57.3v49.757a7.234,7.234,0,0,0,7.227,7.227h82.045a7.234,7.234,0,0,0,7.226-7.227V689.649Z" transform="translate(-887.401 -631.902)" fill="#9192ff"/>
    <path id="Path_19444" data-name="Path 19444" d="M1080.207,539.11H998.166a7.386,7.386,0,0,0-7.386,7.391v11.953h96.814V546.5A7.386,7.386,0,0,0,1080.207,539.11Z" transform="translate(-888.483 -500.862)" fill="#fff"/>
    <path id="Path_19445" data-name="Path 19445" d="M1086.663,557.553H989.53V545.446a7.555,7.555,0,0,1,7.546-7.546h82.041a7.555,7.555,0,0,1,7.546,7.546Zm-96.817-.319h96.5V545.446a7.235,7.235,0,0,0-7.226-7.227h-82.04a7.235,7.235,0,0,0-7.232,7.227Z" transform="translate(-887.392 -499.806)" fill="#9192ff"/>
    <circle id="Ellipse_2744" data-name="Ellipse 2744" cx="4.05" cy="4.05" r="4.05" transform="translate(108.001 43.868)" fill="#c5f1ff"/>
    <circle id="Ellipse_2745" data-name="Ellipse 2745" cx="4.05" cy="4.05" r="4.05" transform="translate(119.928 43.868)" fill="#fff"/>
    <path id="Path_19446" data-name="Path 19446" d="M1131.8,590.237a4.213,4.213,0,1,1,4.213-4.213A4.213,4.213,0,0,1,1131.8,590.237Zm0-8.1a3.89,3.89,0,1,0,3.89,3.89A3.89,3.89,0,0,0,1131.8,582.138Z" transform="translate(-1007.825 -538.11)" fill="#9192ff"/>
    <rect id="Rectangle_8426" data-name="Rectangle 8426" width="23.854" height="7.731" rx="3.865" transform="translate(134.815 44.054)" fill="#fff"/>
    <path id="Path_19447" data-name="Path 19447" d="M1265.344,591.414h-16.12a4.024,4.024,0,0,1,0-8.044h16.12a4.024,4.024,0,0,1,0,8.044Zm-16.123-7.731a3.7,3.7,0,1,0,0,7.405h16.123a3.7,3.7,0,1,0,0-7.405Z" transform="translate(-1110.543 -539.471)" fill="#9192ff"/>
    <path id="Path_19448" data-name="Path 19448" d="M1515.712,470.11c-6.466,5.66-17.619,1.758-21.082,6.278l9.9,7.841Z" transform="translate(-1328.003 -440.672)" fill="#21bdca"/>
    <path id="Path_19449" data-name="Path 19449" d="M1492.962,519.28h0a3.83,3.83,0,0,0,.7,3.864l7.022,8.036,2.186-4.059Z" transform="translate(-1326.334 -483.564)" fill="#d1d1ff"/>
    <path id="Path_19450" data-name="Path 19450" d="M1698.176,561c-4.027,7.59,2.326,17.55-1.277,21.96l-9.9-7.842Z" transform="translate(-1495.812 -519.957)" fill="#21bdca"/>
    <path id="Path_19451" data-name="Path 19451" d="M1673.291,679.387h0a3.83,3.83,0,0,1-3.921.2l-9.43-4.987,3.447-3.064Z" transform="translate(-1472.207 -616.384)" fill="#d1d1ff"/>
    <path id="Path_19452" data-name="Path 19452" d="M1564.136,154.42l-8.816,3.237,7.686,6.086Z" transform="translate(-1356.741 -134.709)" fill="#1b1b43"/>
    <path id="Path_19453" data-name="Path 19453" d="M1562.775,425.338c-1.232,13.949-11.538,26.965-24.057,34.194l-11.408-9.024c4.787-15.066,13.7-25.837,27.777-31.258Z" transform="translate(-1356.51 -396.305)" fill="#c5f1ff"/>
    <path id="Path_19454" data-name="Path 19454" d="M1303.949,424.58,1299,428.007l14.153,11.207,2.2-5.61Z" transform="translate(-1133.148 -370.376)" fill="#21bdca"/>
    <circle id="Ellipse_2746" data-name="Ellipse 2746" cx="5.295" cy="5.295" r="5.295" transform="matrix(0.621, -0.784, 0.784, 0.621, 187.821, 35.871)" fill="#fff"/>
    <path id="Path_19455" data-name="Path 19455" d="M1693.635,491.859l-.033-.318a3.472,3.472,0,0,0,.887-.216l.115.3A3.781,3.781,0,0,1,1693.635,491.859Zm-1-.026a3.744,3.744,0,0,1-.955-.286l.128-.291a3.432,3.432,0,0,0,.873.255Zm2.838-.691-.189-.255a3.472,3.472,0,0,0,.655-.638l.255.2a3.775,3.775,0,0,1-.72.7Zm-4.64-.128a3.769,3.769,0,0,1-.681-.729l.255-.185a3.457,3.457,0,0,0,.623.668Zm5.745-1.172-.283-.147a3.446,3.446,0,0,0,.31-.858l.312.068a3.764,3.764,0,0,1-.337.944Zm-6.895-.439a3.8,3.8,0,0,1-.217-.973l.318-.028a3.479,3.479,0,0,0,.2.894Zm7-1.47a3.5,3.5,0,0,0-.166-.894l.3-.1a3.8,3.8,0,0,1,.181.979Zm-6.851-.437-.314-.056a3.744,3.744,0,0,1,.3-.95l.289.137a3.443,3.443,0,0,0-.281.87Zm6.289-1.286a3.442,3.442,0,0,0-.6-.691l.212-.239a3.77,3.77,0,0,1,.652.755Zm-5.517-.351-.243-.207a3.769,3.769,0,0,1,.742-.667l.18.264a3.447,3.447,0,0,0-.679.61Zm4.164-.85a3.439,3.439,0,0,0-.863-.294l.061-.313a3.76,3.76,0,0,1,.943.322Zm-2.67-.17-.1-.3a3.8,3.8,0,0,1,.977-.2l.023.319a3.479,3.479,0,0,0-.9.184Z" transform="translate(-1497.966 -453.085)" fill="#9192ff"/>
    <rect id="Rectangle_8427" data-name="Rectangle 8427" width="2.039" height="17.711" rx="1.019" transform="matrix(0.784, 0.621, -0.621, 0.784, 179.265, 53.602)" fill="#1b1b43"/>
    <path id="Path_19456" data-name="Path 19456" d="M1349.22,1391.856h-1.915v-.319h1.915Zm-3.83,0h-1.915v-.319h1.915Zm-3.83,0h-1.915v-.319h1.915Zm-3.83,0h-1.915v-.319h1.915Zm-3.83,0h-1.915v-.319h1.915Zm-3.83,0h-1.915v-.319h1.915Zm-3.83,0h-1.915v-.319h1.915Zm-3.83,0h-1.915v-.319h1.915Zm-3.83,0h-1.915v-.319h1.915Zm-3.83,0h-1.915v-.319h1.915Zm-3.83,0a6.1,6.1,0,0,1-1.929-.329l.1-.3a5.8,5.8,0,0,0,1.83.312Zm38.535,0-.011-.319a5.788,5.788,0,0,0,1.819-.364l.112.3a6.108,6.108,0,0,1-1.923.384Zm-42.191-1.25a6.152,6.152,0,0,1-1.347-1.42l.264-.18a5.816,5.816,0,0,0,1.277,1.347Zm45.809-.107-.2-.248a5.814,5.814,0,0,0,1.238-1.383l.268.172a6.149,6.149,0,0,1-1.309,1.453Zm-47.986-3.086a6.124,6.124,0,0,1-.232-1.676v-.255h.319v.255a5.818,5.818,0,0,0,.22,1.588Zm50.072-.167-.309-.079a5.829,5.829,0,0,0,.177-1.43v-.43h.319v.421a6.145,6.145,0,0,1-.19,1.513Zm-49.988-3.688h-.319v-1.915h.319Zm50.177-.17h-.319v-1.915h.319Zm-50.177-3.661h-.319v-1.915h.319Zm50.177-.17h-.319v-1.915h.319Zm-50.177-3.661h-.319v-1.915h.319Zm50.177-.17h-.319v-1.915h.319Zm-50.177-3.66h-.319v-1.915h.319Zm50.177-.17h-.319v-1.915h.319Zm-50.177-3.661h-.319v-1.915h.319Zm50.177-.17h-.319v-1.915h.319Zm-50.177-3.661h-.319v-1.277a6.247,6.247,0,0,1,.035-.656l.318.034a5.916,5.916,0,0,0-.033.62Zm50.177-.17h-.319v-1.107a5.926,5.926,0,0,0-.052-.785l.317-.042a6.167,6.167,0,0,1,.055.827Zm-49.65-3.517-.291-.128a6.127,6.127,0,0,1,1.089-1.628l.234.217a5.8,5.8,0,0,0-1.035,1.539Zm48.738-.148a5.822,5.822,0,0,0-1.075-1.513l.227-.223a6.127,6.127,0,0,1,1.134,1.6Zm-46.246-2.534-.153-.28a6.076,6.076,0,0,1,1.846-.652l.056.314a5.757,5.757,0,0,0-1.749.618Zm43.666-.077a5.757,5.757,0,0,0-1.766-.568l.047-.315a6.083,6.083,0,0,1,1.864.6Zm-3.654-.638h-1.915V1357h1.915Zm-3.83,0h-1.915V1357h1.915Zm-3.83,0h-1.915V1357h1.915Zm-3.83,0h-1.915V1357h1.915Zm-3.83,0h-1.915V1357h1.915Zm-3.83,0h-1.915V1357h1.915Zm-3.83,0H1323.3V1357h1.915Zm-3.83,0h-1.915V1357h1.915Zm-3.83,0h-1.915V1357h1.915Zm-3.83,0h-1.915V1357h1.915Z" transform="translate(-1162.453 -1214.326)" fill="#9192ff"/>
    <rect id="Rectangle_8428" data-name="Rectangle 8428" width="50.173" height="35.48" rx="17.74" transform="translate(137.813 136.516)" fill="#3fffac"/>
    <rect id="Rectangle_8429" data-name="Rectangle 8429" width="5.433" height="11.033" transform="translate(146.537 157.24)" fill="#fff"/>
    <rect id="Rectangle_8430" data-name="Rectangle 8430" width="5.433" height="10.679" transform="translate(155.636 157.595)" fill="#fff"/>
    <rect id="Rectangle_8431" data-name="Rectangle 8431" width="5.433" height="16.257" transform="translate(164.733 152.017)" fill="#fff"/>
    <rect id="Rectangle_8432" data-name="Rectangle 8432" width="5.433" height="21.026" transform="translate(173.831 147.247)" fill="#fff"/>
    <rect id="Rectangle_8433" data-name="Rectangle 8433" width="29.15" height="1.274" transform="translate(148.325 141.513)" fill="#fff"/>
    <path id="Path_19457" data-name="Path 19457" d="M610.769,977.492a15.131,15.131,0,0,0-5.562-7.988l-1.078-.794.914,18.933,7.073-5.472Z" transform="translate(-551.199 -875.612)" fill="#1eb0bc"/>
    <path id="Path_19458" data-name="Path 19458" d="M639.745,1092.329l-1.572-3.077a3.123,3.123,0,0,0-1.948-1.59l-4.623-1.277-11.894-7.594-1.344-4.661-7.073,5.474.064,1.329a6.994,6.994,0,0,0,4.213,6.085l11.55,4.979,5.49.128c1.768.61,2.379,2.135,3.477,1.586.409-.2-1.19-2.837-1.19-2.837l2.661,2.919Z" transform="translate(-557.445 -967.572)" fill="#ffbc96"/>
    <rect id="Rectangle_8434" data-name="Rectangle 8434" width="2.402" height="0.366" transform="translate(60.566 112.941) rotate(-49.66)" fill="#d28572"/>
    <path id="Path_19459" data-name="Path 19459" d="M672.13,1271.221l8.654-.766c5.633-.5,10.533,4.051,10.808,10.033l1.956,42.62-11.938.371Z" transform="translate(-610.517 -1138.799)" fill="#1e1e1e"/>
    <path id="Path_19460" data-name="Path 19460" d="M564.34,1435.3l.366,11.772h17.688l-8.723-7.258-.549-5.673Z" transform="translate(-492.287 -1251.039)" fill="#1b1b43"/>
    <rect id="Rectangle_8435" data-name="Rectangle 8435" width="4.697" height="0.732" transform="translate(77.437 191.356) rotate(-37.61)" fill="#fff"/>
    <path id="Path_19461" data-name="Path 19461" d="M532.81,1435.3l.365,11.772h17.69l-8.723-7.258-.549-5.673Z" transform="translate(-464.783 -1251.039)" fill="#1b1b43"/>
    <rect id="Rectangle_8436" data-name="Rectangle 8436" width="4.697" height="0.732" transform="translate(73.412 191.356) rotate(-37.61)" fill="#fff"/>
    <path id="Path_19462" data-name="Path 19462" d="M457.384,1289.2H442.745l-10.434-32.1-1.461-4.494-20.861-.092a5.777,5.777,0,0,1-3.569-1.5,8.481,8.481,0,0,1-2.837-7.682l1.83-13.055,30.992,4.03a13.917,13.917,0,0,1,11.832,10.965Z" transform="translate(-376.182 -1103.786)" fill="#1e1e1e"/>
    <path id="Path_19463" data-name="Path 19463" d="M432.48,1165.64l-2.84,4.5-1.461-4.5Z" transform="translate(-373.511 -1016.82)" fill="#1b1b43"/>
    <path id="Path_19464" data-name="Path 19464" d="M411.518,992.25q-.225.905-.469,1.816l-1.1,4.483-14.457-.6-10.408-.434a4.469,4.469,0,0,1-4.194-5.38l4.852-23.353a8.865,8.865,0,0,1,7.847-7.438l11.874-1.222,3.843,1.1c3.751,2.013,3.755,5.661,3.934,8.051C414.032,979.729,413.062,986.064,411.518,992.25Z" transform="translate(-356.381 -868.119)" fill="#1eb0bc"/>
    <path id="Path_19465" data-name="Path 19465" d="M442.116,1096.321c-.151.6,9.494,1.955,9.333,2.563l-1.1,4.483-14.457-.6c-5.051-3.81-6.943-12.1-8.784-22.487Z" transform="translate(-396.78 -972.937)" fill="#1b1b43" opacity="0.3"/>
    <path id="Path_19466" data-name="Path 19466" d="M521.381,1013a8.691,8.691,0,0,0,2.16,1.712,7.136,7.136,0,0,0,2.582.872,4.362,4.362,0,0,0,2.626-.383,2.7,2.7,0,0,0,1.411-2.158l.143.009a2.953,2.953,0,0,1-.364,1.393,2.774,2.774,0,0,1-1.033,1.033,4.521,4.521,0,0,1-2.831.467,7.041,7.041,0,0,1-2.69-.964,7.6,7.6,0,0,1-2.116-1.888Z" transform="translate(-478.918 -914.247)" fill="#1b1b43"/>
    <path id="Path_19467" data-name="Path 19467" d="M630.165,1032.471l-.273-.019A62.639,62.639,0,0,0,629.1,1019l.272-.041A63.178,63.178,0,0,1,630.165,1032.471Z" transform="translate(-572.981 -919.446)" fill="#1b1b43"/>
    <rect id="Rectangle_8437" data-name="Rectangle 8437" width="13.603" height="2.684" transform="translate(68.149 126.008)" fill="#1b1b43"/>
    <path id="Path_19468" data-name="Path 19468" d="M638.007,843.784H610.68l12.566-24.034h27.327Z" transform="translate(-532.71 -715.092)" fill="#c5f1ff"/>
    <path id="Path_19469" data-name="Path 19469" d="M443.287,798.089c-3.2-3.156-9.241-1.83-9.149,3.477-6.588,1.739-6.953,8.967-4.3,12.672l2.288.183.5-2.7,1.327,2.745,6.4.411Z" transform="translate(-397.813 -725.301)" fill="#1b1b43"/>
    <path id="Path_19470" data-name="Path 19470" d="M523.837,902.07v10.087a2.037,2.037,0,0,1-.012.267,3.385,3.385,0,0,1-4.22,3.012,6.806,6.806,0,0,1-5.107-6.647l.051-6.716Z" transform="translate(-473.011 -817.48)" fill="#ffbc96"/>
    <path id="Path_19471" data-name="Path 19471" d="M542.593,929.563v5.719a2.047,2.047,0,0,1-.011.267c-2.7-.437-5.816-3.558-6.582-6.958Z" transform="translate(-491.768 -840.614)" fill="#1b1b43"/>
    <path id="Path_19472" data-name="Path 19472" d="M528.7,846.857a18.168,18.168,0,0,1-.575,2.4c-.806,2.554-2.251,4.681-4.839,4.312-6.082-.871-9.469-7.137-9.469-7.137l4.161-4.757,2.792-3.755,8.37,3.616A31.479,31.479,0,0,1,528.7,846.857Z" transform="translate(-472.419 -761.521)" fill="#ffbc96"/>
    <path id="Path_19473" data-name="Path 19473" d="M499.615,813.935c2.67-.086,4.734-1.445,5.618-5.306,0,0,6.222,5.362,9.272,2.5,2.553-2.4-1.779-7.924-8.95-8.582a10.161,10.161,0,0,0-7.27,2.22c-3.475,2.785-3.809,9.263-.559,11.5Z" transform="translate(-456.414 -730.631)" fill="#1b1b43"/>
    <path id="Path_19474" data-name="Path 19474" d="M502.9,808.971a2.844,2.844,0,0,1,.237-1.93,4.29,4.29,0,0,1,1.253-1.542,4.412,4.412,0,0,1,1.788-.839,3.233,3.233,0,0,1,1.932.148,10.7,10.7,0,0,0-1.66.669,8.985,8.985,0,0,0-1.4.894,8.1,8.1,0,0,0-1.2,1.131A6.711,6.711,0,0,0,502.9,808.971Z" transform="translate(-462.823 -732.434)" fill="#ffa121"/>
    <ellipse id="Ellipse_2747" data-name="Ellipse 2747" cx="2.081" cy="2.515" rx="2.081" ry="2.515" transform="translate(39.54 82.168) rotate(-21.82)" fill="#ffbc96"/>
    <path id="Path_19475" data-name="Path 19475" d="M516.608,889.514a2.983,2.983,0,0,0-.08-1.255,3.418,3.418,0,0,0-.658-1.078l.089-.111a1.826,1.826,0,0,1,.786,2.486Z" transform="translate(-474.208 -804.396)" fill="#1b1b43"/>
    <ellipse id="Ellipse_2748" data-name="Ellipse 2748" cx="0.618" cy="0.684" rx="0.618" ry="0.684" transform="translate(51.161 83.084)" fill="#1b1b43"/>
    <ellipse id="Ellipse_2749" data-name="Ellipse 2749" cx="0.609" cy="0.55" rx="0.609" ry="0.55" transform="matrix(0.122, -0.993, 0.993, 0.122, 54.471, 84.768)" fill="#1b1b43"/>
    <path id="Path_19476" data-name="Path 19476" d="M582.516,879.02c.024.319-.486.35-1.24.373s-1.277.255-1.277.054.552-.721,1.295-.847C582.057,878.469,582.486,878.64,582.516,879.02Z" transform="translate(-530.15 -796.969)" fill="#1b1b43"/>
    <path id="Path_19477" data-name="Path 19477" d="M618.524,881.917c-.055.315.32.4.877.494s.917.383.945.181a1.358,1.358,0,0,0-.863-.97C618.945,881.417,618.59,881.541,618.524,881.917Z" transform="translate(-563.75 -799.557)" fill="#1b1b43"/>
    <path id="Path_19478" data-name="Path 19478" d="M610.633,904.31a5.333,5.333,0,0,0,.465.481l.246.23a1.391,1.391,0,0,1,.255.291.526.526,0,0,1,.078.244.481.481,0,0,1-.061.255.9.9,0,0,1-.295.3,1.847,1.847,0,0,1-.684.248l-.054-.128a5.069,5.069,0,0,0,.545-.373.705.705,0,0,0,.17-.2c.028-.061.02-.082-.014-.153-.082-.128-.289-.312-.424-.5a2.073,2.073,0,0,1-.36-.623Z" transform="translate(-556.756 -819.434)" fill="#1b1b43"/>
    <path id="Path_19479" data-name="Path 19479" d="M586.469,922a4.657,4.657,0,0,0,1.232,1.073,2.581,2.581,0,0,0,1.556.269l.038.138a1.921,1.921,0,0,1-.885.167,2.023,2.023,0,0,1-.882-.255,2.831,2.831,0,0,1-1.178-1.315Z" transform="translate(-535.689 -834.866)" fill="#1b1b43"/>
    <circle id="Ellipse_2750" data-name="Ellipse 2750" cx="1.51" cy="1.51" r="1.51" transform="translate(47.074 83.72)" fill="#fe5b52" opacity="0.2"/>
    <path id="Path_19480" data-name="Path 19480" d="M623.878,907.92a18.178,18.178,0,0,1-.575,2.4,1.509,1.509,0,0,1,.575-2.4Z" transform="translate(-567.596 -822.583)" fill="#fe5b52" opacity="0.2"/>
    <path id="Path_19481" data-name="Path 19481" d="M246.283,808.29l-8.723,4.147,2.736,6.486,9.146-4.218Z" transform="translate(-207.229 -705.095)" fill="#1eb0bc"/>
    <path id="Path_19482" data-name="Path 19482" d="M745.813,1221.384c-.241-.121-.393-.2-.393-.2l.087-.172s.161.078.395.2Z" transform="translate(-674.45 -1095.699)" fill="#c5c5ff"/>
    <path id="Path_19483" data-name="Path 19483" d="M490.446,1114.981c-.282.557-2.441-.428-3.447-.922.78.432,2.123,1.277,1.532,1.745-.48.37-1.541-.418-5.018-1.859.527.249,3.634,1.728,2.851,2.288-.853.608-4.512-.732-4.512-.732l-3.173,1.706h-3.667l-13.169.084a9.6,9.6,0,0,1-2.441-.308,10.952,10.952,0,0,1-4.282-2.218,10.756,10.756,0,0,1-2.031-2.28,12.19,12.19,0,0,1-1.087-2.035l-3.473-8.228,9.146-4.224,4.773,9.688,15.737,3.418,4.392-1.1a4.619,4.619,0,0,1,3.111.67C487.717,1111.917,490.709,1114.45,490.446,1114.981Z" transform="translate(-415.466 -988.395)" fill="#ffbc96"/>
    <path id="Path_19484" data-name="Path 19484" d="M490.8,1208.491a3.987,3.987,0,0,1-.237,1.361,10.948,10.948,0,0,1-4.282-2.218,10.748,10.748,0,0,1-2.031-2.28,4.027,4.027,0,0,1,6.551,3.137Z" transform="translate(-446.625 -1081.266)" fill="#fe5b52" opacity="0.2"/>
    <path id="Path_19485" data-name="Path 19485" d="M680.63,1192.165a29.916,29.916,0,0,1,3.32-.911,11.907,11.907,0,0,1,1.717-.245,5.21,5.21,0,0,1,.884.023c.147.029.294.068.44.1a3.3,3.3,0,0,1,.414.158,14.228,14.228,0,0,1,2.906,1.894,33.272,33.272,0,0,1,2.58,2.3l.038.037.008.047a.693.693,0,0,1-.087.5.59.59,0,0,1-.2.175.572.572,0,0,1-.229.079,1.889,1.889,0,0,1-.822-.08,8.157,8.157,0,0,1-1.421-.6c-.448-.24-.894-.489-1.318-.757s-.849-.546-1.277-.821l.194-.309a22.729,22.729,0,0,1,2.17,1.439,5.818,5.818,0,0,1,.982.9,1.292,1.292,0,0,1,.19.322.6.6,0,0,1,.043.223.428.428,0,0,1-.094.255.669.669,0,0,1-.372.207,2.157,2.157,0,0,1-.352.05h-.036l-.04-.017-3.973-1.66.119-.28a13.878,13.878,0,0,1,1.816.981,2.459,2.459,0,0,1,.79.735.429.429,0,0,1,.033.35.471.471,0,0,1-.236.243,1.313,1.313,0,0,1-.546.128,7.706,7.706,0,0,1-2.043-.314,19.93,19.93,0,0,1-1.955-.614l.049-.134c.638.214,1.3.4,1.953.562a6.988,6.988,0,0,0,1.984.255c.312-.013.682-.149.531-.355a2.317,2.317,0,0,0-.709-.624,13.594,13.594,0,0,0-1.787-.932l.119-.28,3.987,1.629-.075-.013a1.868,1.868,0,0,0,.286-.042.362.362,0,0,0,.186-.089c.056-.022-.019-.218-.144-.366a5.541,5.541,0,0,0-.913-.845,22.424,22.424,0,0,0-2.141-1.4l.194-.309c.421.27.829.561,1.258.816s.854.511,1.292.75a7.844,7.844,0,0,0,1.351.576,1.592,1.592,0,0,0,.661.078l.07-.013a.382.382,0,0,0,.054-.027c.042-.013.055-.046.084-.066a.369.369,0,0,0,.04-.231l.046.084c-.809-.8-1.66-1.564-2.541-2.288a13.793,13.793,0,0,0-2.809-1.888l-.383-.153c-.128-.032-.263-.069-.4-.1a4.954,4.954,0,0,0-.833-.032,12.034,12.034,0,0,0-1.688.2,29.734,29.734,0,0,0-3.32.831Z" transform="translate(-617.932 -1069.52)" fill="#d28572"/>
    <path id="Path_19486" data-name="Path 19486" d="M258.635,801.567l-.115-.249,9.024-4.164-3.759-8.8.253-.107,3.863,9.042Z" transform="translate(-225.513 -687.614)" fill="#1b1b43"/>
    <rect id="Rectangle_8438" data-name="Rectangle 8438" width="0.479" height="41.235" transform="translate(33.934 152.481)" fill="#1b1b43"/>
    <rect id="Rectangle_8439" data-name="Rectangle 8439" width="28.73" height="5.673" rx="2.836" transform="translate(19.809 148.637)" fill="#c5f1ff"/>
    <path id="Path_19487" data-name="Path 19487" d="M195.956,1501.22h10.868a4.264,4.264,0,0,1,4.264,4.264v.469h-19.4v-.469A4.265,4.265,0,0,1,195.956,1501.22Z" transform="translate(-167.216 -1309.554)" fill="#c5f1ff"/>
    <rect id="Rectangle_8440" data-name="Rectangle 8440" width="0.479" height="76.593" transform="translate(61.666 131.458) rotate(-32.25)" fill="#1b1b43"/>
    <rect id="Rectangle_8441" data-name="Rectangle 8441" width="76.593" height="0.479" transform="translate(61.656 195.979) rotate(-57.74)" fill="#1b1b43"/>
    <rect id="Rectangle_8442" data-name="Rectangle 8442" width="71.611" height="5.401" transform="translate(46.495 128.692)" fill="#c5f1ff"/>
    <path id="Path_19488" data-name="Path 19488" d="M498.539,368.62a14.965,14.965,0,1,1,14.971-14.968A14.965,14.965,0,0,1,498.539,368.62Zm0-29.612a14.646,14.646,0,1,0,14.646,14.646,14.646,14.646,0,0,0-14.646-14.646Z" transform="translate(-446.04 -326.031)" fill="#9192ff"/>
    <circle id="Ellipse_2751" data-name="Ellipse 2751" cx="16.283" cy="16.283" r="16.283" transform="translate(46.335 5.477)" fill="#c5f1ff"/>
    <path id="Path_19489" data-name="Path 19489" d="M428.808,121.964l-9.028-7.077.3-.377,8.72,6.836,4.862-4.118.309.365Z" transform="translate(-366.184 -99.895)" fill="#1b1b43"/>
    <path id="Path_19490" data-name="Path 19490" d="M276.091,685h-8.262a2.409,2.409,0,0,0-2.409,2.409v8.268a2.409,2.409,0,0,0,2.409,2.409h5.9l2.543,3.511v-3.52a2.408,2.408,0,0,0,2.234-2.4v-8.268A2.409,2.409,0,0,0,276.091,685Z" transform="translate(-255.734 -628.125)" fill="#fff"/>
    <path id="Path_19491" data-name="Path 19491" d="M275.342,701l-2.783-3.844h-5.82a2.571,2.571,0,0,1-2.569-2.569v-8.268a2.571,2.571,0,0,1,2.569-2.569H275a2.571,2.571,0,0,1,2.569,2.569v8.268a2.577,2.577,0,0,1-2.234,2.545Zm-8.6-16.931a2.252,2.252,0,0,0-2.25,2.25v8.268a2.252,2.252,0,0,0,2.25,2.25h5.983l2.3,3.178v-3.175l.148-.01a2.256,2.256,0,0,0,2.086-2.241v-8.27a2.252,2.252,0,0,0-2.253-2.25Z" transform="translate(-254.644 -627.035)" fill="#c5f1ff"/>
    <path id="Path_19492" data-name="Path 19492" d="M103.169,472.882,99.86,468.1l.786-.545,2.436,3.517,3.668-6.564.836.467Z" transform="translate(-87.11 -405.208)" fill="#c5f1ff"/>
    <rect id="Rectangle_8443" data-name="Rectangle 8443" width="196.168" height="0.479" transform="translate(6.44 195.92)" fill="#1b1b43"/>
  </g>
</svg>
