<svg xmlns="http://www.w3.org/2000/svg" width="56.236" height="54.674" viewBox="0 0 56.236 54.674">
  <path id="protocol-labs" d="M31.736,7.462a.649.649,0,0,1,0-1.231L41.93.379a2.391,2.391,0,0,1,2.148,0L54.271,6.231a.649.649,0,0,1,0,1.231L44.078,13.315a2.4,2.4,0,0,1-2.148,0Zm12.414,9.68a2.369,2.369,0,0,1,1.073-1.851L55.415,9.443c.591-.341,1.072-.053,1.072.636V38.54A2.4,2.4,0,0,1,55.4,40.42L30.61,54.643c-.6.347-1.09.072-1.09-.606V42.332a2.37,2.37,0,0,1,1.075-1.848l12.48-7.162a2.377,2.377,0,0,0,1.075-1.853ZM12.581,45.632c0,.681-.484.958-1.073.619L1.323,40.406A2.376,2.376,0,0,1,.25,38.537V10.075c0-.692.492-.97,1.09-.625L26.127,23.674a2.382,2.382,0,0,1,1.09,1.859v11.7c0,.681-.487.953-1.078.616L13.658,30.689c-.594-.344-1.076-.059-1.076.616ZM39.619,14.621c.6.345.608.9.017,1.242l-10.2,5.853a2.412,2.412,0,0,1-2.165-.009L2.484,7.476c-.6-.344-.608-.9-.017-1.242L12.664.381A2.412,2.412,0,0,1,14.829.39Zm2.239,15.537A2.358,2.358,0,0,1,40.784,32l-10.191,5.85c-.59.341-1.073.061-1.073-.617v-11.7a2.363,2.363,0,0,1,1.073-1.85l10.193-5.849c.59-.34,1.073-.061,1.073.616ZM26.142,40.484a2.359,2.359,0,0,1,1.075,1.848V54.037c0,.681-.484.956-1.073.617L15.956,48.808a2.367,2.367,0,0,1-1.072-1.848V35.254c0-.681.484-.956,1.072-.617Z" transform="translate(-0.25 -0.125)" fill="#c6c6c6" fill-rule="evenodd"/>
</svg>
