<svg xmlns="http://www.w3.org/2000/svg" width="129.254" height="40.552" viewBox="0 0 129.254 40.552">
  <g id="qrl" transform="translate(-0.875 -0.75)">
    <path id="Path_1001" data-name="Path 1001" d="M42.847,29.241a.8.8,0,0,0-.8.8v2.38H31.786l-.014-1.5A16.554,16.554,0,1,0,12.747,30.9c.014,0,.014,0,.014.014l-.014,1.5H2.471v-2.38a.8.8,0,0,0-1.6,0V34H14.289l.041-3.448a.8.8,0,0,0-.5-.744,1.012,1.012,0,0,0-.2-.216,14.98,14.98,0,1,1,17.024.162.84.84,0,0,0-.189.189.772.772,0,0,0-.27.595l.041,3.448H43.645V30.025A.788.788,0,0,0,42.847,29.241Z" fill="#c6c6c6"/>
    <path id="Path_1002" data-name="Path 1002" d="M32.261,18.473c-.325-.392-.676-.8-1.055-1.19.379-.392.73-.8,1.055-1.19,1.758-2.191,2.312-4.124,1.541-5.463-.581-1.014-1.852-1.542-3.664-1.542a14.081,14.081,0,0,0-3.394.473c-.974-3.394-2.6-5.585-4.449-5.585S18.82,6.155,17.847,9.562a14.081,14.081,0,0,0-3.394-.473c-1.812,0-3.083.541-3.664,1.542-.771,1.339-.216,3.272,1.541,5.463.325.392.676.8,1.055,1.19-2.447,2.542-3.529,5.03-2.6,6.639.595,1.028,1.852,1.569,3.664,1.569a14.081,14.081,0,0,0,3.394-.473c.974,3.394,2.583,5.571,4.449,5.571s3.475-2.177,4.449-5.571a14.081,14.081,0,0,0,3.394.473c1.812,0,3.083-.541,3.664-1.541C34.573,22.611,34.019,20.664,32.261,18.473Zm-2.123-8.384c1,0,2.3.176,2.8,1.055.541.933.014,2.515-1.46,4.341-.3.365-.636.744-.987,1.122a27.568,27.568,0,0,0-2.907-2.366,26.534,26.534,0,0,0-.595-3.705A13.552,13.552,0,0,1,30.138,10.089ZM24.527,21.137c-.744.419-1.487.811-2.218,1.163-.744-.352-1.487-.744-2.218-1.176s-1.447-.879-2.123-1.339c-.054-.8-.095-1.636-.095-2.515s.041-1.717.095-2.515c.663-.446,1.366-.906,2.123-1.339s1.487-.811,2.218-1.163c.744.352,1.487.744,2.218,1.163s1.447.879,2.123,1.339c.068.8.095,1.636.095,2.515s-.027,1.7-.095,2.515A24.516,24.516,0,0,1,24.527,21.137Zm2-.068a24.593,24.593,0,0,1-.473,2.718,26.586,26.586,0,0,1-2.6-.947c.514-.27,1.041-.541,1.555-.838S26.041,21.394,26.528,21.069Zm-5.4,1.771a23.449,23.449,0,0,1-2.6.947c-.189-.838-.352-1.744-.473-2.718.487.311.987.622,1.514.933S20.619,22.57,21.133,22.841Zm-4.219-3.786c-.771-.581-1.474-1.176-2.123-1.771a24.9,24.9,0,0,1,2.123-1.771c-.027.581-.054,1.163-.054,1.771S16.887,18.473,16.914,19.054Zm1.163-5.544a24.6,24.6,0,0,1,.473-2.718,26.578,26.578,0,0,1,2.6.947c-.514.27-1.041.541-1.555.838S18.564,13.2,18.077,13.51Zm5.382-1.771a22.519,22.519,0,0,1,2.6-.947c.189.838.352,1.744.473,2.718-.487-.311-.987-.622-1.514-.933C24.5,12.293,23.986,12.01,23.458,11.739Zm4.232,3.786A25.932,25.932,0,0,1,29.8,17.283a25.484,25.484,0,0,1-2.109,1.758c.027-.581.041-1.163.041-1.758S27.718,16.107,27.691,15.525ZM22.3,4.992c1.3,0,2.65,1.8,3.516,4.841A28.527,28.527,0,0,0,22.3,11.171,26.492,26.492,0,0,0,18.78,9.833C19.659,6.79,21,4.992,22.3,4.992ZM11.654,11.144c.5-.865,1.8-1.055,2.8-1.055a13.255,13.255,0,0,1,3.137.446A26.549,26.549,0,0,0,17,14.241a28.2,28.2,0,0,0-2.907,2.366,14.654,14.654,0,0,1-.987-1.122C11.64,13.659,11.113,12.077,11.654,11.144Zm2.8,13.346c-1,0-2.3-.176-2.8-1.055-.649-1.122.243-3.191,2.434-5.463a26.441,26.441,0,0,0,2.921,2.366,26.55,26.55,0,0,0,.595,3.7A12.778,12.778,0,0,1,14.453,24.49Zm7.843,5.1c-1.3,0-2.65-1.8-3.516-4.841A28.526,28.526,0,0,0,22.3,23.408a26.506,26.506,0,0,0,3.516,1.339C24.946,27.79,23.594,29.588,22.3,29.588Zm10.655-6.152c-.5.865-1.8,1.055-2.8,1.055A13.456,13.456,0,0,1,27,24.044a26.535,26.535,0,0,0,.595-3.7A26.251,26.251,0,0,0,30.5,17.973,12.471,12.471,0,0,1,31.49,19.1C32.964,20.92,33.492,22.5,32.951,23.435Z" transform="translate(0.012 0.004)" fill="#c6c6c6"/>
    <path id="Path_1003" data-name="Path 1003" d="M22.283,13.525a3.759,3.759,0,1,0,3.759,3.759A3.768,3.768,0,0,0,22.283,13.525Zm0,6.531a2.772,2.772,0,1,1,2.772-2.772A2.776,2.776,0,0,1,22.283,20.056Z" transform="translate(0.023 0.016)" fill="#c6c6c6"/>
    <path id="Path_1004" data-name="Path 1004" d="M62.836,34.838q-7.383,0-10.2-4.043c-1.88-2.691-2.813-6.937-2.813-12.711q0-8.722,2.853-12.913Q55.541.932,62.823.939T72.964,5.131q2.9,4.2,2.907,12.913a31.23,31.23,0,0,1-1.244,9.722,9.638,9.638,0,0,1-4.232,5.382l4.043,6.531L71,41.3l-4.192-6.856A16.725,16.725,0,0,1,62.836,34.838ZM53.6,18.031q0,7.241,1.907,10.425,1.907,3.144,7.329,3.137,5.476,0,7.329-3.042,1.907-3.1,1.907-10.385,0-7.342-1.947-10.669c-1.3-2.218-3.746-3.34-7.329-3.34q-5.334,0-7.288,3.34C54.236,9.7,53.6,13.2,53.6,18.031Z" transform="translate(0.063 0)" fill="#c6c6c6"/>
    <path id="Path_1005" data-name="Path 1005" d="M86.242,21.749V34.364H82.578V1.412H94.761q5.233,0,7.856,2.434c1.771,1.623,2.663,4.138,2.663,7.572q0,7.626-6.044,9.573l6.328,13.387h-4.043l-5.95-12.616h-9.33ZM94.815,18.5q6.714,0,6.72-6.91,0-6.957-6.76-6.95H86.256V18.5Z" transform="translate(0.105 0.001)" fill="#c6c6c6"/>
    <path id="Path_1006" data-name="Path 1006" d="M129.986,34.364H111.84V1.412H115.5V31.079h14.482Z" transform="translate(0.143 0.001)" fill="#c6c6c6"/>
  </g>
</svg>
