<svg xmlns="http://www.w3.org/2000/svg" xmlns:xlink="http://www.w3.org/1999/xlink" width="561.649" height="415.697" viewBox="0 0 561.649 415.697">
  <defs>
    <clipPath id="clip-path">
      <rect id="Rectangle_6548" data-name="Rectangle 6548" width="561.649" height="415.697" transform="translate(0.658)" fill="#fff"/>
    </clipPath>
  </defs>
  <g id="step-3" transform="translate(-0.658)" clip-path="url(#clip-path)">
    <g id="Group_3919" data-name="Group 3919" transform="translate(87.484)">
      <path id="Path_18339" data-name="Path 18339" d="M451.3,193.992c0,107.139-86.853,193.992-193.992,193.992S63.318,301.131,63.318,193.992,150.172,0,257.31,0,451.3,86.853,451.3,193.992Z" transform="translate(-63.318)" fill="#fff"/>
      <path id="Path_18340" data-name="Path 18340" d="M451.3,193.992c0,107.139-86.853,193.992-193.992,193.992S63.318,301.131,63.318,193.992,150.172,0,257.31,0,451.3,86.853,451.3,193.992Z" transform="translate(-63.318)" fill="#fff"/>
    </g>
    <path id="Path_18341" data-name="Path 18341" d="M451.3,193.992c0,107.139-86.853,193.992-193.992,193.992S63.318,301.131,63.318,193.992,150.172,0,257.31,0,451.3,86.853,451.3,193.992Z" transform="translate(24.165)" fill="#f1f1f2" opacity="0.56"/>
    <rect id="Rectangle_6547" data-name="Rectangle 6547" width="53.001" height="53.001" rx="19.125" transform="translate(254.975 361.483)" fill="#fcfcfc" stroke="#22b9af" stroke-width="1.75"/>
    <path id="Path_18342" data-name="Path 18342" d="M203.168,283.856h2.45c2.408,0,3.87,1.2,3.87,3.166,0,1.894-1.584,3.166-3.83,3.166s-3.79-1.164-3.938-2.976h-3.342c.162,3.532,3.072,5.846,7.32,5.846,4.222,0,7.362-2.436,7.362-5.792a4.633,4.633,0,0,0-4.318-4.79v-.23a4.493,4.493,0,0,0,3.56-4.466c.014-2.8-2.328-5.223-6.482-5.223-4.236,0-6.888,2.394-7.064,5.818h3.276c.148-1.948,1.474-3.032,3.6-3.032,2.07,0,3.3,1.272,3.3,2.882a3.072,3.072,0,0,1-3.382,3.018h-2.382Z" transform="translate(76.252 105.114)" fill="#22b9af"/>
    <path id="Path_18343" data-name="Path 18343" d="M133.477,219.854c-1.982-1.165-1.982-2.972,0-4.139L162.5,198.987a7.788,7.788,0,0,1,7.169,0l73.9,42.606c1.982,1.165,1.982,2.972,0,4.139L214.55,262.46a7.785,7.785,0,0,1-7.168,0Z" transform="translate(50.649 76.404)" fill="rgba(17,26,36,0.05)"/>
    <path id="Path_18344" data-name="Path 18344" d="M269.383,242.913c0,7.582-11.659,13.728-26.041,13.728S217.3,250.5,217.3,242.913s11.659-13.728,26.041-13.728S269.383,235.33,269.383,242.913Z" transform="translate(83.55 88.387)" fill="rgba(33,189,202,0.1)"/>
    <path id="Path_18345" data-name="Path 18345" d="M390.2,183.285c2.4-1.415,3.632-3.2,3.806-5.026h.043v-.621c-.085-1.916-1.351-3.824-3.86-5.288L242.33,86.15c-5.177-3.017-13.561-3.023-18.741,0l-92.637,54.006c-2.526,1.476-3.8,3.4-3.836,5.336a.686.686,0,0,0,0,.249v.175h.014c.127,1.875,1.382,3.732,3.849,5.169l147.841,86.188c5.182,3.022,13.567,3.025,18.747,0Z" transform="translate(48.765 32.351)" fill="rgba(17,26,36,0.05)"/>
    <path id="Path_18346" data-name="Path 18346" d="M279.925,97.655a2.84,2.84,0,0,0-1.681-2.335L258.789,84.083a8.894,8.894,0,0,0-8.078,0L231.273,95.306a2.79,2.79,0,0,0-1.667,2.349v31.1a2.828,2.828,0,0,0,1.67,2.328l19.46,11.234a8.918,8.918,0,0,0,8.076,0l19.449-11.22a2.8,2.8,0,0,0,1.67-2.342Z" transform="translate(88.295 32.053)" fill="#fff"/>
    <path id="Path_18347" data-name="Path 18347" d="M272.9,93.51a2.727,2.727,0,0,1-1.65,2.463L251.811,107.2a8.257,8.257,0,0,1-4.047.974v31.105a8.189,8.189,0,0,0,4.047-.966l19.446-11.22a2.8,2.8,0,0,0,1.67-2.342v-31.1A.887.887,0,0,1,272.9,93.51Z" transform="translate(95.298 36.063)" fill="#cee7fd"/>
    <g id="Group_3920" data-name="Group 3920" transform="translate(317.899 129.71)" opacity="0.5">
      <path id="Path_18348" data-name="Path 18348" d="M250.739,107.157,231.275,95.924a2.854,2.854,0,0,1-1.671-2.315v31.1a2.827,2.827,0,0,0,1.671,2.327l19.459,11.234a8.293,8.293,0,0,0,4.028.966V108.132A8.293,8.293,0,0,1,250.739,107.157Z" transform="translate(-229.604 -93.609)" fill="#cee7fd" opacity="0.5"/>
    </g>
    <path id="Path_18349" data-name="Path 18349" d="M255.046,144.586a9.31,9.31,0,0,1-4.528-1.1l-19.457-11.238a3.769,3.769,0,0,1-2.18-3.208v-31.1a3.807,3.807,0,0,1,2.177-3.232l19.431-11.22a9.891,9.891,0,0,1,9.1,0l19.452,11.234a3.845,3.845,0,0,1,2.191,3.213V129.04a.767.767,0,0,1,0,.08,3.833,3.833,0,0,1-2.177,3.141L259.6,143.486A9.291,9.291,0,0,1,255.046,144.586Zm-.028-60.171a7.221,7.221,0,0,0-3.529.832L232.063,96.47c-.741.425-1.163.957-1.157,1.458v31.1c0,.5.421,1.028,1.16,1.452l19.46,11.238a7.954,7.954,0,0,0,7.077,0L278.036,130.5c.754-.432,1.167-.951,1.164-1.458a.607.607,0,0,1,0-.071V97.942c0-.5-.427-1.03-1.169-1.455L258.574,85.25a7.22,7.22,0,0,0-3.544-.835Z" transform="translate(88.016 31.77)" fill="#1496a3"/>
    <path id="Path_18350" data-name="Path 18350" d="M306.835,97.512a2.831,2.831,0,0,0-1.672-2.33L285.711,83.949a8.919,8.919,0,0,0-8.078,0l-19.438,11.22a2.818,2.818,0,0,0-1.67,2.346V150.4a2.836,2.836,0,0,0,1.677,2.324l19.453,11.231a8.878,8.878,0,0,0,8.081,0l19.438-11.222a2.816,2.816,0,0,0,1.664-2.338Z" transform="translate(98.677 32.002)" fill="#21bdca"/>
    <path id="Path_18351" data-name="Path 18351" d="M299.815,93.367a2.743,2.743,0,0,1-1.65,2.468l-19.438,11.22a8.235,8.235,0,0,1-4.047.971v52.888a8.219,8.219,0,0,0,4.047-.962l19.438-11.224a2.815,2.815,0,0,0,1.664-2.338V93.5A.729.729,0,0,0,299.815,93.367Z" transform="translate(105.678 36.008)" fill="rgba(9,124,136,0.65)"/>
    <g id="Group_3921" data-name="Group 3921" transform="translate(355.194 129.51)" opacity="0.23">
      <path id="Path_18352" data-name="Path 18352" d="M277.649,107.02,258.194,95.783a2.859,2.859,0,0,1-1.675-2.318v52.891a2.835,2.835,0,0,0,1.675,2.324l19.455,11.232a8.2,8.2,0,0,0,4.034.969V107.991A8.449,8.449,0,0,1,277.649,107.02Z" transform="translate(-256.519 -93.465)"/>
    </g>
    <path id="Path_18353" data-name="Path 18353" d="M281.978,166.226a9.255,9.255,0,0,1-4.557-1.11l-19.448-11.232a3.811,3.811,0,0,1-2.182-3.2V97.792a3.8,3.8,0,0,1,2.177-3.224L277.4,83.356a9.939,9.939,0,0,1,9.1,0l19.457,11.232a3.866,3.866,0,0,1,2.182,3.207V150.68a1.075,1.075,0,0,1,0,.133,3.819,3.819,0,0,1-2.171,3.087l-19.437,11.221A9.248,9.248,0,0,1,281.978,166.226Zm-.039-81.95a7.262,7.262,0,0,0-3.525.827L258.98,96.323c-.741.43-1.167.962-1.164,1.46v52.883c0,.5.428,1.03,1.167,1.458l19.455,11.231a7.918,7.918,0,0,0,7.077,0l19.426-11.217c.739-.428,1.16-.958,1.157-1.452V97.792c0-.5-.424-1.025-1.165-1.449L285.474,85.108A7.274,7.274,0,0,0,281.939,84.276Z" transform="translate(98.393 31.722)" fill="#1496a3"/>
    <path id="Path_18354" data-name="Path 18354" d="M332.855,98.909a2.834,2.834,0,0,0-1.675-2.332L311.722,85.348a8.911,8.911,0,0,0-8.078,0L284.21,96.563a2.828,2.828,0,0,0-1.67,2.352V123.8a2.807,2.807,0,0,0,1.681,2.315l19.455,11.246a8.966,8.966,0,0,0,8.078,0l19.423-11.238a2.825,2.825,0,0,0,1.67-2.335Z" transform="translate(108.71 32.542)" fill="#fff"/>
    <path id="Path_18355" data-name="Path 18355" d="M332.858,132.416a2.834,2.834,0,0,0-1.677-2.332l-19.466-11.221a8.915,8.915,0,0,0-8.078,0L284.2,130.079a2.827,2.827,0,0,0-1.67,2.351v24.889a2.809,2.809,0,0,0,1.681,2.315l19.455,11.246a8.967,8.967,0,0,0,8.078,0l19.434-11.227a2.824,2.824,0,0,0,1.67-2.335Z" transform="translate(108.707 45.467)" fill="#fff"/>
    <path id="Path_18356" data-name="Path 18356" d="M333.582,116.15a2.825,2.825,0,0,0-1.675-2.329l-19.457-11.229a8.915,8.915,0,0,0-8.078,0l-19.434,11.217a2.825,2.825,0,0,0-1.67,2.35V141.05a2.809,2.809,0,0,0,1.681,2.315L304.4,154.61a8.958,8.958,0,0,0,8.078,0l19.434-11.225a2.8,2.8,0,0,0,1.67-2.335Z" transform="translate(108.99 39.192)" fill="#fff"/>
    <path id="Path_18357" data-name="Path 18357" d="M332.855,85.866a2.827,2.827,0,0,0-1.675-2.33L311.722,72.308a8.911,8.911,0,0,0-8.078,0L284.21,83.525a2.825,2.825,0,0,0-1.67,2.349v24.872a2.809,2.809,0,0,0,1.681,2.316L303.675,124.3a8.941,8.941,0,0,0,8.078,0l19.434-11.222a2.834,2.834,0,0,0,1.671-2.335Z" transform="translate(108.71 27.513)" fill="#fff"/>
    <path id="Path_18358" data-name="Path 18358" d="M325.852,81.859c0-.04-.019-.085-.019-.13a2.746,2.746,0,0,1-1.65,2.465L304.745,95.421a8.313,8.313,0,0,1-4.047.96v89.391a8.23,8.23,0,0,0,4.05-.959l19.434-11.227a2.826,2.826,0,0,0,1.67-2.335V81.859Z" transform="translate(115.713 31.52)" fill="rgba(20,150,163,0.22)"/>
    <path id="Path_18359" data-name="Path 18359" d="M282.532,81.859c0-.04.019-.085.019-.13a2.749,2.749,0,0,0,1.653,2.465L303.64,95.421a8.3,8.3,0,0,0,4.05.96v89.391a8.208,8.208,0,0,1-4.05-.959L284.2,173.586a2.8,2.8,0,0,1-1.672-2.335V81.859Z" transform="translate(108.707 31.52)" fill="rgba(33,189,202,0.16)"/>
    <path id="Path_18360" data-name="Path 18360" d="M333.19,129.306h-1.072v23.861c0,.489-.421,1.016-1.163,1.447l-19.432,11.222a7.957,7.957,0,0,1-7.061,0L285,154.587c-.739-.418-1.164-.942-1.167-1.445V128.9a1.818,1.818,0,0,1-.7.166,2.231,2.231,0,0,1-1.337-.432v24.526a3.819,3.819,0,0,0,2.188,3.19L303.441,167.6a9.971,9.971,0,0,0,9.1,0l19.434-11.227a3.775,3.775,0,0,0,2.177-3.212V128.929a1.285,1.285,0,0,1-.441.285A1.313,1.313,0,0,1,333.19,129.306Z" transform="translate(108.423 49.61)" fill="#1496a3"/>
    <path id="Path_18361" data-name="Path 18361" d="M332.117,86.148v24.045h2.033V86.148a3.806,3.806,0,0,0-2.182-3.21L312.51,71.713a9.917,9.917,0,0,0-9.094,0l-19.441,11.22A3.812,3.812,0,0,0,281.8,86.16v24.312h2.033V86.131c0-.5.421-1.03,1.161-1.463l19.434-11.215a7.963,7.963,0,0,1,7.077,0L330.96,84.682C331.693,85.118,332.117,85.644,332.117,86.148Z" transform="translate(108.424 27.231)" fill="#1496a3"/>
    <path id="Path_18362" data-name="Path 18362" d="M281.8,95.324v50.046h2.033V95.435C283.155,95.412,282.476,95.381,281.8,95.324Z" transform="translate(108.424 36.763)" fill="#1496a3"/>
    <path id="Path_18363" data-name="Path 18363" d="M318.111,98.073v50.049h2.033V98.186C319.468,98.161,318.791,98.129,318.111,98.073Z" transform="translate(122.428 37.823)" fill="#1496a3"/>
    <path id="Path_18364" data-name="Path 18364" d="M285.714,268.855a1.1,1.1,0,0,1-.213.141l-.155.073h-.014c-1.682.833-3.92.662-6.4-.79l-149.055-86.9c-5.225-3.043-9.452-10.435-9.457-16.518V55.96c0-2.83.934-4.812,2.429-5.888l-.024-.04.212-.124a3.35,3.35,0,0,1,.32-.187l31.114-18.135c1.724-1.149,4.164-1.1,6.9.487l149.065,86.914c5.225,3.037,9.454,10.431,9.46,16.517v108.9c0,3.114-1.113,5.245-2.888,6.208Z" transform="translate(46.185 11.876)" fill="#21bdca"/>
    <g id="Group_3922" data-name="Group 3922" transform="translate(263.994 138.088)" opacity="0.3">
      <path id="Path_18365" data-name="Path 18365" d="M235.595,191.6c0,2.151-1.5,3.019-3.339,1.944l-38.212-22.281a7.44,7.44,0,0,1-3.341-5.839V102.058c0-2.146,1.5-3.017,3.341-1.942L232.255,122.4a7.424,7.424,0,0,1,3.337,5.831Z" transform="translate(-190.702 -99.655)"/>
    </g>
    <g id="Group_3923" data-name="Group 3923" transform="translate(166.607 124.85)" opacity="0.3">
      <path id="Path_18366" data-name="Path 18366" d="M172.273,175.808a.156.156,0,0,1-.068.029c6.338-3.436,10.294-11.119,10.3-22.2,0-21.673-15.1-48.052-33.706-58.9-9.463-5.52-18.008-5.944-24.134-2.2a16.856,16.856,0,0,0-4.246,3.773V138.59A82.357,82.357,0,0,0,134.511,161.2L163.1,177.867A17.575,17.575,0,0,0,172.273,175.808Z" transform="translate(-120.42 -90.102)"/>
    </g>
    <g id="Group_3924" data-name="Group 3924" transform="translate(169.55 42.67)" opacity="0.3">
      <path id="Path_18367" data-name="Path 18367" d="M287.565,262.781V153.887c0-6.094-4.246-13.481-9.452-16.524L129.054,50.451c-2.53-1.469-4.811-1.628-6.51-.73l31.1-18.135c1.724-1.149,4.164-1.1,6.9.487l149.065,86.914c5.225,3.037,9.453,10.431,9.46,16.517v108.9c0,3.114-1.113,5.245-2.888,6.206l-31.3,18.235C286.545,267.843,287.565,265.75,287.565,262.781Z" transform="translate(-122.544 -30.794)"/>
    </g>
    <g id="Group_3925" data-name="Group 3925" transform="translate(183.204 51.881)" opacity="0.2">
      <path id="Path_18368" data-name="Path 18368" d="M297.821,252.026V143.13c0-6.086-4.232-13.477-9.46-16.52l-149.066-86.9c-2.73-1.594-5.175-1.645-6.9-.5l1.7-.994v.014c1.724-1.155,4.164-1.1,6.906.487l149.062,86.914c5.225,3.037,9.46,10.431,9.452,16.517v108.9c0,3.114-1.113,5.245-2.888,6.208l-1.7.993C296.7,257.277,297.815,255.132,297.821,252.026Z" transform="translate(-132.398 -37.442)"/>
    </g>
    <path id="Path_18369" data-name="Path 18369" d="M283.291,270.379A9.026,9.026,0,0,1,278.784,269L129.729,182.1c-5.379-3.136-9.772-10.8-9.777-17.082V56.139c0-2.783.891-5,2.519-6.284a.607.607,0,0,1,.206-.207l.215-.125c.089-.059.211-.127.331-.2l31.1-18.13a.482.482,0,0,1,.108-.048c2.018-1.26,4.656-1.067,7.447.549l149.065,86.914c5.378,3.131,9.776,10.793,9.781,17.08V244.6c0,3.249-1.151,5.66-3.226,6.779l-31.23,18.2a1.782,1.782,0,0,1-.283.182l-.19.09a.754.754,0,0,1-.133.046A5.638,5.638,0,0,1,283.291,270.379ZM123.519,50.656a.578.578,0,0,1-.122.125c-1.393,1-2.16,2.907-2.16,5.358V165.033c0,5.867,4.1,13.02,9.134,15.959l149.057,86.9c2.174,1.273,4.246,1.545,5.8.769a.781.781,0,0,1,.148-.051h.03a.51.51,0,0,0,.057-.036.6.6,0,0,1,.108-.079l31.3-18.255c1.656-.894,2.562-2.9,2.568-5.647v-108.9c0-5.874-4.1-13.021-9.14-15.953L161.238,32.824c-2.411-1.4-4.625-1.577-6.227-.507a.674.674,0,0,1-.166.076L123.855,50.461c-.111.059-.2.108-.283.164Z" transform="translate(46.006 11.697)" fill="#1496a3"/>
    <path id="Path_18370" data-name="Path 18370" d="M229.737,95.38V80.395a14.113,14.113,0,0,0-6.3-11.011L182.909,45.76V60.728l-6.307,3.68-6.292-3.677V45.749c0-4.034,1.416-6.861,3.68-8.192l6.4-3.733v.017c2.281-1.294,5.4-1.093,8.842.914l40.525,23.626c6.949,4.048,12.6,13.929,12.6,22.019V95.388l-6.3,3.68Z" transform="translate(65.427 12.736)" fill="#fff"/>
    <path id="Path_18371" data-name="Path 18371" d="M181.884,45.762V60.73l-6.308,3.68V49.433C175.589,45.383,178.416,43.736,181.884,45.762Zm53.123,38.325V99.058l6.3-3.68V80.4c0-8.09-5.662-17.971-12.6-22.019L188.193,34.751c-3.445-2.007-6.561-2.208-8.843-.914V33.82l-6.4,3.734c2.281-1.35,5.443-1.175,8.931.866L222.4,62.043C229.367,66.114,235.024,75.989,235.008,84.088Z" transform="translate(66.446 12.735)" fill="rgba(33,189,202,0.16)"/>
    <path id="Path_18372" data-name="Path 18372" d="M236.205,99.887a.64.64,0,0,1-.323-.088l-6.3-3.68a.654.654,0,0,1-.323-.566V80.58a13.364,13.364,0,0,0-5.975-10.448L183.728,47.069V60.907a.653.653,0,0,1-.32.566l-6.306,3.68a.642.642,0,0,1-.321.087.635.635,0,0,1-.322-.087l-6.289-3.671a.654.654,0,0,1-.323-.566V45.934c0-4.073,1.376-7.15,3.876-8.684a.572.572,0,0,1,.1-.079l6.4-3.731a.605.605,0,0,1,.139-.062c2.565-1.378,5.877-1.03,9.341.991L230.236,58c7.128,4.15,12.924,14.28,12.924,22.579V95.564a.645.645,0,0,1-.323.566l-6.3,3.68A.645.645,0,0,1,236.205,99.887Zm-5.66-4.7,5.66,3.3,5.662-3.3V80.577c0-7.886-5.512-17.513-12.282-21.455L189.057,35.492c-3.114-1.817-6.035-2.14-8.209-.909a.751.751,0,0,1-.118.051l-6.166,3.6c-.03.025-.065.048-.1.071-2.16,1.268-3.352,3.977-3.352,7.642V60.556l5.662,3.289,5.66-3.3V45.954a.652.652,0,0,1,.339-.566.64.64,0,0,1,.335-.077.628.628,0,0,1,.324.108l40.5,23.607A14.8,14.8,0,0,1,230.556,80.6Z" transform="translate(65.248 12.553)" fill="#1496a3"/>
    <path id="Path_18373" data-name="Path 18373" d="M143.235,48.764V46.231a1.176,1.176,0,0,1,.691-.971L154.4,39.155a3.661,3.661,0,0,1,3.345,0l4.919,2.864a1.193,1.193,0,0,1,.689.977v2.451h-.037a1.1,1.1,0,0,1-.657,1.076l-10.473,6.094a3.679,3.679,0,0,1-3.342,0l-4.911-2.867a1.2,1.2,0,0,1-.7-.994Z" transform="translate(54.986 14.944)" fill="#fff"/>
    <path id="Path_18374" data-name="Path 18374" d="M143.926,46.022l4.919,2.867a3.678,3.678,0,0,0,3.348,0l10.473-6.1a1.2,1.2,0,0,0,.689-.977v2.451h-.037a1.1,1.1,0,0,1-.657,1.076l-10.473,6.094a3.678,3.678,0,0,1-3.342,0l-4.914-2.865a1.2,1.2,0,0,1-.7-.994V45.043a1.181,1.181,0,0,0,.691.979Z" transform="translate(54.986 16.126)" fill="#cee7fd"/>
    <path id="Path_18375" data-name="Path 18375" d="M150.691,53.857a4,4,0,0,1-1.981-.49L143.79,50.5a1.831,1.831,0,0,1-1.018-1.557V46.407a1.814,1.814,0,0,1,1.01-1.534l10.473-6.1a4.321,4.321,0,0,1,3.991,0l4.9,2.876a1.8,1.8,0,0,1,1.01,1.545v2.443a.624.624,0,0,1-.03.2,1.822,1.822,0,0,1-.985,1.446L152.684,53.37A4.038,4.038,0,0,1,150.691,53.857Zm5.534-14.269a2.758,2.758,0,0,0-1.348.311L144.4,46c-.223.13-.367.283-.367.41v2.533c0,.133.144.3.376.433l4.918,2.865a3.043,3.043,0,0,0,2.7,0l10.456-6.094c.114-.065.369-.235.342-.427a.653.653,0,0,1,.029-.283V43.2c0-.1-.094-.258-.369-.416l-4.916-2.867a2.8,2.8,0,0,0-1.341-.325Z" transform="translate(54.807 14.764)" fill="#1496a3"/>
    <path id="Path_18376" data-name="Path 18376" d="M226.52,97.316v-2.53a1.2,1.2,0,0,1,.693-.977l10.453-6.1a3.726,3.726,0,0,1,3.352,0l4.914,2.873a1.206,1.206,0,0,1,.7.974V94h-.037a1.082,1.082,0,0,1-.657,1.073l-10.459,6.1a3.631,3.631,0,0,1-3.351,0l-4.915-2.87A1.2,1.2,0,0,1,226.52,97.316Z" transform="translate(87.105 33.671)" fill="#fff"/>
    <path id="Path_18377" data-name="Path 18377" d="M227.214,94.583l4.916,2.862a3.659,3.659,0,0,0,3.352,0l10.459-6.1a1.166,1.166,0,0,0,.693-.974v2.451H246.6a1.081,1.081,0,0,1-.657,1.073L235.482,100a3.633,3.633,0,0,1-3.352,0l-4.914-2.87a1.2,1.2,0,0,1-.693-.991V93.6A1.173,1.173,0,0,0,227.214,94.583Z" transform="translate(87.107 34.852)" fill="#cee7fd"/>
    <path id="Path_18378" data-name="Path 18378" d="M233.987,102.415a4.035,4.035,0,0,1-2-.492l-4.911-2.87A1.785,1.785,0,0,1,226.06,97.5V94.965a1.811,1.811,0,0,1,1.01-1.534l10.459-6.105a4.367,4.367,0,0,1,3.988,0l4.919,2.876a1.829,1.829,0,0,1,1.02,1.526v2.46a.643.643,0,0,1-.032.2,1.8,1.8,0,0,1-.991,1.441l-10.449,6.1A4.013,4.013,0,0,1,233.987,102.415Zm5.534-14.274a2.836,2.836,0,0,0-1.357.311l-10.446,6.1c-.23.136-.374.283-.374.413v2.547c0,.133.139.283.374.43l4.922,2.856a3,3,0,0,0,2.706,0l10.459-6.1c.116-.068.367-.232.342-.422a.673.673,0,0,1,.03-.306V91.735c0-.116-.147-.283-.376-.41l-4.916-2.873A2.819,2.819,0,0,0,239.522,88.14Z" transform="translate(86.928 33.492)" fill="#1496a3"/>
    <path id="Path_18379" data-name="Path 18379" d="M99.165,109.625v.032c-5.921,3.6-9.587,11.038-9.584,21.619,0,21.512,15.118,47.669,33.762,58.446,9.15,5.278,17.437,5.845,23.519,2.547v.028l10.879-6.28c6.125-3.525,9.906-11.077,9.906-21.852,0-21.512-15.115-47.667-33.756-58.429-9.324-5.378-17.768-5.9-23.882-2.383Z" transform="translate(34.294 38.998)" fill="#7185a3"/>
    <path id="Path_18380" data-name="Path 18380" d="M99.165,109.625v.032c-5.921,3.6-9.587,11.038-9.584,21.619,0,21.512,15.118,47.669,33.762,58.446,9.15,5.278,17.437,5.845,23.519,2.547v.028l10.879-6.28c6.125-3.525,9.906-11.077,9.906-21.852,0-21.512-15.115-47.667-33.756-58.429-9.324-5.378-17.768-5.9-23.882-2.383Z" transform="translate(34.294 38.998)" fill="#1cafc0"/>
    <path id="Path_18381" data-name="Path 18381" d="M153.549,165.953c0-19.726-13.87-43.731-30.975-53.6-8.695-5.027-16.548-5.412-22.175-2-5.435,3.3-8.794,10.139-8.794,19.833,0,19.726,13.87,43.72,30.969,53.608,8.393,4.84,15.995,5.361,21.575,2.327a.409.409,0,0,1-.068.028C149.909,183.024,153.542,176.029,153.549,165.953Z" transform="translate(35.074 41.701)" fill="#cbe8eb"/>
    <path id="Path_18382" data-name="Path 18382" d="M143.962,160.37c0-15.5-10.9-34.352-24.343-42.1-6.833-3.962-13-4.246-17.422-1.57-4.268,2.59-6.909,7.959-6.909,15.568,0,15.5,10.9,34.35,24.343,42.113,6.589,3.8,12.561,4.211,16.945,1.833a.173.173,0,0,0-.05.021C141.1,173.784,143.956,168.29,143.962,160.37Z" transform="translate(36.495 44.329)" fill="#fff"/>
    <path id="Path_18383" data-name="Path 18383" d="M130.653,178.529a22.645,22.645,0,0,1-11.17-3.4c-13.586-7.854-24.654-27-24.651-42.67,0-7.577,2.564-13.3,7.218-16.135,4.837-2.935,11.257-2.379,18.079,1.563,13.586,7.84,24.648,26.977,24.654,42.659,0,7.839-2.72,13.64-7.642,16.363l-.079.051A13.281,13.281,0,0,1,130.653,178.529Zm-21.7-62.77a11.861,11.861,0,0,0-6.227,1.67c-4.245,2.579-6.6,7.926-6.6,15.025,0,15.262,10.756,33.9,24.008,41.554,6.091,3.52,11.835,4.187,16.194,1.891a.475.475,0,0,1,.076-.049c4.571-2.454,7.077-7.889,7.1-15.3,0-15.285-10.776-33.907-24.009-41.543A21.5,21.5,0,0,0,108.953,115.759Z" transform="translate(36.319 44.146)" fill="#1496a3"/>
    <g id="Group_3926" data-name="Group 3926" transform="translate(126.68 151.274)" opacity="0.7">
      <path id="Path_18384" data-name="Path 18384" d="M145.569,184.817c-5.475,2.465-12.677,1.743-20.584-2.831-17.1-9.884-30.974-33.875-30.968-53.607,0-9.123,2.978-15.712,7.857-19.208a14.8,14.8,0,0,0-1.475.77c-5.435,3.3-8.794,10.139-8.794,19.833,0,19.726,13.87,43.72,30.969,53.607,8.393,4.84,15.995,5.361,21.575,2.328a.412.412,0,0,1-.068.028A15.351,15.351,0,0,0,145.569,184.817Z" transform="translate(-91.605 -109.171)"/>
    </g>
    <path id="Path_18385" data-name="Path 18385" d="M136.561,188.844c-4.357,0-9.168-1.447-14.13-4.308-17.267-9.977-31.3-34.277-31.292-54.165,0-9.578,3.232-16.816,9.106-20.379,6.1-3.694,14.209-2.986,22.832,1.981,17.249,9.952,31.288,34.249,31.294,54.153,0,9.907-3.431,17.267-9.652,20.684a.377.377,0,0,1-.085.053A16.667,16.667,0,0,1,136.561,188.844Zm-27.623-79.9a15.246,15.246,0,0,0-8.024,2.145c-5.471,3.326-8.492,10.173-8.492,19.284,0,19.481,13.745,43.277,30.65,53.05,7.821,4.512,15.2,5.361,20.8,2.4a.385.385,0,0,1,.082-.051c5.879-3.159,9.119-10.131,9.126-19.633,0-19.5-13.757-43.289-30.652-53.037C117.653,110.334,113.061,108.942,108.938,108.942Z" transform="translate(34.895 41.519)" fill="#1496a3"/>
    <path id="Path_18386" data-name="Path 18386" d="M96.517,109.657c6.136-3.716,14.7-3.3,24.179,2.18,18.641,10.757,33.763,36.928,33.766,58.43,0,10.991-3.963,18.614-10.318,22.022a.224.224,0,0,0,.071-.029v.029l10.877-6.281c6.126-3.524,9.907-11.076,9.907-21.852,0-21.512-15.116-47.667-33.757-58.428-9.324-5.378-17.767-5.9-23.882-2.383l-10.883,6.278Z" transform="translate(36.953 38.995)" fill="#19acb8"/>
    <path id="Path_18387" data-name="Path 18387" d="M117.809,159.557v6.51l-4.918-2.83v-6.553a40.346,40.346,0,0,1-9.3-9.907l2.63-4.585c2.649,4.181,6.668,8.361,9.366,9.924,1.981,1.16,3.249,1.032,3.252-.55,0-5.058-13.627-9.862-13.624-20.419,0-4.721,2.958-6.3,7.679-4.455V120.43l4.915,2.831v6.227a38.263,38.263,0,0,1,8.078,7.835l-2.548,4.7c-2.742-3.362-6.211-6.768-8.353-8.008-1.623-.937-2.692-.869-2.687.493,0,4.938,13.615,9.984,13.613,20.709C125.924,160.463,122.46,161.522,117.809,159.557Z" transform="translate(39.698 46.445)" fill="#21cab7"/>
    <path id="Path_18388" data-name="Path 18388" d="M129.834,119.643c-.376-.359-.758-.708-1.132-1.05l10.578-6.105q.565.515,1.132,1.048Zm6.33-9.78c-.425-.331-.849-.657-1.271-.973L124.318,115c.424.312.849.643,1.268.971Zm2.185,1.8c-.4-.346-.8-.683-1.2-1.017l-10.575,6.108q.6.5,1.2,1.017Zm5.875,5.793c-.337-.38-.673-.755-1.018-1.132l-10.575,6.108c.346.369.68.744,1.02,1.132Zm6.593,8.434q-.416-.615-.849-1.225l-10.574,6.111q.43.6.848,1.221Zm-1.526-2.178c-.283-.4-.589-.8-.888-1.2l-10.575,6.107q.449.594.888,1.2Zm-1.6-2.138c-.306-.394-.621-.779-.937-1.168l-10.573,6.105q.472.578.937,1.168Zm-1.7-2.088c-.326-.385-.648-.765-.977-1.132l-10.577,6.105c.328.373.657.752.978,1.132Zm-15.9-13.765c-.057-.035-.114-.06-.166-.094l-10.567,6.112.17.09c.43.252.848.515,1.282.779L131.38,106.5c-.428-.266-.852-.532-1.283-.779Zm11.189,8.659L130.7,120.487q.538.534,1.079,1.084l10.574-6.105c-.345-.363-.707-.725-1.067-1.081Zm10.985,13.733q-.391-.628-.8-1.246l-10.567,6.1c.284.413.535.833.8,1.248Zm-38.1-26.986a18.524,18.524,0,0,0-3.992.6l-10.651,6.15a18.19,18.19,0,0,1,4.038-.625Zm43.221,82.224a18.484,18.484,0,0,0,2.508-3.154l-10.611,6.129a18.328,18.328,0,0,1-2.568,3.187Zm-28.657-78.38q-.794-.422-1.578-.8l-10.578,6.105c.524.252,1.05.514,1.582.8Zm-2.895-1.39c-.586-.252-1.167-.488-1.745-.7l-10.574,6.105c.565.212,1.157.448,1.743.7Zm8.022,4.556c-.453-.321-.906-.625-1.359-.926l-10.574,6.107c.453.3.908.608,1.358.926ZM118.9,101.463a24.61,24.61,0,0,0-2.448-.284l-10.584,6.112a23.339,23.339,0,0,1,2.446.283Zm3.719.916c-.673-.218-1.339-.4-2-.565l-10.581,6.105c.66.158,1.325.339,2,.567Zm39.319,47.715c-.128-.493-.263-.985-.4-1.474l-10.578,6.105c.139.489.283.98.4,1.472Zm1.169,5.448c-.089-.518-.176-1.03-.284-1.548l-10.571,6.1c.1.515.193,1.032.283,1.548Zm.619,11.889c.043-.567.079-1.164.1-1.767l-10.568,6.1c-.019.606-.057,1.194-.1,1.769Zm-10.437,2.963,10.567-6.1v-.144c0-.513,0-1.027-.029-1.548l-10.571,6.1c.019.521.033,1.045.033,1.556Zm10.219-12.023c-.06-.527-.133-1.056-.211-1.582l-10.568,6.1q.112.8.209,1.585Zm.251,2.915q-.048-.815-.121-1.636l-10.567,6.1q.073.819.119,1.636Zm-2.764,16.906a23.1,23.1,0,0,0,.967-2.264l-10.584,6.111a21.79,21.79,0,0,1-.964,2.264Zm1.52-3.939c.188-.643.359-1.314.511-2l-10.571,6.1c-.151.691-.328,1.359-.521,2.011Zm.806-3.528c.1-.608.19-1.222.263-1.86l-10.567,6.1c-.076.637-.164,1.254-.283,1.86Zm-2.958-25.845c-.161-.475-.328-.942-.5-1.415l-10.575,6.105c.176.47.342.945.5,1.415Zm-4.164-9.845c-.22-.438-.453-.874-.682-1.309L144.94,139.83c.23.435.461.872.683,1.311Zm2.236,4.832c-.193-.452-.391-.908-.592-1.361l-10.566,6.1c.2.456.4.909.594,1.365Zm-1.081-2.439c-.206-.445-.42-.892-.637-1.337L146.143,142.2c.216.446.431.891.64,1.339Zm5.207,15.354c-.1-.5-.218-1.007-.337-1.51l-10.571,6.105c.121.5.229,1,.339,1.512Zm-7.609-20.1c-.234-.434-.478-.849-.721-1.294L143.667,137.5c.244.432.484.848.722,1.3Zm6.227,14.767c-.147-.478-.3-.96-.46-1.441l-10.573,6.1c.155.482.315.963.459,1.444Zm-7.549-17.077q-.372-.636-.755-1.268L142.3,135.213c.255.423.507.849.759,1.271Zm5.786,11.973c-.179-.47-.357-.931-.546-1.4L148.3,147.059c.187.461.366.928.543,1.393Z" transform="translate(38.125 39.001)" fill="#097c88"/>
    <path id="Path_18389" data-name="Path 18389" d="M138.581,195.151c-4.739,0-9.975-1.577-15.372-4.69-18.8-10.866-34.091-37.335-34.086-59,0-10.331,3.453-18.16,9.737-22.078a.588.588,0,0,1,.159-.136l10.884-6.278c6.592-3.788,15.3-2.942,24.523,2.383,18.8,10.85,34.086,37.312,34.083,58.985,0,10.654-3.637,18.611-10.241,22.41a.4.4,0,0,1-.068.036l-10.812,6.227a.545.545,0,0,1-.209.076A18.2,18.2,0,0,1,138.581,195.151ZM99.834,110.274a.741.741,0,0,1-.144.122c-5.987,3.632-9.281,11.116-9.279,21.068,0,21.257,15,47.227,33.443,57.887,8.613,4.973,16.742,5.871,22.887,2.548a.574.574,0,0,1,.176-.065l10.7-6.183c.024,0,.046-.025.068-.033,6.145-3.575,9.531-11.119,9.531-21.257,0-21.263-15-47.225-33.436-57.871-8.809-5.1-17.06-5.944-23.239-2.381Z" transform="translate(34.117 38.81)" fill="#1496a3"/>
    <path id="Path_18390" data-name="Path 18390" d="M226.712,198.141c0,2.16-1.517,3.032-3.4,1.954l-38.739-22.362a7.442,7.442,0,0,1-3.382-5.859V108.265c0-2.151,1.517-3.025,3.4-1.947l38.737,22.36a7.424,7.424,0,0,1,3.384,5.854Z" transform="translate(69.625 40.824)" fill="#fff"/>
    <path id="Path_18391" data-name="Path 18391" d="M225.018,201.4a3.726,3.726,0,0,1-1.843-.551L184.44,178.483a8.081,8.081,0,0,1-3.708-6.425v-63.6a2.7,2.7,0,0,1,4.361-2.514L223.832,128.3a8.051,8.051,0,0,1,3.708,6.417v63.61a2.992,2.992,0,0,1-1.316,2.755A2.356,2.356,0,0,1,225.018,201.4ZM183.254,106.7a1.093,1.093,0,0,0-.567.136,1.8,1.8,0,0,0-.668,1.624v63.591a6.871,6.871,0,0,0,3.057,5.3l38.739,22.362a1.437,1.437,0,0,0,2.408-1.39v-63.6a6.844,6.844,0,0,0-3.054-5.288L184.43,107.074A2.445,2.445,0,0,0,183.254,106.7Z" transform="translate(69.447 40.645)" fill="#1496a3"/>
    <path id="Path_18392" data-name="Path 18392" d="M218.284,176.585c0,.514-.369.727-.815.464l-30.7-17.723a1.782,1.782,0,0,1-.818-1.415c0-.513.364-.722.818-.461l30.7,17.718a1.82,1.82,0,0,1,.815,1.416Zm-5.647,4.246c0,.518-.363.727-.813.47l-25.05-14.468a1.767,1.767,0,0,1-.812-1.415c0-.515.359-.722.812-.47l25.053,14.466a1.8,1.8,0,0,1,.811,1.416Zm-5.641-7a1.807,1.807,0,0,0-.234-.805,1.773,1.773,0,0,0-.576-.61L186.775,161.2c-.456-.258-.815-.044-.815.47a1.769,1.769,0,0,0,.815,1.416L206.186,174.3C206.631,174.552,207,174.343,207,173.827Zm11.285-10.343c0,.515-.366.725-.812.464l-30.7-17.72a1.788,1.788,0,0,1-.809-1.415c0-.518.362-.727.815-.47l30.7,17.721a1.807,1.807,0,0,1,.812,1.416Zm-5.641,4.246c0,.518-.366.727-.813.467l-25.058-14.466a1.779,1.779,0,0,1-.809-1.416c0-.518.359-.727.815-.467l25.05,14.468a1.776,1.776,0,0,1,.579.608A1.8,1.8,0,0,1,212.641,167.73Zm-5.644-7a1.8,1.8,0,0,0-.811-1.415L186.775,148.1c-.453-.255-.812-.043-.815.467a1.8,1.8,0,0,0,.815,1.415l19.412,11.2c.448.263.811.051.811-.464Zm-4.878-38.886c-5.69-3.277-10.3-.622-10.3,5.944s4.611,14.549,10.309,17.832,10.3.626,10.3-5.944l-10.3-5.943Z" transform="translate(71.462 46.448)" fill="#21cab7"/>
    <path id="Path_18393" data-name="Path 18393" d="M199.251,120.509V132.4l10.3,5.943C209.555,131.774,204.938,123.8,199.251,120.509Z" transform="translate(76.589 46.475)" fill="rgba(20,150,163,0.22)"/>
    <path id="Path_18394" data-name="Path 18394" d="M244.993,229.266v-5.5a2.5,2.5,0,0,0-1.477-2.06l-74-42.678a7.968,7.968,0,0,0-7.158,0l-29.041,16.782a2.512,2.512,0,0,0-1.483,2.07v5.408a2.431,2.431,0,0,0,1.463,2.163l74,42.681a7.968,7.968,0,0,0,7.158,0L243.5,231.361a2.5,2.5,0,0,0,1.481-2.083Z" transform="translate(50.589 68.716)" fill="#21bdca"/>
    <g id="Group_3927" data-name="Group 3927" transform="translate(213.481 252.661)" opacity="0.3">
      <path id="Path_18395" data-name="Path 18395" d="M154.248,184.344l68.077,39.3c-3.6-2.084.478-5.944,2.493-9.341L169.4,182.34C163.363,184.121,157.194,186.048,154.248,184.344Z" transform="translate(-154.248 -182.34)"/>
    </g>
    <g id="Group_3928" data-name="Group 3928" transform="translate(182.417 266.58)" opacity="0.35">
      <path id="Path_18396" data-name="Path 18396" d="M243.506,216.229c1.981,1.132,1.981,2.986,0,4.129l-29.043,16.768a7.963,7.963,0,0,1-7.156,0l-74-42.678a2.508,2.508,0,0,1-1.479-2.063v5.408a2.436,2.436,0,0,0,1.463,2.163l74,42.681a7.968,7.968,0,0,0,7.158,0l29.041-16.771a2.5,2.5,0,0,0,1.481-2.083v-5.5A2.4,2.4,0,0,0,243.506,216.229Z" transform="translate(-131.83 -192.385)"/>
    </g>
    <path id="Path_18397" data-name="Path 18397" d="M211.076,249.869a8.017,8.017,0,0,1-3.92-.948l-74-42.682a3.174,3.174,0,0,1-1.808-2.635.652.652,0,0,1,0-.127v-5.408a3.172,3.172,0,0,1,1.828-2.666l29.045-16.769a8.55,8.55,0,0,1,7.846,0l74,42.677a3.136,3.136,0,0,1,1.824,2.663v5.559a3.218,3.218,0,0,1-1.826,2.615L215.02,248.918A8.014,8.014,0,0,1,211.076,249.869Zm-78.363-46.532a.587.587,0,0,1,0,.184c-.033.543.366,1.088,1.132,1.526l74,42.68a7.3,7.3,0,0,0,6.468,0l29.045-16.772a1.9,1.9,0,0,0,1.132-1.477.607.607,0,0,1,0-.071V223.97a1.9,1.9,0,0,0-1.132-1.466l-73.99-42.68a7.282,7.282,0,0,0-6.468,0L133.851,196.6a1.9,1.9,0,0,0-1.132,1.472Z" transform="translate(50.401 68.523)" fill="#1496a3"/>
    <path id="Path_18398" data-name="Path 18398" d="M212.005,204.995c-3.811-2.2-6.425.076-11.351-2.766-5.66-3.274-5.66-13.586-11.342-16.877a3.412,3.412,0,0,0-3.623-.284l-.055.032h-.021l-3.45,1.982c-.054.033-.1.076-.158.109l.022-.014a13.955,13.955,0,0,0-2.633,2.579c.154-.163.306-.334.459-.507a4.617,4.617,0,0,1-1.89-.668c-5.662-3.272-7.359-12.335-11.343-14.631a1.966,1.966,0,0,0-2.134-.073L161,175.889c-3.734,1.982-4.408,16.7-9.3,13.869l68.08,39.306L223.361,227C217.679,223.755,217.682,208.273,212.005,204.995Z" transform="translate(58.25 66.949)" fill="#dbf4f7"/>
    <path id="Path_18399" data-name="Path 18399" d="M158.413,175.911,161.9,173.9a1.964,1.964,0,0,1,2.134.073c3.98,2.3,5.662,11.358,11.343,14.631a4.637,4.637,0,0,0,1.89.668c-1.355,1.551-2.769,2.961-5.473,1.4-5.662-3.277-7.361-12.341-11.34-14.634A1.976,1.976,0,0,0,158.413,175.911Zm51,29.078c-3.811-2.2-6.425.076-11.351-2.766-5.66-3.274-5.66-13.586-11.342-16.877a3.412,3.412,0,0,0-3.623-.284l-.057.032h-.019l-3.45,1.982c-.054.033-.105.076-.158.109a3.34,3.34,0,0,1,3.725.2c5.66,3.273,5.66,13.588,11.342,16.876,4.922,2.831,7.541.567,11.357,2.766,5.66,3.274,5.66,18.758,11.35,22.036L220.769,227C215.091,223.749,215.093,208.267,209.416,204.989Z" transform="translate(60.839 66.957)" fill="rgba(20,150,163,0.22)"/>
    <path id="Path_18400" data-name="Path 18400" d="M219.98,229.975a.686.686,0,0,1-.345-.09l-68.08-39.306a.674.674,0,0,1-.215-.175.693.693,0,0,1-.154-.521.706.706,0,0,1,.089-.263.714.714,0,0,1,.184-.208.693.693,0,0,1,.787-.028,1.328,1.328,0,0,0,1.225.2c1.4-.529,2.486-3.8,3.448-6.686,1.082-3.247,2.1-6.312,3.852-7.343a.533.533,0,0,1,.083-.054l3.486-2.015a1.074,1.074,0,0,1,.122-.057,2.65,2.65,0,0,1,2.7.141c1.982,1.132,3.4,3.714,4.872,6.436,1.667,3.053,3.554,6.511,6.472,8.209a4.314,4.314,0,0,0,1.278.527,9.4,9.4,0,0,1,2.058-1.9l.082-.057a.38.38,0,0,1,.079-.054l3.45-2,.054-.029.032-.017.044-.025a4.072,4.072,0,0,1,4.246.308c3.037,1.756,4.53,5.322,5.964,8.775,1.416,3.4,2.746,6.586,5.379,8.109a11.574,11.574,0,0,0,6.105,1.544,10.133,10.133,0,0,1,5.245,1.219c3.073,1.775,4.557,6.677,5.992,11.415,1.357,4.484,2.757,9.12,5.361,10.624a.688.688,0,0,1,.346.6.688.688,0,0,1-.346.6l-3.578,2.066A.686.686,0,0,1,219.98,229.975Zm-65.557-39.344L219.98,228.48l2.315-1.336c-2.468-2.145-3.79-6.51-5.074-10.755-1.357-4.484-2.757-9.118-5.358-10.621a8.777,8.777,0,0,0-4.6-1.038A12.787,12.787,0,0,1,200.509,203c-3.036-1.756-4.528-5.322-5.964-8.775-1.415-3.4-2.745-6.586-5.378-8.109-1.5-.866-2.357-.6-2.94-.283a.322.322,0,0,1-.049.025l-.04.019-3.367,1.948-.051.033-.065.046-.06.042h-.019a8.949,8.949,0,0,0-1.826,1.739l-.139.158-.017.019c-.122.143-.247.284-.371.412-.033.039-.068.076-.1.109a.691.691,0,0,1-.787.158.69.69,0,0,1-.4-.693,6.389,6.389,0,0,1-1.093-.513c-3.249-1.876-5.236-5.516-6.988-8.728-1.39-2.548-2.7-4.954-4.351-5.906a1.283,1.283,0,0,0-1.436-.076.856.856,0,0,1-.125.06l-3.28,1.894a.687.687,0,0,1-.139.087c-1.316.736-2.356,3.852-3.273,6.607-1.089,3.26-2.1,6.306-3.823,7.365Z" transform="translate(58.05 66.765)" fill="#1496a3"/>
    <path id="Path_18401" data-name="Path 18401" d="M209.427,208.691c-4.968-2.864-6.434.592-11.355-2.264-5.662-3.276-5.662-23.231-11.343-26.5a2,2,0,0,0-2.221-.049l-3.47,2c-3.037,1.7-5.906,12.478-5.423,11.561-.08-.037-.154-.062-.238-.108-5.66-3.277-5.66-10.847-11.339-14.121a2.474,2.474,0,0,0-2.687-.133l-3.527,2.038c-3.236,1.848-4.085,11.426-8.709,8.752l68.076,39.3,3.585-2.066C215.1,223.837,215.1,211.969,209.427,208.691Z" transform="translate(57.253 68.933)" fill="#fff"/>
    <path id="Path_18402" data-name="Path 18402" d="M155.4,181.13l3.532-2.044a2.471,2.471,0,0,1,2.685.133c5.662,3.276,5.662,10.844,11.34,14.121.085.046.158.071.237.108-.973,1.868-2.148,2.918-3.815,1.955-5.662-3.269-5.662-10.843-11.346-14.118A2.467,2.467,0,0,0,155.4,181.13ZM207,208.691c-4.968-2.864-6.434.592-11.357-2.264-5.66-3.276-5.66-23.231-11.342-26.5a2,2,0,0,0-2.221-.048l-3.471,2a2.008,2.008,0,0,1,2.109.111c5.66,3.274,5.66,23.231,11.344,26.508,4.923,2.831,6.387-.611,11.349,2.264,5.674,3.273,5.674,15.144,11.353,18.418l3.583-2.066C212.676,223.837,212.673,211.969,207,208.691Z" transform="translate(59.676 68.937)" fill="rgba(20,150,163,0.22)"/>
    <path id="Path_18403" data-name="Path 18403" d="M217.375,230.06a.669.669,0,0,1-.345-.094l-68.069-39.3a.686.686,0,0,1-.3-.418.691.691,0,0,1,.478-.826.686.686,0,0,1,.51.05,1.984,1.984,0,0,0,1.609.312c1.217-.377,2.17-2.372,3.093-4.3s1.883-3.941,3.321-4.761l3.527-2.036a3.153,3.153,0,0,1,3.371.13c3.011,1.738,4.5,4.585,5.943,7.34,1.3,2.482,2.532,4.837,4.79,6.395.716-2.831,3-9.492,5.5-11.015a.5.5,0,0,1,.079-.054l3.47-2.006.057-.028a2.678,2.678,0,0,1,2.853.082c3.094,1.786,4.506,7.568,6,13.692,1.361,5.568,2.766,11.322,5.347,12.816a7.508,7.508,0,0,0,5.239,1.028,8.927,8.927,0,0,1,6.114,1.225c3.051,1.761,4.528,5.727,5.975,9.562,1.354,3.611,2.752,7.359,5.379,8.859a.687.687,0,0,1,.251.254.69.69,0,0,1-.251.941l-3.585,2.067A.689.689,0,0,1,217.375,230.06Zm-65.244-39.155,65.244,37.671,2.3-1.327c-2.435-1.98-3.754-5.5-5.035-8.918-1.354-3.61-2.752-7.34-5.379-8.854a7.6,7.6,0,0,0-5.3-1.045,8.761,8.761,0,0,1-6.059-1.208c-3.089-1.783-4.5-7.563-5.993-13.683-1.361-5.57-2.767-11.321-5.349-12.821a1.3,1.3,0,0,0-1.506-.065q-.048.029-.1.054l-3.317,1.916a.388.388,0,0,1-.085.055c-2.3,1.283-4.769,9.158-5.1,10.79a.692.692,0,0,1-.057.488.7.7,0,0,1-1.183.175c-3.019-1.746-4.506-4.591-5.943-7.341-1.416-2.7-2.744-5.249-5.407-6.794a1.775,1.775,0,0,0-1.982-.139l-3.54,2.044c-1.064.608-1.927,2.414-2.763,4.158C154.634,188.069,153.649,190.121,152.132,190.905Z" transform="translate(57.072 68.746)" fill="#1496a3"/>
    <path id="Path_18404" data-name="Path 18404" d="M208.134,212.4c-4.965-2.867-6.425,1.006-11.347-1.836-5.662-3.278-3.833-9.276-9.5-12.551s-8.356,0-13.193-2.831c-5.638-3.323-4.726-5.428-8.724-7.756-5.66-3.3-8.288,2.782-13.959-.5l-8.357,4.812,68.08,39.307,8.358-4.812C213.807,222.953,213.81,215.673,208.134,212.4Z" transform="translate(54.915 71.891)" fill="#dbf4f7"/>
    <path id="Path_18405" data-name="Path 18405" d="M157.012,192.236c4,2.327,3.086,4.433,8.727,7.756,4.835,2.831,7.517-.439,13.19,2.831s3.827,9.276,9.5,12.547c4.925,2.831,6.385-1.03,11.347,1.835,5.66,3.277,5.66,10.557,11.353,13.836l8.358-4.812c-5.683-3.274-5.68-10.555-11.355-13.827-4.965-2.867-6.425,1.006-11.347-1.836-5.662-3.278-3.833-9.276-9.5-12.551s-8.356,0-13.193-2.831c-5.638-3.323-4.726-5.428-8.724-7.756-5.66-3.3-8.288,2.782-13.959-.5l-8.357,4.812C148.721,195.021,151.354,188.938,157.012,192.236Z" transform="translate(54.915 71.891)" fill="rgba(20,150,163,0.22)"/>
    <path id="Path_18406" data-name="Path 18406" d="M211.323,231.923a.7.7,0,0,1-.345-.09L142.9,192.54a.688.688,0,0,1-.251-.254.68.68,0,0,1-.093-.344.694.694,0,0,1,.344-.6l8.355-4.812a.69.69,0,0,1,.691,0c2.565,1.487,4.347.883,6.417.19s4.441-1.5,7.546.312a11.676,11.676,0,0,1,3.7,3.369,15.384,15.384,0,0,0,5.026,4.387,9.232,9.232,0,0,0,5.7,1.165,12.492,12.492,0,0,1,7.489,1.671c3.037,1.754,4.054,4.222,5.042,6.605.937,2.266,1.825,4.422,4.46,5.944a6.643,6.643,0,0,0,5.193.827,8.16,8.16,0,0,1,6.151,1.01c3.01,1.732,4.5,4.5,5.944,7.18,1.415,2.627,2.745,5.1,5.418,6.647a.674.674,0,0,1,.251.252.693.693,0,0,1-.251.942l-8.358,4.811A.7.7,0,0,1,211.323,231.923Zm-66.7-39.994,66.7,38.512,7.043-4.067c-2.381-1.733-3.7-4.178-4.973-6.553-1.416-2.624-2.744-5.1-5.412-6.641a6.82,6.82,0,0,0-5.245-.848,8.063,8.063,0,0,1-6.1-1c-3.04-1.756-4.06-4.224-5.045-6.61-.939-2.264-1.825-4.419-4.458-5.944a11.015,11.015,0,0,0-6.759-1.485,10.659,10.659,0,0,1-6.436-1.357,16.9,16.9,0,0,1-5.412-4.726,10.31,10.31,0,0,0-3.309-3.026c-2.547-1.494-4.347-.894-6.414-.2-2,.673-4.246,1.436-7.192-.1Z" transform="translate(54.723 71.706)" fill="#1496a3"/>
    <path id="Path_18407" data-name="Path 18407" d="M202.555,29.075a7.254,7.254,0,0,0,3.284,5.681L232.477,50.2c1.811,1.045,3.277.2,3.277-1.894V32.064a7.263,7.263,0,0,0-3.283-5.687L205.836,10.934c-1.812-1.045-3.287-.2-3.284,1.9Z" transform="translate(77.862 4.045)" fill="#fff"/>
    <path id="Path_18408" data-name="Path 18408" d="M234.124,51.5a3.616,3.616,0,0,1-1.794-.538L205.692,35.513a7.869,7.869,0,0,1-3.61-6.247V13a2.923,2.923,0,0,1,1.289-2.692,2.918,2.918,0,0,1,2.975.229L232.984,25.98a7.9,7.9,0,0,1,3.608,6.253V48.494a2.923,2.923,0,0,1-1.282,2.689A2.341,2.341,0,0,1,234.124,51.5ZM204.554,11.3a1.037,1.037,0,0,0-.529.13,1.728,1.728,0,0,0-.635,1.557V29.249a6.651,6.651,0,0,0,2.958,5.115L232.984,49.81a1.37,1.37,0,0,0,2.3-1.328V32.249a6.66,6.66,0,0,0-2.958-5.12L205.689,11.688A2.353,2.353,0,0,0,204.554,11.3Z" transform="translate(77.681 3.857)" fill="#21bdca"/>
    <path id="Path_18409" data-name="Path 18409" d="M227.586,30.083c0,.5-.353.7-.79.453L207.944,19.593a1.742,1.742,0,0,1-.784-1.361c0-.5.355-.708.787-.456L226.8,28.727a1.757,1.757,0,0,1,.79,1.367Zm-5.472,4.1c0,.507-.356.7-.79.456L207.96,26.864a1.759,1.759,0,0,1-.787-1.367c0-.493.353-.7.787-.45l13.367,7.781a1.727,1.727,0,0,1,.787,1.359Zm-5.471-6.793a1.723,1.723,0,0,0-.784-1.359l-7.9-4.625c-.436-.261-.79-.051-.787.45a1.727,1.727,0,0,0,.787,1.364l7.908,4.628c.436.249.79.051.787-.453Z" transform="translate(79.639 6.814)" fill="#21cab7" opacity="0.6"/>
    <path id="Path_18410" data-name="Path 18410" d="M260.3,231.451c0-2.807-1.844-5.617-5.552-7.764-7.408-4.271-19.432-4.271-26.851.019-3.727,2.146-5.581,4.97-5.565,7.793v5.078c-.022,2.831,1.829,5.644,5.556,7.789,7.4,4.283,19.428,4.283,26.85,0,3.705-2.137,5.559-4.941,5.562-7.742Z" transform="translate(85.492 85.032)" fill="#097c88"/>
    <path id="Path_18411" data-name="Path 18411" d="M260.3,228.4c0,2.8-1.857,5.6-5.562,7.742-7.422,4.291-19.446,4.291-26.851,0-3.679-2.126-5.538-4.916-5.556-7.7v5.077c-.022,2.831,1.829,5.644,5.556,7.79,7.4,4.283,19.43,4.283,26.851,0,3.705-2.137,5.559-4.943,5.562-7.742V228.4Z" transform="translate(85.491 88.085)" fill="#21bdca"/>
    <path id="Path_18412" data-name="Path 18412" d="M241.5,248.464a28.083,28.083,0,0,1-13.762-3.292c-3.793-2.2-5.943-5.188-5.9-8.4V231.7c-.017-3.208,2.084-6.191,5.917-8.4,7.591-4.393,19.949-4.4,27.547-.019,3.784,2.188,5.878,5.131,5.9,8.3a.607.607,0,0,1,0,.071v5.166a.607.607,0,0,1,0,.071c-.035,3.159-2.128,6.094-5.911,8.277A28.283,28.283,0,0,1,241.5,248.464Zm.046-27.083a26.76,26.76,0,0,0-13.1,3.133c-3.38,1.945-5.231,4.5-5.217,7.185v5.1c-.019,2.691,1.829,5.239,5.209,7.183,7.207,4.169,18.936,4.167,26.152,0,3.36-1.939,5.211-4.474,5.214-7.139V231.67c0-2.672-1.843-5.213-5.2-7.156a26.377,26.377,0,0,0-13.054-3.147Z" transform="translate(85.296 84.847)" fill="#1496a3"/>
    <path id="Path_18413" data-name="Path 18413" d="M257.047,238.052c0-11.716-7.51-13.482-7.51-18.681s7.51-6.949,7.51-18.668v-7.424c.1-2.505-1.49-5.027-4.8-6.938-6.416-3.7-16.839-3.7-23.269.019-3.312,1.905-4.9,4.427-4.812,6.932v7.41c0,11.719,7.513,13.485,7.513,18.668s-7.513,6.952-7.513,18.681v7.424c-.1,2.505,1.49,5.027,4.812,6.935,6.417,3.708,16.836,3.708,23.267,0,3.312-1.908,4.9-4.435,4.812-6.938Z" transform="translate(86.197 70.794)" fill="#fff"/>
    <path id="Path_18414" data-name="Path 18414" d="M251.106,215.347c2.2-3.061,5.944-6.37,5.944-14.649v-7.424c.1-2.5-1.488-5.027-4.794-6.937-4.246-2.443-10.19-3.213-15.594-2.415v-.042c-.283.042-.565.1-.849.155l-.452.082a20.463,20.463,0,0,0-6.375,2.239c-3.312,1.905-4.9,4.427-4.811,6.932V200.7c0,11.719,7.512,13.485,7.512,18.668s-7.512,6.952-7.512,18.681v7.424c-.1,2.505,1.488,5.027,4.811,6.935a17.464,17.464,0,0,0,2.2,1.039c.313.125.628.237.951.351.418.141.849.283,1.285.391a24.515,24.515,0,0,0,3.233.684c5.41.773,11.354-.028,15.584-2.476,3.312-1.908,4.9-4.436,4.812-6.938v-7.41A29.884,29.884,0,0,0,256.23,232c3.377,17.7-19.409,20.779-19.409.6C236.811,215.244,242.767,224.568,251.106,215.347Z" transform="translate(86.199 70.814)" fill="rgba(33,189,202,0.16)"/>
    <path id="Path_18415" data-name="Path 18415" d="M240.787,256.059a24.423,24.423,0,0,1-11.967-2.859c-3.436-1.981-5.266-4.667-5.149-7.566v-7.4c0-7.277,2.782-10.821,5.022-13.668,1.39-1.769,2.487-3.17,2.487-5s-1.1-3.226-2.487-5c-2.236-2.848-5.022-6.391-5.022-13.671v-7.411c-.114-2.874,1.718-5.559,5.155-7.538,6.605-3.824,17.357-3.833,23.966-.017,3.435,1.982,5.261,4.672,5.145,7.568v7.4c0,7.28-2.785,10.823-5.022,13.671-1.393,1.769-2.49,3.168-2.49,5s1.1,3.23,2.49,5c2.236,2.848,5.022,6.391,5.022,13.668v7.411c.114,2.874-1.718,5.562-5.152,7.544A24.533,24.533,0,0,1,240.787,256.059Zm.046-71.612a23.092,23.092,0,0,0-11.308,2.706c-2.969,1.7-4.551,3.946-4.458,6.3v7.438c0,6.794,2.617,10.131,4.724,12.809,1.5,1.905,2.785,3.546,2.785,5.859s-1.29,3.963-2.785,5.863c-2.106,2.677-4.724,6.012-4.724,12.8v7.424c-.1,2.383,1.485,4.62,4.452,6.33,6.227,3.594,16.341,3.589,22.568,0,2.967-1.7,4.549-3.949,4.455-6.306v-7.437c0-6.792-2.617-10.128-4.724-12.8-1.5-1.905-2.788-3.55-2.788-5.863s1.293-3.962,2.788-5.859c2.1-2.677,4.724-6.012,4.724-12.808V193.48c.094-2.381-1.485-4.623-4.447-6.332a23.02,23.02,0,0,0-11.263-2.69Z" transform="translate(86.005 70.607)" fill="#1496a3"/>
    <path id="Path_18416" data-name="Path 18416" d="M260.3,189.76c0-2.811-1.844-5.619-5.552-7.765-7.408-4.268-19.432-4.268-26.851.021-3.727,2.148-5.581,4.97-5.565,7.789v5.1c-.022,2.831,1.829,5.662,5.556,7.793,7.4,4.282,19.428,4.282,26.85,0,3.705-2.137,5.559-4.943,5.562-7.742Z" transform="translate(85.492 68.954)" fill="#21bdca"/>
    <g id="Group_3929" data-name="Group 3929" transform="translate(307.825 258.713)" opacity="0.3">
      <path id="Path_18417" data-name="Path 18417" d="M260.3,186.708c0,2.8-1.857,5.6-5.562,7.742-7.422,4.291-19.446,4.291-26.851,0-3.679-2.123-5.538-4.911-5.556-7.7v5.094c-.022,2.831,1.829,5.662,5.556,7.793,7.4,4.283,19.43,4.283,26.851,0,3.705-2.137,5.559-4.943,5.562-7.742v-5.182Z" transform="translate(-222.334 -186.708)"/>
    </g>
    <path id="Path_18418" data-name="Path 18418" d="M241.493,206.986a28.1,28.1,0,0,1-13.76-3.292c-3.793-2.193-5.943-5.188-5.9-8.4v-5.072c-.017-3.208,2.084-6.188,5.914-8.4,7.593-4.39,19.952-4.4,27.55-.019,3.784,2.191,5.878,5.134,5.9,8.3a.56.56,0,0,1,0,.068v5.169a.607.607,0,0,1,0,.071c-.035,3.157-2.128,6.091-5.911,8.274A28.287,28.287,0,0,1,241.493,206.986Zm.051-27.083a26.769,26.769,0,0,0-13.1,3.13c-3.38,1.948-5.231,4.5-5.217,7.182v5.1c-.019,2.691,1.829,5.242,5.209,7.186,7.207,4.169,18.939,4.164,26.154,0,3.357-1.939,5.209-4.471,5.211-7.136v-5.169c0-2.672-1.843-5.213-5.206-7.158A26.505,26.505,0,0,0,241.544,179.9Z" transform="translate(85.296 68.85)" fill="#1496a3"/>
    <path id="Path_18419" data-name="Path 18419" d="M250.25,226.577c-2.811-1.625-6.51-8.749-10.19-8.749s-7.386,7.135-10.2,8.774c-5.635,3.244-5.641,8.526,0,11.77s14.764,3.252,20.4,0S255.88,229.832,250.25,226.577Z" transform="translate(86.761 84.007)" fill="rgba(33,189,202,0.16)"/>
    <path id="Path_18420" data-name="Path 18420" d="M229.854,226.027c-5.635,3.244-5.642,8.526,0,11.77s14.763,3.252,20.4,0c4.048-2.339,5.171-5.719,3.4-8.642-5.171,6.658-17.117,4.463-17.386-9.842C233.918,221.56,231.7,224.957,229.854,226.027Z" transform="translate(86.76 84.579)" fill="rgba(20,150,163,0.22)"/>
    <path id="Path_18421" data-name="Path 18421" d="M246.222,201.048a16.2,16.2,0,0,0-14.642,0c-2.307,1.327-3.255,3.13-2.927,4.868a4.5,4.5,0,0,0,1.352,2.378c.09.094.184.2.283.283,3.773,3.811,6.089,3.463,6.574,4.725a2.191,2.191,0,0,0,4.072,0c.481-1.265,2.81-.915,6.6-4.756a4.643,4.643,0,0,0,1.6-2.641C249.472,204.181,248.527,202.386,246.222,201.048Z" transform="translate(87.904 76.861)" fill="#cee7fd"/>
    <path id="Path_18422" data-name="Path 18422" d="M246.222,201.048a16.2,16.2,0,0,0-14.642,0c-2.307,1.327-3.255,3.13-2.927,4.868a4.5,4.5,0,0,0,1.352,2.378c.09.094.184.2.283.283,3.773,3.811,6.089,3.463,6.574,4.725a2.191,2.191,0,0,0,4.072,0c.481-1.265,2.81-.915,6.6-4.756a4.643,4.643,0,0,0,1.6-2.641C249.472,204.181,248.527,202.386,246.222,201.048Z" transform="translate(87.904 76.861)" fill="rgba(20,150,163,0.22)"/>
    <path id="Path_18423" data-name="Path 18423" d="M243.763,201.458a12.284,12.284,0,0,0-11.095,0c-3.069,1.767-3.069,4.636,0,6.4a12.261,12.261,0,0,0,11.092,0C246.822,206.092,246.83,203.225,243.763,201.458Z" transform="translate(88.588 77.183)" fill="rgba(20,150,163,0.22)"/>
    <path id="Path_18424" data-name="Path 18424" d="M321.08,202.6c-.673-2.777-2.831-5.464-6.539-7.595a36.193,36.193,0,0,0-32.749-.019,20.051,20.051,0,0,0-1.9,1.265c-2.76,2.052-4.359,4.455-4.761,6.919v.129a7.761,7.761,0,0,0-.09,1.133v6.621c0,3.413,2.278,6.835,6.793,9.445,9.058,5.223,23.7,5.228,32.739,0,4.528-2.612,6.792-6.029,6.773-9.457v-6.623A7.81,7.81,0,0,0,321.08,202.6Z" transform="translate(105.817 73.69)" fill="#fff"/>
    <path id="Path_18425" data-name="Path 18425" d="M316.414,219.353l4.671-5.236.707-4.1-.424-3.68-.567-4.954-1.273-2.406-2.123-2.405-4.1-2.407-4.246-1.7-5.519-1.132-6.37-.143-5.519.143-7.783,2.688-4.1,2.264-3.114,3.4-1.84,3.679v8.35l1.7,3.963,2.407,2.69,4.246,2.83,6.227,2.124,7.077,1.132,9.482-.991,3.679-.284Z" transform="translate(105.727 73.733)" fill="#fff"/>
    <path id="Path_18426" data-name="Path 18426" d="M321.084,199.388c.97,4.012-1.183,8.227-6.511,11.322-9.04,5.209-23.693,5.214-32.751,0-4.528-2.612-6.776-6.032-6.794-9.447v6.621c0,3.413,2.279,6.835,6.794,9.445,9.058,5.223,23.7,5.228,32.738,0,4.53-2.612,6.794-6.029,6.774-9.457v-6.623A7.876,7.876,0,0,0,321.084,199.388Z" transform="translate(105.813 76.895)" fill="rgba(20,150,163,0.22)"/>
    <path id="Path_18427" data-name="Path 18427" d="M298.424,225.412c-6.071,0-12.148-1.333-16.776-4s-7.172-6.265-7.183-10.117v-6.623a8.6,8.6,0,0,1,.1-1.265v-.122c.445-2.737,2.2-5.3,5.067-7.438a20.679,20.679,0,0,1,1.98-1.314,34.059,34.059,0,0,1,16.74-4.012h.024a34.075,34.075,0,0,1,16.768,4.031c3.758,2.163,6.145,4.959,6.906,8.084a8.731,8.731,0,0,1,.283,2.03.325.325,0,0,1,0,.073v6.553c0,3.858-2.53,7.459-7.164,10.131S304.491,225.412,298.424,225.412Zm-.062-33.34a32.509,32.509,0,0,0-15.961,3.8,19.049,19.049,0,0,0-1.825,1.215c-2.548,1.887-4.079,4.107-4.455,6.418a1.272,1.272,0,0,1-.018.162,6.92,6.92,0,0,0-.076.988v6.629c0,3.274,2.285,6.388,6.4,8.774,8.82,5.1,23.156,5.1,31.959,0,4.128-2.383,6.395-5.5,6.384-8.774v-6.626a.422.422,0,0,1,0-.06,7.3,7.3,0,0,0-.23-1.6c-.657-2.7-2.791-5.157-6.17-7.1a32.539,32.539,0,0,0-15.992-3.824Z" transform="translate(105.596 73.474)" fill="#1496a3"/>
    <path id="Path_18428" data-name="Path 18428" d="M304.344,205.885l3.352,1.936-2.921,1.7-3.377-1.944a23.982,23.982,0,0,1-7.872,1.84l-1.574-2.715a20.238,20.238,0,0,0,7.891-1.873c1.189-.686,1.5-1.37.686-1.843-2.608-1.5-9.132,4.084-14.566.945-2.432-1.415-2.367-3.4-.015-5.277l-3.22-1.862,2.915-1.7,3.2,1.851a22.576,22.576,0,0,1,6.449-1.829l1.67,2.706a23.506,23.506,0,0,0-6.612,1.922c-.963.551-1.246,1.132-.543,1.528,2.547,1.472,9.19-4.042,14.718-.849C307.221,201.976,306.741,204.075,304.344,205.885Z" transform="translate(108.782 75.239)" fill="#21cab7"/>
    <path id="Path_18429" data-name="Path 18429" d="M77.794,79.242v33.44l6.748,3.761L118.99,96.868V63.23L84.743,82.769Z" transform="translate(29.748 24.385)" fill="#fff"/>
    <path id="Path_18430" data-name="Path 18430" d="M96.771,58.183c-1.652.961-3.334,1.938-4.924,2.815L91.3,60c1.583-.873,3.239-1.836,4.88-2.79,1.061-.617,2.115-1.229,3.138-1.812l.564.991C98.876,56.959,97.829,57.567,96.771,58.183Z" transform="translate(34.955 21.364)" fill="#005bea" fill-rule="evenodd"/>
    <path id="Path_18431" data-name="Path 18431" d="M84.743,78.312l-.2,33.675-6.748-3.762V74.785Z" transform="translate(29.748 28.842)" fill="rgba(20,150,163,0.22)"/>
    <path id="Path_18432" data-name="Path 18432" d="M88.381,66.277c-2.264,1.056-4.246,2.6-6.465,3.739a7.6,7.6,0,0,0-2.375,1.812,7.325,7.325,0,0,0-1.469,2.709,7.641,7.641,0,0,0-.283,2.409c.031,1.7.034,3.68,0,6.312l6.957,3.527L119,67.254V59.611c.806-3.626-3.765-5.126-7.15-6.793C99.251,60.4,90.838,65.122,88.381,66.277Z" transform="translate(29.744 20.37)" fill="#19acb8"/>
    <path id="Path_18433" data-name="Path 18433" d="M117.362,65.81c-.024-1.132.218-2.236.2-3.357s-.352-2.23-.4-3.36c0-.09-.119-3.258-.111-3.34-1.107.589-1.273.566-2.94,1.495-3.317,1.888-6.023,3.445-7.9,4.529C99.7,65.536,99.2,65.9,96.531,67.328c-.43.232-2.33,1.248-4.812,2.646-4.455,2.519-2.349,1.511-4.178,2.5a9.6,9.6,0,0,0-2.8,1.956A7.076,7.076,0,0,0,82.891,78.3a11.292,11.292,0,0,0-.065,1.746c0,1.636.014,2.454.02,3.046s0,1.472-.02,2.528a1.568,1.568,0,0,1,.32-.176,16.214,16.214,0,0,0,3.3-1.752,7.563,7.563,0,0,1,2.4-1.2,5.425,5.425,0,0,1,.541-.464,1.33,1.33,0,0,1,.566-.252v-.3l27.42-15.37A1.36,1.36,0,0,1,117.362,65.81Z" transform="translate(31.685 21.502)" fill="#21bdca"/>
    <path id="Path_18434" data-name="Path 18434" d="M112,52.323l7.721,4.423v44.66L84.7,121.305l-7.321-4.085V76.669h0a7.647,7.647,0,0,1,3.841-6.634h0ZM78.523,76.669v39.881L84.7,120l33.876-19.253V57.407L112,53.638,81.792,71.025a6.506,6.506,0,0,0-3.269,5.645Z" transform="translate(29.589 20.179)" fill="#1496a3" fill-rule="evenodd"/>
    <path id="Path_18435" data-name="Path 18435" d="M119.344,63.861,84.831,83.552l-7.223-3.666.516-1.017L84.8,82.257l33.98-19.387Z" transform="translate(29.676 24.246)" fill="#1496a3" fill-rule="evenodd"/>
    <path id="Path_18436" data-name="Path 18436" d="M107.629,62.167A14.2,14.2,0,0,0,104.2,54.29a10.417,10.417,0,0,0-4.11-3.281,6.031,6.031,0,0,0-4.308-.439A5.147,5.147,0,0,0,93.8,51.83a6.278,6.278,0,0,0-1.588,3.578,11.432,11.432,0,0,0,.566,5.5c.085.283.178.586.283.917A14.736,14.736,0,0,1,95.14,60.6a12.281,12.281,0,0,1-.566-3.416,5.016,5.016,0,0,1-.246-1.489,1.415,1.415,0,0,1,.94-1.3A2.707,2.707,0,0,1,96,53.316a2.292,2.292,0,0,1,2.31-.3,6.736,6.736,0,0,1,3.68,2.485,1.5,1.5,0,0,1,.5.453,13.127,13.127,0,0,1,2.372,5.338,5.138,5.138,0,0,1,.283,1.936,7.121,7.121,0,0,1-.087.971,3.3,3.3,0,0,1-.094.532,3.235,3.235,0,0,1-.133.606l-.028.076a2.452,2.452,0,0,1-1.1,1.783,1.37,1.37,0,0,1-.283.2,1.982,1.982,0,0,1-1.1.2,1.721,1.721,0,0,1-.093.212c-.241.461-.549.6-.541,1.042a2.785,2.785,0,0,0,.439,1.257,4.247,4.247,0,0,0,2.417-.3,4.808,4.808,0,0,0,2.077-2.03A8.788,8.788,0,0,0,107.629,62.167Z" transform="translate(35.258 19.411)" fill="#fff"/>
    <path id="Path_18437" data-name="Path 18437" d="M99.332,53.587a3.437,3.437,0,0,0-3.406-.541A3.048,3.048,0,0,0,94.494,55.4a8.849,8.849,0,0,0,.453,4.094.426.426,0,0,1-.809.268,9.691,9.691,0,0,1-.486-4.5,3.885,3.885,0,0,1,1.879-2.976h0a4.265,4.265,0,0,1,4.259.579,12.6,12.6,0,0,1,5.263,10.084,4.261,4.261,0,0,1-1.961,3.826.426.426,0,0,1-.395-.755,3.436,3.436,0,0,0,1.5-3.1,11.768,11.768,0,0,0-4.871-9.333Z" transform="translate(35.829 20.031)" fill="#1496a3" fill-rule="evenodd"/>
    <path id="Path_18438" data-name="Path 18438" d="M100.683,51.845a5.577,5.577,0,0,0-5.331-.476A5.269,5.269,0,0,0,92.8,55.249a11.96,11.96,0,0,0,.68,6.208.426.426,0,0,1-.8.293,12.805,12.805,0,0,1-.717-6.66,6.114,6.114,0,0,1,2.993-4.475h0a6.417,6.417,0,0,1,6.142.488,15.134,15.134,0,0,1,7.093,13.6,6.4,6.4,0,0,1-3.116,5.312h0l-.2-.378.2.378h0a5.071,5.071,0,0,1-1.761.541.426.426,0,1,1-.1-.846,4.223,4.223,0,0,0,1.465-.45h0a5.555,5.555,0,0,0,2.66-4.64,14.3,14.3,0,0,0-6.661-12.77Z" transform="translate(35.146 19.297)" fill="#1496a3" fill-rule="evenodd"/>
    <path id="Path_18439" data-name="Path 18439" d="M101.385,62.138a.425.425,0,0,1-.054.6,2.209,2.209,0,0,1-.579.35,2.276,2.276,0,0,0-.82.507.854.854,0,0,0-.211.677c.031.469.149.656.254.736s.333.146.808.059a.426.426,0,1,1,.155.838,1.838,1.838,0,0,1-1.476-.217,1.761,1.761,0,0,1-.591-1.36h0a1.7,1.7,0,0,1,.428-1.3,3.087,3.087,0,0,1,1.126-.724h0a1.379,1.379,0,0,0,.358-.216A.426.426,0,0,1,101.385,62.138Z" transform="translate(37.874 23.905)" fill="#1496a3" fill-rule="evenodd"/>
    <path id="Path_18440" data-name="Path 18440" d="M96.587,68.376A14.179,14.179,0,0,0,93.165,60.5a10.4,10.4,0,0,0-4.113-3.281,6.023,6.023,0,0,0-4.305-.439,5.149,5.149,0,0,0-1.981,1.26,6.278,6.278,0,0,0-1.588,3.578,11.4,11.4,0,0,0,.566,5.5c.082.283.178.586.283.917A14.6,14.6,0,0,1,84.1,66.811a12.281,12.281,0,0,1-.566-3.416,5.014,5.014,0,0,1-.246-1.489,1.415,1.415,0,0,1,.94-1.3,2.705,2.705,0,0,1,.73-1.081,2.287,2.287,0,0,1,2.307-.3,6.734,6.734,0,0,1,3.68,2.485,1.462,1.462,0,0,1,.5.453A13.125,13.125,0,0,1,93.816,67.5a5.13,5.13,0,0,1,.283,1.936,6.317,6.317,0,0,1-.088.971,3.325,3.325,0,0,1-.09.532,3.473,3.473,0,0,1-.133.606.218.218,0,0,1-.031.076,2.448,2.448,0,0,1-1.1,1.783,1.46,1.46,0,0,1-.283.2,2,2,0,0,1-1.1.2,1.721,1.721,0,0,1-.093.212c-.241.461-.549.6-.543,1.042a2.785,2.785,0,0,0,.439,1.257,4.223,4.223,0,0,0,2.417-.3,4.812,4.812,0,0,0,2.08-2.03A8.762,8.762,0,0,0,96.587,68.376Z" transform="translate(31.001 21.805)" fill="#fff"/>
    <path id="Path_18441" data-name="Path 18441" d="M88.293,59.8a3.441,3.441,0,0,0-3.408-.541,3.045,3.045,0,0,0-1.43,2.357,8.862,8.862,0,0,0,.455,4.094.426.426,0,1,1-.809.268,9.7,9.7,0,0,1-.487-4.5A3.882,3.882,0,0,1,84.491,58.5h0a4.27,4.27,0,0,1,4.261.579,12.594,12.594,0,0,1,5.262,10.084,4.266,4.266,0,0,1-1.963,3.826.426.426,0,1,1-.394-.755,3.438,3.438,0,0,0,1.506-3.1,11.754,11.754,0,0,0-4.87-9.333Z" transform="translate(31.572 22.426)" fill="#1496a3" fill-rule="evenodd"/>
    <path id="Path_18442" data-name="Path 18442" d="M89.65,58.054a5.578,5.578,0,0,0-5.332-.476,5.269,5.269,0,0,0-2.551,3.879,11.952,11.952,0,0,0,.682,6.208.426.426,0,1,1-.8.293,12.8,12.8,0,0,1-.719-6.66,6.112,6.112,0,0,1,2.993-4.475h0a6.416,6.416,0,0,1,6.142.488,15.143,15.143,0,0,1,7.095,13.6,6.4,6.4,0,0,1-3.115,5.313h0l-.2-.378.2.378h0a5.073,5.073,0,0,1-1.761.541.426.426,0,0,1-.1-.846,4.224,4.224,0,0,0,1.465-.45h0a5.555,5.555,0,0,0,2.66-4.64,14.3,14.3,0,0,0-6.663-12.77Z" transform="translate(30.891 21.691)" fill="#1496a3" fill-rule="evenodd"/>
    <path id="Path_18443" data-name="Path 18443" d="M90.347,68.348a.426.426,0,0,1-.055.6,2.219,2.219,0,0,1-.583.349,2.263,2.263,0,0,0-.818.506.856.856,0,0,0-.21.677c.031.468.149.656.254.736s.333.146.808.059a.426.426,0,1,1,.155.838,1.838,1.838,0,0,1-1.476-.217,1.76,1.76,0,0,1-.591-1.36h0a1.7,1.7,0,0,1,.426-1.3,3.079,3.079,0,0,1,1.125-.724h0a1.369,1.369,0,0,0,.361-.216A.426.426,0,0,1,90.347,68.348Z" transform="translate(33.617 26.3)" fill="#1496a3" fill-rule="evenodd"/>
    <path id="Path_18444" data-name="Path 18444" d="M91.063,61.717c-3.375,1.858-6.394,3.624-9.654,5.553l-.581-.982c3.262-1.931,6.294-3.7,9.684-5.571Z" transform="translate(30.918 23.416)" fill="#1496a3" fill-rule="evenodd"/>
    <path id="Path_18445" data-name="Path 18445" d="M100.922,56.044C97.55,57.9,94.53,59.665,91.272,61.6l-.582-.981c3.263-1.935,6.294-3.7,9.682-5.571Z" transform="translate(34.721 21.229)" fill="#1496a3" fill-rule="evenodd"/>
    <path id="Path_18446" data-name="Path 18446" d="M94.472,77.717l.443,13.375-2.98,1.285-.142-9.944-2.2,1.528-.04-2.706Z" transform="translate(34.284 29.972)" fill="#21cab7"/>
    <path id="Path_18447" data-name="Path 18447" d="M103.476,77.425a4.851,4.851,0,0,1-1.379,3.167A2.153,2.153,0,0,1,104.042,83c0,2.264-1.836,4.461-4.65,5.6s-4.6.45-4.594-1.789A5.814,5.814,0,0,1,96.91,82.7,1.984,1.984,0,0,1,95.4,80.627c0-2.044,1.6-3.988,4.034-4.973C101.922,74.637,103.482,75.322,103.476,77.425Zm-5.871,7.908c0,1.019.631,1.33,1.789.849a2.587,2.587,0,0,0,1.846-2.327c0-1.022-.648-1.308-1.812-.849A2.544,2.544,0,0,0,97.606,85.334Zm.3-5.457c0,.849.532,1.132,1.509.727a2.194,2.194,0,0,0,1.551-1.981c0-.869-.529-1.166-1.529-.764A2.155,2.155,0,0,0,97.906,79.877Z" transform="translate(36.306 28.998)" fill="#21cab7"/>
  </g>
</svg>
