<svg xmlns="http://www.w3.org/2000/svg" xmlns:xlink="http://www.w3.org/1999/xlink" width="552.477" height="408.909" viewBox="0 0 552.477 408.909">
  <defs>
    <clipPath id="clip-path">
      <rect id="Rectangle_6546" data-name="Rectangle 6546" width="552.477" height="408.909" transform="translate(0.328)" fill="#fff"/>
    </clipPath>
  </defs>
  <g id="step-2" transform="translate(-0.328)" clip-path="url(#clip-path)">
    <g id="Group_3901" data-name="Group 3901" transform="translate(85.736)">
      <path id="Path_18197" data-name="Path 18197" d="M444.636,190.824c0,105.39-85.435,190.824-190.824,190.824S62.988,296.214,62.988,190.824,148.424,0,253.812,0,444.636,85.435,444.636,190.824Z" transform="translate(-62.988)" fill="#fff"/>
      <path id="Path_18198" data-name="Path 18198" d="M444.636,190.824c0,105.39-85.435,190.824-190.824,190.824S62.988,296.214,62.988,190.824,148.424,0,253.812,0,444.636,85.435,444.636,190.824Z" transform="translate(-62.988)" fill="#fff"/>
    </g>
    <path id="Path_18199" data-name="Path 18199" d="M444.636,190.824c0,105.39-85.435,190.824-190.824,190.824S62.988,296.214,62.988,190.824,148.424,0,253.812,0,444.636,85.435,444.636,190.824Z" transform="translate(22.748)" fill="#f1f1f2" opacity="0.56"/>
    <rect id="Rectangle_6545" data-name="Rectangle 6545" width="52.136" height="52.136" rx="19.125" transform="translate(250.492 355.581)" fill="#fcfcfc" stroke="#22b9af" stroke-width="1.75"/>
    <path id="Path_18200" data-name="Path 18200" d="M198.126,278.719h3.221a3.218,3.218,0,0,1,3.421-3.408,2.988,2.988,0,0,1,3.209,3.089c0,1.464-.586,2.383-3.008,4.832l-6.656,6.7v2.316H211.65v-2.849h-8.678v-.226l4.126-4.059c3.3-3.234,4.273-4.792,4.273-7.029,0-3.194-2.6-5.523-6.416-5.523C200.947,272.557,198.126,275.085,198.126,278.719Z" transform="translate(71.807 98.947)" fill="#22b9af"/>
    <path id="Path_18201" data-name="Path 18201" d="M162.441,161.283c0,9.435-14.189,17.083-31.692,17.083s-31.692-7.648-31.692-17.083S113.246,144.2,130.749,144.2,162.441,151.848,162.441,161.283Z" transform="translate(35.842 52.349)" fill="rgba(17,26,36,0.05)"/>
    <path id="Path_18202" data-name="Path 18202" d="M236.807,211.429l-61.97,36.521-6.008-1.531-12.252-3.064-14.02-43.237L141.5,189.28l27.333-16.73Z" transform="translate(51.248 62.641)" fill="#fff"/>
    <path id="Path_18203" data-name="Path 18203" d="M119.968,115.429c-1.836-1.081-1.836-2.755,0-3.836l26.9-15.5a7.214,7.214,0,0,1,6.643,0l38.868,23.09c1.837,1.081,1.837,2.755,0,3.836l-26.9,15.5a7.213,7.213,0,0,1-6.645,0Z" transform="translate(42.933 34.59)" fill="rgba(17,26,36,0.05)"/>
    <path id="Path_18204" data-name="Path 18204" d="M211.417,177.3c-1.837-1.08-1.837-2.755,0-3.834l26.9-15.5c4.946,6.733,60.956-42.415,62.793-41.334l65.386,41.335c1.836,1.08,1.836,2.755,0,3.834L286.55,216.786a7.211,7.211,0,0,1-6.643,0Z" transform="translate(76.131 42.334)" fill="rgba(17,26,36,0.05)"/>
    <path id="Path_18205" data-name="Path 18205" d="M153.927,65.7a5.855,5.855,0,1,1-1.269,1.9A5.854,5.854,0,0,1,153.927,65.7Z" transform="translate(55.138 23.228)" fill="#fff"/>
    <path id="Path_18206" data-name="Path 18206" d="M160.048,71.818a5.842,5.842,0,0,0,.834-7.189,5.544,5.544,0,0,1,1.086.839,5.851,5.851,0,1,1-8.275,8.273,5.919,5.919,0,0,1-.841-1.086,5.847,5.847,0,0,0,7.2-.836Z" transform="translate(55.371 23.462)" fill="#cbe8eb"/>
    <path id="Path_18207" data-name="Path 18207" d="M158.241,76.527a6.512,6.512,0,1,1,4.606-1.908A6.511,6.511,0,0,1,158.241,76.527Zm0-11.7A5.179,5.179,0,1,0,161.528,66a5.155,5.155,0,0,0-3.288-1.173Z" transform="translate(54.963 23.053)" fill="#1496a3"/>
    <path id="Path_18208" data-name="Path 18208" d="M253.9,97.649a5.854,5.854,0,1,1-1.268,1.9A5.854,5.854,0,0,1,253.9,97.649Z" transform="translate(91.432 34.827)" fill="#fff"/>
    <path id="Path_18209" data-name="Path 18209" d="M260.022,103.766a5.832,5.832,0,0,0,.834-7.189,5.681,5.681,0,0,1,1.089.839,5.852,5.852,0,0,1-8.278,8.273,6.053,6.053,0,0,1-.84-1.086,5.845,5.845,0,0,0,7.194-.837Z" transform="translate(91.665 35.06)" fill="#cbe8eb"/>
    <path id="Path_18210" data-name="Path 18210" d="M258.216,108.474a6.513,6.513,0,1,1,4.606-1.908A6.509,6.509,0,0,1,258.216,108.474Zm0-11.7a5.184,5.184,0,1,0,3.288,1.176A5.161,5.161,0,0,0,258.216,96.771Z" transform="translate(91.257 34.651)" fill="#1496a3"/>
    <path id="Path_18211" data-name="Path 18211" d="M124.639,234.36a5.258,5.258,0,1,1-1.539,3.717A5.26,5.26,0,0,1,124.639,234.36Z" transform="translate(44.57 84.52)" fill="#fff"/>
    <path id="Path_18212" data-name="Path 18212" d="M130.137,239.86a5.242,5.242,0,0,0,.752-6.461,5.192,5.192,0,0,1,.977.754,5.258,5.258,0,1,1-8.193,6.459,5.251,5.251,0,0,0,6.463-.752Z" transform="translate(44.778 84.731)" fill="#cbe8eb"/>
    <path id="Path_18213" data-name="Path 18213" d="M128.517,244.087a5.852,5.852,0,1,1,4.137-1.713,5.845,5.845,0,0,1-4.137,1.713Zm0-10.516a4.662,4.662,0,1,0,2.956,1.059A4.639,4.639,0,0,0,128.517,233.571Z" transform="translate(44.413 84.361)" fill="#1496a3"/>
    <path id="Path_18214" data-name="Path 18214" d="M263.084,184.11l-2.582-1.488,3.124-2.531.838,1.3Z" transform="translate(94.451 65.378)" fill="#ededef"/>
    <g id="Group_3902" data-name="Group 3902" transform="translate(354.953 245.468)">
      <path id="Path_18215" data-name="Path 18215" d="M263.084,184.11l-2.582-1.488,3.124-2.531.838,1.3Z" transform="translate(-260.502 -180.09)"/>
    </g>
    <path id="Path_18216" data-name="Path 18216" d="M229.347,184.121a2.5,2.5,0,0,0,2.762-.532L279,151.186h.015c10.051-6.945,13.584-6.234,17.2-6.972.068-.012.136-.031.2-.048.113-.022.236-.048.338-.075l.15-.038a13.289,13.289,0,0,0,4.923-2.592,24.344,24.344,0,0,0,4.974-5.324c3.35-4.807,5.235-10.752,4.559-15.429a7.346,7.346,0,0,0-3.2-5.259l-2.121-1.223c-2.62-1.48-6.384-.875-10.287,2.07l-.194.144-61.4,47.522c-6.07,4.7-8.876,10.889-7.842,17.293a2.266,2.266,0,0,0,.537,1.306,1.765,1.765,0,0,0,.521.436Z" transform="translate(81.966 41.185)" fill="#21bdca"/>
    <path id="Path_18217" data-name="Path 18217" d="M229.348,184.11a1.68,1.68,0,0,1-.5-.424,2.287,2.287,0,0,1-.536-1.306c-1.036-6.4,1.771-12.594,7.842-17.3l61.395-47.515.194-.144c3.975-3,7.813-3.577,10.435-1.989l-2.121-1.223c-2.62-1.479-6.384-.874-10.287,2.072l-.194.143-61.4,47.523c-6.07,4.7-8.876,10.888-7.842,17.293a2.262,2.262,0,0,0,.537,1.3,1.725,1.725,0,0,0,.521.436l1.953,1.129Z" transform="translate(81.971 41.181)" fill="#19acb8"/>
    <path id="Path_18218" data-name="Path 18218" d="M230.318,184.78a2.074,2.074,0,0,1-.979-.236.338.338,0,0,1-.078-.03l-1.953-1.129a.418.418,0,0,1-.063-.048,2.008,2.008,0,0,1-.552-.47,2.536,2.536,0,0,1-.6-1.381l-.015-.087c-1.059-6.567,1.772-12.826,7.974-17.625l61.4-47.527.127-.094.071-.052c3.826-2.89,7.776-3.682,10.6-2.121a.3.3,0,0,1,.064.029l2.12,1.224a.252.252,0,0,1,.05.034,7.72,7.72,0,0,1,3.319,5.468c.669,4.64-1.1,10.645-4.618,15.69a24.459,24.459,0,0,1-5.047,5.4,13.76,13.76,0,0,1-5.049,2.651l-.154.04-.353.078h-.04l-.172.041c-.637.129-1.27.214-1.942.3-3.078.412-6.906.928-15.13,6.6l-.023.016-46.89,32.394A3.474,3.474,0,0,1,230.318,184.78Zm-.776-.913a.347.347,0,0,1,.074.03,2.172,2.172,0,0,0,2.373-.507L278.9,150.978l.023-.015c8.358-5.772,12.277-6.3,15.424-6.722.66-.087,1.283-.172,1.907-.3a.579.579,0,0,0,.134-.029l.06-.014.337-.076.142-.037a13.1,13.1,0,0,0,4.8-2.527,23.873,23.873,0,0,0,4.9-5.249c3.418-4.9,5.144-10.722,4.5-15.179a7.021,7.021,0,0,0-3.035-5.008.156.156,0,0,1-.035-.026l-2.017-1.164-.056-.026c-2.578-1.456-6.28-.692-9.9,2.043l-.075.057-.116.087-61.4,47.518c-5.989,4.634-8.718,10.658-7.709,16.964l.014.1a1.873,1.873,0,0,0,.45,1.051,1.336,1.336,0,0,0,.417.344.256.256,0,0,1,.068.052Z" transform="translate(81.877 41.093)" fill="#1496a3"/>
    <path id="Path_18219" data-name="Path 18219" d="M269.232,203.868a.937.937,0,0,0,1.056-.21l.136-.1,46.831-33.58c8.7-6.237,12.848-6.915,16.182-7.461.646-.106,1.257-.206,1.843-.342l.194-.049.288-.074.113-.033a11.447,11.447,0,0,0,4.09-2.257,20.414,20.414,0,0,0,4.088-4.5c2.827-4.171,4.2-9.053,3.586-12.759a6.021,6.021,0,0,0-2.723-4.227L305.439,115.48c-2.234-1.235-5.449-.638-8.777,1.961l-.161.124-61.14,48.968c-4.961,3.975-6.992,8.612-6.031,13.783l.019.1a.83.83,0,0,0,.259.523.757.757,0,0,0,.236.184l39.4,22.745Z" transform="translate(83.05 41.698)" fill="#fff"/>
    <path id="Path_18220" data-name="Path 18220" d="M229.326,164.149l.019.1a.83.83,0,0,0,.259.523.733.733,0,0,0,.236.183l39.4,22.745a.936.936,0,0,0,1.056-.209l.136-.1,3.3-2.357L229.32,159.389A12.675,12.675,0,0,0,229.326,164.149Z" transform="translate(83.05 57.863)" fill="#cbe8eb"/>
    <path id="Path_18221" data-name="Path 18221" d="M269.674,204.4a1.09,1.09,0,0,1-.472-.112l-.039-.018-39.4-22.745-.03-.022a1.1,1.1,0,0,1-.29-.236,1.177,1.177,0,0,1-.341-.686l-.019-.1c-.985-5.3,1.086-10.054,6.158-14.118l61.136-48.978.165-.129c3.3-2.568,6.694-3.319,9.119-2.012a.219.219,0,0,1,.048.023l39.476,22.79.03.019a6.392,6.392,0,0,1,2.861,4.439c.627,3.806-.77,8.79-3.641,13.028a20.7,20.7,0,0,1-4.159,4.578,11.774,11.774,0,0,1-4.21,2.32l-.119.033c-.1.029-.207.057-.3.078l-.185.048c-.594.136-1.2.236-1.836.342h-.038c-3.3.54-7.4,1.21-16.036,7.4l-46.828,33.578-.129.1A1.468,1.468,0,0,1,269.674,204.4Zm-.2-.752h.014a.644.644,0,0,0,.672-.174l.143-.108,46.838-33.586c8.767-6.284,12.96-6.972,16.33-7.524h.038c.627-.1,1.219-.2,1.784-.331l.185-.048c.09-.02.184-.045.275-.072l.116-.031a11.115,11.115,0,0,0,3.965-2.193,20.06,20.06,0,0,0,4.006-4.426c2.774-4.093,4.126-8.886,3.534-12.5a5.679,5.679,0,0,0-2.554-3.977l-.03-.022-39.4-22.749-.035-.016c-2.173-1.2-5.309-.472-8.391,1.93l-.162.127L235.658,166.9c-4.855,3.89-6.833,8.414-5.906,13.448l.018.1a.527.527,0,0,0,.184.361.428.428,0,0,0,.123.1.31.31,0,0,1,.057.035Z" transform="translate(82.958 41.607)" fill="#1496a3"/>
    <path id="Path_18222" data-name="Path 18222" d="M272.6,188.206l61.56-48.817c.5-.4.408-.924-.2-1.179a165.475,165.475,0,0,1-36.536-20.43,1.531,1.531,0,0,0-1.771.071L234.1,166.672a.824.824,0,0,0-.044,1.37,165.742,165.742,0,0,0,36.537,20.435,2.221,2.221,0,0,0,2.015-.27Z" transform="translate(84.724 42.668)" fill="rgba(33,189,202,0.16)"/>
    <path id="Path_18223" data-name="Path 18223" d="M258.175,138.536a.984.984,0,0,1,.094-.462.971.971,0,0,1,.3-.364c.444-.378.893-.74,1.336-1.092s.9-.706,1.381-1.062a2.348,2.348,0,0,1,2.238-.236c1.49.706,3.042,1.463,4.625,2.261-.981.632-1.941,1.313-2.862,2.04a31.1,31.1,0,0,0-2.523,2.231c-1.452-.9-2.842-1.788-4.141-2.646a.921.921,0,0,1-.3-.284A.9.9,0,0,1,258.175,138.536Zm15.735,2.042c-1.595-.853-3.173-1.678-4.712-2.466a34.847,34.847,0,0,0-2.91,2.072,30.815,30.815,0,0,0-2.56,2.267c1.431.879,2.928,1.775,4.461,2.672Z" transform="translate(93.606 49.06)" fill="#21bdca"/>
    <path id="Path_18224" data-name="Path 18224" d="M254.712,142.919a.926.926,0,0,1,.1-.427.913.913,0,0,1,.285-.334l2.418-1.916a1.523,1.523,0,0,1,1.769-.068q3.337,2.494,6.92,4.828a.784.784,0,0,1,.284.275.766.766,0,0,1,.112.378.863.863,0,0,1-.365.672l-2.417,1.918a1.685,1.685,0,0,1-1.84.117q-3.58-2.327-6.92-4.831a.812.812,0,0,1-.151-.139c-.019-.023-.033-.046-.049-.07a.8.8,0,0,1-.055-.083.729.729,0,0,1-.055-.136v-.025A.9.9,0,0,1,254.712,142.919Zm-1.885,17.808a.664.664,0,0,0,.113.328.874.874,0,0,0,.123.143,1.036,1.036,0,0,0,.17.125q3.717,2.231,7.66,4.283a1.939,1.939,0,0,0,1.931-.188l2.419-1.918a1.376,1.376,0,0,0,.157-.151.689.689,0,0,0,.181-.487.769.769,0,0,0-.142-.373.742.742,0,0,0-.313-.247q-3.944-2.053-7.66-4.284a1.765,1.765,0,0,0-1.869.139l-2.429,1.93a.844.844,0,0,0-.267.308.828.828,0,0,0-.089.4Zm29.6,5.5,2.417-1.918a.962.962,0,0,0,.151-.146.626.626,0,0,0,.129-.211.653.653,0,0,0,.035-.245.741.741,0,0,0-.521-.572q-4.269-1.754-8.339-3.7a2.025,2.025,0,0,0-1.959.214l-2.417,1.916a.737.737,0,0,0-.33.672.6.6,0,0,0,.142.308c0,.014.03.029.044.045a.988.988,0,0,0,.1.089,1.116,1.116,0,0,0,.194.116q4.064,1.944,8.339,3.7a2.215,2.215,0,0,0,2.012-.264Zm-4.332-9.139a.486.486,0,0,0,.045.15v.018a.693.693,0,0,0,.084.131c.015.016.034.031.048.045q.045.047.094.09a1.153,1.153,0,0,0,.194.116q4.065,1.938,8.336,3.7a2.223,2.223,0,0,0,2.019-.263l2.418-1.921a1.209,1.209,0,0,0,.155-.146.744.744,0,0,0,.068-.106c0-.016.025-.033.033-.049a.508.508,0,0,0,.05-.144.521.521,0,0,0,0-.146.741.741,0,0,0-.521-.572q-4.271-1.754-8.336-3.7a2.03,2.03,0,0,0-1.959.213q-1.212.959-2.418,1.918a.729.729,0,0,0-.315.672Zm.048,11.205q-4.275-1.758-8.342-3.706a2.016,2.016,0,0,0-1.956.213l-2.417,1.915a.742.742,0,0,0-.258.293.73.73,0,0,0-.072.383.515.515,0,0,0,.045.154l.023.04a.709.709,0,0,0,.071.109.618.618,0,0,0,.091.087.57.57,0,0,0,.05.049,1.127,1.127,0,0,0,.192.113q4.065,1.944,8.336,3.7a2.209,2.209,0,0,0,2.017-.266l2.419-1.918a.853.853,0,0,0,.151-.146.676.676,0,0,0,.085-.123l.016-.029a.566.566,0,0,0,.05-.139.6.6,0,0,0,0-.139.723.723,0,0,0-.164-.368.714.714,0,0,0-.334-.226Zm-16.044-15.331-2.417,1.918a.823.823,0,0,0-.356.707.672.672,0,0,0,.113.318.147.147,0,0,1,.018.023.693.693,0,0,0,.106.12,1.044,1.044,0,0,0,.172.128q3.715,2.231,7.66,4.284a1.946,1.946,0,0,0,1.933-.189q1.206-.961,2.417-1.918a1.093,1.093,0,0,0,.157-.151.712.712,0,0,0,.181-.487.753.753,0,0,0-.143-.372.736.736,0,0,0-.312-.245q-3.944-2.053-7.66-4.284a1.769,1.769,0,0,0-1.869.149Zm3.725-2.528a.651.651,0,0,0,.116.318c0,.016.029.034.039.05a1.077,1.077,0,0,0,.083.094.993.993,0,0,0,.172.13q3.715,2.231,7.66,4.284a1.951,1.951,0,0,0,1.933-.191l2.417-1.919a1.076,1.076,0,0,0,.155-.15,1.038,1.038,0,0,0,.076-.109c0-.016.023-.033.033-.049a.739.739,0,0,0,.059-.158.626.626,0,0,0,.014-.168.751.751,0,0,0-.143-.368.762.762,0,0,0-.311-.247q-3.944-2.055-7.66-4.283a1.757,1.757,0,0,0-1.869.139l-2.418,1.915a.844.844,0,0,0-.267.308.828.828,0,0,0-.089.4Zm-24.1,2.787a.712.712,0,0,0,.087.333.285.285,0,0,0,.029.042.587.587,0,0,0,.075.108.9.9,0,0,0,.149.139q3.337,2.5,6.92,4.831a1.686,1.686,0,0,0,1.84-.12l2.418-1.918a1.344,1.344,0,0,0,.162-.155c.016-.022.029-.042.045-.067s.049-.065.068-.1a.788.788,0,0,0,.056-.146v-.026a.587.587,0,0,0,.022-.161.776.776,0,0,0-.106-.384.767.767,0,0,0-.282-.282q-3.582-2.327-6.923-4.828a1.527,1.527,0,0,0-1.768.068l-2.417,1.918a.928.928,0,0,0-.384.761Zm6.5-5.167a.734.734,0,0,0,.085.342v.011a.866.866,0,0,0,.1.144.917.917,0,0,0,.151.139q3.335,2.5,6.92,4.828a1.682,1.682,0,0,0,1.84-.119l2.417-1.915a1.086,1.086,0,0,0,.161-.155.8.8,0,0,0,.2-.517.774.774,0,0,0-.391-.65q-3.582-2.327-6.92-4.828a1.523,1.523,0,0,0-1.769.068l-2.408,1.9a.944.944,0,0,0-.386.735Z" transform="translate(87.627 50.796)" fill="#fff"/>
    <path id="Path_18225" data-name="Path 18225" d="M257.512,162.529a.688.688,0,0,0-.115-1.246q-3.944-2.053-7.66-4.284a1.76,1.76,0,0,0-1.866.136l-2.421,1.918a.743.743,0,0,0,.055,1.3q3.713,2.231,7.658,4.281a1.955,1.955,0,0,0,.992.165,1.928,1.928,0,0,0,.94-.354Q256.308,163.492,257.512,162.529Z" transform="translate(88.857 56.921)" fill="#21bdca"/>
    <path id="Path_18226" data-name="Path 18226" d="M248.461,157.667a.761.761,0,0,0-.023-1.319q-3.578-2.333-6.92-4.828a1.517,1.517,0,0,0-1.769.068l-2.418,1.918a.82.82,0,0,0-.045,1.366q3.337,2.5,6.92,4.831a1.683,1.683,0,0,0,1.839-.117Z" transform="translate(85.898 54.915)" fill="#fff"/>
    <path id="Path_18227" data-name="Path 18227" d="M267.345,166.716c.5-.4.4-.921-.207-1.178q-4.271-1.756-8.339-3.7a2.029,2.029,0,0,0-1.956.211l-2.419,1.918a.67.67,0,0,0,.146,1.225q4.063,1.948,8.336,3.706a2.224,2.224,0,0,0,2.019-.266Z" transform="translate(92.122 58.693)" fill="#fff"/>
    <path id="Path_18228" data-name="Path 18228" d="M280.5,142.1a.747.747,0,0,0-.131-.372.762.762,0,0,0-.3-.255L274.74,138.5a1.856,1.856,0,0,0-1.885.165l-7.026,5.573a.78.78,0,0,0-.343.706.326.326,0,0,0,0,.052.326.326,0,0,0,0,.052.326.326,0,0,0,0,.052.344.344,0,0,0,0,.053.293.293,0,0,0,0,.049.326.326,0,0,0,0,.052.361.361,0,0,0,0,.055v.052a.326.326,0,0,0,0,.052.326.326,0,0,0,0,.052v.049a.378.378,0,0,1,0,.055v.2a.341.341,0,0,1,0,.052v.052a.326.326,0,0,0,0,.052v.1a.309.309,0,0,0,0,.05.344.344,0,0,0,0,.053v.052a.326.326,0,0,0,0,.052v.155a.172.172,0,0,0,0,.053.326.326,0,0,0,0,.052.746.746,0,0,0,.433.626l5.327,2.981a1.848,1.848,0,0,0,1.885-.165l7.127-5.579a.785.785,0,0,0,.266-.308.794.794,0,0,0,.079-.4.3.3,0,0,0,0-.049v-.1a.333.333,0,0,0,0-.052.326.326,0,0,1,0-.052.333.333,0,0,0,0-.052.333.333,0,0,0,0-.052v-.157a.333.333,0,0,0,0-.052v-.052a.333.333,0,0,0,0-.052v-.052a.333.333,0,0,0,0-.052v-.1a.333.333,0,0,0,0-.052v-.1a.361.361,0,0,1,0-.055v-.052a.326.326,0,0,1,0-.052v-.049a.369.369,0,0,0,0-.055v-.049a.361.361,0,0,1,0-.055.326.326,0,0,1,0-.052.333.333,0,0,0,0-.052A.2.2,0,0,0,280.5,142.1Z" transform="translate(96.259 50.212)" fill="#21bdca"/>
    <g id="Group_3903" data-name="Group 3903" transform="translate(361.741 192.309)" opacity="0.3">
      <path id="Path_18229" data-name="Path 18229" d="M280.154,141.742l-7.028,5.572a1.839,1.839,0,0,1-1.885.165l-5.328-2.978a.758.758,0,0,1-.286-.234.768.768,0,0,1-.143-.342v.567a.361.361,0,0,1,0,.055v.049a.326.326,0,0,1,0,.052v.1a.344.344,0,0,1,0,.053v.153a.361.361,0,0,1,0,.055v.363a.326.326,0,0,0,0,.052v.052a.749.749,0,0,0,.435.627l5.327,2.981a1.848,1.848,0,0,0,1.885-.165l7.127-5.571a.784.784,0,0,0,.266-.308.808.808,0,0,0,.079-.4.3.3,0,0,0,0-.049v-.1a.333.333,0,0,0,0-.052.326.326,0,0,1,0-.052.333.333,0,0,0,0-.052.333.333,0,0,0,0-.052v-.155a.333.333,0,0,0,0-.052v-.052a.334.334,0,0,0,0-.052v-.361a.361.361,0,0,1,0-.055V141.5a.326.326,0,0,1,0-.052V141.4a.37.37,0,0,0,0-.055V141.3a.361.361,0,0,1,0-.055.326.326,0,0,1,0-.052v-.052a.333.333,0,0,0,0-.052.83.83,0,0,1-.139.384A.816.816,0,0,1,280.154,141.742Z" transform="translate(-265.482 -141.089)"/>
    </g>
    <path id="Path_18230" data-name="Path 18230" d="M273.219,145.321a1.848,1.848,0,0,1-1.9.168l-2.971-1.649a.715.715,0,0,1-.08-1.276l2.719-2.155a1.848,1.848,0,0,1,1.885-.165l2.969,1.649a.714.714,0,0,1,.085,1.274Z" transform="translate(97.142 50.846)" fill="#dbf4f7"/>
    <g id="Group_3904" data-name="Group 3904" transform="translate(365.072 190.885)">
      <path id="Path_18231" data-name="Path 18231" d="M268.316,143.353l2.716-2.159a1.86,1.86,0,0,1,.927-.345,1.84,1.84,0,0,1,.972.183l2.971,1.649a.969.969,0,0,1,.262.214.686.686,0,0,0-.315-1.018l-2.97-1.649a1.84,1.84,0,0,0-.965-.176,1.861,1.861,0,0,0-.92.341l-2.718,2.156a.7.7,0,0,0-.18,1.06A1.014,1.014,0,0,1,268.316,143.353Z" transform="translate(-267.926 -140.045)"/>
    </g>
    <path id="Path_18232" data-name="Path 18232" d="M282.718,152.735c-1.49-.707-3.042-1.463-4.629-2.26.985-.634,1.945-1.314,2.864-2.043a31.073,31.073,0,0,0,2.523-2.229c1.452.9,2.845,1.788,4.142,2.642a.9.9,0,0,1,.311.3.919.919,0,0,1,.142.409.984.984,0,0,1-.4.8q-.667.566-1.333,1.09c-.443.352-.905.707-1.383,1.063a2.337,2.337,0,0,1-2.235.226Zm-2.755-4.856a30.085,30.085,0,0,0,2.556-2.267c-1.43-.879-2.921-1.772-4.457-2.669l-5.73,4.544c1.592.851,3.173,1.675,4.712,2.463A35.222,35.222,0,0,0,279.964,147.879Z" transform="translate(98.746 51.893)" fill="#21bdca"/>
    <path id="Path_18233" data-name="Path 18233" d="M298.641,154.23a1.856,1.856,0,0,1-1.9.165l-31.838-17.8a.712.712,0,0,1-.082-1.272l17.455-13.846a1.851,1.851,0,0,1,1.9-.165l31.838,17.8a.712.712,0,0,1,.083,1.272Z" transform="translate(95.891 43.971)" fill="#21bdca" opacity="0.6"/>
    <path id="Path_18234" data-name="Path 18234" d="M306.8,139.381a.783.783,0,0,1-.808.037L289.5,129.8a.312.312,0,0,1-.135-.1.3.3,0,0,1-.065-.154.312.312,0,0,1,.025-.165.317.317,0,0,1,.108-.128.79.79,0,0,1,.81-.035l16.494,9.616a.309.309,0,0,1,.2.251.312.312,0,0,1-.025.165A.324.324,0,0,1,306.8,139.381Zm-1.551-2.913a.3.3,0,0,0,.069-.443.309.309,0,0,0-.135-.1l-13.45-7.862a.771.771,0,0,0-.808.035.3.3,0,0,0-.106.127.294.294,0,0,0-.026.164.3.3,0,0,0,.2.251l13.449,7.866a.787.787,0,0,0,.808-.041Zm3.094,5.823a.788.788,0,0,1-.811.037l-19.516-11.369a.311.311,0,0,1-.136-.1.324.324,0,0,1-.065-.154.313.313,0,0,1,.026-.165.3.3,0,0,1,.106-.127.792.792,0,0,1,.811-.038l19.52,11.369a.318.318,0,0,1,.135.1.321.321,0,0,1,.064.154.308.308,0,0,1-.134.292Zm-6.006.563a.785.785,0,0,1-.4.131.777.777,0,0,1-.409-.091l-16.493-9.615a.307.307,0,0,1-.135-.1.3.3,0,0,1-.064-.153.31.31,0,0,1,.025-.165.327.327,0,0,1,.108-.128.786.786,0,0,1,.4-.131.777.777,0,0,1,.409.1l16.494,9.616a.3.3,0,0,1,.2.249.307.307,0,0,1-.134.29Zm-1.548-2.91a.31.31,0,0,0,.1-.128.307.307,0,0,0,.025-.164.312.312,0,0,0-.064-.153.329.329,0,0,0-.134-.1l-13.45-7.862a.783.783,0,0,0-.808.037.333.333,0,0,0-.108.127.312.312,0,0,0-.025.165.3.3,0,0,0,.2.251l13.449,7.863a.793.793,0,0,0,.811-.038Zm2.355,6.4a.781.781,0,0,1-.807.04l-27.915-16.215a.312.312,0,0,1-.135-.1.3.3,0,0,1-.064-.153.3.3,0,0,1,.132-.292.788.788,0,0,1,.808-.038L303.084,145.8a.309.309,0,0,1,.135.1.309.309,0,0,1,.04.318A.312.312,0,0,1,303.149,146.344Zm-6,.566a.793.793,0,0,1-.811.038l-24.877-14.463a.3.3,0,0,1-.135-.1.308.308,0,0,1-.064-.154.312.312,0,0,1,.025-.165.324.324,0,0,1,.108-.127.783.783,0,0,1,.808-.037l24.879,14.462a.3.3,0,0,1,.135.1.3.3,0,0,1,.064.153.3.3,0,0,1-.132.292Zm-1.546-2.922a.293.293,0,0,0,.108-.125.307.307,0,0,0,.027-.164.3.3,0,0,0-.064-.153.312.312,0,0,0-.135-.1l-21.845-12.709a.777.777,0,0,0-.807.035.3.3,0,0,0-.108.127.313.313,0,0,0-.026.165.3.3,0,0,0,.064.154.3.3,0,0,0,.135.1l21.845,12.71a.783.783,0,0,0,.408.091A.775.775,0,0,0,295.6,143.987Zm2.355,6.4a.779.779,0,0,1-.808.038l-27.913-16.206a.313.313,0,0,1-.136-.1.309.309,0,0,1-.04-.318.306.306,0,0,1,.108-.128.782.782,0,0,1,.81-.035l27.915,16.215a.31.31,0,0,1,.135.1.319.319,0,0,1,.063.154.307.307,0,0,1-.134.29Zm-7.554-2.355a.307.307,0,0,0,.07-.446.309.309,0,0,0-.135-.1L268.494,134.8a.779.779,0,0,0-.806.037.3.3,0,0,0-.108.127.307.307,0,0,0,.17.416L289.6,148.087a.783.783,0,0,0,.808-.037Zm-1.288-21.5L283.34,123.2a.762.762,0,0,0-.409-.1.777.777,0,0,0-.4.131l-5.94,4.634c-.2.161-.173.4.069.542l5.77,3.331a.779.779,0,0,0,.808-.038l5.94-4.634a.306.306,0,0,0,.117-.278.286.286,0,0,0-.059-.146.306.306,0,0,0-.123-.1Z" transform="translate(97.01 44.691)" fill="#fff"/>
    <path id="Path_18235" data-name="Path 18235" d="M264.873,136.12l17.456-13.843a1.846,1.846,0,0,1,1.9-.166l31.838,17.8a.945.945,0,0,1,.262.214.683.683,0,0,0-.314-1.015l-31.838-17.8a1.851,1.851,0,0,0-1.9.165l-17.456,13.846a.7.7,0,0,0-.179,1.058A1.068,1.068,0,0,1,264.873,136.12Z" transform="translate(95.892 43.971)" fill="#19acb8"/>
    <path id="Path_18236" data-name="Path 18236" d="M274.463,140.094l1.235-.03.165.815Zm-6.154,4.882.169.815,1.229-.031Z" transform="translate(97.285 50.848)" fill="#fff"/>
    <path id="Path_18237" data-name="Path 18237" d="M278.694,146.161l-.059.834-1.224.181Zm-10.681-5.976-1.223.184-.061.834Z" transform="translate(96.712 50.891)" fill="#fff"/>
    <path id="Path_18238" data-name="Path 18238" d="M261.181,142.848l-2.227,1.764-.635-.353,1.75-1.388-.472-.262.472-.378Zm10.528,7.58c.123-.1.091-.207-.087-.307a2.031,2.031,0,0,0-.943-.151l.191-.47a2.888,2.888,0,0,1,1.341.3c.495.277.615.66.262.943a2.429,2.429,0,0,1-1.213.324l-.957.086,1.041.582-.472.369-1.85-1.037.379-.305,1.716-.165A1.4,1.4,0,0,0,271.709,150.428ZM284.3,157.82a1.565,1.565,0,0,1-1.719.023,1.389,1.389,0,0,1-.683-.75l.707-.211a.688.688,0,0,0,.108.341.7.7,0,0,0,.267.241.606.606,0,0,0,.69.014c.179-.142.123-.3-.149-.45l-.408-.236.311-.236,1.067-.078-.942-.523L284,155.6l1.7.943-.337.269-1.213.075.106.08C284.588,157.228,284.64,157.548,284.3,157.82Zm-29.845-9.943-1.982.657.455.252.472-.375.582.326-.472.373.311.174-.44.352-.313-.177-.472.384-.579-.326.472-.383-1.1-.616.388-.308,2.079-.673Zm10.427,7.7c.572.319.667.746.27,1.06a1.589,1.589,0,0,1-1.769.059,1.478,1.478,0,0,1-.68-.761l.706-.214a.657.657,0,0,0,.356.575.575.575,0,0,0,.334.106.568.568,0,0,0,.333-.106c.17-.132.128-.286-.117-.42-.127-.074-.527-.294-.692-.372l1.27-1.006,1.634.913-.472.372-1.048-.608-.337.27Zm13.216,6.079a.975.975,0,0,0-1.138.155,1.13,1.13,0,0,1,.8.125c.472.264.491.662.055,1.006a1.5,1.5,0,0,1-1.663.11c-.646-.36-.611-.912.072-1.453a2.108,2.108,0,0,1,2.274-.313,1.392,1.392,0,0,1,.59.577l-.634.189A.712.712,0,0,0,278.1,161.659Zm-1.562.581c-.164.127-.2.3.052.44a.579.579,0,0,0,.339.078.572.572,0,0,0,.322-.135c.189-.147.177-.308-.04-.428a.6.6,0,0,0-.673.055ZM248.6,153.387l-.4.32-2.74.943-.669-.373,2.646-.9-.682-.379-.308.236-.563-.313.78-.617Zm10.82,7.632a1.085,1.085,0,0,1-.75.2.447.447,0,0,1,.076.177.47.47,0,0,1,0,.195.474.474,0,0,1-.224.307,1.49,1.49,0,0,1-1.636-.029c-.6-.333-.722-.743-.33-1.056a1.33,1.33,0,0,1,.488-.21,1.311,1.311,0,0,1,.53,0,.446.446,0,0,1,.151-.556,1.318,1.318,0,0,1,1.437,0C259.677,160.329,259.788,160.727,259.421,161.019Zm-2.211.08c-.179.142-.143.3.1.433a.57.57,0,0,0,.667,0c.179-.143.139-.3-.106-.436a.569.569,0,0,0-.662,0Zm1-.707c-.153.119-.123.252.085.365a.47.47,0,0,0,.564,0c.157-.124.129-.256-.08-.375a.487.487,0,0,0-.285-.093.476.476,0,0,0-.284.1Zm11.643,7.333a.97.97,0,0,0,1.142-.155,1.159,1.159,0,0,1-.808-.123c-.472-.266-.472-.66-.045-1.006a1.484,1.484,0,0,1,1.649-.109c.643.358.611.911-.072,1.449a2.108,2.108,0,0,1-2.276.316,1.4,1.4,0,0,1-.589-.579l.634-.187a.72.72,0,0,0,.365.39Zm.855-.964c-.191.151-.184.308.031.429a.6.6,0,0,0,.676-.048c.165-.127.2-.3-.048-.439a.575.575,0,0,0-.338-.078.583.583,0,0,0-.322.13Z" transform="translate(88.747 51.635)" fill="#19acb8"/>
    <path id="Path_18239" data-name="Path 18239" d="M259.7,201.644a2.5,2.5,0,0,0,2.759-.534l46.89-32.4h.015c10.051-6.945,13.583-6.236,17.2-6.973l.2-.045.338-.075.15-.042a13.214,13.214,0,0,0,4.921-2.591,24.4,24.4,0,0,0,4.976-5.325c3.35-4.807,5.233-10.752,4.559-15.43a7.334,7.334,0,0,0-3.2-5.256l-2.121-1.224c-2.62-1.482-6.387-.876-10.287,2.069l-.194.144-61.373,47.514c-6.07,4.7-8.876,10.891-7.842,17.291a2.306,2.306,0,0,0,.534,1.309,1.763,1.763,0,0,0,.523.433Z" transform="translate(92.991 47.546)" fill="#21bdca"/>
    <path id="Path_18240" data-name="Path 18240" d="M312.18,146.093c-1.036-1.675-2.856-2.005-4.816-.485l-41.338,32a10.671,10.671,0,0,0-3.605,7l-1.345,11.34,33.43-23.091,24.27-16.892Z" transform="translate(94.659 52.506)" fill="#19acb8"/>
    <path id="Path_18241" data-name="Path 18241" d="M259.7,201.642a1.67,1.67,0,0,1-.5-.427,2.284,2.284,0,0,1-.538-1.307c-1.033-6.4,1.775-12.592,7.844-17.29L327.9,135.094l.194-.144c3.975-3,7.81-3.574,10.435-1.986l-2.121-1.223c-2.62-1.483-6.387-.876-10.287,2.069l-.194.143L264.534,181.48c-6.07,4.7-8.876,10.891-7.842,17.291a2.306,2.306,0,0,0,.534,1.309,1.763,1.763,0,0,0,.523.433l1.953,1.129Z" transform="translate(92.991 47.544)" fill="#19acb8"/>
    <path id="Path_18242" data-name="Path 18242" d="M260.675,202.308a2.091,2.091,0,0,1-.979-.236.285.285,0,0,1-.079-.033l-1.955-1.129a.446.446,0,0,1-.065-.048,2.029,2.029,0,0,1-.551-.472,2.5,2.5,0,0,1-.592-1.378l-.016-.091c-1.06-6.564,1.769-12.823,7.975-17.625l61.395-47.521.127-.1.071-.052c3.829-2.891,7.792-3.683,10.615-2.121l.059.026,2.121,1.223a.467.467,0,0,1,.049.038,7.723,7.723,0,0,1,3.318,5.467c.667,4.638-1.1,10.648-4.618,15.69a24.554,24.554,0,0,1-5.047,5.4,13.808,13.808,0,0,1-5.05,2.648l-.146.04-.358.08-.072.019-.135.029c-.643.131-1.277.217-1.946.305-3.063.413-6.9.927-15.127,6.6l-.023.018-46.89,32.4A3.476,3.476,0,0,1,260.675,202.308Zm-.78-.915a.367.367,0,0,1,.075.033,2.175,2.175,0,0,0,2.37-.508l46.91-32.41V168.5c8.368-5.778,12.288-6.305,15.439-6.727.66-.087,1.281-.172,1.9-.3l.113-.023.087-.022.331-.072.142-.041a13.067,13.067,0,0,0,4.8-2.526,23.72,23.72,0,0,0,4.9-5.248c3.42-4.9,5.144-10.718,4.5-15.179a7.022,7.022,0,0,0-3.034-5.006l-.041-.029-2.017-1.164-.053-.023c-2.576-1.457-6.278-.692-9.9,2.045l-.075.055-.116.087-61.39,47.521c-5.989,4.637-8.73,10.66-7.709,16.966l.014.094a1.892,1.892,0,0,0,.45,1.051,1.368,1.368,0,0,0,.416.343.534.534,0,0,1,.072.052Z" transform="translate(92.897 47.455)" fill="#1496a3"/>
    <path id="Path_18243" data-name="Path 18243" d="M320.486,156.916l-6.6-9.868a3.207,3.207,0,0,0-1.123-1.126l-.863-.5c-1-.527-2.276-.356-3.619.682l-41.335,32a10.67,10.67,0,0,0-3.605,7.007l-1.518,11.241.791.453Z" transform="translate(94.931 52.688)" fill="#fff"/>
    <path id="Path_18244" data-name="Path 18244" d="M267.728,178.555l41.335-32c1.374-1.062,2.677-1.216,3.692-.638l-.861-.5c-1-.527-2.276-.356-3.62.682l-41.335,32a10.676,10.676,0,0,0-3.605,7.007l-1.517,11.241.789.453,1.516-11.241A10.676,10.676,0,0,1,267.728,178.555Z" transform="translate(94.928 52.688)" fill="rgba(33,189,202,0.16)"/>
    <path id="Path_18245" data-name="Path 18245" d="M262.694,197.248a.355.355,0,0,1-.174-.046l-.789-.453a.362.362,0,0,1-.142-.149.348.348,0,0,1-.033-.2l1.52-11.242a10.974,10.974,0,0,1,3.736-7.235l41.357-32a3.655,3.655,0,0,1,3.964-.731l.048.022.861.5.045.03a3.551,3.551,0,0,1,1.2,1.219l6.6,9.856a.346.346,0,0,1,.053.26.353.353,0,0,1-.144.222l-57.881,39.889A.353.353,0,0,1,262.694,197.248Zm-.41-.99.391.224,57.415-39.566-6.412-9.578a2.932,2.932,0,0,0-1.009-1.018.39.39,0,0,1-.045-.027l-.786-.453h-.019a2.986,2.986,0,0,0-3.243.647l-41.326,31.986a10.293,10.293,0,0,0-3.47,6.769Z" transform="translate(94.832 52.594)" fill="#1496a3"/>
    <path id="Path_18246" data-name="Path 18246" d="M129.428,154.47l-19.242,10.553c-5.184-3.143-7.72-7.17-7.645-11.135l.113-5.066c.078-3.975,2.79-7.889,8.1-10.8,10.629-5.827,27.648-5.451,38.023.851,5.184,3.143,7.719,7.168,7.643,11.133v.019l-.113,5.054c-.085,3.972-2.789,7.884-8.1,10.8Z" transform="translate(37.106 48.604)" fill="#fff"/>
    <path id="Path_18247" data-name="Path 18247" d="M129.428,150.49l-19.242,10.554c-5.184-3.143-7.72-7.17-7.645-11.136l.113-5.07c-.087,3.971,2.455,8.012,7.644,11.155l19.241-10.551,18.781,11.4c5.319-2.917,8.028-6.834,8.1-10.818l-.113,5.073c-.085,3.973-2.79,7.884-8.1,10.8Z" transform="translate(37.106 52.581)" fill="#cbe8eb"/>
    <path id="Path_18248" data-name="Path 18248" d="M155.991,144.913a10.5,10.5,0,0,1,1.358,5.287v.029l-.11,5.051c-.1,4.42-3.11,8.482-8.484,11.426a.731.731,0,0,1-.729-.018L129.608,155.5l-18.874,10.352a.734.734,0,0,1-.731-.015c-5.242-3.185-8.079-7.366-8-11.781l.113-5.069c.087-4.415,3.1-8.482,8.484-11.425,10.814-5.931,28.2-5.545,38.752.864A18.051,18.051,0,0,1,155.991,144.913Zm-.1,5.264c.068-3.871-2.522-7.595-7.3-10.493-10.156-6.166-26.884-6.541-37.293-.834-4.9,2.691-7.647,6.305-7.724,10.179l-.113,5.066c-.07,3.77,2.389,7.408,6.938,10.273l18.868-10.349a.724.724,0,0,1,.368-.089.737.737,0,0,1,.363.1l18.415,11.184c4.67-2.663,7.277-6.192,7.358-9.972l.113-5.051A.046.046,0,0,1,155.89,150.177Z" transform="translate(36.912 48.414)" fill="#1496a3"/>
    <path id="Path_18249" data-name="Path 18249" d="M108.26,155.83l-.11,5.051,19.241-10.554.113-5.049Z" transform="translate(39.143 52.741)" fill="rgba(20,150,163,0.22)"/>
    <path id="Path_18250" data-name="Path 18250" d="M141.045,161.732l.113-5.051-18.78-11.4-.113,5.049Z" transform="translate(44.267 52.741)" fill="#e0f3f4"/>
    <path id="Path_18251" data-name="Path 18251" d="M108.088,163.845l.108-5.053,19.241-10.551,18.783,11.4-.11,5.051C135.484,170.524,118.459,170.142,108.088,163.845Z" transform="translate(39.12 53.816)" fill="#21cab7"/>
    <g id="Group_3905" data-name="Group 3905" transform="translate(147.208 212.608)" opacity="0.3">
      <path id="Path_18252" data-name="Path 18252" d="M108.088,161.033l.108-5.051c10.367,6.3,27.4,6.677,38.023.853l-.11,5.051C135.484,167.714,118.459,167.332,108.088,161.033Z" transform="translate(-108.088 -155.982)"/>
    </g>
    <path id="Path_18253" data-name="Path 18253" d="M147.063,159.489a.7.7,0,0,1,.089.367l-.11,5.053a.734.734,0,0,1-.379.624c-10.813,5.928-28.2,5.537-38.751-.87a.749.749,0,0,1-.262-.273.731.731,0,0,1-.09-.367l.109-5.051a.715.715,0,0,1,.1-.364.735.735,0,0,1,.274-.263l19.241-10.551a.738.738,0,0,1,.731.016l18.783,11.4A.743.743,0,0,1,147.063,159.489Zm-1.473,4.959.093-4.2-18.062-10.966-18.5,10.146-.09,4.206c10.056,5.886,26.251,6.248,36.547.816Z" transform="translate(38.928 53.622)" fill="#1496a3"/>
    <path id="Path_18254" data-name="Path 18254" d="M281.278,196.877a5.923,5.923,0,0,0-3.063-3.549,16.9,16.9,0,0,0-15.3-.01,9.446,9.446,0,0,0-.891.592,5.211,5.211,0,0,0-2.223,3.233.457.457,0,0,1,0,.061,3.7,3.7,0,0,0-.044.534v3.1c0,1.6,1.063,3.2,3.174,4.413a16.892,16.892,0,0,0,15.3,0c2.121-1.22,3.169-2.827,3.165-4.42v-3.094A3.658,3.658,0,0,0,281.278,196.877Z" transform="translate(94.179 69.517)" fill="#fff"/>
    <path id="Path_18255" data-name="Path 18255" d="M289.226,197.879c.454,1.885-.552,3.845-3.046,5.284a16.965,16.965,0,0,1-15.316,0c-2.121-1.22-3.166-2.827-3.169-4.415v3.1c0,1.595,1.063,3.195,3.175,4.414a16.892,16.892,0,0,0,15.3,0c2.121-1.221,3.169-2.828,3.164-4.42v-3.094A3.578,3.578,0,0,0,289.226,197.879Z" transform="translate(97.062 71.836)" fill="rgba(20,150,163,0.22)"/>
    <path id="Path_18256" data-name="Path 18256" d="M278.628,209.976a15.933,15.933,0,0,1-7.84-1.885c-2.162-1.259-3.35-2.926-3.357-4.726v-3.1a3.917,3.917,0,0,1,.048-.592v-.056a5.588,5.588,0,0,1,2.355-3.476,9.432,9.432,0,0,1,.924-.612,17.209,17.209,0,0,1,15.663,0,6.281,6.281,0,0,1,3.225,3.77,4.149,4.149,0,0,1,.129.942.13.13,0,0,1,0,.033v3.063c0,1.8-1.178,3.485-3.348,4.734A15.9,15.9,0,0,1,278.628,209.976Zm-.026-15.581a15.178,15.178,0,0,0-7.46,1.776,8.29,8.29,0,0,0-.853.568,4.9,4.9,0,0,0-2.083,3,.355.355,0,0,1,0,.076,3.2,3.2,0,0,0-.035.47v3.1c0,1.528,1.065,2.985,2.992,4.1a16.526,16.526,0,0,0,14.935,0c1.93-1.112,2.989-2.572,2.985-4.1v-3.124a3.156,3.156,0,0,0-.106-.75,5.575,5.575,0,0,0-2.884-3.32,15.227,15.227,0,0,0-7.474-1.786Z" transform="translate(96.966 70.3)" fill="#1496a3"/>
    <path id="Path_18257" data-name="Path 18257" d="M281.458,200.881l1.568.9-1.367.791-1.576-.911a11.2,11.2,0,0,1-3.682.86l-.735-1.27a9.425,9.425,0,0,0,3.688-.874c.555-.32.706-.641.32-.86-1.219-.706-4.268,1.908-6.808.44-1.135-.654-1.107-1.585,0-2.467l-1.5-.868,1.364-.791,1.5.866a10.6,10.6,0,0,1,3.014-.856l.781,1.266a10.976,10.976,0,0,0-3.09.9c-.45.259-.583.526-.253.707,1.178.686,4.295-1.885,6.875-.4C282.8,199.054,282.576,200.035,281.458,200.881Z" transform="translate(98.393 71.094)" fill="#21cab7"/>
    <path id="Path_18258" data-name="Path 18258" d="M179.779,15.116c-3.473,2-5.693,5.014-5.858,7.54a13.842,13.842,0,0,0-.262,2.724V202.57c0,7.685,5.4,17.031,12.063,20.879l62.825,36.274a13.817,13.817,0,0,0,2.633,1.179c2.3.97,5.86.513,9.19-1.415a14.139,14.139,0,0,0,4.165-3.57,9.725,9.725,0,0,0,2.1-6.62V72.107c0-7.684-5.4-17.031-12.067-20.879L191.741,14.956a13.254,13.254,0,0,0-2.523-1.145C186.949,12.694,183.242,13.114,179.779,15.116Z" transform="translate(62.924 4.794)" fill="#19acb8"/>
    <path id="Path_18259" data-name="Path 18259" d="M266.578,72.112c0-7.684-5.4-17.031-12.067-20.879L191.683,14.961a13.245,13.245,0,0,0-2.523-1.145c-2.28-1.122-5.988-.707-9.451,1.3s-5.692,5.014-5.857,7.54c1.145-5.655,5.992-7.592,11.8-4.241L248.479,54.7c6.663,3.845,12.063,13.195,12.063,20.876v177.19c0,6.642-4.043,9.856-9.443,8.122,2.3.97,5.86.514,9.19-1.413a14.159,14.159,0,0,0,4.165-3.57,9.722,9.722,0,0,0,2.1-6.622Z" transform="translate(62.994 4.794)" fill="#097c88"/>
    <path id="Path_18260" data-name="Path 18260" d="M254.09,262.3a7.691,7.691,0,0,1-2.965-.544,14.459,14.459,0,0,1-2.737-1.228L185.56,224.247c-6.848-3.954-12.414-13.591-12.41-21.484V25.573a14.474,14.474,0,0,1,.266-2.827c.21-2.844,2.637-6,6.2-8.058s7.493-2.592,10.061-1.345a14.1,14.1,0,0,1,2.613,1.178l62.825,36.272c6.833,3.954,12.413,13.588,12.413,21.482V249.463a10.419,10.419,0,0,1-2.263,7.069,14.83,14.83,0,0,1-4.354,3.728A13.875,13.875,0,0,1,254.09,262.3ZM186.465,14.1a12.789,12.789,0,0,0-6.164,1.814c-3.139,1.814-5.354,4.623-5.509,6.993V23a13.019,13.019,0,0,0-.236,2.592v177.19c0,7.448,5.252,16.543,11.715,20.275l62.8,36.255a12.83,12.83,0,0,0,2.5,1.119l.059.022c2.175.921,5.542.379,8.582-1.378a13.389,13.389,0,0,0,3.961-3.391l.035-.04a9.124,9.124,0,0,0,1.922-6.157V72.3c0-7.45-5.256-16.546-11.717-20.276L191.584,15.754a12.723,12.723,0,0,0-2.395-1.089.6.6,0,0,1-.089-.035,5.98,5.98,0,0,0-2.625-.537Z" transform="translate(62.74 4.602)" fill="#1496a3"/>
    <path id="Path_18261" data-name="Path 18261" d="M173.57,25.285v177.19c0,6.9,4.866,15.331,10.858,18.793l62.828,36.272c5.982,3.454,10.852.647,10.852-6.256V74.095c0-6.906-4.87-15.334-10.855-18.789L184.422,19.02C178.439,15.572,173.57,18.379,173.57,25.285Z" transform="translate(62.892 6.37)" fill="#cbe8eb"/>
    <path id="Path_18262" data-name="Path 18262" d="M246.448,57.748,183.621,21.462c-4.322-2.493-7.84-.471-7.837,4.519V203.171a17.344,17.344,0,0,0,7.839,13.57l62.825,36.274c4.322,2.5,7.842.472,7.842-4.514V71.311A17.343,17.343,0,0,0,246.448,57.748Z" transform="translate(63.696 7.404)" fill="#fff"/>
    <path id="Path_18263" data-name="Path 18263" d="M240.484,165.891l-66.917-38.643v35.384c0,6.9,4.866,15.331,10.858,18.793l59.669,34.451V172.153A7.975,7.975,0,0,0,240.484,165.891Z" transform="translate(62.891 46.195)" fill="rgba(33,189,202,0.16)"/>
    <path id="Path_18264" data-name="Path 18264" d="M252.28,259.9a10.5,10.5,0,0,1-5.184-1.576l-62.832-36.273c-6.18-3.57-11.207-12.271-11.207-19.4V25.463c0-3.6,1.251-6.3,3.534-7.616s5.253-1.046,8.374.756L247.8,54.89c6.176,3.565,11.2,12.252,11.2,19.392V251.472c0,3.6-1.254,6.3-3.534,7.614A6.289,6.289,0,0,1,252.28,259.9ZM179.771,18.427a4.9,4.9,0,0,0-2.488.634c-1.826,1.056-2.828,3.329-2.828,6.409V202.66c0,6.683,4.713,14.845,10.512,18.191l62.828,36.272c2.669,1.543,5.148,1.809,6.976.754s2.828-3.33,2.828-6.406V74.28c0-6.685-4.713-14.844-10.506-18.186l-62.83-36.286A9.247,9.247,0,0,0,179.771,18.427Z" transform="translate(62.706 6.181)" fill="#1496a3"/>
    <path id="Path_18265" data-name="Path 18265" d="M209.674,43.691c0,.471-.327.65-.731.419l-10.1-5.834a1.624,1.624,0,0,1-.733-1.263c0-.471.333-.653.733-.422l10.1,5.834a1.621,1.621,0,0,1,.732,1.265Zm3.143.971c-.4-.236-.732-.047-.728.422a1.58,1.58,0,0,0,.727,1.258c.4.236.732.047.728-.417a1.6,1.6,0,0,0-.727-1.263Zm2.666,1.536c-.4-.236-.731-.042-.731.422a1.6,1.6,0,0,0,.731,1.263c.4.236.728.047.728-.42a1.625,1.625,0,0,0-.728-1.265Z" transform="translate(71.801 13.248)" fill="#cbe8eb"/>
    <path id="Path_18266" data-name="Path 18266" d="M239.74,93.436l1.179.683a1.141,1.141,0,0,0,1.149-.113A3.586,3.586,0,0,0,243.69,91.2V73.222a1.149,1.149,0,0,0-.472-1.048l-1.179-.681-.026-.014a1.154,1.154,0,0,0-1.12.125,3.589,3.589,0,0,0-1.619,2.809V92.394a1.152,1.152,0,0,0,.453,1.03l.023.014Z" transform="translate(86.745 25.914)" fill="#cbe8eb"/>
    <path id="Path_18267" data-name="Path 18267" d="M241.536,95.114a1.546,1.546,0,0,1-.773-.2L239.6,94.24h-.014a.558.558,0,0,1-.083-.054,1.857,1.857,0,0,1-.747-1.6v-18a4.293,4.293,0,0,1,1.965-3.412A1.883,1.883,0,0,1,242.428,71a.725.725,0,0,1,.106.049l1.219.707a1.811,1.811,0,0,1,.822,1.649V91.387a4.308,4.308,0,0,1-1.97,3.409A2.146,2.146,0,0,1,241.536,95.114ZM240.3,93.036l1.157.669c.049.031.214.026.45-.111a2.928,2.928,0,0,0,1.277-2.208V73.4c0-.273-.074-.415-.125-.445l-1.138-.655-.061-.028c-.03-.019-.181-.033-.443.118a2.907,2.907,0,0,0-1.268,2.2V92.577c0,.285.083.412.125.441Z" transform="translate(86.556 25.728)" fill="#1496a3"/>
    <path id="Path_18268" data-name="Path 18268" d="M221.838,160.7l-.059-65.255c0-8.954-6.279-19.882-14.039-24.364h-.016c-3.852-2.229-7.344-2.446-9.9-1l-.057.033a6.861,6.861,0,0,0-1.715,1.414c-1.516,1.72-2.4,4.338-2.4,7.707l.055,65.268c0,8.954,6.305,19.891,14.057,24.361,3.886,2.241,7.408,2.451,9.957.98S221.838,165.195,221.838,160.7Z" transform="translate(70.184 25.109)" fill="#21bdca"/>
    <g id="Group_3906" data-name="Group 3906" transform="translate(265.743 94.91)" opacity="0.3">
      <path id="Path_18269" data-name="Path 18269" d="M213.272,164.6a30.061,30.061,0,0,1-13.521-23.43L199.694,75.9a11.277,11.277,0,0,1,1.584-6.27,6.071,6.071,0,0,0-2.6.742,5.9,5.9,0,0,0-1.5,1.223c-1.392,1.579-2.121,4.006-2.121,6.991l.055,65.268a30.055,30.055,0,0,0,13.52,23.433c3.414,1.965,6.567,2.313,8.886.977a6.057,6.057,0,0,0,1.963-1.915A11.284,11.284,0,0,1,213.272,164.6Z" transform="translate(-195.052 -69.632)"/>
    </g>
    <path id="Path_18270" data-name="Path 18270" d="M214.548,169.957a12.432,12.432,0,0,1-6.09-1.871A30.729,30.729,0,0,1,194.59,144.05l-.055-65.268c0-3.165.793-5.742,2.3-7.453a6.636,6.636,0,0,1,1.674-1.364c2.539-1.437,5.918-1.081,9.519,1l.075.04A28.219,28.219,0,0,1,217.82,81.3,28.308,28.308,0,0,1,221.9,95l.055,65.252c0,4.194-1.388,7.322-3.906,8.807A6.924,6.924,0,0,1,214.548,169.957Zm-12.586-99.47a5.525,5.525,0,0,0-2.757.686,5.24,5.24,0,0,0-1.322,1.077c-1.281,1.454-1.957,3.711-1.956,6.532l.055,65.268a29.372,29.372,0,0,0,13.172,22.829c3.19,1.836,6.1,2.184,8.19.977s3.215-3.923,3.215-7.6L220.5,95a26.917,26.917,0,0,0-3.891-13.011,26.763,26.763,0,0,0-9.19-9.776l-.074-.04A11.08,11.08,0,0,0,201.962,70.488Z" transform="translate(70.503 25.084)" fill="#1496a3"/>
    <g id="Group_3910" data-name="Group 3910" transform="translate(242.458 111.004)">
      <path id="Path_18271" data-name="Path 18271" d="M194.546,152.55l.015-.022c4.712,2.58,11.117,2.154,18.2-1.94,14.419-8.321,26.1-28.579,26.1-45.239,0-8.174-2.828-13.949-7.4-16.746v-.019l-8.419-4.861c-4.734-2.738-11.26-2.356-18.483,1.81-14.418,8.32-26.1,28.579-26.1,45.24,0,8.335,2.925,14.192,7.644,16.927Z" transform="translate(-177.786 -81.245)" fill="#7185a3"/>
      <path id="Path_18272" data-name="Path 18272" d="M194.546,152.55l.015-.022c4.712,2.58,11.117,2.154,18.2-1.94,14.419-8.321,26.1-28.579,26.1-45.239,0-8.174-2.828-13.949-7.4-16.746v-.019l-8.419-4.861c-4.734-2.738-11.26-2.356-18.483,1.81-14.418,8.32-26.1,28.579-26.1,45.24,0,8.335,2.925,14.192,7.644,16.927Z" transform="translate(-177.786 -81.245)" fill="#21bdca"/>
      <g id="Group_3907" data-name="Group 3907" transform="translate(44.155 5.445)" opacity="0.3">
        <path id="Path_18273" data-name="Path 18273" d="M227.289,104.083c0-8.174-2.827-13.949-7.4-16.746a.278.278,0,0,1,.045.035,14.086,14.086,0,0,0-9.574-1.763l.05,56.444C220.275,132.052,227.285,116.991,227.289,104.083Z" transform="translate(-210.364 -85.434)" fill="#21bdca"/>
      </g>
      <path id="Path_18274" data-name="Path 18274" d="M210.008,90.731c-13.221,7.637-23.943,26.223-23.938,41.5,0,7.775,2.775,13.194,7.24,15.638,4.314,2.368,10.2,1.972,16.694-1.779,13.225-7.632,23.939-26.215,23.946-41.5,0-7.5-2.591-12.794-6.785-15.361l.042.035C222.853,86.567,216.763,86.836,210.008,90.731Z" transform="translate(-175.028 -79.246)" fill="#cbe8eb"/>
      <g id="Group_3908" data-name="Group 3908" transform="translate(42.3 8.236)" opacity="0.5">
        <path id="Path_18275" data-name="Path 18275" d="M225.625,104.584c0-7.5-2.591-12.794-6.785-15.36l.042.035A13.318,13.318,0,0,0,209,87.832l.044,52.663C218.665,131.35,225.621,116.9,225.625,104.584Z" transform="translate(-209.003 -87.482)"/>
      </g>
      <path id="Path_18276" data-name="Path 18276" d="M209.5,95.4C199.121,101.4,190.7,116,190.7,128c0,6.109,2.185,10.367,5.693,12.285,3.386,1.862,8.012,1.551,13.11-1.394,10.392-6,18.806-20.6,18.81-32.606,0-5.89-2.038-10.051-5.329-12.068l.033.026C219.6,92.125,214.811,92.339,209.5,95.4Z" transform="translate(-173.348 -77.299)" fill="#fff"/>
      <path id="Path_18277" data-name="Path 18277" d="M221.17,106.276c0-5.89-2.038-10.051-5.329-12.068l.033.026a9.869,9.869,0,0,0-5.5-1.367l.035,39.258C216.764,124.966,221.168,114.955,221.17,106.276Z" transform="translate(-166.206 -77.292)" fill="#cee7fd"/>
      <path id="Path_18278" data-name="Path 18278" d="M201.316,142.336a10.416,10.416,0,0,1-5.075-1.254c-3.905-2.144-6.056-6.724-6.053-12.9,0-12.2,8.59-27.1,19.153-33.2,5.313-3.063,10.321-3.494,14.114-1.214l.075.04c3.65,2.236,5.655,6.734,5.655,12.663,0,12.22-8.6,27.115-19.159,33.209A17.67,17.67,0,0,1,201.316,142.336Zm8.718-46.147c-10.18,5.891-18.461,20.236-18.455,32,0,5.639,1.885,9.787,5.329,11.676,3.311,1.818,7.726,1.326,12.429-1.388,10.174-5.872,18.454-20.229,18.461-32,0-5.37-1.739-9.425-4.9-11.412a.668.668,0,0,1-.068-.038c-3.353-2.076-7.9-1.649-12.8,1.178Z" transform="translate(-173.533 -77.488)" fill="#1496a3"/>
      <g id="Group_3909" data-name="Group 3909" transform="translate(17.195 9.37)" opacity="0.5">
        <path id="Path_18279" data-name="Path 18279" d="M224.368,88.313c3.769,2.712,6.076,7.82,6.079,14.884,0,15.29-10.722,33.87-23.95,41.5-6.112,3.534-11.683,4.085-15.913,2.167a11.7,11.7,0,0,0,1.088.688c4.315,2.368,10.2,1.972,16.694-1.779,13.225-7.633,23.939-26.217,23.947-41.5,0-7.5-2.592-12.8-6.787-15.361l.042.035A10.618,10.618,0,0,0,224.368,88.313Z" transform="translate(-190.584 -88.313)"/>
      </g>
      <path id="Path_18280" data-name="Path 18280" d="M199.528,150.236a13.084,13.084,0,0,1-6.363-1.569c-4.907-2.7-7.608-8.466-7.6-16.258,0-15.476,10.888-34.361,24.284-42.1,6.7-3.867,13.013-4.411,17.782-1.541l.087.045c4.588,2.806,7.115,8.483,7.12,15.954,0,15.492-10.907,34.38-24.3,42.107A22.325,22.325,0,0,1,199.528,150.236Zm11.011-58.713c-13.014,7.516-23.593,25.862-23.589,40.9,0,7.25,2.437,12.588,6.878,15.029,4.281,2.355,9.968,1.719,16.012-1.772,13-7.5,23.59-25.854,23.6-40.9,0-6.911-2.253-12.12-6.335-14.691a.611.611,0,0,1-.08-.042c-4.326-2.677-10.183-2.151-16.494,1.482Z" transform="translate(-175.211 -79.439)" fill="#1496a3"/>
      <path id="Path_18281" data-name="Path 18281" d="M194.561,152.524c-4.863-2.674-7.9-8.575-7.893-17.047,0-16.656,11.684-36.918,26.1-45.24,7.367-4.241,14.012-4.547,18.753-1.609a.34.34,0,0,0-.044-.035v-.019l-8.419-4.861c-4.734-2.738-11.26-2.356-18.483,1.81-14.418,8.32-26.1,28.579-26.1,45.24,0,8.334,2.925,14.192,7.644,16.927l8.419,4.863Z" transform="translate(-177.786 -81.249)" fill="#19acb8"/>
      <path id="Path_18282" data-name="Path 18282" d="M208.791,126.2v5.032l-3.8,2.205v-5.07a10.276,10.276,0,0,1-7.2.638l2.038-5.89a8.984,8.984,0,0,0,7.247-.691c1.542-.883,2.515-2.1,2.518-3.334,0-3.909-10.547,4.547-10.543-3.628,0-3.654,2.289-7.518,5.943-10.311v-4.842l3.8-2.205v4.819a11.555,11.555,0,0,1,6.256-1.15l-1.97,5.914a12.469,12.469,0,0,0-6.461,1.264,3.551,3.551,0,0,0-2.081,2.787c0,3.825,10.535-4.443,10.535,3.861C215.067,119.648,212.386,123.561,208.791,126.2Z" transform="translate(-170.774 -75.39)" fill="#21cab7"/>
      <path id="Path_18283" data-name="Path 18283" d="M187.909,125.55c-.1.39-.18.78-.26,1.179L179.464,122c.082-.39.168-.782.262-1.179Zm-9-.47c-.061.412-.116.819-.164,1.229l8.186,4.712c.045-.408.1-.818.159-1.229Zm.357-2.162c-.078.4-.147.8-.217,1.2l8.186,4.713c.068-.4.136-.8.214-1.2Zm1.61-6.18c-.123.372-.236.743-.358,1.116l8.186,4.727c.11-.376.236-.75.356-1.119Zm3.1-7.686c-.168.346-.333.691-.495,1.037l8.185,4.724c.161-.346.326-.691.495-1.037Zm-.87,1.869c-.155.353-.309.706-.457,1.058l8.182,4.727c.15-.354.3-.706.458-1.058Zm-.811,1.9c-.146.356-.285.707-.421,1.08l8.185,4.724c.138-.358.274-.721.42-1.08Zm-.747,1.94c-.132.365-.26.732-.386,1.1l8.185,4.713q.184-.552.387-1.1Zm-3.063,15.987v.15l8.185,4.713v-.151c0-.382.015-.773.026-1.157l-8.185-4.726c-.023.409-.038.8-.035,1.182Zm1.472-10.854,8.184,4.727c.1-.382.2-.761.311-1.142l-8.182-4.727c-.116.391-.222.776-.322,1.154Zm4.949-12.679c-.181.339-.356.677-.529,1.018l8.186,4.713c.169-.342.349-.679.525-1.017ZM181.568,143.2a14.41,14.41,0,0,0,1.944,2.443l8.246,4.757a14.149,14.149,0,0,1-1.982-2.466Zm38.376-60.778a14.382,14.382,0,0,0-3.085-.471l8.214,4.741a14.061,14.061,0,0,1,3.13.488ZM178.51,131.959c.019.472.042.919.078,1.364l8.185,4.727c-.033-.446-.061-.9-.078-1.368Zm.185,2.479q.09.732.207,1.439l8.184,4.724c-.078-.472-.149-.942-.2-1.442Zm-.046-7.14c-.041.424-.068.846-.094,1.268l8.182,4.712c.026-.417.057-.838.1-1.268Zm1.31,12.605c.236.611.472,1.2.751,1.754l8.193,4.731a18.794,18.794,0,0,1-.754-1.756Zm-.825-2.85c.116.537.249,1.052.4,1.555l8.188,4.728q-.235-.756-.4-1.555ZM195.9,92.238c-.279.273-.555.556-.831.841l8.184,4.713c.275-.283.549-.563.829-.839Zm3.2-2.893c-.308.259-.62.518-.928.787l8.181,4.713c.307-.266.617-.525.928-.785Zm7.734-5.016c-.41.2-.816.4-1.225.62l8.178,4.713c.412-.221.819-.424,1.223-.617Zm6.022,5.851-8.175-4.713-.1.052c-.345.2-.686.41-1.028.622l8.178,4.713c.342-.212.686-.424,1.03-.622Zm-12.017-2.2c-.33.236-.656.5-.98.752l8.181,4.712c.322-.254.65-.509.98-.756Zm1.856-1.3c-.353.236-.707.471-1.051.707l8.181,4.713c.346-.236.707-.471,1.051-.707ZM215.095,82a18.109,18.109,0,0,0-1.885.236L221.4,86.96a18.512,18.512,0,0,1,1.885-.236Zm-3.228.509c-.5.12-1.022.266-1.542.429l8.181,4.712c.521-.165,1.037-.306,1.548-.429Zm-2.677.822c-.447.165-.893.344-1.348.542l8.181,4.713c.453-.2.9-.372,1.348-.537ZM193.012,95.308c-.255.295-.51.587-.759.886l8.184,4.713c.249-.3.5-.594.757-.884Zm-4.989,6.6c-.207.32-.408.643-.612.966l8.182,4.726c.206-.324.406-.647.616-.965Zm2.373-3.367c-.236.309-.457.613-.682.926l8.184,4.713c.236-.311.453-.62.681-.928Zm-1.213,1.668c-.219.313-.439.627-.65.942l8.182,4.713c.215-.318.433-.634.65-.943Zm8.27-9.442c-.292.266-.589.537-.878.815l8.182,4.713c.288-.273.582-.544.879-.811ZM186.93,103.642c-.2.328-.4.657-.589.985l8.184,4.726q.292-.5.589-.984Zm7.482-9.9c-.264.283-.523.577-.788.865l8.184,4.724c.262-.29.523-.582.789-.865Zm-8.52,11.692c-.191.332-.378.662-.562,1l8.189,4.713q.268-.5.555-1Zm5.782-8.508c-.236.3-.485.6-.724.9l8.184,4.712c.236-.306.472-.605.724-.9Z" transform="translate(-177.783 -81.252)" fill="#097c88"/>
      <path id="Path_18284" data-name="Path 18284" d="M201.325,155.029a14.258,14.258,0,0,1-6.755-1.617.6.6,0,0,1-.187-.072l-8.421-4.863c-5.156-2.99-7.993-9.215-7.993-17.531,0-16.861,11.861-37.426,26.447-45.843,7.2-4.156,14.012-4.8,19.179-1.81a.8.8,0,0,1,.078.052l8.339,4.816a.637.637,0,0,1,.161.125c4.884,3.082,7.573,9.189,7.574,17.243,0,16.869-11.875,37.435-26.454,45.851A24.319,24.319,0,0,1,201.325,155.029Zm-6.408-2.988a.748.748,0,0,1,.161.064c4.689,2.571,10.912,1.885,17.519-1.933,14.2-8.192,25.749-28.22,25.759-44.643,0-7.627-2.512-13.365-7.069-16.152a.665.665,0,0,1-.128-.1l-8.265-4.771c-.026-.016-.05-.033-.075-.052-4.713-2.679-11-2.022-17.71,1.854-14.2,8.2-25.754,28.219-25.752,44.636,0,7.8,2.592,13.6,7.3,16.325Z" transform="translate(-177.969 -81.439)" fill="#1496a3"/>
    </g>
    <path id="Path_18285" data-name="Path 18285" d="M215.393,157.772a.707.707,0,0,1-.706-.707l-.055-65.251A26.919,26.919,0,0,0,210.739,78.8a.707.707,0,0,1,1.206-.707,28.3,28.3,0,0,1,4.08,13.706l.055,65.252a.707.707,0,0,1-.049.27.7.7,0,0,1-.15.229.692.692,0,0,1-.5.207Z" transform="translate(76.367 28.256)" fill="#1496a3"/>
    <path id="Path_18286" data-name="Path 18286" d="M132.689,194.814a7.129,7.129,0,0,0-1.326-2.868,12.668,12.668,0,0,1-6.725-1.413c-1.84-1.055-2.658-2.488-2.46-3.878-.78-.2-1.582-.371-2.429-.5s-1.694-.214-2.538-.271a8.871,8.871,0,0,1-5.5,2.651,13.841,13.841,0,0,1-7.052-.707,16.577,16.577,0,0,0-3.638,2.1V194.9a3.715,3.715,0,0,1,.334.316,8.482,8.482,0,0,1-3.706,1.965v4.971a7.151,7.151,0,0,0,1.327,2.865,12.708,12.708,0,0,1,6.725,1.415c1.843,1.055,2.655,2.49,2.459,3.881.782.192,1.587.365,2.432.5s1.693.207,2.537.267a8.87,8.87,0,0,1,5.5-2.65,13.783,13.783,0,0,1,7.052.707,16.546,16.546,0,0,0,3.641-2.1v-4.972a4.4,4.4,0,0,1-.334-.315,8.507,8.507,0,0,1,3.7-1.963Zm-24.87,3.664c1.885-1.87,5.766-2.865,9.564-2.276a9.331,9.331,0,0,1,5.139,2.263c-1.885,1.87-5.768,2.862-9.562,2.276A9.283,9.283,0,0,1,107.82,198.478Z" transform="translate(35.331 67.482)" fill="#21bdca"/>
    <g id="Group_3911" data-name="Group 3911" transform="translate(132.98 257.417)" opacity="0.3">
      <path id="Path_18287" data-name="Path 18287" d="M119.7,199.086a7.88,7.88,0,0,0,2.828-1.683,9.369,9.369,0,0,0-5.14-2.261c-3.8-.589-7.674.4-9.563,2.276a6.613,6.613,0,0,0,1.51,1.1c-2.211-1.2-3.239-3.048-2.395-4.862,1.223-2.624,5.891-4.187,10.448-3.484s7.246,3.4,6.023,6.027A6.306,6.306,0,0,1,119.7,199.086Zm-1.07,3.3a8.864,8.864,0,0,0-5.5,2.652c-.844-.061-1.69-.139-2.537-.269s-1.649-.308-2.432-.5c.2-1.39-.622-2.813-2.459-3.876a12.559,12.559,0,0,0-6.725-1.413,7.148,7.148,0,0,1-1.327-2.862v4.971a7.15,7.15,0,0,0,1.327,2.865,12.708,12.708,0,0,1,6.725,1.415c1.843,1.055,2.655,2.49,2.459,3.881.782.194,1.587.365,2.432.5s1.693.207,2.537.267a8.863,8.863,0,0,1,5.5-2.648,13.768,13.768,0,0,1,7.052.706,16.546,16.546,0,0,0,3.641-2.1V201a16.6,16.6,0,0,1-3.641,2.1A13.784,13.784,0,0,0,118.627,202.384Zm14.062-8.64c-2.182.6-3.919,1.72-4.6,3.176s-.146,2.926,1.228,4.074a4.155,4.155,0,0,1-.334-.316,8.535,8.535,0,0,1,3.7-1.963Zm-30.443-.814c.677-1.453.147-2.924-1.224-4.074v4.972a3.534,3.534,0,0,1,.334.316A4.265,4.265,0,0,0,102.246,192.93Z" transform="translate(-97.65 -188.856)"/>
    </g>
    <path id="Path_18288" data-name="Path 18288" d="M113.244,211.631h-.029c-.99-.068-1.806-.155-2.572-.271s-1.593-.289-2.473-.508a.444.444,0,0,1-.256-.179.44.44,0,0,1-.071-.305c.179-1.258-.641-2.511-2.245-3.439a12.184,12.184,0,0,0-6.485-1.363.417.417,0,0,1-.207-.041.43.43,0,0,1-.163-.134,7.594,7.594,0,0,1-1.414-3.041.518.518,0,0,1,0-.085v-4.972a.434.434,0,0,1,.323-.421,8.491,8.491,0,0,0,3.172-1.551.436.436,0,0,1-.127-.308V190.04a.429.429,0,0,1,.17-.346,17.093,17.093,0,0,1,3.733-2.154.426.426,0,0,1,.334,0,13.443,13.443,0,0,0,6.833.681,8.5,8.5,0,0,0,5.227-2.5.418.418,0,0,1,.164-.124.432.432,0,0,1,.2-.034c.96.064,1.8.153,2.577.274s1.577.279,2.467.5a.432.432,0,0,1,.256.18.437.437,0,0,1,.07.305c-.179,1.258.641,2.511,2.248,3.44a12.181,12.181,0,0,0,6.484,1.359.435.435,0,0,1,.371.174,7.556,7.556,0,0,1,1.413,3.044.454.454,0,0,1,0,.086v4.971a.441.441,0,0,1-.089.264.435.435,0,0,1-.232.155,8.554,8.554,0,0,0-3.176,1.55.446.446,0,0,1,.129.309v4.971a.468.468,0,0,1-.045.192.439.439,0,0,1-.125.153,16.953,16.953,0,0,1-3.735,2.155.443.443,0,0,1-.334,0,13.367,13.367,0,0,0-6.833-.68,8.5,8.5,0,0,0-5.229,2.494.423.423,0,0,1-.15.119A.434.434,0,0,1,113.244,211.631Zm-4.5-1.539c.706.17,1.385.3,2.035.406s1.413.183,2.282.234a9.594,9.594,0,0,1,5.617-2.629,14.351,14.351,0,0,1,7.114.667A16.291,16.291,0,0,0,129,206.926v-4.559l-.116-.11-.085-.083a.437.437,0,0,1-.1-.143.428.428,0,0,1-.034-.17.432.432,0,0,1,.034-.17.451.451,0,0,1,.1-.143,8.654,8.654,0,0,1,3.574-1.979v-4.6a6.607,6.607,0,0,0-1.107-2.464,12.991,12.991,0,0,1-6.725-1.484c-1.776-1.028-2.742-2.437-2.71-3.923-.721-.173-1.388-.3-2.028-.4-.691-.109-1.439-.189-2.286-.251a9.587,9.587,0,0,1-5.62,2.631,14.409,14.409,0,0,1-7.108-.668,16.231,16.231,0,0,0-3.213,1.843v4.578c.074.065.142.135.21.2a.432.432,0,0,1,0,.619,8.631,8.631,0,0,1-3.576,1.982v4.6a6.6,6.6,0,0,0,1.107,2.464,12.962,12.962,0,0,1,6.727,1.487C107.825,207.208,108.772,208.608,108.742,210.092Zm6.513-8.624a14.743,14.743,0,0,1-2.246-.169,9.857,9.857,0,0,1-5.379-2.383.449.449,0,0,1-.1-.143.442.442,0,0,1-.033-.168.42.42,0,0,1,.033-.169.4.4,0,0,1,.1-.142c2.024-2,6.109-2.988,9.936-2.4a9.8,9.8,0,0,1,5.379,2.381.427.427,0,0,1,.132.309.419.419,0,0,1-.034.168.425.425,0,0,1-.1.143C121.324,200.514,118.346,201.468,115.254,201.468Zm-6.668-2.872a9.5,9.5,0,0,0,4.557,1.831c3.36.521,6.906-.236,8.845-1.844a9.423,9.423,0,0,0-4.557-1.832C114.071,196.24,110.525,196.993,108.586,198.6Z" transform="translate(35.214 67.367)" fill="#1496a3"/>
    <path id="Path_18289" data-name="Path 18289" d="M256.474,79.826a7.2,7.2,0,0,0,3.273,5.655l37.485,21.642c1.807,1.041,3.274.2,3.274-1.885V89.015a7.238,7.238,0,0,0-3.275-5.672L259.747,61.7c-1.8-1.044-3.275-.2-3.273,1.885Z" transform="translate(92.989 22.238)" fill="#fff"/>
    <path id="Path_18290" data-name="Path 18290" d="M298.874,108.412a3.6,3.6,0,0,1-1.788-.537L259.6,86.233A7.866,7.866,0,0,1,256,80V63.78a2.63,2.63,0,0,1,4.254-2.451l37.475,21.635a7.875,7.875,0,0,1,3.6,6.239v16.223a2.91,2.91,0,0,1-1.284,2.681A2.338,2.338,0,0,1,298.874,108.412ZM258.464,62.1a1.064,1.064,0,0,0-.528.129,1.727,1.727,0,0,0-.631,1.555V80a6.624,6.624,0,0,0,2.948,5.1l37.485,21.642a1.7,1.7,0,0,0,1.649.236,1.746,1.746,0,0,0,.63-1.55V89.207a6.63,6.63,0,0,0-2.948-5.106L259.594,62.466a2.356,2.356,0,0,0-1.137-.368Z" transform="translate(92.817 22.067)" fill="#21bdca"/>
    <path id="Path_18291" data-name="Path 18291" d="M292.427,87.182c0,.5-.353.707-.786.452l-29.7-17.153a1.732,1.732,0,0,1-.782-1.357c0-.5.353-.707.784-.455l29.7,17.146a1.755,1.755,0,0,1,.786,1.364Zm-5.462,4.093c0,.507-.353.707-.786.457l-24.242-14a1.749,1.749,0,0,1-.784-1.362c0-.492.35-.707.784-.448l24.244,14a1.716,1.716,0,0,1,.784,1.353ZM281.51,84.5a1.75,1.75,0,0,0-.78-1.355L261.94,72.309c-.436-.259-.786-.049-.785.448a1.729,1.729,0,0,0,.785,1.362l18.784,10.839C281.158,85.193,281.511,85.007,281.51,84.5Z" transform="translate(94.688 24.89)" fill="#21cab7" opacity="0.6"/>
    <path id="Path_18292" data-name="Path 18292" d="M233.385,173.344,159.177,130.5c-2-1.152-3.628-.219-3.624,2.09v45.5a8.012,8.012,0,0,0,3.631,6.277l74.2,42.841c2.005,1.154,3.626.217,3.626-2.092V179.633A8.035,8.035,0,0,0,233.385,173.344Z" transform="translate(56.351 47.195)" fill="#21bdca"/>
    <path id="Path_18293" data-name="Path 18293" d="M235.191,228.583a3.965,3.965,0,0,1-1.97-.592L159.015,185.15a8.662,8.662,0,0,1-3.977-6.879v-45.5a2.9,2.9,0,0,1,4.679-2.692l74.209,42.845a8.659,8.659,0,0,1,3.972,6.882v45.476a3.194,3.194,0,0,1-1.413,2.95A2.541,2.541,0,0,1,235.191,228.583ZM157.744,130.89a1.171,1.171,0,0,0-.6.146,1.924,1.924,0,0,0-.706,1.736v45.5a7.354,7.354,0,0,0,3.279,5.672l74.2,42.84A1.534,1.534,0,0,0,236.5,225.3V179.82a7.366,7.366,0,0,0-3.275-5.674L159.015,131.3A2.64,2.64,0,0,0,157.744,130.89Z" transform="translate(56.164 47.009)" fill="#1496a3"/>
    <path id="Path_18294" data-name="Path 18294" d="M159.853,139.217v4.039l3.77,2.174a23.379,23.379,0,0,0-.893-5.563l-1.994-1.152C160.241,138.439,159.85,138.665,159.853,139.217Zm17.422,14.1v-4.041a1.909,1.909,0,0,0-.867-1.5l-2-1.16a12.986,12.986,0,0,0-.893,4.529Zm0,5.433v-4.036l-3.77-2.17a23.589,23.589,0,0,0,.893,5.553l2,1.154c.488.278.874.052.879-.5Zm-17.436-14.1v4.041a1.943,1.943,0,0,0,.87,1.507l2,1.15a12.908,12.908,0,0,0,.891-4.527Zm63.339,64.688c0,1.671-1.179,2.357-2.618,1.513a5.827,5.827,0,0,1-2.62-4.538c0-1.668,1.178-2.357,2.622-1.513a5.813,5.813,0,0,1,2.629,4.538Z" transform="translate(57.907 50.315)" fill="#097c88"/>
    <path id="Path_18295" data-name="Path 18295" d="M194.49,190.24c0,.551-.393.774-.868.5l-32.9-18.984a1.9,1.9,0,0,1-.617-.65,1.934,1.934,0,0,1-.255-.86c0-.551.39-.776.867-.495l32.906,18.991a1.931,1.931,0,0,1,.868,1.509ZM182.4,187.273a1.923,1.923,0,0,0-.255-.857,1.9,1.9,0,0,0-.617-.647L160.719,173.75c-.472-.275-.87-.049-.87.5a1.92,1.92,0,0,0,.872,1.51l20.808,12.016c.472.278.864.049.87-.5Zm-18.405-47.2,3.961,2.283V147.4l-3.139-1.814A24.966,24.966,0,0,0,163.994,140.075Zm5.173,8.026,3.138,1.807a14.262,14.262,0,0,1,.822-4.562l-3.962-2.286Zm3.135,3.2-3.135-1.813v5.047l3.962,2.283A25.159,25.159,0,0,1,172.3,151.3Zm-4.347-2.509-3.139-1.81a14.361,14.361,0,0,1-.822,4.565l3.961,2.29Zm6.939,16.052-14.17-8.173c-.485-.284-.876-.055-.875.5V161.2a1.921,1.921,0,0,0,.254.863,1.943,1.943,0,0,0,.619.653L174.9,170.9c.47.275.871.049.871-.508v-4.032a1.917,1.917,0,0,0-.874-1.516Zm17.139,9.9-14.177-8.174c-.472-.285-.874-.052-.874.5v4.035a1.936,1.936,0,0,0,.874,1.513l14.176,8.182c.47.275.87.052.87-.508v-4.029a1.936,1.936,0,0,0-.868-1.523Zm17.133,9.9L195,176.453c-.485-.282-.872-.056-.879.5v4.03A1.942,1.942,0,0,0,195,182.5l14.17,8.185c.472.277.876.052.872-.511v-4.029a1.921,1.921,0,0,0-.874-1.507Zm17.135,9.9-14.176-8.188c-.472-.277-.87-.052-.874.506v4.035a1.934,1.934,0,0,0,.871,1.513l14.176,8.181c.482.278.872.053.872-.5v-4.032a1.913,1.913,0,0,0-.87-1.52Zm.871-16.966c0,.553-.386.776-.867.5l-10.131-5.847a1.937,1.937,0,0,1-.87-1.513c0-.553.386-.778.874-.5l10.133,5.851a1.9,1.9,0,0,1,.867,1.5Zm0,4.006c0,.556-.386.78-.867.5l-16.181-9.342a1.932,1.932,0,0,1-.87-1.51c0-.549.387-.776.87-.5l16.181,9.342a1.91,1.91,0,0,1,.867,1.506Z" transform="translate(57.911 50.852)" fill="#fff"/>
    <path id="Path_18296" data-name="Path 18296" d="M253.4,201.759l14.722,8.5v9.019l-13.31,7.686-14.722-8.5v-9.016Z" transform="translate(87.043 73.245)" fill="#fff"/>
    <g id="Group_3912" data-name="Group 3912" transform="translate(327.138 282.694)" opacity="0.5">
      <path id="Path_18297" data-name="Path 18297" d="M254.817,224.923l-14.722-8.5V207.4l14.722,8.5Z" transform="translate(-240.095 -207.401)" fill="rgba(33,189,202,0.16)"/>
    </g>
    <path id="Path_18298" data-name="Path 18298" d="M264.2,217.009l-13.31,7.686v-9.021l13.31-7.686Z" transform="translate(90.963 75.506)" fill="rgba(20,150,163,0.22)"/>
    <path id="Path_18299" data-name="Path 18299" d="M255,227.809a.671.671,0,0,1-.338-.093l-14.719-8.5a.668.668,0,0,1-.337-.582v-9.007a.673.673,0,0,1,.337-.585l13.309-7.682a.672.672,0,0,1,.672,0l14.721,8.5a.666.666,0,0,1,.247.245.692.692,0,0,1,.091.337v9.019a.692.692,0,0,1-.091.337.676.676,0,0,1-.247.245l-13.307,7.683A.663.663,0,0,1,255,227.809Zm-14.051-9.564L255,226.36l12.635-7.3v-8.248l-14.05-8.11-12.637,7.292Z" transform="translate(86.864 73.067)" fill="#1496a3"/>
    <path id="Path_18300" data-name="Path 18300" d="M217.6,233.5a1.852,1.852,0,0,0,.782,1.5,75.421,75.421,0,0,0,14.263,8.235,7.125,7.125,0,0,0,5.6-.236l.271-.158a2.09,2.09,0,0,0,1.179-1.762h.014v3.029h-.016a2.092,2.092,0,0,1-1.178,1.757c-.09.05-.18.1-.27.155a7.14,7.14,0,0,1-5.6.236,75.338,75.338,0,0,1-14.263-8.233,1.844,1.844,0,0,1-.78-1.468h-.012V233.5Z" transform="translate(78.874 84.768)" fill="#3199f0"/>
    <path id="Path_18301" data-name="Path 18301" d="M217.6,233.5a1.852,1.852,0,0,0,.782,1.5,75.421,75.421,0,0,0,14.263,8.235,7.125,7.125,0,0,0,5.6-.236l.271-.158a2.09,2.09,0,0,0,1.179-1.762h.014v3.029h-.016a2.092,2.092,0,0,1-1.178,1.757c-.09.05-.18.1-.27.155a7.14,7.14,0,0,1-5.6.236,75.338,75.338,0,0,1-14.263-8.233,1.844,1.844,0,0,1-.78-1.468h-.012V233.5Z" transform="translate(78.874 84.768)" fill="#19acb8"/>
    <g id="Group_3913" data-name="Group 3913" transform="translate(316.499 325.845)" opacity="0.2">
      <path id="Path_18302" data-name="Path 18302" d="M232.91,240.978l.27-.157a2.093,2.093,0,0,0,1.179-1.762h.014v3.027h-.016a2.092,2.092,0,0,1-1.178,1.757c-.09.05-.18.1-.269.157a4.174,4.174,0,0,1-.62.285v-3.014A3.846,3.846,0,0,0,232.91,240.978Z" transform="translate(-232.29 -239.059)"/>
    </g>
    <path id="Path_18303" data-name="Path 18303" d="M235.283,247.157a7.057,7.057,0,0,1-2.678-.488,75.859,75.859,0,0,1-14.338-8.278,2.225,2.225,0,0,1-.921-1.649.334.334,0,0,1-.015-.1V233.6a.366.366,0,0,1,.035-.157.348.348,0,0,1,.1-.124.309.309,0,0,1,.113-.059h.026a.344.344,0,0,1,.225.015.358.358,0,0,1,.173.147.373.373,0,0,1,.052.2,1.5,1.5,0,0,0,.643,1.2,75.074,75.074,0,0,0,14.189,8.188,6.786,6.786,0,0,0,5.268-.214l.275-.161a1.763,1.763,0,0,0,1-1.413v-.035a.369.369,0,0,1,.037-.151.374.374,0,0,1,.094-.123.367.367,0,0,1,.185-.076.35.35,0,0,1,.2.033.293.293,0,0,1,.074.046.367.367,0,0,1,.106.123.376.376,0,0,1,.04.158V244.2a.4.4,0,0,1-.02.12,2.486,2.486,0,0,1-1.355,1.946l-.236.136-.033.019A6.8,6.8,0,0,1,235.283,247.157Zm-17.238-10.6a.294.294,0,0,1,.014.09,1.494,1.494,0,0,0,.181.665,1.471,1.471,0,0,0,.461.513,75.014,75.014,0,0,0,14.189,8.19,6.787,6.787,0,0,0,5.271-.214l.03-.019.236-.139a1.756,1.756,0,0,0,1-1.452.457.457,0,0,1,.016-.1v-1.334a3.208,3.208,0,0,1-.657.5l-.275.158a7.48,7.48,0,0,1-5.91.249,75.814,75.814,0,0,1-14.338-8.275c-.078-.061-.153-.128-.221-.194Z" transform="translate(78.779 84.676)" fill="#1496a3"/>
    <path id="Path_18304" data-name="Path 18304" d="M267.307,234.177c1.64-.945,1.64-2.482,0-3.431L253,222.5a6.538,6.538,0,0,0-5.94,0l-27.168,15.679c-1.638.949-1.636,2.486,0,3.435l14.3,8.256a6.574,6.574,0,0,0,5.937,0Z" transform="translate(79.264 80.514)" fill="rgba(17,26,36,0.05)"/>
    <path id="Path_18305" data-name="Path 18305" d="M217.6,223.2a2.082,2.082,0,0,1,1.178-1.8c.087-.046.18-.1.27-.155a7.146,7.146,0,0,1,5.593-.236,75.376,75.376,0,0,1,14.27,8.248,1.853,1.853,0,0,1,.778,1.494h.016v14.931h-.014a2.072,2.072,0,0,1-1.179,1.867l-.271.157a7.134,7.134,0,0,1-5.6.236,75.489,75.489,0,0,1-14.263-8.234,1.858,1.858,0,0,1-.782-1.5V223.2Z" transform="translate(78.878 80.066)" fill="#fff"/>
    <path id="Path_18306" data-name="Path 18306" d="M233.58,227.172a1.853,1.853,0,0,1,.778,1.494h.016V243.6h-.014a2.072,2.072,0,0,1-1.179,1.867l-.271.157a3.975,3.975,0,0,1-.619.286V226.27C232.716,226.571,233.166,226.862,233.58,227.172Z" transform="translate(84.21 82.143)" fill="rgba(20,150,163,0.22)"/>
    <path id="Path_18307" data-name="Path 18307" d="M235.286,248.842a7,7,0,0,1-2.681-.491,75.776,75.776,0,0,1-14.338-8.275,2.249,2.249,0,0,1-.924-1.7.3.3,0,0,1-.012-.085v-15a.386.386,0,0,1,.012-.089,2.453,2.453,0,0,1,1.352-2.021c.093-.05.181-.1.267-.154a7.5,7.5,0,0,1,5.916-.255,75.844,75.844,0,0,1,14.343,8.28,2.256,2.256,0,0,1,.923,1.681.364.364,0,0,1,.018.1v14.932a.483.483,0,0,1,0,.089,2.472,2.472,0,0,1-1.36,2.088l-.275.158A6.761,6.761,0,0,1,235.286,248.842Zm-17.241-10.632a.312.312,0,0,1,0,.087,1.5,1.5,0,0,0,.643,1.21,75.043,75.043,0,0,0,14.189,8.188,6.779,6.779,0,0,0,5.268-.214l.277-.159a1.713,1.713,0,0,0,1-1.537.36.36,0,0,1,.014-.12V230.93a.316.316,0,0,1-.014-.1,1.506,1.506,0,0,0-.646-1.206,74.931,74.931,0,0,0-14.192-8.193,6.787,6.787,0,0,0-5.268.217c-.09.052-.184.109-.275.158a1.74,1.74,0,0,0-.992,1.479.306.306,0,0,1,0,.1Z" transform="translate(78.779 79.971)" fill="#1496a3"/>
    <path id="Path_18308" data-name="Path 18308" d="M239.7,228.506h-.014a1.865,1.865,0,0,0-.217-.823,1.844,1.844,0,0,0-.562-.638,75.512,75.512,0,0,0-14.267-8.248,7.139,7.139,0,0,0-5.594.236l-.271.155a2.093,2.093,0,0,0-1.178,1.754v3.022a1.842,1.842,0,0,0,.777,1.468,75.307,75.307,0,0,0,14.272,8.235,7.115,7.115,0,0,0,5.591-.236l.269-.158a2.082,2.082,0,0,0,1.179-1.762h.016Z" transform="translate(78.877 79.264)" fill="#21bdca"/>
    <g id="Group_3914" data-name="Group 3914" transform="translate(296.482 300.186)" opacity="0.3">
      <path id="Path_18309" data-name="Path 18309" d="M239.7,227.823h-.015a2.086,2.086,0,0,1-1.178,1.758l-.269.158a7.155,7.155,0,0,1-5.6.236,75.479,75.479,0,0,1-14.263-8.248,1.85,1.85,0,0,1-.78-1.482v3.023a1.853,1.853,0,0,0,.778,1.468,75.409,75.409,0,0,0,14.271,8.234,7.125,7.125,0,0,0,5.593-.234l.269-.158a2.084,2.084,0,0,0,1.178-1.762h.016Z" transform="translate(-217.604 -220.234)"/>
    </g>
    <g id="Group_3915" data-name="Group 3915" transform="translate(301.702 297.69)" opacity="0.2">
      <path id="Path_18310" data-name="Path 18310" d="M233.587,229.106l.052-2.507a5.289,5.289,0,0,1,.59-1.885q1.709,1.116,3.3,2.3a2.2,2.2,0,0,1,.262.255l-3.181,1.84a1.123,1.123,0,0,1-1.021,0Zm-11.137-7.091,3.444-1.99c-.864-.423-1.741-.837-2.639-1.24a5.912,5.912,0,0,0-1.482-.382c-.236.611-.363,1.06-.285,1.105l-.055,2.505a1.132,1.132,0,0,0,.507.124A1.114,1.114,0,0,0,222.449,222.015Z" transform="translate(-221.434 -218.403)"/>
    </g>
    <g id="Group_3916" data-name="Group 3916" transform="translate(316.499 307.76)" opacity="0.2">
      <path id="Path_18311" data-name="Path 18311" d="M232.29,228a4.283,4.283,0,0,0,.628-.288l.27-.157a2.085,2.085,0,0,0,1.178-1.768h.014V228.8h-.016a2.086,2.086,0,0,1-1.178,1.762l-.269.158a4.028,4.028,0,0,1-.62.282Z" transform="translate(-232.29 -225.791)"/>
    </g>
    <path id="Path_18312" data-name="Path 18312" d="M235.289,234.581a7,7,0,0,1-2.682-.488,75.546,75.546,0,0,1-14.342-8.275,2.24,2.24,0,0,1-.921-1.664.343.343,0,0,1-.012-.091v-3.034a.39.39,0,0,1,.016-.112,2.494,2.494,0,0,1,1.351-1.941l.273-.155a7.5,7.5,0,0,1,5.913-.252,75.877,75.877,0,0,1,14.339,8.279,2.235,2.235,0,0,1,.92,1.649.307.307,0,0,1,.018.1v3.016a.342.342,0,0,1-.02.123,2.488,2.488,0,0,1-1.355,1.946l-.142.08c-.045.026-.087.055-.132.078A6.658,6.658,0,0,1,235.289,234.581Zm-17.244-10.6a.293.293,0,0,1,0,.085,1.5,1.5,0,0,0,.641,1.178,74.934,74.934,0,0,0,14.195,8.189,6.787,6.787,0,0,0,5.268-.215l.12-.071.155-.089a1.754,1.754,0,0,0,1-1.449.37.37,0,0,1,.016-.109v-2.785a.353.353,0,0,1-.016-.106,1.512,1.512,0,0,0-.181-.665,1.494,1.494,0,0,0-.459-.512,75.078,75.078,0,0,0-14.192-8.19,6.779,6.779,0,0,0-5.268.214l-.277.158a1.76,1.76,0,0,0-.994,1.445.355.355,0,0,1-.015.091Z" transform="translate(78.779 79.17)" fill="#1496a3"/>
    <path id="Path_18313" data-name="Path 18313" d="M219.81,224.2a.118.118,0,0,1,0-.044v-7.719c0-2.561,1-4.611,2.755-5.621s4.032-.856,6.256.431a15.415,15.415,0,0,1,7.069,12.252v7.734a.964.964,0,0,1-.568.8,3.026,3.026,0,0,1-2.742,0,.965.965,0,0,1-.568-.8V223.5a11.548,11.548,0,0,0-5.132-8.886,1.87,1.87,0,0,0-3.2,1.836v7.776a.982.982,0,0,1-.566.758,3.026,3.026,0,0,1-2.742,0,.982.982,0,0,1-.563-.756Z" transform="translate(79.678 76.292)" fill="#fff"/>
    <path id="Path_18314" data-name="Path 18314" d="M227.111,211.456a5.884,5.884,0,0,0-4.994-.688,6.261,6.261,0,0,1,6.158.472,15.408,15.408,0,0,1,7.069,12.252v7.732a.964.964,0,0,1-.567.8,2.743,2.743,0,0,1-1.289.318v-9.837A13.932,13.932,0,0,0,227.111,211.456Zm-5.767,7.45v6.374a2.711,2.711,0,0,0,1.227-.311.981.981,0,0,0,.566-.759v-7.776a2.6,2.6,0,0,1,.818-2.264,1.814,1.814,0,0,1,1.383,0c-.029,0-.052-.029-.08-.04-4.443-1.708-3.919,3.522-3.919,4.776Z" transform="translate(80.226 76.295)" fill="rgba(33,189,202,0.16)"/>
    <path id="Path_18315" data-name="Path 18315" d="M234.044,232.806a3.166,3.166,0,0,1-1.554-.379,1.33,1.33,0,0,1-.744-1.119v-7.727A11.139,11.139,0,0,0,226.8,215a1.542,1.542,0,0,0-2.661,1.527v7.776a.293.293,0,0,1,0,.085,1.357,1.357,0,0,1-.737.983,3.372,3.372,0,0,1-3.1,0,1.335,1.335,0,0,1-.737-1.006.437.437,0,0,1,0-.06.306.306,0,0,1,0-.071v-7.7c0-2.693,1.067-4.856,2.933-5.931s4.277-.921,6.615.428a15.818,15.818,0,0,1,7.247,12.552v7.732a1.325,1.325,0,0,1-.744,1.115A3.164,3.164,0,0,1,234.044,232.806Zm-8.83-19.043a4.026,4.026,0,0,1,1.936.622,11.938,11.938,0,0,1,5.31,9.19v7.734c0,.172.139.348.388.492a2.685,2.685,0,0,0,2.385,0c.249-.144.391-.323.388-.488v-7.741a15.024,15.024,0,0,0-6.891-11.932c-2.121-1.219-4.261-1.375-5.891-.428s-2.576,2.879-2.576,5.31v7.754c0,.165.145.33.384.472a2.685,2.685,0,0,0,2.385,0,.681.681,0,0,0,.251-.188.667.667,0,0,0,.135-.284v-7.754a2.87,2.87,0,0,1,1-2.573A1.582,1.582,0,0,1,225.214,213.763Z" transform="translate(79.588 76.198)" fill="#1496a3"/>
    <path id="Path_18316" data-name="Path 18316" d="M223.9,230.605c-.848-.492-1.536-.091-1.536.886a3.256,3.256,0,0,0,.615,1.768,1.362,1.362,0,0,1,.256.735v1.39a1.484,1.484,0,0,0,.195.656,1.463,1.463,0,0,0,.47.5c.368.213.667.041.667-.382v-1.39a.419.419,0,0,1,.255-.443.983.983,0,0,0,.617-1.052,3.4,3.4,0,0,0-1.539-2.663Z" transform="translate(80.607 83.64)" fill="#21bdca"/>
    <g id="Group_3917" data-name="Group 3917" transform="translate(303.792 314.046)" opacity="0.2">
      <path id="Path_18317" data-name="Path 18317" d="M224.35,235.756a1.482,1.482,0,0,1-.39-.916v-1.39a1.367,1.367,0,0,0-.256-.737,3.269,3.269,0,0,1-.62-1.768,1.547,1.547,0,0,1,.093-.528.991.991,0,0,0-.21-.014,1.325,1.325,0,0,1,.707.2,3.395,3.395,0,0,1,1.538,2.663.992.992,0,0,1-.617,1.054.406.406,0,0,0-.2.177.41.41,0,0,0-.052.266Z" transform="translate(-222.967 -230.402)" fill="#21bdca"/>
    </g>
    <path id="Path_18318" data-name="Path 18318" d="M224.294,237.082a.953.953,0,0,1-.47-.138,1.813,1.813,0,0,1-.844-1.463v-1.39a1.035,1.035,0,0,0-.194-.533,3.62,3.62,0,0,1-.679-1.97,1.445,1.445,0,0,1,.63-1.306,1.411,1.411,0,0,1,1.442.112,3.736,3.736,0,0,1,1.72,2.97,1.338,1.338,0,0,1-.859,1.393.333.333,0,0,0-.014.1v1.39a.817.817,0,0,1-.375.737A.7.7,0,0,1,224.294,237.082Zm-.987-6.233a.441.441,0,0,0-.219.055.759.759,0,0,0-.273.686,2.908,2.908,0,0,0,.553,1.565,1.72,1.72,0,0,1,.318.942v1.39a1.132,1.132,0,0,0,.488.844.264.264,0,0,0,.119.042.805.805,0,0,0,0-.114v-1.39a.758.758,0,0,1,.511-.785c.315-.094.363-.485.363-.707a3.046,3.046,0,0,0-1.362-2.355A1.085,1.085,0,0,0,223.307,230.849Z" transform="translate(80.513 83.545)" fill="#1496a3"/>
    <path id="Path_18319" data-name="Path 18319" d="M147.134,182.89l-5.171,2.985a.732.732,0,0,0-.307.667v26.223c0,12.162,17.962,31.948,18.728,32.786a1.835,1.835,0,0,0,.414.339.9.9,0,0,0,.41.135c.5.03,8.246.443,13.628-2.609l5.237-3.023a9.319,9.319,0,0,0,5.036-8.515V205.654a2.381,2.381,0,0,0-1.071-1.781c-7.172-4.138-13.855-10-17.451-15.292-.363-.533-.87-.826-1.236-.707-3.592,1.145-10.272-.707-17.5-4.886a.661.661,0,0,0-.348-.154.677.677,0,0,0-.373.061Z" transform="translate(51.305 66.372)" fill="#fff"/>
    <path id="Path_18320" data-name="Path 18320" d="M183.957,203.873c-7.172-4.138-13.854-10-17.45-15.292-.364-.533-.87-.826-1.238-.707-3.59,1.145-10.27-.707-17.5-4.886a.661.661,0,0,0-.346-.154.682.682,0,0,0-.375.061l-5.171,2.985a.667.667,0,0,1,.706.1c7.232,4.172,13.9,6.031,17.5,4.889.368-.116.875.176,1.239.706,3.594,5.3,10.279,11.155,17.437,15.292a2.371,2.371,0,0,1,1.071,1.781v26.223a9.332,9.332,0,0,1-5.107,8.553l5.235-3.023A9.32,9.32,0,0,0,185,231.882V205.656a2.376,2.376,0,0,0-1.04-1.783Z" transform="translate(51.387 66.372)" fill="rgba(33,189,202,0.16)"/>
    <path id="Path_18321" data-name="Path 18321" d="M162.793,246.607c-.773,0-1.306-.026-1.5-.038a1.364,1.364,0,0,1-.6-.192,2.294,2.294,0,0,1-.508-.416c-.773-.845-18.849-20.751-18.849-33.079V186.659a1.141,1.141,0,0,1,.518-1.037l5.184-2.985a.147.147,0,0,1,.033-.016,1.086,1.086,0,0,1,1.138.123c7.069,4.085,13.652,5.944,17.132,4.837a1.665,1.665,0,0,1,1.72.876c3.56,5.248,10.194,11.057,17.309,15.162a2.805,2.805,0,0,1,1.289,2.148v26.227a9.7,9.7,0,0,1-5.219,8.867l-.035.022-5.234,3.023a.421.421,0,0,1-.061.029C170.92,246.289,165.444,246.607,162.793,246.607Zm-15.359-63.216-5.143,2.969c-.048.029-.1.132-.1.3v26.222c0,12,17.856,31.669,18.615,32.5a1.435,1.435,0,0,0,.311.256.527.527,0,0,0,.236.079c.327.018,8.1.45,13.39-2.554l.055-.026,5.148-2.974.033-.022a8.9,8.9,0,0,0,4.826-8.145V205.77a1.978,1.978,0,0,0-.275-.8,1.938,1.938,0,0,0-.587-.612c-7.217-4.165-13.959-10.076-17.587-15.421-.282-.416-.624-.582-.757-.545-3.7,1.179-10.536-.706-17.839-4.925-.153-.1-.252-.117-.292-.094Z" transform="translate(51.19 66.258)" fill="#1496a3"/>
    <path id="Path_18322" data-name="Path 18322" d="M145.7,183.727h0Z" transform="translate(52.773 66.699)" fill="#1496a3" fill-rule="evenodd"/>
    <path id="Path_18323" data-name="Path 18323" d="M157.088,216.392l-7.637-13.213,2.1-1.214,5.53,9.571,8.3-4.783,2.109,3.642Z" transform="translate(54.136 73.319)" fill="#21cab7"/>
    <path id="Path_18324" data-name="Path 18324" d="M157.56,217.342l-7.637-13.216,2.1-1.21,5.528,9.571,7.066-4.065a19.632,19.632,0,0,0-7.066-7.786c-5.193-3-9.4-.572-9.4,5.414s4.21,13.277,9.4,16.27,9.4.578,9.4-5.415a16.213,16.213,0,0,0-.718-4.565Z" transform="translate(53.664 72.371)" fill="rgba(33,189,202,0.16)"/>
    <path id="Path_18325" data-name="Path 18325" d="M177.437,126.757V102.449a7.555,7.555,0,0,0-3.417-5.909L146.176,80.463a15.338,15.338,0,0,0-13.843,0c-1.885,1.091-2.827,2.509-2.86,3.93v.04a.358.358,0,0,0,0,.054v32.13c0,1.458.942,2.914,2.856,4.02l27.845,16.074a2.4,2.4,0,0,0,2.388.252h.02l1.837-1.062a2.36,2.36,0,0,0,1.028-2.215v-7.753l6.713,3.876a2.383,2.383,0,0,0,2.387.236l.025-.019,1.837-1.06A2.357,2.357,0,0,0,177.437,126.757Z" transform="translate(46.883 28.611)" fill="#fff"/>
    <path id="Path_18326" data-name="Path 18326" d="M177.437,126.757V102.449a7.555,7.555,0,0,0-3.417-5.909L146.176,80.463a15.338,15.338,0,0,0-13.843,0c-1.906,1.1-2.86,2.547-2.862,4.006H132.1a3.553,3.553,0,0,1,2.1-2.917,11.176,11.176,0,0,1,10.118,0L172.16,97.628a7.557,7.557,0,0,1,3.416,5.907v24.3a2.4,2.4,0,0,1-1,2.212l1.839-1.06A2.437,2.437,0,0,0,177.437,126.757Z" transform="translate(46.883 28.611)" fill="rgba(33,189,202,0.16)"/>
    <path id="Path_18327" data-name="Path 18327" d="M174.764,130.925a.716.716,0,0,1-.262-.052.709.709,0,0,1-.391-.912.714.714,0,0,1,.294-.342l1.8-1.035.044-.029a1.732,1.732,0,0,0,.669-1.607V102.631a6.915,6.915,0,0,0-3.063-5.3L146.011,81.255a14.556,14.556,0,0,0-13.138,0c-1.619.943-2.512,2.139-2.512,3.388a.707.707,0,1,1-1.413,0c0-1.772,1.142-3.407,3.215-4.6a16.075,16.075,0,0,1,14.548,0l27.843,16.077a8.2,8.2,0,0,1,3.769,6.52v24.307a3.071,3.071,0,0,1-1.333,2.8l-.042.026-1.814,1.047A.717.717,0,0,1,174.764,130.925Z" transform="translate(46.692 28.425)" fill="#5091dd"/>
    <path id="Path_18328" data-name="Path 18328" d="M161.884,138.072a3.779,3.779,0,0,1-1.885-.564l-27.847-16.074c-2.08-1.2-3.221-2.849-3.207-4.634V84.674a.389.389,0,0,1,0-.057.421.421,0,0,1,0-.059c.038-1.737,1.179-3.341,3.213-4.519a16.078,16.078,0,0,1,14.549,0l27.841,16.077a8.2,8.2,0,0,1,3.77,6.52v24.307a3.073,3.073,0,0,1-1.333,2.8l-.042.026-1.839,1.06a.368.368,0,0,1-.052.026,3.09,3.09,0,0,1-3.063-.259l-5.655-3.266v6.525a3.067,3.067,0,0,1-1.315,2.787l-.063.042-1.8,1.037a.947.947,0,0,1-.147.078A2.485,2.485,0,0,1,161.884,138.072Zm-31.52-53.459v.019a.358.358,0,0,1,0,.054v32.129c0,1.265.879,2.474,2.5,3.412L160.712,136.3a1.789,1.789,0,0,0,1.7.247l.057-.03,1.727-1a.787.787,0,0,1,.079-.052,1.744,1.744,0,0,0,.662-1.6v-7.752a.718.718,0,0,1,.1-.35.729.729,0,0,1,.258-.258.713.713,0,0,1,.7,0l6.713,3.876a1.767,1.767,0,0,0,1.694.236l.037-.019,1.775-1.022.045-.029a1.735,1.735,0,0,0,.669-1.607V102.629a6.915,6.915,0,0,0-3.063-5.3L146.019,81.253a14.556,14.556,0,0,0-13.138,0c-1.592.924-2.486,2.121-2.512,3.336Z" transform="translate(46.691 28.425)" fill="#1496a3"/>
    <path id="Path_18329" data-name="Path 18329" d="M143.432,82.622a11.047,11.047,0,0,0-9.969,0,4.2,4.2,0,0,0-1.846,1.93c-.023.056-.065.113-.087.167a2.485,2.485,0,0,0-.094.566c0,.071-.035.139-.035.21v30.489a3.45,3.45,0,0,0,2.05,2.951l27.013,15.593,9.976-5.763V98.2Z" transform="translate(47.583 29.563)" fill="#dbf4f7"/>
    <path id="Path_18330" data-name="Path 18330" d="M133.292,114.788l26.491,15.292,9.976-5.763V93.757l-.018-.009Z" transform="translate(48.27 34.033)" fill="#cbe8eb"/>
    <path id="Path_18331" data-name="Path 18331" d="M152.914,122.835a.7.7,0,0,1-.676-.523.717.717,0,0,1,.027-.45.7.7,0,0,1,.294-.341l9.976-5.764a.728.728,0,0,1,.267-.109.709.709,0,0,1,.548.127.687.687,0,0,1,.192.214.7.7,0,0,1,.065.56.713.713,0,0,1-.138.252.724.724,0,0,1-.228.177l-9.979,5.763A.7.7,0,0,1,152.914,122.835Z" transform="translate(55.139 41.98)" fill="#1496a3"/>
    <path id="Path_18332" data-name="Path 18332" d="M165.448,132.171V107.864a7.537,7.537,0,0,0-3.414-5.907L134.191,85.88a3.564,3.564,0,0,1-2.094-2.924h-2.627v.021h0v.033c0,.076.012.146.016.221,0-.071-.016-.141-.016-.212v32.116c0,1.458.942,2.914,2.856,4.02L157.38,133.62l2.793,1.61a2.394,2.394,0,0,0,2.426.236l1.824-1.054A2.438,2.438,0,0,0,165.448,132.171Z" transform="translate(46.883 30.116)" fill="#fff"/>
    <path id="Path_18333" data-name="Path 18333" d="M132.328,86.95l27.843,16.084a7.541,7.541,0,0,1,3.416,5.9v24.306a2.388,2.388,0,0,1-1,2.205l1.836-1.058a2.362,2.362,0,0,0,1.028-2.215V107.864a7.54,7.54,0,0,0-3.414-5.907L134.19,85.88a3.565,3.565,0,0,1-2.092-2.924h-2.627C129.463,84.405,130.417,85.854,132.328,86.95Z" transform="translate(46.883 30.116)" fill="rgba(33,189,202,0.16)"/>
    <path id="Path_18334" data-name="Path 18334" d="M161.887,136.574a3.789,3.789,0,0,1-1.885-.566l-27.845-16.074c-2.081-1.2-3.221-2.849-3.207-4.636V83.2a.219.219,0,0,1,0-.042.707.707,0,1,1,1.413-.04.457.457,0,0,1,0,.061v.052a.034.034,0,0,1,0,.016v.1a.618.618,0,0,1-.016.212V115.3c0,1.265.879,2.474,2.5,3.412l27.845,16.072a1.783,1.783,0,0,0,1.719.236l1.764-1.018c.026-.018.052-.034.079-.049a1.749,1.749,0,0,0,.661-1.6V108.052a6.887,6.887,0,0,0-3.063-5.3L134.007,86.678a4.224,4.224,0,0,1-2.441-3.534.707.707,0,0,1,1.415,0,2.9,2.9,0,0,0,1.738,2.314l27.844,16.077a8.164,8.164,0,0,1,3.77,6.517v24.307a3.069,3.069,0,0,1-1.314,2.787l-.064.042-1.826,1.054A2.45,2.45,0,0,1,161.887,136.574Z" transform="translate(46.693 29.924)" fill="#1496a3"/>
    <path id="Path_18335" data-name="Path 18335" d="M145.311,105a2.443,2.443,0,0,0-1.025,2.25,7.682,7.682,0,0,0,3.484,6.03,2.429,2.429,0,0,0,2.475.236l1.352-.785a2.428,2.428,0,0,0,1.028-2.254,7.7,7.7,0,0,0-3.483-6.03,2.449,2.449,0,0,0-2.46-.247Z" transform="translate(52.261 37.744)" fill="#21bdca"/>
    <g id="Group_3918" data-name="Group 3918" transform="translate(197.572 141.717)" opacity="0.3">
      <path id="Path_18336" data-name="Path 18336" d="M145.042,105a2.45,2.45,0,0,1,2.46.236,7.692,7.692,0,0,1,3.483,6.031,2.453,2.453,0,0,1-1.009,2.249l1.352-.785a2.428,2.428,0,0,0,1.028-2.254,7.69,7.69,0,0,0-3.483-6.03,2.453,2.453,0,0,0-2.46-.248l-1.375.789Z" transform="translate(-145.038 -103.972)"/>
    </g>
    <path id="Path_18337" data-name="Path 18337" d="M149.522,114.652a3.834,3.834,0,0,1-1.914-.578,8.352,8.352,0,0,1-3.836-6.635,3.151,3.151,0,0,1,1.288-2.809.621.621,0,0,1,.085-.059l1.377-.792a3.119,3.119,0,0,1,3.165.252,8.331,8.331,0,0,1,3.833,6.638,3.131,3.131,0,0,1-1.385,2.868l-1.348.78A2.473,2.473,0,0,1,149.522,114.652Zm-3.589-8.9a.506.506,0,0,1-.071.049,1.8,1.8,0,0,0-.675,1.649,7.027,7.027,0,0,0,3.132,5.419,1.779,1.779,0,0,0,1.766.236l1.355-.785a1.791,1.791,0,0,0,.677-1.649,7.027,7.027,0,0,0-3.13-5.419,1.788,1.788,0,0,0-1.76-.234Z" transform="translate(52.075 37.558)" fill="#1496a3"/>
    <path id="Path_18338" data-name="Path 18338" d="M149.288,109.63a4.25,4.25,0,0,0-1.929-3.334,1.339,1.339,0,0,0-1.359-.142,1.368,1.368,0,0,0-.568,1.247,4.256,4.256,0,0,0,1.927,3.334,1.333,1.333,0,0,0,1.367.132A1.357,1.357,0,0,0,149.288,109.63Z" transform="translate(52.677 38.491)" fill="#fff"/>
  </g>
</svg>
