<svg xmlns="http://www.w3.org/2000/svg" xmlns:xlink="http://www.w3.org/1999/xlink" width="1005.193" height="641.07" viewBox="0 0 1005.193 641.07">
  <defs>
    <filter id="Path_18061" x="195.841" y="24.618" width="220.203" height="251.422" filterUnits="userSpaceOnUse">
      <feOffset dy="3" input="SourceAlpha"/>
      <feGaussianBlur stdDeviation="3" result="blur"/>
      <feFlood flood-opacity="0.071"/>
      <feComposite operator="in" in2="blur"/>
      <feComposite in="SourceGraphic"/>
    </filter>
    <filter id="Path_18069" x="0" y="309.887" width="239.184" height="276.806" filterUnits="userSpaceOnUse">
      <feOffset dy="3" input="SourceAlpha"/>
      <feGaussianBlur stdDeviation="3" result="blur-2"/>
      <feFlood flood-opacity="0.071"/>
      <feComposite operator="in" in2="blur-2"/>
      <feComposite in="SourceGraphic"/>
    </filter>
    <filter id="Path_18081" x="246.782" y="275.928" width="283.415" height="328.241" filterUnits="userSpaceOnUse">
      <feOffset dy="3" input="SourceAlpha"/>
      <feGaussianBlur stdDeviation="3" result="blur-3"/>
      <feFlood flood-opacity="0.071"/>
      <feComposite operator="in" in2="blur-3"/>
      <feComposite in="SourceGraphic"/>
    </filter>
  </defs>
  <g id="Group_3883" data-name="Group 3883" transform="translate(-823.149 -134.882)">
    <g id="Group_3867" data-name="Group 3867" transform="translate(1174.462 134.882)">
      <path id="Path_18030" data-name="Path 18030" d="M1527.075,82.9,1061.267,207.714a33.967,33.967,0,0,0-24.022,41.593l120.131,448.317a33.962,33.962,0,0,0,41.591,24.015l465.819-124.814a33.961,33.961,0,0,0,24.01-41.594L1568.666,106.914A33.951,33.951,0,0,0,1527.075,82.9Z" transform="translate(-1036.083 -81.734)" fill="#fff"/>
    </g>
    <path id="Path_18031" data-name="Path 18031" d="M1198.643,259.973l-4.8,1.287-.838-3.116,4.551-1.218-.351-1.29-4.539,1.218-.792-2.93,4.811-1.286-.362-1.34-6.362,1.7,2.683,10.016,6.362-1.7Zm2.151.86,1.494-.4-1.189-4.422a1.826,1.826,0,0,1,1.279-2.447c1.109-.3,1.8.173,2.128,1.423l1.223,4.525,1.483-.4-1.3-4.879c-.487-1.8-1.687-2.555-3.374-2.1a2.353,2.353,0,0,0-1.89,1.944l-.113.031-.317-1.194-1.438.385Zm11.037-2.823a2.735,2.735,0,0,0,2.026-1.955l.113-.032.317,1.194,1.426-.383-2.807-10.5-1.494.4,1.121,4.151-.113.029a2.593,2.593,0,0,0-2.672-.7c-1.913.511-2.739,2.36-2.094,4.734S1209.906,258.525,1211.831,258.01Zm-1.325-6.63c1.257-.335,2.309.468,2.74,2.078s-.079,2.824-1.336,3.162-2.275-.438-2.717-2.076S1209.25,251.716,1210.506,251.379Zm5.558-4.16a.973.973,0,1,0-1.189-.685A.968.968,0,0,0,1216.065,247.219Zm1.641,9.083,1.483-.4-2.015-7.538-1.494.4Zm3.4-.91,1.494-.4-1.189-4.422a1.813,1.813,0,0,1,1.279-2.447c1.1-.3,1.789.173,2.128,1.423l1.211,4.526,1.494-.4-1.313-4.879c-.475-1.8-1.675-2.555-3.362-2.1a2.352,2.352,0,0,0-1.9,1.945l-.113.029-.317-1.194-1.437.386Zm12.192-.181c2.14-.573,3.2-2.025,2.74-3.739L1234,243.858l-1.426.383.317,1.2-.113.032a2.725,2.725,0,0,0-2.74-.7c-1.924.516-2.728,2.36-2.117,4.644.611,2.263,2.207,3.436,4.132,2.918a2.627,2.627,0,0,0,1.992-1.9l.113-.029.385,1.45c.272,1.02-.294,1.828-1.54,2.161-1.007.269-1.732.078-2.015-.457l-1.528.409C1229.966,255.206,1231.4,255.717,1233.294,255.211Zm-1.155-4.221c-1.279.344-2.264-.44-2.683-1.982s.045-2.719,1.336-3.063c1.268-.341,2.309.437,2.717,1.978S1233.419,250.648,1232.139,250.99Zm13.652-2.213c2.14-.573,3.136-1.986,2.66-3.748a2.452,2.452,0,0,0-2.9-1.811l-.034-.118a2.27,2.27,0,0,0,1.177-2.623c-.419-1.541-1.8-2.2-3.679-1.691l-4.03,1.079,2.683,10.015Zm-4.913-8.059,2.117-.566c1.155-.308,1.97.06,2.23,1.011.26.978-.317,1.683-1.7,2.052l-1.845.495Zm2,7.475-.883-3.3,2.162-.578c1.46-.393,2.389-.043,2.672,1.039s-.294,1.858-1.7,2.233Zm10-1.181a2.635,2.635,0,0,0,1.947-1.8l.113-.031.294,1.069,1.438-.385-1.392-5.158c-.419-1.583-1.743-2.24-3.634-1.732-1.721.46-2.717,1.612-2.524,2.924l1.438-.387c.023-.593.509-1.06,1.347-1.283,1.019-.274,1.675.05,1.89.876l.181.659-2.015.674c-1.766.593-2.57,1.649-2.207,3A2.357,2.357,0,0,0,1252.878,247.012Zm.057-1.3c-.815.217-1.517-.034-1.7-.735s.193-1.182,1.211-1.529l1.811-.62.17.653A1.862,1.862,0,0,1,1252.935,245.709Zm5.637-.358,1.494-.4-2.807-10.5-1.494.4Zm5.57-1.36a2.633,2.633,0,0,0,1.958-1.8l.113-.032.283,1.07,1.438-.385-1.381-5.158c-.419-1.583-1.743-2.24-3.634-1.732-1.721.458-2.717,1.612-2.536,2.923l1.449-.386c.023-.593.51-1.06,1.347-1.284,1.019-.273,1.664.051,1.891.876l.181.66-2.015.674c-1.766.593-2.57,1.648-2.207,3A2.349,2.349,0,0,0,1264.142,243.992Zm.068-1.3c-.815.217-1.517-.034-1.7-.735s.181-1.182,1.211-1.531l1.811-.619.17.652A1.863,1.863,0,0,1,1264.21,242.689Zm5.569-.34,1.494-.4-1.189-4.422a1.813,1.813,0,0,1,1.279-2.447c1.1-.3,1.789.173,2.128,1.423l1.211,4.526,1.494-.4-1.313-4.879c-.475-1.8-1.675-2.555-3.362-2.1a2.352,2.352,0,0,0-1.9,1.945l-.1.029-.328-1.194-1.438.385Zm13.267-9.038a3.092,3.092,0,0,0-3.928-1.7c-2.2.59-3.136,2.441-2.49,4.836.645,2.443,2.4,3.582,4.6,2.992a3.055,3.055,0,0,0,2.547-3.4l-1.449.388a1.7,1.7,0,0,1-1.438,1.741c-1.245.334-2.287-.466-2.728-2.133-.442-1.631.057-2.821,1.3-3.156a1.765,1.765,0,0,1,2.14.821Zm7.211,1.387a1.861,1.861,0,0,1-1.551,1.425,2.092,2.092,0,0,1-2.6-1.688l-.023-.07,5.332-1.43-.136-.514c-.634-2.359-2.287-3.456-4.392-2.892-2.128.571-3.068,2.468-2.423,4.862s2.366,3.546,4.528,2.965a3.189,3.189,0,0,0,2.706-3.043Zm-3.045-3.953a1.925,1.925,0,0,1,2.4,1.521l-3.815,1.023A2.025,2.025,0,0,1,1287.213,230.745Z" transform="translate(158.695 72.642)" fill="#7c8896"/>
    <path id="Path_18032" data-name="Path 18032" d="M1405.6,224.393l1.268-.341-4.845-6.959-1.279.344-.724,8.451,1.234-.329.147-2.273,2.943-.787Zm-3.917-5.75.09-.024,2,3-2.332.624Zm6.181,5.143,1.155-.308-.917-3.4a1.4,1.4,0,0,1,.985-1.883c.849-.228,1.381.134,1.641,1.095l.928,3.481,1.155-.308-1.007-3.754a1.959,1.959,0,0,0-2.592-1.618,1.8,1.8,0,0,0-1.46,1.5l-.091.024-.238-.919-1.109.3Zm6.339-1.7,1.155-.308-.917-3.4a1.4,1.4,0,0,1,.985-1.883c.849-.228,1.381.134,1.641,1.095l.928,3.481,1.143-.308-1-3.754a1.959,1.959,0,0,0-2.592-1.618,1.8,1.8,0,0,0-1.46,1.5l-.091.024-.249-.919-1.1.3Zm9.69-8.809-1.155.307.917,3.4a1.39,1.39,0,0,1-1.042,1.885c-.838.226-1.336-.131-1.6-1.092l-.94-3.481-1.143.307,1.008,3.764a1.954,1.954,0,0,0,2.581,1.611,1.818,1.818,0,0,0,1.483-1.5l.091-.025.238.918,1.109-.3Zm4.63,5.076a2.006,2.006,0,0,0,1.494-1.387l.1-.024.215.822,1.109-.3-1.064-3.967c-.328-1.217-1.347-1.723-2.807-1.332-1.313.353-2.083,1.241-1.936,2.249l1.109-.3c.011-.456.385-.815,1.03-.987.781-.211,1.291.038,1.46.675l.136.507-1.551.517c-1.358.456-1.981,1.269-1.7,2.309A1.812,1.812,0,0,0,1428.525,218.354Zm.045-1c-.623.168-1.166-.026-1.3-.565s.136-.909.928-1.177l1.392-.477.136.5A1.435,1.435,0,0,1,1428.57,217.351Zm4.336-.275,1.155-.308L1431.9,208.7l-1.155.308Zm6.758-1.81-2.06-7.7-1.2.32,2.06,7.7Zm1.585-.423,1.143-.308-.906-3.4a1.387,1.387,0,0,1,.974-1.883c.849-.228,1.381.134,1.641,1.095l.928,3.481,1.155-.308-1.008-3.754a1.955,1.955,0,0,0-2.592-1.618,1.816,1.816,0,0,0-1.46,1.5l-.079.024-.249-.919-1.109.3Zm4.789-9.069.4,1.48-.917.247.249.919.917-.248.894,3.337c.306,1.116.928,1.429,2.207,1.087a3.943,3.943,0,0,0,.611-.226l-.249-.914c-.158.059-.26.1-.43.145-.577.153-.894-.052-1.064-.677l-.815-3.06,1.257-.337-.249-.918-1.257.337-.4-1.478Zm8.818,3.755a1.409,1.409,0,0,1-1.189,1.1,1.611,1.611,0,0,1-2-1.3l-.011-.053,4.1-1.1-.1-.4c-.487-1.815-1.755-2.658-3.373-2.224-1.642.439-2.366,1.9-1.868,3.74s1.823,2.727,3.487,2.281a2.446,2.446,0,0,0,2.072-2.341Zm-2.343-3.041a1.49,1.49,0,0,1,1.857,1.171l-2.943.787A1.567,1.567,0,0,1,1452.512,206.488Zm5.094,3.969,1.155-.307-.928-3.465a1.409,1.409,0,0,1,1.109-1.775,3.825,3.825,0,0,1,.657-.109l-.283-1.078a3.114,3.114,0,0,0-.532.094,1.623,1.623,0,0,0-1.3,1.4l-.079.023-.238-.881-1.109.3Zm7.4-3.65a1.41,1.41,0,0,1-1.189,1.1,1.611,1.611,0,0,1-2-1.3l-.011-.053,4.109-1.1-.113-.4c-.487-1.816-1.755-2.659-3.373-2.226-1.642.439-2.366,1.9-1.868,3.74s1.823,2.727,3.487,2.281a2.446,2.446,0,0,0,2.072-2.341Zm-2.332-3.039a1.479,1.479,0,0,1,1.845,1.169l-2.943.787A1.572,1.572,0,0,1,1462.678,203.768Zm3.838-.171c.226.859.872,1.214,2.049,1.174l1.075-.032c.623-.017.951.145,1.053.507.125.475-.294.943-1.007,1.134a1.219,1.219,0,0,1-1.46-.4l-1.155.307c.374.983,1.449,1.365,2.83,1s2.207-1.377,1.924-2.455c-.226-.843-.872-1.181-2.049-1.14l-1.03.034c-.668.019-1.019-.126-1.121-.483-.125-.47.283-.915.917-1.087a1.118,1.118,0,0,1,1.37.4l1.1-.3c-.374-.974-1.392-1.353-2.706-1S1466.244,202.588,1466.516,203.6Zm5.343-4.74.4,1.478-.928.248.249.918.928-.247.894,3.336c.294,1.116.928,1.429,2.2,1.087a3.826,3.826,0,0,0,.611-.226l-.249-.912a3.187,3.187,0,0,1-.43.144c-.566.153-.894-.052-1.053-.677l-.826-3.059,1.257-.337-.238-.919-1.268.338-.4-1.48Zm8.8,2.25,1.687-.452,2.354,2.543,1.393-.371-2.581-2.686a2.276,2.276,0,0,0,.906-2.6,2.38,2.38,0,0,0-3.181-1.671l-3.045.817,2.06,7.7,1.2-.32Zm-1.007-3.737,1.687-.453a1.368,1.368,0,0,1,1.857.978,1.331,1.331,0,0,1-1.087,1.768l-1.721.461Zm9.181,4.826a2.021,2.021,0,0,0,1.494-1.386l.09-.025.215.823,1.109-.3-1.064-3.967c-.328-1.218-1.336-1.723-2.8-1.332-1.325.353-2.094,1.24-1.947,2.248l1.109-.3c.023-.455.4-.815,1.042-.986.781-.211,1.279.038,1.449.674l.136.507-1.551.518c-1.358.456-1.97,1.268-1.7,2.309A1.819,1.819,0,0,0,1488.828,202.2Zm.045-1c-.634.168-1.166-.026-1.313-.566s.147-.908.928-1.176l1.4-.477.136.5A1.444,1.444,0,0,1,1488.873,201.195Zm2.74-7.631.4,1.478-.917.248.238.918.928-.248.894,3.337c.294,1.116.928,1.429,2.2,1.087a3.83,3.83,0,0,0,.611-.226l-.238-.912c-.158.059-.26.1-.43.144-.577.153-.906-.052-1.064-.677l-.826-3.059,1.268-.338-.249-.918-1.256.337-.4-1.478Zm8.818,3.754a1.438,1.438,0,0,1-1.188,1.1,1.611,1.611,0,0,1-2-1.3l-.023-.053,4.109-1.1-.1-.4c-.487-1.816-1.766-2.659-3.385-2.226s-2.355,1.9-1.868,3.74,1.823,2.727,3.487,2.281a2.446,2.446,0,0,0,2.083-2.341Zm-2.343-3.04a1.475,1.475,0,0,1,1.845,1.169l-2.932.788A1.559,1.559,0,0,1,1498.088,194.278Z" transform="translate(186.429 67.869)" fill="#7c8896"/>
    <path id="Path_18033" data-name="Path 18033" d="M1209.868,313.287l.249-.929-1.7-.319,1.313-1.137-.691-.686-1.087,1.363-.306-1.72-.939.252.6,1.64-1.63-.634-.249.935,1.7.329-1.313,1.128.679.68,1.109-1.34.294,1.7.94-.253-.589-1.611Zm5.105,3.694,1.313-.352-2.275-8.474-1.3.351-1.811,2.184.351,1.292,1.709-2.091.1-.027Zm7.845.378c1.3-.349,1.777-1,1.913-2.677l.589-7.311-1.336.359-.226,5.537-.1.027-2.977-4.68-1.37.368,4.03,5.776-.011.354a1.133,1.133,0,0,1-.906,1.238,2.888,2.888,0,0,1-.419.086l.283,1.034C1222.411,317.456,1222.7,317.387,1222.818,317.359Zm8.75-6.659a1.566,1.566,0,0,1-1.3,1.207,1.777,1.777,0,0,1-2.208-1.43l-.023-.058,4.517-1.21-.113-.435c-.532-2-1.936-2.925-3.713-2.449-1.8.483-2.6,2.089-2.06,4.115s2,3,3.838,2.509a2.7,2.7,0,0,0,2.287-2.575Zm-2.57-3.344a1.624,1.624,0,0,1,2.026,1.287l-3.226.865A1.718,1.718,0,0,1,1229,307.357Zm7.392,4a2.22,2.22,0,0,0,1.653-1.525l.1-.026.238.9,1.223-.326-1.177-4.364c-.351-1.339-1.472-1.9-3.079-1.466-1.449.389-2.3,1.365-2.14,2.475l1.223-.328c.022-.5.43-.9,1.143-1.084.86-.232,1.415.042,1.6.741l.159.557-1.709.571c-1.494.5-2.173,1.395-1.868,2.54A1.988,1.988,0,0,0,1236.391,311.354Zm.057-1.1c-.691.185-1.279-.028-1.438-.622s.158-1,1.019-1.295l1.54-.524.147.552A1.58,1.58,0,0,1,1236.448,310.251Zm4.709-.288,1.268-.339-1.03-3.812a1.565,1.565,0,0,1,1.234-1.953,4.316,4.316,0,0,1,.724-.118l-.317-1.186a3.061,3.061,0,0,0-.577.1,1.784,1.784,0,0,0-1.438,1.543l-.1.025-.249-.969-1.223.326Zm10.969-.327c1.811-.485,2.717-1.714,2.321-3.164l-1.721-6.443-1.211.325.272,1.015-.1.027a2.289,2.289,0,0,0-2.309-.59c-1.63.438-2.309,2-1.789,3.93.509,1.914,1.857,2.906,3.487,2.469a2.228,2.228,0,0,0,1.687-1.6l.09-.025.34,1.227c.226.864-.26,1.547-1.313,1.829-.849.228-1.46.066-1.7-.387l-1.291.345C1249.307,309.631,1250.53,310.064,1252.126,309.636Zm-.974-3.573c-1.087.292-1.913-.372-2.264-1.677s.034-2.3,1.121-2.592,1.958.369,2.309,1.673S1252.24,305.775,1251.153,306.064Zm6.668-.451a2.239,2.239,0,0,0,1.653-1.525l.1-.027.238.9,1.211-.326-1.166-4.363c-.362-1.339-1.472-1.9-3.079-1.466-1.449.388-2.3,1.364-2.14,2.473l1.223-.327c.011-.5.43-.9,1.132-1.086.872-.231,1.415.043,1.608.741l.147.558-1.7.569c-1.494.5-2.185,1.4-1.868,2.54A1.988,1.988,0,0,0,1257.82,305.613Zm.045-1.1c-.679.183-1.279-.029-1.438-.623s.17-1,1.03-1.294l1.528-.524.159.551A1.589,1.589,0,0,1,1257.866,304.511Zm3.351-7.98a.823.823,0,1,0-.419-1.592.823.823,0,1,0,.419,1.592Zm1.392,7.685,1.257-.336-1.709-6.378-1.257.336Zm2.875-.769,1.256-.338-1-3.741a1.534,1.534,0,0,1,1.076-2.072c.94-.25,1.517.147,1.8,1.2l1.03,3.83,1.268-.339-1.109-4.13a2.152,2.152,0,0,0-2.853-1.778,1.993,1.993,0,0,0-1.608,1.645l-.091.025-.272-1.01-1.211.325Z" transform="translate(160.738 81.294)" fill="#152b43" opacity="0.4"/>
    <path id="Path_18034" data-name="Path 18034" d="M1210.011,298.951l1.494-.4-.634-2.377c4.234-1.407,6.713-4.524,5.705-8.306-.883-3.275-3.464-4.346-7.8-4.175l-1.234.058-1.415-5.262a3.3,3.3,0,0,1,3.871,1.958l3.985-1.066c-1.1-3.522-4.471-5.117-8.762-4.271l-.645-2.421-1.494.4.645,2.423c-4.109,1.327-6.475,4.46-5.513,8.062.86,3.23,3.475,4.406,7.619,4.238l1.177-.042,1.46,5.442c-2.162.37-3.555-.4-4.222-1.881l-4,1.07c1.121,3.739,4.811,5.122,9.124,4.175Zm-7.72-16.889c-.317-1.21.43-2.485,2.343-3.189l1.313,4.933C1203.717,283.83,1202.619,283.274,1202.29,282.063Zm10.233,7.385c.374,1.375-.453,2.621-2.558,3.362l-1.37-5.1C1211.154,287.669,1212.173,288.118,1212.524,289.448Zm4.223-10.666,4.188-1.121a3.674,3.674,0,0,1,2.841-4.542,3.162,3.162,0,0,1,4.087,2.172c.407,1.494.068,2.691-1.97,6.055l-5.694,9.282.826,3.095,15.679-4.2-.951-3.587-9.781,2.62-.023-.089,3.362-5.549c2.717-4.461,3.577-6.439,2.875-9.085-.962-3.589-4.732-5.462-9.351-4.225C1218.15,270.86,1215.637,274.626,1216.746,278.782Zm23.263,9.854,4.743-1.27,4.188-20.351-.974-3.633-15.418,4.134.951,3.587,10.981-2.94.023.089Zm16.935.511-.249-8.953-4.166,1.114,1.143,8.717Zm11.92-7.727c4.811-1.29,7.46-5.412,6.26-9.882a6.992,6.992,0,0,0-8.909-5.144,6.267,6.267,0,0,0-4.947,5.043l-.09.024c-1.279-4.721-.543-8.172,2.6-9.013a3.624,3.624,0,0,1,4.223,1.48l4.449-1.193c-1.551-3.4-5.434-4.984-9.622-3.862-5.6,1.5-7.856,6.721-5.943,13.866C1258.88,280.183,1263.7,282.8,1268.865,281.42Zm-1.03-3.572a4.046,4.046,0,0,1-5-2.9,4.1,4.1,0,0,1,7.947-2.033A4.042,4.042,0,0,1,1267.835,277.848Zm13.958-10.582,2.468-.661c2.615-.7,4.472.052,5.015,2.15.487,1.824-.725,3.5-2.989,4.1-2.377.636-4.245-.143-4.868-1.867l-4.313,1.154c1.256,3.91,5.287,5.651,10.154,4.346,5.015-1.343,7.709-4.853,6.656-8.77-.792-2.96-3.4-4.3-6.668-3.739l-.023-.089c2.4-1.2,3.883-3.508,3.136-6.259-.917-3.454-4.607-4.886-9.169-3.664-4.505,1.21-6.973,4.578-6.136,8.584l4.143-1.109c-.374-1.9.8-3.437,2.932-4.006,2.151-.576,3.656.22,4.132,1.984s-.668,3.383-2.921,3.987l-2.411.645Zm17.128,5.588,4.732-1.27,4.2-20.352-.974-3.633-15.43,4.134.962,3.589,10.969-2.941.023.091Zm15.339-3.919a2.492,2.492,0,1,0-3.056-1.761A2.493,2.493,0,0,0,1314.259,268.934Zm5.355-1.626,4.732-1.27,4.2-20.35-.974-3.633-15.43,4.134.962,3.587,10.969-2.94.023.089Zm21.18-5.676,4.471-1.2-5.785-21.573-4.483,1.2-4.539,5.366,1.075,4.006,4.494-5.211.091-.024Z" transform="translate(159.757 73.894)" fill="#21bdca"/>
    <g id="Group_3868" data-name="Group 3868" transform="translate(1336.968 257.435)">
      <path id="Path_18035" data-name="Path 18035" d="M1285.429,190.193l-101.464,27.186a5.846,5.846,0,0,0-4.132,7.148h0a5.845,5.845,0,0,0,7.154,4.126l101.453-27.187a5.834,5.834,0,1,0-3.011-11.273Z" transform="translate(-1179.636 -189.993)" fill="#fff"/>
    </g>
    <g id="Group_3869" data-name="Group 3869" transform="translate(1339.086 259.556)">
      <path id="Path_18036" data-name="Path 18036" d="M1285.714,191.994l-101.453,27.187a3.714,3.714,0,1,0,1.925,7.174l101.453-27.186a3.714,3.714,0,1,0-1.924-7.175Z" transform="translate(-1181.507 -191.867)" fill="#fff"/>
      <path id="Path_18037" data-name="Path 18037" d="M1285.714,191.994l-101.453,27.187a3.714,3.714,0,1,0,1.925,7.174l101.453-27.186a3.714,3.714,0,1,0-1.924-7.175Z" transform="translate(-1181.507 -191.867)" fill="rgba(221,224,227,0.41)"/>
    </g>
    <g id="Group_3870" data-name="Group 3870" transform="translate(1437.922 627.609)">
      <path id="Path_18038" data-name="Path 18038" d="M1399.2,517.193l-126.052,33.777a5.835,5.835,0,1,0,3.023,11.273l126.052-33.776a5.836,5.836,0,1,0-3.023-11.274Z" transform="translate(-1268.816 -516.993)" fill="#fff"/>
    </g>
    <g id="Group_3871" data-name="Group 3871" transform="translate(1440.494 629.851)">
      <path id="Path_18039" data-name="Path 18039" d="M1399,519.1l-125.157,33.537a3.714,3.714,0,1,0,1.924,7.174l125.157-33.536A3.714,3.714,0,1,0,1399,519.1Z" transform="translate(-1271.087 -518.974)" fill="#fff"/>
      <path id="Path_18040" data-name="Path 18040" d="M1399,519.1l-125.157,33.537a3.714,3.714,0,1,0,1.924,7.174l125.157-33.536A3.714,3.714,0,1,0,1399,519.1Z" transform="translate(-1271.087 -518.974)" fill="rgba(221,224,227,0.41)"/>
    </g>
    <g id="Group_3872" data-name="Group 3872" transform="translate(1443.186 653.052)">
      <path id="Path_18041" data-name="Path 18041" d="M1382.327,539.669l-104.532,28.009a5.846,5.846,0,0,0-4.132,7.148h0a5.844,5.844,0,0,0,7.154,4.126l104.532-28.01a5.829,5.829,0,0,0,4.12-7.146h0A5.828,5.828,0,0,0,1382.327,539.669Z" transform="translate(-1273.466 -539.469)" fill="#fff"/>
    </g>
    <g id="Group_3873" data-name="Group 3873" transform="translate(1445.373 655.189)">
      <path id="Path_18042" data-name="Path 18042" d="M1382.57,541.485l-104.418,27.979a3.714,3.714,0,1,0,1.925,7.174l104.418-27.979a3.714,3.714,0,1,0-1.925-7.174Z" transform="translate(-1275.397 -541.357)" fill="#fff"/>
      <path id="Path_18043" data-name="Path 18043" d="M1382.57,541.485l-104.418,27.979a3.714,3.714,0,1,0,1.925,7.174l104.418-27.979a3.714,3.714,0,1,0-1.925-7.174Z" transform="translate(-1275.397 -541.357)" fill="rgba(221,224,227,0.41)"/>
    </g>
    <g id="Group_3874" data-name="Group 3874" transform="translate(1331.693 247.644)">
      <path id="Path_18044" data-name="Path 18044" d="M1243.865,181.544l-64.56,17.3a5.844,5.844,0,0,0-4.132,7.146h0a5.845,5.845,0,0,0,7.154,4.126l64.56-17.3a5.836,5.836,0,1,0-3.023-11.274Z" transform="translate(-1174.976 -181.344)" fill="#fff"/>
    </g>
    <g id="Group_3875" data-name="Group 3875" transform="translate(1333.143 249.586)">
      <path id="Path_18045" data-name="Path 18045" d="M1244.918,183.187l-65.907,17.66a3.714,3.714,0,1,0,1.925,7.174l65.907-17.66a3.714,3.714,0,1,0-1.924-7.174Z" transform="translate(-1176.257 -183.059)" fill="#fff"/>
      <path id="Path_18046" data-name="Path 18046" d="M1244.918,183.187l-65.907,17.66a3.714,3.714,0,1,0,1.925,7.174l65.907-17.66a3.714,3.714,0,1,0-1.924-7.174Z" transform="translate(-1176.257 -183.059)" fill="rgba(221,224,227,0.41)"/>
    </g>
    <path id="Path_18047" data-name="Path 18047" d="M1554.1,408.614l-331.028,88.7.272,1.024,331.028-88.7Z" transform="translate(163.067 96.306)" fill="#fff"/>
    <path id="Path_18048" data-name="Path 18048" d="M1222.016,374.942c.589,1.748,2.389,2.486,4.607,1.89,2.377-.636,3.543-2.228,3.034-4.123-.4-1.5-1.472-2.1-3.656-2.04l-1.177.025c-1.392.031-2.026-.246-2.219-.974-.26-.937.4-1.76,1.63-2.09a1.975,1.975,0,0,1,2.524.967l1.517-.405c-.544-1.649-2.343-2.43-4.37-1.886-2.2.586-3.328,2.156-2.864,3.919.4,1.458,1.449,2.1,3.385,2.049l1.37-.034c1.415-.035,2.128.294,2.332,1.079.249.916-.487,1.82-1.743,2.155-1.336.359-2.434-.009-2.83-.946Zm7.992-9.394.51,1.923-1.2.321.328,1.193,1.2-.321L1232,373c.4,1.451,1.211,1.858,2.864,1.413a4.642,4.642,0,0,0,.792-.294l-.317-1.186a5.151,5.151,0,0,1-.555.187c-.747.2-1.166-.067-1.381-.88l-1.064-3.977,1.63-.439-.317-1.193-1.641.438-.509-1.922Zm9.249,7.771a2.631,2.631,0,0,0,1.958-1.8l.113-.032.283,1.069,1.438-.385-1.381-5.158c-.419-1.583-1.743-2.24-3.634-1.732-1.721.46-2.717,1.613-2.536,2.924l1.449-.387c.023-.593.509-1.06,1.347-1.283,1.019-.274,1.664.05,1.89.876l.181.659-2.015.674c-1.766.593-2.57,1.649-2.207,3A2.349,2.349,0,0,0,1239.256,373.319Zm.068-1.3c-.815.218-1.517-.034-1.7-.735s.181-1.181,1.211-1.529l1.811-.62.17.653A1.862,1.862,0,0,1,1239.324,372.016Zm5.569-.34,1.494-.4-1.211-4.5a1.845,1.845,0,0,1,1.449-2.308,4.956,4.956,0,0,1,.86-.139l-.385-1.4a4.049,4.049,0,0,0-.679.123,2.125,2.125,0,0,0-1.7,1.824l-.113.029-.306-1.145-1.438.385Zm3.792-11.134.509,1.922-1.2.323.328,1.193,1.2-.321,1.155,4.338c.4,1.451,1.211,1.858,2.864,1.413a4.65,4.65,0,0,0,.792-.294l-.317-1.186a5.411,5.411,0,0,1-.555.187c-.747.2-1.166-.068-1.381-.88l-1.064-3.977,1.63-.439-.317-1.194-1.641.439-.509-1.922Zm5.524-.884a.975.975,0,1,0-1.2-.684A.977.977,0,0,0,1254.211,359.659Zm1.63,9.083,1.494-.4-2.026-7.537-1.483.4Zm3.4-.91,1.494-.4-1.189-4.422a1.826,1.826,0,0,1,1.279-2.447c1.109-.3,1.8.174,2.128,1.423l1.223,4.526,1.483-.4-1.3-4.88c-.487-1.8-1.687-2.555-3.373-2.1a2.351,2.351,0,0,0-1.891,1.944l-.113.029-.317-1.193-1.438.385Zm12.2-.18c2.139-.573,3.192-2.025,2.739-3.74l-2.049-7.614-1.426.384.328,1.2-.125.032a2.705,2.705,0,0,0-2.728-.7c-1.936.517-2.728,2.36-2.117,4.644.6,2.263,2.2,3.436,4.132,2.918a2.627,2.627,0,0,0,1.992-1.9l.1-.029.4,1.45c.272,1.021-.306,1.828-1.54,2.161-1.007.271-1.743.078-2.015-.457l-1.528.409C1268.1,367.646,1269.55,368.157,1271.44,367.652Zm-1.155-4.221c-1.291.343-2.275-.441-2.683-1.982s.045-2.72,1.324-3.064,2.321.437,2.728,1.978S1271.565,363.088,1270.285,363.431Zm13.641-2.214c2.14-.573,3.136-1.986,2.672-3.748a2.47,2.47,0,0,0-2.909-1.811l-.034-.118a2.27,2.27,0,0,0,1.177-2.623c-.408-1.541-1.8-2.2-3.679-1.691l-4.019,1.079,2.683,10.016Zm-4.9-8.059,2.106-.565c1.155-.309,1.981.059,2.23,1.01.26.978-.317,1.683-1.687,2.052l-1.845.495Zm2,7.476-.883-3.3,2.162-.578c1.46-.392,2.377-.043,2.672,1.039s-.306,1.858-1.7,2.234Zm9.984-1.181a2.6,2.6,0,0,0,1.947-1.8l.125-.032.283,1.069,1.438-.385-1.381-5.158c-.419-1.583-1.743-2.239-3.645-1.732-1.709.46-2.706,1.613-2.524,2.924l1.449-.387c.011-.593.509-1.06,1.347-1.283,1.019-.274,1.664.05,1.891.876l.17.659-2.015.674c-1.766.593-2.57,1.649-2.208,3A2.361,2.361,0,0,0,1291.013,359.453Zm.057-1.3c-.8.218-1.505-.033-1.7-.735s.193-1.181,1.211-1.529l1.823-.62.17.653A1.862,1.862,0,0,1,1291.069,358.149Zm5.649-.358,1.494-.4-2.819-10.5-1.494.4Zm5.57-1.36a2.617,2.617,0,0,0,1.947-1.8l.125-.032.283,1.069,1.438-.385-1.381-5.158c-.43-1.583-1.743-2.24-3.645-1.732-1.709.46-2.717,1.612-2.524,2.924l1.438-.387c.023-.593.521-1.06,1.347-1.283,1.019-.274,1.675.05,1.9.876l.17.659-2.015.674c-1.766.593-2.57,1.649-2.207,3A2.361,2.361,0,0,0,1302.288,356.432Zm.057-1.3c-.8.217-1.506-.034-1.7-.735s.193-1.182,1.211-1.529l1.811-.62.181.653A1.862,1.862,0,0,1,1302.344,355.129Zm5.57-.34,1.494-.4-1.177-4.422a1.814,1.814,0,0,1,1.268-2.447c1.109-.3,1.8.174,2.14,1.423l1.211,4.526,1.494-.4-1.313-4.88c-.487-1.8-1.687-2.555-3.373-2.1a2.35,2.35,0,0,0-1.891,1.944l-.113.029-.317-1.193-1.438.385Zm13.267-9.037a3.077,3.077,0,0,0-3.917-1.7c-2.2.589-3.136,2.441-2.5,4.835.657,2.443,2.4,3.582,4.607,2.992a3.055,3.055,0,0,0,2.547-3.4l-1.449.389a1.708,1.708,0,0,1-1.449,1.741c-1.245.333-2.275-.468-2.728-2.133-.442-1.631.068-2.822,1.313-3.156a1.748,1.748,0,0,1,2.128.82Zm7.211,1.386a1.862,1.862,0,0,1-1.54,1.426,2.1,2.1,0,0,1-2.615-1.689l-.011-.069,5.332-1.431-.136-.514c-.634-2.359-2.287-3.456-4.392-2.892-2.128.571-3.068,2.468-2.434,4.862s2.377,3.546,4.539,2.966c1.732-.463,2.728-1.623,2.694-3.044Zm-3.045-3.952a1.919,1.919,0,0,1,2.4,1.521l-3.815,1.022A2.04,2.04,0,0,1,1325.347,343.186Z" transform="translate(162.785 87.488)" fill="#7c8896"/>
    <path id="Path_18049" data-name="Path 18049" d="M1237.545,408.36l1.336-.355-.543-2.014c3.226-1.1,5.253-3.539,4.426-6.6-.7-2.652-2.819-3.508-6.306-3.392l-.792.029-1.279-4.777a2.9,2.9,0,0,1,3.385,1.766l2.864-.766c-.883-2.82-3.623-4.1-6.905-3.467l-.555-2.039-1.324.355.543,2.039c-3.17,1.073-4.992,3.55-4.234,6.387.691,2.566,2.785,3.53,6.136,3.409l.724-.021,1.336,4.974c-1.936.319-3.1-.42-3.69-1.724l-2.864.767c.894,2.973,3.872,4.095,7.211,3.412Zm-6.487-13.87c-.294-1.08.362-2.241,2-2.892l1.2,4.483C1232.281,396.1,1231.341,395.559,1231.058,394.49Zm8.841,6c.328,1.228-.306,2.374-2.219,3.044l-1.257-4.666C1238.722,398.82,1239.582,399.3,1239.9,400.491Zm3.113-8.8,2.966-.8a3.266,3.266,0,0,1,2.536-4.009,2.821,2.821,0,0,1,3.656,1.944c.351,1.326.068,2.348-1.63,5.239l-4.607,7.842.577,2.162,12.452-3.337-.69-2.591-8.264,2.215-.023-.062,2.875-4.877c2.287-3.875,2.909-5.518,2.343-7.617-.759-2.848-3.758-4.426-7.37-3.458C1244.144,385.337,1242.118,388.392,1243.012,391.7Zm24.474,7.144c3.928-1.053,5.977-4.313,4.992-7.985a5.824,5.824,0,0,0-7.37-4.277,4.771,4.771,0,0,0-3.509,2.967l-.068.017-.94-5.473,8.354-2.238-.7-2.59-10.879,2.915,1.913,10.53,2.762-.74a3.846,3.846,0,0,1,2.887-2.787,3.668,3.668,0,1,1,1.891,7.089,3.387,3.387,0,0,1-4.234-1.841l-2.966.8C1260.593,398.329,1263.83,399.816,1267.487,398.84Zm11.264.612-.124-7.113-2.989.8.77,6.942Zm9.7-6.233c4.37-1.168,6-5.436,4.483-11.11s-5.083-8.485-9.418-7.322-6.022,5.405-4.505,11.066C1280.528,391.539,1284.082,394.391,1288.452,393.219Zm-.691-2.591c-2.4.645-4.438-1.442-5.57-5.642-1.1-4.126-.362-6.97,2.026-7.608,2.366-.635,4.415,1.45,5.524,5.6C1290.863,387.177,1290.161,389.986,1287.761,390.628Zm16.233-1.571c4.358-1.168,5.989-5.436,4.471-11.11s-5.083-8.485-9.418-7.323-6.022,5.407-4.505,11.067C1296.071,387.377,1299.625,390.228,1303.995,389.057Zm-.7-2.591c-2.4.645-4.438-1.442-5.558-5.642-1.109-4.126-.374-6.97,2.015-7.608,2.366-.635,4.415,1.449,5.524,5.6C1306.406,383.015,1305.693,385.823,1303.293,386.465Zm9.917-.259,3.317-.889,3.532-17.109-.713-2.641-12.328,3.3.7,2.591,9.2-2.468.022.061Zm12.135-3.11a1.83,1.83,0,1,0-2.241-1.294A1.811,1.811,0,0,0,1325.345,383.1Zm10.505-2.575c4.505-1.208,6.26-5.444,4.687-11.351-1.766-6.569-5.943-8.082-9.577-7.107-3.837,1.027-5.932,4.364-4.958,7.975a5.87,5.87,0,0,0,7.438,4.232,5.118,5.118,0,0,0,4.03-4.16l.045-.012c1.109,4.126.453,7.1-2.332,7.851a3.227,3.227,0,0,1-3.826-1.264l-3.147.842C1329.454,380.194,1332.533,381.41,1335.85,380.521Zm-2.332-8.9a3.508,3.508,0,0,1-4.449-2.533,3.678,3.678,0,0,1,7.12-1.841A3.531,3.531,0,0,1,1333.518,371.617Zm18.045,4.692c4.053-1.086,6.351-3.964,5.536-7a4.842,4.842,0,0,0-5.23-3.455l-.011-.074a4.313,4.313,0,0,0,2.287-4.841c-.736-2.751-3.86-4.046-7.517-3.064s-5.728,3.679-4.992,6.405a4.3,4.3,0,0,0,4.426,3.053l.011.074a4.812,4.812,0,0,0-2.785,5.6C1344.091,376.034,1347.5,377.4,1351.563,376.309Zm-2.875-10.758c-1.845.494-3.419-.241-3.838-1.789s.577-3,2.423-3.491c1.823-.49,3.419.241,3.838,1.813C1351.529,363.632,1350.51,365.061,1348.687,365.551Zm2.23,8.339c-2.128.569-3.951-.269-4.415-1.989s.7-3.361,2.83-3.93,3.951.258,4.415,1.989S1353.046,373.32,1350.917,373.89Z" transform="translate(163.716 89.564)" fill="#697787"/>
    <path id="Path_18050" data-name="Path 18050" d="M1242.664,443.868l-2.683-10.015-1.551.417,2.683,10.015Zm2.06-.55,1.494-.4-1.189-4.422a1.819,1.819,0,0,1,1.279-2.447c1.1-.3,1.8.173,2.128,1.423l1.211,4.526,1.494-.4-1.3-4.879c-.487-1.8-1.687-2.555-3.373-2.1a2.352,2.352,0,0,0-1.9,1.945l-.1.029-.328-1.194-1.438.385Zm6.237-11.789.509,1.923-1.2.321.328,1.194,1.2-.323,1.155,4.338c.4,1.451,1.211,1.858,2.864,1.413a4.742,4.742,0,0,0,.792-.293l-.317-1.187a5.1,5.1,0,0,1-.555.187c-.747.2-1.166-.067-1.381-.88l-1.075-3.977,1.641-.439-.317-1.193-1.641.439-.51-1.923Zm11.456,4.881a1.849,1.849,0,0,1-1.54,1.426,2.109,2.109,0,0,1-2.615-1.689l-.011-.07,5.332-1.43-.136-.514c-.634-2.359-2.287-3.456-4.392-2.892-2.128.571-3.068,2.468-2.422,4.862s2.366,3.546,4.528,2.966c1.732-.464,2.728-1.623,2.694-3.044Zm-3.045-3.952a1.93,1.93,0,0,1,2.411,1.521L1257.958,435A2.04,2.04,0,0,1,1259.373,432.459Zm6.622,5.159,1.494-.4-1.211-4.5a1.852,1.852,0,0,1,1.46-2.308,4.858,4.858,0,0,1,.849-.139l-.374-1.4a3.675,3.675,0,0,0-.679.123,2.112,2.112,0,0,0-1.7,1.824l-.113.029-.306-1.145-1.438.385Zm9.634-4.744a1.863,1.863,0,0,1-1.551,1.426,2.094,2.094,0,0,1-2.6-1.689l-.023-.069,5.343-1.431-.147-.514c-.623-2.359-2.286-3.456-4.381-2.892-2.139.571-3.079,2.468-2.434,4.862s2.366,3.546,4.528,2.966a3.189,3.189,0,0,0,2.706-3.044Zm-3.045-3.952a1.923,1.923,0,0,1,2.4,1.521l-3.815,1.022A2.024,2.024,0,0,1,1272.583,428.921Zm4.992-.222c.294,1.117,1.132,1.577,2.66,1.526l1.4-.042c.8-.021,1.234.189,1.37.661.158.617-.385,1.224-1.313,1.474a1.591,1.591,0,0,1-1.9-.517l-1.494.4c.487,1.277,1.879,1.774,3.679,1.293s2.875-1.79,2.49-3.192c-.294-1.1-1.132-1.534-2.66-1.482l-1.324.045c-.872.025-1.336-.164-1.46-.629-.159-.61.362-1.19,1.188-1.413a1.447,1.447,0,0,1,1.777.521l1.426-.383c-.487-1.266-1.811-1.759-3.509-1.3S1277.225,427.387,1277.576,428.7Zm6.951-6.162.509,1.922-1.2.322.317,1.194,1.2-.322,1.166,4.338c.385,1.45,1.2,1.857,2.864,1.412a5.154,5.154,0,0,0,.792-.293l-.317-1.187a4.589,4.589,0,0,1-.566.188c-.736.2-1.166-.068-1.381-.88l-1.064-3.978,1.642-.438-.317-1.194-1.641.439-.521-1.923Zm16.9,4.151-4.8,1.287-.838-3.117,4.551-1.218-.351-1.292-4.551,1.218-.781-2.929,4.8-1.287-.351-1.339-6.362,1.7,2.683,10.015,6.362-1.7Zm4.268.424a2.633,2.633,0,0,0,1.958-1.8l.113-.032.283,1.07,1.438-.385-1.381-5.158c-.419-1.583-1.743-2.24-3.634-1.732-1.721.46-2.717,1.612-2.536,2.923l1.449-.386c.023-.593.509-1.06,1.347-1.283,1.019-.274,1.664.05,1.891.876l.181.659-2.015.674c-1.766.593-2.57,1.648-2.208,3A2.349,2.349,0,0,0,1305.7,427.113Zm.068-1.3c-.815.217-1.517-.034-1.7-.735s.181-1.182,1.211-1.529l1.811-.62.17.653A1.862,1.862,0,0,1,1305.763,425.81Zm5.569-.34,1.494-.4-1.211-4.5a1.845,1.845,0,0,1,1.449-2.308,4.848,4.848,0,0,1,.86-.139l-.385-1.4a4.042,4.042,0,0,0-.679.123,2.125,2.125,0,0,0-1.7,1.824l-.113.029-.306-1.146-1.438.386Zm5.513-1.478,1.494-.4-1.189-4.422a1.826,1.826,0,0,1,1.279-2.447c1.109-.3,1.8.173,2.128,1.423l1.223,4.526,1.483-.4-1.3-4.879c-.487-1.8-1.687-2.555-3.373-2.1a2.353,2.353,0,0,0-1.891,1.945l-.113.029-.317-1.194-1.438.385Zm12.656-5.555a1.862,1.862,0,0,1-1.54,1.425,2.1,2.1,0,0,1-2.615-1.689l-.023-.069,5.343-1.43-.136-.514c-.634-2.36-2.287-3.456-4.392-2.893-2.128.572-3.079,2.468-2.434,4.862s2.377,3.547,4.539,2.966c1.732-.463,2.728-1.623,2.694-3.044Zm-3.045-3.953a1.92,1.92,0,0,1,2.4,1.521l-3.815,1.023A2.041,2.041,0,0,1,1326.457,414.484Zm9.419,4.544a2.7,2.7,0,0,0,2.015-1.955l.125-.031.317,1.193,1.426-.383-2.807-10.5-1.494.4,1.109,4.151-.1.029a2.605,2.605,0,0,0-2.683-.7c-1.9.512-2.728,2.36-2.094,4.734S1333.951,419.543,1335.875,419.028Zm-1.325-6.63c1.245-.335,2.309.469,2.74,2.078s-.079,2.826-1.336,3.162-2.287-.438-2.717-2.076S1333.294,412.734,1334.551,412.4Z" transform="translate(165.095 96.14)" fill="#7c8896"/>
    <path id="Path_18051" data-name="Path 18051" d="M1255.4,474.549l1.324-.355-.532-2.014c3.226-1.1,5.253-3.54,4.426-6.6-.713-2.652-2.819-3.508-6.305-3.39l-.792.028-1.279-4.777a2.9,2.9,0,0,1,3.385,1.766l2.864-.766c-.883-2.82-3.623-4.1-6.905-3.467l-.555-2.039-1.325.355.543,2.039c-3.17,1.074-4.992,3.55-4.234,6.387.69,2.566,2.785,3.531,6.136,3.41l.724-.021,1.336,4.973c-1.936.319-3.1-.42-3.69-1.723l-2.864.766c.894,2.973,3.872,4.095,7.211,3.413Zm-6.487-13.87c-.294-1.081.362-2.243,2-2.892l1.2,4.482C1250.141,462.287,1249.2,461.747,1248.918,460.68Zm8.841,6c.328,1.228-.306,2.374-2.219,3.044l-1.257-4.666C1256.582,465.01,1257.442,465.488,1257.759,466.679Zm3.113-8.795,2.966-.8a3.267,3.267,0,0,1,2.536-4.009,2.806,2.806,0,0,1,3.645,1.944c.362,1.326.079,2.349-1.619,5.239l-4.608,7.843.577,2.161,12.452-3.336-.69-2.591-8.275,2.214-.011-.061,2.875-4.878c2.287-3.875,2.909-5.516,2.343-7.616-.759-2.849-3.758-4.427-7.37-3.46C1262,451.525,1259.978,454.581,1260.872,457.885Zm20.965,11.714-.125-7.113-2.989.8.77,6.942Zm9.883-6.278c3.826-1.027,5.921-4.365,4.958-7.963a5.808,5.808,0,0,0-7.37-4.253,5.272,5.272,0,0,0-4.109,4.168l-.057.016c-1.1-4.193-.351-7.117,2.355-7.844a3.249,3.249,0,0,1,3.792,1.327l3.147-.842c-1.279-2.711-4.324-3.949-7.619-3.067-4.505,1.207-6.26,5.455-4.675,11.362C1283.83,462.512,1287.826,464.363,1291.72,463.321Zm-.747-2.566a3.63,3.63,0,0,1-4.483-2.6,3.525,3.525,0,0,1,2.649-4.383,3.487,3.487,0,0,1,4.449,2.546A3.619,3.619,0,0,1,1290.973,460.754Zm5.524-12.416,2.966-.8a3.266,3.266,0,0,1,2.536-4.009,2.822,2.822,0,0,1,3.657,1.943c.351,1.327.068,2.349-1.63,5.239l-4.607,7.843.577,2.162,12.452-3.337-.691-2.591-8.264,2.214-.023-.061,2.875-4.878c2.287-3.874,2.909-5.516,2.343-7.616-.759-2.848-3.758-4.426-7.37-3.46C1297.629,441.979,1295.6,445.035,1296.5,448.338Zm24.135,7.233c4.505-1.208,6.271-5.444,4.687-11.35-1.755-6.57-5.943-8.082-9.577-7.108-3.826,1.027-5.92,4.365-4.958,7.975a5.87,5.87,0,0,0,7.438,4.233,5.121,5.121,0,0,0,4.03-4.16l.057-.014c1.1,4.126.453,7.1-2.332,7.851a3.226,3.226,0,0,1-3.826-1.264l-3.147.842C1314.248,455.244,1317.315,456.459,1320.632,455.571Zm-2.332-8.9a3.5,3.5,0,0,1-4.437-2.535,3.672,3.672,0,0,1,7.109-1.841A3.524,3.524,0,0,1,1318.3,446.667Zm12.86,5.846a1.831,1.831,0,0,0-.951-3.536,1.831,1.831,0,0,0,.951,3.536Zm4.336-1.306,3.317-.889,3.532-17.109-.7-2.641-12.328,3.3.69,2.591L1339.22,434l.011.061Zm14.626-12.433,2.094-.563c2.275-.609,3.939.078,4.426,1.973.442,1.621-.645,3.135-2.672,3.678-2.094.563-3.792-.115-4.347-1.691l-3.034.813c1,3.088,4.2,4.509,8.071,3.469s6.068-3.913,5.219-7.057c-.657-2.468-2.807-3.576-5.49-3.121l-.023-.061a4.381,4.381,0,0,0,2.615-5.147c-.736-2.738-3.611-4.022-7.279-3.038-3.566.954-5.513,3.636-4.879,6.86l2.954-.79c-.34-1.7.736-3.053,2.592-3.552,1.958-.524,3.26.207,3.679,1.766s-.577,3.038-2.536,3.561l-2.026.543Z" transform="translate(166.074 98.826)" fill="#697787"/>
    <g id="Group_3876" data-name="Group 3876" transform="translate(1422.153 550.105)">
      <path id="Path_18052" data-name="Path 18052" d="M1454.966,448.729l-195.751,52.45a5.844,5.844,0,0,0-4.132,7.146h0a5.844,5.844,0,0,0,7.154,4.126L1457.977,460a5.835,5.835,0,1,0-3.011-11.274Z" transform="translate(-1254.886 -448.529)" fill="#fff"/>
    </g>
    <g id="Group_3877" data-name="Group 3877" transform="translate(1425.992 552.685)">
      <path id="Path_18053" data-name="Path 18053" d="M1453.34,450.936l-192.309,51.531a3.714,3.714,0,1,0,1.924,7.174l192.309-51.531a3.714,3.714,0,1,0-1.925-7.174Z" transform="translate(-1258.277 -450.808)" fill="#fff"/>
      <path id="Path_18054" data-name="Path 18054" d="M1453.34,450.936l-192.309,51.531a3.714,3.714,0,1,0,1.924,7.174l192.309-51.531a3.714,3.714,0,1,0-1.925-7.174Z" transform="translate(-1258.277 -450.808)" fill="rgba(221,224,227,0.41)"/>
    </g>
    <path id="Path_18055" data-name="Path 18055" d="M1516.558,268.491l-331.028,88.7.272,1.024,331.028-88.7Z" transform="translate(158.11 77.806)" fill="#fff"/>
    <path id="Path_18056" data-name="Path 18056" d="M1517.746,270.481,1180.99,360.715l.272,1.026,336.768-90.235Z" transform="translate(157.511 78.068)" fill="#cbd3df" opacity="0.2"/>
    <path id="Path_18057" data-name="Path 18057" d="M1567.281,455.293l-336.8,90.244.272,1.026,336.8-90.246Z" transform="translate(164.045 102.469)" fill="#cbd3df" opacity="0.2"/>
    <path id="Path_18058" data-name="Path 18058" d="M1430.762,199.456a35.092,35.092,0,1,0-42.972-24.814A35.083,35.083,0,0,0,1430.762,199.456Z" transform="translate(184.656 59.581)" fill="#fff" stroke="#dde0e3" stroke-width="4" opacity="0.4"/>
    <path id="Path_18059" data-name="Path 18059" d="M1409.163,172.4l2.162-.578L1408.02,159.5l-2.185.584-2.615,3.127.543,2.024,2.6-3.041.057-.014Zm9.441-2.265c3.034-.813,4.166-3.782,3.113-7.728s-3.532-5.9-6.543-5.094c-3.034.811-4.2,3.761-3.147,7.7C1413.091,168.969,1415.559,170.954,1418.6,170.139Zm-.487-1.8c-1.664.449-3.079-1-3.872-3.925-.77-2.87-.249-4.848,1.4-5.292s3.079,1.009,3.849,3.9C1420.28,165.935,1419.793,167.889,1418.118,168.335Zm7.154-7a3.223,3.223,0,0,0-1.653-6.2c-1.7.453-2.5,1.943-1.992,3.856C1422.136,160.88,1423.574,161.793,1425.272,161.337Zm2.457,6.09,5.14-14.588-1.687.451-5.128,14.588Zm-2.8-7.38c-.759.2-1.438-.31-1.755-1.473-.317-1.178.034-1.939.781-2.141s1.438.285,1.755,1.464C1426.019,159.06,1425.691,159.844,1424.932,160.048Zm10.369,5.525c1.7-.455,2.479-1.966,1.981-3.862s-1.947-2.793-3.645-2.34a3.225,3.225,0,0,0,1.664,6.2Zm-.351-1.289c-.747.2-1.438-.309-1.755-1.471-.317-1.178.034-1.943.792-2.143s1.426.284,1.743,1.464C1436.049,163.3,1435.709,164.082,1434.951,164.284Z" transform="translate(186.852 62.536)" fill="#697787"/>
    <path id="Path_18060" data-name="Path 18060" d="M1037.246,237.258a33.958,33.958,0,0,1,24.022-41.593L1145.853,173l137.7,513.925-84.585,22.665a33.962,33.962,0,0,1-41.591-24.014Z" transform="translate(138.379 65.198)" fill="#274769" opacity="0.08"/>
    <g id="Group_3879" data-name="Group 3879" transform="translate(1027.99 165.5)">
      <g transform="matrix(1, 0, 0, 1, -204.84, -30.62)" filter="url(#Path_18061)">
        <path id="Path_18061-2" data-name="Path 18061" d="M1045.793,109.247,916.766,143.821a13.585,13.585,0,0,0-9.605,16.637l46,171.672a13.586,13.586,0,0,0,16.637,9.606l129.032-34.573a13.578,13.578,0,0,0,9.6-16.637l-45.994-171.672A13.592,13.592,0,0,0,1045.793,109.247Z" transform="translate(-701.85 -78.16)" fill="#fff"/>
      </g>
      <path id="Path_18062" data-name="Path 18062" d="M982.334,256.02l-4.065,1.089-.706-2.638,3.847-1.03-.292-1.092-3.847,1.03-.665-2.478,4.064-1.089-.3-1.133-5.379,1.441,2.271,8.474,5.379-1.441Zm3.615.359a2.223,2.223,0,0,0,1.651-1.525l.1-.026.242.9,1.216-.326-1.169-4.364c-.359-1.339-1.477-1.9-3.08-1.466-1.451.389-2.3,1.365-2.138,2.475l1.222-.327c.017-.5.433-.9,1.138-1.086.864-.232,1.415.042,1.6.741l.149.558-1.7.569c-1.5.5-2.176,1.395-1.868,2.54A1.994,1.994,0,0,0,985.949,256.379Zm.051-1.1c-.687.185-1.279-.028-1.438-.621s.16-1,1.024-1.3l1.534-.524.148.552A1.576,1.576,0,0,1,986,255.276Zm3.336-4.841c.254.945.962,1.335,2.254,1.292l1.186-.035c.68-.019,1.049.16,1.157.558.139.523-.32,1.037-1.107,1.247a1.345,1.345,0,0,1-1.61-.437l-1.262.338c.409,1.08,1.585,1.5,3.106,1.094s2.434-1.515,2.116-2.7c-.249-.928-.959-1.3-2.25-1.254l-1.129.039c-.737.021-1.126-.139-1.232-.532-.138-.517.3-1.008,1.008-1.2a1.225,1.225,0,0,1,1.5.44l1.21-.324c-.42-1.072-1.538-1.49-2.977-1.1S989.038,249.326,989.336,250.436Zm6.259-4.811a.824.824,0,1,0-1.012-.58A.827.827,0,0,0,995.595,245.625Zm1.386,7.685,1.257-.336-1.709-6.379-1.257.337Zm6.605-3.6a1.565,1.565,0,0,1-1.305,1.207,1.777,1.777,0,0,1-2.209-1.43l-.016-.059,4.515-1.21-.113-.434c-.532-2-1.937-2.925-3.716-2.449-1.8.483-2.6,2.089-2.057,4.115s2.006,3,3.839,2.509a2.7,2.7,0,0,0,2.286-2.575Zm-2.575-3.344a1.627,1.627,0,0,1,2.032,1.287l-3.23.865A1.72,1.72,0,0,1,1001.01,246.364Zm4.228-.188c.249.945.962,1.335,2.253,1.29l1.189-.034c.679-.019,1.042.159,1.155.558.136.523-.328,1.037-1.109,1.247a1.339,1.339,0,0,1-1.607-.438l-1.268.338c.408,1.08,1.585,1.5,3.113,1.094s2.434-1.514,2.117-2.7c-.249-.928-.962-1.3-2.253-1.254l-1.132.038c-.736.02-1.121-.139-1.234-.533-.136-.516.306-1.006,1.008-1.2a1.227,1.227,0,0,1,1.506.441l1.211-.325c-.419-1.071-1.54-1.489-2.977-1.1S1004.933,245.065,1005.238,246.176Zm5.875-5.214.441,1.627-1.019.273.272,1.01,1.019-.272.974,3.67c.328,1.227,1.019,1.571,2.423,1.2a4.606,4.606,0,0,0,.679-.249l-.272-1a4.409,4.409,0,0,1-.475.158c-.634.169-.985-.058-1.166-.745l-.906-3.364,1.381-.371-.26-1.011-1.392.371-.43-1.627Zm12.339-1.536.079-.023,3.521,5.849,1.234-.332.023-9.089-1.37.367.215,7.005-.079.023-3.543-6.113-1.223.327V244.5l-.09.021-3.317-6.173-1.37.367,4.551,7.863,1.245-.334Zm9.486,4.364a2.2,2.2,0,0,0,1.641-1.525l.1-.027.249.9,1.211-.326-1.166-4.363c-.362-1.339-1.483-1.9-3.079-1.466-1.46.388-2.3,1.364-2.14,2.473l1.223-.327c.011-.5.43-.9,1.132-1.086.86-.231,1.415.043,1.608.741l.147.558-1.709.569c-1.494.5-2.174,1.4-1.868,2.54A2,2,0,0,0,1032.939,243.79Zm.045-1.1c-.691.183-1.279-.029-1.438-.623s.159-1,1.03-1.294l1.528-.524.147.551A1.573,1.573,0,0,1,1032.984,242.687Zm5.762,1.913c1.3-.35,1.777-1,1.913-2.678l.589-7.311-1.336.359-.226,5.538-.1.026-2.966-4.68-1.381.369,4.03,5.776-.011.353a1.133,1.133,0,0,1-.906,1.238,2.9,2.9,0,0,1-.419.087l.283,1.034C1038.339,244.7,1038.633,244.628,1038.746,244.6Zm-49.08,20.86.436,1.627-1.015.273.271,1.01,1.015-.272.984,3.67c.329,1.228,1.019,1.571,2.422,1.2a4.142,4.142,0,0,0,.67-.249l-.269-1a4.387,4.387,0,0,1-.473.159c-.628.169-.985-.057-1.169-.744l-.9-3.366,1.386-.371-.271-1.011-1.386.372-.436-1.628Zm8.7,6.363c1.868-.5,2.677-2.059,2.125-4.121s-2.038-3-3.9-2.505-2.682,2.066-2.132,4.122S996.491,272.325,998.365,271.823Zm-.288-1.075c-1.1.294-1.935-.357-2.315-1.778s.016-2.408,1.114-2.7,1.935.362,2.316,1.784S999.169,270.456,998.077,270.748Zm9.063-1.407-2.275-8.476-1.313.353,2.264,8.474Zm1.732-.466,1.268-.338-1.007-3.741a1.539,1.539,0,0,1,1.087-2.07c.928-.25,1.517.147,1.8,1.2l1.03,3.83,1.257-.338-1.109-4.129a2.142,2.142,0,0,0-2.841-1.78,1.994,1.994,0,0,0-1.607,1.645l-.091.025-.272-1.01-1.223.326Zm10.471-9.64-1.347.359-.215,5.511-.1.027-2.955-4.659-1.347.361,4.007,5.76,1.359-.363Zm6.237,3.333a1.581,1.581,0,0,1-1.313,1.207,1.777,1.777,0,0,1-2.207-1.429l-.011-.059,4.517-1.21-.125-.435c-.532-2-1.924-2.925-3.713-2.447s-2.592,2.087-2.049,4.114,2,3,3.838,2.509a2.685,2.685,0,0,0,2.275-2.574ZM1023,259.222a1.63,1.63,0,0,1,2.038,1.287l-3.237.866A1.727,1.727,0,0,1,1023,259.222Zm4.222-.188c.26.945.962,1.335,2.253,1.292l1.189-.035c.679-.019,1.053.16,1.155.558.147.523-.317,1.037-1.1,1.247a1.356,1.356,0,0,1-1.619-.437l-1.257.338c.408,1.08,1.585,1.5,3.1,1.094s2.434-1.515,2.117-2.7c-.249-.928-.962-1.3-2.253-1.254l-1.121.038c-.736.022-1.132-.139-1.234-.532-.136-.517.306-1.008,1.007-1.2a1.232,1.232,0,0,1,1.506.44l1.211-.324c-.419-1.072-1.54-1.49-2.977-1.1S1026.928,257.925,1027.222,259.035Zm5.886-5.214.43,1.627-1.019.273.272,1.01,1.019-.272.985,3.67c.328,1.228,1.019,1.571,2.422,1.2a3.927,3.927,0,0,0,.668-.249l-.272-1a3.982,3.982,0,0,1-.464.158c-.634.169-.985-.057-1.177-.744l-.894-3.366,1.381-.371-.272-1.01-1.381.371-.441-1.628Z" transform="translate(-897.678 -92.168)" fill="#152b43" opacity="0.92"/>
      <path id="Path_18063" data-name="Path 18063" d="M998.226,178.27l2.347,8.747a2.231,2.231,0,0,0,1.053,1.375,2.269,2.269,0,0,0,1.721.226l9.837-2.638-3.521-13.121-9.836,2.636a2.265,2.265,0,0,0-1.6,2.773Zm6.558-1.758a4.526,4.526,0,0,1,5.094,6.638,4.477,4.477,0,0,1-1.913,1.8,4.539,4.539,0,0,1-4.992-.657,4.62,4.62,0,0,1-1.392-2.232,4.529,4.529,0,0,1,3.2-5.546Z" transform="translate(-894.62 -100.321)" fill="#274769"/>
      <path id="Path_18064" data-name="Path 18064" d="M1007.883,192.054a5.433,5.433,0,0,1-6.653-3.842l-1.876-7a5.435,5.435,0,0,1,3.843-6.655l10.278-2.754-.94-3.5a5.427,5.427,0,0,0-6.656-3.842l-36.86,9.878A5.434,5.434,0,0,0,965.176,181l6.564,24.493a5.432,5.432,0,0,0,6.655,3.842l36.869-9.877a5.438,5.438,0,0,0,3.838-6.655l-.94-3.5Z" transform="translate(-898.997 -101.454)" fill="#274769"/>
      <path id="Path_18065" data-name="Path 18065" d="M1005.477,181.177a1.132,1.132,0,1,0-1.392-.8A1.14,1.14,0,0,0,1005.477,181.177Z" transform="translate(-893.841 -99.517)" fill="#274769"/>
      <g id="Group_3878" data-name="Group 3878" transform="translate(69.19 51.12)">
        <path id="Path_18066" data-name="Path 18066" d="M978.712,169.563a1.1,1.1,0,0,1,.067-1.527l14.487-13.781a1.163,1.163,0,0,1,1.819.293l14.928,28.2a1.081,1.081,0,0,1-.125,1.211l-8.1,9.849a1.164,1.164,0,0,1-1.764.023Z" transform="translate(-966.413 -153.939)" fill="#21cab7"/>
        <path id="Path_18067" data-name="Path 18067" d="M978.712,169.563a1.1,1.1,0,0,1,.067-1.527l14.487-13.781a1.163,1.163,0,0,1,1.819.293l14.928,28.2a1.081,1.081,0,0,1-.125,1.211l-8.1,9.849a1.164,1.164,0,0,1-1.764.023Z" transform="translate(-966.413 -153.939)" fill="rgba(25,51,79,0.12)"/>
        <path id="Path_18068" data-name="Path 18068" d="M982.089,157.687l-13.956,23.254a2.172,2.172,0,0,0,.814,3.04L997.626,199.9a2.359,2.359,0,0,0,3.145-.842l13.961-23.253a2.187,2.187,0,0,0-.815-3.041l-28.683-15.915A2.358,2.358,0,0,0,982.089,157.687Z" transform="translate(-967.815 -153.594)" fill="#21cab7"/>
      </g>
    </g>
    <g id="Group_3880" data-name="Group 3880" transform="translate(832.149 450.77)">
      <g transform="matrix(1, 0, 0, 1, -9, -315.89)" filter="url(#Path_18069)">
        <path id="Path_18069-2" data-name="Path 18069" d="M885.915,361.245,743.766,399.335a13.584,13.584,0,0,0-9.605,16.636L786.02,609.513a13.584,13.584,0,0,0,16.637,9.606L944.806,581.03a13.583,13.583,0,0,0,9.605-16.637L902.552,370.851A13.585,13.585,0,0,0,885.915,361.245Z" transform="translate(-724.69 -44.89)" fill="#fff"/>
      </g>
      <path id="Path_18070" data-name="Path 18070" d="M809.648,522.13l1.21-.325-5.885-8.332-1.141.306-.931,10.159,1.211-.325.22-2.895,3.678-.986Zm-4.9-7,.1-.027,2.554,3.738-3,.8Zm11.371.126a2.806,2.806,0,0,0-3.495-1.46c-1.935.518-2.79,2.245-2.214,4.4.589,2.2,2.2,3.269,4.136,2.751a2.762,2.762,0,0,0,2.3-2.978l-1.115.3a1.72,1.72,0,0,1-1.457,1.688c-1.229.329-2.3-.47-2.723-2.065-.419-1.563.1-2.767,1.339-3.1a1.774,1.774,0,0,1,2.115.766Zm7.081-1.9a2.807,2.807,0,0,0-3.5-1.46c-1.935.518-2.791,2.245-2.214,4.4.589,2.2,2.2,3.269,4.136,2.751a2.762,2.762,0,0,0,2.3-2.978l-1.115.3a1.72,1.72,0,0,1-1.457,1.688c-1.229.329-2.3-.47-2.722-2.065-.419-1.563.1-2.766,1.339-3.1a1.774,1.774,0,0,1,2.115.766Zm6.745,1.414a1.853,1.853,0,0,1-1.531,1.412,2.1,2.1,0,0,1-2.59-1.7l-.014-.051,4.965-1.33-.113-.423c-.575-2.146-2.065-3.169-3.929-2.668-1.9.507-2.736,2.244-2.154,4.415s2.154,3.248,4.07,2.735a2.855,2.855,0,0,0,2.4-2.689ZM826.984,511a1.925,1.925,0,0,1,2.4,1.535l-3.806,1.019A2.037,2.037,0,0,1,826.984,511Zm4.6-.119c.267,1,1.006,1.4,2.385,1.365l1.262-.029c.784-.018,1.229.207,1.356.68.17.635-.378,1.255-1.306,1.5a1.576,1.576,0,0,1-1.877-.521l-1.134.3c.429,1.114,1.683,1.568,3.222,1.156,1.569-.421,2.539-1.594,2.208-2.831-.266-.993-1.045-1.388-2.429-1.354l-1.132.029c-.867.019-1.33-.173-1.458-.646-.164-.616.365-1.2,1.185-1.423a1.458,1.458,0,0,1,1.764.508l1.089-.291c-.452-1.095-1.649-1.543-3.1-1.155C832.15,508.567,831.273,509.729,831.581,510.876Zm6.477-1.737c.268,1,1.006,1.4,2.385,1.366l1.262-.029c.785-.018,1.229.206,1.356.68.171.634-.377,1.255-1.306,1.5a1.576,1.576,0,0,1-1.877-.521l-1.134.3c.429,1.115,1.683,1.568,3.222,1.156,1.569-.42,2.539-1.594,2.207-2.83-.266-.993-1.045-1.389-2.429-1.354l-1.132.028c-.867.019-1.33-.172-1.458-.646-.164-.615.364-1.2,1.185-1.423a1.457,1.457,0,0,1,1.764.509l1.089-.292c-.451-1.094-1.649-1.542-3.1-1.155C838.628,506.832,837.752,507.993,838.059,509.14Zm17.7.634,1.211-.325-5.885-8.332-1.141.306-.932,10.159,1.211-.325.22-2.895,3.678-.986Zm-4.9-7,.1-.027,2.554,3.738-3,.8Zm11.371.126a2.807,2.807,0,0,0-3.5-1.46c-1.935.518-2.79,2.245-2.213,4.4.589,2.2,2.2,3.269,4.136,2.751a2.762,2.762,0,0,0,2.3-2.978l-1.114.3a1.721,1.721,0,0,1-1.457,1.688c-1.231.329-2.3-.47-2.724-2.065-.419-1.563.1-2.766,1.34-3.1a1.772,1.772,0,0,1,2.114.766Zm2.649,4.426,1.1-.294-1.147-4.28a1.752,1.752,0,0,1,1.364-2.164,4.426,4.426,0,0,1,.722-.125l-.3-1.1a5.229,5.229,0,0,0-.56.115,2,2,0,0,0-1.607,1.661l-.1.027-.275-1.026-1.05.282Zm7.414-1.855c1.968-.528,2.82-2.212,2.227-4.429s-2.176-3.249-4.142-2.721-2.822,2.2-2.227,4.427S870.332,506,872.3,505.473Zm-.266-.993c-1.307.35-2.3-.4-2.736-2.035s.045-2.779,1.353-3.129,2.3.394,2.735,2.034S873.339,504.13,872.032,504.48Zm3.381-5.349c.267,1,1.006,1.4,2.384,1.365l1.263-.029c.784-.017,1.229.207,1.356.68.17.635-.378,1.255-1.307,1.5a1.574,1.574,0,0,1-1.876-.521l-1.134.3c.429,1.114,1.683,1.568,3.221,1.156,1.57-.421,2.54-1.594,2.209-2.831-.266-.993-1.045-1.388-2.429-1.354l-1.133.029c-.866.019-1.33-.173-1.457-.646-.165-.616.365-1.2,1.184-1.423a1.455,1.455,0,0,1,1.764.509l1.09-.292c-.452-1.095-1.649-1.543-3.1-1.155C875.982,496.822,875.105,497.984,875.413,499.132Zm6.477-1.737c.267,1,1.006,1.4,2.384,1.366l1.263-.029c.784-.018,1.229.206,1.356.68.17.634-.378,1.255-1.306,1.5a1.576,1.576,0,0,1-1.877-.521l-1.134.3c.429,1.115,1.683,1.568,3.222,1.156,1.569-.42,2.539-1.593,2.207-2.83-.266-.993-1.045-1.389-2.429-1.354l-1.132.028c-.867.02-1.331-.172-1.458-.646-.164-.615.365-1.2,1.184-1.423a1.459,1.459,0,0,1,1.765.509l1.089-.292c-.452-1.094-1.649-1.542-3.1-1.154C882.46,495.087,881.583,496.248,881.891,497.4ZM825.27,537.867l1.211-.325-5.885-8.332-1.141.306-.93,10.158,1.21-.324.221-2.9,3.677-.985Zm-4.9-7,.1-.028,2.554,3.738-3,.8Zm7.389,6.329,1.1-.3-2.586-9.649-1.1.3Zm3.044-.816,1.1-.3-2.584-9.648-1.1.3Zm4.084-11,2.477,9.245,3.171-.85c2.75-.736,3.906-2.879,3.124-5.795s-2.858-4.185-5.6-3.45Zm1.431.729,1.941-.52c2.05-.55,3.618.458,4.224,2.72s-.24,3.9-2.3,4.449l-1.941.52Zm14.272,3.056a1.851,1.851,0,0,1-1.531,1.413,2.1,2.1,0,0,1-2.59-1.7l-.014-.051,4.965-1.33-.113-.423c-.575-2.146-2.064-3.168-3.928-2.669-1.9.508-2.736,2.244-2.154,4.416s2.154,3.248,4.07,2.734a2.854,2.854,0,0,0,2.4-2.689Zm-2.963-3.78a1.924,1.924,0,0,1,2.4,1.535l-3.806,1.02A2.037,2.037,0,0,1,847.631,525.386Zm9.76-3.529-1.18.316-.365,6.2-.1.027-3.414-5.184-1.18.317,4.407,6.222,1.128-.3Zm1.431-1.811a.8.8,0,1,0-.975-.563A.8.8,0,0,0,858.822,520.046Zm1.656,8.387,1.1-.3-1.851-6.906-1.1.3Zm7.372-7.111a2.8,2.8,0,0,0-3.495-1.46c-1.935.518-2.79,2.245-2.214,4.4.589,2.2,2.2,3.269,4.136,2.751a2.761,2.761,0,0,0,2.3-2.977l-1.115.3A1.721,1.721,0,0,1,866,526.018c-1.229.329-2.3-.47-2.723-2.066-.419-1.563.1-2.766,1.339-3.1a1.773,1.773,0,0,1,2.115.765Zm6.745,1.413a1.851,1.851,0,0,1-1.53,1.413,2.1,2.1,0,0,1-2.589-1.7l-.015-.051,4.966-1.331-.113-.422c-.575-2.146-2.065-3.169-3.929-2.669-1.9.508-2.736,2.244-2.154,4.416s2.154,3.248,4.07,2.734a2.855,2.855,0,0,0,2.4-2.689Zm-2.962-3.78a1.924,1.924,0,0,1,2.4,1.535l-3.8,1.02A2.036,2.036,0,0,1,871.632,518.955Zm4.6-.119c.267,1,1.006,1.4,2.384,1.366l1.263-.029c.784-.018,1.229.206,1.356.68.17.634-.378,1.254-1.306,1.5a1.574,1.574,0,0,1-1.877-.52l-1.134.3c.429,1.114,1.683,1.568,3.221,1.156,1.57-.42,2.54-1.594,2.209-2.83-.266-.993-1.045-1.389-2.429-1.354l-1.133.028c-.866.019-1.33-.172-1.457-.646-.164-.615.364-1.2,1.184-1.423a1.459,1.459,0,0,1,1.765.509l1.089-.292c-.452-1.095-1.649-1.542-3.1-1.155C876.8,516.528,875.922,517.689,876.229,518.836Z" transform="translate(-724.557 -343.117)" fill="#152b43" opacity="0.92"/>
      <path id="Path_18071" data-name="Path 18071" d="M843.547,424.314l-48.112,12.892a5.662,5.662,0,0,0-4,6.933l7.911,29.523a5.66,5.66,0,0,0,6.932,4l48.112-12.892a5.659,5.659,0,0,0,4-6.931l-7.911-29.523A5.659,5.659,0,0,0,843.547,424.314Z" transform="translate(-726.097 -352.417)" fill="#274769"/>
      <path id="Path_18072" data-name="Path 18072" d="M852.679,431.127l-13.121,3.516a5.661,5.661,0,0,0-4,6.933l7.911,29.523a5.66,5.66,0,0,0,6.932,4l13.121-3.516a5.658,5.658,0,0,0,4-6.931l-7.911-29.523A5.66,5.66,0,0,0,852.679,431.127Z" transform="translate(-720.271 -351.517)" fill="#21cab7" stroke="#fff" stroke-width="2"/>
      <path id="Path_18073" data-name="Path 18073" d="M853.524,464.438a1.7,1.7,0,1,0-2.08-1.2A1.7,1.7,0,0,0,853.524,464.438Z" transform="translate(-718.155 -347.534)" fill="none" stroke="#fff" stroke-width="1"/>
      <path id="Path_18074" data-name="Path 18074" d="M817.984,442.55l-19.136,5.127a.849.849,0,0,0,.439,1.64l19.136-5.128a.848.848,0,0,0-.439-1.639Z" transform="translate(-725.175 -349.987)" fill="#fff" opacity="0.7"/>
      <path id="Path_18075" data-name="Path 18075" d="M814.645,447.448,799.883,451.4a.849.849,0,0,0,.44,1.64l14.762-3.955a.849.849,0,0,0-.44-1.64Z" transform="translate(-725.038 -349.34)" fill="#fff" opacity="0.7"/>
      <path id="Path_18076" data-name="Path 18076" d="M797.63,441.476a1.132,1.132,0,1,0-1.387-.8A1.132,1.132,0,0,0,797.63,441.476Z" transform="translate(-725.441 -350.419)" fill="#fff" opacity="0.7"/>
      <path id="Path_18077" data-name="Path 18077" d="M800.528,440.7a1.132,1.132,0,1,0-1.386-.8A1.132,1.132,0,0,0,800.528,440.7Z" transform="translate(-725.058 -350.521)" fill="#fff" opacity="0.7"/>
      <path id="Path_18078" data-name="Path 18078" d="M803.427,439.923a1.132,1.132,0,1,0-1.387-.8A1.133,1.133,0,0,0,803.427,439.923Z" transform="translate(-724.676 -350.624)" fill="#fff" opacity="0.7"/>
      <path id="Path_18079" data-name="Path 18079" d="M815.312,455.506l-12.028,3.223a2.263,2.263,0,0,0-1.6,2.772l1.172,4.374a2.264,2.264,0,0,0,2.773,1.6l12.028-3.223a2.263,2.263,0,0,0,1.6-2.772l-1.172-4.374A2.264,2.264,0,0,0,815.312,455.506Z" transform="translate(-724.728 -348.283)" fill="#fff" opacity="0.7"/>
      <path id="Path_18080" data-name="Path 18080" d="M832.7,450.847l-12.028,3.223a2.264,2.264,0,0,0-1.6,2.773l1.172,4.374a2.263,2.263,0,0,0,2.772,1.6l12.029-3.223a2.265,2.265,0,0,0,1.6-2.773l-1.173-4.373A2.264,2.264,0,0,0,832.7,450.847Z" transform="translate(-722.432 -348.898)" fill="#fff" opacity="0.7"/>
    </g>
    <g id="Group_3881" data-name="Group 3881" transform="translate(1078.931 416.81)">
      <g transform="matrix(1, 0, 0, 1, -255.78, -281.93)" filter="url(#Path_18081)">
        <path id="Path_18081-2" data-name="Path 18081" d="M1136.72,331.246,961.766,378.125a13.585,13.585,0,0,0-9.605,16.637l63.285,236.187a13.59,13.59,0,0,0,16.641,9.605l174.955-46.878a13.578,13.578,0,0,0,9.6-16.637L1153.36,340.852A13.592,13.592,0,0,0,1136.72,331.246Z" transform="translate(-695.91 -48.85)" fill="#fff"/>
      </g>
      <path id="Path_18082" data-name="Path 18082" d="M1061.481,522.1c.589,1.748,2.377,2.486,4.607,1.89,2.366-.635,3.532-2.228,3.022-4.123-.4-1.5-1.46-2.1-3.656-2.04l-1.166.025c-1.392.031-2.038-.245-2.23-.974-.249-.937.408-1.76,1.63-2.09a1.994,1.994,0,0,1,2.536.967l1.506-.405c-.532-1.648-2.332-2.431-4.37-1.886-2.185.586-3.328,2.156-2.853,3.92.385,1.457,1.449,2.1,3.374,2.048l1.37-.033c1.415-.036,2.128.293,2.343,1.078.238.916-.5,1.821-1.743,2.155-1.347.359-2.434-.009-2.83-.945Zm14.4-3.16a1.86,1.86,0,0,1-1.54,1.425,2.1,2.1,0,0,1-2.615-1.689l-.011-.069,5.332-1.43-.136-.514c-.634-2.36-2.287-3.456-4.392-2.892-2.128.57-3.068,2.467-2.434,4.862s2.377,3.546,4.539,2.965c1.732-.463,2.728-1.623,2.694-3.043Zm-3.045-3.953a1.92,1.92,0,0,1,2.4,1.521l-3.815,1.023A2.041,2.041,0,0,1,1072.836,514.989Zm11.648-1.671a3.084,3.084,0,0,0-3.917-1.7c-2.207.59-3.147,2.442-2.5,4.836.656,2.443,2.4,3.582,4.607,2.992a3.055,3.055,0,0,0,2.547-3.4l-1.449.388a1.718,1.718,0,0,1-1.449,1.742c-1.245.333-2.287-.468-2.728-2.134-.442-1.63.057-2.821,1.313-3.156a1.756,1.756,0,0,1,2.128.821Zm7.143-4.51-1.483.4,1.177,4.421a1.8,1.8,0,0,1-1.347,2.451c-1.087.294-1.743-.171-2.083-1.42l-1.211-4.526-1.494.4,1.313,4.894c.475,1.769,1.675,2.54,3.351,2.093a2.352,2.352,0,0,0,1.925-1.952l.125-.032.317,1.193,1.438-.385Zm3.906,7.033,1.494-.4-1.211-4.505a1.844,1.844,0,0,1,1.449-2.307,5.026,5.026,0,0,1,.86-.14l-.374-1.4a4.048,4.048,0,0,0-.691.122,2.128,2.128,0,0,0-1.7,1.825l-.1.029-.306-1.146-1.437.385Zm9.622-4.744a1.846,1.846,0,0,1-1.54,1.425,2.107,2.107,0,0,1-2.615-1.689l-.011-.069,5.332-1.43-.136-.514c-.634-2.36-2.287-3.456-4.392-2.892-2.128.571-3.068,2.467-2.423,4.862s2.366,3.546,4.528,2.965c1.732-.463,2.728-1.623,2.694-3.043Zm-3.045-3.953a1.93,1.93,0,0,1,2.411,1.521l-3.826,1.023A2.041,2.041,0,0,1,1102.11,507.144Zm-44.67,28.092,2.683,10.015,1.562-.417-.917-3.422,2.321-.62a3.414,3.414,0,1,0-1.721-6.608Zm1.913.894,1.958-.524a2.063,2.063,0,1,1,1.064,3.977l-1.958.525Zm11.388,6.41a2.635,2.635,0,0,0,1.958-1.8l.113-.032.283,1.07,1.438-.386-1.381-5.156c-.419-1.583-1.743-2.24-3.634-1.732-1.721.458-2.717,1.612-2.536,2.923l1.449-.386c.023-.593.509-1.06,1.347-1.284,1.019-.273,1.664.051,1.891.876l.181.66-2.015.674c-1.777.593-2.57,1.648-2.208,3A2.349,2.349,0,0,0,1070.741,542.54Zm.068-1.3c-.815.217-1.517-.034-1.7-.735s.181-1.182,1.211-1.53l1.811-.619.17.652A1.863,1.863,0,0,1,1070.809,541.237Zm6.8,2.261c1.54-.412,2.094-1.18,2.253-3.164l.713-8.641-1.585.425-.272,6.544-.113.032-3.521-5.531-1.619.436,4.755,6.825v.419a1.351,1.351,0,0,1-1.075,1.463,3.725,3.725,0,0,1-.5.1l.328,1.221A6.252,6.252,0,0,0,1077.613,543.5Zm6.226-4.6,1.494-.4-1.245-4.63a1.713,1.713,0,0,1,1.132-2.184,1.368,1.368,0,0,1,1.823,1l1.347,4.991,1.46-.393-1.279-4.768a1.61,1.61,0,0,1,1.166-2.046,1.378,1.378,0,0,1,1.879,1.156l1.291,4.838,1.494-.4-1.392-5.2a2.315,2.315,0,0,0-3.079-1.837,2.539,2.539,0,0,0-1.936,1.962l-.125.032a2.375,2.375,0,0,0-4.177,1.122l-.113.029-.328-1.2-1.438.385Zm16.788-6.664a1.862,1.862,0,0,1-1.54,1.426,2.1,2.1,0,0,1-2.615-1.689l-.023-.069,5.343-1.431-.136-.514c-.634-2.359-2.287-3.456-4.392-2.892-2.128.57-3.079,2.468-2.434,4.862s2.377,3.546,4.539,2.966c1.732-.463,2.728-1.623,2.694-3.044Zm-3.045-3.952a1.919,1.919,0,0,1,2.4,1.521l-3.815,1.022A2.04,2.04,0,0,1,1097.582,528.282Zm6.622,5.159,1.494-.4-1.188-4.421a1.82,1.82,0,0,1,1.279-2.448c1.1-.3,1.8.174,2.128,1.423l1.211,4.526,1.494-.4-1.3-4.88c-.487-1.8-1.687-2.554-3.373-2.1a2.35,2.35,0,0,0-1.9,1.944l-.1.029-.328-1.193-1.438.385Zm6.237-11.788.509,1.922-1.2.322.328,1.194,1.2-.322,1.155,4.338c.4,1.45,1.211,1.856,2.864,1.413a4.742,4.742,0,0,0,.792-.294l-.317-1.187a5.127,5.127,0,0,1-.555.188c-.747.2-1.166-.068-1.381-.88l-1.075-3.977,1.641-.439-.317-1.194-1.641.439-.51-1.922Zm5.389,2.855c.306,1.117,1.143,1.577,2.66,1.525l1.4-.041c.8-.021,1.245.189,1.37.661.17.617-.374,1.224-1.3,1.474a1.585,1.585,0,0,1-1.9-.517l-1.494.4c.475,1.277,1.868,1.774,3.668,1.293s2.875-1.79,2.5-3.192c-.294-1.1-1.132-1.534-2.66-1.482l-1.336.045c-.872.025-1.324-.164-1.449-.629-.17-.61.351-1.19,1.189-1.413a1.452,1.452,0,0,1,1.777.521l1.426-.383c-.5-1.266-1.823-1.759-3.521-1.3S1115.479,523.2,1115.83,524.508Z" transform="translate(-937.733 -307.675)" fill="#152b43" opacity="0.92"/>
      <path id="Path_18083" data-name="Path 18083" d="M1023.608,428.631a4.525,4.525,0,0,1,3.2-5.546l59.047-15.822a4.531,4.531,0,0,1,5.547,3.2l2.049,7.654-67.8,18.166Zm4.392,16.4,67.8-18.165,5.57,20.775a4.534,4.534,0,0,1-3.2,5.546l-59.047,15.821a4.525,4.525,0,0,1-5.547-3.2Zm59.579-.727a4.547,4.547,0,0,1-.17,2.858,3.4,3.4,0,1,0-1.4-5.249A4.536,4.536,0,0,1,1087.579,444.305Zm-5.547-3.2a4.529,4.529,0,0,0,5.468-1.465,7.886,7.886,0,1,1-5.468,1.465Z" transform="translate(-942.22 -320.703)" fill="#274769" fill-rule="evenodd"/>
      <path id="Path_18084" data-name="Path 18084" d="M1052.734,440.995l-25.154,6.739a5.664,5.664,0,0,0-4.007,6.931l3.521,13.121a5.656,5.656,0,0,0,6.928,4l25.154-6.739a5.665,5.665,0,0,0,4.007-6.932L1059.662,445A5.662,5.662,0,0,0,1052.734,440.995Z" transform="translate(-942.23 -316.254)" fill="#fff" stroke="#fff" stroke-width="2"/>
      <path id="Path_18085" data-name="Path 18085" d="M1024.538,454.24a4.533,4.533,0,0,1,3.2-5.545l25.154-6.739a4.53,4.53,0,0,1,5.547,3.2l.294,1.094-33.9,9.082Zm1.471,5.468,33.893-9.082,2.049,7.654a4.525,4.525,0,0,1-3.2,5.546l-25.142,6.739a4.526,4.526,0,0,1-5.547-3.2Zm18.962.78a1.13,1.13,0,1,0,.577,2.186l12.033-3.223a1.132,1.132,0,1,0-.589-2.186Z" transform="translate(-942.097 -316.122)" fill="#21cab7" fill-rule="evenodd"/>
    </g>
  </g>
</svg>
