<svg xmlns="http://www.w3.org/2000/svg" xmlns:xlink="http://www.w3.org/1999/xlink" width="557.377" height="412.536" viewBox="0 0 557.377 412.536">
  <defs>
    <clipPath id="clip-path">
      <rect id="Rectangle_6544" data-name="Rectangle 6544" width="557.377" height="412.536" transform="translate(0.998)" fill="#fff"/>
    </clipPath>
  </defs>
  <g id="step-1" transform="translate(-0.998)" clip-path="url(#clip-path)">
    <g id="Group_3884" data-name="Group 3884" transform="translate(87.163)">
      <path id="Path_18086" data-name="Path 18086" d="M448.691,192.517c0,106.324-86.192,192.517-192.517,192.517S63.658,298.841,63.658,192.517,149.852,0,256.175,0,448.691,86.193,448.691,192.517Z" transform="translate(-63.658)" fill="#fff"/>
      <path id="Path_18087" data-name="Path 18087" d="M448.691,192.517c0,106.324-86.192,192.517-192.517,192.517S63.658,298.841,63.658,192.517,149.852,0,256.175,0,448.691,86.193,448.691,192.517Z" transform="translate(-63.658)" fill="#fff"/>
    </g>
    <path id="Path_18088" data-name="Path 18088" d="M448.691,192.517c0,106.324-86.192,192.517-192.517,192.517S63.658,298.841,63.658,192.517,149.852,0,256.175,0,448.691,86.193,448.691,192.517Z" transform="translate(23.505)" fill="#f1f1f2" opacity="0.56"/>
    <rect id="Rectangle_6543" data-name="Rectangle 6543" width="52.598" height="52.598" rx="19.125" transform="translate(253.38 358.734)" fill="#fcfcfc" stroke="#22b9af" stroke-width="1.75"/>
    <path id="Path_18089" data-name="Path 18089" d="M204.908,292.286h3.465V272.908h-3.452l-5.062,3.559v3.263l4.82-3.41h.228Z" transform="translate(74.597 102.373)" fill="#22b9af"/>
    <path id="Path_18090" data-name="Path 18090" d="M338.832,168.169V138.681a9.163,9.163,0,0,0-4.145-7.171L300.9,112c-4.627-2.664-12.16-2.664-16.782,0-2.283,1.331-3.439,3.045-3.464,4.769v.047a.539.539,0,0,0,0,.067v38.992c0,1.773,1.141,3.538,3.464,4.878l33.792,19.509a2.923,2.923,0,0,0,2.9.3h.026l2.232-1.293a2.865,2.865,0,0,0,1.247-2.688v-9.422l8.146,4.706a2.931,2.931,0,0,0,2.9.3l.029-.025,2.23-1.284A2.919,2.919,0,0,0,338.832,168.169Z" transform="translate(104.903 41.264)" fill="#fff"/>
    <path id="Path_18091" data-name="Path 18091" d="M268.586,150.29c-1.409-.829-1.409-2.114,0-2.943l20.639-11.895a5.542,5.542,0,0,1,5.1,0l52.552,30.3c1.409.829,1.409,2.114,0,2.943l-20.639,11.893a5.534,5.534,0,0,1-5.1,0Z" transform="translate(99.981 50.578)" fill="rgba(17,26,36,0.05)"/>
    <path id="Path_18092" data-name="Path 18092" d="M338.831,168.169V138.681a9.161,9.161,0,0,0-4.146-7.171L300.9,112c-4.627-2.664-12.16-2.664-16.782,0-2.313,1.331-3.464,3.09-3.464,4.849h3.2c0-1.284.85-2.566,2.541-3.541a13.572,13.572,0,0,1,12.281,0l33.756,19.513a9.159,9.159,0,0,1,4.146,7.169v29.483a2.9,2.9,0,0,1-1.216,2.683l2.23-1.284A2.92,2.92,0,0,0,338.831,168.169Z" transform="translate(104.903 41.264)" fill="rgba(33,189,202,0.16)"/>
    <path id="Path_18093" data-name="Path 18093" d="M335.6,173.246a.8.8,0,0,1-.316-.061.853.853,0,0,1-.11-1.532l2.177-1.255.056-.034a2.09,2.09,0,0,0,.8-1.95V138.919a8.342,8.342,0,0,0-3.729-6.431l-33.787-19.51c-4.391-2.533-11.54-2.53-15.945,0-1.962,1.134-3.044,2.595-3.047,4.11a.844.844,0,1,1-1.689-.011c0-2.149,1.385-4.134,3.9-5.594,4.875-2.811,12.787-2.812,17.654,0l33.787,19.509a9.983,9.983,0,0,1,4.575,7.911v29.506a3.733,3.733,0,0,1-1.617,3.4.321.321,0,0,1-.054.034l-2.2,1.268A.857.857,0,0,1,335.6,173.246Z" transform="translate(104.662 41.028)" fill="#5091dd"/>
    <path id="Path_18094" data-name="Path 18094" d="M319.966,181.915a4.569,4.569,0,0,1-2.276-.682l-33.792-19.5c-2.525-1.458-3.908-3.464-3.889-5.624V116.98c.045-2.107,1.43-4.054,3.9-5.485,4.875-2.811,12.787-2.812,17.654,0L335.349,131a9.982,9.982,0,0,1,4.575,7.911V168.4a3.735,3.735,0,0,1-1.617,3.4.507.507,0,0,1-.054.034l-2.229,1.283-.065.036a3.779,3.779,0,0,1-3.729-.318l-6.865-3.964v7.929a3.7,3.7,0,0,1-1.6,3.38.734.734,0,0,1-.077.051l-2.177,1.26a.811.811,0,0,1-.177.094A2.984,2.984,0,0,1,319.966,181.915ZM281.72,117.033V156.11c0,1.535,1.066,3,3.036,4.14l33.792,19.5a2.15,2.15,0,0,0,2.057.3l.072-.037,2.1-1.211a.7.7,0,0,1,.095-.062,2.1,2.1,0,0,0,.8-1.936V167.4a.852.852,0,0,1,.426-.738.853.853,0,0,1,.428-.116.843.843,0,0,1,.426.114l8.148,4.7a2.165,2.165,0,0,0,2.053.293l.048-.023,2.152-1.242.056-.034a2.09,2.09,0,0,0,.8-1.95v-29.5a8.34,8.34,0,0,0-3.729-6.43l-33.787-19.51c-4.391-2.534-11.54-2.532-15.945,0-1.933,1.118-3.014,2.556-3.044,4.046Z" transform="translate(104.662 41.033)" fill="#1496a3"/>
    <path id="Path_18095" data-name="Path 18095" d="M297.551,114.592a13.416,13.416,0,0,0-12.1,0,5.067,5.067,0,0,0-2.241,2.342c-.029.07-.077.139-.1.2a3,3,0,0,0-.117.688c0,.083-.04.165-.04.25v37.009c-.041,1.291.777,2.591,2.485,3.579L318.2,177.579l12.105-7V133.525Z" transform="translate(105.766 42.445)" fill="#dbf4f7"/>
    <path id="Path_18096" data-name="Path 18096" d="M285.228,153.49l32.146,18.56,12.107-7V127.969l-.026-.012Z" transform="translate(106.62 47.999)" fill="#cbe8eb"/>
    <path id="Path_18097" data-name="Path 18097" d="M308.84,163.02a.856.856,0,0,1-.429-1.6l12.108-7a.852.852,0,0,1,.649-.085.877.877,0,0,1,.3.147.857.857,0,0,1,.22.252.831.831,0,0,1,.107.315.856.856,0,0,1-.169.633.87.87,0,0,1-.25.22L309.266,162.9A.836.836,0,0,1,308.84,163.02Z" transform="translate(115.154 57.885)" fill="#1496a3"/>
    <path id="Path_18098" data-name="Path 18098" d="M324.292,174.707v-29.5a9.158,9.158,0,0,0-4.145-7.169l-33.789-19.509c-1.694-.98-2.536-2.269-2.536-3.548h-3.2v.066c0,.091.016.179.022.267,0-.088-.019-.173-.022-.267v38.974c0,1.771,1.14,3.538,3.464,4.878l30.4,17.553,3.39,1.955a2.875,2.875,0,0,0,2.93.282l2.215-1.282A2.88,2.88,0,0,0,324.292,174.707Z" transform="translate(104.893 43.133)" fill="#fff"/>
    <path id="Path_18099" data-name="Path 18099" d="M284.1,119.833l33.787,19.516a9.14,9.14,0,0,1,4.146,7.163v29.495a2.863,2.863,0,0,1-1.216,2.665l2.23-1.284A2.864,2.864,0,0,0,324.3,174.7V145.209a9.16,9.16,0,0,0-4.146-7.169L286.36,118.532c-1.694-.98-2.536-2.269-2.536-3.548h-3.2C280.624,116.741,281.783,118.5,284.1,119.833Z" transform="translate(104.894 43.133)" fill="rgba(33,189,202,0.16)"/>
    <path id="Path_18100" data-name="Path 18100" d="M319.968,180.055a4.6,4.6,0,0,1-2.283-.688l-33.792-19.506c-2.526-1.456-3.908-3.463-3.889-5.623V115.206a.85.85,0,0,1,.248-.584.855.855,0,0,1,1.459.538v.087a.455.455,0,0,0,0,.062v.15a.787.787,0,0,1-.018.253v38.534c0,1.535,1.066,3,3.036,4.139l33.792,19.506a2.14,2.14,0,0,0,2.086.285l2.131-1.236a.762.762,0,0,1,.1-.061,2.1,2.1,0,0,0,.8-1.938v-29.5a8.306,8.306,0,0,0-3.729-6.427l-33.743-19.509c-1.91-1.1-2.956-2.629-2.956-4.3a.855.855,0,0,1,1.711,0c0,1.023.748,2.023,2.109,2.808l33.787,19.509a9.938,9.938,0,0,1,4.572,7.908V174.94a3.7,3.7,0,0,1-1.6,3.381c-.025.018-.051.034-.077.049l-2.214,1.279A2.959,2.959,0,0,1,319.968,180.055Z" transform="translate(104.66 42.896)" fill="#1496a3"/>
    <path id="Path_18101" data-name="Path 18101" d="M299.7,141.5a2.969,2.969,0,0,0-1.244,2.731,9.324,9.324,0,0,0,4.23,7.316,2.958,2.958,0,0,0,3,.293l1.641-.952a2.945,2.945,0,0,0,1.25-2.735,9.331,9.331,0,0,0-4.228-7.316,2.981,2.981,0,0,0-2.987-.3Z" transform="translate(111.581 52.615)" fill="#21bdca"/>
    <g id="Group_3885" data-name="Group 3885" transform="translate(411.276 192.881)" opacity="0.3">
      <path id="Path_18102" data-name="Path 18102" d="M299.362,141.508a2.954,2.954,0,0,1,2.984.293,9.335,9.335,0,0,1,4.227,7.321,2.981,2.981,0,0,1-1.225,2.726l1.641-.952a2.942,2.942,0,0,0,1.25-2.735,9.329,9.329,0,0,0-4.227-7.316,2.981,2.981,0,0,0-2.987-.3l-1.668.963Z" transform="translate(-299.356 -140.265)"/>
    </g>
    <path id="Path_18103" data-name="Path 18103" d="M304.81,153.227a4.658,4.658,0,0,1-2.32-.7,10.133,10.133,0,0,1-4.656-8.053,3.831,3.831,0,0,1,1.564-3.408.764.764,0,0,1,.1-.072l1.668-.958a3.79,3.79,0,0,1,3.842.3,10.117,10.117,0,0,1,4.653,8.06,3.806,3.806,0,0,1-1.683,3.479l-1.634.945A3.032,3.032,0,0,1,304.81,153.227Zm-4.363-10.806a.525.525,0,0,1-.085.059,2.169,2.169,0,0,0-.818,1.993,8.521,8.521,0,0,0,3.8,6.574,2.162,2.162,0,0,0,2.131.3l1.641-.95a2.173,2.173,0,0,0,.824-2,8.524,8.524,0,0,0-3.8-6.577,2.209,2.209,0,0,0-2.131-.3Z" transform="translate(111.349 52.382)" fill="#1496a3"/>
    <path id="Path_18104" data-name="Path 18104" d="M304.506,147.1a5.156,5.156,0,0,0-2.336-4.044,1.634,1.634,0,0,0-1.652-.172,1.651,1.651,0,0,0-.688,1.515,5.174,5.174,0,0,0,2.339,4.047,1.622,1.622,0,0,0,1.657.16A1.646,1.646,0,0,0,304.506,147.1Z" transform="translate(112.098 53.542)" fill="#fff"/>
    <path id="Path_18105" data-name="Path 18105" d="M162.557,1.016l-2,1.153h-.018a3.542,3.542,0,0,0-1.466,3.253V125.028a11.149,11.149,0,0,0,5.045,8.73l167.243,96.55a3.562,3.562,0,0,0,3.538.367l.026-.015,2-1.156a3.545,3.545,0,0,0,1.489-3.266V106.655a11.15,11.15,0,0,0-5.047-8.73L166.138,1.365a3.555,3.555,0,0,0-3.513-.378l-.045.024Z" transform="translate(59.299 0.254)" fill="#21bdca"/>
    <g id="Group_3886" data-name="Group 3886" transform="translate(219.869 0.93)" opacity="0.3">
      <path id="Path_18106" data-name="Path 18106" d="M332.976,97.925,165.731,1.365a3.555,3.555,0,0,0-3.513-.378l-.045.024h-.019l-1.99,1.148a3.567,3.567,0,0,1,3.552.365l167.248,96.56a11.168,11.168,0,0,1,5.062,8.732v119.6a3.535,3.535,0,0,1-1.474,3.252l2-1.151a3.541,3.541,0,0,0,1.489-3.266V106.655A11.211,11.211,0,0,0,332.976,97.925Z" transform="translate(-160.163 -0.676)"/>
    </g>
    <g id="Group_3887" data-name="Group 3887" transform="translate(219.467 128.892)" opacity="0.2">
      <path id="Path_18107" data-name="Path 18107" d="M331.069,190.981,163.822,94.42c-1.6-.924-3.027-.884-3.951-.08a10.774,10.774,0,0,0,3.951,4.529L331.069,195.4c1.6.925,3.024.886,3.951.078A10.722,10.722,0,0,0,331.069,190.981Z" transform="translate(-159.871 -93.732)"/>
    </g>
    <path id="Path_18108" data-name="Path 18108" d="M333.887,232.2a5.482,5.482,0,0,1-2.72-.817L163.905,134.825a12.015,12.015,0,0,1-5.514-9.542V5.691A4.437,4.437,0,0,1,160.3,1.639l.034-.021,2-1.153.032-.016a.633.633,0,0,1,.1-.051,4.492,4.492,0,0,1,4.383.418L334.109,97.365a12.032,12.032,0,0,1,5.517,9.545V226.5a4.419,4.419,0,0,1-1.962,4.084h-.025l-1.976,1.145a.65.65,0,0,1-.1.047A3.558,3.558,0,0,1,333.887,232.2ZM161.291,3.237l-.021.013a2.7,2.7,0,0,0-1,2.438v119.6a10.269,10.269,0,0,0,4.575,7.915l167.248,96.565a2.692,2.692,0,0,0,2.613.359l.074-.037,1.943-1.123.026-.017a2.712,2.712,0,0,0,1-2.437V106.91A10.273,10.273,0,0,0,333.169,99L165.924,2.435a2.708,2.708,0,0,0-2.595-.368l-.083.04Zm1.514-1.987v0Z" transform="translate(59.041 0)" fill="#1496a3"/>
    <path id="Path_18109" data-name="Path 18109" d="M330.543,217.3,163.3,120.739a4.468,4.468,0,0,1-2.02-3.49V5.8c0-1.284.906-1.8,2.02-1.164L330.543,101.2a4.471,4.471,0,0,1,2.016,3.5V216.14C332.559,217.422,331.659,217.944,330.543,217.3Z" transform="translate(60.123 1.638)" fill="#fff"/>
    <path id="Path_18110" data-name="Path 18110" d="M167.371,104.819l1.009.578,3.221-1.865v-3.474l-4.23,2.441C166.254,103.13,166.26,104.171,167.371,104.819Z" transform="translate(62.096 37.534)" fill="#80b6f1"/>
    <g id="Group_3888" data-name="Group 3888" transform="translate(228.632 137.592)" opacity="0.2">
      <path id="Path_18111" data-name="Path 18111" d="M167.371,104.819l1.009.578,3.221-1.865v-3.474l-4.23,2.441C166.254,103.13,166.26,104.171,167.371,104.819Z" transform="translate(-166.536 -100.058)"/>
    </g>
    <path id="Path_18112" data-name="Path 18112" d="M170.317,109.412a1.368,1.368,0,0,0,1.363-.138l7.563-4.366v-4.471l-2.714-1.564-7.578,4.366a4.274,4.274,0,0,0-1.935,3.351,1.354,1.354,0,0,0,.534,1.211Z" transform="translate(62.276 37.089)" fill="#7185a3"/>
    <path id="Path_18113" data-name="Path 18113" d="M170.317,109.412a1.368,1.368,0,0,0,1.363-.138l7.563-4.366v-4.471l-2.714-1.564-7.578,4.366a4.274,4.274,0,0,0-1.935,3.351,1.354,1.354,0,0,0,.534,1.211Z" transform="translate(62.276 37.089)" fill="#fff"/>
    <path id="Path_18114" data-name="Path 18114" d="M178.493,100.01l-7.569,4.372A4.276,4.276,0,0,0,169,107.73c0,1.233.872,1.731,1.939,1.117l7.563-4.366Z" transform="translate(63.022 37.516)" fill="#cee7fd"/>
    <path id="Path_18115" data-name="Path 18115" d="M267.524,162.634l1.007.586,3.218-1.865v-3.487l-4.235,2.441A1.227,1.227,0,0,0,267.524,162.634Z" transform="translate(99.664 59.219)" fill="#80b6f1"/>
    <g id="Group_3889" data-name="Group 3889" transform="translate(366.348 217.087)">
      <path id="Path_18116" data-name="Path 18116" d="M267.524,162.634l1.007.586,3.218-1.865v-3.487l-4.235,2.441A1.227,1.227,0,0,0,267.524,162.634Z" transform="translate(-266.684 -157.868)" fill="#dbf4f7"/>
    </g>
    <path id="Path_18117" data-name="Path 18117" d="M270.458,167.223a1.373,1.373,0,0,0,1.361-.138l7.562-4.37v-4.464l-2.712-1.572-7.565,4.372a4.282,4.282,0,0,0-1.932,3.348,1.354,1.354,0,0,0,.532,1.211v.014Z" transform="translate(99.847 58.774)" fill="#7185a3"/>
    <path id="Path_18118" data-name="Path 18118" d="M270.458,167.223a1.373,1.373,0,0,0,1.361-.138l7.562-4.37v-4.464l-2.712-1.572-7.565,4.372a4.282,4.282,0,0,0-1.932,3.348,1.354,1.354,0,0,0,.532,1.211v.014Z" transform="translate(99.847 58.774)" fill="#fff"/>
    <path id="Path_18119" data-name="Path 18119" d="M278.642,157.824l-7.567,4.366a4.287,4.287,0,0,0-1.932,3.351c0,1.233.869,1.733,1.938,1.117l7.562-4.369Z" transform="translate(100.586 59.203)" fill="rgba(33,189,202,0.16)"/>
    <path id="Path_18120" data-name="Path 18120" d="M361.677,194.536a.282.282,0,0,0,0-.048,1.762,1.762,0,0,0-.088-.355V194.1a3.515,3.515,0,0,0-.15-.347c0-.014-.01-.026-.015-.04a3.481,3.481,0,0,0-.192-.314.386.386,0,0,1-.04-.065,2.831,2.831,0,0,0-.242-.3c-.019-.021-.03-.043-.048-.061a5.368,5.368,0,0,0-1.273-1L347.8,185.143l-4.224,2.444a4.46,4.46,0,0,1-4.036,0l-.836-.485-1.007-.586a1.225,1.225,0,0,1,0-2.325l1.206-.7,3.029-1.745L210.071,105.635l-4.227,2.441a4.471,4.471,0,0,1-4.036,0l-.837-.5L199.961,107a1.231,1.231,0,0,1,0-2.331l1.2-.693,3.028-1.726-11.825-6.831a11.2,11.2,0,0,0-10.082,0L81.741,153.456c-.173.1-.336.2-.488.311a3.262,3.262,0,0,0-1.6,2.569V159.8h.013a3.5,3.5,0,0,0,2.078,2.973l167.248,96.565a11.191,11.191,0,0,0,10.081,0L359.617,201.29a3.532,3.532,0,0,0,2.081-2.879v-3.527A2.412,2.412,0,0,0,361.677,194.536Z" transform="translate(29.506 35.344)" fill="#21bdca"/>
    <g id="Group_3890" data-name="Group 3890" transform="translate(109.161 191.71)" opacity="0.3">
      <path id="Path_18121" data-name="Path 18121" d="M361.682,177.654c.129,1.143-.55,2.313-2.065,3.183L259.075,238.888a11.2,11.2,0,0,1-10.081,0L81.746,142.323a3.555,3.555,0,0,1-2.091-2.91v3.423h.013a3.5,3.5,0,0,0,2.078,2.973l167.248,96.566a11.2,11.2,0,0,0,10.081,0l100.542-58.048a3.532,3.532,0,0,0,2.081-2.88v-3.519A2.628,2.628,0,0,0,361.682,177.654Z" transform="translate(-79.655 -139.413)"/>
    </g>
    <path id="Path_18122" data-name="Path 18122" d="M254.294,261.747a11.276,11.276,0,0,1-5.511-1.332L81.532,163.844a4.481,4.481,0,0,1-2.547-3.633.99.99,0,0,1-.013-.155v-3.449a.032.032,0,0,1,0-.022,4.209,4.209,0,0,1,1.993-3.324,6.6,6.6,0,0,1,.562-.36L182.07,94.853a12.017,12.017,0,0,1,11.02,0l11.818,6.83a.941.941,0,0,1,0,1.627l-4.231,2.444c-.3.171-.364.319-.364.345s.066.182.367.358l1.847,1.066a3.535,3.535,0,0,0,3.093,0l4.23-2.441a.946.946,0,0,1,.941,0l131.844,76.112a.939.939,0,0,1,0,1.628l-4.235,2.444c-.3.171-.359.316-.359.342s.066.179.37.352l.935.534.077.04.836.484a3.51,3.51,0,0,0,3.093,0l4.228-2.439a.932.932,0,0,1,.938,0L360.34,191.4a6.22,6.22,0,0,1,1.5,1.183,1.2,1.2,0,0,1,.1.122,3.082,3.082,0,0,1,.265.347l.043.072a4.509,4.509,0,0,1,.243.4c.012.026.032.069.043.1a3.392,3.392,0,0,1,.172.413.569.569,0,0,1,.033.114,2.378,2.378,0,0,1,.1.435.2.2,0,0,0,.016.1,3.692,3.692,0,0,1,.034.444v3.5a.788.788,0,0,1,0,.139,4.462,4.462,0,0,1-2.552,3.585L259.8,260.394A11.046,11.046,0,0,1,254.294,261.747ZM80.852,159.91a.922.922,0,0,1,.013.173,2.657,2.657,0,0,0,1.6,2.131l167.248,96.565a10.273,10.273,0,0,0,9.14,0l100.564-58.045a2.64,2.64,0,0,0,1.6-2.078v-3.513a1.491,1.491,0,0,0-.021-.221.1.1,0,0,0,0-.029,1.032,1.032,0,0,0-.045-.184.717.717,0,0,1-.029-.1c-.014-.033-.048-.107-.083-.179v-.032c-.041-.072-.084-.142-.131-.209,0,0-.043-.063-.051-.08a1.758,1.758,0,0,0-.153-.183l-.063-.08a4.583,4.583,0,0,0-1.031-.8l-11.35-6.552-3.757,2.169a5.472,5.472,0,0,1-4.979,0l-.756-.44-.082-.043-1.007-.586a2.152,2.152,0,0,1-.008-3.953l2.826-1.628L210.328,106.983l-3.76,2.169a5.457,5.457,0,0,1-4.972,0l-1.847-1.066a2.156,2.156,0,0,1,0-3.962l2.819-1.625-10.417-6.015a10.261,10.261,0,0,0-9.14,0L82.467,154.532a3.732,3.732,0,0,0-.41.265,2.408,2.408,0,0,0-1.2,1.819v3.293ZM362.144,194.77l-.21.026.223-.029Zm-1.708-.925.045.048Z" transform="translate(29.249 35.08)" fill="#1496a3"/>
    <g id="Group_3891" data-name="Group 3891" transform="translate(159.49 138.995)" opacity="0.3">
      <path id="Path_18123" data-name="Path 18123" d="M280,224.69a6.7,6.7,0,0,1-6.055,0L117.51,134.382c-1.674-.961-1.674-2.53,0-3.491l50.38-29.091a6.708,6.708,0,0,1,6.051,0l156.438,90.314c1.669.964,1.678,2.527,0,3.491Z" transform="translate(-116.255 -101.079)"/>
    </g>
    <path id="Path_18124" data-name="Path 18124" d="M132.495,137.146a4.454,4.454,0,0,1-4.033,0l-7.4-4.262a1.23,1.23,0,0,1,0-2.328l5.377-3.1a4.448,4.448,0,0,1,4.03,0l7.4,4.261a1.23,1.23,0,0,1,0,2.329Zm28.238-3.1a1.229,1.229,0,0,0,0-2.328l-18.845-10.872a4.46,4.46,0,0,0-4.036,0l-5.374,3.1a1.229,1.229,0,0,0,0,2.328l18.835,10.874a4.46,4.46,0,0,0,4.036,0Zm-11.42,6.6a1.232,1.232,0,0,0,0-2.331l-5.381-3.1a4.446,4.446,0,0,0-4.033,0l-5.374,3.1a1.227,1.227,0,0,0,0,2.325l5.381,3.109a4.46,4.46,0,0,0,4.03,0Zm11.435,6.6a1.232,1.232,0,0,0,0-2.329l-5.381-3.108a4.46,4.46,0,0,0-4.03,0l-5.375,3.1a1.231,1.231,0,0,0,0,2.331l5.375,3.1a4.454,4.454,0,0,0,4.033,0Zm11.431,6.6a1.227,1.227,0,0,0,0-2.325l-5.392-3.109a4.483,4.483,0,0,0-4.036,0l-5.37,3.1a1.229,1.229,0,0,0,0,2.328l5.384,3.109a4.454,4.454,0,0,0,4.028,0Zm76.392,44.1a1.227,1.227,0,0,0,0-2.325L235.4,188.012a4.454,4.454,0,0,0-4.033,0l-5.378,3.112a1.229,1.229,0,0,0,0,2.328l13.172,7.6a4.426,4.426,0,0,0,4.03,0Zm22.856,0a1.23,1.23,0,0,0,0-2.328l-13.168-7.6a4.465,4.465,0,0,0-4.033,0l-5.389,3.12a1.229,1.229,0,0,0,0,2.328l13.171,7.606a4.466,4.466,0,0,0,4.033,0Zm-42.09-11.105a1.229,1.229,0,0,0,0-2.328l-5.379-3.083a4.448,4.448,0,0,0-4.03,0l-5.375,3.1a1.229,1.229,0,0,0,0,2.327l5.384,3.1a4.465,4.465,0,0,0,4.033,0Zm-11.429-6.585a1.225,1.225,0,0,0,0-2.323l-39.693-22.911a4.488,4.488,0,0,0-4.033,0l-5.371,3.1a1.23,1.23,0,0,0,0,2.328l39.693,22.91a4.454,4.454,0,0,0,4.039,0Zm-31.274-65.373a1.227,1.227,0,0,0,0-2.325l-15.185-8.773a4.471,4.471,0,0,0-4.036,0l-.674.392a1.229,1.229,0,0,0,0,2.328l15.185,8.773a4.46,4.46,0,0,0,4.03,0Zm11.433,6.609a1.228,1.228,0,0,0,0-2.328l-5.381-3.109a4.46,4.46,0,0,0-4.03,0l-.674.377a1.231,1.231,0,0,0,0,2.331l5.381,3.108a4.471,4.471,0,0,0,4.036,0Zm11.437,6.6a1.231,1.231,0,0,0,0-2.331l-5.381-3.1a4.437,4.437,0,0,0-4.03,0l-.677.386a1.23,1.23,0,0,0,0,2.328l5.381,3.106a4.46,4.46,0,0,0,4.03,0Zm11.437,6.6a1.227,1.227,0,0,0,0-2.325l-5.379-3.106a4.449,4.449,0,0,0-4.036,0l-.671.386a1.228,1.228,0,0,0,0,2.328l5.384,3.1a4.437,4.437,0,0,0,4.03,0Zm11.435,6.6a1.232,1.232,0,0,0,0-2.331l-5.384-3.112a4.437,4.437,0,0,0-4.03,0l-.671.386a1.229,1.229,0,0,0,0,2.328l5.384,3.106a4.454,4.454,0,0,0,4.033,0Zm11.431,6.6a1.231,1.231,0,0,0,0-2.331l-5.378-3.1a4.46,4.46,0,0,0-4.036,0l-.672.392a1.229,1.229,0,0,0,0,2.325l5.382,3.106a4.465,4.465,0,0,0,4.033,0Zm11.438,6.6a1.231,1.231,0,0,0,0-2.328l-5.378-3.109a4.483,4.483,0,0,0-4.036,0l-.671.389a1.229,1.229,0,0,0,0,2.328l5.384,3.109a4.46,4.46,0,0,0,4.03,0Zm11.44,6.6a1.23,1.23,0,0,0,0-2.331l-5.378-3.106a4.471,4.471,0,0,0-4.036,0l-.667.386a1.231,1.231,0,0,0,0,2.331l5.379,3.106a4.454,4.454,0,0,0,4.033,0Zm11.437,6.6a1.232,1.232,0,0,0,0-2.331l-5.382-3.106a4.449,4.449,0,0,0-4.036,0l-.686.386a1.23,1.23,0,0,0,0,2.328l5.378,3.109a4.457,4.457,0,0,0,4.03,0Zm11.435,6.6a1.228,1.228,0,0,0,0-2.325l-5.375-3.112a4.471,4.471,0,0,0-4.036,0l-.666.389a1.227,1.227,0,0,0,0,2.328l5.378,3.109a4.46,4.46,0,0,0,4.03,0ZM301,180.9a1.232,1.232,0,0,0,0-2.331l-5.384-3.109a4.466,4.466,0,0,0-4.033,0l-.672.389a1.227,1.227,0,0,0,0,2.325l5.379,3.109a4.46,4.46,0,0,0,4.03,0Zm11.43,6.6a1.227,1.227,0,0,0,0-2.325l-5.381-3.112a4.471,4.471,0,0,0-4.036,0l-.666.389a1.226,1.226,0,0,0,0,2.325l5.381,3.109a4.465,4.465,0,0,0,4.033,0Zm11.437,6.6a1.232,1.232,0,0,0,0-2.331l-5.375-3.1a4.449,4.449,0,0,0-4.036,0l-.668.389a1.229,1.229,0,0,0,0,2.328l5.362,3.1a4.483,4.483,0,0,0,4.036,0Zm-151.706-53.45a1.229,1.229,0,0,0,0-2.328l-5.384-3.106a4.454,4.454,0,0,0-4.033,0l-5.377,3.106a1.23,1.23,0,0,0,0,2.328l5.384,3.106a4.454,4.454,0,0,0,4.033,0Zm11.433,6.6a1.229,1.229,0,0,0,0-2.328l-5.381-3.106a4.471,4.471,0,0,0-4.036,0l-5.373,3.112a1.233,1.233,0,0,0,0,2.334l5.384,3.106a4.471,4.471,0,0,0,4.03,0Zm11.437,6.6a1.229,1.229,0,0,0,0-2.328l-5.381-3.109a4.448,4.448,0,0,0-4.036,0l-5.374,3.1a1.229,1.229,0,0,0,0,2.328l5.379,3.1a4.46,4.46,0,0,0,4.036,0Zm11.434,6.6a1.23,1.23,0,0,0,0-2.328l-5.385-3.106a4.454,4.454,0,0,0-4.033,0l-5.373,3.1a1.233,1.233,0,0,0,0,2.334l5.384,3.106a4.466,4.466,0,0,0,4.033,0Zm11.433,6.6a1.228,1.228,0,0,0,0-2.325l-5.384-3.115a4.454,4.454,0,0,0-4.028,0l-5.375,3.106a1.226,1.226,0,0,0,0,2.325l5.384,3.112a4.465,4.465,0,0,0,4.033,0Zm11.437,6.6a1.23,1.23,0,0,0,0-2.328l-5.386-3.112a4.482,4.482,0,0,0-4.03,0l-5.377,3.1a1.23,1.23,0,0,0,0,2.328l5.385,3.109a4.468,4.468,0,0,0,4.035,0Zm11.437,6.6a1.229,1.229,0,0,0,0-2.325l-5.382-3.106a4.437,4.437,0,0,0-4.03,0l-5.375,3.1a1.228,1.228,0,0,0,0,2.325l5.384,3.106a4.454,4.454,0,0,0,4.033,0Zm11.433,6.6a1.23,1.23,0,0,0,0-2.331l-5.384-3.106a4.448,4.448,0,0,0-4.036,0l-5.37,3.1a1.231,1.231,0,0,0,0,2.331l5.381,3.106a4.465,4.465,0,0,0,4.033,0Zm-50.8-42.516a1.228,1.228,0,0,0,0-2.328l-5.378-3.106a4.46,4.46,0,0,0-4.03,0l-5.377,3.1a1.231,1.231,0,0,0,0,2.331L192,147.454a4.477,4.477,0,0,0,4.033,0Zm11.438,6.6a1.227,1.227,0,0,0,0-2.325l-5.384-3.106a4.46,4.46,0,0,0-4.036,0l-5.373,3.1a1.233,1.233,0,0,0,0,2.334l5.378,3.1a4.443,4.443,0,0,0,4.033,0Zm11.434,6.6a1.228,1.228,0,0,0,0-2.325l-5.386-3.1a4.448,4.448,0,0,0-4.03,0l-5.374,3.1a1.231,1.231,0,0,0,0,2.331l5.382,3.093a4.454,4.454,0,0,0,4.033,0Zm11.431,6.6a1.226,1.226,0,0,0,0-2.325l-5.381-3.109a4.448,4.448,0,0,0-4.03,0l-5.377,3.1a1.232,1.232,0,0,0,0,2.331l5.384,3.109a4.474,4.474,0,0,0,4.03,0Zm11.435,6.6a1.229,1.229,0,0,0,0-2.328l-5.381-3.1a4.46,4.46,0,0,0-4.036,0l-5.373,3.1a1.231,1.231,0,0,0,0,2.328l5.384,3.109a4.442,4.442,0,0,0,4.028,0Zm11.44,6.6a1.23,1.23,0,0,0,0-2.328l-5.386-3.106a4.451,4.451,0,0,0-4.028,0l-5.386,3.112a1.228,1.228,0,0,0,0,2.328l5.381,3.109a4.46,4.46,0,0,0,4.03,0Zm11.429,6.6a1.23,1.23,0,0,0,0-2.331l-5.379-3.1a4.468,4.468,0,0,0-4.035,0l-5.36,3.1a1.229,1.229,0,0,0,0,2.328l5.381,3.109a4.471,4.471,0,0,0,4.036,0Zm11.435,6.6a1.229,1.229,0,0,0,0-2.328l-5.378-3.1a4.46,4.46,0,0,0-4.036,0l-5.37,3.1a1.229,1.229,0,0,0,0,2.328l5.381,3.106a4.46,4.46,0,0,0,4.03,0Zm24.272,14.012a1.227,1.227,0,0,0,0-2.325L287.5,191.729a4.448,4.448,0,0,0-4.03,0l-5.377,3.1a1.228,1.228,0,0,0,0,2.328l18.216,10.517a4.483,4.483,0,0,0,4.036,0Zm-11.423,6.594a1.226,1.226,0,0,0,0-2.325l-5.382-3.109a4.477,4.477,0,0,0-4.033,0l-5.375,3.1a1.23,1.23,0,0,0,0,2.328l5.384,3.1a4.443,4.443,0,0,0,4.033,0Zm-11.418,6.6a1.23,1.23,0,0,0,0-2.328l-5.385-3.1a4.448,4.448,0,0,0-4.03,0l-5.378,3.1a1.231,1.231,0,0,0,0,2.328l5.389,3.094a4.471,4.471,0,0,0,4.03,0Zm-11.434-6.6a1.232,1.232,0,0,0,0-2.331l-5.381-3.1a4.454,4.454,0,0,0-4.028,0l-5.377,3.1a1.23,1.23,0,0,0,0,2.331l5.379,3.106a4.446,4.446,0,0,0,4.033,0Zm11.42-6.594a1.231,1.231,0,0,0,0-2.331l-5.384-3.106a4.465,4.465,0,0,0-4.033,0l-5.371,3.1a1.229,1.229,0,0,0,0,2.328l5.382,3.109a4.454,4.454,0,0,0,4.033,0Zm-22.854,0a1.228,1.228,0,0,0,0-2.325l-5.381-3.106a4.454,4.454,0,0,0-4.033,0l-5.373,3.1a1.231,1.231,0,0,0,0,2.331l5.378,3.106a4.449,4.449,0,0,0,4.036,0Zm-92.91-80.022a1.228,1.228,0,0,0,0-2.328l-13.786-7.959a4.431,4.431,0,0,0-4.03,0l-5.374,3.1a1.228,1.228,0,0,0,0,2.328l13.788,7.962a4.465,4.465,0,0,0,4.033,0Zm11.437,6.6a1.229,1.229,0,0,0,0-2.328l-5.379-3.106a4.46,4.46,0,0,0-4.03,0l-5.378,3.1a1.232,1.232,0,0,0,0,2.331l5.384,3.1a4.448,4.448,0,0,0,4.03,0Zm11.433,6.594a1.229,1.229,0,0,0,0-2.329l-5.378-3.105a4.46,4.46,0,0,0-4.036,0l-5.373,3.1a1.232,1.232,0,0,0,0,2.332l5.381,3.1a4.454,4.454,0,0,0,4.033,0Zm40.679,10.309a1.23,1.23,0,0,0,0-2.331l-5.381-3.1a4.437,4.437,0,0,0-4.03,0l-5.379,3.1a1.231,1.231,0,0,0,0,2.328l5.382,3.111a4.457,4.457,0,0,0,4.03,0Zm11.437,6.6a1.228,1.228,0,0,0,0-2.328l-5.388-3.109a4.46,4.46,0,0,0-4.025,0l-5.375,3.1a1.23,1.23,0,0,0,0,2.331l5.381,3.1a4.443,4.443,0,0,0,4.036,0Zm11.438,6.6a1.228,1.228,0,0,0,0-2.325l-5.384-3.109a4.448,4.448,0,0,0-4.025,0l-5.395,3.1a1.229,1.229,0,0,0,0,2.328l5.381,3.106a4.46,4.46,0,0,0,4.03,0Zm11.431,6.606a1.231,1.231,0,0,0,0-2.331l-5.386-3.106a4.46,4.46,0,0,0-4.025,0l-5.368,3.1a1.229,1.229,0,0,0,0,2.328l5.378,3.106a4.443,4.443,0,0,0,4.033,0Zm11.434,6.6a1.233,1.233,0,0,0,0-2.334L271,169.016a4.483,4.483,0,0,0-4.03,0l-5.378,3.1a1.232,1.232,0,0,0,0,2.331l5.375,3.1a4.463,4.463,0,0,0,4.033,0Zm11.435,6.6a1.228,1.228,0,0,0,0-2.325l-5.378-3.109a4.465,4.465,0,0,0-4.033,0l-5.374,3.106a1.228,1.228,0,0,0,0,2.325l5.374,3.1a4.44,4.44,0,0,0,4.03,0Zm11.437,6.6a1.231,1.231,0,0,0,0-2.329l-5.384-3.1a4.454,4.454,0,0,0-4.033,0l-5.377,3.1a1.229,1.229,0,0,0,0,2.327l5.4,3.1a4.46,4.46,0,0,0,4.03,0Zm17.878,10.324a1.229,1.229,0,0,0,0-2.328l-11.821-6.827a4.454,4.454,0,0,0-4.033,0l-5.378,3.1a1.228,1.228,0,0,0,0,2.325l11.827,6.83a4.454,4.454,0,0,0,4.033,0ZM207.781,134.846a1.233,1.233,0,0,0,0-2.331l-5.379-3.1a4.454,4.454,0,0,0-4.033,0l-5.373,3.1a1.23,1.23,0,0,0,0,2.328l5.375,3.1a4.432,4.432,0,0,0,4.033,0Zm11.43,6.6a1.234,1.234,0,0,0,0-2.334l-5.384-3.1a4.448,4.448,0,0,0-4.03,0l-5.373,3.1a1.227,1.227,0,0,0,0,2.325l5.381,3.109a4.471,4.471,0,0,0,4.03,0Zm-45.734-26.411a1.231,1.231,0,0,0,0-2.328l-8.749-5.048a4.471,4.471,0,0,0-4.036,0l-5.36,3.1a1.229,1.229,0,0,0,0,2.328l8.743,5.048a4.465,4.465,0,0,0,4.033,0Zm11.424,6.6a1.23,1.23,0,0,0,0-2.328l-5.378-3.106a4.46,4.46,0,0,0-4.036,0l-5.37,3.1a1.229,1.229,0,0,0,0,2.328l5.381,3.106a4.46,4.46,0,0,0,4.03,0Zm11.456,6.6a1.23,1.23,0,0,0,0-2.328l-5.4-3.093a4.448,4.448,0,0,0-4.03,0l-5.374,3.1a1.229,1.229,0,0,0,0,2.328l5.382,3.093a4.465,4.465,0,0,0,4.033,0Z" transform="translate(44.725 38.749)" fill="#dbf4f7"/>
    <g id="Group_3892" data-name="Group 3892" transform="translate(176.938 204.751)" opacity="0.3">
      <path id="Path_18125" data-name="Path 18125" d="M182.379,196.673a6.683,6.683,0,0,1-6.051,0L130.2,170.033c-1.674-.967-1.676-2.527,0-3.493l29.3-16.921a6.7,6.7,0,0,1,6.049,0l46.13,26.639c1.672.968,1.678,2.532,0,3.5Z" transform="translate(-128.944 -148.897)"/>
    </g>
    <g id="Group_3893" data-name="Group 3893" transform="translate(176.95 204.756)" opacity="0.2">
      <path id="Path_18126" data-name="Path 18126" d="M130.194,167.713l29.3-16.921a6.7,6.7,0,0,1,6.049,0l46.13,26.639A2.532,2.532,0,0,1,212.8,178.6c.336-.813-.023-1.7-1.123-2.334l-46.13-26.64a6.68,6.68,0,0,0-6.049,0l-29.3,16.922c-1.1.631-1.458,1.518-1.119,2.328A2.5,2.5,0,0,1,130.194,167.713Z" transform="translate(-128.952 -148.901)"/>
    </g>
    <g id="Group_3894" data-name="Group 3894" transform="translate(297.787 236.897)" opacity="0.3">
      <path id="Path_18127" data-name="Path 18127" d="M296.056,176.351a1.528,1.528,0,0,1-.206.681,1.544,1.544,0,0,1-.488.518l-9.59,5.535c-.381.221-.7.043-.7-.395a1.555,1.555,0,0,1,.2-.686,1.539,1.539,0,0,1,.494-.52l9.59-5.528c.384-.221.7-.045.7.395Zm2.984-2.526a1.531,1.531,0,0,0-.492.518,1.506,1.506,0,0,0-.2.686c0,.444.308.623.689.4a1.507,1.507,0,0,0,.69-1.2C299.731,173.785,299.418,173.609,299.04,173.825Zm2.529-1.459a1.534,1.534,0,0,0-.693,1.2c0,.446.3.624.7.4a1.516,1.516,0,0,0,.689-1.194c0-.44-.307-.623-.685-.4Zm-73.76,43.388a1.565,1.565,0,0,1-.7,1.2l-9.591,5.536c-.381.221-.692.04-.694-.4a1.538,1.538,0,0,1,.2-.683,1.558,1.558,0,0,1,.49-.517l9.591-5.531c.381-.224.7-.048.7.395Z" transform="translate(-216.826 -172.274)"/>
    </g>
    <path id="Path_18128" data-name="Path 18128" d="M143.482,221.5a5.034,5.034,0,0,1-4.559,0l-10.975-6.341a1.388,1.388,0,0,1,0-2.629l28.446-16.423a5.025,5.025,0,0,1,4.559,0l10.975,6.335c1.26.73,1.26,1.9,0,2.632Zm53.1-8.333c1.258-.725,1.255-1.9,0-2.629L185.61,204.2a5.025,5.025,0,0,0-4.559,0L147.27,223.692a1.39,1.39,0,0,0,0,2.632l10.978,6.335a5,5,0,0,0,4.559,0ZM203,231.793a1.39,1.39,0,0,0,0-2.632l-10.975-6.328a5.017,5.017,0,0,0-4.559,0l-20.845,12.03a1.392,1.392,0,0,0,0,2.635l10.975,6.335a5.045,5.045,0,0,0,4.556,0Z" transform="translate(47.267 73.359)" fill="rgba(17,26,36,0.05)"/>
    <path id="Path_18129" data-name="Path 18129" d="M149.1,201.806a1.6,1.6,0,0,0-.952-1.319l-10.972-6.338a5.025,5.025,0,0,0-4.559,0l-10.957,6.33a1.59,1.59,0,0,0-.941,1.332v17.545a1.592,1.592,0,0,0,.943,1.31l10.976,6.339a5.048,5.048,0,0,0,4.557,0l10.962-6.33a1.6,1.6,0,0,0,.943-1.331Z" transform="translate(44.908 72.624)" fill="#fff"/>
    <path id="Path_18130" data-name="Path 18130" d="M145.225,199.5a1.537,1.537,0,0,1-.932,1.392l-10.971,6.334a4.669,4.669,0,0,1-2.285.534v17.582a4.636,4.636,0,0,0,2.285-.534l10.962-6.33a1.6,1.6,0,0,0,.943-1.331V199.606C145.225,199.563,145.225,199.54,145.225,199.5Z" transform="translate(48.78 74.838)" fill="rgba(20,150,163,0.22)"/>
    <g id="Group_3895" data-name="Group 3895" transform="translate(165.623 274.427)" opacity="0.5">
      <path id="Path_18131" data-name="Path 18131" d="M132.636,207.2l-10.978-6.332a1.6,1.6,0,0,1-.943-1.3v17.545a1.59,1.59,0,0,0,.943,1.31l10.975,6.341a4.7,4.7,0,0,0,2.273.532V207.742A4.708,4.708,0,0,1,132.636,207.2Z" transform="translate(-120.715 -199.566)" fill="rgba(33,189,202,0.16)"/>
    </g>
    <path id="Path_18132" data-name="Path 18132" d="M135.072,228.276a5.226,5.226,0,0,1-2.565-.623l-10.979-6.332a2.125,2.125,0,0,1-1.231-1.808V201.967a2.166,2.166,0,0,1,1.231-1.825l10.96-6.327a5.574,5.574,0,0,1,5.133,0l10.973,6.338a2.169,2.169,0,0,1,1.236,1.811v17.591a2.144,2.144,0,0,1-1.229,1.771l-10.964,6.33A5.217,5.217,0,0,1,135.072,228.276Zm-.018-33.943a4.069,4.069,0,0,0-1.99.469L122.1,201.133c-.418.241-.656.534-.653.821V219.5c0,.282.241.58.656.82l10.978,6.327a4.468,4.468,0,0,0,3.982,0l10.965-6.328c.424-.246.656-.534.656-.824V201.951c0-.282-.241-.58-.659-.82l-10.975-6.341A4.092,4.092,0,0,0,135.054,194.333Z" transform="translate(44.752 72.469)" fill="#1496a3"/>
    <path id="Path_18133" data-name="Path 18133" d="M163.162,200.982a1.606,1.606,0,0,0-.946-1.316l-10.975-6.335a5.042,5.042,0,0,0-4.559,0l-10.965,6.33a1.592,1.592,0,0,0-.939,1.332v29.836a1.6,1.6,0,0,0,.942,1.31l10.976,6.335a5,5,0,0,0,4.559,0l10.964-6.33a1.591,1.591,0,0,0,.941-1.331Z" transform="translate(50.183 72.318)" fill="#21bdca"/>
    <path id="Path_18134" data-name="Path 18134" d="M159.279,198.692a1.54,1.54,0,0,1-.932,1.393l-10.965,6.33a4.65,4.65,0,0,1-2.283.549V236.8a4.613,4.613,0,0,0,2.283-.532l10.965-6.33a1.591,1.591,0,0,0,.941-1.332V198.769A.728.728,0,0,0,159.279,198.692Z" transform="translate(54.055 74.533)" fill="#097c88"/>
    <g id="Group_3896" data-name="Group 3896" transform="translate(184.961 273.297)" opacity="0.23">
      <path id="Path_18135" data-name="Path 18135" d="M146.7,206.392l-10.976-6.341a1.61,1.61,0,0,1-.942-1.308V228.58a1.6,1.6,0,0,0,.942,1.31l10.976,6.335a4.619,4.619,0,0,0,2.274.549V206.938A4.746,4.746,0,0,1,146.7,206.392Z" transform="translate(-134.778 -198.744)"/>
    </g>
    <path id="Path_18136" data-name="Path 18136" d="M149.135,239.742a5.226,5.226,0,0,1-2.571-.627l-10.972-6.337a2.128,2.128,0,0,1-1.231-1.8V201.138a2.143,2.143,0,0,1,1.225-1.819l10.965-6.33a5.6,5.6,0,0,1,5.133,0l10.975,6.338a2.164,2.164,0,0,1,1.231,1.808v29.836a.67.67,0,0,1,0,.074,2.161,2.161,0,0,1-1.225,1.742L151.7,239.123A5.2,5.2,0,0,1,149.135,239.742Zm-.022-46.23a4.1,4.1,0,0,0-1.987.466l-10.965,6.337c-.418.243-.657.534-.655.824v29.836c0,.283.239.582.657.824l10.976,6.335a4.488,4.488,0,0,0,4,0l10.957-6.332c.415-.241.652-.534.652-.818a.288.288,0,0,1,0-.069v-29.77c0-.282-.239-.58-.657-.821l-10.979-6.337a4.094,4.094,0,0,0-2-.469Z" transform="translate(50.027 72.16)" fill="#1496a3"/>
    <path id="Path_18137" data-name="Path 18137" d="M177.223,220.579a1.6,1.6,0,0,0-.943-1.313L165.3,212.931a5.028,5.028,0,0,0-4.556,0l-10.965,6.327a1.6,1.6,0,0,0-.943,1.332v14.028a1.591,1.591,0,0,0,.949,1.308l10.976,6.343a5.059,5.059,0,0,0,4.554,0l10.962-6.319a1.593,1.593,0,0,0,.943-1.333Z" transform="translate(55.458 79.67)" fill="#fff"/>
    <path id="Path_18138" data-name="Path 18138" d="M173.34,218.284a1.545,1.545,0,0,1-.932,1.39l-10.962,6.335a4.7,4.7,0,0,1-2.285.532v14.041a4.638,4.638,0,0,0,2.285-.532l10.962-6.316a1.6,1.6,0,0,0,.943-1.332V218.364C173.351,218.342,173.34,218.316,173.34,218.284Z" transform="translate(59.33 81.883)" fill="rgba(20,150,163,0.22)"/>
    <g id="Group_3897" data-name="Group 3897" transform="translate(204.296 300.249)" opacity="0.5">
      <path id="Path_18139" data-name="Path 18139" d="M160.762,225.99l-10.975-6.335a1.613,1.613,0,0,1-.949-1.311v14.039a1.591,1.591,0,0,0,.949,1.308l10.975,6.343a4.659,4.659,0,0,0,2.27.532V226.525A4.647,4.647,0,0,1,160.762,225.99Z" transform="translate(-148.838 -218.344)" fill="rgba(33,189,202,0.16)"/>
    </g>
    <path id="Path_18140" data-name="Path 18140" d="M163.194,243.548a5.252,5.252,0,0,1-2.563-.62l-10.975-6.343a2.151,2.151,0,0,1-1.233-1.8V220.742a2.153,2.153,0,0,1,1.225-1.822l10.967-6.33a5.627,5.627,0,0,1,5.131,0l10.976,6.335a2.133,2.133,0,0,1,1.231,1.811v14.043a2.145,2.145,0,0,1-1.228,1.811l-10.962,6.332A5.258,5.258,0,0,1,163.194,243.548Zm-.019-30.427a4.111,4.111,0,0,0-1.987.463l-10.965,6.327c-.415.245-.655.532-.655.825v14.043c0,.285.242.58.657.817l10.978,6.343a4.524,4.524,0,0,0,4,0l10.962-6.332c.418-.242.659-.532.656-.815V220.747c0-.267-.241-.578-.659-.82L165.183,213.6A4.091,4.091,0,0,0,163.174,213.121Z" transform="translate(55.301 79.514)" fill="#1496a3"/>
    <path id="Path_18141" data-name="Path 18141" d="M144.41,44.788c1.386-.8,2.507-.154,2.507,1.444v9.641a5.535,5.535,0,0,1-2.51,4.34l-53.3,30.777V75.565Z" transform="translate(33.802 16.672)" fill="#fff"/>
    <path id="Path_18142" data-name="Path 18142" d="M91.036,91.355a.32.32,0,0,1-.16-.28V75.651a.314.314,0,0,1,.16-.266L144.346,44.6a1.84,1.84,0,0,1,2.99,1.721V55.96a5.91,5.91,0,0,1-2.664,4.617L91.355,91.355a.343.343,0,0,1-.16.043A.334.334,0,0,1,91.036,91.355Zm53.631-46.2L91.515,75.838V90.522l52.831-30.5a5.185,5.185,0,0,0,2.347-4.063V46.319a1.426,1.426,0,0,0-.573-1.332.985.985,0,0,0-.5-.125A1.967,1.967,0,0,0,144.667,45.152Z" transform="translate(33.715 16.584)" fill="#21bdca"/>
    <path id="Path_18143" data-name="Path 18143" d="M76.74,79.027l20.7-11.953V82.5L76.74,94.451c-1.388.8-2.507.155-2.509-1.444V83.366A5.534,5.534,0,0,1,76.74,79.027Z" transform="translate(27.471 25.161)" fill="#fff"/>
    <path id="Path_18144" data-name="Path 18144" d="M74.891,94.993A2.055,2.055,0,0,1,74,93.1V83.455a5.815,5.815,0,0,1,2.664-4.617l20.7-11.953a.312.312,0,0,1,.32,0,.32.32,0,0,1,.16.267V82.576a.328.328,0,0,1-.16.28l-20.7,11.95a2.6,2.6,0,0,1-1.279.4A1.6,1.6,0,0,1,74.891,94.993ZM97.207,67.717,76.987,79.393a5.231,5.231,0,0,0-2.347,4.063V93.1a1.433,1.433,0,0,0,.573,1.332,1.5,1.5,0,0,0,1.457-.176L97.207,82.416Z" transform="translate(27.384 25.074)" fill="#21bdca"/>
    <path id="Path_18145" data-name="Path 18145" d="M101.2,78.355a3.977,3.977,0,0,1,1.8-3.122c1-.573,1.8-.109,1.8,1.039a3.969,3.969,0,0,1-1.8,3.117C102.006,79.967,101.2,79.5,101.2,78.355ZM111.49,74.49a3.966,3.966,0,0,0,1.8-3.117c0-1.148-.8-1.612-1.8-1.039a3.992,3.992,0,0,0-1.8,3.12C109.69,74.6,110.494,75.065,111.49,74.49Zm8.49-4.9a3.994,3.994,0,0,0,1.8-3.117c0-1.151-.8-1.614-1.8-1.039a3.981,3.981,0,0,0-1.811,3.119C118.169,69.7,118.987,70.171,119.98,69.591Zm8.487-4.9a4,4,0,0,0,1.8-3.12c0-1.151-.8-1.614-1.8-1.039a3.993,3.993,0,0,0-1.8,3.119C126.667,64.8,127.472,65.262,128.467,64.692Zm8.49-4.91a3.983,3.983,0,0,0,1.8-3.119c0-1.148-.8-1.614-1.8-1.039a3.993,3.993,0,0,0-1.806,3.119C135.157,59.9,135.962,60.363,136.957,59.782Zm8.487-4.9a3.969,3.969,0,0,0,1.8-3.117c0-1.148-.8-1.614-1.8-1.039a3.975,3.975,0,0,0-1.8,3.12c0,1.145.8,1.622,1.8,1.044ZM79.219,89.618l8.074-4.662a4.875,4.875,0,0,1,1.886-2.27c1.241-.717,2.248-.136,2.251,1.3a4.972,4.972,0,0,1-2.251,3.9c-.8.458-1.484.386-1.886-.091l-1.961,1.13c0-.5-.352-.7-.8-.45a1.721,1.721,0,0,0-.781,1.356l-1.569.906c0-.5-.352-.7-.783-.453a1.737,1.737,0,0,0-.783,1.356l-1.412.815a1.215,1.215,0,0,1-.16.075c0-.485-.354-.682-.781-.437a1.444,1.444,0,0,0-.189.155,1.191,1.191,0,0,1-.1-.5,2.727,2.727,0,0,1,1.241-2.126Zm9.961-3.381A1.835,1.835,0,0,0,90,84.81c0-.533-.37-.741-.823-.477a1.819,1.819,0,0,0-.826,1.428c0,.538.368.751.826.488Z" transform="translate(28.876 18.934)" fill="rgba(20,150,163,0.22)"/>
    <path id="Path_18146" data-name="Path 18146" d="M233.547,106.051c0,.948-.677,1.332-1.5.858L175.513,74.27a3.3,3.3,0,0,1-1.5-2.6c0-.946.671-1.332,1.493-.852l56.545,32.639a3.321,3.321,0,0,1,1.5,2.592Zm-20.778-5.1a3.28,3.28,0,0,0-1.495-2.587L175.507,77.709c-.822-.474-1.5-.085-1.5.858a3.314,3.314,0,0,0,1.5,2.6l35.756,20.646c.821.477,1.489.085,1.495-.863ZM199.874,62.415l-24.359-14.06c-.836-.485-1.507-.093-1.5.858v6.926a3.309,3.309,0,0,0,1.5,2.6L199.869,72.81c.826.474,1.5.085,1.5-.874V65.01a3.3,3.3,0,0,0-1.5-2.595Zm29.452,17L204.953,65.353c-.826-.487-1.5-.088-1.5.863v6.926a3.327,3.327,0,0,0,1.5,2.6l24.362,14.063c.82.474,1.5.088,1.5-.871V82.008a3.327,3.327,0,0,0-1.488-2.589Zm29.437,17L234.41,82.357c-.835-.485-1.5-.1-1.508.858v6.926a3.329,3.329,0,0,0,1.508,2.605l24.353,14.068c.826.474,1.506.09,1.495-.876V99.02a3.3,3.3,0,0,0-1.495-2.6Zm29.444,17L263.849,99.351c-.825-.474-1.495-.09-1.5.871v6.926a3.338,3.338,0,0,0,1.5,2.6l24.36,14.061c.828.479,1.5.092,1.5-.866v-6.926a3.286,3.286,0,0,0-1.492-2.595Zm1.5-29.173c0,.954-.666,1.332-1.492.869L270.8,75.066a3.342,3.342,0,0,1-1.495-2.6c0-.951.666-1.332,1.5-.858l17.406,10.054a3.282,3.282,0,0,1,1.492,2.587Zm0,6.9c0,.954-.666,1.332-1.492.866l-27.8-16.053a3.316,3.316,0,0,1-1.495-2.6c0-.943.664-1.332,1.495-.858l27.806,16.053a3.287,3.287,0,0,1,1.492,2.589Z" transform="translate(64.9 18.061)" fill="#21bdca"/>
    <path id="Path_18147" data-name="Path 18147" d="M207.7,47.741c0,.951-.667,1.332-1.489.868L188.792,38.559a3.334,3.334,0,0,1-1.495-2.6c0-.951.664-1.332,1.5-.858l17.409,10.054a3.29,3.29,0,0,1,1.489,2.587Zm0,6.9c0,.956-.667,1.332-1.489.866L178.4,39.454a3.31,3.31,0,0,1-1.495-2.595c0-.943.666-1.332,1.495-.858l27.809,16.053a3.291,3.291,0,0,1,1.489,2.587Z" transform="translate(65.986 13.091)" fill="#21bdca"/>
    <path id="Path_18148" data-name="Path 18148" d="M128.632,31.525c-2.694,1.556-4.414,3.889-4.542,5.861a10.708,10.708,0,0,0-.2,2.115V176.988c0,5.961,4.191,13.215,9.359,16.2L182,221.337a10.467,10.467,0,0,0,2.043.913c1.782.755,4.546.4,7.138-1.1a10.859,10.859,0,0,0,3.232-2.771,7.54,7.54,0,0,0,1.634-5.137V75.752c0-5.962-4.2-13.216-9.365-16.2L137.929,31.406a10.375,10.375,0,0,0-1.958-.89C134.2,29.647,131.316,29.972,128.632,31.525Z" transform="translate(46.098 11.27)" fill="#19acb8"/>
    <path id="Path_18149" data-name="Path 18149" d="M195.992,75.754c0-5.962-4.2-13.216-9.365-16.2L137.878,31.407a10.423,10.423,0,0,0-1.958-.89c-1.77-.869-4.647-.533-7.336,1.01s-4.416,3.889-4.542,5.861c.89-4.382,4.651-5.89,9.158-3.287L181.95,62.25c5.172,2.984,9.362,10.235,9.362,16.2v137.5c0,5.155-3.135,7.648-7.327,6.3,1.782.755,4.548.4,7.14-1.1a10.854,10.854,0,0,0,3.232-2.77,7.544,7.544,0,0,0,1.634-5.139Z" transform="translate(46.156 11.271)" fill="#097c88"/>
    <path id="Path_18150" data-name="Path 18150" d="M186.294,223.326a5.934,5.934,0,0,1-2.32-.43,10.911,10.911,0,0,1-2.1-.943L133.122,193.8c-5.312-3.069-9.63-10.547-9.627-16.671V39.644a11.335,11.335,0,0,1,.2-2.187c.165-2.208,2.049-4.659,4.812-6.255s5.815-2,7.808-1.042a11.085,11.085,0,0,1,2.027.922L187.1,59.23C192.4,62.3,196.73,69.774,196.73,75.9V213.389a8.064,8.064,0,0,1-1.773,5.5,11.4,11.4,0,0,1-3.364,2.877A10.908,10.908,0,0,1,186.294,223.326ZM133.83,30.723a9.89,9.89,0,0,0-4.781,1.409c-2.438,1.407-4.156,3.586-4.275,5.424a.339.339,0,0,1,0,.075,10.024,10.024,0,0,0-.2,2.006v137.5c0,5.777,4.073,12.837,9.087,15.733l48.751,28.147a10.208,10.208,0,0,0,1.939.868c1.731.73,4.345.309,6.705-1.064a10.377,10.377,0,0,0,3.072-2.631,7.06,7.06,0,0,0,1.521-4.81V75.9c0-5.781-4.079-12.838-9.1-15.733L137.809,32.02a9.849,9.849,0,0,0-1.865-.844l-.07-.029a4.657,4.657,0,0,0-2.043-.416Z" transform="translate(45.951 11.121)" fill="#1496a3"/>
    <path id="Path_18151" data-name="Path 18151" d="M123.817,39.383V176.872c0,5.357,3.777,11.9,8.425,14.582L180.993,219.6c4.641,2.68,8.424.5,8.424-4.856V77.256c0-5.357-3.777-11.9-8.424-14.58L132.242,34.529C127.594,31.846,123.814,34.025,123.817,39.383Z" transform="translate(46.072 12.522)" fill="#cbe8eb"/>
    <path id="Path_18152" data-name="Path 18152" d="M180.349,64.555,131.6,36.405c-3.351-1.934-6.081-.362-6.078,3.506V177.4A13.456,13.456,0,0,0,131.6,187.93l48.751,28.147c3.362,1.939,6.079.364,6.079-3.5V75.086A13.423,13.423,0,0,0,180.349,64.555Z" transform="translate(46.71 13.346)" fill="#fff"/>
    <path id="Path_18153" data-name="Path 18153" d="M182.43,163.2V131.536a6.207,6.207,0,0,0-2.8-4.86l-54.11-31.239v38.145l54.1,31.24C181.17,165.729,182.43,164.992,182.43,163.2Z" transform="translate(46.71 35.8)" fill="rgba(33,189,202,0.16)"/>
    <path id="Path_18154" data-name="Path 18154" d="M184.894,221.441a8.155,8.155,0,0,1-4.025-1.225l-48.751-28.134c-4.8-2.771-8.7-9.524-8.695-15.051V39.531c0-2.789.969-4.888,2.736-5.909s4.076-.8,6.5.589l48.752,28.137c4.8,2.765,8.693,9.516,8.693,15.046v137.5c0,2.791-.974,4.89-2.736,5.908A4.868,4.868,0,0,1,184.894,221.441ZM128.629,34.068a3.8,3.8,0,0,0-1.929.493c-1.418.818-2.195,2.584-2.195,4.971V177.021c0,5.184,3.658,11.517,8.157,14.118l48.749,28.147c2.072,1.2,4,1.4,5.414.586s2.195-2.584,2.195-4.972V77.4c0-5.187-3.658-11.516-8.152-14.119L132.118,35.139A7.2,7.2,0,0,0,128.629,34.068Z" transform="translate(45.924 12.375)" fill="#1496a3"/>
    <path id="Path_18155" data-name="Path 18155" d="M151.666,53.539a.347.347,0,0,1-.568.325l-7.84-4.529a1.265,1.265,0,0,1-.4-.423,1.283,1.283,0,0,1-.168-.557c0-.362.267-.506.568-.328l7.837,4.529a1.257,1.257,0,0,1,.571.983Zm2.437.751c-.314-.181-.567-.035-.567.328a1.235,1.235,0,0,0,.564.978c.312.181.571.037.568-.325a1.252,1.252,0,0,0-.571-.98Zm2.071,1.193c-.318-.178-.568-.032-.568.328a1.237,1.237,0,0,0,.568.98c.311.184.561.035.561-.325a1.255,1.255,0,0,0-.561-.983Z" transform="translate(53.152 17.987)" fill="#cbe8eb"/>
    <path id="Path_18156" data-name="Path 18156" d="M174.722,91.9l.917.533a.89.89,0,0,0,.894-.091,2.788,2.788,0,0,0,1.258-2.176V76.207a.876.876,0,0,0-.369-.812l-.919-.533h-.018a.9.9,0,0,0-.872.1,2.775,2.775,0,0,0-1.257,2.179V91.094a.9.9,0,0,0,.351.8h.019Z" transform="translate(65.029 28.056)" fill="#cbe8eb"/>
    <path id="Path_18157" data-name="Path 18157" d="M176.112,93.208a1.194,1.194,0,0,1-.6-.155l-.913-.533a.261.261,0,0,1-.065-.04,1.438,1.438,0,0,1-.583-1.244V77.285a3.342,3.342,0,0,1,1.526-2.648,1.44,1.44,0,0,1,1.331-.139l.081.035.945.546a1.4,1.4,0,0,1,.639,1.284V90.317a3.339,3.339,0,0,1-1.529,2.645A1.662,1.662,0,0,1,176.112,93.208Zm-.957-1.6.9.519c.051.027.182.013.352-.088a2.268,2.268,0,0,0,.991-1.71V76.361c0-.213-.059-.322-.1-.346l-.881-.509-.051-.024a.5.5,0,0,0-.344.093,2.264,2.264,0,0,0-.983,1.71V91.239c0,.221.065.322.1.344Z" transform="translate(64.877 27.908)" fill="#1496a3"/>
    <g id="Group_3898" data-name="Group 3898" transform="translate(183.209 44.923)" opacity="0.1">
      <path id="Path_18158" data-name="Path 18158" d="M137.68,33.084a3.816,3.816,0,0,0-3.464,0,1.053,1.053,0,0,0,0,1.993,3.815,3.815,0,0,0,3.464,0A1.053,1.053,0,0,0,137.68,33.084Zm-.448,1.907a2.833,2.833,0,0,1-2.556,0,.781.781,0,0,1,0-1.479,2.816,2.816,0,0,1,2.556,0A.781.781,0,0,1,137.232,34.992Z" transform="translate(-133.504 -32.668)"/>
    </g>
    <g id="Group_3899" data-name="Group 3899" transform="translate(183.852 45.462)" opacity="0.2">
      <path id="Path_18159" data-name="Path 18159" d="M134.5,33.367a2.819,2.819,0,0,1,2.558,0,.778.778,0,0,1,0,1.473,2.836,2.836,0,0,1-2.558,0A.778.778,0,0,1,134.5,33.367Z" transform="translate(-133.971 -33.061)"/>
    </g>
    <path id="Path_18160" data-name="Path 18160" d="M123.641,119.01l-4.3-2.486c-.392-.227-.7-.043-.707.406V129.91a1.562,1.562,0,0,0,.206.694,1.542,1.542,0,0,0,.5.525l4.3,2.485c.386.224.7.043.7-.41V120.216a1.543,1.543,0,0,0-.7-1.206Zm7.665-1.21-4.3-2.488c-.389-.224-.705-.043-.705.4v18.619A1.552,1.552,0,0,0,127,135.55l4.3,2.485c.389.23.705.045.7-.4V119.017a1.57,1.57,0,0,0-.7-1.217Zm7.669,15.7-4.3-2.485c-.389-.224-.7-.043-.707.407v7.342a1.559,1.559,0,0,0,.707,1.218l4.3,2.485c.386.227.7.045.7-.4v-7.345a1.574,1.574,0,0,0-.7-1.22Zm7.668-13.282-4.3-2.5c-.389-.224-.7-.043-.7.4v25.068a1.551,1.551,0,0,0,.206.692,1.521,1.521,0,0,0,.5.523l4.3,2.486c.386.226.7.043.7-.406V121.42a1.56,1.56,0,0,0-.708-1.2Zm7.666,16.517L150,134.245c-.388-.221-.705-.043-.7.4v12.984a1.543,1.543,0,0,0,.2.694,1.564,1.564,0,0,0,.5.524l4.305,2.488c.386.224.7.04.7-.407v-13a1.519,1.519,0,0,0-.2-.693,1.538,1.538,0,0,0-.5-.525Zm15.328,8.85-4.3-2.486c-.392-.224-.705-.04-.705.406v12.984a1.532,1.532,0,0,0,.209.69,1.56,1.56,0,0,0,.5.524l4.306,2.475c.386.224.7.043.7-.406V146.786a1.568,1.568,0,0,0-.705-1.22Zm-7.662-10.062-4.307-2.486c-.389-.227-.7-.04-.7.408v18.615a1.543,1.543,0,0,0,.2.694,1.526,1.526,0,0,0,.5.523l4.3,2.486c.392.226.707.043.7-.406V136.732a1.539,1.539,0,0,0-.2-.7,1.559,1.559,0,0,0-.5-.529Z" transform="translate(44.126 43.22)" fill="#cee7fd"/>
    <path id="Path_18161" data-name="Path 18161" d="M171.132,173.945c0,2.489-1.748,3.493-3.908,2.248l-44.69-25.805a8.606,8.606,0,0,1-3.905-6.753V80.941c0-2.485,1.753-3.495,3.905-2.251l44.693,25.8a8.612,8.612,0,0,1,3.9,6.761Z" transform="translate(44.126 29.319)" fill="#fff"/>
    <path id="Path_18162" data-name="Path 18162" d="M169.19,177.69a4.312,4.312,0,0,1-2.13-.639l-44.7-25.8a9.317,9.317,0,0,1-4.281-7.405V81.149a3.118,3.118,0,0,1,5.033-2.909l44.693,25.8a9.345,9.345,0,0,1,4.278,7.412v62.7a3.446,3.446,0,0,1-1.513,3.175A2.771,2.771,0,0,1,169.19,177.69ZM121,79.124a1.3,1.3,0,0,0-.642.157,2.07,2.07,0,0,0-.766,1.865v62.7a7.912,7.912,0,0,0,3.526,6.1L167.8,175.751a1.658,1.658,0,0,0,2.78-1.6V111.461a7.936,7.936,0,0,0-3.526-6.11l-44.7-25.8a2.834,2.834,0,0,0-1.368-.432Z" transform="translate(43.92 29.113)" fill="#1496a3"/>
    <path id="Path_18163" data-name="Path 18163" d="M126.631,89.735c3.3-1.9,8.626,1.18,11.917,6.878s3.287,11.858,0,13.757-8.618-1.18-11.911-6.878S123.345,91.634,126.631,89.735Z" transform="translate(46.203 33.451)" fill="rgba(20,150,163,0.22)"/>
    <path id="Path_18164" data-name="Path 18164" d="M126.3,100.962a3.731,3.731,0,0,1,4.714-2.307,7.07,7.07,0,0,1-1.363-3.86c0-2.1,1.476-2.952,3.3-1.9a7.29,7.29,0,0,1,3.3,5.717c0,1.265-.532,2.062-1.364,2.28a16.8,16.8,0,0,1,4.707,7.753c-1.542,1.387-3.942,1.481-6.66-.078A17.743,17.743,0,0,1,126.3,100.962Zm34.2,10.962a2.082,2.082,0,0,0-.276-.923,2.061,2.061,0,0,0-.661-.7l-10.949-6.323c-.517-.3-.938-.058-.938.534a2.063,2.063,0,0,0,.941,1.623l10.94,6.319c.52.3.938.055.938-.534Zm-3.2-6.174c0,.6-.418.839-.935.532l-7.754-4.459a2.075,2.075,0,0,1-.941-1.622c0-.594.424-.834.941-.533l7.725,4.465a2.077,2.077,0,0,1,.935,1.62Zm3.2,10.5a2.07,2.07,0,0,0-.938-1.61l-10.949-6.327c-.517-.3-.938-.058-.938.534a2.071,2.071,0,0,0,.938,1.625l10.943,6.316c.517.3.938.058.938-.534Zm0,8.644a2.068,2.068,0,0,0-.941-1.62l-10.946-6.319c-.517-.3-.935-.059-.938.532a2.107,2.107,0,0,0,.276.925,2.082,2.082,0,0,0,.664.7l10.943,6.316c.517.3.938.054.938-.532Zm-5.243-7.35c0,.6-.418.844-.938.532l-5.705-3.281a2.075,2.075,0,0,1-.938-1.623c0-.6.421-.842.938-.532l5.7,3.284a2.085,2.085,0,0,1,.938,1.623Zm5.243,18.219a2.077,2.077,0,0,0-.935-1.62l-35.415-20.445c-.517-.3-.941-.056-.941.532a2.085,2.085,0,0,0,.938,1.628L159.567,136.3c.517.3.938.059.938-.532Zm-6.511,4.886a2.057,2.057,0,0,0-.935-1.617l-28.906-16.69c-.532-.3-.938-.056-.938.532a2.07,2.07,0,0,0,.943,1.628l28.9,16.69c.534.3.935.054.935-.534Zm-6.508-8.08c0,.6-.418.844-.935.546l-22.4-12.933a2.08,2.08,0,0,1-.938-1.62c0-.6.421-.842.938-.532l22.4,12.933a2.067,2.067,0,0,1,.935,1.614Zm13.02,18.322a2.068,2.068,0,0,0-.274-.92,2.041,2.041,0,0,0-.661-.7l-35.415-20.452c-.52-.3-.941-.052-.941.534a2.083,2.083,0,0,0,.941,1.62l35.412,20.456c.517.3.941.058.938-.534Zm-6.511,4.889a2.078,2.078,0,0,0-.935-1.624l-28.9-16.684c-.52-.3-.938-.059-.941.532a2.08,2.08,0,0,0,.938,1.625l28.906,16.687c.517.3.935.055.935-.534Zm-6.508-8.082c0,.6-.421.842-.935.532l-22.4-12.936a2.07,2.07,0,0,1-.938-1.623c0-.6.421-.839.938-.532l22.4,12.936a2.07,2.07,0,0,1,.932,1.617Z" transform="translate(45.845 34.677)" fill="#21cab7"/>
    <path id="Path_18165" data-name="Path 18165" d="M93.694,139.338l-5.181,2.994A.733.733,0,0,0,88.2,143v26.285c0,12.193,18.005,32.027,18.775,32.868a1.742,1.742,0,0,0,.413.338.906.906,0,0,0,.414.136c.5.032,8.274.444,13.66-2.617l5.247-3.031a9.345,9.345,0,0,0,5.062-8.524v-26.3a2.387,2.387,0,0,0-1.079-1.785c-7.192-4.147-13.886-10.022-17.492-15.331-.364-.532-.873-.825-1.24-.711-3.6,1.145-10.294-.716-17.543-4.9a.677.677,0,0,0-.348-.151.664.664,0,0,0-.374.062Z" transform="translate(32.711 52.244)" fill="#fff"/>
    <path id="Path_18166" data-name="Path 18166" d="M130.6,160.374c-7.192-4.147-13.887-10.022-17.492-15.331-.364-.532-.873-.825-1.24-.711-3.6,1.145-10.294-.716-17.543-4.9a.677.677,0,0,0-.347-.151.664.664,0,0,0-.374.062l-5.181,2.994a.677.677,0,0,1,.719.1c7.254,4.187,13.938,6.052,17.54,4.9.364-.114.876.179,1.242.715,3.6,5.309,10.3,11.188,17.489,15.33a2.38,2.38,0,0,1,.738.77,2.352,2.352,0,0,1,.326,1.015v26.288a9.361,9.361,0,0,1-5.12,8.572l5.247-3.031a9.346,9.346,0,0,0,5.062-8.526v-26.3a2.377,2.377,0,0,0-1.066-1.785Z" transform="translate(32.796 52.244)" fill="rgba(33,189,202,0.16)"/>
    <path id="Path_18167" data-name="Path 18167" d="M109.39,203.209c-.773,0-1.308-.026-1.5-.037a1.348,1.348,0,0,1-.6-.194,2.2,2.2,0,0,1-.512-.418c-.773-.844-18.891-20.779-18.891-33.158V143.117a1.147,1.147,0,0,1,.533-1.038l5.184-2.995.035-.017a1.1,1.1,0,0,1,.588-.1,1.084,1.084,0,0,1,.552.224c7.1,4.1,13.685,5.957,17.175,4.849a1.665,1.665,0,0,1,1.723.88c3.57,5.258,10.219,11.083,17.353,15.2a2.8,2.8,0,0,1,1.29,2.153v26.285a9.73,9.73,0,0,1-5.232,8.889l-.032.019-5.25,3.031-.062.03C117.539,202.9,112.054,203.209,109.39,203.209Zm-15.4-63.37-5.149,2.979c-.045.026-.093.131-.093.3V169.4c0,12.041,17.9,31.746,18.648,32.579a1.378,1.378,0,0,0,.312.267.536.536,0,0,0,.223.08c.331.022,8.126.451,13.427-2.56a.3.3,0,0,1,.056-.026l5.159-2.981.032-.021a8.927,8.927,0,0,0,4.839-8.165v-26.3a1.981,1.981,0,0,0-.85-1.423c-7.239-4.176-13.995-10.1-17.633-15.451-.282-.415-.628-.583-.759-.532-3.709,1.18-10.56-.711-17.883-4.939-.155-.1-.25-.114-.29-.093Z" transform="translate(32.593 52.127)" fill="#1496a3"/>
    <path id="Path_18168" data-name="Path 18168" d="M130.369,161.813c-7.307-4.223-14.158-10.216-17.882-15.693a.939.939,0,0,0-.085-.11,15.458,15.458,0,0,1-7.778-.52,45.964,45.964,0,0,1-10.31-4.473L89.844,143.6v26.037c0,2.82,1.056,6.173,2.725,9.684a74.237,74.237,0,0,0,6.163,10.316,131.6,131.6,0,0,0,9.5,11.959l.041.047.01.01a.482.482,0,0,0,.059.059,32.713,32.713,0,0,0,4.59-.147,21.558,21.558,0,0,0,8.229-2.3,1.013,1.013,0,0,1,.109-.056l5.088-2.94.033-.022.025-.014a8.073,8.073,0,0,0,4.407-7.42v-26.25a1.155,1.155,0,0,0-.147-.415A1.138,1.138,0,0,0,130.369,161.813ZM89.844,143.351Zm4.226-2.475h0Zm-.563-2.351a1.941,1.941,0,0,1,1.98.184,44.145,44.145,0,0,0,9.7,4.267c2.919.824,5.239.958,6.742.481h0a2.5,2.5,0,0,1,2.691,1.216c3.478,5.124,10.018,10.87,17.072,14.939l.015.01.015.01a3.651,3.651,0,0,1,1.686,2.814l0,.032v26.318a10.585,10.585,0,0,1-5.66,9.631h0l-.03.018h0l-5.279,3.049-.066.032c-4.4,2.471-10.067,2.778-12.749,2.778-.792,0-1.344-.026-1.547-.039h-.021a2.221,2.221,0,0,1-.976-.314,3.089,3.089,0,0,1-.7-.576,131.03,131.03,0,0,1-9.805-12.342,76.54,76.54,0,0,1-6.385-10.744c-1.731-3.667-2.925-7.371-2.925-10.652V143.373a2.008,2.008,0,0,1,.932-1.786l.015-.01,5.233-3.023Zm18.786,7.394h0Z" transform="translate(32.358 51.892)" fill="#1496a3" fill-rule="evenodd"/>
    <path id="Path_18169" data-name="Path 18169" d="M103.615,172.14l-7.441-12.878,2.053-1.181,5.388,9.327,8.091-4.662,2.053,3.549Z" transform="translate(35.702 59.299)" fill="#21cab7"/>
    <path id="Path_18170" data-name="Path 18170" d="M104.085,173.084l-7.441-12.878,2.053-1.181,5.385,9.332,6.885-3.964a19.1,19.1,0,0,0-6.885-7.584c-5.058-2.921-9.161-.558-9.161,5.274s4.1,12.934,9.161,15.855,9.164.564,9.164-5.276a15.8,15.8,0,0,0-.694-4.45Z" transform="translate(35.232 58.352)" fill="rgba(33,189,202,0.16)"/>
    <path id="Path_18171" data-name="Path 18171" d="M112.885,104.826a6.448,6.448,0,0,1-2.93,5.062L86.222,123.651c-1.617.931-2.93.179-2.93-1.686V107.474a6.445,6.445,0,0,1,2.93-5.062l23.733-13.759c1.614-.932,2.93-.176,2.93,1.689Z" transform="translate(30.87 33.106)" fill="#fff"/>
    <path id="Path_18172" data-name="Path 18172" d="M84.02,124.52a2.6,2.6,0,0,1-1.143-2.4V107.636a7.017,7.017,0,0,1,3.218-5.57l23.733-13.759a2.617,2.617,0,0,1,2.664-.205,2.574,2.574,0,0,1,1.145,2.4v14.49a7,7,0,0,1-3.215,5.565L86.686,124.318a3.253,3.253,0,0,1-1.6.477A2.078,2.078,0,0,1,84.02,124.52Zm26.389-35.2L86.676,103.076a5.931,5.931,0,0,0-2.635,4.56v14.49a1.218,1.218,0,0,0,2.046,1.18l23.736-13.762a5.915,5.915,0,0,0,2.632-4.554V90.5a1.537,1.537,0,0,0-.565-1.388A.926.926,0,0,0,111.42,89,2.079,2.079,0,0,0,110.408,89.317Z" transform="translate(30.714 32.945)" fill="#21bdca"/>
    <path id="Path_18173" data-name="Path 18173" d="M87.445,105.769a1.573,1.573,0,0,1,.7-1.217l16.783-9.747c.386-.226.7-.043.7.4a1.568,1.568,0,0,1-.2.691,1.549,1.549,0,0,1-.5.524l-16.783,9.75c-.386.224-.7.043-.7-.406Zm4.875,3.658a1.533,1.533,0,0,1,.7-1.209l11.91-6.927c.389-.226.7-.04.7.4a1.566,1.566,0,0,1-.7,1.218l-11.908,6.926c-.386.22-.706.047-.7-.406Zm4.875-6.049c0,.452.312.628.7.407l7.033-4.118a1.555,1.555,0,0,0,.7-1.22c0-.442-.312-.629-.7-.4l-7.038,4.118a1.539,1.539,0,0,0-.7,1.21Z" transform="translate(32.428 35.527)" fill="#21cab7" opacity="0.6"/>
    <path id="Path_18174" data-name="Path 18174" d="M136.039,11.956a4.779,4.779,0,1,1-1.4,3.379A4.778,4.778,0,0,1,136.039,11.956Z" transform="translate(50.131 3.96)" fill="#fff"/>
    <path id="Path_18175" data-name="Path 18175" d="M141.034,16.95a4.769,4.769,0,0,0,.682-5.874,4.747,4.747,0,0,1,.89.685,4.78,4.78,0,1,1-7.449,5.871,4.775,4.775,0,0,0,5.877-.682Z" transform="translate(50.326 4.155)" fill="#cbe8eb"/>
    <path id="Path_18176" data-name="Path 18176" d="M139.564,20.8a2.2,2.2,0,1,1,0,.027Zm-3-8.32a4.2,4.2,0,1,0,1.374-.923,4.234,4.234,0,0,0-1.374.923Z" transform="translate(49.986 3.816)" fill="#1496a3"/>
    <path id="Path_18177" data-name="Path 18177" d="M194.935,217.37a4.5,4.5,0,1,1-.978,1.462A4.514,4.514,0,0,1,194.935,217.37Z" transform="translate(72.254 81.045)" fill="#fff"/>
    <path id="Path_18178" data-name="Path 18178" d="M199.641,222.074a4.489,4.489,0,0,0,.645-5.536,4.5,4.5,0,1,1-6.18,6.178,4.492,4.492,0,0,0,5.535-.642Z" transform="translate(72.438 81.228)" fill="rgba(33,189,202,0.16)"/>
    <path id="Path_18179" data-name="Path 18179" d="M198.266,225.705a5.014,5.014,0,1,1,3.545-1.469A5.018,5.018,0,0,1,198.266,225.705Zm-2.823-7.84a3.967,3.967,0,1,0,1.294-.868A3.989,3.989,0,0,0,195.443,217.866Z" transform="translate(72.119 80.905)" fill="#1496a3"/>
    <path id="Path_18180" data-name="Path 18180" d="M227.564,53.934l61.13,35.292a6.282,6.282,0,0,1,2.842,4.926v18.592c0,1.812-1.271,2.547-2.842,1.638L238.246,85.268c-4.384-2.528-6.506-2.051-8.413-1.644l-2.1.533a1.506,1.506,0,0,1-1.111-.224,3.375,3.375,0,0,1-.864-.738,4.192,4.192,0,0,1-1.033-2.547V55.573C224.722,53.761,225.993,53.034,227.564,53.934Z" transform="translate(83.923 20.087)" fill="#fff"/>
    <path id="Path_18181" data-name="Path 18181" d="M288.691,129.4,227.564,94.1c-1.572-.908-2.845-.173-2.842,1.641v18.591a6.282,6.282,0,0,0,2.842,4.923l50.442,29.125a25.57,25.57,0,0,1,8.417,8.072l2.1,2.973a3.7,3.7,0,0,0,1.111,1.066,1.66,1.66,0,0,0,.859.267c.639,0,1.04-.534,1.04-1.349V134.318A6.293,6.293,0,0,0,288.691,129.4Z" transform="translate(83.923 35.153)" fill="#fff"/>
    <path id="Path_18182" data-name="Path 18182" d="M290.613,161.441a2.2,2.2,0,0,1-1.1-.336,4.215,4.215,0,0,1-1.282-1.213l-2.131-3.034a25.184,25.184,0,0,0-8.2-7.853L227.44,119.884a6.8,6.8,0,0,1-3.117-5.4V95.891a2.267,2.267,0,0,1,3.666-2.115l61.127,35.295a6.813,6.813,0,0,1,3.119,5.4v25.075a1.674,1.674,0,0,1-1.6,1.9ZM226.441,94.41a.92.92,0,0,0-.466.115,1.517,1.517,0,0,0-.557,1.367v18.592a5.8,5.8,0,0,0,2.569,4.451l50.445,29.122a25.776,25.776,0,0,1,8.524,8.154l.051.066,2.107,2.984a3.149,3.149,0,0,0,.941.9,1,1,0,0,0,.569.186c.459,0,.506-.558.506-.8V134.468a5.792,5.792,0,0,0-2.573-4.449L227.443,94.725A2.081,2.081,0,0,0,226.441,94.41Z" transform="translate(83.773 35.003)" fill="#1496a3"/>
    <path id="Path_18183" data-name="Path 18183" d="M233.783,113.75c1.711.987,3.226.932,4.206.052a10.6,10.6,0,0,0-2.995-4.9c.534-.136.869-.645.869-1.447a4.614,4.614,0,0,0-2.094-3.615c-1.151-.666-2.089-.128-2.089,1.2a4.431,4.431,0,0,0,.864,2.439,2.35,2.35,0,0,0-2.979,1.466A11.361,11.361,0,0,0,233.783,113.75ZM284.1,133.533c0,.433-.305.612-.678.393l-39-22.52a1.5,1.5,0,0,1-.688-1.177c0-.435.307-.611.688-.392l39,22.518a1.474,1.474,0,0,1,.678,1.178Zm-4.739,3.559c0,.435-.307.612-.682.4L244.416,117.7a1.5,1.5,0,0,1-.484-.51,1.518,1.518,0,0,1-.2-.675c0-.429.309-.6.688-.388l34.264,19.78a1.5,1.5,0,0,1,.48.509,1.52,1.52,0,0,1,.2.671Zm-4.744-5.888a1.481,1.481,0,0,0-.679-1.177l-29.522-17.049c-.378-.219-.682-.043-.682.389a1.5,1.5,0,0,0,.685,1.183l29.52,17.049c.375.219.679.043.679-.4Z" transform="translate(85.74 38.844)" fill="#21cab7"/>
    <path id="Path_18184" data-name="Path 18184" d="M229.881,109.589a10.468,10.468,0,0,1-1.13-4.427c0-3.4,2.4-4.774,5.329-3.078a11.819,11.819,0,0,1,5.327,9.239,4.078,4.078,0,0,1-1.126,3.124,10.6,10.6,0,0,0-2.981-4.9c.534-.139.864-.645.864-1.447a4.631,4.631,0,0,0-2.092-3.618c-1.154-.666-2.092-.125-2.089,1.206a4.438,4.438,0,0,0,.864,2.438A2.349,2.349,0,0,0,229.881,109.589Z" transform="translate(85.434 38.022)" fill="rgba(20,150,163,0.22)"/>
    <path id="Path_18185" data-name="Path 18185" d="M229.881,66.45a10.427,10.427,0,0,1-1.129-4.427c0-3.394,2.4-4.774,5.329-3.069a11.82,11.82,0,0,1,5.327,9.231,4.079,4.079,0,0,1-1.129,3.125,10.583,10.583,0,0,0-2.981-4.9c.532-.138.866-.642.864-1.441a4.635,4.635,0,0,0-2.086-3.623c-1.151-.669-2.094-.125-2.094,1.2a4.457,4.457,0,0,0,.866,2.443A2.352,2.352,0,0,0,229.881,66.45Z" transform="translate(85.435 21.84)" fill="rgba(20,150,163,0.22)"/>
    <path id="Path_18186" data-name="Path 18186" d="M290.122,112.369a3.1,3.1,0,0,1-1.547-.466L238.127,82.78c-4.169-2.4-6.106-1.99-7.992-1.6l-2.13.549a2.026,2.026,0,0,1-1.524-.28,3.866,3.866,0,0,1-1.005-.855,4.73,4.73,0,0,1-1.166-2.9V52.622a2.267,2.267,0,0,1,3.662-2.112L289.1,85.8a6.794,6.794,0,0,1,3.12,5.4v18.592a2.515,2.515,0,0,1-1.1,2.312A2.017,2.017,0,0,1,290.122,112.369ZM232.437,79.786a12.421,12.421,0,0,1,6.242,2.046l50.448,29.125a1.2,1.2,0,0,0,2.021-1.164V91.2a5.794,5.794,0,0,0-2.57-4.451L227.445,51.457a1.206,1.206,0,0,0-2.023,1.164V77.7a3.64,3.64,0,0,0,.9,2.19,2.767,2.767,0,0,0,.719.618,1.018,1.018,0,0,0,.7.173l2.1-.546.067-.016A11.686,11.686,0,0,1,232.437,79.786Z" transform="translate(83.769 18.774)" fill="#1496a3"/>
    <path id="Path_18187" data-name="Path 18187" d="M255.15,75.693a1.152,1.152,0,0,0-.474-.677l-2.083-1.2-.645-2.664a1.1,1.1,0,0,0-.473-.677c-.219-.125-.414-.075-.483.125l-.637,1.915-2.081-1.207c-.216-.125-.41-.075-.48.125a.949.949,0,0,0,.181.757l1.686,2.379-.645,1.91a.938.938,0,0,0,.01.4.909.909,0,0,0,.175.355.65.65,0,0,0,.586.344l1.685-.439,1.683,2.379a1.012,1.012,0,0,0,.3.282.4.4,0,0,0,.3.059c.176-.048.248-.266.182-.533l-.642-2.664,1.683-.437C255.142,76.188,255.216,75.97,255.15,75.693Zm12.944,7.472a1.152,1.152,0,0,0-.477-.677l-2.083-1.2-.642-2.651a1.124,1.124,0,0,0-.473-.677c-.219-.125-.408-.075-.477.125L263.3,80l-2.081-1.2c-.219-.128-.413-.077-.477.123a.92.92,0,0,0,.008.4.936.936,0,0,0,.173.357l1.68,2.376-.642,1.915a.93.93,0,0,0,.181.749c.179.25.415.389.591.344l1.685-.439L266.093,87a1.083,1.083,0,0,0,.3.282.4.4,0,0,0,.29.059c.179-.048.248-.266.184-.533l-.639-2.664,1.678-.437C268.086,83.661,268.16,83.442,268.094,83.165Zm12.941,7.475a1.1,1.1,0,0,0-.477-.677l-2.081-1.2-.639-2.664a1.134,1.134,0,0,0-.476-.677c-.219-.125-.411-.072-.48.125l-.642,1.913-2.078-1.2c-.219-.123-.413-.075-.477.128a.922.922,0,0,0,.181.751l1.683,2.379-.644,1.913a.928.928,0,0,0,.18.751c.179.248.418.389.591.338l1.684-.434,1.68,2.382a.936.936,0,0,0,.3.28.4.4,0,0,0,.293.056c.179-.045.25-.266.184-.533l-.642-2.664,1.68-.437C281.03,91.136,281.106,90.914,281.035,90.64ZM233.78,70.485c1.711.988,3.229.93,4.206.051a10.585,10.585,0,0,0-2.979-4.9c.534-.136.861-.645.861-1.444a4.618,4.618,0,0,0-2.089-3.618c-1.155-.669-2.087-.125-2.09,1.2a4.437,4.437,0,0,0,.868,2.44,2.364,2.364,0,0,0-2.984,1.465A11.3,11.3,0,0,0,233.78,70.485Z" transform="translate(85.743 22.613)" fill="#21cab7"/>
    <path id="Path_18188" data-name="Path 18188" d="M311.419,173.05l11.929,6.889,0,7.307-10.786,6.228-11.932-6.889v-7.31Z" transform="translate(112.399 64.914)" fill="#fff"/>
    <g id="Group_3900" data-name="Group 3900" transform="translate(413.032 244.19)" opacity="0.5">
      <path id="Path_18189" data-name="Path 18189" d="M312.565,191.776l-11.932-6.889v-7.31l11.929,6.889Z" transform="translate(-300.633 -177.577)" fill="rgba(33,189,202,0.16)"/>
    </g>
    <path id="Path_18190" data-name="Path 18190" d="M320.1,185.367,309.311,191.6l0-7.31,10.786-6.225Z" transform="translate(115.653 66.794)" fill="rgba(20,150,163,0.22)"/>
    <path id="Path_18191" data-name="Path 18191" d="M312.708,194.165a.551.551,0,0,1-.267-.073L300.509,187.2a.558.558,0,0,1-.2-.2.535.535,0,0,1-.07-.271v-7.31a.525.525,0,0,1,.069-.272.536.536,0,0,1,.2-.2l10.786-6.225a.534.534,0,0,1,.534,0l11.929,6.885a.536.536,0,0,1,.2.2.528.528,0,0,1,.069.272v7.31a.535.535,0,0,1-.07.271.547.547,0,0,1-.2.2l-10.786,6.228A.576.576,0,0,1,312.708,194.165Zm-11.386-7.75,11.386,6.577,10.243-5.913V180.4l-11.375-6.574-10.24,5.912Z" transform="translate(112.253 64.766)" fill="#1496a3"/>
    <path id="Path_18192" data-name="Path 18192" d="M232.191,226.57l68.565-39.587c1.6-.932,2.93-.182,2.93,1.682v16.1a6.444,6.444,0,0,1-2.93,5.062l-68.565,39.581c-1.614.935-2.93.179-2.93-1.685V231.626A6.473,6.473,0,0,1,232.191,226.57Z" transform="translate(85.626 69.991)" fill="#fff"/>
    <path id="Path_18193" data-name="Path 18193" d="M231.033,250.522a2.051,2.051,0,0,1-1.038-.267,2.583,2.583,0,0,1-1.139-2.376v-16.1a6.994,6.994,0,0,1,3.2-5.543l68.565-39.586a2.329,2.329,0,0,1,3.766,2.17v16.1a6.99,6.99,0,0,1-3.2,5.547l-68.565,39.577A3.2,3.2,0,0,1,231.033,250.522ZM302.216,187.3a2.13,2.13,0,0,0-1.026.323l-68.566,39.586a5.947,5.947,0,0,0-2.646,4.57v16.1a1.24,1.24,0,0,0,2.081,1.2l68.568-39.6a5.937,5.937,0,0,0,2.64-4.571v-16.1a1.553,1.553,0,0,0-.573-1.4A.943.943,0,0,0,302.216,187.3Z" transform="translate(85.474 69.838)" fill="#21bdca"/>
    <path id="Path_18194" data-name="Path 18194" d="M280.514,199.816c1.353-2.346,1.353-4.883,0-5.66s-3.553.487-4.909,2.834c-1.185,2.05-1.332,4.246-.448,5.285l-1.834,3.181c-.267.474-.267.986,0,1.145s.716-.092.993-.572l1.836-3.181C277.5,203.106,279.329,201.867,280.514,199.816Zm-3.919,1.117c-.8-.463-.8-1.977,0-3.373s2.116-2.155,2.93-1.691.8,1.98,0,3.379S277.405,201.4,276.6,200.932Z" transform="translate(102.079 72.745)" fill="#21cab7"/>
    <path id="Path_18195" data-name="Path 18195" d="M281.619,199.056l-47.512,27.438a1.529,1.529,0,0,0-.7,1.21v8.09c0,.446.314.626.7.4l47.515-27.439a1.544,1.544,0,0,0,.7-1.217v-8.083C282.322,199.014,282.009,198.832,281.619,199.056Z" transform="translate(87.18 74.634)" fill="rgba(33,189,202,0.16)"/>
    <path id="Path_18196" data-name="Path 18196" d="M235.378,219.651a1.557,1.557,0,0,0-.7,1.216v4.286c0,.444.314.626.7.4a1.539,1.539,0,0,0,.5-.524,1.559,1.559,0,0,0,.2-.693v-4.284c0-.448-.315-.628-.7-.406Z" transform="translate(87.658 82.36)" fill="#19acb8"/>
  </g>
</svg>
