<svg id="Safe_Security" data-name="Safe &amp; Security" xmlns="http://www.w3.org/2000/svg" width="384.22" height="417.18" viewBox="0 0 384.22 417.18">
  <path id="Path_843" data-name="Path 843" d="M171,417.45q-83.47,0-166.94.09c-3.3,0-4.16-.49-4.16-4Q.08,209.08-.11,4.65C-.11.9.83.36,4.3.36Q192,.52,379.67.37c3.39,0,4.44.43,4.44,4.25q-.2,204.43,0,408.86c0,3.49-.78,4.08-4.13,4.06-30.32-.16-60.65-.09-91-.09,0-2.51,2.39-2.26,3.69-3.26,8.8-3.67,17.94-6.4,26.8-9.89,12.44-4.6,24.86-9.23,37.36-13.65,3.58-1.27,4.81-3.36,4.77-7-.12-12.26-.08-24.53-.06-36.8-.23-8.17-.11-16.33-.1-24.49.3-5.48.12-11,.12-16.45,0-7.84-.6-8.23-7.9-5.41-20,6.71-39.74,14-59.49,21.33-2.33.87-4.62,1.89-7.19,1.8-9.48-2.6-18.51-6.51-27.73-9.87-14.08-5.12-28.29-9.89-42.13-15.64-2.1-.87-5.24-1.17-4.39-4.86,3.45-2.42,7.7-3.83,9.16-8.58.67-2.19,3-1.69,4.78-1.08,3.94,1.35,7.72,3.11,11.62,4.55,17.4,6.44,35.13,11.54,53.85,11.92a47.729,47.729,0,0,0,20-3.71,49.9,49.9,0,0,1,11-3.18,19.91,19.91,0,0,0,12.06-6.48c6.61-6.7,6.8-15.26,6.8-23.7,0-3.28-.3-6.6-.46-9.91a56.38,56.38,0,0,0-4.44-23.3c-4.66-11.22-5.33-22.82-4.16-34.69a9.479,9.479,0,0,1,1.69-3.79c1.39-1.13,3.08-1.12,4.74-1.16,6.63-.16,11.15-3.81,13.29-9.58s2.21-12.14-2.86-16.68c-7.25-6.5-7.41-13.32-2.94-21.38,3-5.48,2.1-8.3-2.15-13-5.86-6.43-13.66-7.75-21.65-8.7-2-.23-4,.11-5.89-.77a6,6,0,0,1-2.6-3.85c.66-3.27,3.33-5.3,5-7.93,6.11-9.57,6.84-19.76,2.93-30.11C318.86,68.42,310.71,64,300.85,62.9c-9-1-17.12,2-24.19,7.54-5.39,4.25-6.63,9.73-4,16,1.1,1.68,3,2.5,4.25,4,1.89,2.64,1,5.34.25,8.08-2.08,7.38.7,14,3.38,20.59a4.56,4.56,0,0,0,3.76,2.91,11,11,0,0,1,3.11.65c4.8,4.67,3.94,10.4-2.28,15.23-4.7,3.11-10,5.31-14.42,8.85-5,6.07-7.45,13.24-9.16,20.76-.92,4-2.06,8-3.28,12-.78,2.51-2.22,4.15-5,3.71a72.29,72.29,0,0,1-11.68-2.46c-2.66-.87-4.41-2.81-5.86-5.14-5.92-9.49-11.87-10.93-21.52-5.24a14.609,14.609,0,0,0-2,1.47c-4.38,4.45-4.38,4.45,1.33,7a8.72,8.72,0,0,1,2.56,1.38,3.27,3.27,0,0,1,.51,1.35c-.21,2.95,1.92,3.6,4.09,4,9.64,1.82,17.64,7.39,26.31,11.43,1.39.65,2.65,1.42,2.79,3.18-.74,5.77-4.23,8.61-9.77,9.62a77.27,77.27,0,0,1-16.33,1.07c-2.6-.29-5.76,0-4.13-4.39.32-.87-.55-1.47-1.3-1.89a17.93,17.93,0,0,0-2.78-1.09c-22.48-7.92-15.1-8.1-39.86.57-17.73,6.21-35.31,12.82-53,19.11-1.95.69-4.31.75-5.45,2.95.5,1.47,1.84,1.83,3.06,2.25,6.67,2.33,13,5.63,20.1,6.72,9.09-1.48,17.43-5.13,25.7-9,9.09-3.3,18.3-6.19,28.12-4.22,8.77,1.77,17.76,2.37,26.39,4.91,1.52,2.63-.95,3-2.3,3.65-4.13,2.05-8.63,3.21-12.91,4.9-14.71,5.35-29.47,10.56-44.06,16.22-6.67,2.45-13.37,4.84-20,7.32-2.63,1-5.28,2-8.18,1.75-10.69-2.66-20.78-7.09-31.1-10.81C70.83,238.59,39.74,227.15,8.58,215.9c-1.69-.61-4.39-2.51-5.23-.38s2.32,2.76,4.07,3.4c40.21,14.62,80.46,29.14,120.6,44a42.891,42.891,0,0,0,4.78,1.44c6.69.12,12.12-4,18.33-5.46,1.79-.42,3.63-2.14,5.35.15.48,2.35-.83,4.2-1.91,6-10,16.83-18.48,34.52-29,51.07a100.42,100.42,0,0,1-12.6,16.63c-2.32,2.39-4,4.89-3.18,8.39a5.39,5.39,0,0,1-.19,1.41c-1.52,2.67-.71,4.57,1.83,6.08,3.24,1.92,6.45,3.84,10.42,3.7a3.83,3.83,0,0,1,2.75,1.42c1.26,3,1,6,.35,9.1-3.54,4.92-9.67,6.86-15.89,3.86a51.48,51.48,0,0,0-21.56-5.19,23.55,23.55,0,0,1-14.53-5.9c-1.61-1.36,0,1-.76,1a6.3,6.3,0,0,1-2.36,1.83c-6.28,3.31-8,7.11-6.36,14a5.15,5.15,0,0,0,4.08,3.92c3.2.91,6.44,2.12,9.69,2.34,10.09.68,18.89,5.06,27.92,8.89,11.65,4.95,23.27,10,35,14.7,8.77,3.86,17.66,7.43,26.42,11.28C168.41,414.35,170.87,414.64,171,417.45Z" transform="translate(0.11 -0.36)" fill="#fefefe"/>
  <path id="Path_844" data-name="Path 844" d="M213,293.49c0,2.28,2,2.39,3.46,2.94q31.48,11.67,63,23.3l7.45,2.77c1.52,1.56,1.66,3.56,1.65,5.56,0,17,.21,34.09-.1,51.13.14,9.83.2,19.66,0,29.49a41,41,0,0,1-.25,6.38,5,5,0,0,1-1.22,2.39h-7c-19.72-9.21-40.4-15.93-60.82-23.35-9.62-3.86-9.62-3.86-9.63-14.38,0-6-.12-11.93,0-17.88.1-3.75-1.35-5.57-5-6.66-7-2.08-14.51-1.58-21.42-4.14-3.27-1-5.53-3.32-7.51-5.9-1-1.27-2.44-3.06.61-3.92a22.3,22.3,0,0,0,15,3.9c4-.38,7.32,1.84,10.9,3.07,6.79,2.33,7.42,1.88,7.45-5.13v-8c-.18-1.47,0-2.94-.06-4.42-.28-10.62-.22-21.23,0-31.84C209.58,296.73,208.35,292.91,213,293.49Z" transform="translate(0.11 -0.36)" fill="#bdd3f5"/>
  <path id="Path_845" data-name="Path 845" d="M176,341.43c-.28,4.93,3.78,6.17,6.94,8.17,2.09,2.41,2.62,5.27,2.61,8.36,0,13.15-.89,26.26-1.77,39.37-.3,4.5-.13,9-.24,13.48-.06,2.32.15,4.71-1.56,6.64H171c-7.45-4.63-15.9-7.08-23.77-10.81-2.38-1.13-4.82-2.14-7.23-3.2-9.06-3.42-9-10.88-8.32-18.66,1.12-12.77,1.33-25.57,1.76-38.37a3.26,3.26,0,0,1,.65-2.79c4.29-4.2,8.15-9,13.91-11.39,6.32-.55,12.66-.23,19-.25C175.69,332,176,332.3,176,341.43Z" transform="translate(0.11 -0.36)" fill="#ddebfe"/>
  <path id="Path_846" data-name="Path 846" d="M182,417.45c-.73-13.77.87-27.48,1.25-41.21.25-8.92,1.34-17.76-.29-26.64,7.89,2.63,16.35,2.25,24.33,4.71,2.91.9,3.75,2,3.73,4.7-.07,8.16.25,16.34-.13,24.48-.21,4.58.92,7.35,5.73,8a4.93,4.93,0,0,1,3.39,1.93c4.12,1.87,5.72,5.12,5.48,9.55-.16,3.12,0,6.26-.08,9.39-.08,2-.34,4-2.4,5.06Z" transform="translate(0.11 -0.36)" fill="#d4e5fe"/>
  <path id="Path_847" data-name="Path 847" d="M223,417.45c.93-8.24,3.72-16.72-3-24,8.92,2,17.21,5.81,25.74,8.89,10.27,3.7,20.71,7,30.39,12.19,1.43.76,3.17,1.18,3.86,2.93Z" transform="translate(0.11 -0.36)" fill="#cadffe"/>
  <path id="Path_848" data-name="Path 848" d="M287,417.45v-2c2-2.55,4-3.34,6,0l-4,2Z" transform="translate(0.11 -0.36)" fill="#dfecfe"/>
  <path id="Path_849" data-name="Path 849" d="M146.79,333.42c-4.17,4.1-9.1,7.41-12.77,12.06-2.48,3.78-4.8,7.77-10.06,8.11l-3.11-.33c-4.78-2.8-10.24-4.85-12-11q.05-.42.14-.83c3-5.61,7.32-10.23,10.86-15.43,11.5-16.86,22.39-34.12,33.68-51.11,6.17-9.28,12.55-18.38,22.26-24.46a70.829,70.829,0,0,1,19.68-7.27c3.24-.3,6.2.94,9.24,1.72,20.89,5.41,41.86,10.36,63.21,13.66,3.65.57,7.29,0,10.89.56,4.48,7.62,11.86,10.23,23.25,8.21a6.55,6.55,0,0,1,4.7.73c1,1.8-.71,2.27-1.56,3.07-2.61,2.44-4.27,5.33-3,8.86s4.28,5.42,8,5.91a69.6,69.6,0,0,0,18.37-.37c2.7-.36,5.71-1.24,7.58,1.93a9.28,9.28,0,0,1-5.18,4.46c-9.45,3-18.84,6.27-28.48,8.42-13.62,3-27-.14-40.26-3.28a214.5,214.5,0,0,1-34.79-11.87c-3.06-1.31-4.8-1.48-5.45,2.44-.82,5-5.6,4.4-8.9,5.87-3.14.53-2,3-2,4.76-.13,11.1-.11,22.2-.14,33.3-4.49,2.5-9,1.16-13.53.11-4.07-1.39-4.7-4.7-4.71-8.4,0-14,0-27.92-.06-41.88,0-1.65,1-4.26-1.22-4.73-1.81-.37-2.93,2-3.69,3.59a168.639,168.639,0,0,1-27,40.49C156.48,325.41,152.62,330.51,146.79,333.42Z" transform="translate(0.11 -0.36)" fill="#90bcfe"/>
  <path id="Path_850" data-name="Path 850" d="M215.83,181.44l.18-1c2.42-2.25,5,1,7.51-.19-1.83-5.28-4-6.72-9-5.68-2.78.58-4.87.75-3.61-3.14,4.83-4,9.86-6.79,16.66-5.18,4.23,1,6.56,3.41,8.38,7,2.54,4.95,13.73,10.2,19,9.06,1.64-.36,1.78-1.67,2.12-3q2.45-9.35,5-18.67a38.47,38.47,0,0,1,8-15.11c3-.73,6-2,9.2-1,7.11,3.92,7.15,10.93,6.7,17.44-.82,11.82-3.56,23.29-9.6,33.71a33.09,33.09,0,0,0-2.8,7.43c-4.61,4.17-7,9.71-9.44,15.25a49.811,49.811,0,0,1-2.51,4.77c-2.36,4.67-7.12,4.29-11.2,5.34-4.57.34-9.11.93-13.68,1.37-5.34-.47-11,1.28-15.87-2.32-9.14-1.41-18.3-2.69-27.41-4.28-9.69-1.7-18.57,1.21-27.46,4.28-4.86.61-7-.68-8-5a12.68,12.68,0,0,0-.83-3.35c-2.53-4.58-2.16-5.79,2.58-7.82a27.54,27.54,0,0,1,9.64-2.28c2.67-.12,5.26-.07,7.29-2.37,1.34-1.53,3.23-.91,4.57,0,5.29,3.79,11.31,3.67,17.25,3.09,7.44-.73,14.83-1.52,22.25.06a2.83,2.83,0,0,0,2.37-.44c5-.07,9.88-.32,14.83-.76,6.25-.55,9.7-3.41,11.22-9.19.57-2.86-1.2-4.1-3.37-5.34a54.669,54.669,0,0,0-16.82-5.88,53.549,53.549,0,0,1-9.55-2.75C217.41,184.79,215.78,183.89,215.83,181.44Z" transform="translate(0.11 -0.36)" fill="#93bbe3"/>
  <path id="Path_851" data-name="Path 851" d="M273.15,203.37c-1-1.73-.79-3.23.29-5A78.22,78.22,0,0,0,284.52,163c.49-6.47.65-13.12-5.41-17.72-.19-2.66,1.92-3.23,3.73-3.87a22.85,22.85,0,0,1,11.7-1c3.59,1.73,5.82,4.9,8,8,2.38,3.26,1.07,6.33-1.33,9s-4.64,5.62-4.91,9.56c-.42,6,1.56,9.33,7.12,11.75,3.74,1.63,7.85,1.33,11.7,2.36a11.89,11.89,0,0,1,6,2.23c4.23,3.47,9.52,5.16,13.79,8.52l-.73,2.73c-3.19,3.58-7.46,2.49-11.25,2.11-4-.41-5.77.76-6.28,4.77-.76,6-3.23,11.53-5.67,17a48.84,48.84,0,0,0-4.66,22.27c.23,5.48.17,11,0,16.48-.14,4.23-.93,8.3-4.4,11.27-7,1.8-13.7.34-20.17-2.36-2.87-1.19-3.47-3.74-2.94-6.63-.56-3.32,1.46-6,2.24-9,1.68-6.42,3.23-12.84,1.89-19.54-.54-8.24-3.65-15.61-7.68-22.67C274.42,206.7,273.11,205.33,273.15,203.37Z" transform="translate(0.11 -0.36)" fill="#0799a8"/>
  <path id="Path_852" data-name="Path 852" d="M335,191.81a24.88,24.88,0,0,1-11.12-5.26,20.1,20.1,0,0,0-8.83-4.35c-2.15-.88-2.67-2.84-3.09-4.81-1.41-6.74-2.14-13.51,0-20.24,3.1-10,1.24-19-4.78-27.39-3.35-4.69-2.59-6.34,2.94-8,2.47-.34,4.55-1.87,7-2.35a55.51,55.51,0,0,1,17.27,2.13,26,26,0,0,1,12.78,8.33c3.95,4.72,4.31,7.72,1.13,13.11-4.1,7-5.31,12.93,2.31,19.38,5.71,4.83,6,11.77,3.72,18.44s-7.71,10.18-14.77,10.91C338,191.86,336.47,191.78,335,191.81Z" transform="translate(0.11 -0.36)"/>
  <path id="Path_853" data-name="Path 853" d="M287,409.45v-30c3.2-1.62,5.42-4.22,7.55-7,14.72-19.54,29.13-39.33,43.8-58.91,4.14-5.52,8.41-10.73,14.61-14,9.06-4.51,10-4,10,6v16c-3.57-1-5.58.66-7.67,3.49-19.83,27-40,53.77-60,80.64C293.39,408.21,291.6,412,287,409.45Z" transform="translate(0.11 -0.36)" fill="#dfecfe"/>
  <path id="Path_854" data-name="Path 854" d="M302,268.45c3.38-6.6,3.52-13.72,3-20.83A64,64,0,0,1,311.72,213a43,43,0,0,0,4.19-15.21c.31-3,1.26-3.56,4.1-2.94a27.67,27.67,0,0,0,14.23-.32c-1,13.88.59,27.29,6,40.29a38,38,0,0,1,2.64,18.51,12,12,0,0,1-5.75,7.79c-8.07,5.11-17.18,7.05-26.43,8.48a4.2,4.2,0,0,1-3.74-1Z" transform="translate(0.11 -0.36)" fill="#16becf"/>
  <path id="Path_855" data-name="Path 855" d="M353,299.46c-23.11,23.34-39.71,51.76-60.06,77.25-1.66,2.08-3.38,3-5.9,2.73Q287,351,286.92,322.5c9.08-2.06,17.45-6.18,26.21-9.15C326.46,308.83,339.72,304.1,353,299.46Z" transform="translate(0.11 -0.36)" fill="#e9f2fe"/>
  <path id="Path_856" data-name="Path 856" d="M124,353.58c4.24-1.61,6.35-5.85,10.06-8.11,2,3.93,1.28,8.23.72,12.14a97.521,97.521,0,0,0-.73,12.87c-.05,5.3,0,10.58-1,15.84-1.29,7.09.77,13,7,17.12-13.62-5.64-27.51-10.73-40.77-17.12-9.18-4.43-19-5.26-28.54-7.82-3-.81-7.17-.66-8.15-3.8-1.36-4.36-1.65-9.54.14-13.69,1.41-3.28,6.17-3.33,9.54-4.61.42-.29,1-.57,1.38-.34,13.1,7.29,28.18,8.2,42,13.09,5,1.77,6.62-2.23,8.38-5.67Z" transform="translate(0.11 -0.36)" fill="#eaf2fe"/>
  <path id="Path_857" data-name="Path 857" d="M287,409.45c2.82.45,4.79-.88,6.38-3q30.81-41.54,61.6-83.1c2.26-3.06,4.11-6.28,8-1.88v26c-3.23-.11-5.37,1.34-7.31,4-11.58,15.88-23.24,31.7-35.2,47.29a7.22,7.22,0,0,0-1.44,6.73c-8.34,4.18-17.52,6.18-26,10-2-1.88-4-.88-6,0Q287,412.44,287,409.45Z" transform="translate(0.11 -0.36)" fill="#deebfe"/>
  <path id="Path_858" data-name="Path 858" d="M124,41.51l83.76-30.43c8.11-2.95,16.2-6,24.37-8.76,7.92-2.7,11.86.16,11.86,8.36V111.11c0,8-1.9,10.83-9.62,13.7-8.08,3-16.25,5.78-24.38,8.66-3.55.1-7,0-9.21-3.49,1-2.11,3.09-2.38,4.91-3.06,8.28-3,16.52-6.24,24.9-9,4.21-1.38,6.09-3.67,6.07-8.34-.15-31.48-.07-63-.09-94.43,0-5.39-.4-5.64-5.33-3.87q-48.39,17.48-96.69,35.24c-2.48.92-4.93,2.1-7.71,1.78C123.87,46.88,121.26,45.31,124,41.51Z" transform="translate(0.11 -0.36)" fill="#c1dafe"/>
  <path id="Path_859" data-name="Path 859" d="M272,87.39c-3.76-5.38-2.82-11.68,2.52-16.85,10.84-10.52,29.29-12.17,40.93-3.66,11,8,14.18,25.22,7.2,38.91a42,42,0,0,1-7.75,10.32c-.62,1.77-2.16,2.13-3.74,2.45-3.48.28-5.51-.89-4.82-4.82,1.43-8.14-2.62-14.27-8-19.35-4.37-4.1-8.79-8-12.11-13.06A7.43,7.43,0,0,0,280,77.76c-4.24-.14-6.56,1.69-7.12,5.87C272.71,84.92,273.13,86.33,272,87.39Z" transform="translate(0.11 -0.36)"/>
  <path id="Path_860" data-name="Path 860" d="M284,230.44c2.13,10.37-.62,19.86-5.18,29-5.06,2.44-10.18.64-15.13-.16a579.5,579.5,0,0,1-62.86-14.08,28.661,28.661,0,0,0-5.87-.9c.41-2.59,2.8-2.41,4.48-3.11,2.54-1.07,5.32-1.57,7.55-2.91.14-2.07-2.72-1.92-2.08-3.89,5-2.92,11.16-3.3,15.91-6.86a101.25,101.25,0,0,0,16.07.93c.28,1.88-1.32,2.14-2.44,2.6-5.84,2.43-11.82,4.48-17.52,6.38,16,2.58,32.22,5.54,48.35,9.14,1.85.41,4.16,1.8,5.61,0s.21-4.2-.68-6.14c-2.07-4.52-5.86-7-10.38-8.8-3-1.18-6.63-1.27-8.84-4.2,3.25-1.73,8-.52,9.83-5,7.1,1.11,13.72,3.95,20.62,5.79a4.83,4.83,0,0,1,2.56,2.21Z" transform="translate(0.11 -0.36)" fill="#c1dafe"/>
  <path id="Path_861" data-name="Path 861" d="M223.08,209.5a7.17,7.17,0,0,1-2.28.79,242.435,242.435,0,0,0-25.37,1.12c-5.42.47-10.61.08-15-3.7-.8-.68-2.91-2.12-3.17-.12-.54,4.17-3.42,2.9-5.59,2.93-5.25.06-10.25.84-14.65,3.94-1,.68-2.23,2.26-.62,2.44,4,.44,2.68,2.58,2.72,5,.07,4.13,3.29,5.33,6.89,5.63-8.4,3.77-16.71,7.8-26,8.88-8-4.09-16.84-6-24.9-9.9-.07-2.11,1.32-2.67,3-3.28,24-8.53,48.06-17,72-25.8,6.87-2.54,12.62.11,18.67,2.08,3.3,1.07,6.47,2.56,9.78,3.59,3.9,1.2,4.7,2.91,1.33,5.72C220.83,209.88,222.05,209.2,223.08,209.5Z" transform="translate(0.11 -0.36)" fill="#ebf3fe"/>
  <path id="Path_862" data-name="Path 862" d="M319,405.47c-2.92-1.37-3-3-1-5.55q18.94-25.12,37.6-50.46c2-2.73,4-4.89,7.41-2v38.48c0,1.89.5,3.81-2.26,4.8-13.29,4.73-26.49,9.7-39.74,14.55A8,8,0,0,1,319,405.47Z" transform="translate(0.11 -0.36)" fill="#d6e6fe"/>
  <path id="Path_863" data-name="Path 863" d="M177,146.45l-3.07,16c-.82,3.55,1.34,6.65,1.5,10.05-1,3.2-4,3.76-6.5,4.71-7.39,2.82-14.69,5.89-22.17,8.48a35.07,35.07,0,0,0-10,5.2c-9-.93-11.56-4.49-9.32-13.14,1.36-5.24,2.68-10.5,4.14-15.72,1.84-2.49,4.85-2.8,7.44-3.68,10.86-3.72,21.55-7.9,32.4-11.64C173.24,146,175.09,144.81,177,146.45Z" transform="translate(0.11 -0.36)" fill="#c1dafe"/>
  <path id="Path_864" data-name="Path 864" d="M307,268.64c8.64-.89,17.09-2.53,25.07-6.14,4.49-2,8.33-4.82,10.86-9.17.36,8,1.35,16.14-.92,24.06-1.09,3.81-2.31,7.65-5.88,10.06-5.74-2.62-11.4.56-17.15.3-4.27-.2-8.62.14-12.63-1.42-3.39-1.32-6.2-4-6.11-7.77C300.32,274.15,302.13,270.17,307,268.64Z" transform="translate(0.11 -0.36)" fill="#c1dafe"/>
  <path id="Path_865" data-name="Path 865" d="M133,265.47c-9.66-1.93-18.49-6.31-27.71-9.53-20.83-7.26-41.49-15-62.21-22.6q-19.4-7.09-38.77-14.25C2.86,218.55,1,218.41,1,216c0-2.85.57-4,3.76-2.83,10,3.68,20,7.07,30,10.69q31.08,11.31,62.17,22.69c12,4.37,23.81,9.24,36.06,12.91C135.34,261.46,136.52,263.47,133,265.47Z" transform="translate(0.11 -0.36)" fill="#dee9fa"/>
  <path id="Path_866" data-name="Path 866" d="M129,164.5c-5.12-.63-9.26,2.34-13.73,3.91C100,173.78,84.85,179.55,69.59,185c-2.09.75-4.52,1.22-6.58-.53a5.91,5.91,0,0,1-3-5.4c0-16.94-.16-33.88.07-50.82a4,4,0,0,1,.44-1.41c2.6-1.4,3.57.72,4.47,2.31a18.77,18.77,0,0,1,2.39,9.5c-.07,10.42,0,20.84,0,31.26,0,1.8-.31,3.65.53,5.35,1.66,1.94,3.39.56,5,0,14.23-5,28.4-10.21,42.57-15.39,3.71-1.36,7.33-3.16,11.42-3.26,2.6.89,5.16,1.81,4.56,5.4C131.09,163.25,130.85,164.65,129,164.5Z" transform="translate(0.11 -0.36)" fill="#e3eefe"/>
  <path id="Path_867" data-name="Path 867" d="M272,87.39c-1.06-4.37-.84-8.46,3.76-10.62a9.19,9.19,0,0,1,11.95,4.43c3.87,7.34,11.75,10.72,16.09,17.52,3,4.65,5.32,9.51,3.78,15-1.13,4,1.15,3.66,3.51,3.84-.84,2.69-3,2-4.85,1.78a17.09,17.09,0,0,1-5.18-1.49c-2.78-1.53-4.9-4-7.62-5.61a5.54,5.54,0,0,1-2.83-5.88,14.89,14.89,0,0,0-.52-6.91c-.4-1.09-.71-2.85-1.77-2.82-5.62.17-6.08-4.68-8.25-7.93-.53-.8-1.56-3.58-2.39,0a2.26,2.26,0,0,1-1.31,2.27C274.76,90,272.92,89.27,272,87.39Z" transform="translate(0.11 -0.36)"/>
  <path id="Path_868" data-name="Path 868" d="M144.08,195.38c-8.82,0-17.65.27-26.46,0-10-.29-18.76,3.74-27.86,6.73-6.62,2.17-13.17,4.56-19.77,6.78a10.27,10.27,0,0,1-3.41.5c-1.84,0-4-.24-4.35-2.44s1.91-2.33,3.42-2.88L125,182.46c2.45,6.3,7.87,8,13.78,9.32C140.77,192.21,143.51,192.47,144.08,195.38Z" transform="translate(0.11 -0.36)" fill="#e2edfe"/>
  <path id="Path_869" data-name="Path 869" d="M137,190.38c.62-3.8,4.08-3.92,6.67-4.94,8.71-3.43,17.52-6.61,26.23-10,1.79-.7,3.74-1.35,5-3a.57.57,0,0,1,1,0c3.47,2.31,7.55,3.14,11.32,4.71,1.24.51,2.47,1.16,2.53,2.73,0,1.35-.83,2-2,2.48l-33.48,12a4.471,4.471,0,0,1-1.48,0C147.21,194.58,141.65,194.38,137,190.38Z" transform="translate(0.11 -0.36)" fill="#e0edfd"/>
  <path id="Path_870" data-name="Path 870" d="M131,162.39c.38-3.07-2.36-3.6-4.06-5,.19-2.45,2.37-2.53,3.95-3.12,21.27-7.94,42.64-15.58,64-23.31,1.92-.7,3.94-2,6.12-.54l9,3c-8.92,3.36-17.84,6.73-26.77,10-2.16.8-4.37,1.47-6.2,2.95-7.12,1.53-13.68,4.67-20.51,7-8.22,2.84-16.35,5.93-24.52,8.92a.67.67,0,0,1-1.01.1Z" transform="translate(0.11 -0.36)" fill="#cee1fe"/>
  <path id="Path_871" data-name="Path 871" d="M176,251.45c-19.5,15.19-29.2,37.77-43,57.24-6.79,9.59-13.12,19.51-20.1,29a12.11,12.11,0,0,1-3.89,3.78c-1.91-2.92-.93-5.5,1.21-7.65,12.38-12.41,20-28,28.53-42.93,5.92-10.37,11.52-20.93,17.26-31.4.39-1.2.63-2.5,2-3.05,4.24-1.7,8.47-3.46,12.85-4.76C172.55,251.17,174.24,250.13,176,251.45Z" transform="translate(0.11 -0.36)" fill="#c1dafe"/>
  <path id="Path_872" data-name="Path 872" d="M368.38,111.58c-7.28.16-11.95-2.66-14.79-8.11A15.15,15.15,0,0,1,354.7,87c1.17-1.69,2.59-5.16,5.05-2.76,1.66,1.62,5.29,3.93,2.13,7.86-2.81,3.51-1.74,7.56,1.85,9.84a6.84,6.84,0,0,0,9.55-2.17c1.21-1.83,1-3.82.74-5.78-.18-1.32-.77-2.67.88-3.43,1.9-.87,3.13-3.82,5.45-2.82,2,.87,2.31,3.54,2.6,5.66C384.37,103.46,377.36,111.59,368.38,111.58Z" transform="translate(0.11 -0.36)" fill="#48ffc2"/>
  <path id="Path_873" data-name="Path 873" d="M36.6,183.6a15.756,15.756,0,1,1,14.82-21.44c.48,1.33,1.59,3.3-.45,3.77-2.39.55-5.16,1.82-7.47-.47-.45-.45-.6-1.2-1-1.7-2.1-2.55-4.73-3.59-8-2.46a6.41,6.41,0,0,0-4.65,6.36c-.09,3.41,1.43,6,4.7,6.75s4.07,2.31,4.77,5.27C40.14,183.07,39.39,184,36.6,183.6Z" transform="translate(0.11 -0.36)" fill="#48ffc2"/>
  <path id="Path_874" data-name="Path 874" d="M276.61,88.5c-.71-1.35-1.48-2.91.36-3.79,1.65-.79,2.85.53,3.63,1.82.93,1.55,1.6,3.26,2.4,4.89.92,1.85.73,4.2,4.56,3.24,2.94-.74,4.51,3.69,4.1,5.7-1.78,8.54,4.07,12.19,9.36,16.39a28,28,0,0,1,.57,6.19,1.87,1.87,0,0,1-.35.91c-4.57,4.38-7.72,9.4-7.47,16a3.76,3.76,0,0,1-4.84-.91c-.93-3.92,2.34-6.75,2.67-10.4s-.3-6-4.64-5.25h-2.9c-6-7-8.4-14.71-4.69-23.49C281.35,95.18,278.49,92,276.61,88.5Z" transform="translate(0.11 -0.36)" fill="#568acb"/>
  <path id="Path_875" data-name="Path 875" d="M176,172.45h-1a8.71,8.71,0,0,1-1-10c.65,3.24,2.42,1.16,3.69.7q23.63-8.52,47.23-17.12c.47-.17.93-.35,1.41-.5,3.17-1,7.67-2.71,8.86.84s-4,3.62-6.47,4.6c-16,6.36-32.17,12.4-48.28,18.53C178.69,170.12,176.86,170.57,176,172.45Z" transform="translate(0.11 -0.36)" fill="#e5f0fe"/>
  <path id="Path_876" data-name="Path 876" d="M124,41.51c-1.4,2.69,1,4.13,2,6-.52,1.6-1.89,2.25-3.28,2.81C107.18,56.58,91.34,62,75.59,67.76a6.67,6.67,0,0,1-3.9.42,10.08,10.08,0,0,0-6.07-2.08c-1.47-.6-.74-1.76-.69-2.74,5.53-3.5,12-4.64,18-6.93C96.53,51.23,110.31,46.45,124,41.51Z" transform="translate(0.11 -0.36)" fill="#cce0fe"/>
  <path id="Path_877" data-name="Path 877" d="M176,251.45l-18,6c-1.35-3.35,1.47-4.88,3-7,14.44-5.93,29.13-11.15,43.94-16.05,1,1.83,5,.71,4.41,3.56-.43,2.17-3.36,2.19-5.3,2.94-3,1.16-6,2.28-9.06,3.41A127.908,127.908,0,0,0,176,251.45Z" transform="translate(0.11 -0.36)" fill="#d7e7fe"/>
  <path id="Path_878" data-name="Path 878" d="M64.94,63.36c1.2.68.13,1.38,0,2.07C62.39,71,62.48,77,62.52,83c.09,12.13.06,24.26,0,36.39,0,2.44.45,5-1.44,7.12,0,17.36,0,34.73-.15,52.09a10,10,0,0,0,2.08,5.9c-3.29-.73-4-3.28-4-6.06Q59,125.79,59,73.15C59,68.8,61.37,65.66,64.94,63.36Z" transform="translate(0.11 -0.36)" fill="#9bc4fe"/>
  <path id="Path_879" data-name="Path 879" d="M124,363.47c-.41,7-3.32,8.66-10,6.6-8.2-2.53-16.57-4.5-24.85-6.78a76,76,0,0,1-16.93-6.91c-1-1.44-2.71-2.61-1.86-5.15,6.25,7.55,14.54,9.59,23.73,9.37,4.6-.11,8.75,1.48,12.73,3.69C112.66,367.57,118.45,367.68,124,363.47Z" transform="translate(0.11 -0.36)" fill="#94bffe"/>
  <path id="Path_880" data-name="Path 880" d="M161,250.46c0,2.77-2.76,4.32-3,7l-2,2c-5.12-.52-9.18,2.72-13.82,3.91-3.06.79-5.76,3.08-9.22,2.08,1.91-2,.91-4,0-6,7.85-.68,14.58-4.86,22-7C157,251.86,159,251.13,161,250.46Z" transform="translate(0.11 -0.36)" fill="#ecf4fe"/>
  <path id="Path_881" data-name="Path 881" d="M272.86,26.67c-1.71,6.22-3.43,12.62-5.24,19-.65,2.31-2.32,1.13-3.67.85-1.69-.35-3.46-.73-2.82-3.12,1.64-6.08,3.33-12.15,5-18.22.66-2.37,2.43-1.92,4-1.37C271.41,24.25,273.42,24.16,272.86,26.67Z" transform="translate(0.11 -0.36)" fill="#48ffc2"/>
  <path id="Path_882" data-name="Path 882" d="M25.4,266.85c-1.78.28-2-1-2.42-2-2.06-5.61-4-11.28-6.24-16.82-1.07-2.65.36-3.1,2.28-3.78s3.31-1.33,4.22,1.4c1.79,5.35,4,10.58,5.87,15.9C30.24,264.67,28.6,266.84,25.4,266.85Z" transform="translate(0.11 -0.36)" fill="#48ffc2"/>
  <path id="Path_883" data-name="Path 883" d="M276.61,88.5c5.34,4.07,6.14,6.86,3.64,12.35-2.29,5-1.56,10,.44,14.83,1.06,2.58,2.25,5.11,3.38,7.67a3.38,3.38,0,0,1-3.68-2c-3.78-7.27-6.84-14.75-4.43-23.21.68-2.39,1.76-4.71.45-7.19C276.47,90.11,276.54,89.31,276.61,88.5Z" transform="translate(0.11 -0.36)" fill="#95bbe3"/>
  <path id="Path_884" data-name="Path 884" d="M210.91,171.43c.11,1.88.26,3.15,2.92,2.16,5-1.85,9.72.76,11.58,5.79.87,2.35.07,3.21-2.2,2.84-2.43-.4-4.62-1.89-7.19-1.77a20.35,20.35,0,0,1-3.33-.7C205.55,177,205.54,176.87,210.91,171.43Z" transform="translate(0.11 -0.36)" fill="#d8e8fe"/>
  <path id="Path_885" data-name="Path 885" d="M215.83,181.44c4.49,6.16,11.64,5.75,18,6.73,6,.93,10.68,4.32,15.94,6.55,2.79,1.19.26,3.25-.59,4.82-10-4.78-19.32-11.32-30.64-13.24C216.23,185.93,214,184.55,215.83,181.44Z" transform="translate(0.11 -0.36)" fill="#dceafd"/>
  <path id="Path_886" data-name="Path 886" d="M277.32,33c2.09.29,4.66.89,2.87,5.09-1.16,2.72-1.62,5.73-2.36,8.62-.54,2.1-1.22,3.59-4,2.67-2.38-.77-3.83-1.5-2.83-4.38,1.15-3.28,2-6.66,2.89-10C274.28,33.56,274.5,32.3,277.32,33Z" transform="translate(0.11 -0.36)" fill="#48ffc2"/>
  <path id="Path_887" data-name="Path 887" d="M131,162.39h1c.75,4.46-1.58,8.3-2.7,12.32-3,10.79-2.6,11.9,7.76,15.66,5,2.44,10.6,2.52,15.83,4-2.78,1.74-5.84.89-8.8,1a44.92,44.92,0,0,0-11.38-4.49c-4.49-1.27-7.16-3.77-7.68-8.44,1.6-5.93,3.32-11.82,4-18Z" transform="translate(0.11 -0.36)" fill="#95c0fe"/>
  <path id="Path_888" data-name="Path 888" d="M32.66,246.66c2.34-.11,2.65,2,2.89,3.36.72,4.08,5,7.6,2.93,11.84-1.34,2.7-5.16,1.66-6.33-1.34s-2-6-3.28-8.81C26.84,247.41,30.48,247.68,32.66,246.66Z" transform="translate(0.11 -0.36)" fill="#48ffc2"/>
  <path id="Path_889" data-name="Path 889" d="M289,138.45a8.29,8.29,0,0,0,4.85,1c1,.27,1.52.81,1.13,1.89-5.54.3-11.4-.72-15.87,3.93l-9.05.23,14-8C285.81,137.16,287.56,137,289,138.45Z" transform="translate(0.11 -0.36)" fill="#2d4bbc"/>
  <path id="Path_890" data-name="Path 890" d="M301.22,122.26c-1.43-1.78-1.7-3.61-.21-5.5,3.36.34,6.56,2.78,10.11.78l3.8-1.42c1.52.57,1.64,2,2.1,3.29-1.35,2.29-3.64,2.87-6,3.28C307.75,122.28,304.37,125,301.22,122.26Z" transform="translate(0.11 -0.36)" fill="#1a2283"/>
  <path id="Path_891" data-name="Path 891" d="M49,256.23a4.06,4.06,0,0,1-4.8,3.38c-3.7-.69-3.29-4.7-4.18-7.35-1.13-3.35,2.87-3.34,4.07-3.24C48.38,249.38,46.49,254.32,49,256.23Z" transform="translate(0.11 -0.36)" fill="#48ffc2"/>
  <path id="Path_892" data-name="Path 892" d="M289.06,44.45c-1.81,2.52-.21,6.84-4.1,7.57-1.07.2-5.4.47-4.43-2.78.8-2.67-.48-7.2,4.19-7.69C286.51,41.37,288.63,41.94,289.06,44.45Z" transform="translate(0.11 -0.36)" fill="#48ffc2"/>
  <path id="Path_893" data-name="Path 893" d="M289,138.45a8.63,8.63,0,0,1-5-.94c5.81-4.73,6.78-9.42,2.93-14.19,5.13-1.74,6.19-1,6,4C292.83,131.46,290.73,134.89,289,138.45Z" transform="translate(0.11 -0.36)" fill="#92b9e2"/>
  <path id="Path_894" data-name="Path 894" d="M108.87,342.28c3,4.7,8.43,6.83,12,11-5.32,0-9.45-2.67-13.1-6.07C105.79,345.34,106.95,343.57,108.87,342.28Z" transform="translate(0.11 -0.36)" fill="#5b8ece"/>
  <path id="Path_895" data-name="Path 895" d="M115.05,226.53c8.6,2.55,17.45,4.47,24.9,9.9C131.39,233.8,122.53,231.91,115.05,226.53Z" transform="translate(0.11 -0.36)" fill="#9ec5fe"/>
  <path id="Path_896" data-name="Path 896" d="M146.79,333.42c9.26-9.74,18.6-19.39,26.31-30.49a170.343,170.343,0,0,0,11.82-20.17,51.645,51.645,0,0,1,3.11-5.67c1.13-1.67,2.9-3.57,4.8-3,2.13.6,1,3.19,1,4.85q.2,22.44.13,44.88c0,2.62.3,5,2.49,6.67,4.48,2.68,9.72,3.1,14.52,4.85,0,4.15-.12,8.3,0,12.44.13,3.32-1.19,4.15-4.21,3.12-2-.69-4.4-.71-6.17-1.78-4.53-2.73-9.38-3-14.4-2.72A11.18,11.18,0,0,1,176,341.43c-.56-1.35-2.27-2.31-1.91-3.89,1-4.34-1.57-4.18-4.58-4.14C161.95,333.52,154.37,333.43,146.79,333.42Z" transform="translate(0.11 -0.36)" fill="#fefefe"/>
  <path id="Path_897" data-name="Path 897" d="M211,335.31a16.94,16.94,0,0,1-14.52-4.84,73.69,73.69,0,0,0,14.44,1.09Q210.94,333.43,211,335.31Z" transform="translate(0.11 -0.36)" fill="#4f85d0"/>
  <path id="Path_898" data-name="Path 898" d="M251,227.42c6.38,2.18,13.35,3.06,18.15,8.64a15.84,15.84,0,0,1,3.82,10c.12,2.54-.46,3.44-3.47,2.81-15.05-3.13-30.17-5.94-45.27-8.84-3.4-.65-6.82-1.24-11.39-2.06l24.06-9.5a66.659,66.659,0,0,1,14.1-1.05Z" transform="translate(0.11 -0.36)" fill="#91bcfe"/>
  <path id="Path_899" data-name="Path 899" d="M284,230.44c-6-1.82-12-3.61-17.95-5.49-1.85-.58-3.93-.82-5.23-2.56,2.67-5.42,4.92-11,8.18-16.19,1-1.64,2-3,4.12-2.82A44.71,44.71,0,0,1,284,230.44Z" transform="translate(0.11 -0.36)" fill="#f8fbfe"/>
  <path id="Path_900" data-name="Path 900" d="M301.22,122.26l9.78.42c-6,1.84-5.81,1.73-1.91,7.5,5.57,8.22,7.36,17.06,4.28,26.85-2.67,8.49-1.65,17,1.64,25.17-3.27-.48-6.65-.6-9.79-1.5-10.48-3-13.65-12-7.6-21,5.72-8.49,5.72-8.49-1-16.46-.53-.63-1.09-1.24-1.63-1.86l-1.13-1.9c-1.95-4.68-1-8.64,2.77-12.07A63.6,63.6,0,0,0,301.22,122.26Z" transform="translate(0.11 -0.36)"/>
  <path id="Path_901" data-name="Path 901" d="M71.11,67.76C89.59,61.51,107.94,54.9,126,47.52c9.56-2.26,18.52-6.3,27.72-9.61,26.59-9.57,53.12-19.31,79.68-29,1.38-.5,2.8-.87,4.53-1.4V59.87c0,17.33-.1,34.67.08,52,0,3.51-.89,5.27-4.37,6.47-11,3.8-21.8,8-32.68,12.09q-28.5,10.19-57,20.39c-5.73,2.07-11.38,4.38-17.06,6.58C108.47,164,90,170.68,71.55,177.18c-1.37.48-3.05,2.57-4.72.25-.71-10.64.23-21.31-.39-31.92-1.3-22.27-1-44.55-1.05-66.84a35.91,35.91,0,0,1,.27-6.48C66.2,69.18,67.74,67.32,71.11,67.76Z" transform="translate(0.11 -0.36)" fill="#162081"/>
  <path id="Path_902" data-name="Path 902" d="M71.11,67.76c-3.36.91-4.24,3-4.23,6.51.1,34.38,0,68.77-.05,103.15-1.39-1.58-.79-3.49-.8-5.25-.05-11.45,0-22.9-.05-34.35,0-4.42-1.21-8.44-4.89-11.33,0-17.69,0-35.38-.09-53.07,0-3.39,1-6.15,4-8C67.13,65.88,70.67,62.75,71.11,67.76Z" transform="translate(0.11 -0.36)" fill="#dae8fe"/>
  <path id="Path_903" data-name="Path 903" d="M285.94,100.66c.26-1.75-.09-3.75,1.8-3.4,2.12.39,2.43,2.52,2.24,4.43-.13,1.31.69,3.73-1.57,3.38S286.91,101.79,285.94,100.66Z" transform="translate(0.11 -0.36)" fill="#3569b7"/>
  <path id="Path_904" data-name="Path 904" d="M197,37.58c8.22-5.34,17.1-.28,17.62,10.47.32,6.72-1.5,13.07-6.66,18a1.56,1.56,0,0,1-1.28-.66c-.8-2.15.47-3.86,1.3-5.62a25.83,25.83,0,0,0,2.57-8.54c.64-6.55-3.7-11.18-10.26-11-1.17,0-2.32.23-3.36-.51A1.61,1.61,0,0,1,197,37.58Z" transform="translate(0.11 -0.36)" fill="#48ffc2"/>
  <path id="Path_905" data-name="Path 905" d="M197,37.58l.24,1.74c-3.21,4.16-7.61,7.33-9.59,12.54a21.61,21.61,0,0,0-.92,12.25c1,5,5.7,5.5,9.43,7.11a1.94,1.94,0,0,1,.07,2.17c-7.74,1.78-13.2-5-13.26-11.87C182.84,50.75,187.45,42.72,197,37.58Z" transform="translate(0.11 -0.36)" fill="#9db3e3"/>
  <path id="Path_906" data-name="Path 906" d="M221.33,71.1c1.11-.23,1.61.26,1.65,1.26s.21,2.43-1.2,2.93c-2.95,1.06-5.91,2.08-8.89,3-.92.29-2.06.49-2.51-.76a2.11,2.11,0,0,1,1.23-2.87C214.82,73.42,218.09,72.29,221.33,71.1Z" transform="translate(0.11 -0.36)" fill="#0799a8"/>
  <path id="Path_907" data-name="Path 907" d="M175,48.54c.23,1.49-.73,2.1-1.88,2.52-2.8,1-5.62,2-8.43,3-1,.34-2,.75-2.35-.68-.23-.94-.44-2.27.59-2.7q5.265-2.175,10.68-4C175.23,46.15,174.89,47.66,175,48.54Z" transform="translate(0.11 -0.36)" fill="#adc4ed"/>
  <path id="Path_908" data-name="Path 908" d="M234.17,23.5c.25,1.6-1,2.17-2.26,2.64-2.34.85-4.67,1.72-7.05,2.41-.92.27-2.21,1.66-2.91-.11-.49-1.24-.44-2.77,1.15-3.38,3.09-1.18,6.23-2.26,9.37-3.31C233.91,21.25,234.13,22.25,234.17,23.5Z" transform="translate(0.11 -0.36)" fill="#48ffc2"/>
  <path id="Path_909" data-name="Path 909" d="M84.84,102.75c-2.76,2.36-1.69,6.16-3.65,8.88.79-6.47,1-13.09,4.39-19,1.36-2.32,3.72-3.12,6.33-3.24.68,1.62-.81,1.94-1.59,2.7a11.72,11.72,0,0,0-5.48,10.66Z" transform="translate(0.11 -0.36)" fill="#757eb9"/>
  <path id="Path_910" data-name="Path 910" d="M157.74,112.59v18.18l-1.45-.06c-.71-4.45-.26-9-.21-13.44C157.39,116,155.2,113.45,157.74,112.59Z" transform="translate(0.11 -0.36)" fill="#2c51d5"/>
  <path id="Path_912" data-name="Path 912" d="M196.21,73.4l-.08-1.84a28,28,0,0,1,10.62-6.43l1.19.88C204.69,69.53,201.48,73.11,196.21,73.4Z" transform="translate(0.11 -0.36)" fill="#0799a8"/>
  <path id="Path_911" data-name="Path 911" d="M144.25,104.46c1.23,5.34.42,10.74.47,16.11-1.15,1.72,1.3,4.49-1.66,5.69l.05-10.93C144.44,111.81,142.36,107.93,144.25,104.46Z" transform="translate(0.11 -0.36)" fill="#48ffc2"/>
  <path id="Path_913" data-name="Path 913" d="M84.84,102.75c-1.25-5.26.61-9.27,5.33-11.48,1.5.28,1.57,1.09.81,2.2h0c-1.41,2.25-3.67,3.78-5.07,6Z" transform="translate(0.11 -0.36)" fill="#162284"/>
  <path id="Path_914" data-name="Path 914" d="M143.07,126.27c1.87-1.51.13-4.08,1.66-5.69.21,5,.64,10-.45,16.35-1.73-2.6-1.28-4.21-1.32-5.68C142.91,129.58,143,127.92,143.07,126.27Z" transform="translate(0.11 -0.36)" fill="#324bcc"/>
  <path id="Path_915" data-name="Path 915" d="M157.74,112.59c-1.35,1.28.05,3.54-1.66,4.69v-15C158.72,105.91,157.34,109.39,157.74,112.59Z" transform="translate(0.11 -0.36)" fill="#48ffc2"/>
  <path id="Path_916" data-name="Path 916" d="M78.78,139.58v18.93h-.64V139.42Z" transform="translate(0.11 -0.36)" fill="#794ccc"/>
  <path id="Path_917" data-name="Path 917" d="M123.44,77.15c2.78,3.86,8.59,2.3,11.24,6.33C130.9,81.38,125.63,82.15,123.44,77.15Z" transform="translate(0.11 -0.36)" fill="#0b47c5"/>
  <path id="Path_918" data-name="Path 918" d="M117.92,126.67v17.76h-.6V126.62Z" transform="translate(0.11 -0.36)" fill="#5d54da"/>
  <path id="Path_919" data-name="Path 919" d="M131.08,128.5c.86,3.72,1.39,7.43-1,12.27V128.43Q130.65,127.8,131.08,128.5Z" transform="translate(0.11 -0.36)" fill="#4758e2"/>
  <path id="Path_920" data-name="Path 920" d="M147.56,85.2c-2,3.41-4.27,6.24-8.69,3.89C142.18,88.72,145.31,88,147.56,85.2Z" transform="translate(0.11 -0.36)" fill="#0c42bd"/>
  <path id="Path_921" data-name="Path 921" d="M91,93.47l-.81-2.2,1.73-1.83a39.62,39.62,0,0,0,1.56-6.09C93.89,87,94.22,90.71,91,93.47Z" transform="translate(0.11 -0.36)" fill="#0d4bc9"/>
  <path id="Path_922" data-name="Path 922" d="M101.93,157.94c1.84-2.84,4.36-2.27,6.59-2.93C106.79,157.77,106.79,157.77,101.93,157.94Z" transform="translate(0.11 -0.36)" fill="#5064af"/>
  <path id="Path_923" data-name="Path 923" d="M91.52,142.4a31,31,0,0,1,0,12,32.75,32.75,0,0,1,0-12Z" transform="translate(0.11 -0.36)" fill="#664ecf"/>
  <path id="Path_924" data-name="Path 924" d="M82.11,164.75c-2,2.89-4.27,3.11-7.34,3.21C76.86,165.42,79.12,165.2,82.11,164.75Z" transform="translate(0.11 -0.36)" fill="#4b5eab"/>
  <path id="Path_925" data-name="Path 925" d="M160.28,136.45c-1.81,2.75-3.69,3.21-5.81,3.13a1,1,0,0,1-.28-.83C155.46,136.61,157.64,137.31,160.28,136.45Z" transform="translate(0.11 -0.36)" fill="#495caa"/>
  <path id="Path_926" data-name="Path 926" d="M144.25,104.46c-.91,3.57.72,7.4-1.13,10.88,0-3.71,0-7.41.06-11.12,0-.08.31-.26.4-.22a3.8,3.8,0,0,1,.67.46Z" transform="translate(0.11 -0.36)" fill="#48ffc2"/>
  <path id="Path_927" data-name="Path 927" d="M131.58,89.26c-1.89,1.8-3.82,3.15-6.68.49Z" transform="translate(0.11 -0.36)" fill="#6c72af"/>
  <path id="Path_928" data-name="Path 928" d="M131.08,128.5q-.48-.05-1-.07V118.14C131.74,121.53,130.91,125.05,131.08,128.5Z" transform="translate(0.11 -0.36)" fill="#48ffc2"/>
  <path id="Path_929" data-name="Path 929" d="M107.69,76.92A26.23,26.23,0,0,1,114,72Z" transform="translate(0.11 -0.36)" fill="#0a48c7"/>
  <path id="Path_930" data-name="Path 930" d="M104.22,149.56v-8.2C105.48,144.09,105,146.83,104.22,149.56Z" transform="translate(0.11 -0.36)" fill="#4d56df"/>
  <path id="Path_931" data-name="Path 931" d="M103.33,99c-3,.2-4.1-1.8-5.12-4C100.38,95.75,101.21,98.22,103.33,99Z" transform="translate(0.11 -0.36)" fill="#7c82b8"/>
  <path id="Path_932" data-name="Path 932" d="M85.94,99.47c.48-3,2.9-4.43,5.07-6C90.51,96.44,88.06,97.81,85.94,99.47Z" transform="translate(0.11 -0.36)" fill="#0a48c8"/>
  <path id="Path_933" data-name="Path 933" d="M143.19,143.86c-.86.19-1.21-.34-1.12-1,.21-1.53,1.65-1.25,2.63-1.59.8-.28,1.27.26,1.14,1C145.59,143.66,144.19,143.48,143.19,143.86Z" transform="translate(0.11 -0.36)" fill="#4d60ac"/>
  <path id="Path_934" data-name="Path 934" d="M206.75,65.13c-3.12,2.84-6.49,5.27-10.63,6.43-9.38-.38-13.67-7.33-10.64-17.6,1.9-6.41,5.64-11.51,11.73-14.64,12-1.2,17.39,5.58,13.51,17.29C209.75,59.57,208.09,62.3,206.75,65.13Z" transform="translate(0.11 -0.36)" fill="#162082"/>
</svg>
