<svg xmlns="http://www.w3.org/2000/svg" width="73.894" height="57.436" viewBox="0 0 73.894 57.436">
  <g id="Group_6475" data-name="Group 6475" transform="translate(-1016 -2913.246)">
    <g id="wallet-_5_" transform="translate(1016 2922.445)">
      <path id="Path_21524" data-name="Path 21524" d="M67.22-508.9c-4.678,1.7-8.61,3.169-8.752,3.263a2.136,2.136,0,0,0-.509.585c-.377.641-.33,1.141.236,2.669l.462,1.273,6.667.028,6.658.019.009-2.094c0-2.4.1-2.971.651-3.885a5.919,5.919,0,0,1,.877-1.056,4.63,4.63,0,0,1,3.668-1.264,9.968,9.968,0,0,0,1.113-.028,15.056,15.056,0,0,0-.594-1.641A1.97,1.97,0,0,0,75.99-512C75.839-512,71.888-510.6,67.22-508.9Z" transform="translate(-52.285 512)" fill="#757ae9"/>
      <path id="Path_21525" data-name="Path 21525" d="M240.085-453.821a1.764,1.764,0,0,0-.943.971,7.97,7.97,0,0,0-.141,2.339v1.98h16.5v-1.98a7.971,7.971,0,0,0-.141-2.339,1.764,1.764,0,0,0-.943-.971c-.358-.17-.764-.179-7.167-.179S240.443-453.991,240.085-453.821Z" transform="translate(-216.474 459.47)" fill="#757ae9"/>
      <path id="Path_21526" data-name="Path 21526" d="M2.795-365.617A3.9,3.9,0,0,0,.22-362.8c-.066.339-.094,4.743-.075,14.6l.028,14.1.349.717a3.624,3.624,0,0,0,1.848,1.8l.632.3H41.3l.717-.349a3.624,3.624,0,0,0,1.8-1.848l.3-.632.028-3.65.028-3.65-3.989-.028c-3.876-.038-4.008-.038-4.649-.255a7.27,7.27,0,0,1-4.828-5.008,8.342,8.342,0,0,1,.057-3.678,6.834,6.834,0,0,1,1.848-3.074,5.357,5.357,0,0,1,1.745-1.292c1.556-.754,1.528-.754,5.922-.792l3.885-.047V-359c0-3.7-.038-4.093-.519-4.913a4.541,4.541,0,0,0-1.726-1.537l-.538-.255-19.1-.019C6.68-365.73,3.116-365.711,2.795-365.617Z" transform="translate(-0.139 379.518)" fill="#757ae9"/>
      <path id="Path_21527" data-name="Path 21527" d="M355.239-227.617a4.19,4.19,0,0,0-3.055,3.1,4.062,4.062,0,0,0,1.075,3.923,3.806,3.806,0,0,0,1.811,1.113c.528.17.943.179,5.753.179,5.705,0,5.621.009,6.036-.575l.226-.321v-3.32c0-3.2-.009-3.32-.2-3.574a2.573,2.573,0,0,0-.453-.453c-.255-.2-.368-.2-5.413-.217C356.39-227.778,355.8-227.759,355.239-227.617Zm1.547,2.791a1.48,1.48,0,0,1,.868,1.65,1.5,1.5,0,0,1-1.018,1,1.394,1.394,0,0,1-1.349-.387,1.334,1.334,0,0,1-.066-1.839A1.277,1.277,0,0,1,356.786-224.826Z" transform="translate(-318.86 254.57)" fill="#757ae9"/>
    </g>
    <g id="_1" data-name="1" transform="translate(1054.943 2916.777)">
      <path id="Path_21589" data-name="Path 21589" d="M29.524,11.487V2h-9.46" transform="translate(1.895 -2)" fill="none" stroke="#21bdca" stroke-linecap="round" stroke-linejoin="round" stroke-width="5"/>
      <path id="Path_21590" data-name="Path 21590" d="M2,25.015,13.618,12.254a1.241,1.241,0,0,1,1.87,0L18.9,16.008a1.319,1.319,0,0,0,.429.315,1.212,1.212,0,0,0,1.012,0,1.318,1.318,0,0,0,.429-.315L33.42,2" transform="translate(-2 -2)" fill="none" stroke="#21bdca" stroke-linecap="round" stroke-linejoin="round" stroke-width="5"/>
    </g>
  </g>
</svg>
