<svg xmlns="http://www.w3.org/2000/svg" width="57.631" height="52.124" viewBox="0 0 57.631 52.124">
  <g id="loan_1_" data-name="loan (1)" transform="translate(0 487.178)">
    <path id="Path_21543" data-name="Path 21543" d="M328.733-486.865c-.146.248-.743,1.193-1.317,2.1-1.058,1.7-1.328,1.97-1.823,1.835a20.229,20.229,0,0,1-2.33-1.925c-1.88-1.677-2.262-1.981-2.262-1.8,0,.034.36,1.5.8,3.264l.8,3.208h12.9l.18-.765c.855-3.8,1.2-5.459,1.148-5.515-.079-.079-.034-.124-2.364,2.375a14.439,14.439,0,0,1-1.936,1.835.726.726,0,0,1-.54-.1,16.326,16.326,0,0,1-1.475-2.353C328.89-487.6,329.07-487.383,328.733-486.865Z" transform="translate(-284.869 0)" fill="#45c0a4"/>
    <path id="Path_21544" data-name="Path 21544" d="M265.42-417.162a5.815,5.815,0,0,0-3.647,2.972,8.073,8.073,0,0,0-.585,1.52c-.135.619-.135.642.113.844a.982.982,0,0,0,.338.214c.248,0,.484-.36.63-.945a5.037,5.037,0,0,1,4.784-3.771l.507.011-.574.135c-1.553.383-2.735,1.677-2.611,2.882.034.36.056.394.417.394.405,0,.518-.124.63-.642a2.521,2.521,0,0,1,1.351-1.4c.642-.3,1.418-.349,1.632-.1.124.146,1.081.169,7.4.169,4.694,0,7.328-.045,7.463-.113a1.58,1.58,0,0,0,.405-1.373,1.18,1.18,0,0,0-.326-.619c-.248-.236-.349-.236-8.825-.281C268.2-417.285,265.8-417.263,265.42-417.162Z" transform="translate(-231.708 -62.038)" fill="#45c0a4"/>
    <path id="Path_21545" data-name="Path 21545" d="M280.7-387.74c-.225.293-5.031,7.26-5.414,7.845a9.138,9.138,0,0,0-1.384,5.02,9.429,9.429,0,0,0,7.575,9.219,87.641,87.641,0,0,0,11.661,0,9.535,9.535,0,0,0,7.339-7.069,11.266,11.266,0,0,0,.045-4.255c-.405-1.79-.608-2.139-4.581-7.857l-2.071-2.983-6.528-.034C282.2-387.875,280.777-387.841,280.7-387.74Zm8.014,5.887a6.022,6.022,0,0,1,4.221,4.5,5.933,5.933,0,0,1-.8,4.12,7.149,7.149,0,0,1-2.262,2.06,5.51,5.51,0,0,1-6.573-1.1,5.452,5.452,0,0,1-1.7-4.345A5.765,5.765,0,0,1,288.713-381.853Z" transform="translate(-243.07 -88.139)" fill="#45c0a4"/>
    <path id="Path_21546" data-name="Path 21546" d="M353.46-328.715A5.367,5.367,0,0,0,350.027-326a5.209,5.209,0,0,0,.022,4.243,5.807,5.807,0,0,0,2.307,2.3,5.228,5.228,0,0,0,4.232,0,5.806,5.806,0,0,0,2.307-2.3,4.905,4.905,0,0,0-1.036-5.662A4.806,4.806,0,0,0,353.46-328.715Zm1.238,1.666c0,.416.022.439.428.507a2.2,2.2,0,0,1,.563.158c.2.135.045.506-.18.416a2.641,2.641,0,0,0-1.407-.068.822.822,0,0,0-.439,1.013c.068.2.349.416.99.743.968.507,1.4.979,1.4,1.565a1.5,1.5,0,0,1-.9,1.283c-.417.18-.45.225-.45.664,0,.405-.034.484-.225.484s-.225-.079-.225-.45c0-.394-.034-.45-.3-.518a2.565,2.565,0,0,1-1.047-.36c.011-.293.214-.383.563-.259,1.036.349,1.914,0,1.914-.765,0-.518-.259-.788-1.126-1.171a3.071,3.071,0,0,1-.934-.63,1.245,1.245,0,0,1,.563-1.992c.338-.146.371-.2.371-.608,0-.371.034-.45.225-.45S354.7-327.41,354.7-327.05Z" transform="translate(-310.238 -140.534)" fill="#757ae9"/>
    <path id="Path_21547" data-name="Path 21547" d="M9.286-195.974C4.7-194.376.743-192.98.473-192.89L0-192.7l.023,6.033.034,6.044.3.034c.18.023,2.33-.7,5.437-1.823,2.814-1.024,5.189-1.868,5.268-1.868.2,0,12.2,3.737,13.53,4.21a17.281,17.281,0,0,0,2.42.619l1.294.225,5.065-1.069c15.139-3.219,20.677-4.435,21.071-4.615a4.753,4.753,0,0,0,1-.777,3.925,3.925,0,0,0,.45-4.953,4.153,4.153,0,0,0-3.557-1.711c-.281.034-3.343.7-6.8,1.475s-6.315,1.4-6.337,1.373a1.433,1.433,0,0,1,.146-.473,3.541,3.541,0,0,0-.236-2.623,4.375,4.375,0,0,0-1.823-1.733c-.36-.191-3.557-.968-9.905-2.431-5.155-1.182-9.455-2.15-9.568-2.139S13.867-197.584,9.286-195.974Z" transform="translate(0 -255.829)" fill="#757ae9"/>
  </g>
</svg>
