<svg xmlns="http://www.w3.org/2000/svg" width="64.066" height="60.58" viewBox="0 0 64.066 60.58">
  <g id="contact" transform="translate(-0.6 498)">
    <path id="Path_24402" data-name="Path 24402" d="M101.657-497.85c-.113.113-.15,2.206-.15,8.647v8.5l1.4,2.105c1.892,2.82,2.093,3.434,1.667,4.862-.263.9-.7,1.341-3.133,3.233a23.8,23.8,0,0,0-2.318,1.955,1.408,1.408,0,0,0-.125.514c0,.589,2.018,3.9,3.521,5.79l.777.965h23.385c18.6,0,23.447-.038,23.7-.163l.313-.163.038-17.946c.013-12.244-.013-18.033-.1-18.209-.138-.238-.514-.238-24.475-.238C107.384-498,101.77-497.962,101.657-497.85Zm4.361,2.82c.175.113,4.5,3.384,9.612,7.269s9.474,7.156,9.712,7.306a1.4,1.4,0,0,0,1.391.1c.15-.075,4.562-3.384,9.787-7.356s9.637-7.281,9.775-7.369a1.062,1.062,0,0,1,1.341.2.989.989,0,0,1-.038,1.566c-.514.539-19.011,14.55-19.775,14.988a2.716,2.716,0,0,1-1.692.313,2.9,2.9,0,0,1-1.654-.288c-.614-.326-19.663-14.738-19.988-15.126a1.065,1.065,0,0,1,.138-1.454A1.021,1.021,0,0,1,106.018-495.03Zm12.006,16.53c.514.589.388,1.053-.576,2.08-.476.5-3.233,3.471-6.141,6.579-3.672,3.923-5.389,5.677-5.577,5.7a1.178,1.178,0,0,1-1.04-.288,1.027,1.027,0,0,1-.3-1.165c.15-.389,12.093-13.2,12.382-13.284A1.336,1.336,0,0,1,118.023-478.5Zm17.871-.088c.213.175,9.662,10.264,11.392,12.143.539.589.714.89.714,1.165a1.138,1.138,0,0,1-1.491,1.1c-.226-.075-2.431-2.343-6.04-6.216-3.133-3.346-5.84-6.279-6.028-6.529a1.171,1.171,0,0,1-.063-1.617A1.05,1.05,0,0,1,135.894-478.588Z" transform="translate(-86.069)" fill="#757ae9"/>
    <path id="Path_24403" data-name="Path 24403" d="M7.793-407.331a62.838,62.838,0,0,0-5.552,3.421C1.076-402.9.613-401.253.6-398.221a13.579,13.579,0,0,0,.288,3.384c1.441,6.88,6.554,14.65,15.139,23a70.973,70.973,0,0,0,9.938,8.259,34.738,34.738,0,0,0,8.685,4.461,15.427,15.427,0,0,0,6.166.99c3.146-.013,4.324-.338,5.552-1.554a46.562,46.562,0,0,0,3.5-5.765,1.015,1.015,0,0,0-.088-.614c-.075-.15-2.682-1.968-5.777-4.023-6.091-4.073-6.178-4.11-6.792-3.484-.15.163-1.028,1.241-1.93,2.419a20.66,20.66,0,0,1-2.105,2.431,5,5,0,0,1-2.03.639,7.122,7.122,0,0,1-2.757-1.153,40.3,40.3,0,0,1-9.136-7.306,42,42,0,0,1-7.043-8.522c-1.278-2.168-1.529-2.757-1.529-3.672,0-1.541.351-2.005,3.158-4.186,1.191-.927,2.256-1.792,2.356-1.9.464-.576.351-.79-3.509-6.592-2.018-3.033-3.747-5.577-3.835-5.652A1.639,1.639,0,0,0,7.793-407.331Z" transform="translate(0 -79.29)" fill="#45c0a4"/>
  </g>
</svg>
