<svg xmlns="http://www.w3.org/2000/svg" width="57.146" height="57.146" viewBox="0 0 57.146 57.146">
  <g id="digital-wallet_1_" data-name="digital-wallet (1)" transform="translate(-24 504)">
    <path id="Path_21565" data-name="Path 21565" d="M393.9-503.048v.952H392v1.9h1.9v1.9h1.9v-1.9h1.9v-1.9h-1.9V-504h-1.9Zm1.9,1.9v.952h-1.9v-1.9h1.9Z" transform="translate(-324.188)" fill="#45c0a4"/>
    <path id="Path_21566" data-name="Path 21566" d="M25.607-487.774a3.073,3.073,0,0,0-1.417,1.464,3.708,3.708,0,0,0-.19,1.286v.833H52.573v-.833a3.708,3.708,0,0,0-.19-1.286,3.073,3.073,0,0,0-1.417-1.464c-.452-.214-1.048-.226-12.679-.226S26.06-487.988,25.607-487.774Z" transform="translate(0 -14.095)" fill="#757ae9"/>
    <path id="Path_21567" data-name="Path 21567" d="M24-419.047v20.953H43.108l-.036-12.584c-.024-8.346.012-12.917.083-13.536a4.637,4.637,0,0,1,1.369-2.881c1.06-1.06,2.3-1.464,4.429-1.476H49.8l.071-1.583a11.3,11.3,0,0,1,2.107-6.322l.6-.857V-440H24Zm22.858-16.191v.952h1.9v1.9h-1.9v1.9h-1.9v-1.9h-1.9v-1.9h1.9v-1.9h1.9Z" transform="translate(0 -56.381)" fill="#757ae9"/>
    <path id="Path_21568" data-name="Path 21568" d="M200-391.048v.952h1.9V-392H200Z" transform="translate(-155.047 -98.666)" fill="#45c0a4"/>
    <path id="Path_21569" data-name="Path 21569" d="M263.9-439.761a10.739,10.739,0,0,0-7.679,7.727,13.271,13.271,0,0,0-.06,4.7,10.61,10.61,0,0,0,3.548,5.869l.643.5H265.5v-2.107l-.536-.2a3.88,3.88,0,0,1-2.2-2.964v-.44h1.786v.321a1.781,1.781,0,0,0,1.9,1.583,1.752,1.752,0,0,0,1.9-1.9c0-1.226-.6-1.786-2.143-2a3.669,3.669,0,0,1-2.381-1.1,3.231,3.231,0,0,1-1.048-2.453,2.691,2.691,0,0,1,.25-1.643,4.093,4.093,0,0,1,1.929-1.929l.536-.2v-2.107h1.9V-436l.536.2a3.881,3.881,0,0,1,2.2,2.953v.452h-1.786v-.333a1.781,1.781,0,0,0-1.9-1.572,1.752,1.752,0,0,0-1.9,1.9c0,1.226.6,1.786,2.143,2a3.669,3.669,0,0,1,2.381,1.1,2.992,2.992,0,0,1,1.012,2.619,2.914,2.914,0,0,1-.274,1.643,4.161,4.161,0,0,1-1.8,1.714l-.607.274v2.083h5.155l.643-.5a10.61,10.61,0,0,0,3.548-5.869,13.27,13.27,0,0,0-.06-4.7,10.676,10.676,0,0,0-7.738-7.738A13.156,13.156,0,0,0,263.9-439.761Zm-4.107,10.227v.952h-1.9v-1.9h1.9Zm15.239,0v.952h-1.9v-1.9h1.9Z" transform="translate(-204.36 -56.369)" fill="#45c0a4"/>
    <path id="Path_21570" data-name="Path 21570" d="M457.9-423.048v.952H456v1.9h1.9v1.9h1.9v-1.9h1.9v-1.9h-1.9V-424h-1.9Zm1.9,1.9v.952h-1.9v-1.9h1.9Z" transform="translate(-380.569 -70.476)" fill="#45c0a4"/>
    <path id="Path_21571" data-name="Path 21571" d="M201.607-327.774A2.757,2.757,0,0,0,200-325.119a2.694,2.694,0,0,0,.845,2.083c.762.714.964.75,4.417.75h3.119l-.369-.393a12.378,12.378,0,0,1-.8-.952l-.429-.583-1.964.024-1.964.012V-326.1h2.929l-.3-.952-.31-.94L203.631-328A4.62,4.62,0,0,0,201.607-327.774Z" transform="translate(-155.047 -155.047)" fill="#757ae9"/>
    <path id="Path_21572" data-name="Path 21572" d="M420.822-326.94a12.18,12.18,0,0,1-2.131,3.833l-.69.821h2.476c1.369,0,2.822.036,3.226.071l.726.083v-1.893a5.468,5.468,0,0,0-.226-2.369A2.756,2.756,0,0,0,421.726-328h-.571Z" transform="translate(-347.093 -155.047)" fill="#757ae9"/>
    <path id="Path_21573" data-name="Path 21573" d="M200-260.967c0,10.334.012,10.893.226,11.346a3.566,3.566,0,0,0,.619.857c.845.8-.262.75,16.3.75s15.453.048,16.3-.75c.726-.691.845-1.107.845-3.143v-1.81l-6.155-.036c-5.881-.048-6.2-.06-6.905-.3a5.639,5.639,0,0,1-3.964-5.393,5.639,5.639,0,0,1,3.964-5.393c.7-.238,1.024-.25,6.905-.3l6.155-.036v-1.81c0-2.036-.119-2.452-.845-3.143-.845-.8.214-.75-15.786-.75-9.1,0-14.81-.048-15.334-.119a6.923,6.923,0,0,1-2.226-.81C200.036-271.824,200-266.955,200-260.967Z" transform="translate(-155.047 -204.555)" fill="#757ae9"/>
    <path id="Path_21574" data-name="Path 21574" d="M362.286-199.75A3.739,3.739,0,0,0,360-196.19a3.689,3.689,0,0,0,2.083,3.453l.6.3,6.286.036,6.274.036V-200l-6.155.012C363.179-199.988,362.893-199.976,362.286-199.75Zm1.524,3.56v.952h-1.9v-1.9h1.9Z" transform="translate(-295.998 -267.808)" fill="#757ae9"/>
    <path id="Path_21575" data-name="Path 21575" d="M34.012-72.464,24-72.44v1.786c0,2,.1,2.393.75,3.083a3.565,3.565,0,0,0,.857.619c.452.214,1.048.226,12.655.226,13.429,0,12.62.048,13.465-.75a2.687,2.687,0,0,0,.845-2.2v-.857H50.287c-1.262,0-2.643-.06-3.072-.119a5.009,5.009,0,0,1-2.631-1.3l-.571-.548Zm7.131,2.881v.952H35.429v-1.9h5.715Z" transform="translate(0 -380.129)" fill="#757ae9"/>
  </g>
</svg>
