<svg xmlns="http://www.w3.org/2000/svg" width="37.273" height="35.83" viewBox="0 0 37.273 35.83">
  <g id="transaction-_2_" transform="translate(-47.775 456.101)">
    <path id="Path_20597" data-name="Path 20597" d="M51.028-455.949a4.4,4.4,0,0,0-3.1,3.143c-.206.77-.206,28.477,0,29.247a4.382,4.382,0,0,0,3.134,3.152c.466.116,2.328.134,15.358.134,16.164,0,15.268.027,16.316-.5A4.871,4.871,0,0,0,84.5-422.5c.582-1.093.546-.152.546-15.68,0-12.385-.018-14.176-.134-14.641a4.382,4.382,0,0,0-3.152-3.134C81-456.155,51.771-456.146,51.028-455.949Zm10.137,8.668a1.442,1.442,0,0,1,.824,1.639c-.045.278-.26.546-1.1,1.388L59.849-443.2l8.2.018c8.131.027,8.212.027,8.454.215a1.264,1.264,0,0,1,.618,1.2,1.264,1.264,0,0,1-.618,1.2c-.242.188-.3.188-10.245.215-6.851.018-10.11,0-10.334-.072a1.533,1.533,0,0,1-.931-1.03c-.143-.761-.107-.806,2.409-3.349,1.29-1.3,2.472-2.409,2.615-2.481A1.5,1.5,0,0,1,61.165-447.28Zm16.567,12.089a1.448,1.448,0,0,1,.824,1.648c-.054.287-.4.672-2.579,2.857-2.454,2.454-2.534,2.525-2.946,2.579a1.439,1.439,0,0,1-1.639-1.63c.054-.385.152-.51,1.191-1.567l1.119-1.146H65.625c-8.83,0-8.436.027-8.9-.528a1.445,1.445,0,0,1,.519-2.212C57.646-435.37,77.311-435.37,77.732-435.191Z" transform="translate(0 0)" fill="#cbd9ec"/>
  </g>
</svg>
