<svg id="Layer_2" data-name="Layer 2" xmlns="http://www.w3.org/2000/svg" width="115.727" height="121.706" viewBox="0 0 115.727 121.706">
  <g id="Layer_8" data-name="Layer 8" transform="translate(0 0)">
    <path id="Fill-12" d="M0,240.28H9.136v3.1H6.127v13.431H2.935V243.38H0Z" transform="translate(0 -135.503)"/>
    <path id="Fill-14" d="M42.238,246.742h1.871a3.858,3.858,0,0,0,2.067-.392,1.487,1.487,0,0,0,.567-1.308,1.618,1.618,0,0,0-.279-.959,1.548,1.548,0,0,0-.75-.58,5.812,5.812,0,0,0-1.744-.174H42.225ZM39.09,240.28h4.221a11.051,11.051,0,0,1,3.9.488,4,4,0,0,1,1.866,1.627,4.923,4.923,0,0,1,.711,2.682,4.548,4.548,0,0,1-.785,2.725,4.727,4.727,0,0,1-2.35,1.661l3.925,7.348H47.131l-3.72-7H42.238v7H39.09Z" transform="translate(-22.044 -135.503)"/>
    <g id="Group_3984" data-name="Group 3984" transform="translate(36.525 104.777)">
      <path id="Fill-16" d="M83.764,240.28h3.153v10.692a5.529,5.529,0,0,0,.244,1.954,1.88,1.88,0,0,0,.8.911,2.481,2.481,0,0,0,1.343.344,2.616,2.616,0,0,0,1.43-.379,2.023,2.023,0,0,0,.833-.972,7.238,7.238,0,0,0,.231-2.254v-10.3h3.157v9.855a14.289,14.289,0,0,1-.279,3.462,4.9,4.9,0,0,1-1.073,1.866,4.98,4.98,0,0,1-1.827,1.308,6.126,6.126,0,0,1-2.407.436,5.835,5.835,0,0,1-3.131-.828,4.823,4.823,0,0,1-1.906-2.067,10.962,10.962,0,0,1-.571-4.2Z" transform="translate(-83.76 -240.28)"/>
    </g>
    <path id="Fill-19" d="M131.28,240.28h8.207v3.066h-5.08v3h5.08v3.022h-5.08v7.439H131.28Z" transform="translate(-74.034 -135.503)"/>
    <path id="Fill-21" d="M170.07,240.28h8.207v3.066H173.2v3h5.08v3.022H173.2v7.439H170.07Z" transform="translate(-95.909 -135.503)"/>
    <path id="Fill-23" d="M208.8,240.28h3.148v13.531h4.583v3H208.8Z" transform="translate(-117.75 -135.503)"/>
    <path id="Fill-25" d="M244.7,240.28h9.022v3.079h-5.9v2.991h5.9v3.022h-5.9v4.352h5.9v3.087H244.7Z" transform="translate(-137.996 -135.503)"/>
    <ellipse id="Ellipse_184" data-name="Ellipse 184" cx="44.025" cy="44.539" rx="44.025" ry="44.539" transform="translate(13.766)" fill="#5e464d"/>
    <path id="Fill-6" d="M60.5,96.863c1.8.615,7.849,2.581,8.106.658.14-1.055-3.052-2.137-7.374-4.426A69.333,69.333,0,0,1,44.558,80.772,38.3,38.3,0,0,1,33.081,54.147c-.366-13.474,4.9-24.367,13.566-31.4A44.426,44.426,0,0,0,29.378,56.828a41.541,41.541,0,0,0,7.587,25.431A29,29,0,0,0,42.491,87.7,69.168,69.168,0,0,0,60.5,96.859" transform="translate(-16.558 -12.83)" fill="#fff"/>
    <path id="Fill-8" d="M146.129,37.285C143.4,24.448,134.913,15.46,123.563,9.111c8.665,6.179,20.9,19.318,13.692,30.908-6.1,9.284-20.953,7.465-29.064,3.052-9.646-5.233-21.729-17.006-9.811-28.518,7.714-7.448,32.269.9,27.947,12.035-2.52,6.476-12.332,5.037-16.745,1.871-3.253-2.337-5.992-6.353-4.544-10.5.467-1.33.4-3.393-1.478-1.875a7.4,7.4,0,0,0-2.35,4.736c-2.054,14.517,23.809,25.771,31.479,11.726,3.986-7.291-2.468-17.879-10.592-22.213-6.1-3.27-12.463-5.569-20.246-5.01C89.4,6.194,78.945,14,77.637,26.724c-1.308,12.646,7.147,24.027,17.1,30.834,10.465,7.151,24.533,11.865,37.405,7.6,11.538-3.824,16.3-17.067,13.985-27.877" transform="translate(-43.707 -2.954)" fill="#fff"/>
    <path id="Fill-10" d="M139.8,30.254c1.238-8.32-6.284-14.032-13.23-16.627-8.189-3.052-19.008-1.718-24.973,5.063-4.361,4.98-4.077,12.21-1.827,18.062,3.4,8.839,11.08,15.227,20.02,17.988,6.349,1.962,14.032,2.817,20.469.746,9.388-3.022,12.445-12.812,10.5-21.781a25.764,25.764,0,0,0-1.9-5.616c-1.186-2.49-4.8-7.531.188-1.391a21.68,21.68,0,0,1,1.448,2.141,24.072,24.072,0,0,1,2.438,5.412c2.73,8.372.589,18.14-6.977,23.194-5.8,3.868-13.182,4.33-19.915,3.362a37.653,37.653,0,0,1-23.447-12.685c-5.4-6.4-9.083-15.585-6.864-23.983A18.636,18.636,0,0,1,108.32,11.49a28.1,28.1,0,0,1,22.675,2.664,20.079,20.079,0,0,1,8.263,8.333,12.363,12.363,0,0,1,1.243,5.2,10.784,10.784,0,0,1-.17,2.18c-.048.262-.6,1-.523.392" transform="translate(-53.616 -5.756)" fill="#3fe0c5"/>
  </g>
</svg>
