<svg id="documents-_1_" xmlns="http://www.w3.org/2000/svg" width="36.59" height="36.606" viewBox="0 0 36.59 36.606">
  <path id="Path_20591" data-name="Path 20591" d="M60-495.842v16.158l12.39-.014,12.383-.022.021-1.051.021-1.044-.486-.043c-.272-.021-.808-.093-1.2-.157a9.79,9.79,0,0,1-7.028-5.219,12.176,12.176,0,0,1-.844-2.5,12.222,12.222,0,0,1,0-3.611,9.46,9.46,0,0,1,1.437-3.51,9.683,9.683,0,0,1,7.364-4.34l.715-.05v-2.145l-4.3-.021-4.311-.014V-512H60Zm12.941-8.651v1.072H64.29v-1.022a6.124,6.124,0,0,1,.05-1.072c.021-.029,1.973-.05,4.325-.05h4.275Zm1.072,4.361v1.072l-4.84-.014-4.847-.022-.021-1.058-.021-1.051h9.731Zm-1.072,4.29v1.072l-4.3-.014-4.311-.021-.021-1.058-.021-1.051h8.658Zm0,4.29v1.072H64.29V-491.5a6.125,6.125,0,0,1,.05-1.072c.021-.029,1.973-.05,4.325-.05h4.275Zm0,4.29v1.072H64.29v-1.022a6.125,6.125,0,0,1,.05-1.072c.021-.029,1.973-.05,4.325-.05h4.275Z" transform="translate(-55.71 512)" fill="#c9d7eb"/>
  <path id="Path_20592" data-name="Path 20592" d="M316-500.1v2.9h5.827l-2.9-2.9c-1.594-1.594-2.9-2.9-2.91-2.9S316-501.7,316-500.1Z" transform="translate(-293.407 503.643)" fill="#c9d7eb"/>
  <path id="Path_20593" data-name="Path 20593" d="M0-464.77v17.23H26.882v-2.145H2.145V-482H0Z" transform="translate(0 484.145)" fill="#c9d7eb"/>
  <path id="Path_20594" data-name="Path 20594" d="M308.006-330.792a7.643,7.643,0,0,0-6.113,5.612,5.362,5.362,0,0,0-.193,1.823,5.513,5.513,0,0,0,.186,1.795,7.537,7.537,0,0,0,5.877,5.605,9.348,9.348,0,0,0,2.824.007,7.527,7.527,0,0,0,5.684-9.952,7.563,7.563,0,0,0-5.72-4.855A10.512,10.512,0,0,0,308.006-330.792Zm2.974,8.293-2.538,2.538-1.466-1.466-1.466-1.466.765-.765.772-.772.694.694.7.7,1.766-1.773,1.773-1.766.765.765.772.772Z" transform="translate(-280.13 343.805)" fill="#c9d7eb"/>
</svg>
