<svg xmlns="http://www.w3.org/2000/svg" xmlns:xlink="http://www.w3.org/1999/xlink" width="107" height="107" viewBox="0 0 107 107">
  <defs>
    <filter id="Ellipse_174" x="0" y="0" width="107" height="107" filterUnits="userSpaceOnUse">
      <feOffset dy="3" input="SourceAlpha"/>
      <feGaussianBlur stdDeviation="3" result="blur"/>
      <feFlood flood-opacity="0.071"/>
      <feComposite operator="in" in2="blur"/>
      <feComposite in="SourceGraphic"/>
    </filter>
  </defs>
  <g id="security" transform="translate(-3 -2.299)">
    <g id="Group_3857" data-name="Group 3857">
      <g transform="matrix(1, 0, 0, 1, 3, 2.3)" filter="url(#Ellipse_174)">
        <circle id="Ellipse_174-2" data-name="Ellipse 174" cx="44.5" cy="44.5" r="44.5" transform="translate(9 6)" fill="#e4fcfe"/>
      </g>
    </g>
    <g id="Group_6644" data-name="Group 6644" transform="translate(4.029 3.594)">
      <path id="Path_17974" data-name="Path 17974" d="M39.523,35.106A2.588,2.588,0,0,1,37.8,37.547a5.183,5.183,0,0,0-3.452,4.884V63.148a5.179,5.179,0,0,0,5.179,5.179H52.471V33.367H39.523Z" transform="translate(0 1.598)" fill="#c5cae9"/>
      <path id="Path_17975" data-name="Path 17975" d="M67.147,37.546a2.587,2.587,0,0,1-1.727-2.44V33.367h-25.9v1.739A2.588,2.588,0,0,1,37.8,37.547a5.183,5.183,0,0,0-3.452,4.884V63.148a5.179,5.179,0,0,0,5.179,5.179h25.9A5.179,5.179,0,0,0,70.6,63.148V42.431A5.184,5.184,0,0,0,67.147,37.546Z" transform="translate(0 1.598)" fill="#fff"/>
      <path id="Path_17976" data-name="Path 17976" d="M67.147,37.546a2.587,2.587,0,0,1-1.727-2.44V33.367h-25.9v1.739A2.588,2.588,0,0,1,37.8,37.547a5.183,5.183,0,0,0-3.452,4.884V63.148a5.179,5.179,0,0,0,5.179,5.179h25.9A5.179,5.179,0,0,0,70.6,63.148V42.431A5.184,5.184,0,0,0,67.147,37.546Z" transform="translate(0 1.598)" fill="#fff"/>
      <path id="Path_17977" data-name="Path 17977" d="M67.147,37.546a2.587,2.587,0,0,1-1.727-2.44V33.367h-25.9v1.739A2.588,2.588,0,0,1,37.8,37.547a5.183,5.183,0,0,0-3.452,4.884V63.148a5.179,5.179,0,0,0,5.179,5.179h25.9A5.179,5.179,0,0,0,70.6,63.148V42.431A5.184,5.184,0,0,0,67.147,37.546Z" transform="translate(0 1.598)" fill="#fff"/>
      <path id="Path_17978" data-name="Path 17978" d="M42.449,38.343a2.589,2.589,0,0,1-1.727,2.441,5.182,5.182,0,0,0-3.452,4.884v14.89a3.885,3.885,0,0,0,3.884,3.884H51.513V33.367H42.449Z" transform="translate(0.958 1.598)" fill="#1e88e5"/>
      <path id="Path_17979" data-name="Path 17979" d="M62.3,40.783a2.587,2.587,0,0,1-1.727-2.44V33.367H42.449v4.976a2.589,2.589,0,0,1-1.727,2.441,5.182,5.182,0,0,0-3.452,4.884v14.89a3.885,3.885,0,0,0,3.884,3.884H61.871a3.885,3.885,0,0,0,3.884-3.884V45.668A5.185,5.185,0,0,0,62.3,40.783Z" transform="translate(0.958 1.598)" fill="#b6aeff"/>
      <path id="Path_17980" data-name="Path 17980" d="M48.682,63.29a.632.632,0,0,1-.847.291L37.6,58.586a.633.633,0,0,1-.291-.847L47.853,36.133a.631.631,0,0,1,.846-.291l10.235,4.994a.633.633,0,0,1,.291.847Z" transform="translate(0.95 2.387)" fill="#fff"/>
      <path id="Path_17981" data-name="Path 17981" d="M49.35,37.314l6.823,3.33a1.269,1.269,0,0,0,.581,1.692L47.876,60.532a1.271,1.271,0,0,0-1.692.581l-6.824-3.329a1.268,1.268,0,0,0-.581-1.692l8.879-18.2A1.268,1.268,0,0,0,49.35,37.314Z" transform="translate(1.452 2.891)" fill="#21bdca"/>
      <path id="Path_17982" data-name="Path 17982" d="M46.49,51.007a3.8,3.8,0,1,0-3.8-3.8A3.8,3.8,0,0,0,46.49,51.007Z" transform="translate(2.734 4.888)" fill="#fff"/>
      <path id="Path_17983" data-name="Path 17983" d="M43.727,45.555a.274.274,0,0,1,.37-.128l.127.062a2.342,2.342,0,0,1,.755-.74.344.344,0,0,1,.362-.039.354.354,0,0,1,.16.478.377.377,0,0,1-.137.148,2.327,2.327,0,0,0-.544.472l1.11.541c.648-.77,1.184-.975,1.8-.673a1.317,1.317,0,0,1,.526,1.78l.346.17a.273.273,0,0,1,.127.37.28.28,0,0,1-.372.133L48,47.956a2.759,2.759,0,0,1-1.029.965.355.355,0,1,1-.36-.611,2.266,2.266,0,0,0,.8-.667l-1.139-.554c-.631.737-1.141.974-1.794.656a1.291,1.291,0,0,1-.511-1.752l-.122-.06A.283.283,0,0,1,43.727,45.555Zm1.857,1.193-1.023-.5c-.146.387-.039.666.215.791S45.222,47.123,45.584,46.748Zm1.027-.065,1.051.513c.14-.39.054-.682-.224-.818C47.185,46.255,46.966,46.306,46.611,46.683Z" transform="translate(3.063 5.301)" fill="#21bdca"/>
      <path id="Path_17984" data-name="Path 17984" d="M63.547,55.982a.632.632,0,0,1-.306.841l-10.32,4.816a.633.633,0,0,1-.842-.306L41.913,39.546a.632.632,0,0,1,.306-.841L52.539,33.89a.633.633,0,0,1,.841.306Z" transform="translate(2.459 1.75)" fill="#e8eaf6"/>
      <path id="Path_17985" data-name="Path 17985" d="M43.98,38.554l6.88-3.212a1.269,1.269,0,0,0,1.682.612L61.1,54.3a1.268,1.268,0,0,0-.61,1.682l-6.88,3.211a1.27,1.27,0,0,0-1.683-.61L43.367,40.235A1.268,1.268,0,0,0,43.98,38.554Z" transform="translate(2.954 2.245)" fill="#1ea2ad"/>
      <path id="Path_17986" data-name="Path 17986" d="M50.984,49.062a3.8,3.8,0,1,0-3.8-3.8A3.8,3.8,0,0,0,50.984,49.062Z" transform="translate(4.205 4.251)" fill="#e8eaf6"/>
      <path id="Path_17987" data-name="Path 17987" d="M48.154,45.934a.272.272,0,0,1,.133-.366l.129-.061a2.317,2.317,0,0,1-.1-1.052.344.344,0,0,1,.2-.306.352.352,0,0,1,.472.177.366.366,0,0,1,.029.2,2.36,2.36,0,0,0,.023.72l1.119-.522c-.192-.989-.013-1.534.61-1.824a1.316,1.316,0,0,1,1.715.711l.35-.163a.274.274,0,0,1,.368.134.279.279,0,0,1-.131.373l-.362.169a2.778,2.778,0,0,1,.1,1.407.356.356,0,0,1-.677.116.358.358,0,0,1-.025-.223,2.265,2.265,0,0,0-.014-1.044l-1.146.537c.175.955.041,1.5-.618,1.808a1.294,1.294,0,0,1-1.685-.7l-.122.057A.28.28,0,0,1,48.154,45.934Zm2.1-.694-1.032.482c.208.357.494.451.751.331S50.314,45.757,50.249,45.241Zm.6-.838,1.061-.495c-.215-.354-.5-.471-.776-.34C50.873,43.686,50.775,43.888,50.845,44.4Z" transform="translate(4.513 4.681)" fill="#21bdca"/>
      <path id="Path_17988" data-name="Path 17988" d="M63.166,28.486H39.859a2.59,2.59,0,0,0-2.59,2.59v2.59a1.3,1.3,0,0,0,1.295,1.295h25.9a1.3,1.3,0,0,0,1.295-1.295v-2.59A2.59,2.59,0,0,0,63.166,28.486Z" transform="translate(0.958)" fill="#1ea2ad"/>
      <path id="Path_17989" data-name="Path 17989" d="M43.866,40.415a1.268,1.268,0,0,0,.611-1.682l5.537-2.583v-1.4L42.223,38.39a.633.633,0,0,0-.306.841l8.1,17.352V53.591Z" transform="translate(2.46 2.052)" fill="#fff"/>
      <path id="Path_17990" data-name="Path 17990" d="M43.367,40.086l6.148,13.175v-3.5a3.78,3.78,0,0,1,0-5.287V35.82L43.978,38.4A1.268,1.268,0,0,1,43.367,40.086Z" transform="translate(2.954 2.401)" fill="#21bdca"/>
      <path id="Path_17991" data-name="Path 17991" d="M47.544,46.648a3.782,3.782,0,0,0,.721,1.039V42.4A3.794,3.794,0,0,0,47.544,46.648Z" transform="translate(4.205 4.555)" fill="#fff"/>
      <path id="Path_17992" data-name="Path 17992" d="M51.513,28.486H39.859a2.59,2.59,0,0,0-2.59,2.59v2.59a1.3,1.3,0,0,0,1.295,1.295H51.513Z" transform="translate(0.958)" fill="#21bdca"/>
    </g>
  </g>
</svg>
