<svg id="programming" xmlns="http://www.w3.org/2000/svg" width="35.036" height="29.425" viewBox="0 0 35.036 29.425">
  <path id="Path_20460" data-name="Path 20460" d="M0-467.339v3.661H35.036V-471H0Zm7.048-.034v1.027H5V-468.4H7.048Zm4.311,0v1.027H9.306V-468.4h2.053Zm4.243,0v1.027H13.549V-468.4H15.6Z" transform="translate(0 471)" fill="#c9d7eb"/>
  <path id="Path_20461" data-name="Path 20461" d="M0-323.975v10.025H35.036V-334H0Zm19-6.6c.52.116.944.219.958.226.027.027-2.867,13.015-2.915,13.07a4.722,4.722,0,0,1-1.02-.171c-.9-.2-.965-.226-.937-.356.021-.082.671-2.99,1.437-6.473s1.416-6.371,1.437-6.419C18-330.8,17.915-330.818,19-330.579Zm-6.72,4.858-1.711,1.711,1.711,1.711,1.711,1.711-.719.719-.719.719-2.429-2.429L7.7-324.009l2.429-2.429,2.429-2.429.719.719.719.719Zm12.625,4.14-2.429,2.429-.719-.719-.719-.719,1.711-1.711,1.711-1.711-1.711-1.711-1.711-1.711.719-.719.719-.719,2.429,2.429,2.429,2.429Z" transform="translate(0 343.375)" fill="#c9d7eb"/>
</svg>
