<svg xmlns="http://www.w3.org/2000/svg" xmlns:xlink="http://www.w3.org/1999/xlink" width="155.276" height="156.928" viewBox="0 0 155.276 156.928">
  <defs>
    <filter id="Rectangle_6602" x="0" y="0" width="155.276" height="156.928" filterUnits="userSpaceOnUse">
      <feOffset dy="3" input="SourceAlpha"/>
      <feGaussianBlur stdDeviation="10" result="blur"/>
      <feFlood flood-opacity="0.078"/>
      <feComposite operator="in" in2="blur"/>
      <feComposite in="SourceGraphic"/>
    </filter>
  </defs>
  <g id="Group_3982" data-name="Group 3982" transform="matrix(0.921, -0.391, 0.391, 0.921, -4238.783, -8216.796)">
    <g transform="matrix(0.92, 0.39, -0.39, 0.92, 691.26, 9219.82)" filter="url(#Rectangle_6602)">
      <rect id="Rectangle_6602-2" data-name="Rectangle 6602" width="93.627" height="95.309" rx="20" transform="translate(30 28.63) rotate(-1)" fill="#fff"/>
    </g>
    <g id="MetaMask_Fox" transform="matrix(0.914, 0.407, -0.407, 0.914, 728.473, 9281.543)">
      <path id="Path_18855" data-name="Path 18855" d="M15.412,0,0,11.446,2.85,4.693Z" transform="translate(22.118 0.228)" fill="#e2761b" stroke="#e2761b" stroke-linecap="round" stroke-linejoin="round" stroke-width="1"/>
      <g id="Group_3977" data-name="Group 3977" transform="translate(0.837 0)">
        <path id="Path_18856" data-name="Path 18856" d="M0,0,15.288,11.555,12.577,4.693Z" transform="translate(1.626)" fill="#e4761b" stroke="#e4761b" stroke-linecap="round" stroke-linejoin="round" stroke-width="1"/>
        <path id="Path_18857" data-name="Path 18857" d="M4.1,0,0,6.289,8.782,8.7,11.307.139Z" transform="translate(27.555 26.533)" fill="#e4761b" stroke="#e4761b" stroke-linecap="round" stroke-linejoin="round" stroke-width="1"/>
        <path id="Path_18858" data-name="Path 18858" d="M0,.139,2.509,8.7l8.782-2.416L7.187,0Z" transform="translate(0 26.533)" fill="#e4761b" stroke="#e4761b" stroke-linecap="round" stroke-linejoin="round" stroke-width="1"/>
        <path id="Path_18859" data-name="Path 18859" d="M2.447,5.282,0,8.984l8.72.387L8.411,0Z" transform="translate(8.349 10.625)" fill="#e4761b" stroke="#e4761b" stroke-linecap="round" stroke-linejoin="round" stroke-width="1"/>
        <path id="Path_18860" data-name="Path 18860" d="M6.242,5.39.2,0,0,9.479l8.7-.387Z" transform="translate(21.793 10.517)" fill="#e4761b" stroke="#e4761b" stroke-linecap="round" stroke-linejoin="round" stroke-width="1"/>
        <path id="Path_18861" data-name="Path 18861" d="M0,6.087,5.235,3.532.713,0Z" transform="translate(11.292 26.734)" fill="#e4761b" stroke="#e4761b" stroke-linecap="round" stroke-linejoin="round" stroke-width="1"/>
        <path id="Path_18862" data-name="Path 18862" d="M0,3.532,5.251,6.087,4.523,0Z" transform="translate(22.304 26.734)" fill="#e4761b" stroke="#e4761b" stroke-linecap="round" stroke-linejoin="round" stroke-width="1"/>
      </g>
      <g id="Group_3978" data-name="Group 3978" transform="translate(11.617 30.494)">
        <path id="Path_18863" data-name="Path 18863" d="M5.251,2.556,0,0,.418,3.423.372,4.864Z" transform="translate(11.013 0)" fill="#d7c1b3" stroke="#d7c1b3" stroke-linecap="round" stroke-linejoin="round" stroke-width="1"/>
        <path id="Path_18864" data-name="Path 18864" d="M0,2.556,4.879,4.864l-.031-1.44L5.235,0Z" transform="translate(0 0)" fill="#d7c1b3" stroke="#d7c1b3" stroke-linecap="round" stroke-linejoin="round" stroke-width="1"/>
      </g>
      <path id="Path_18865" data-name="Path 18865" d="M4.368,2.7,0,1.41,3.082,0Z" transform="translate(12.205 22.006)" fill="#233447" stroke="#233447" stroke-linecap="round" stroke-linejoin="round" stroke-width="1"/>
      <path id="Path_18866" data-name="Path 18866" d="M0,2.7,1.286,0l3.1,1.41Z" transform="translate(22.908 22.006)" fill="#233447" stroke="#233447" stroke-linecap="round" stroke-linejoin="round" stroke-width="1"/>
      <g id="Group_3979" data-name="Group 3979" transform="translate(7.512 19.837)">
        <path id="Path_18867" data-name="Path 18867" d="M4.1,6.289,4.848,0,0,.139Z" transform="translate(0 6.924)" fill="#cd6116" stroke="#cd6116" stroke-linecap="round" stroke-linejoin="round" stroke-width="1"/>
        <path id="Path_18868" data-name="Path 18868" d="M0,0,.743,6.289,4.848.139Z" transform="translate(19.625 6.924)" fill="#cd6116" stroke="#cd6116" stroke-linecap="round" stroke-linejoin="round" stroke-width="1"/>
        <path id="Path_18869" data-name="Path 18869" d="M8.7,0,0,.387.805,4.864l1.286-2.7,3.1,1.41Z" transform="translate(14.606 0)" fill="#cd6116" stroke="#cd6116" stroke-linecap="round" stroke-linejoin="round" stroke-width="1"/>
        <path id="Path_18870" data-name="Path 18870" d="M3.532,3.578l3.1-1.41,1.27,2.7L8.72.387,0,0Z" transform="translate(1.162)" fill="#cd6116" stroke="#cd6116" stroke-linecap="round" stroke-linejoin="round" stroke-width="1"/>
      </g>
      <g id="Group_3980" data-name="Group 3980" transform="translate(8.674 19.837)">
        <path id="Path_18871" data-name="Path 18871" d="M0,0,3.655,7.125,3.532,3.578Z" transform="translate(0)" fill="#e4751f" stroke="#e4751f" stroke-linecap="round" stroke-linejoin="round" stroke-width="1"/>
        <path id="Path_18872" data-name="Path 18872" d="M.155,3.578,0,7.125,3.671,0Z" transform="translate(18.478 0)" fill="#e4751f" stroke="#e4751f" stroke-linecap="round" stroke-linejoin="round" stroke-width="1"/>
        <path id="Path_18873" data-name="Path 18873" d="M.821,0,0,4.476,1.022,9.758,1.255,2.8Z" transform="translate(7.899 0.387)" fill="#e4751f" stroke="#e4751f" stroke-linecap="round" stroke-linejoin="round" stroke-width="1"/>
        <path id="Path_18874" data-name="Path 18874" d="M.418,0,0,2.788l.186,6.97L1.224,4.476Z" transform="translate(13.026 0.387)" fill="#e4751f" stroke="#e4751f" stroke-linecap="round" stroke-linejoin="round" stroke-width="1"/>
      </g>
      <path id="Path_18875" data-name="Path 18875" d="M1.038,1.286,0,6.567l.743.511L5.266,3.547,5.421,0Z" transform="translate(21.886 23.415)" fill="#f6851b" stroke="#f6851b" stroke-linecap="round" stroke-linejoin="round" stroke-width="1"/>
      <path id="Path_18876" data-name="Path 18876" d="M0,0,.124,3.547,4.647,7.078l.743-.511L4.368,1.286Z" transform="translate(12.205 23.415)" fill="#f6851b" stroke="#f6851b" stroke-linecap="round" stroke-linejoin="round" stroke-width="1"/>
      <path id="Path_18877" data-name="Path 18877" d="M11.384,2.308l.046-1.44L11.044.527H5.2L4.848.867l.031,1.44L0,0,1.7,1.394l3.454,2.4H11.09l3.47-2.4L16.264,0Z" transform="translate(11.617 33.049)" fill="#c0ad9e" stroke="#c0ad9e" stroke-linecap="round" stroke-linejoin="round" stroke-width="1"/>
      <path id="Path_18878" data-name="Path 18878" d="M6.165.511,5.421,0H1.131L.387.511,0,3.934l.356-.341H6.2l.387.341Z" transform="translate(16.465 29.982)" fill="#161616" stroke="#161616" stroke-linecap="round" stroke-linejoin="round" stroke-width="1"/>
      <g id="Group_3981" data-name="Group 3981" transform="translate(0 0.228)">
        <path id="Path_18879" data-name="Path 18879" d="M15.551,12.19l1.317-6.32L14.9,0,0,11.059l5.731,4.848,8.1,2.37,1.8-2.091-.774-.558L16.093,14.5l-.96-.743,1.239-.945Z" transform="translate(22.63 0)" fill="#763d16" stroke="#763d16" stroke-linecap="round" stroke-linejoin="round" stroke-width="1"/>
        <path id="Path_18880" data-name="Path 18880" d="M0,5.87l1.317,6.32-.836.62,1.239.945L.774,14.5l1.239,1.131-.774.558L3.02,18.277l8.1-2.37,5.731-4.848L1.952,0Z" transform="translate(0 0)" fill="#763d16" stroke="#763d16" stroke-linecap="round" stroke-linejoin="round" stroke-width="1"/>
      </g>
      <path id="Path_18881" data-name="Path 18881" d="M9.309,2.37,1.208,0,3.671,3.7,0,10.827l4.833-.062h7.2Z" transform="translate(27.152 16.135)" fill="#f6851b" stroke="#f6851b" stroke-linecap="round" stroke-linejoin="round" stroke-width="1"/>
      <path id="Path_18882" data-name="Path 18882" d="M10.8,0,2.7,2.37,0,10.765H7.187L12,10.827,8.349,3.7Z" transform="translate(0.325 16.135)" fill="#f6851b" stroke="#f6851b" stroke-linecap="round" stroke-linejoin="round" stroke-width="1"/>
      <path id="Path_18883" data-name="Path 18883" d="M7.59,15.3,8.1,6.366,10.455,0H0L2.323,6.366,2.865,15.3l.186,2.819.015,6.939h4.29l.031-6.939Z" transform="translate(14.529 4.921)" fill="#f6851b" stroke="#f6851b" stroke-linecap="round" stroke-linejoin="round" stroke-width="1"/>
    </g>
    <text id="Metamask" transform="translate(697.283 9337.149) rotate(21)" font-size="10" font-family="Poppins-Medium, Poppins" font-weight="500"><tspan x="0" y="0">Metamask</tspan></text>
  </g>
</svg>
