<svg xmlns="http://www.w3.org/2000/svg" width="117" height="123.789" viewBox="0 0 117 123.789">
  <g id="Group_5672" data-name="Group 5672" transform="translate(-57.433 -54.211)">
    <text id="Metamask" transform="translate(57.433 170)" font-size="22" font-family="Poppins-Medium, Poppins" font-weight="500"><tspan x="0" y="0">Metamask</tspan></text>
    <g id="MetaMask_Fox" transform="translate(79.487 54.711)">
      <path id="Path_18855" data-name="Path 18855" d="M203.734,35.5,174.6,57.138l5.388-12.766Z" transform="translate(-132.788 -35.069)" fill="#e2761b" stroke="#e2761b" stroke-linecap="round" stroke-linejoin="round" stroke-width="1"/>
      <g id="Group_3977" data-name="Group 3977" transform="translate(1.583 0)">
        <path id="Path_18856" data-name="Path 18856" d="M44.4,35.5,73.3,57.343,68.176,44.372Z" transform="translate(-41.326 -35.5)" fill="#e4761b" stroke="#e4761b" stroke-linecap="round" stroke-linejoin="round" stroke-width="1"/>
        <path id="Path_18857" data-name="Path 18857" d="M219.559,206.8,211.8,218.688l16.6,4.568,4.773-16.192Z" transform="translate(-159.711 -156.643)" fill="#e4761b" stroke="#e4761b" stroke-linecap="round" stroke-linejoin="round" stroke-width="1"/>
        <path id="Path_18858" data-name="Path 18858" d="M33.9,207.064l4.743,16.192,16.6-4.568L47.486,206.8Z" transform="translate(-33.9 -156.643)" fill="#e4761b" stroke="#e4761b" stroke-linecap="round" stroke-linejoin="round" stroke-width="1"/>
        <path id="Path_18859" data-name="Path 18859" d="M92.426,114.085l-4.626,7,16.485.732L103.7,104.1Z" transform="translate(-72.018 -84.014)" fill="#e4761b" stroke="#e4761b" stroke-linecap="round" stroke-linejoin="round" stroke-width="1"/>
        <path id="Path_18860" data-name="Path 18860" d="M186.4,113.59,174.981,103.4l-.381,17.919,16.455-.732Z" transform="translate(-133.403 -83.519)" fill="#e4761b" stroke="#e4761b" stroke-linecap="round" stroke-linejoin="round" stroke-width="1"/>
        <path id="Path_18861" data-name="Path 18861" d="M106.8,219.607l9.9-4.831-8.55-6.676Z" transform="translate(-85.455 -157.562)" fill="#e4761b" stroke="#e4761b" stroke-linecap="round" stroke-linejoin="round" stroke-width="1"/>
        <path id="Path_18862" data-name="Path 18862" d="M177.9,214.776l9.926,4.831L186.45,208.1Z" transform="translate(-135.736 -157.562)" fill="#e4761b" stroke="#e4761b" stroke-linecap="round" stroke-linejoin="round" stroke-width="1"/>
      </g>
      <g id="Group_3978" data-name="Group 3978" transform="translate(21.96 57.645)">
        <path id="Path_18863" data-name="Path 18863" d="M187.826,235.731,177.9,230.9l.791,6.471-.088,2.723Z" transform="translate(-157.082 -230.9)" fill="#d7c1b3" stroke="#d7c1b3" stroke-linecap="round" stroke-linejoin="round" stroke-width="1"/>
        <path id="Path_18864" data-name="Path 18864" d="M106.8,235.731l9.223,4.363-.059-2.723.732-6.471Z" transform="translate(-106.8 -230.9)" fill="#d7c1b3" stroke="#d7c1b3" stroke-linecap="round" stroke-linejoin="round" stroke-width="1"/>
      </g>
      <path id="Path_18865" data-name="Path 18865" d="M118.857,181.195l-8.257-2.43,5.827-2.665Z" transform="translate(-87.527 -134.501)" fill="#233447" stroke="#233447" stroke-linecap="round" stroke-linejoin="round" stroke-width="1"/>
      <path id="Path_18866" data-name="Path 18866" d="M179.7,181.195l2.43-5.095,5.856,2.665Z" transform="translate(-136.395 -134.501)" fill="#233447" stroke="#233447" stroke-linecap="round" stroke-linejoin="round" stroke-width="1"/>
      <g id="Group_3979" data-name="Group 3979" transform="translate(14.201 37.5)">
        <path id="Path_18867" data-name="Path 18867" d="M88.059,218.688,89.465,206.8l-9.165.264Z" transform="translate(-80.3 -193.712)" fill="#cd6116" stroke="#cd6116" stroke-linecap="round" stroke-linejoin="round" stroke-width="1"/>
        <path id="Path_18868" data-name="Path 18868" d="M207,206.8l1.405,11.888,7.759-11.624Z" transform="translate(-169.902 -193.712)" fill="#cd6116" stroke="#cd6116" stroke-linecap="round" stroke-linejoin="round" stroke-width="1"/>
        <path id="Path_18869" data-name="Path 18869" d="M191.056,162.1l-16.455.732,1.523,8.462,2.43-5.095,5.856,2.665Z" transform="translate(-146.989 -162.1)" fill="#cd6116" stroke="#cd6116" stroke-linecap="round" stroke-linejoin="round" stroke-width="1"/>
        <path id="Path_18870" data-name="Path 18870" d="M94.476,168.864l5.856-2.665,2.4,5.095,1.552-8.462L87.8,162.1Z" transform="translate(-85.604 -162.1)" fill="#cd6116" stroke="#cd6116" stroke-linecap="round" stroke-linejoin="round" stroke-width="1"/>
      </g>
      <g id="Group_3980" data-name="Group 3980" transform="translate(16.397 37.5)">
        <path id="Path_18871" data-name="Path 18871" d="M87.8,162.1l6.91,13.469-.234-6.705Z" transform="translate(-87.8 -162.1)" fill="#e4751f" stroke="#e4751f" stroke-linecap="round" stroke-linejoin="round" stroke-width="1"/>
        <path id="Path_18872" data-name="Path 18872" d="M207.393,168.864l-.293,6.705,6.939-13.469Z" transform="translate(-172.169 -162.1)" fill="#e4751f" stroke="#e4751f" stroke-linecap="round" stroke-linejoin="round" stroke-width="1"/>
        <path id="Path_18873" data-name="Path 18873" d="M140.352,164.6l-1.552,8.462,1.933,9.985.439-13.147Z" transform="translate(-123.867 -163.868)" fill="#e4751f" stroke="#e4751f" stroke-linecap="round" stroke-linejoin="round" stroke-width="1"/>
        <path id="Path_18874" data-name="Path 18874" d="M172.691,164.6l-.791,5.27.351,13.176,1.962-9.985Z" transform="translate(-147.275 -163.868)" fill="#e4751f" stroke="#e4751f" stroke-linecap="round" stroke-linejoin="round" stroke-width="1"/>
      </g>
      <path id="Path_18875" data-name="Path 18875" d="M175.062,187.63l-1.962,9.985,1.405.966,8.55-6.676.293-6.705Z" transform="translate(-131.727 -140.936)" fill="#f6851b" stroke="#f6851b" stroke-linecap="round" stroke-linejoin="round" stroke-width="1"/>
      <path id="Path_18876" data-name="Path 18876" d="M110.6,185.2l.234,6.705,8.55,6.676,1.405-.966-1.932-9.985Z" transform="translate(-87.527 -140.936)" fill="#f6851b" stroke="#f6851b" stroke-linecap="round" stroke-linejoin="round" stroke-width="1"/>
      <path id="Path_18877" data-name="Path 18877" d="M128.321,251.763l.088-2.723-.732-.644H116.638l-.673.644.059,2.723L106.8,247.4l3.221,2.635,6.529,4.538h11.214l6.559-4.538,3.221-2.635Z" transform="translate(-84.84 -184.924)" fill="#c0ad9e" stroke="#c0ad9e" stroke-linecap="round" stroke-linejoin="round" stroke-width="1"/>
      <path id="Path_18878" data-name="Path 18878" d="M149.754,228.566l-1.405-.966h-8.111l-1.405.966-.732,6.471.673-.644h11.039l.732.644Z" transform="translate(-106.975 -170.922)" fill="#161616" stroke="#161616" stroke-linecap="round" stroke-linejoin="round" stroke-width="1"/>
      <g id="Group_3981" data-name="Group 3981" transform="translate(0 0.431)">
        <path id="Path_18879" data-name="Path 18879" d="M207.3,58.544,209.786,46.6l-3.719-11.1L177.9,56.406l10.834,9.165,15.314,4.48,3.4-3.953-1.464-1.054,2.342-2.137L206.507,61.5l2.342-1.786Z" transform="translate(-135.122 -35.5)" fill="#763d16" stroke="#763d16" stroke-linecap="round" stroke-linejoin="round" stroke-width="1"/>
        <path id="Path_18880" data-name="Path 18880" d="M31.8,46.6l2.489,11.946-1.581,1.171L35.05,61.5l-1.786,1.405,2.342,2.137L34.142,66.1l3.367,3.953,15.314-4.48,10.834-9.165L35.489,35.5Z" transform="translate(-31.8 -35.5)" fill="#763d16" stroke="#763d16" stroke-linecap="round" stroke-linejoin="round" stroke-width="1"/>
      </g>
      <path id="Path_18881" data-name="Path 18881" d="M224.7,142.68l-15.314-4.48,4.656,7L207.1,158.667l9.135-.117h13.615Z" transform="translate(-155.772 -107.698)" fill="#f6851b" stroke="#f6851b" stroke-linecap="round" stroke-linejoin="round" stroke-width="1"/>
      <path id="Path_18882" data-name="Path 18882" d="M54.308,138.2l-15.314,4.48L33.9,158.55H47.486l9.106.117L49.682,145.2Z" transform="translate(-33.285 -107.698)" fill="#f6851b" stroke="#f6851b" stroke-linecap="round" stroke-linejoin="round" stroke-width="1"/>
      <path id="Path_18883" data-name="Path 18883" d="M139.947,94.729l.966-16.895L145.364,65.8H125.6l4.392,12.034,1.025,16.895.351,5.329.029,13.118h8.111l.059-13.118Z" transform="translate(-98.135 -56.497)" fill="#f6851b" stroke="#f6851b" stroke-linecap="round" stroke-linejoin="round" stroke-width="1"/>
    </g>
  </g>
</svg>
