<svg xmlns="http://www.w3.org/2000/svg" xmlns:xlink="http://www.w3.org/1999/xlink" width="629.311" height="606.825" viewBox="0 0 629.311 606.825"><defs><linearGradient id="a" x1="0.921" y1="0.493" x2="0.157" y2="1.061" gradientUnits="objectBoundingBox"><stop offset="0" stop-color="#3fffac"/><stop offset="1" stop-color="#73caff" stop-opacity="0"/></linearGradient></defs><g transform="translate(-645.748 -2178.01)"><path d="M274.338,0,125.223,4.6,0,70.951,53.644,243.584,201.523,276.23,307.1,177.667Z" transform="translate(844.826 2310.262) rotate(14)" fill="#3fffac" opacity="0.5"/><g transform="translate(116 206.387)"><g transform="translate(662 2103.875)"><path d="M23.071,2290.114l146.351,43.937-.768,204.347L33.6,2470.532Z" transform="translate(26.542 -2221.321)" fill="#1b5aa6"/><path d="M22.963,2268.625,160.6,2234.6l145.39,31.607-136.876,46.48Z" transform="translate(26.584 -2199.832)" fill="#349ddc"/><path d="M261.32,2332.525,398.131,2286.1l-11.011,180.2L260.68,2536.741Z" transform="translate(-65.432 -2219.766)" fill="#4ec5ff"/><g transform="translate(66.826 0) rotate(14)"><path d="M274.338,0,125.223,4.6,0,70.951,53.644,243.584,201.523,276.23,307.1,177.667Z" transform="translate(0 0)" fill="url(#a)"/></g></g><text transform="translate(854.804 2279.905)" fill="#1a1b1d" font-size="36" font-family="Montserrat-SemiBold, Montserrat" font-weight="600"><tspan x="-108.054" y="0">Blockchain </tspan><tspan x="-76.734" y="44">Services</tspan></text></g></g></svg>