<svg xmlns="http://www.w3.org/2000/svg" width="717.227" height="555.626" viewBox="0 0 717.227 555.626">
  <g id="smart_contracts_2" data-name="smart contracts 2" transform="translate(0 0)">
    <g id="Group_2915" data-name="Group 2915" transform="translate(134.592 13.106)">
      <path id="Path_419" data-name="Path 419" d="M362.3,436.8,120.561,297.175c-6.835-3.939-5.981-10.836,1.917-15.4L287.109,186.81c7.9-4.564,19.839-5.043,26.674-1.1L555.519,325.329c6.835,3.939,5.981,10.836-1.917,15.4L388.971,435.694C381.073,440.258,369.132,440.758,362.3,436.8Z" transform="translate(-115.945 62.951)" fill="#efefef"/>
      <path id="Path_420" data-name="Path 420" d="M505.5,206.1,263.759,66.48a9.753,9.753,0,0,0-8.19-1h0l-.438.167h-.1l-8.648,3.522L254.215,73a.626.626,0,0,1-.1.417L214.745,252.638c-1.98,8.961,1.98,19.443,8.815,23.382L459.42,412.184l-.834,10,9.544-3.709a13.42,13.42,0,0,0,6.835-9.732l39.365-179.218C516.29,220.525,512.352,210.042,505.5,206.1Z" transform="translate(-9.406 -64.999)" fill="#173d7a"/>
      <path id="Path_421" data-name="Path 421" d="M498.25,206.1,256.514,66.48a9.753,9.753,0,0,0-8.19-1h0l-.438.167h-.1l-8.648,3.522L246.969,73a.626.626,0,0,1-.1.417l-25.945,118.1,118.242,92.131,166.715-67.832a18.755,18.755,0,0,0-7.627-9.711Z" transform="translate(-2.16 -64.999)" fill="#396caa"/>
      <path id="Path_422" data-name="Path 422" d="M359.114,159.588l18.4-7.836a23.048,23.048,0,0,0-7.46-18.422L340.88,145.584Z" transform="translate(127.869 9.066)" fill="#274f89"/>
      <path id="Path_423" data-name="Path 423" d="M458.043,419.416,216.307,279.793c-6.835-3.939-10.774-14.421-8.815-23.382L246.857,77.193c1.98-8.961,9.107-13.045,15.942-9.086L504.535,207.73c6.835,3.939,10.774,14.421,8.815,23.382L473.985,410.33C472.005,419.291,464.878,423.355,458.043,419.416Z" transform="translate(-17.26 -63.271)" fill="#d4ecff"/>
      <path id="Path_424" data-name="Path 424" d="M447.588,399.185,220.314,268.022c-6.252-3.605-9.857-13.191-8.065-21.4L248.26,82.656c1.813-8.211,8.336-11.92,14.588-8.336L490.121,205.483c6.252,3.605,9.857,13.191,8.065,21.4l-36.01,163.964C460.383,399.081,453.84,402.811,447.588,399.185Z" transform="translate(-12.057 -56.376)" fill="#fff"/>
      <path id="Path_425" data-name="Path 425" d="M447.588,399.185,220.314,268.022c-6.252-3.605-9.857-13.191-8.065-21.4L248.26,82.656c1.813-8.211,8.336-11.92,14.588-8.336L490.121,205.483c6.252,3.605,9.857,13.191,8.065,21.4l-36.01,163.964C460.383,399.081,453.84,402.811,447.588,399.185Z" transform="translate(-12.057 -56.376)" fill="#173d7a"/>
      <path id="Path_426" data-name="Path 426" d="M560,306.5l-33.03-4.355L313.724,179.026c-6.835-3.939-18.755-3.459-26.674,1.1L135.943,267.3,116,264.7v11.337h0a7.773,7.773,0,0,0,4.585,7L362.321,422.658c6.835,3.939,18.755,3.459,26.674-1.1l164.631-94.965c4.439-2.563,6.648-5.877,6.523-8.961h0Z" transform="translate(-115.886 55.71)" fill="#173d7a"/>
      <path id="Path_427" data-name="Path 427" d="M399.769,206.033l-15.15-8.753H218.113l-82.169,47.347L116,242.022v11.337h0a7.773,7.773,0,0,0,4.585,7L362.321,399.984a25.007,25.007,0,0,0,13.775,2.584Z" transform="translate(-115.886 78.384)" fill="#396caa"/>
      <path id="Path_428" data-name="Path 428" d="M124.847,219.927l-8.857-1.167V230.1h0a7.773,7.773,0,0,0,4.585,7l4.168,2.459Z" transform="translate(-115.897 101.667)" fill="#5793ce"/>
      <path id="Path_429" data-name="Path 429" d="M235.33,308.831a30.946,30.946,0,0,0,22.652-1.417V282.24H235.33Z" transform="translate(13.46 170.475)" fill="#274f89"/>
      <path id="Path_430" data-name="Path 430" d="M362.3,421.07,120.561,281.446c-6.835-3.939-5.981-10.836,1.917-15.4L287.109,171.06c7.9-4.564,19.839-5.043,26.674-1.1L555.519,309.579c6.835,3.939,5.981,10.836-1.917,15.4L388.971,419.965C381.073,424.529,369.132,425.092,362.3,421.07Z" transform="translate(-115.945 45.879)" fill="#d4ecff"/>
      <path id="Path_431" data-name="Path 431" d="M553.521,266.071,388.89,361.036c-7.9,4.564-19.839,5.043-26.674,1.1L120.48,222.517a9,9,0,0,1-4.168-4.647c-1.063,3.23.292,6.5,4.168,8.794L362.216,366.288c6.835,3.939,18.755,3.459,26.674-1.1l164.631-94.965c5.314-3.063,7.419-7.19,6.252-10.753a12.858,12.858,0,0,1-6.252,6.606Z" transform="translate(-115.927 100.702)" fill="#fff"/>
      <g id="Group_2913" data-name="Group 2913" transform="translate(95.945 221.917)">
        <path id="Path_432" data-name="Path 432" d="M173.519,208.412l-10.941-6.252c-.875-.5-.771-1.4.25-1.98l12.9-7.46a3.814,3.814,0,0,1,3.418-.146l10.941,6.252c.875.5.771,1.4-.25,1.98l-12.9,7.461a3.814,3.814,0,0,1-3.418.146Z" transform="translate(-161.986 -148.998)" fill="#b9dff9"/>
        <path id="Path_433" data-name="Path 433" d="M181.619,213.042l-10.941-6.252c-.875-.5-.771-1.4.25-1.98l12.9-7.46a3.814,3.814,0,0,1,3.418-.146l10.941,6.252c.875.5.771,1.4-.25,1.98l-12.9,7.46a3.814,3.814,0,0,1-3.418.146Z" transform="translate(-153.206 -143.979)" fill="#b9dff9"/>
        <path id="Path_434" data-name="Path 434" d="M189.719,217.722l-10.941-6.252c-.875-.5-.771-1.4.25-1.98l12.9-7.46a3.814,3.814,0,0,1,3.418-.146l10.941,6.252c.875.5.771,1.4-.25,1.98l-12.9,7.46a3.814,3.814,0,0,1-3.418.146Z" transform="translate(-144.426 -138.906)" fill="#b9dff9"/>
        <path id="Path_435" data-name="Path 435" d="M200.929,213.234l-10.941-6.252c-.875-.5-.771-1.4.25-1.98l10.836-6.252a3.814,3.814,0,0,1,3.418-.146l10.941,6.252c.875.5.771,1.4-.25,1.98l-10.836,6.252a3.813,3.813,0,0,1-3.418.146Z" transform="translate(-132.275 -142.461)" fill="#b9dff9"/>
        <path id="Path_436" data-name="Path 436" d="M209,217.914l-10.941-6.252c-.875-.5-.771-1.4.25-1.98l10.836-6.252a3.814,3.814,0,0,1,3.418-.146l10.941,6.252c.875.5.771,1.4-.25,1.98l-10.836,6.252a3.814,3.814,0,0,1-3.418.146Z" transform="translate(-123.528 -137.389)" fill="#b9dff9"/>
        <path id="Path_437" data-name="Path 437" d="M217.139,222.594,206.2,216.342c-.875-.5-.771-1.4.25-1.98l10.836-6.252a3.814,3.814,0,0,1,3.418-.146l10.941,6.252c.875.5.771,1.4-.25,1.98l-10.836,6.252a3.814,3.814,0,0,1-3.418.146Z" transform="translate(-114.705 -132.316)" fill="#b9dff9"/>
        <path id="Path_438" data-name="Path 438" d="M225.239,227.264,214.3,221.012c-.875-.5-.771-1.4.25-1.98l10.836-6.252a3.814,3.814,0,0,1,3.418-.146l10.941,6.252c.875.5.771,1.4-.25,1.98l-10.836,6.252a3.814,3.814,0,0,1-3.418.146Z" transform="translate(-105.925 -127.254)" fill="#b9dff9"/>
        <path id="Path_439" data-name="Path 439" d="M233.339,231.944,222.4,225.692c-.875-.5-.771-1.4.25-1.98l10.836-6.252a3.813,3.813,0,0,1,3.418-.146l10.941,6.252c.875.5.771,1.4-.25,1.98L236.756,231.8a3.813,3.813,0,0,1-3.418.146Z" transform="translate(-97.145 -122.181)" fill="#b9dff9"/>
        <path id="Path_440" data-name="Path 440" d="M241.449,236.624l-10.941-6.252c-.875-.5-.771-1.4.25-1.98l10.836-6.252a3.813,3.813,0,0,1,3.418-.146l10.941,6.252c.875.5.771,1.4-.25,1.98l-10.836,6.252a3.813,3.813,0,0,1-3.418.146Z" transform="translate(-88.354 -117.108)" fill="#b9dff9"/>
        <path id="Path_441" data-name="Path 441" d="M249.549,241.3l-10.941-6.252c-.875-.5-.771-1.4.25-1.98l10.836-6.252a3.813,3.813,0,0,1,3.418-.146l10.941,6.252c.875.5.771,1.4-.25,1.98l-10.836,6.252a3.814,3.814,0,0,1-3.418.146Z" transform="translate(-79.574 -112.035)" fill="#b9dff9"/>
        <path id="Path_442" data-name="Path 442" d="M257.649,245.984l-10.941-6.252c-.875-.5-.771-1.4.25-1.98l10.836-6.252a3.814,3.814,0,0,1,3.418-.146l10.941,6.252c.875.5.771,1.4-.25,1.98l-10.836,6.252a3.814,3.814,0,0,1-3.418.146Z" transform="translate(-70.795 -106.963)" fill="#b9dff9"/>
        <path id="Path_443" data-name="Path 443" d="M265.749,250.664l-10.941-6.252c-.875-.5-.771-1.4.25-1.98l10.837-6.252a3.813,3.813,0,0,1,3.418-.146l10.941,6.252c.875.5.771,1.4-.25,1.98l-10.836,6.252A3.814,3.814,0,0,1,265.749,250.664Z" transform="translate(-62.015 -101.89)" fill="#b9dff9"/>
        <path id="Path_444" data-name="Path 444" d="M273.859,255.334l-10.941-6.252c-.875-.5-.771-1.4.25-1.98L274,240.85a3.813,3.813,0,0,1,3.418-.146l10.941,6.252c.875.5.771,1.4-.25,1.98l-10.836,6.252A3.814,3.814,0,0,1,273.859,255.334Z" transform="translate(-53.224 -96.828)" fill="#b9dff9"/>
        <path id="Path_445" data-name="Path 445" d="M212.869,211.014l-10.941-6.252c-.875-.5-.771-1.4.25-1.98l10.836-6.252a3.814,3.814,0,0,1,3.418-.146l10.941,6.252c.875.5.771,1.4-.25,1.98l-10.836,6.252a3.814,3.814,0,0,1-3.418.146Z" transform="translate(-119.333 -144.868)" fill="#b9dff9"/>
        <path id="Path_446" data-name="Path 446" d="M204.649,206.274l-10.941-6.252c-.875-.5-.771-1.4.25-1.98l10.836-6.252a3.814,3.814,0,0,1,3.418-.146l10.941,6.252c.875.5.771,1.4-.25,1.98l-10.836,6.252a3.814,3.814,0,0,1-3.418.146Z" transform="translate(-128.243 -150.006)" fill="#b9dff9"/>
        <path id="Path_447" data-name="Path 447" d="M202.967,205.329l-23.548-13.587c-.875-.5-.771-1.4.25-1.98L190.5,183.51a3.813,3.813,0,0,1,3.418-.146l23.548,13.587c.875.5.771,1.4-.25,1.98l-10.836,6.252A3.814,3.814,0,0,1,202.967,205.329Z" transform="translate(-143.732 -158.981)" fill="#b9dff9"/>
        <path id="Path_448" data-name="Path 448" d="M206.418,198.227l-19.11-11.045c-.875-.5-.771-1.4.25-1.98l10.836-6.252a3.813,3.813,0,0,1,3.418-.146l19.11,11.024c.875.5.771,1.4-.25,1.98l-10.836,6.252a3.814,3.814,0,0,1-3.418.167Z" transform="translate(-135.18 -163.923)" fill="#b9dff9"/>
        <path id="Path_449" data-name="Path 449" d="M221,215.694l-10.941-6.252c-.875-.5-.771-1.4.25-1.98l10.836-6.252a3.814,3.814,0,0,1,3.418-.146l10.941,6.252c.875.5.771,1.4-.25,1.98l-10.836,6.252a3.814,3.814,0,0,1-3.418.146Z" transform="translate(-110.521 -139.795)" fill="#b9dff9"/>
        <path id="Path_450" data-name="Path 450" d="M229.079,220.374l-10.941-6.252c-.875-.5-.771-1.4.25-1.98l10.836-6.252a3.813,3.813,0,0,1,3.418-.146L243.583,212c.875.5.771,1.4-.25,1.98L232.5,220.228a3.814,3.814,0,0,1-3.418.146Z" transform="translate(-101.762 -134.722)" fill="#b9dff9"/>
        <path id="Path_451" data-name="Path 451" d="M237.179,225.054,226.238,218.8c-.875-.5-.771-1.4.25-1.98l10.836-6.252a3.814,3.814,0,0,1,3.418-.146l10.941,6.252c.875.5.771,1.4-.25,1.98L240.6,224.908a3.814,3.814,0,0,1-3.418.146Z" transform="translate(-92.983 -129.649)" fill="#b9dff9"/>
        <path id="Path_452" data-name="Path 452" d="M245.279,229.734l-10.941-6.252c-.875-.5-.771-1.4.25-1.98l10.836-6.252a3.813,3.813,0,0,1,3.418-.146l10.941,6.252c.875.5.771,1.4-.25,1.98L248.7,229.588A3.813,3.813,0,0,1,245.279,229.734Z" transform="translate(-84.203 -124.577)" fill="#b9dff9"/>
        <path id="Path_453" data-name="Path 453" d="M253.379,234.414l-10.941-6.252c-.875-.5-.771-1.4.25-1.98l10.836-6.252a3.813,3.813,0,0,1,3.418-.146l10.941,6.252c.875.5.771,1.4-.25,1.98L256.8,234.268A3.814,3.814,0,0,1,253.379,234.414Z" transform="translate(-75.423 -119.504)" fill="#b9dff9"/>
        <path id="Path_454" data-name="Path 454" d="M261.489,239.084l-10.941-6.252c-.875-.5-.771-1.4.25-1.98l10.837-6.252a3.813,3.813,0,0,1,3.418-.146l10.941,6.252c.875.5.771,1.4-.25,1.98l-10.837,6.252a3.814,3.814,0,0,1-3.418.146Z" transform="translate(-66.632 -114.442)" fill="#b9dff9"/>
        <path id="Path_455" data-name="Path 455" d="M269.589,243.784l-10.941-6.252c-.875-.5-.771-1.4.25-1.98l10.836-6.252a3.813,3.813,0,0,1,3.418-.146l10.941,6.252c.875.5.771,1.4-.25,1.98l-10.837,6.252A3.813,3.813,0,0,1,269.589,243.784Z" transform="translate(-57.852 -109.347)" fill="#b9dff9"/>
        <path id="Path_456" data-name="Path 456" d="M277.689,248.444l-10.941-6.252c-.875-.5-.771-1.4.25-1.98l10.836-6.252a3.814,3.814,0,0,1,3.418-.146l10.941,6.252c.875.5.771,1.4-.25,1.98L281.106,248.3a3.814,3.814,0,0,1-3.418.146Z" transform="translate(-49.073 -104.296)" fill="#b9dff9"/>
        <path id="Path_457" data-name="Path 457" d="M285.8,253.124l-10.941-6.252c-.875-.5-.771-1.4.25-1.98l10.836-6.252a3.813,3.813,0,0,1,3.418-.146l10.941,6.252c.875.5.771,1.4-.25,1.98l-10.836,6.252A3.814,3.814,0,0,1,285.8,253.124Z" transform="translate(-40.282 -99.223)" fill="#b9dff9"/>
        <path id="Path_458" data-name="Path 458" d="M306.919,265.411l-23.861-13.879c-.875-.5-.771-1.4.25-1.98l10.837-6.252a3.814,3.814,0,0,1,3.418-.146l23.861,13.775c.875.5.771,1.4-.25,1.98l-10.836,6.252a3.814,3.814,0,0,1-3.418.25Z" transform="translate(-31.394 -94.172)" fill="#b9dff9"/>
        <path id="Path_459" data-name="Path 459" d="M320.811,255.1l-20.193-11.566c-.875-.5-.771-1.4.25-1.98L311.7,235.3a3.814,3.814,0,0,1,3.418-.146l20.131,11.628c.875.5.771,1.4-.25,1.98l-10.837,6.252a3.814,3.814,0,0,1-3.355.083Z" transform="translate(-12.36 -102.844)" fill="#b9dff9"/>
        <path id="Path_460" data-name="Path 460" d="M235.159,214.784l-10.941-6.252c-.875-.5-.771-1.4.25-1.98L235.3,200.3a3.813,3.813,0,0,1,3.418-.146l10.941,6.252c.875.5.771,1.4-.25,1.98l-10.837,6.252a3.814,3.814,0,0,1-3.418.146Z" transform="translate(-95.172 -140.781)" fill="#b9dff9"/>
        <path id="Path_461" data-name="Path 461" d="M226.859,209.984l-10.941-6.252c-.875-.5-.771-1.4.25-1.98L227,195.5a3.813,3.813,0,0,1,3.418-.146l10.941,6.252c.875.5.771,1.4-.25,1.98l-10.836,6.252a3.814,3.814,0,0,1-3.418.146Z" transform="translate(-104.169 -145.984)" fill="#b9dff9"/>
        <path id="Path_462" data-name="Path 462" d="M218.549,205.194l-10.941-6.252c-.875-.5-.771-1.4.25-1.98l10.836-6.252a3.814,3.814,0,0,1,3.418-.146l10.941,6.252c.875.5.771,1.4-.25,1.98l-10.836,6.252a3.814,3.814,0,0,1-3.418.146Z" transform="translate(-113.176 -151.176)" fill="#b9dff9"/>
        <path id="Path_463" data-name="Path 463" d="M210.249,200.394l-10.941-6.252c-.875-.5-.771-1.4.25-1.98l10.836-6.252a3.814,3.814,0,0,1,3.418-.146l10.941,6.252c.875.5.771,1.4-.25,1.98l-10.836,6.252a3.814,3.814,0,0,1-3.418.146Z" transform="translate(-122.173 -156.379)" fill="#b9dff9"/>
        <path id="Path_464" data-name="Path 464" d="M243.269,219.464l-10.941-6.252c-.875-.5-.771-1.4.25-1.98l10.836-6.252a3.813,3.813,0,0,1,3.418-.146l10.941,6.252c.875.5.771,1.4-.25,1.98l-10.836,6.252a3.814,3.814,0,0,1-3.418.146Z" transform="translate(-86.381 -135.709)" fill="#b9dff9"/>
        <path id="Path_465" data-name="Path 465" d="M251.369,224.134l-10.941-6.252c-.875-.5-.771-1.4.25-1.98l10.836-6.252a3.814,3.814,0,0,1,3.418-.146l10.941,6.252c.875.5.771,1.4-.25,1.98l-10.836,6.252a3.814,3.814,0,0,1-3.418.146Z" transform="translate(-77.602 -130.647)" fill="#b9dff9"/>
        <path id="Path_466" data-name="Path 466" d="M259.469,228.784l-10.941-6.252c-.875-.5-.771-1.4.25-1.98l10.836-6.252a3.813,3.813,0,0,1,3.418-.146l10.941,6.252c.875.5.771,1.4-.25,1.98l-10.836,6.252a3.814,3.814,0,0,1-3.418.146Z" transform="translate(-68.822 -125.606)" fill="#b9dff9"/>
        <path id="Path_467" data-name="Path 467" d="M267.569,233.494l-10.941-6.252c-.875-.5-.771-1.4.25-1.98l10.836-6.252a3.813,3.813,0,0,1,3.418-.146l10.941,6.252c.875.5.771,1.4-.25,1.98l-10.836,6.252A3.814,3.814,0,0,1,267.569,233.494Z" transform="translate(-60.042 -120.501)" fill="#b9dff9"/>
        <path id="Path_468" data-name="Path 468" d="M275.679,238.174l-10.941-6.252c-.875-.5-.771-1.4.25-1.98l10.837-6.252a3.813,3.813,0,0,1,3.418-.146l10.941,6.252c.875.5.771,1.4-.25,1.98L279.1,238.028A3.814,3.814,0,0,1,275.679,238.174Z" transform="translate(-51.251 -115.428)" fill="#b9dff9"/>
        <path id="Path_469" data-name="Path 469" d="M283.779,242.854,272.838,236.6c-.875-.5-.771-1.4.25-1.98l10.837-6.252a3.814,3.814,0,0,1,3.418-.146l10.941,6.252c.875.5.771,1.4-.25,1.98L287.2,242.708A3.814,3.814,0,0,1,283.779,242.854Z" transform="translate(-42.471 -110.355)" fill="#b9dff9"/>
        <path id="Path_470" data-name="Path 470" d="M291.879,247.524l-10.941-6.252c-.875-.5-.771-1.4.25-1.98l10.836-6.252a3.813,3.813,0,0,1,3.418-.146l10.941,6.252c.875.5.771,1.4-.25,1.98L295.3,247.378a3.814,3.814,0,0,1-3.418.146Z" transform="translate(-33.692 -105.293)" fill="#b9dff9"/>
        <path id="Path_471" data-name="Path 471" d="M300,252.2l-10.941-6.252c-.875-.5-.771-1.4.25-1.98l10.836-6.252a3.813,3.813,0,0,1,3.418-.146l10.941,6.252c.875.5.771,1.4-.25,1.98l-10.836,6.252A3.814,3.814,0,0,1,300,252.2Z" transform="translate(-24.89 -100.221)" fill="#b9dff9"/>
        <path id="Path_472" data-name="Path 472" d="M308.089,256.884l-10.941-6.252c-.875-.5-.771-1.4.25-1.98l10.836-6.252a3.814,3.814,0,0,1,3.418-.146l10.941,6.252c.875.5.771,1.4-.25,1.98l-10.836,6.252a3.814,3.814,0,0,1-3.418.146Z" transform="translate(-16.121 -95.148)" fill="#b9dff9"/>
        <path id="Path_473" data-name="Path 473" d="M230.9,203.214l-10.941-6.252c-.875-.5-.771-1.4.25-1.98l10.836-6.252a3.814,3.814,0,0,1,3.418-.146l10.941,6.252c.875.5.771,1.4-.25,1.98l-10.836,6.252a3.814,3.814,0,0,1-3.418.146Z" transform="translate(-99.79 -153.322)" fill="#b9dff9"/>
        <path id="Path_474" data-name="Path 474" d="M222.829,198.554,211.888,192.3c-.875-.5-.771-1.4.25-1.98l10.836-6.252a3.814,3.814,0,0,1,3.418-.146l10.941,6.252c.875.5.771,1.4-.25,1.98l-10.836,6.252a3.814,3.814,0,0,1-3.418.146Z" transform="translate(-108.537 -158.374)" fill="#b9dff9"/>
        <path id="Path_475" data-name="Path 475" d="M214.769,193.9l-10.941-6.252c-.875-.5-.771-1.4.25-1.98l10.836-6.252a3.814,3.814,0,0,1,3.418-.146l10.941,6.252c.875.5.771,1.4-.25,1.98l-10.836,6.252A3.814,3.814,0,0,1,214.769,193.9Z" transform="translate(-117.274 -163.414)" fill="#b9dff9"/>
        <path id="Path_476" data-name="Path 476" d="M206.709,189.244l-10.941-6.252c-.875-.5-.771-1.4.25-1.98l10.836-6.252a3.813,3.813,0,0,1,3.418-.146l10.941,6.252c.875.5.771,1.4-.25,1.98L210.126,189.1a3.814,3.814,0,0,1-3.418.146Z" transform="translate(-126.01 -168.465)" fill="#b9dff9"/>
        <path id="Path_477" data-name="Path 477" d="M215,182.286l-10.941-6.252c-.875-.5-.771-1.4.25-1.98l3.584-2.084a3.814,3.814,0,0,1,3.418-.146l10.941,6.252c.875.5.771,1.4-.25,1.98l-3.584,2.084a3.814,3.814,0,0,1-3.418.146Z" transform="translate(-117.024 -171.489)" fill="#b9dff9"/>
        <path id="Path_478" data-name="Path 478" d="M225.519,188.366l-10.941-6.252c-.875-.5-.771-1.4.25-1.98l3.584-2.084a3.813,3.813,0,0,1,3.418-.146l10.941,6.252c.875.5.771,1.4-.25,1.98l-3.584,2.084A3.814,3.814,0,0,1,225.519,188.366Z" transform="translate(-105.621 -164.899)" fill="#b9dff9"/>
        <path id="Path_479" data-name="Path 479" d="M233.549,193l-10.941-6.252c-.875-.5-.771-1.4.25-1.98l3.584-2.084a3.813,3.813,0,0,1,3.418-.146l10.941,6.252c.875.5.771,1.4-.25,1.98l-3.584,2.084a3.814,3.814,0,0,1-3.418.146Z" transform="translate(-96.917 -159.88)" fill="#b9dff9"/>
        <path id="Path_480" data-name="Path 480" d="M241.579,197.616l-10.941-6.252c-.875-.5-.771-1.4.25-1.98l3.584-2.084a3.813,3.813,0,0,1,3.418-.146l10.941,6.252c.875.5.771,1.4-.25,1.98L245,197.47A3.814,3.814,0,0,1,241.579,197.616Z" transform="translate(-88.213 -154.872)" fill="#b9dff9"/>
        <path id="Path_481" data-name="Path 481" d="M249.609,202.276l-10.941-6.252c-.875-.5-.771-1.4.25-1.98l3.584-2.084a3.813,3.813,0,0,1,3.418-.146l10.941,6.252c.875.5.771,1.4-.25,1.98l-3.584,2.084a3.814,3.814,0,0,1-3.418.146Z" transform="translate(-79.509 -149.821)" fill="#b9dff9"/>
        <path id="Path_482" data-name="Path 482" d="M294.429,228.156,283.488,221.9c-.875-.5-.771-1.4.25-1.98l3.584-2.084a3.813,3.813,0,0,1,3.418-.146l10.941,6.252c.875.5.771,1.4-.25,1.98l-3.584,2.084A3.814,3.814,0,0,1,294.429,228.156Z" transform="translate(-30.927 -121.769)" fill="#b9dff9"/>
        <path id="Path_483" data-name="Path 483" d="M302.459,232.786l-10.941-6.252c-.875-.5-.771-1.4.25-1.98l3.584-2.084a3.813,3.813,0,0,1,3.418-.146l10.941,6.252c.875.5.771,1.4-.25,1.98l-3.584,2.084A3.814,3.814,0,0,1,302.459,232.786Z" transform="translate(-22.223 -116.751)" fill="#b9dff9"/>
        <path id="Path_484" data-name="Path 484" d="M310.489,237.426l-10.941-6.252c-.875-.5-.771-1.4.25-1.98l3.584-2.084a3.813,3.813,0,0,1,3.418-.146l10.941,6.252c.875.5.771,1.4-.25,1.98l-3.584,2.084a3.814,3.814,0,0,1-3.418.146Z" transform="translate(-13.519 -111.721)" fill="#b9dff9"/>
        <path id="Path_485" data-name="Path 485" d="M318.519,242.056,307.578,235.8c-.875-.5-.771-1.4.25-1.98l3.584-2.084a3.813,3.813,0,0,1,3.418-.146l10.941,6.252c.875.5.771,1.4-.25,1.98l-3.584,2.084a3.814,3.814,0,0,1-3.418.146Z" transform="translate(-4.816 -106.702)" fill="#b9dff9"/>
        <path id="Path_486" data-name="Path 486" d="M239,207.884l-10.941-6.252c-.875-.5-.771-1.4.25-1.98l10.836-6.252a3.813,3.813,0,0,1,3.418-.146l10.941,6.252c.875.5.771,1.4-.25,1.98l-10.836,6.252a3.814,3.814,0,0,1-3.418.146Z" transform="translate(-91.01 -148.26)" fill="#b9dff9"/>
        <path id="Path_487" data-name="Path 487" d="M247.1,212.564l-10.941-6.252c-.875-.5-.771-1.4.25-1.98l10.836-6.252a3.814,3.814,0,0,1,3.418-.146l10.941,6.252c.875.5.771,1.4-.25,1.98l-10.836,6.252a3.814,3.814,0,0,1-3.418.146Z" transform="translate(-82.23 -143.188)" fill="#b9dff9"/>
        <path id="Path_488" data-name="Path 488" d="M255.2,217.244l-10.941-6.252c-.875-.5-.771-1.4.25-1.98l10.836-6.252a3.814,3.814,0,0,1,3.418-.146l10.941,6.252c.875.5.771,1.4-.25,1.98L258.616,217.1A3.814,3.814,0,0,1,255.2,217.244Z" transform="translate(-73.45 -138.115)" fill="#b9dff9"/>
        <path id="Path_489" data-name="Path 489" d="M263.309,221.924l-10.941-6.252c-.875-.5-.771-1.4.25-1.98l10.837-6.252a3.813,3.813,0,0,1,3.418-.146l10.941,6.252c.875.5.771,1.4-.25,1.98l-10.836,6.252A3.814,3.814,0,0,1,263.309,221.924Z" transform="translate(-64.659 -133.042)" fill="#b9dff9"/>
        <path id="Path_490" data-name="Path 490" d="M271.409,226.6l-10.941-6.252c-.875-.5-.771-1.4.25-1.98l10.836-6.252a3.813,3.813,0,0,1,3.418-.146l10.941,6.252c.875.5.771,1.4-.25,1.98l-10.836,6.252A3.814,3.814,0,0,1,271.409,226.6Z" transform="translate(-55.88 -127.969)" fill="#b9dff9"/>
        <path id="Path_491" data-name="Path 491" d="M279.509,231.284l-10.941-6.252c-.875-.5-.771-1.4.25-1.98l10.837-6.252a3.813,3.813,0,0,1,3.418-.146l10.941,6.252c.875.5.771,1.4-.25,1.98l-10.836,6.252A3.814,3.814,0,0,1,279.509,231.284Z" transform="translate(-47.1 -122.896)" fill="#b9dff9"/>
        <path id="Path_492" data-name="Path 492" d="M287.619,235.954,276.678,229.7c-.875-.5-.771-1.4.25-1.98l10.836-6.252a3.813,3.813,0,0,1,3.418-.146l10.941,6.252c.875.5.771,1.4-.25,1.98l-10.836,6.252A3.814,3.814,0,0,1,287.619,235.954Z" transform="translate(-38.309 -117.834)" fill="#b9dff9"/>
        <path id="Path_493" data-name="Path 493" d="M295.719,240.634l-10.941-6.252c-.875-.5-.771-1.4.25-1.98l10.836-6.252a3.813,3.813,0,0,1,3.418-.146l10.941,6.252c.875.5.771,1.4-.25,1.98l-10.836,6.252A3.814,3.814,0,0,1,295.719,240.634Z" transform="translate(-29.529 -112.762)" fill="#b9dff9"/>
        <path id="Path_494" data-name="Path 494" d="M303.819,245.314l-10.941-6.252c-.875-.5-.771-1.4.25-1.98l10.837-6.252a3.813,3.813,0,0,1,3.418-.146l10.941,6.252c.875.5.771,1.4-.25,1.98l-10.836,6.252A3.814,3.814,0,0,1,303.819,245.314Z" transform="translate(-20.749 -107.689)" fill="#b9dff9"/>
        <path id="Path_495" data-name="Path 495" d="M203.725,214.88l-32.2-18.589c-.875-.5-.771-1.4.25-1.98l10.836-6.252a3.813,3.813,0,0,1,3.418-.146l32.2,18.589c.875.5.771,1.4-.25,1.98l-10.836,6.252A3.814,3.814,0,0,1,203.725,214.88Z" transform="translate(-152.285 -154.049)" fill="#b9dff9"/>
        <path id="Path_496" data-name="Path 496" d="M303.275,272.361l-32.2-18.589c-.875-.5-.771-1.4.25-1.98l10.836-6.252a3.813,3.813,0,0,1,3.418-.146l32.2,18.589c.875.5.771,1.4-.25,1.98l-10.836,6.252a3.814,3.814,0,0,1-3.418.146Z" transform="translate(-44.379 -91.744)" fill="#b9dff9"/>
        <path id="Path_497" data-name="Path 497" d="M259.809,258.192l-10.941-6.252c-.875-.5-.771-1.4.25-1.98l12.9-7.461a3.814,3.814,0,0,1,3.418-.146l10.941,6.252c.875.5.771,1.4-.25,1.98l-12.9,7.46a3.814,3.814,0,0,1-3.418.146Z" transform="translate(-68.453 -95.039)" fill="#b9dff9"/>
        <path id="Path_498" data-name="Path 498" d="M204.435,226.184,186.888,216.16c-.875-.5-.771-1.4.25-1.98l12.9-7.46a3.813,3.813,0,0,1,3.418-.146l17.484,10.086c.875.5.771,1.4-.25,1.98l-12.9,7.46a3.814,3.814,0,0,1-3.355.083Z" transform="translate(-135.635 -133.822)" fill="#b9dff9"/>
        <path id="Path_499" data-name="Path 499" d="M255.4,255.677l-17.484-10.086c-.875-.5-.771-1.4.25-1.98l12.9-7.461a3.814,3.814,0,0,1,3.418-.146l17.484,10.086c.875.5.771,1.4-.25,1.98l-12.9,7.461a3.814,3.814,0,0,1-3.418.146Z" transform="translate(-80.322 -101.922)" fill="#b9dff9"/>
        <path id="Path_500" data-name="Path 500" d="M216.062,232.967,198.578,222.88c-.875-.5-.771-1.4.25-1.98l12.9-7.46a3.814,3.814,0,0,1,3.418-.146l17.484,10.086c.875.5.771,1.4-.25,1.98l-12.9,7.461a3.814,3.814,0,0,1-3.418.146Z" transform="translate(-122.964 -126.538)" fill="#b9dff9"/>
        <path id="Path_501" data-name="Path 501" d="M214.908,213.15l76.022,43.888a1.042,1.042,0,0,1,0,1.98l-13.171,7.606a3.772,3.772,0,0,1-3.418,0L198.32,222.736Z" transform="translate(-122.602 -126.332)" fill="#b9dff9"/>
        <path id="Path_502" data-name="Path 502" d="M281.028,258.4l12.17,7.023c.729.417.625,1.146-.208,1.625l-5.272,3.043a3.126,3.126,0,0,1-2.813.125l-12.17-7.023c-.729-.417-.625-1.146.208-1.625l5.272-3.043A3.126,3.126,0,0,1,281.028,258.4Z" transform="translate(-42.471 -77.579)" fill="#b9dff9"/>
        <path id="Path_503" data-name="Path 503" d="M272.858,253.683l12.17,7.023c.729.417.625,1.146-.208,1.625l-5.272,3.043a3.126,3.126,0,0,1-2.813.125l-12.17-7.023c-.729-.417-.625-1.146.208-1.625l5.272-3.043A3.126,3.126,0,0,1,272.858,253.683Z" transform="translate(-51.327 -82.695)" fill="#b9dff9"/>
        <path id="Path_504" data-name="Path 504" d="M264.758,249.013l12.17,7.023c.729.417.625,1.146-.208,1.625l-5.272,3.043a3.126,3.126,0,0,1-2.813.125l-12.17-7.023c-.729-.417-.625-1.146.208-1.625l5.272-3.043A3.126,3.126,0,0,1,264.758,249.013Z" transform="translate(-60.107 -87.757)" fill="#b9dff9"/>
        <path id="Path_505" data-name="Path 505" d="M277.316,251.153l12.17,7.023c.729.417.625,1.146-.208,1.625l-5.231,2.98a3.125,3.125,0,0,1-2.813.125l-12.17-7.023c-.729-.417-.625-1.146.208-1.626l5.272-3.042a3.126,3.126,0,0,1,2.772-.062Z" transform="translate(-46.449 -85.457)" fill="#b9dff9"/>
      </g>
      <g id="Group_2914" data-name="Group 2914" transform="translate(305.744 90.361)">
        <path id="Path_506" data-name="Path 506" d="M324.083,120.191,214.26,56.777l1.417-7.127L325.5,113.064Z" transform="translate(-208.092 -49.65)" fill="#5793ce"/>
        <path id="Path_507" data-name="Path 507" d="M287.968,116.01,211.3,71.747l1.417-7.127,76.647,44.263Z" transform="translate(-211.3 -33.424)" fill="#5793ce"/>
        <path id="Path_508" data-name="Path 508" d="M279.112,102.56,212.78,64.278,214.2,57.13l66.311,38.3Z" transform="translate(-209.696 -41.542)" fill="#fff"/>
        <path id="Path_509" data-name="Path 509" d="M282.725,104.648,249.57,85.518l1.417-7.148,33.155,19.151Z" transform="translate(-169.818 -18.519)" fill="#16becf"/>
      </g>
    </g>
    <path id="Path_510" data-name="Path 510" d="M312.8,117.18l-19.4,91.985-69.666-40.2,15.213-29.9Z" transform="translate(242.508 127.015)" fill="#0a2d60"/>
    <path id="Path_511" data-name="Path 511" d="M221.755,299.2h0a29.175,29.175,0,0,1,0-50.348l97.4-56.266,99.049,57.121-85.587,49.41a110.866,110.866,0,0,1-110.865.083Z" transform="translate(117.697 86.407)" fill="#5793ce"/>
    <path id="Path_512" data-name="Path 512" d="M223.59,62.654,189.33,42.877l1.459-7.377,34.26,19.777Z" transform="translate(205.221 38.479)" fill="#d4ecff"/>
    <path id="Path_513" data-name="Path 513" d="M222.13,70.174l-34.26-19.8L189.329,43l34.26,19.8Z" transform="translate(203.639 46.609)" fill="#fff"/>
    <g id="Group_2917" data-name="Group 2917" transform="translate(104.3 62.372)">
      <path id="Path_514" data-name="Path 514" d="M126.959,310.683h0c-15.671-8.711-25.466-27.779-25.549-55.1-.167-54.057,37.719-120.16,84.441-147.334l33.718-19.61h0l1.625.917,154.711,87-39.157,25.361L322.036,212.7,301.78,233.869l-3.251,3.042-21.569,32.655-7.9,20.443-5.856,16.255-4.814,34.114-.333,2.938,1.75,14.379,4.981,17.8,7.023,12.066,10.211,12.108Z" transform="translate(-101.41 -88.64)" fill="#5793ce"/>
      <path id="Path_515" data-name="Path 515" d="M296.975,130.51v5.731l-102.655,59.6a36.406,36.406,0,0,1,8.336-10.607Z" transform="translate(-0.701 -43.256)" fill="#d4ecff"/>
      <path id="Path_516" data-name="Path 516" d="M418.763,160.649,264.073,71.79,170.4,128.015l-11.712,13.65-17.609,30.946-11.066,30.926-3.605,24.174-.458,24.132,15.109,34.51,19.652,11.482L180.9,298.9l24.236-10.065L396.695,176.153Z" transform="translate(32.221 15.443)" fill="#d4ecff"/>
      <path id="Path_517" data-name="Path 517" d="M126.556,217.248c-13.129-7.294-22.09-21.86-24.736-42.408l157.8,90.443L264.3,282.1l7.023,12.066,10.211,12.108L126.515,217.248Z" transform="translate(-100.965 4.795)" fill="#396caa"/>
      <g id="Group_2916" data-name="Group 2916" transform="translate(0.042 87.9)">
        <path id="Path_518" data-name="Path 518" d="M102.847,191.71a98.087,98.087,0,0,1-1.417-16.671q0-5.971.6-12.129l157.3,90.151-.959,6.773-.333,2.938,1.75,14.379,1.48,5.293Z" transform="translate(-101.43 -96.037)" fill="#173d7a"/>
        <path id="Path_519" data-name="Path 519" d="M471.911,224.743v-5.731L260.7,341.672c-44.013,25.591-79.94,5-80.106-45.847S216.025,182.689,260.121,157.1l35.427-20.548V130.82l-35.427,20.548c-46.743,27.091-84.608,93.277-84.441,147.334S214,374.64,260.746,347.466Z" transform="translate(-20.948 -130.82)" fill="#173d7a"/>
      </g>
    </g>
    <g id="Group_2918" data-name="Group 2918" transform="translate(369.961 184.824)">
      <path id="Path_520" data-name="Path 520" d="M278.58,151.293,183.49,95.84l-5.96,3.418,95.09,55.433Z" transform="translate(-177.53 -80.94)" fill="#5793ce"/>
      <path id="Path_521" data-name="Path 521" d="M262.373,127.409,196,88.69l-5.96,3.418,66.373,38.7Z" transform="translate(-163.97 -88.69)" fill="#5793ce"/>
      <path id="Path_522" data-name="Path 522" d="M247.173,125.738,189.761,92.27l-5.981,3.4,57.433,33.489Z" transform="translate(-170.755 -84.81)" fill="#5793ce"/>
      <path id="Path_523" data-name="Path 523" d="M250.317,127.574,221.6,110.84l-5.96,3.418,28.7,16.734Z" transform="translate(-136.221 -64.681)" fill="#5793ce"/>
    </g>
    <g id="Group_2925" data-name="Group 2925" transform="translate(421.991 385.742)">
      <path id="Path_524" data-name="Path 524" d="M286.056,389.211,491.22,270.677c4.981-2.876,4.355-7.877-1.4-11.212h0c-5.752-3.313-14.442-3.668-19.4-.813L265.259,377.187c-4.981,2.876-4.355,7.877,1.4,11.212h0C272.386,391.712,281.076,392.087,286.056,389.211Z" transform="translate(-245.144 -229.817)" fill="#efefef"/>
      <g id="Group_2924" data-name="Group 2924" transform="translate(0 0)">
        <path id="Path_525" data-name="Path 525" d="M386.113,244.2h0a.792.792,0,0,0-.834-.375l-10.92,2.251,4.168,7.335,7.44-8.336A.792.792,0,0,0,386.113,244.2Z" transform="translate(-123.241 -243.813)" fill="#ff2c9c"/>
        <g id="Group_2919" data-name="Group 2919" transform="translate(131.105 1.095)">
          <path id="Path_526" data-name="Path 526" d="M399.113,248.926a5.439,5.439,0,0,0-2.459-4.272,1.792,1.792,0,0,0-1.625-.208,69.625,69.625,0,0,0-35.927,9.232l-.792.458,13.316,23.173,4.022-2.6a69.6,69.6,0,0,0,21.11-21.465l1.73-2.772A1.792,1.792,0,0,0,399.113,248.926Z" transform="translate(-271.743 -244.339)" fill="#5793ce"/>
          <path id="Path_527" data-name="Path 527" d="M375.82,266.414a20.839,20.839,0,0,0-9.419-16.38c-5.21-3.022-9.44-.584-9.461,5.439a20.84,20.84,0,0,0,9.419,16.38C371.653,274.875,375.82,272.437,375.82,266.414Z" transform="translate(-273.228 -239.57)" fill="#5793ce"/>
          <path id="Path_528" data-name="Path 528" d="M282.713,262.758l80.836-49.264-13.3-23.173L267,235.375Z" transform="translate(-263.687 -180.543)" fill="#5793ce"/>
          <path id="Path_529" data-name="Path 529" d="M339.068,291.2a24.674,24.674,0,0,0-11.128-19.36c-6.252-3.564-11.17-.688-11.17,6.418a24.674,24.674,0,0,0,11.128,19.36C334.067,301.177,339.068,298.3,339.068,291.2Z" transform="translate(-316.77 -216.192)" fill="#d4ecff"/>
        </g>
        <g id="Group_2920" data-name="Group 2920" transform="translate(19.677 57.856)">
          <path id="Path_530" data-name="Path 530" d="M336.858,292.465a24.674,24.674,0,0,0-11.128-19.36c-6.252-3.564-11.17-.688-11.17,6.418a24.674,24.674,0,0,0,11.128,19.36C331.836,302.447,336.837,299.551,336.858,292.465Z" transform="translate(-207.738 -271.576)" fill="#d4ecff"/>
          <rect id="Rectangle_6286" data-name="Rectangle 6286" width="123.306" height="31.572" transform="translate(3.228 62.143) rotate(-29.88)" fill="#d4ecff"/>
          <path id="Path_531" data-name="Path 531" d="M285.6,321.945a24.674,24.674,0,0,0-11.128-19.36c-6.252-3.564-11.17-.688-11.17,6.418a24.674,24.674,0,0,0,11.128,19.36C280.492,331.927,285.6,329.052,285.6,321.945Z" transform="translate(-263.3 -239.622)" fill="#d4ecff"/>
          <path id="Path_532" data-name="Path 532" d="M279.452,316.665a16.3,16.3,0,0,0-7.523-11.753c-3.959-2.292-7-.75-6.794,3.459a16.3,16.3,0,0,0,7.523,11.753C276.7,322.355,279.744,320.833,279.452,316.665Z" transform="translate(-261.322 -236.592)" fill="#396caa"/>
        </g>
        <g id="Group_2921" data-name="Group 2921" transform="translate(125.958 53.288)">
          <path id="Path_533" data-name="Path 533" d="M337.1,291.716a24.674,24.674,0,0,0-11.128-19.36,8.711,8.711,0,0,0-6.627-1.313c2.084-2.084,5.335-2.292,9.065-.125a24.674,24.674,0,0,1,11.128,19.36c0,4.168-1.813,6.981-4.564,7.731A8.815,8.815,0,0,0,337.1,291.716Z" transform="translate(-308.837 -269.384)" fill="#fff"/>
          <path id="Path_534" data-name="Path 534" d="M340.911,290.955a24.674,24.674,0,0,0-11.128-19.36,7.835,7.835,0,0,0-7.9-.792l-6.064,3.48,2.813,4.918a25.2,25.2,0,0,0,10.086,17.547l2.813,4.918,6.064-3.48h0A7.836,7.836,0,0,0,340.911,290.955Z" transform="translate(-312.652 -268.623)" fill="#5793ce"/>
          <path id="Path_535" data-name="Path 535" d="M336.6,292.635a24.674,24.674,0,0,0-11.128-19.36c-6.252-3.563-11.17-.688-11.17,6.419a24.674,24.674,0,0,0,11.128,19.36C331.492,302.638,336.494,299.762,336.6,292.635Z" transform="translate(-314.3 -266.823)" fill="#d4ecff"/>
        </g>
        <g id="Group_2922" data-name="Group 2922" transform="translate(0 128.933)">
          <path id="Path_536" data-name="Path 536" d="M286.726,317.606l-6.794-11.816L257.28,318.731a6.815,6.815,0,0,0-2.522,9.294h0a6.814,6.814,0,0,0,9.294,2.522Z" transform="translate(-253.858 -305.567)" fill="#16becf"/>
          <path id="Path_537" data-name="Path 537" d="M275.307,314.68a10.649,10.649,0,0,0-4.793-8.336c-2.647-1.542-4.814-.292-4.814,2.772a10.649,10.649,0,0,0,4.793,8.336C273.14,318.847,275.286,317.68,275.307,314.68Z" transform="translate(-241.021 -305.683)" fill="#16becf"/>
        </g>
        <g id="Group_2923" data-name="Group 2923" transform="translate(29.17 63.418)">
          <path id="Path_538" data-name="Path 538" d="M298.416,307.473l-3.355-1.959a7.19,7.19,0,0,0-7.231.709l-11.649,6.689a8.815,8.815,0,0,0-4,6.9V325.6a4.751,4.751,0,0,1-1.188,2.9l.417,2.688-2.876-1.688h0a1.48,1.48,0,0,1-.667-1.417V322.29a18.38,18.38,0,0,1,8.336-14.358l11.649-6.689c3.9-2.23,7.544-2.584,10.295-1L301.5,302.2a7.19,7.19,0,0,0,7.231-.708l46.951-26.966a1.5,1.5,0,0,1,1.542-.125h0l2.855,1.688-2.48.917a4.773,4.773,0,0,1-1.938,2.522l-46.93,26.966C304.814,308.724,301.167,309.161,298.416,307.473Z" transform="translate(-267.855 -274.245)" fill="#5793ce"/>
          <path id="Path_539" data-name="Path 539" d="M296.37,306.351a7.189,7.189,0,0,0-7.231.709l-11.649,6.689a8.815,8.815,0,0,0-4,6.9v5.793a4.772,4.772,0,0,1-2.084,3.73c-1.188.688-2.084.125-2.084-1.25v-5.793a18.38,18.38,0,0,1,8.336-14.358l11.649-6.689c3.9-2.23,7.544-2.584,10.295-1l3.355,1.959a7.19,7.19,0,0,0,7.231-.709l46.93-26.966c1.188-.688,2.084-.125,2.084,1.25a4.772,4.772,0,0,1-2.084,3.73l-46.93,26.966c-3.9,2.23-7.544,2.584-10.295,1Z" transform="translate(-266.267 -273.352)" fill="#5793ce"/>
          <path id="Path_540" data-name="Path 540" d="M271.25,298.138v5.918a3.729,3.729,0,0,0,.167-1.063V296.7a6.541,6.541,0,0,0-.167,1.438Z" transform="translate(-264.175 -249.905)" fill="#fff"/>
        </g>
      </g>
      <path id="Path_541" data-name="Path 541" d="M267.266,335.073l21.444-12.4c2.584-1.5,2.272-4.168-.729-5.835h0a11.233,11.233,0,0,0-10.107-.417l-21.465,12.4c-2.584,1.5-2.272,4.168.729,5.835h0A11.232,11.232,0,0,0,267.266,335.073Z" transform="translate(-252.986 -166.197)" fill="#efefef"/>
    </g>
    <g id="Group_2926" data-name="Group 2926" transform="translate(0 241.965)">
      <path id="Path_542" data-name="Path 542" d="M28.675,174.134,0,157.587,28.675,141.02l28.7,16.567Z" transform="translate(0 -89.109)" fill="#efefef"/>
      <path id="Path_543" data-name="Path 543" d="M42.456,157.174l-28.7,16.567V140.606l28.7-16.546Z" transform="translate(14.915 -107.493)" fill="#0fa7b6"/>
      <path id="Path_544" data-name="Path 544" d="M28.675,149.224,0,132.677,28.675,116.11l28.7,16.567Z" transform="translate(0 -116.11)" fill="#16becf"/>
      <path id="Path_545" data-name="Path 545" d="M28.675,173.741,0,157.174V124.06l28.675,16.546Z" transform="translate(0 -107.493)" fill="#16becf"/>
    </g>
    <g id="Group_2927" data-name="Group 2927" transform="translate(653.334 238.381)">
      <path id="Path_546" data-name="Path 546" d="M345.457,179.016,313.51,160.573l31.947-18.443L377.4,160.573Z" transform="translate(-313.51 -84.322)" fill="#efefef"/>
      <path id="Path_547" data-name="Path 547" d="M360.787,160.126,328.84,178.568V141.683l31.947-18.443Z" transform="translate(-296.893 -104.797)" fill="#173d7a"/>
      <path id="Path_548" data-name="Path 548" d="M345.457,151.276,313.51,132.833l31.947-18.443L377.4,132.833Z" transform="translate(-313.51 -114.39)" fill="#d4ecff"/>
      <path id="Path_549" data-name="Path 549" d="M345.457,178.568,313.51,160.126V123.24l31.947,18.443Z" transform="translate(-313.51 -104.797)" fill="#5793ce"/>
    </g>
    <g id="Group_2928" data-name="Group 2928" transform="translate(195.285 457.882)">
      <path id="Path_550" data-name="Path 550" d="M125.657,284.356,93.71,265.913l31.947-18.443L157.6,265.913Z" transform="translate(-93.71 -189.641)" fill="#efefef"/>
      <path id="Path_551" data-name="Path 551" d="M140.987,265.466,109.04,283.908V247.023l31.947-18.443Z" transform="translate(-77.093 -210.116)" fill="#173d7a"/>
      <path id="Path_552" data-name="Path 552" d="M125.657,256.626,93.71,238.184l31.947-18.464L157.6,238.184Z" transform="translate(-93.71 -219.72)" fill="#d4ecff"/>
      <path id="Path_553" data-name="Path 553" d="M125.657,283.908,93.71,265.466V228.58l31.947,18.443Z" transform="translate(-93.71 -210.116)" fill="#5793ce"/>
    </g>
    <g id="Group_2930" data-name="Group 2930" transform="translate(291.876 217.354)">
      <g id="Group_2929" data-name="Group 2929">
        <path id="Path_554" data-name="Path 554" d="M274.289,221.995c-18.964,10.941-49.7,10.941-68.645,0s-18.964-28.7,0-39.595,49.7-10.941,68.645,0S293.252,211.033,274.289,221.995Z" transform="translate(-191.411 -150.87)" fill="#16becf"/>
        <path id="Path_555" data-name="Path 555" d="M288.49,195.286v-8.919h-2.563a31.009,31.009,0,0,0-11.649-10.9c-18.964-10.941-49.7-10.941-68.645,0a30.989,30.989,0,0,0-11.649,10.9H191.42v8.857h0c0,7.19,4.71,14.4,14.212,19.9,18.964,10.941,49.7,10.941,68.645,0C283.78,209.624,288.49,202.455,288.49,195.286Z" transform="translate(-191.42 -158.401)" fill="#275e64"/>
        <path id="Path_556" data-name="Path 556" d="M274.289,210.795c-18.964,10.941-49.7,10.941-68.645,0s-18.964-28.7,0-39.595,49.7-10.941,68.645,0S293.252,199.833,274.289,210.795Z" transform="translate(-191.411 -163.01)" fill="#16becf"/>
        <path id="Path_557" data-name="Path 557" d="M274.268,195.782c-18.964,10.941-49.7,10.941-68.645,0-9.086-5.252-13.775-12.045-14.15-18.922-.417,7.46,4.272,15,14.15,20.714,18.964,10.941,49.7,10.941,68.645,0,9.878-5.71,14.588-13.233,14.15-20.714C288.022,183.716,283.354,190.531,274.268,195.782Z" transform="translate(-191.39 -147.998)" fill="#fff"/>
      </g>
      <path id="Path_558" data-name="Path 558" d="M204.151,192.619a2.084,2.084,0,0,1-1.271-1.792V172.572c0-1.4,1.959-2.522,4.376-2.522s4.355,1.125,4.355,2.522v15.15l43.95-5.377c2.355-.292,4.689.584,5.189,1.938s-1,2.709-3.376,3l-49.222,6.023a6.919,6.919,0,0,1-3.668-.5Z" transform="translate(-178.998 -155.379)" fill="#fff"/>
    </g>
    <g id="Group_2931" data-name="Group 2931" transform="translate(545.888 195.96)">
      <path id="Path_559" data-name="Path 559" d="M320.332,158.613a3.4,3.4,0,0,1-4.9,1.5,4.168,4.168,0,0,1-1.75-5.356,3.4,3.4,0,0,1,4.9-1.5A4.168,4.168,0,0,1,320.332,158.613Z" transform="translate(-313.311 -152.744)" fill="#16becf"/>
      <path id="Path_560" data-name="Path 560" d="M325.962,161.863a3.4,3.4,0,0,1-4.9,1.5,4.168,4.168,0,0,1-1.751-5.356,3.4,3.4,0,0,1,4.9-1.5A4.168,4.168,0,0,1,325.962,161.863Z" transform="translate(-307.208 -149.221)" fill="#fff"/>
      <path id="Path_561" data-name="Path 561" d="M331.592,165.113a3.4,3.4,0,0,1-4.9,1.5,4.168,4.168,0,0,1-1.75-5.356,3.4,3.4,0,0,1,4.9-1.5A4.168,4.168,0,0,1,331.592,165.113Z" transform="translate(-301.106 -145.698)" fill="#d4ecff"/>
      <path id="Path_562" data-name="Path 562" d="M337.222,168.363a3.4,3.4,0,0,1-4.9,1.5,4.168,4.168,0,0,1-1.751-5.356,3.4,3.4,0,0,1,4.9-1.5A4.168,4.168,0,0,1,337.222,168.363Z" transform="translate(-295.003 -142.176)" fill="#16becf"/>
    </g>
    <path id="Path_563" data-name="Path 563" d="M193.553,89.547l-1.625-.917h0l-33.718,19.526a144.689,144.689,0,0,0-31.259,25.216L184.7,166.715l72.187-41.679Z" transform="translate(30.575 -26.279)" fill="#173d7a"/>
    <g id="Group_2935" data-name="Group 2935" transform="translate(134.664 0)">
      <g id="Group_2933" data-name="Group 2933">
        <path id="Path_564" data-name="Path 564" d="M223.357,123l-10.42-6.043,38.49-22.215a2.084,2.084,0,0,0,0-3.814L212.041,68.046a7.315,7.315,0,0,0-6.606,0l-38.615,22.3L156.4,84.3,195.015,62a30.509,30.509,0,0,1,27.57,0L262.035,84.78c7.606,4.4,7.606,11.524,0,15.921Z" transform="translate(-72.167 -58.71)" fill="#16becf"/>
        <g id="Group_2932" data-name="Group 2932" transform="translate(0 11.13)">
          <path id="Path_565" data-name="Path 565" d="M282.964,119.857c0-5.606-3.4-12.108-7.606-14.588L205.38,64.945a4.877,4.877,0,0,0-4.918-.417h0L117,113.063l80.773,60.872,82.295-47.764a3.816,3.816,0,0,0,.729-.417h0a7.148,7.148,0,0,0,2.167-5.9Z" transform="translate(-114.874 -64.051)" fill="#d4ecff"/>
          <path id="Path_566" data-name="Path 566" d="M161.247,149.1l82.295-47.764a3.813,3.813,0,0,0,.729-.417h0a7.148,7.148,0,0,0,2.23-5.877,18.755,18.755,0,0,0-2.084-8.086L150.64,141.142Z" transform="translate(-78.411 -39.219)" fill="#5793ce"/>
          <path id="Path_567" data-name="Path 567" d="M193.544,148.75l-69.958-40.407c-4.168-2.417-7.606-8.919-7.606-14.588h0c0-5.606,3.4-8.169,7.606-5.752l69.958,40.387c4.168,2.417,7.606,8.919,7.606,14.588h0C201.15,148.583,197.754,151.167,193.544,148.75Z" transform="translate(-115.98 -39.075)" fill="#5793ce"/>
          <path id="Path_568" data-name="Path 568" d="M192.653,128.232,122.612,87.845a4.835,4.835,0,0,0-5.022-.354,5.293,5.293,0,0,1,4.168.729l69.958,40.387c4.168,2.417,7.606,8.919,7.606,14.588h0a6.773,6.773,0,0,1-2.584,6.106c2.084-.625,3.418-2.959,3.418-6.481h0C200.239,137.068,196.842,130.67,192.653,128.232Z" transform="translate(-114.235 -39.229)" fill="#fff"/>
        </g>
        <path id="Path_569" data-name="Path 569" d="M153.3,114.863l-8.336-4.856a3.626,3.626,0,0,1-1.521-2.9h0c0-1.125.688-1.625,1.521-1.146l8.336,4.856a3.626,3.626,0,0,1,1.521,2.9h0C154.818,114.842,154.151,115.342,153.3,114.863Z" transform="translate(-86.215 -7.687)" fill="#fff"/>
      </g>
      <g id="Group_2934" data-name="Group 2934" transform="translate(65.413 43.3)">
        <path id="Path_570" data-name="Path 570" d="M158.541,85.931a2.813,2.813,0,0,0,0-5.335,10.211,10.211,0,0,0-9.253,0,2.813,2.813,0,0,0,0,5.335A10.211,10.211,0,0,0,158.541,85.931Z" transform="translate(-147.369 -79.488)" fill="#5793ce"/>
        <path id="Path_571" data-name="Path 571" d="M165.3,89.741a2.813,2.813,0,0,0,0-5.335,10.211,10.211,0,0,0-9.253,0,2.813,2.813,0,0,0,0,5.335,10.211,10.211,0,0,0,9.253,0Z" transform="translate(-140.042 -75.358)" fill="#fff"/>
        <path id="Path_572" data-name="Path 572" d="M172.061,93.551a2.813,2.813,0,0,0,0-5.335,10.211,10.211,0,0,0-9.253,0,2.813,2.813,0,0,0,0,5.335,10.211,10.211,0,0,0,9.253,0Z" transform="translate(-132.714 -71.229)" fill="#fff"/>
      </g>
    </g>
    <g id="Group_2938" data-name="Group 2938" transform="translate(5.893 362.04)">
      <path id="Path_573" data-name="Path 573" d="M120.814,337.135,56.837,300.27c-3.918-2.271-3.438-6.252,1.1-8.836l61.768-35.677a17.026,17.026,0,0,1,15.317-.625l64,36.8c3.918,2.272,3.438,6.252-1.1,8.836l-61.789,35.74A17.026,17.026,0,0,1,120.814,337.135Z" transform="translate(-54.187 -209.492)" fill="#efefef"/>
      <path id="Path_574" data-name="Path 574" d="M201.639,280.891h0V258.8H152.125l-17.067-9.9a17.026,17.026,0,0,0-15.317.625L103.8,258.759H54.2v22.694a4.439,4.439,0,0,0,2.626,4.168L120.8,322.569a17.026,17.026,0,0,0,15.317-.625l61.789-35.76C200.514,284.662,201.743,282.7,201.639,280.891Z" transform="translate(-54.176 -216.245)" fill="#396caa"/>
      <path id="Path_575" data-name="Path 575" d="M127.91,247.38a17.672,17.672,0,0,0-8.211,2.084l-15.9,9.294H54.2v22.694a4.439,4.439,0,0,0,2.626,4.168L120.8,322.568a13.859,13.859,0,0,0,7.106,1.521Z" transform="translate(-54.176 -216.244)" fill="#396caa"/>
      <path id="Path_576" data-name="Path 576" d="M59.807,252.83H54.2v22.694a4.439,4.439,0,0,0,2.626,4.168l2.98,1.709Z" transform="translate(-54.176 -210.337)" fill="#5793ce"/>
      <path id="Path_577" data-name="Path 577" d="M86.63,297.134a17.464,17.464,0,0,0,12.254-.146V271.21H86.63Z" transform="translate(-19.023 -190.414)" fill="#5793ce"/>
      <path id="Path_578" data-name="Path 578" d="M120.814,316.048,56.837,279.1c-3.918-2.271-3.438-6.252,1.1-8.836l61.768-35.677a17.026,17.026,0,0,1,15.317-.625L199,270.91c3.918,2.271,3.439,6.252-1.1,8.836L136.131,315.4a17.026,17.026,0,0,1-15.317.646Z" transform="translate(-54.187 -232.439)" fill="#d4ecff"/>
      <path id="Path_579" data-name="Path 579" d="M197.921,254.481l-61.789,35.677a17.026,17.026,0,0,1-15.317.625L56.839,253.835a5.918,5.918,0,0,1-1.959-1.73c-1.355,2.084-.729,4.522,1.959,6.085l63.977,36.948a17.026,17.026,0,0,0,15.317-.625L197.9,258.836c3.522-2.084,4.585-4.876,3.063-7.106A8.565,8.565,0,0,1,197.921,254.481Z" transform="translate(-54.188 -211.529)" fill="#fff"/>
      <g id="Group_2936" data-name="Group 2936" transform="translate(118.767 59.027)">
        <path id="Path_580" data-name="Path 580" d="M116.348,267.21a5.71,5.71,0,0,1-2.584,4.48c-1.417.834-2.584.146-2.584-1.5a5.71,5.71,0,0,1,2.584-4.48C115.181,264.9,116.348,265.564,116.348,267.21Z" transform="translate(-111.18 -255.778)" fill="#d4ecff"/>
        <path id="Path_581" data-name="Path 581" d="M120.338,264.91a5.71,5.71,0,0,1-2.584,4.48c-1.417.834-2.584.146-2.584-1.5a5.71,5.71,0,0,1,2.584-4.48C119.171,262.6,120.338,263.264,120.338,264.91Z" transform="translate(-106.855 -258.271)" fill="#d4ecff"/>
        <path id="Path_582" data-name="Path 582" d="M124.318,262.61a5.71,5.71,0,0,1-2.584,4.48c-1.417.834-2.584.146-2.584-1.5a5.71,5.71,0,0,1,2.584-4.48C123.172,260.3,124.318,260.964,124.318,262.61Z" transform="translate(-102.541 -260.764)" fill="#d4ecff"/>
      </g>
      <g id="Group_2937" data-name="Group 2937" transform="translate(39.221 21.586)">
        <path id="Path_583" data-name="Path 583" d="M104.22,281.918,74.274,264.643c-1.834-1.063-1.6-2.917.521-4.168L103.7,243.8a7.961,7.961,0,0,1,7.169-.292l29.946,17.276c1.834,1.063,1.6,2.918-.521,4.168l-28.9,16.671A7.96,7.96,0,0,1,104.22,281.918Z" transform="translate(-72.979 -242.797)" fill="#5793ce"/>
        <path id="Path_584" data-name="Path 584" d="M91.611,257.425l-4.168-2.4c-.25-.146-.229-.4,0-.563l4-2.313a1.1,1.1,0,0,1,1,0l4.168,2.4c.25.146.229.4,0,.563l-4,2.313a1.1,1.1,0,0,1-1,0Z" transform="translate(-57.557 -232.787)" fill="#d4ecff"/>
        <path id="Path_585" data-name="Path 585" d="M74.262,264.643h0l.438-.292,28.9-16.671a7.96,7.96,0,0,1,7.169-.292l29.863,17.234c1.688-1.209,1.792-2.855,0-3.834l-29.946-17.276a7.961,7.961,0,0,0-7.169.292l-28.9,16.671C72.657,261.725,72.428,263.58,74.262,264.643Z" transform="translate(-73.008 -242.797)" fill="#396caa"/>
      </g>
    </g>
  </g>
</svg>
