<svg xmlns="http://www.w3.org/2000/svg" width="106.872" height="99.021" viewBox="0 0 106.872 99.021">
  <g id="Group_4009" data-name="Group 4009" transform="translate(-549.574 -1534.199)">
    <g id="btc" transform="translate(549.574 1534.199)" opacity="0.26">
      <ellipse id="Oval" cx="48.689" cy="48.99" rx="48.689" ry="48.99" transform="translate(0 0)" fill="#21bdca"/>
    </g>
    <g id="_02" data-name="02" transform="translate(573.764 1549.287)">
      <path id="Path_18890" data-name="Path 18890" d="M67.088,36.292a32.9,32.9,0,1,1-22.5-22.5" transform="translate(0 4.059)" fill="none" stroke="#25373f" stroke-linecap="round" stroke-linejoin="round" stroke-miterlimit="10" stroke-width="3"/>
      <path id="Path_18891" data-name="Path 18891" d="M30.8,59.1A18.3,18.3,0,1,0,12.5,40.8,18.3,18.3,0,0,0,30.8,59.1Z" transform="translate(4.639 8.698)" fill="none" stroke="#25373f" stroke-linecap="round" stroke-linejoin="round" stroke-miterlimit="10" stroke-width="3"/>
      <path id="Path_18892" data-name="Path 18892" d="M25,48.336,67.086,6.25" transform="translate(10.437 1.16)" fill="none" stroke="#25373f" stroke-linecap="round" stroke-linejoin="round" stroke-miterlimit="10" stroke-width="3"/>
      <path id="Path_18893" data-name="Path 18893" d="M53.389,14.729,49.729,3.75,38.75,14.729l3.66,10.979,10.979,3.66L64.368,18.389Z" transform="translate(16.815)" fill="none" stroke="#25373f" stroke-linecap="round" stroke-linejoin="round" stroke-miterlimit="10" stroke-width="3"/>
    </g>
  </g>
</svg>
