<svg xmlns="http://www.w3.org/2000/svg" width="46.224" height="49.618" viewBox="0 0 46.224 49.618">
  <path id="trust" d="M11.183,6.386V23.815m24.4-17.429V23.815M14.669,2.9H32.1M14.669,27.3H32.1M16.412,49.958l1.743-1.743,12.723-1.569A5.89,5.89,0,0,0,32.969,45.6L43.6,34.969a2.329,2.329,0,0,0,0-3.486h0a2.329,2.329,0,0,0-3.486,0l-10.98,8.889m-10.98.871h8.714a3.5,3.5,0,0,0,3.486-3.486h0a1.647,1.647,0,0,0-1.743-1.743H15.192m0,0a9.044,9.044,0,0,0-9.063,8.714L.9,49.958" transform="translate(0.161 -1.4)" fill="none" stroke="#fff" stroke-miterlimit="10" stroke-width="3"/>
</svg>
