<svg xmlns="http://www.w3.org/2000/svg" width="55.356" height="49.2" viewBox="0 0 55.356 49.2">
  <g id="Speed" transform="translate(-0.1 -1.227)">
    <rect id="Rectangle_6288" data-name="Rectangle 6288" width="7" height="7" transform="translate(9.1 22.327)" fill="none" stroke="#fff" stroke-linejoin="round" stroke-miterlimit="10" stroke-width="2.2"/>
    <rect id="Rectangle_6289" data-name="Rectangle 6289" width="7" height="7" transform="translate(27.1 22.327)" fill="none" stroke="#fff" stroke-linejoin="round" stroke-miterlimit="10" stroke-width="2.2"/>
    <line id="Line_21" data-name="Line 21" x1="20" transform="translate(34.1 26.327)" fill="none" stroke="#fff" stroke-linejoin="round" stroke-miterlimit="10" stroke-width="2.2"/>
    <line id="Line_22" data-name="Line 22" x1="9" transform="translate(0.1 26.327)" fill="none" stroke="#fff" stroke-linejoin="round" stroke-miterlimit="10" stroke-width="2.2"/>
    <line id="Line_23" data-name="Line 23" x1="11" transform="translate(16.1 26.327)" fill="none" stroke="#fff" stroke-linejoin="round" stroke-miterlimit="10" stroke-width="2.2"/>
    <path id="Path_648" data-name="Path 648" d="M27.1,23.46l5.38-5.38L27.1,12.7" transform="translate(21.42 7.933)" fill="none" stroke="#fff" stroke-miterlimit="10" stroke-width="2.2"/>
    <path id="Path_649" data-name="Path 649" d="M28.447,12.667h0A8.88,8.88,0,0,0,19.48,3.7H14.1" transform="translate(11.107 0.793)" fill="none" stroke="#fff" stroke-linejoin="round" stroke-miterlimit="10" stroke-width="2.2"/>
    <line id="Line_24" data-name="Line 24" x1="31" transform="translate(7.1 15.327)" fill="none" stroke="#fff" stroke-linejoin="round" stroke-miterlimit="10" stroke-width="2.2"/>
    <line id="Line_25" data-name="Line 25" x1="8" transform="translate(14.1 4.327)" fill="none" stroke="#fff" stroke-linejoin="round" stroke-miterlimit="10" stroke-width="2.2"/>
    <rect id="Rectangle_6290" data-name="Rectangle 6290" width="3" height="4" transform="translate(38.1 13.327)" fill="none" stroke="#fff" stroke-linejoin="round" stroke-miterlimit="10" stroke-width="2.2"/>
    <path id="Path_650" data-name="Path 650" d="M28.447,22.7h0a8.88,8.88,0,0,1-8.967,8.967H14.1" transform="translate(11.107 15.867)" fill="none" stroke="#fff" stroke-linejoin="round" stroke-miterlimit="10" stroke-width="2.2"/>
    <line id="Line_26" data-name="Line 26" x1="31" transform="translate(7.1 36.327)" fill="none" stroke="#fff" stroke-linejoin="round" stroke-miterlimit="10" stroke-width="2.2"/>
    <line id="Line_27" data-name="Line 27" x1="8" transform="translate(14.1 47.327)" fill="none" stroke="#fff" stroke-linejoin="round" stroke-miterlimit="10" stroke-width="2.2"/>
    <rect id="Rectangle_6291" data-name="Rectangle 6291" width="3" height="3" transform="translate(38.1 35.327)" fill="none" stroke="#fff" stroke-linejoin="round" stroke-miterlimit="10" stroke-width="2.2"/>
    <rect id="Rectangle_6292" data-name="Rectangle 6292" width="3" height="4" transform="translate(22.1 2.327)" fill="none" stroke="#fff" stroke-linejoin="round" stroke-miterlimit="10" stroke-width="2.2"/>
    <rect id="Rectangle_6293" data-name="Rectangle 6293" width="3" height="4" transform="translate(22.1 45.327)" fill="none" stroke="#fff" stroke-linejoin="round" stroke-miterlimit="10" stroke-width="2.2"/>
  </g>
</svg>
