<svg xmlns="http://www.w3.org/2000/svg" width="79.922" height="76.223" viewBox="0 0 79.922 76.223"><g transform="translate(0.5 -11.489)"><g transform="translate(32.681 57.286)"><path d="M218.655,307.866a.6.6,0,0,0-.625.608,2.467,2.467,0,1,1-4.211-1.784.616.616,0,0,0-.872-.872,3.7,3.7,0,1,0,6.316,2.672A.616.616,0,0,0,218.655,307.866Z" transform="translate(-211.864 -305.638)" fill="#fff" stroke="#fff" stroke-width="1"/></g><g transform="translate(28.982 40.545)"><path d="M194.037,198.037a3.7,3.7,0,1,0-2.457,6.469.617.617,0,0,0,0-1.233,2.466,2.466,0,1,1,1.638-4.314.617.617,0,1,0,.819-.922Z" transform="translate(-187.881 -197.107)" fill="#fff" stroke="#fff" stroke-width="1"/></g><g transform="translate(27.132 50.217)"><path d="M178.355,259.813a2.467,2.467,0,0,0-.988,4.728.631.631,0,0,0,.246.051.617.617,0,0,0,.246-1.182,1.234,1.234,0,0,1,.5-2.363.617.617,0,0,0,0-1.233Z" transform="translate(-175.889 -259.813)" fill="#fff" stroke="#fff" stroke-width="1"/></g><g transform="translate(26.515 45.288)"><path d="M175.622,227.922a3.124,3.124,0,0,0-3.73,3.018,3.085,3.085,0,0,0,3.083,3.081.617.617,0,1,0,0-1.233,1.851,1.851,0,0,1-1.85-1.847,1.878,1.878,0,0,1,2.243-1.811.616.616,0,0,0,.253-1.207Z" transform="translate(-171.892 -227.858)" fill="#fff" stroke="#fff" stroke-width="1"/></g><g transform="translate(33.914 37.886)"><g transform="translate(0 0)"><path d="M222.941,179.869a3.083,3.083,0,0,0,0,6.166.617.617,0,1,0,0-1.233,1.85,1.85,0,1,1,1.85-1.847.617.617,0,0,0,1.233,0A3.088,3.088,0,0,0,222.941,179.869Z" transform="translate(-219.858 -179.869)" fill="#fff" stroke="#fff" stroke-width="1"/></g></g><g transform="translate(27.75 51.448)"><path d="M188.313,269.239a4.9,4.9,0,0,0-3.489-1.448h0a4.936,4.936,0,0,0-3.488,8.424,4.955,4.955,0,0,0,4.252,1.389.618.618,0,0,0,.514-.7.625.625,0,0,0-.7-.514,3.7,3.7,0,0,1-3.188-6.275,3.674,3.674,0,0,1,2.613-1.085h0a3.678,3.678,0,0,1,2.617,1.086.616.616,0,0,0,.872-.872Z" transform="translate(-179.894 -267.791)" fill="#fff" stroke="#fff" stroke-width="1"/></g><g transform="translate(38.847 57.286)"><path d="M258.152,305.819a.616.616,0,1,0-.872.872,2.468,2.468,0,1,1-4.212,1.784.61.61,0,0,0-.625-.608.616.616,0,0,0-.608.625,3.7,3.7,0,1,0,6.317-2.672Z" transform="translate(-251.835 -305.638)" fill="#fff" stroke="#fff" stroke-width="1"/></g><g transform="translate(43.583 40.545)"><g transform="translate(0 0)"><path d="M285.2,197.108a3.7,3.7,0,0,0-2.457.93.617.617,0,0,0,.819.922,2.467,2.467,0,1,1,1.638,4.314.617.617,0,0,0,0,1.233,3.7,3.7,0,1,0,0-7.4Z" transform="translate(-282.534 -197.108)" fill="#fff" stroke="#fff" stroke-width="1"/></g></g><g transform="translate(48.712 50.217)"><path d="M316.4,259.813a.617.617,0,1,0,0,1.233,1.234,1.234,0,0,1,.5,2.363.617.617,0,0,0,.245,1.182.633.633,0,0,0,.246-.051,2.467,2.467,0,0,0-.987-4.728Z" transform="translate(-315.786 -259.813)" fill="#fff" stroke="#fff" stroke-width="1"/></g><g transform="translate(48.193 45.288)"><path d="M312.912,227.922a.616.616,0,0,0,.253,1.207,1.874,1.874,0,0,1,2.242,1.811,1.85,1.85,0,0,1-1.85,1.847.617.617,0,0,0,0,1.233,3.085,3.085,0,0,0,3.083-3.081A3.121,3.121,0,0,0,312.912,227.922Z" transform="translate(-312.422 -227.858)" fill="#fff" stroke="#fff" stroke-width="1"/></g><g transform="translate(38.847 37.886)"><g transform="translate(0 0)"><path d="M254.917,179.869a3.087,3.087,0,0,0-3.082,3.085.617.617,0,0,0,1.233,0,1.849,1.849,0,1,1,1.849,1.847.617.617,0,0,0,0,1.233,3.083,3.083,0,0,0,0-6.166Z" transform="translate(-251.835 -179.869)" fill="#fff" stroke="#fff" stroke-width="1"/></g></g><g transform="translate(42.577 51.448)"><path d="M283.173,269.237a4.927,4.927,0,0,0-6.975,0,.616.616,0,0,0,.872.872,3.7,3.7,0,1,1,2.045,6.274.617.617,0,1,0-.19,1.219,4.935,4.935,0,0,0,4.249-8.366Z" transform="translate(-276.017 -267.791)" fill="#fff" stroke="#fff" stroke-width="1"/></g><g transform="translate(28.363 72.414)"><path d="M205.448,403.71H184.485a.616.616,0,0,0-.617.617v8.632a.616.616,0,0,0,.181.436l2.466,2.466a.616.616,0,0,0,.436.181h16.031a.616.616,0,0,0,.436-.181l2.466-2.466a.617.617,0,0,0,.181-.436v-8.632A.617.617,0,0,0,205.448,403.71Zm-.617,8.993-2.1,2.105h-15.52L185.1,412.7v-7.76h19.73Z" transform="translate(-183.868 -403.71)" fill="#fff" stroke="#fff" stroke-width="1"/></g><g transform="translate(27.13 74.88)"><g transform="translate(0 0)"><path d="M199.888,419.7,176.46,420.93a.617.617,0,0,0,.033,1.233h.033l23.428-1.233a.617.617,0,0,0-.065-1.233Z" transform="translate(-175.876 -419.697)" fill="#fff" stroke="#fff" stroke-width="1"/></g></g><g transform="translate(27.13 78.579)"><g transform="translate(0 0)"><path d="M199.888,443.677,176.46,444.91a.617.617,0,0,0,.033,1.233h.033l23.428-1.233a.617.617,0,0,0-.065-1.233Z" transform="translate(-175.876 -443.676)" fill="#fff" stroke="#fff" stroke-width="1"/></g></g><g transform="translate(18.497 30.487)"><path d="M140.878,131.9a20.947,20.947,0,0,0-11.1,38.722v3.822a.616.616,0,0,0,.617.617h20.963a.617.617,0,0,0,.617-.617v-3.822a20.947,20.947,0,0,0-11.1-38.722Zm10.163,37.85a.614.614,0,0,0-.3.528v3.55h-19.73v-3.55a.614.614,0,0,0-.3-.528,19.73,19.73,0,1,1,20.327,0Z" transform="translate(-119.914 -131.904)" fill="#fff" stroke="#fff" stroke-width="1"/></g><g transform="translate(33.295 83.514)"><path d="M227.839,475.733a.62.62,0,0,0-.828.265c-.046.088-1.163,2.132-5,2.132s-4.952-2.038-5-2.13a.617.617,0,0,0-1.1.556c.058.114,1.457,2.807,6.1,2.807s6.042-2.693,6.1-2.807A.615.615,0,0,0,227.839,475.733Z" transform="translate(-215.846 -475.663)" fill="#fff" stroke="#fff" stroke-width="1"/></g><g transform="translate(0 50.834)"><path d="M12.948,263.809H.617a.617.617,0,0,0,0,1.233H12.948a.617.617,0,1,0,0-1.233Z" transform="translate(0 -263.809)" fill="#fff" stroke="#fff" stroke-width="1"/></g><g transform="translate(65.357 50.834)"><path d="M436.641,263.809H424.31a.617.617,0,0,0,0,1.233h12.332a.617.617,0,1,0,0-1.233Z" transform="translate(-423.693 -263.809)" fill="#fff" stroke="#fff" stroke-width="1"/></g><g transform="translate(5.203 64.09)"><path d="M45.564,350.054a.616.616,0,0,0-.842-.226l-10.682,6.166a.617.617,0,0,0,.617,1.069L45.339,350.9A.617.617,0,0,0,45.564,350.054Z" transform="translate(-33.732 -349.746)" fill="#fff" stroke="#fff" stroke-width="1"/></g><g transform="translate(61.806 31.411)"><path d="M412.5,138.207a.614.614,0,0,0-.841-.226l-10.677,6.166a.616.616,0,0,0,.308,1.151.623.623,0,0,0,.308-.083l10.677-6.166A.617.617,0,0,0,412.5,138.207Z" transform="translate(-400.669 -137.899)" fill="#fff" stroke="#fff" stroke-width="1"/></g><g transform="translate(52.102 17.193)"><g transform="translate(0 0)"><path d="M344.851,45.808a.614.614,0,0,0-.843.226l-6.164,10.679a.616.616,0,1,0,1.067.617l6.163-10.679A.616.616,0,0,0,344.851,45.808Z" transform="translate(-337.761 -45.724)" fill="#fff" stroke="#fff" stroke-width="1"/></g></g><g transform="translate(38.846 11.989)"><g transform="translate(0 0)"><path d="M253.06,12.606a.617.617,0,0,0-1.233,0V24.935a.617.617,0,0,0,1.233,0Z" transform="translate(-251.827 -11.989)" fill="#fff" stroke="#fff" stroke-width="1"/></g></g><g transform="translate(19.425 17.193)"><path d="M133.241,56.714l-6.166-10.677a.616.616,0,1,0-1.067.617l6.166,10.677a.616.616,0,1,0,1.067-.617Z" transform="translate(-125.925 -45.728)" fill="#fff" stroke="#fff" stroke-width="1"/></g><g transform="translate(61.806 64.088)"><path d="M412.276,355.979,401.6,349.813a.617.617,0,1,0-.617,1.069l10.679,6.166a.617.617,0,0,0,.617-1.069Z" transform="translate(-400.67 -349.731)" fill="#fff" stroke="#fff" stroke-width="1"/></g><g transform="translate(5.207 31.409)"><path d="M45.359,144.132l-10.678-6.163a.617.617,0,0,0-.617,1.068L44.743,145.2a.617.617,0,0,0,.617-1.068Z" transform="translate(-33.756 -137.887)" fill="#fff" stroke="#fff" stroke-width="1"/></g><g transform="translate(38.847 40.354)"><g transform="translate(0 0)"><path d="M252.452,195.874a.616.616,0,0,0-.617.617v19.16a.617.617,0,0,0,1.233,0v-19.16A.616.616,0,0,0,252.452,195.874Z" transform="translate(-251.835 -195.874)" fill="#fff" stroke="#fff" stroke-width="1"/></g></g><g transform="translate(38.847 53.917)"><path d="M254.3,285.029a1.672,1.672,0,0,1-1.3-.895.616.616,0,0,0-1.1.553,2.881,2.881,0,0,0,2.4,1.575.617.617,0,1,0,0-1.233Z" transform="translate(-251.837 -283.795)" fill="#fff" stroke="#fff" stroke-width="1"/></g><g transform="translate(36.994 53.919)"><path d="M242.56,283.875a.622.622,0,0,0-.827.271,1.675,1.675,0,0,1-1.3.895.617.617,0,1,0,0,1.233,2.88,2.88,0,0,0,2.4-1.575A.615.615,0,0,0,242.56,283.875Z" transform="translate(-239.82 -283.81)" fill="#fff" stroke="#fff" stroke-width="1"/></g><g transform="translate(38.847 45.285)"><g transform="translate(0 0)"><path d="M255.532,230.3c-2.361,0-2.46-1.665-2.463-1.855a.617.617,0,0,0-1.233.005c0,1.066.772,3.083,3.7,3.083a.617.617,0,1,0,0-1.233Z" transform="translate(-251.835 -227.835)" fill="#fff" stroke="#fff" stroke-width="1"/></g></g><g transform="translate(35.761 45.286)"><g transform="translate(0 0)"><path d="M235.528,227.846a.6.6,0,0,0-.623.608c0,.19-.1,1.855-2.463,1.855a.617.617,0,0,0,0,1.233c2.924,0,3.7-2.017,3.7-3.083A.614.614,0,0,0,235.528,227.846Z" transform="translate(-231.826 -227.844)" fill="#fff" stroke="#fff" stroke-width="1"/></g></g></g></svg>