<svg xmlns="http://www.w3.org/2000/svg" width="110.476" height="99.859" viewBox="0 0 110.476 99.859">
  <g id="Group_4016" data-name="Group 4016" transform="translate(-241.574 -1534.199)">
    <g id="btc" transform="translate(241.574 1534.199)" opacity="0.26">
      <ellipse id="Oval" cx="48.689" cy="48.99" rx="48.689" ry="48.99" transform="translate(0 0)" fill="#21bdca"/>
    </g>
    <g id="_01" data-name="01" transform="translate(266.703 1549.808)">
      <path id="Path_18885" data-name="Path 18885" d="M49.485,21.532a8.8,8.8,0,1,0-8.8-8.8A8.8,8.8,0,0,0,49.485,21.532Z" transform="translate(17.347 0)" fill="none" stroke="#25373f" stroke-linecap="round" stroke-linejoin="round" stroke-miterlimit="10" stroke-width="3"/>
      <path id="Path_18886" data-name="Path 18886" d="M38.51,15.75l-15.487,18.3a7.82,7.82,0,0,0,2.029,11.8l13.546,7.9a1.955,1.955,0,0,1,.587,2.839L24.825,76.354" transform="translate(7.795 5.782)" fill="none" stroke="#25373f" stroke-linecap="round" stroke-linejoin="round" stroke-miterlimit="10" stroke-width="3"/>
      <path id="Path_18887" data-name="Path 18887" d="M13.125,23.444l7.038-10.557a1.955,1.955,0,0,1,2.15-.8L42.45,17.579l15.64,11.73,8.993,16.178a1.955,1.955,0,0,0,2.326.905l10.185-3.4" transform="translate(3.855 3.954)" fill="none" stroke="#25373f" stroke-linecap="round" stroke-linejoin="round" stroke-miterlimit="10" stroke-width="3"/>
      <path id="Path_18888" data-name="Path 18888" d="M47.81,23.625,34.125,39.814" transform="translate(14.135 9.637)" fill="none" stroke="#25373f" stroke-linecap="round" stroke-linejoin="round" stroke-miterlimit="10" stroke-width="3"/>
      <path id="Path_18889" data-name="Path 18889" d="M24.8,40.687,5.25,64.147" transform="translate(0 17.989)" fill="none" stroke="#25373f" stroke-linecap="round" stroke-linejoin="round" stroke-miterlimit="10" stroke-width="3"/>
    </g>
  </g>
</svg>
