<svg xmlns="http://www.w3.org/2000/svg" width="56.475" height="45.544" viewBox="0 0 56.475 45.544">
  <g id="Automation" transform="translate(-8 456)">
    <path id="Path_221" data-name="Path 221" d="M8.285-455.715,8-455.442v7.993l.285.273.273.285h7.993l.273-.285c.273-.262.285-.33.285-1.822v-1.537h1.822v16.4H17.109v-1.537c0-1.492-.011-1.56-.285-1.822l-.273-.285H8.558l-.273.285L8-437.225v7.993l.285.273.273.285h7.993l.273-.285c.273-.262.285-.33.285-1.822v-1.537h1.822v16.4H17.109v-1.537c0-1.492-.011-1.56-.285-1.822l-.273-.285H8.558l-.273.285L8-419.007v7.993l.285.273.273.285h7.993l.273-.285c.273-.262.285-.33.285-1.822V-414.1h1.537c1.492,0,1.56-.011,1.822-.285l.285-.273v-17.66h.911v.626c0,.945.228,1.127,1.662,1.3.615.08,1.207.159,1.309.194s.262.342.376.706a11.752,11.752,0,0,0,.6,1.423L26-427.3l-.808,1.059c-1.15,1.514-1.161,1.446.717,3.336s1.822,1.867,3.336.717l1.059-.808.774.387a11.754,11.754,0,0,0,1.423.6c.364.114.683.285.706.376s.114.695.194,1.309c.2,1.708.125,1.662,2.835,1.662s2.63.046,2.835-1.662c.08-.615.159-1.207.194-1.309s.342-.262.706-.376a11.754,11.754,0,0,0,1.423-.6l.786-.387,1.048.8c1.514,1.161,1.446,1.173,3.336-.706s1.867-1.822.706-3.336l-.8-1.047.387-.786a11.753,11.753,0,0,0,.6-1.423c.114-.364.285-.683.376-.706s.695-.114,1.309-.194c1.435-.171,1.662-.353,1.662-1.3v-.626h.911v17.66l.285.273c.262.273.33.285,1.822.285h1.537v1.537c0,1.492.011,1.56.285,1.822l.273.285h7.993l.273-.285.285-.273v-7.993l-.285-.273-.273-.285H55.924l-.273.285c-.273.262-.285.33-.285,1.822v1.537H53.544v-16.4h1.822v1.537c0,1.492.011,1.56.285,1.822l.273.285h7.993l.273-.285.285-.273v-7.993l-.285-.273-.273-.285H55.924l-.273.285c-.273.262-.285.33-.285,1.822v1.537H53.544v-16.4h1.822V-449c0,1.492.011,1.56.285,1.822l.273.285h7.993l.273-.285.285-.273v-7.993l-.285-.273L63.917-456H55.924l-.273.285c-.273.262-.285.33-.285,1.822v1.537H53.829c-1.492,0-1.56.011-1.822.285l-.285.273v17.66h-.911v-.626c0-.945-.228-1.127-1.662-1.3-.615-.08-1.207-.159-1.309-.194s-.262-.342-.376-.706a11.753,11.753,0,0,0-.6-1.423l-.387-.786.8-1.048c1.161-1.514,1.173-1.446-.706-3.336s-1.822-1.867-3.336-.706l-1.048.8-.786-.387a11.754,11.754,0,0,0-1.423-.6c-.364-.114-.683-.285-.706-.376s-.114-.695-.194-1.309c-.2-1.708-.125-1.662-2.835-1.662s-2.63-.046-2.835,1.662c-.08.615-.159,1.207-.194,1.309s-.342.262-.706.376a11.754,11.754,0,0,0-1.423.6l-.774.387-1.059-.808c-1.514-1.15-1.446-1.161-3.336.717s-1.867,1.822-.706,3.336l.8,1.048-.387.786a11.752,11.752,0,0,0-.6,1.423c-.114.364-.285.683-.376.706s-.695.114-1.309.194c-1.435.171-1.662.353-1.662,1.3v.626h-.911V-451.8l-.285-.273c-.262-.273-.33-.285-1.822-.285H17.109v-1.537c0-1.492-.011-1.56-.285-1.822L16.551-456H8.558Zm7,4.27v2.733H9.822v-5.465h5.465Zm47.366,0v2.733H57.188v-5.465h5.465ZM37.262-445.9c0,.057.08.6.171,1.218a3.1,3.1,0,0,0,.364,1.344,3.309,3.309,0,0,0,1.048.433,12.878,12.878,0,0,1,2.744,1.2,2.212,2.212,0,0,0,.706.285,5.011,5.011,0,0,0,1.173-.74,9.773,9.773,0,0,1,1.059-.74,9.352,9.352,0,0,1,1.389,1.378,9.324,9.324,0,0,1-.74,1.07,5.012,5.012,0,0,0-.74,1.173,2.211,2.211,0,0,0,.285.706,14.078,14.078,0,0,1,1.207,2.778,3.055,3.055,0,0,0,.421,1.013,3.1,3.1,0,0,0,1.344.364c.615.091,1.161.171,1.218.171a3.29,3.29,0,0,1,.08,1.025,3.348,3.348,0,0,1-.08,1.025c-.057,0-.6.08-1.218.171a3.1,3.1,0,0,0-1.344.364,3.056,3.056,0,0,0-.421,1.013,14.078,14.078,0,0,1-1.207,2.778,2.211,2.211,0,0,0-.285.706,5.011,5.011,0,0,0,.74,1.173,9.331,9.331,0,0,1,.74,1.07,9.348,9.348,0,0,1-1.389,1.378,9.773,9.773,0,0,1-1.059-.74,5.011,5.011,0,0,0-1.173-.74,2.212,2.212,0,0,0-.706.285,14.079,14.079,0,0,1-2.778,1.207,3.055,3.055,0,0,0-1.013.421,3.1,3.1,0,0,0-.364,1.344c-.091.615-.171,1.161-.171,1.207a2.768,2.768,0,0,1-1.025.091,2.816,2.816,0,0,1-1.025-.091c0-.046-.08-.592-.171-1.207a3.1,3.1,0,0,0-.364-1.344,3.055,3.055,0,0,0-1.013-.421,14.079,14.079,0,0,1-2.778-1.207,2.212,2.212,0,0,0-.706-.285,5.011,5.011,0,0,0-1.173.74,9.774,9.774,0,0,1-1.059.74,9.348,9.348,0,0,1-1.389-1.378A9.332,9.332,0,0,1,27.3-426a5.011,5.011,0,0,0,.74-1.173,2.211,2.211,0,0,0-.285-.706,14.078,14.078,0,0,1-1.207-2.778c-.3-1.1-.421-1.2-1.765-1.389-.615-.08-1.161-.159-1.207-.159a2.817,2.817,0,0,1-.091-1.025,2.769,2.769,0,0,1,.091-1.025c.046,0,.592-.08,1.207-.159a2.816,2.816,0,0,0,1.332-.376,3.016,3.016,0,0,0,.444-1.047,12.881,12.881,0,0,1,1.2-2.744,2.211,2.211,0,0,0,.285-.706,5.012,5.012,0,0,0-.74-1.173,9.325,9.325,0,0,1-.74-1.07,9.352,9.352,0,0,1,1.389-1.378,9.774,9.774,0,0,1,1.059.74,5.011,5.011,0,0,0,1.173.74,2.212,2.212,0,0,0,.706-.285,14.078,14.078,0,0,1,2.778-1.207,3.056,3.056,0,0,0,1.013-.421,3.1,3.1,0,0,0,.364-1.344c.091-.615.171-1.161.171-1.218a3.348,3.348,0,0,1,1.025-.08A3.289,3.289,0,0,1,37.262-445.9ZM15.287-433.228v2.733H9.822v-5.465h5.465Zm47.366,0v2.733H57.188v-5.465h5.465ZM15.287-415.01v2.733H9.822v-5.465h5.465Zm47.366,0v2.733H57.188v-5.465h5.465Z" fill="#fff"/>
    <path id="Path_222" data-name="Path 222" d="M191.384-327.511a7.945,7.945,0,0,0-4.315,2.334,7.838,7.838,0,0,0-2.072,3.3,6.138,6.138,0,0,0-.3,2.448,6.138,6.138,0,0,0,.3,2.448,7.838,7.838,0,0,0,2.072,3.3,7.839,7.839,0,0,0,3.3,2.072,6.138,6.138,0,0,0,2.448.3,6.138,6.138,0,0,0,2.448-.3,7.838,7.838,0,0,0,3.3-2.072,7.838,7.838,0,0,0,2.072-3.3,6.138,6.138,0,0,0,.3-2.448,6.138,6.138,0,0,0-.3-2.448,7.838,7.838,0,0,0-2.072-3.3,7.48,7.48,0,0,0-5.408-2.391A11.4,11.4,0,0,0,191.384-327.511Zm2.642,1.833a6.644,6.644,0,0,1,3.279,1.765,6.319,6.319,0,0,1-.011,8.983,6.3,6.3,0,0,1-8.972-.034,6.317,6.317,0,0,1,1.685-10.145A6.086,6.086,0,0,1,194.025-325.678Z" transform="translate(-156.581 -113.801)" fill="#fff"/>
  </g>
</svg>
