<svg xmlns="http://www.w3.org/2000/svg" width="107" height="107" viewBox="0 0 107 107">
  <g id="wallet" transform="translate(-1213 -2467)">
    <g id="Artboard" transform="translate(1213 2467)">
      <g id="Group-13">
        <circle id="Oval" cx="53.5" cy="53.5" r="53.5" fill="#fff"/>
      </g>
    </g>
    <g id="wallet-1605-1158980" transform="translate(1226.1 2605)">
      <path id="Path_24347" data-name="Path 24347" d="M11.579-108.377c-2.239,2.239-2.239,4.982,0,7.445L13.2-99.084l23.287.168,23.287.168v-4.982c0-3.079-.224-5.15-.672-5.6-.5-.5-6.437-.672-23.287-.672H13.2Zm41.984,2.8a1.222,1.222,0,0,1,.448,1.4c-.336.784-2.407.9-19.089.9-12.483,0-18.865-.224-19.089-.56a1.721,1.721,0,0,1-.056-1.4c.28-.728,3.135-.84,18.641-.84C44.495-106.082,53.115-105.858,53.563-105.578Z" fill="#21bdca"/>
      <path id="Path_24348" data-name="Path 24348" d="M10-70.607v18.193l1.589,1.623,1.589,1.623H65.89v-9.516H61.014c-4.11,0-5.1-.168-6.685-1.288-2.575-1.735-3.233-3.415-3.233-8.117,0-7.277,1.918-9.18,9.589-9.46l4.931-.112.164-4.534.164-4.478H40.027c-24.384,0-26.082-.056-28-1.064L10-88.8Z" transform="translate(-0.044 -10.333)" fill="#21bdca"/>
      <path id="Path_24349" data-name="Path 24349" d="M97.109-63.188c-6.717.336-7.109.672-7.109,6.27,0,3.359.168,4.03,1.4,5.206,1.287,1.343,1.623,1.4,8.677,1.4h7.333l-.168-6.549-.168-6.493-2.239-.056C103.6-63.467,100.132-63.355,97.109-63.188Zm-.392,6.1c0,1.847-.28,3.527-.56,3.695-1.176.728-2.239-.952-2.239-3.639,0-2.855.224-3.359,1.791-3.359C96.549-60.389,96.717-59.941,96.717-57.086Z" transform="translate(-36.47 -21.182)" fill="#21bdca"/>
    </g>
  </g>
</svg>
