<svg xmlns="http://www.w3.org/2000/svg" width="107" height="107" viewBox="0 0 107 107">
  <g id="sec" transform="translate(-534 -4538.001)">
    <g id="Artboard" transform="translate(529 4532.68)">
      <g id="Group-13" transform="translate(112.321 112.321) rotate(180)">
        <circle id="Oval" cx="53.5" cy="53.5" r="53.5" transform="translate(0.321)" fill="#fff"/>
      </g>
    </g>
    <g id="secure" transform="translate(537.051 5078.901)">
      <path id="Path_24344" data-name="Path 24344" d="M39.749-509.085c-5.532,1.549-10.187,2.863-10.353,2.932a1.728,1.728,0,0,0-.847,1.11c-.127.5-.37,3.009-.5,5.259s-.136,7.265,0,9.2c.487,6.944,1.919,12.174,4.324,15.778a32.242,32.242,0,0,0,11.307,10.2c2.221,1.208,5.639,2.561,6.477,2.561a21.008,21.008,0,0,0,4.626-1.626A32.594,32.594,0,0,0,67.944-474.8c2.406-3.6,3.837-8.833,4.324-15.778a89.845,89.845,0,0,0-.253-12.515c-.2-2.191-.37-2.688-.993-3.009-.409-.214-20.6-5.8-20.92-5.795C49.946-511.9,45.291-510.634,39.749-509.085Zm20.969,11.307a4.233,4.233,0,0,1,1.393,1.091,13.445,13.445,0,0,1,1.217,1.305,1.834,1.834,0,0,1,.049,1.549c-.224.419-14.19,14.326-14.511,14.453a1.827,1.827,0,0,1-1.266-.039c-.4-.175-9.174-8.97-9.311-9.34-.3-.789-.019-1.393,1.237-2.63,1.286-1.256,1.821-1.471,2.688-1.042a32.631,32.631,0,0,1,3.224,3.019l2.824,2.824,5.551-5.542C59.948-498.255,59.7-498.061,60.718-497.778Z" transform="translate(0 0)" fill="#21bdca"/>
    </g>
  </g>
</svg>
