<svg xmlns="http://www.w3.org/2000/svg" width="107" height="107" viewBox="0 0 107 107">
  <g id="dApps" transform="translate(-1213 -2634)">
    <g id="Artboard" transform="translate(1213 2634)">
      <g id="Group-13">
        <circle id="Oval" cx="53.5" cy="53.5" r="53.5" fill="#fff"/>
      </g>
    </g>
    <g id="blockchain-application-4091735-3407875" transform="translate(1239 2790.719)">
      <path id="Path_24350" data-name="Path 24350" d="M7.791-127.435a6.364,6.364,0,0,0-1.9,1.066C4-124.631,4-124.829,4-102.752,4-79.845,4-79.964,6.449-78.463c1.264.79,1.817.79,12.875.711l11.611-.118,1.343-1.461a3.941,3.941,0,0,0,1.343-3.4v-1.935l2.646-.474A18.39,18.39,0,0,0,51.076-100.3c1.54-9.4-5.213-18.68-15.047-20.5-2.37-.434-2.409-.474-2.409-1.777a5.242,5.242,0,0,0-2.251-4.3c-1.027-.671-2.014-.75-11.769-.829A115.5,115.5,0,0,0,7.791-127.435Zm15.758,5.529c0,.474-.829.632-4.621.711-4.463.118-4.66.079-4.66-.711s.2-.829,4.66-.711C22.72-122.538,23.549-122.38,23.549-121.906Zm15.6,3.515A17.019,17.019,0,0,1,48.9-108.083a18.474,18.474,0,0,1-.237,10.663A17.009,17.009,0,0,1,38.4-87.547a16.446,16.446,0,0,1-21.485-13.23c-1.343-7.859,4.344-16.35,12.243-18.365A22.116,22.116,0,0,1,39.149-118.391ZM21.417-86.4a3.364,3.364,0,0,1-1.9,5.806c-1.066.2-1.461.039-2.488-.948-1.58-1.619-1.619-3.278-.039-4.858a3.753,3.753,0,0,1,2.212-1.145A3.753,3.753,0,0,1,21.417-86.4Z" fill="#21bdca"/>
      <path id="Path_24351" data-name="Path 24351" d="M62.384-93.222a4.365,4.365,0,0,0-.434,1.777c0,.908-.158,1.027-1.343,1.027-1.264,0-2.607.79-2.607,1.58,0,.75,1.185,1.461,2.133,1.3l1.027-.2v9.557H60.014c-1.5,0-2.212.869-1.619,1.935.316.632.829.829,1.975.829,1.461,0,1.58.079,1.58,1.145,0,2.291,2.765,2.844,3.159.632.158-.829.434-1.224,1.106-1.3.711-.118.869.039.869.829,0,2.133,2.8,2.567,3.159.553.158-.908.513-1.264,1.7-1.659,2.449-.829,3.436-2.014,3.436-4.028a3.157,3.157,0,0,0-.987-2.686,2.991,2.991,0,0,0-1.58-.987c-.434,0-.2-.434.75-1.343,1.54-1.422,1.738-2.409.829-4.147a5.852,5.852,0,0,0-3.673-2.409c-.237,0-.474-.553-.553-1.224a2.642,2.642,0,0,0-.79-1.7c-1.027-.632-2.054.158-2.212,1.7-.118.987-.316,1.224-1.066,1.224-.79,0-.948-.237-1.066-1.5s-.276-1.461-1.185-1.58A1.279,1.279,0,0,0,62.384-93.222Zm7.583,6.437c.75,1.145-.355,1.9-2.725,1.9H65.109v-2.8l2.212.118C68.9-87.495,69.69-87.258,69.967-86.784Zm.158,6.477c.434.592.434.829-.039,1.5-.395.632-1.027.869-2.765.948l-2.212.118v-1.54a4.858,4.858,0,0,1,.237-1.777C65.9-81.571,69.611-81.018,70.125-80.307Z" transform="translate(-32.673 -20.43)" fill="#21bdca"/>
    </g>
  </g>
</svg>
