<svg xmlns="http://www.w3.org/2000/svg" width="66.87" height="66.86" viewBox="0 0 66.87 66.86">
  <g id="start-up" transform="translate(-0.102 511.711)">
    <path id="Path_829" data-name="Path 829" d="M52.619-511.553a41.64,41.64,0,0,0-17.288,6.063,45.382,45.382,0,0,0-5.645,4.234l-.915.836-2.025.091A28.236,28.236,0,0,0,14.8-497.349c-3.162,1.581-4.73,2.783-8.415,6.429-3.071,3.045-3.293,3.345-3.11,4.286.2,1.032.235,1.058,5.619,3.75a42.351,42.351,0,0,1,5,2.666c-.039.091-.431.928-.862,1.882-2.156,4.678-2.64,6.246-2.182,7.082.157.3.144.34-.235.653A28.469,28.469,0,0,0,1-455.913a23.054,23.054,0,0,0-.876,6.743c-.078,3.306-.026,3.541.836,4.077.431.261.575.274,3.411.209a25.421,25.421,0,0,0,9.617-1.79,29.209,29.209,0,0,0,11.538-8.311c.627-.758.666-.8.967-.627.836.457,2.417-.026,7.226-2.248,1.006-.457,1.842-.823,1.856-.8s1.163,2.274,2.535,5.018c2.7,5.371,2.744,5.436,3.842,5.619.889.144,1.2-.091,4.221-3.136,3.567-3.594,4.861-5.292,6.429-8.428A28.065,28.065,0,0,0,55.572-471.5l.078-2.025.549-.588a41.636,41.636,0,0,0,10.062-19.941,36.362,36.362,0,0,0,.693-8.938c-.091-4.613-.431-6.886-1.124-7.592-.418-.405-.836-.536-2.757-.849A64.755,64.755,0,0,0,52.619-511.553Zm8.494,4c.823.078,1.516.157,1.529.157s.078.666.157,1.45a49.284,49.284,0,0,1-.052,8.1,39.925,39.925,0,0,1-.8,4.534c-.052.209-.144.2-1.176-.026a16.3,16.3,0,0,1-12.192-12.192c-.222-1.032-.235-1.124-.026-1.176.118-.039.8-.183,1.516-.327A36.809,36.809,0,0,1,61.112-507.554Zm-16.491,2.992a21.931,21.931,0,0,0,3.045,6.952,25.028,25.028,0,0,0,5.188,5.188,22,22,0,0,0,6.965,3.045c.771.157.784.17.719.523a34.781,34.781,0,0,1-2.457,5.227,35.07,35.07,0,0,1-6.494,8.337,68.41,68.41,0,0,1-17.2,12.545c-1.842.967-4.874,2.352-5.985,2.757l-.5.17-2.47-2.47-2.483-2.483,4.887-4.9c2.692-2.692,4.992-5.1,5.109-5.344a2.265,2.265,0,0,0-.17-2.065,2.08,2.08,0,0,0-2.548-.614c-.235.118-2.627,2.4-5.318,5.1l-4.9,4.887-2.483-2.483-2.47-2.47.17-.5c.405-1.111,1.79-4.142,2.757-5.985a68.409,68.409,0,0,1,12.545-17.2,36.338,36.338,0,0,1,9.212-6.991,31.238,31.238,0,0,1,4.508-2.012C44.4-505.346,44.517-505.111,44.621-504.562ZM24.38-495.82c-.1.131-.6.732-1.111,1.333a77.446,77.446,0,0,0-6.377,8.938c-.353.575-.706,1.176-.81,1.333l-.183.3-3.593-1.79-3.593-1.8,1.281-1.281a24.143,24.143,0,0,1,9.8-6.233,22.515,22.515,0,0,1,4.391-1.032C24.524-496.068,24.537-496.042,24.38-495.82Zm26.67,28.382a25.974,25.974,0,0,1-3.45,8.415,29.338,29.338,0,0,1-3.763,4.469l-1.085,1.085-1.8-3.594c-1.79-3.58-1.79-3.593-1.49-3.763.157-.1.758-.47,1.333-.81a76.977,76.977,0,0,0,9.866-7.174c.536-.483.588-.51.627-.261A8.642,8.642,0,0,1,51.05-467.438Zm-35.477,1.032,1.555,1.568-2.234,2.261c-2.4,2.417-2.522,2.613-2.339,3.724a2,2,0,0,0,2.862,1.385,27.182,27.182,0,0,0,2.548-2.313l2.117-2.117,1.594,1.594,1.581,1.581-.444.562a24.63,24.63,0,0,1-11.486,8.1,23.083,23.083,0,0,1-5.8,1.124l-1.424.078.078-1.424a24.245,24.245,0,0,1,9.173-17.262,4.855,4.855,0,0,1,.588-.431C13.979-467.974,14.711-467.268,15.573-466.405Z" transform="translate(0)" fill="#16becf"/>
    <path id="Path_830" data-name="Path 830" d="M256.834-380.451a8.683,8.683,0,0,0-6.547,6.534,9.827,9.827,0,0,0,.209,4.5,8.749,8.749,0,0,0,5.488,5.488,9.827,9.827,0,0,0,4.5.209,8.739,8.739,0,0,0,5.8-4.521,8.614,8.614,0,0,0,.889-4.4,8.447,8.447,0,0,0-8.18-7.945A7.884,7.884,0,0,0,256.834-380.451Zm3.711,4.325a4.768,4.768,0,0,1,2.182,2.208,3.176,3.176,0,0,1,.379,1.816,3.248,3.248,0,0,1-.431,1.921A4.486,4.486,0,0,1,260.44-368a3.474,3.474,0,0,1-1.842.34,3.205,3.205,0,0,1-1.842-.366,5.345,5.345,0,0,1-2.248-2.287,3.734,3.734,0,0,1-.287-1.79,3.039,3.039,0,0,1,.366-1.856,4.7,4.7,0,0,1,2.953-2.483A4.621,4.621,0,0,1,260.545-376.126Z" transform="translate(-217.348 -113.97)" fill="#16becf"/>
  </g>
</svg>
