<svg xmlns="http://www.w3.org/2000/svg" width="81.666" height="85.349" viewBox="0 0 81.666 85.349"><g transform="translate(-362.117 -1456.84)"><g transform="translate(349.134 1452.84)"><path d="M122.242,47.485A52.193,52.193,0,0,0,142.776,6.008,1.008,1.008,0,0,0,141.767,5a52.049,52.049,0,0,0-32.034,11.019,52.785,52.785,0,0,0-9.418,9.483,5.02,5.02,0,0,1-6.163-.717,7.019,7.019,0,0,0-9.921-.005L74.246,34.62a1.008,1.008,0,0,0,0,1.435l5.777,5.706a9.93,9.93,0,0,0,11.268,1.862l-.01.037a1.008,1.008,0,0,0,.26.976l2.908,2.908-7.114,1.508a1.008,1.008,0,0,0-.5,1.7L90.41,54.33a8.946,8.946,0,0,0-2.6-1.045c-.292-.066-.585-.118-.868-.153a8.974,8.974,0,0,0-1.067-.071,8.851,8.851,0,0,0-6.355,2.613,9.061,9.061,0,0,0-2.707,6.472,1.008,1.008,0,0,0,.983,1.008l.76.019a9.641,9.641,0,0,0-1.722,7.054,1,1,0,0,0,.99.809h2.754a1.008,1.008,0,1,0,0-2.016H78.738a7.7,7.7,0,0,1,2.708-6.045,1.007,1.007,0,0,0-.641-1.761L78.9,61.163A7.068,7.068,0,0,1,80.938,57.1,6.872,6.872,0,0,1,85.8,55.077h.053c.16,0,.321.01.482.022a4.65,4.65,0,0,0-2.255,3.449l-.578,4.671a1.008,1.008,0,0,0,1,1.132,1.024,1.024,0,0,0,.124-.008l4.671-.578a4.666,4.666,0,0,0,3.45-2.263c.014.182.024.365.025.549a6.931,6.931,0,0,1-2.043,4.932,1.008,1.008,0,1,0,1.426,1.426,8.98,8.98,0,0,0,2.563-7.473c-.034-.281-.083-.567-.146-.85a8.953,8.953,0,0,0-1.054-2.645l3.5,3.5a1.008,1.008,0,0,0,1.691-.47l1.718-6.945,2.615,2.615a1.009,1.009,0,0,0,.971.262l.18-.05A9.928,9.928,0,0,0,106,67.742l5.706,5.813a1.045,1.045,0,0,0,.717.336h0a1.045,1.045,0,0,0,.717-.336l9.835-10a7.038,7.038,0,0,0,0-9.935A5.033,5.033,0,0,1,122.242,47.485ZM140.749,7.027a50.1,50.1,0,0,1-1.024,9.124A20.952,20.952,0,0,1,131.6,8.058a49.967,49.967,0,0,1,9.151-1.032ZM81.44,40.327l-5.051-4.988,9.262-9.127a5,5,0,0,1,7.074,0,7.042,7.042,0,0,0,5.625,2.017,52.264,52.264,0,0,0-6.143,12.386A7.9,7.9,0,0,1,81.44,40.327Zm9.846,19.521a2.656,2.656,0,0,1-2.233,1.916l-3.387.42.42-3.386a2.661,2.661,0,1,1,5.2,1.052Zm5.9-1.592-7.616-7.616,6.579-1.395,2.619,2.618Zm6.874-3.95L93.382,43.626q.269-.951.577-1.89l.018-.017-.01-.01A50.644,50.644,0,0,1,125.231,9.825q2.138-.75,4.327-1.3a22.968,22.968,0,0,0,9.7,9.663A50.138,50.138,0,0,1,104.062,54.3Zm17.487,7.813-9.122,9.257-4.988-5.05a7.9,7.9,0,0,1-.173-10.893,51.815,51.815,0,0,0,12.271-6.016,7.044,7.044,0,0,0,2.017,5.624,5.009,5.009,0,0,1-.005,7.079Z" transform="translate(-50.72)" fill="#fff"/><path d="M133.276,384.74a7,7,0,0,1-1.632.188h-1.588a1.008,1.008,0,1,0,0,2.016h1.588a9.014,9.014,0,0,0,2.1-.244,1.008,1.008,0,0,0-.47-1.961Z" transform="translate(-96.563 -315.91)" fill="#fff"/><path d="M390.661,241.938a1,1,0,0,0,.642-.232c.718-.595,1.431-1.218,2.117-1.852a1.008,1.008,0,1,0-1.367-1.482c-.66.609-1.346,1.208-2.037,1.781a1.008,1.008,0,0,0,.644,1.785Z" transform="translate(-313.379 -193.938)" fill="#fff"/><path d="M433.347,102.665a1.008,1.008,0,0,0-1.257.673,49.9,49.9,0,0,1-3.27,8.144c-.483.952-1,1.9-1.549,2.822-.67,1.131-1.393,2.25-2.151,3.327a50.512,50.512,0,0,1-3.913,4.882,1.008,1.008,0,0,0,1.492,1.356,52.554,52.554,0,0,0,4.069-5.078c.788-1.119,1.541-2.283,2.237-3.46.567-.958,1.109-1.945,1.612-2.935a51.944,51.944,0,0,0,3.4-8.473,1.008,1.008,0,0,0-.673-1.257Z" transform="translate(-339.414 -81.219)" fill="#fff"/><path d="M16,236.7a1,1,0,0,0,.713-.3l.772-.772a1.008,1.008,0,1,0-1.426-1.426l-.773.772A1.008,1.008,0,0,0,16,236.7Z" transform="translate(-1.668 -190.452)" fill="#fff"/><path d="M34.341,205.521l3.45-3.45a1.008,1.008,0,0,0-1.426-1.426l-3.45,3.45a1.008,1.008,0,0,0,1.426,1.426Z" transform="translate(-16.338 -162.527)" fill="#fff"/><path d="M24.324,242.58a1.008,1.008,0,0,0,1.426,0l4.055-4.055a1.008,1.008,0,0,0-1.426-1.426l-4.055,4.055A1.008,1.008,0,0,0,24.324,242.58Z" transform="translate(-9.19 -192.854)" fill="#fff"/><path d="M60.97,219.594a1,1,0,0,0,.713-.3l1.5-1.5a1.008,1.008,0,1,0-1.426-1.426l-1.5,1.5a1.008,1.008,0,0,0,.713,1.721Z" transform="translate(-39.086 -175.612)" fill="#fff"/><path d="M17.757,277.085l-4.48,4.479A1.008,1.008,0,1,0,14.7,282.99l4.479-4.479a1.008,1.008,0,1,0-1.426-1.426Z" transform="translate(0 -226.122)" fill="#fff"/><path d="M60.352,232.111a1.008,1.008,0,0,0-1.426,0l-5.248,5.247a1.008,1.008,0,1,0,1.426,1.426l5.248-5.248A1.008,1.008,0,0,0,60.352,232.111Z" transform="translate(-33.612 -188.705)" fill="#fff"/><path d="M207.611,425.759l-.773.772a1.008,1.008,0,0,0,1.426,1.426l.772-.773a1.008,1.008,0,1,0-1.426-1.426Z" transform="translate(-161.037 -349.814)" fill="#fff"/><path d="M227.918,392.2l-3.45,3.45a1.008,1.008,0,1,0,1.426,1.426l3.449-3.45a1.008,1.008,0,1,0-1.426-1.426Z" transform="translate(-175.705 -321.894)" fill="#fff"/><path d="M215.877,434.133a1.008,1.008,0,0,0,1.426,0l4.055-4.055a1.008,1.008,0,1,0-1.426-1.426l-4.055,4.055A1.008,1.008,0,0,0,215.877,434.133Z" transform="translate(-168.557 -352.222)" fill="#fff"/><path d="M251.809,410.855a1.008,1.008,0,0,0,1.426,0l1.5-1.5a1.008,1.008,0,1,0-1.426-1.426l-1.5,1.5A1.008,1.008,0,0,0,251.809,410.855Z" transform="translate(-198.451 -334.982)" fill="#fff"/><path d="M209.31,468.638l-4.479,4.479a1.008,1.008,0,1,0,1.426,1.426l4.479-4.479a1.008,1.008,0,1,0-1.426-1.426Z" transform="translate(-159.367 -385.489)" fill="#fff"/><path d="M250.479,423.663l-5.248,5.248a1.008,1.008,0,1,0,1.426,1.426l5.248-5.248a1.008,1.008,0,1,0-1.426-1.426Z" transform="translate(-192.979 -348.071)" fill="#fff"/><path d="M399.78,331.257a5.651,5.651,0,0,1-3.551-3.562,1.008,1.008,0,0,0-1.913,0,5.651,5.651,0,0,1-3.551,3.562,1.008,1.008,0,0,0,0,1.912,5.651,5.651,0,0,1,3.551,3.562,1.008,1.008,0,0,0,1.913,0,5.651,5.651,0,0,1,3.551-3.562,1.008,1.008,0,0,0,0-1.912Zm-4.508,2.92a7.718,7.718,0,0,0-1.961-1.964,7.718,7.718,0,0,0,1.961-1.964,7.717,7.717,0,0,0,1.961,1.964A7.717,7.717,0,0,0,395.272,334.177Z" transform="translate(-313.732 -267.899)" fill="#fff"/><path d="M18.764,92.169a5.651,5.651,0,0,1,3.551,3.562,1.008,1.008,0,0,0,1.913,0,5.651,5.651,0,0,1,3.551-3.562,1.008,1.008,0,0,0,0-1.912,5.651,5.651,0,0,1-3.551-3.562,1.008,1.008,0,0,0-1.913,0,5.651,5.651,0,0,1-3.551,3.562,1.008,1.008,0,0,0,0,1.912Zm4.508-2.92a7.718,7.718,0,0,0,1.961,1.964,7.718,7.718,0,0,0-1.961,1.964,7.718,7.718,0,0,0-1.961-1.964A7.718,7.718,0,0,0,23.272,89.248Z" transform="translate(-4.237 -67.394)" fill="#fff"/><ellipse cx="1.846" cy="1.848" rx="1.846" ry="1.848" transform="translate(30.301 11.385)" fill="#fff"/><ellipse cx="1.846" cy="1.848" rx="1.846" ry="1.848" transform="translate(76.508 77.083)" fill="#fff"/><path d="M300.271,107.968a7.37,7.37,0,1,0,5.212,12.584h0a7.371,7.371,0,0,0-5.213-12.584Zm3.787,11.158a5.355,5.355,0,1,1,0-7.573A5.355,5.355,0,0,1,304.057,119.126Z" transform="translate(-232.888 -85.667)" fill="#fff"/></g><g transform="translate(349.134 1451.84)"><path d="M122.242,47.485A52.193,52.193,0,0,0,142.776,6.008,1.008,1.008,0,0,0,141.767,5a52.049,52.049,0,0,0-32.034,11.019,52.785,52.785,0,0,0-9.418,9.483,5.02,5.02,0,0,1-6.163-.717,7.019,7.019,0,0,0-9.921-.005L74.246,34.62a1.008,1.008,0,0,0,0,1.435l5.777,5.706a9.93,9.93,0,0,0,11.268,1.862l-.01.037a1.008,1.008,0,0,0,.26.976l2.908,2.908-7.114,1.508a1.008,1.008,0,0,0-.5,1.7L90.41,54.33a8.946,8.946,0,0,0-2.6-1.045c-.292-.066-.585-.118-.868-.153a8.974,8.974,0,0,0-1.067-.071,8.851,8.851,0,0,0-6.355,2.613,9.061,9.061,0,0,0-2.707,6.472,1.008,1.008,0,0,0,.983,1.008l.76.019a9.641,9.641,0,0,0-1.722,7.054,1,1,0,0,0,.99.809h2.754a1.008,1.008,0,1,0,0-2.016H78.738a7.7,7.7,0,0,1,2.708-6.045,1.007,1.007,0,0,0-.641-1.761L78.9,61.163A7.068,7.068,0,0,1,80.938,57.1,6.872,6.872,0,0,1,85.8,55.077h.053c.16,0,.321.01.482.022a4.65,4.65,0,0,0-2.255,3.449l-.578,4.671a1.008,1.008,0,0,0,1,1.132,1.024,1.024,0,0,0,.124-.008l4.671-.578a4.666,4.666,0,0,0,3.45-2.263c.014.182.024.365.025.549a6.931,6.931,0,0,1-2.043,4.932,1.008,1.008,0,1,0,1.426,1.426,8.98,8.98,0,0,0,2.563-7.473c-.034-.281-.083-.567-.146-.85a8.953,8.953,0,0,0-1.054-2.645l3.5,3.5a1.008,1.008,0,0,0,1.691-.47l1.718-6.945,2.615,2.615a1.009,1.009,0,0,0,.971.262l.18-.05A9.928,9.928,0,0,0,106,67.742l5.706,5.813a1.045,1.045,0,0,0,.717.336h0a1.045,1.045,0,0,0,.717-.336l9.835-10a7.038,7.038,0,0,0,0-9.935A5.033,5.033,0,0,1,122.242,47.485ZM140.749,7.027a50.1,50.1,0,0,1-1.024,9.124A20.952,20.952,0,0,1,131.6,8.058a49.967,49.967,0,0,1,9.151-1.032ZM81.44,40.327l-5.051-4.988,9.262-9.127a5,5,0,0,1,7.074,0,7.042,7.042,0,0,0,5.625,2.017,52.264,52.264,0,0,0-6.143,12.386A7.9,7.9,0,0,1,81.44,40.327Zm9.846,19.521a2.656,2.656,0,0,1-2.233,1.916l-3.387.42.42-3.386a2.661,2.661,0,1,1,5.2,1.052Zm5.9-1.592-7.616-7.616,6.579-1.395,2.619,2.618Zm6.874-3.95L93.382,43.626q.269-.951.577-1.89l.018-.017-.01-.01A50.644,50.644,0,0,1,125.231,9.825q2.138-.75,4.327-1.3a22.968,22.968,0,0,0,9.7,9.663A50.138,50.138,0,0,1,104.062,54.3Zm17.487,7.813-9.122,9.257-4.988-5.05a7.9,7.9,0,0,1-.173-10.893,51.815,51.815,0,0,0,12.271-6.016,7.044,7.044,0,0,0,2.017,5.624,5.009,5.009,0,0,1-.005,7.079Z" transform="translate(-50.72)" fill="#fff"/><path d="M133.276,384.74a7,7,0,0,1-1.632.188h-1.588a1.008,1.008,0,1,0,0,2.016h1.588a9.014,9.014,0,0,0,2.1-.244,1.008,1.008,0,0,0-.47-1.961Z" transform="translate(-96.563 -315.91)" fill="#fff"/><path d="M390.661,241.938a1,1,0,0,0,.642-.232c.718-.595,1.431-1.218,2.117-1.852a1.008,1.008,0,1,0-1.367-1.482c-.66.609-1.346,1.208-2.037,1.781a1.008,1.008,0,0,0,.644,1.785Z" transform="translate(-313.379 -193.938)" fill="#fff"/><path d="M433.347,102.665a1.008,1.008,0,0,0-1.257.673,49.9,49.9,0,0,1-3.27,8.144c-.483.952-1,1.9-1.549,2.822-.67,1.131-1.393,2.25-2.151,3.327a50.512,50.512,0,0,1-3.913,4.882,1.008,1.008,0,0,0,1.492,1.356,52.554,52.554,0,0,0,4.069-5.078c.788-1.119,1.541-2.283,2.237-3.46.567-.958,1.109-1.945,1.612-2.935a51.944,51.944,0,0,0,3.4-8.473,1.008,1.008,0,0,0-.673-1.257Z" transform="translate(-339.414 -81.219)" fill="#fff"/><path d="M16,236.7a1,1,0,0,0,.713-.3l.772-.772a1.008,1.008,0,1,0-1.426-1.426l-.773.772A1.008,1.008,0,0,0,16,236.7Z" transform="translate(-1.668 -190.452)" fill="#fff"/><path d="M34.341,205.521l3.45-3.45a1.008,1.008,0,0,0-1.426-1.426l-3.45,3.45a1.008,1.008,0,0,0,1.426,1.426Z" transform="translate(-16.338 -162.527)" fill="#fff"/><path d="M24.324,242.58a1.008,1.008,0,0,0,1.426,0l4.055-4.055a1.008,1.008,0,0,0-1.426-1.426l-4.055,4.055A1.008,1.008,0,0,0,24.324,242.58Z" transform="translate(-9.19 -192.854)" fill="#fff"/><path d="M60.97,219.594a1,1,0,0,0,.713-.3l1.5-1.5a1.008,1.008,0,1,0-1.426-1.426l-1.5,1.5a1.008,1.008,0,0,0,.713,1.721Z" transform="translate(-39.086 -175.612)" fill="#fff"/><path d="M17.757,277.085l-4.48,4.479A1.008,1.008,0,1,0,14.7,282.99l4.479-4.479a1.008,1.008,0,1,0-1.426-1.426Z" transform="translate(0 -226.122)" fill="#fff"/><path d="M60.352,232.111a1.008,1.008,0,0,0-1.426,0l-5.248,5.247a1.008,1.008,0,1,0,1.426,1.426l5.248-5.248A1.008,1.008,0,0,0,60.352,232.111Z" transform="translate(-33.612 -188.705)" fill="#fff"/><path d="M207.611,425.759l-.773.772a1.008,1.008,0,0,0,1.426,1.426l.772-.773a1.008,1.008,0,1,0-1.426-1.426Z" transform="translate(-161.037 -349.814)" fill="#fff"/><path d="M227.918,392.2l-3.45,3.45a1.008,1.008,0,1,0,1.426,1.426l3.449-3.45a1.008,1.008,0,1,0-1.426-1.426Z" transform="translate(-175.705 -321.894)" fill="#fff"/><path d="M215.877,434.133a1.008,1.008,0,0,0,1.426,0l4.055-4.055a1.008,1.008,0,1,0-1.426-1.426l-4.055,4.055A1.008,1.008,0,0,0,215.877,434.133Z" transform="translate(-168.557 -352.222)" fill="#fff"/><path d="M251.809,410.855a1.008,1.008,0,0,0,1.426,0l1.5-1.5a1.008,1.008,0,1,0-1.426-1.426l-1.5,1.5A1.008,1.008,0,0,0,251.809,410.855Z" transform="translate(-198.451 -334.982)" fill="#fff"/><path d="M209.31,468.638l-4.479,4.479a1.008,1.008,0,1,0,1.426,1.426l4.479-4.479a1.008,1.008,0,1,0-1.426-1.426Z" transform="translate(-159.367 -385.489)" fill="#fff"/><path d="M250.479,423.663l-5.248,5.248a1.008,1.008,0,1,0,1.426,1.426l5.248-5.248a1.008,1.008,0,1,0-1.426-1.426Z" transform="translate(-192.979 -348.071)" fill="#fff"/><path d="M399.78,331.257a5.651,5.651,0,0,1-3.551-3.562,1.008,1.008,0,0,0-1.913,0,5.651,5.651,0,0,1-3.551,3.562,1.008,1.008,0,0,0,0,1.912,5.651,5.651,0,0,1,3.551,3.562,1.008,1.008,0,0,0,1.913,0,5.651,5.651,0,0,1,3.551-3.562,1.008,1.008,0,0,0,0-1.912Zm-4.508,2.92a7.718,7.718,0,0,0-1.961-1.964,7.718,7.718,0,0,0,1.961-1.964,7.717,7.717,0,0,0,1.961,1.964A7.717,7.717,0,0,0,395.272,334.177Z" transform="translate(-313.732 -267.899)" fill="#fff"/><path d="M18.764,92.169a5.651,5.651,0,0,1,3.551,3.562,1.008,1.008,0,0,0,1.913,0,5.651,5.651,0,0,1,3.551-3.562,1.008,1.008,0,0,0,0-1.912,5.651,5.651,0,0,1-3.551-3.562,1.008,1.008,0,0,0-1.913,0,5.651,5.651,0,0,1-3.551,3.562,1.008,1.008,0,0,0,0,1.912Zm4.508-2.92a7.718,7.718,0,0,0,1.961,1.964,7.718,7.718,0,0,0-1.961,1.964,7.718,7.718,0,0,0-1.961-1.964A7.718,7.718,0,0,0,23.272,89.248Z" transform="translate(-4.237 -67.394)" fill="#fff"/><ellipse cx="1.846" cy="1.848" rx="1.846" ry="1.848" transform="translate(30.301 11.385)" fill="#fff"/><ellipse cx="1.846" cy="1.848" rx="1.846" ry="1.848" transform="translate(76.508 77.083)" fill="#fff"/><path d="M300.271,107.968a7.37,7.37,0,1,0,5.212,12.584h0a7.371,7.371,0,0,0-5.213-12.584Zm3.787,11.158a5.355,5.355,0,1,1,0-7.573A5.355,5.355,0,0,1,304.057,119.126Z" transform="translate(-232.888 -85.667)" fill="#fff"/></g></g></svg>