<svg xmlns="http://www.w3.org/2000/svg" width="127" height="127" viewBox="0 0 127 127">
  <g id="Group_4163" data-name="Group 4163" transform="translate(-1114 -4023)">
    <circle id="Ellipse_2714" data-name="Ellipse 2714" cx="63.5" cy="63.5" r="63.5" transform="translate(1114 4023)" fill="#ccecff"/>
    <g id="bar-chart" transform="translate(1140 4574)">
      <path id="Path_19228" data-name="Path 19228" d="M127.578-511.671a.878.878,0,0,0-.329.638.894.894,0,0,0,.329.638l.329.329h3.937l-4.788,4.788-4.788,4.788-1.935-1.935c-1.944-1.935-1.944-1.935-2.37-1.935h-.435l-8.909,8.918c-6.191,6.191-8.928,9.005-8.957,9.17a.929.929,0,0,0,.929,1.161h.4l8.483-8.483,8.493-8.493,1.906,1.906c1.915,1.9,2.186,2.1,2.66,1.964.126-.039,2.563-2.4,5.426-5.252l5.194-5.194.01,1.6c0,1.867.077,2.2.58,2.457a.847.847,0,0,0,1.112-.184l.232-.232v-3.153a27.723,27.723,0,0,0-.1-3.347c-.242-.445-.464-.474-3.879-.474h-3.2Z" transform="translate(-77.363)" fill="#21bdca"/>
      <path id="Path_19229" data-name="Path 19229" d="M49.4-364.8a2.678,2.678,0,0,0-1.315,1.3l-.232.484v31.388H42.438v-8.589c0-5.542-.039-8.705-.1-8.938a2.9,2.9,0,0,0-1.257-1.567l-.532-.3h-3.1c-2.989,0-3.1.01-3.492.213a3,3,0,0,0-1.238,1.286c-.2.435-.2.493-.232,9.16l-.029,8.734h-5.3l-.029-4.624c-.029-4.575-.029-4.614-.251-5.1a2.682,2.682,0,0,0-1.441-1.4c-.474-.174-.764-.194-3.308-.194-3.066,0-3.337.039-4,.59a4,4,0,0,0-.629.745l-.261.455-.029,4.759-.029,4.769H15.973c-1.586,0-1.973.184-1.973.967a.817.817,0,0,0,.484.822c.251.126,2.921.145,22.924.145s22.673-.019,22.924-.145a.817.817,0,0,0,.484-.822c0-.774-.387-.967-1.935-.967H57.721v-31.388l-.232-.484a2.389,2.389,0,0,0-1.267-1.267c-.474-.222-.542-.232-3.434-.232C50.031-365,49.809-364.981,49.4-364.8Zm6.21,1.9c.164.145.174.764.174,15.718v15.554h-6v-15.544c0-14.325.01-15.554.164-15.718s.358-.174,2.815-.174C55.109-363.065,55.458-363.046,55.612-362.9ZM40.281-348.924l.222.2v17.092H34.41v-17.034l.242-.232.232-.242h2.583C39.991-349.137,40.058-349.127,40.281-348.924Zm-15.37,8.067.213.145v9.083h-6v-4.5c0-4.372.01-4.508.193-4.691s.319-.193,2.786-.193C24.292-341.011,24.727-340.992,24.911-340.857Z" transform="translate(0 -132.781)" fill="#21bdca"/>
      <path id="Path_19230" data-name="Path 19230" d="M66.666-218.842a1.113,1.113,0,0,0-.455.29.939.939,0,0,0,.658,1.577.942.942,0,0,0,.4-1.8,2.7,2.7,0,0,0-.358-.126A1.434,1.434,0,0,1,66.666-218.842Z" transform="translate(-46.93 -264.749)" fill="#21bdca"/>
    </g>
  </g>
</svg>
