<svg xmlns="http://www.w3.org/2000/svg" width="61.868" height="67" viewBox="0 0 61.868 67">
  <g id="support_1_" data-name="support (1)" transform="translate(-25.7 511.877)">
    <path id="Path_836" data-name="Path 836" d="M53.41-511.7a19.9,19.9,0,0,0-16.777,16.649c-.094.563-.148,3.168-.148,6.479,0,5.275.013,5.563.282,6.126a3.6,3.6,0,0,0,1.679,1.846l.725.406V-479a3.516,3.516,0,0,0,.322,1.872,3.923,3.923,0,0,0,3.734,2.277H44.25l.551.982a17.514,17.514,0,0,0,1.424,2.029l.873,1.047-1.128,2.2-1.128,2.186-3.6,1.165c-5.413,1.754-7.374,2.84-9.993,5.537a19.062,19.062,0,0,0-5.467,12.343L25.7-445.6l.376.353.376.366H86.815l.376-.366.376-.353-.081-1.767a19.062,19.062,0,0,0-5.467-12.343c-2.619-2.7-4.58-3.783-9.993-5.537l-3.6-1.165-1.128-2.2-1.128-2.186.645-.772a14.33,14.33,0,0,0,3.237-6.793l.349-1.728h1.679a4.643,4.643,0,0,0,2.364-.314,4.143,4.143,0,0,0,2.015-1.963l.322-.668v-5.537c0-3.3-.054-5.916-.148-6.479a19.289,19.289,0,0,0-5.547-10.929,20.314,20.314,0,0,0-11.592-5.772A30.483,30.483,0,0,0,53.41-511.7Zm6.125,2.749a17.3,17.3,0,0,1,13.956,12.7c.161.641.349,1.518.4,1.924l.081.759H71.449l-.081-1.152a13.045,13.045,0,0,0-2.189-6.073,14,14,0,0,0-7.643-5.432c-1.2-.353-1.263-.366-4.9-.366s-3.707.013-4.9.366a14,14,0,0,0-7.643,5.432A13.045,13.045,0,0,0,41.9-494.72l-.081,1.152H40.569c-.927,0-1.263-.039-1.263-.17a18.77,18.77,0,0,1,1.639-5.746,15.515,15.515,0,0,1,3.452-4.7,17.332,17.332,0,0,1,9.953-4.869A27.737,27.737,0,0,1,59.535-508.948Zm.645,5.249a14.67,14.67,0,0,1,4.406,2.068,11.318,11.318,0,0,1,3.734,5.759c.322,1.27.376,3.482.081,3.482-.094,0-.887-.118-1.746-.262a22.236,22.236,0,0,1-10.96-5.183l-1.142-1.008-1.478.078a11.769,11.769,0,0,0-7.629,3.312c-.887.851-.873.877-.336-.929a10.9,10.9,0,0,1,9.362-7.539A27.016,27.016,0,0,1,60.18-503.7Zm-6.42,7.919a24.2,24.2,0,0,0,3.868,2.788,25.35,25.35,0,0,0,8.664,3.076c.913.157,1.813.275,1.988.275.309,0,.322.039.255.484-.04.275-.107,1.113-.148,1.872a71.216,71.216,0,0,1-1.289,9.228,14.185,14.185,0,0,1-2.31,4.516,10.409,10.409,0,0,1-8.019,3.822,9.77,9.77,0,0,1-5.709-1.571,13.057,13.057,0,0,1-3.143-2.945l-.43-.615h2.539l.416.707a3.625,3.625,0,0,0,1.894,1.636c.537.236.887.275,2.955.275,2.189,0,2.391-.026,3.036-.314a3.8,3.8,0,0,0,2.337-3.613,3.8,3.8,0,0,0-2.337-3.613c-.645-.288-.846-.314-3.036-.314-2.069,0-2.418.039-2.955.275a3.625,3.625,0,0,0-1.894,1.636l-.416.707H46.3l-.148-.51a93.369,93.369,0,0,1-1.41-11.008l-.081-1.126,1.061-1.361c1.961-2.539,3.586-3.743,5.816-4.319C52.886-496.134,53.437-496.121,53.759-495.781Zm-11.847,6.558c.094,1.715.416,5.445.551,6.178l.067.366-1.182-.052c-2.122-.1-2.1-.052-2.149-4.594l-.04-3.626h2.66Zm32.156,1.9c-.054,4.542-.027,4.49-2.149,4.594l-1.182.052.067-.366c.121-.733.457-4.45.551-6.178l.081-1.728h2.673ZM43.041-479.21c.081.5.188,1.073.242,1.3.081.393.054.406-.269.353-.739-.144-1.155-.864-1.155-2.016,0-.51,0-.51.524-.51h.51Zm13.714,1.819a1.241,1.241,0,0,1,0,2.461,13.679,13.679,0,0,1-2.928,0,1.221,1.221,0,0,1-.739-2.055,1.551,1.551,0,0,1,.631-.393A18.1,18.1,0,0,1,56.755-477.391Zm9,12.238a37.7,37.7,0,0,1-2.055,5.026l-.766,1.558-2.2-2.147-2.216-2.147.443-.471c.242-.249,1.491-1.545,2.78-2.853l2.337-2.408.833,1.623A11.283,11.283,0,0,1,65.754-465.152Zm-14-.249,2.713,2.657L52.4-460.65l-2.055,2.094-.766-1.571a41.74,41.74,0,0,1-2.082-5,19.349,19.349,0,0,1,1.478-2.919C49.018-468.045,50.267-466.854,51.758-465.4Zm5.037-1.558H58.5l-.954.995c-.524.55-.981,1.008-1.034,1.034a9.491,9.491,0,0,1-1.222-1.1c-1.115-1.1-1.128-1.126-.672-1.021A18.431,18.431,0,0,0,56.8-466.958Zm-11.108,5.092a59.58,59.58,0,0,0,6.528,11.518c.712,1.034,1.424,2.094,1.585,2.356l.309.5H41.335c-10.719,0-12.774-.026-12.774-.183a21.163,21.163,0,0,1,.752-3.508,17.034,17.034,0,0,1,7.911-9.607,68.854,68.854,0,0,1,7.6-2.657C44.975-463.464,45.23-462.979,45.687-461.867Zm26.071-.55a40.321,40.321,0,0,1,4.218,1.6,16.988,16.988,0,0,1,7.979,9.634,21.162,21.162,0,0,1,.752,3.508c0,.157-2.055.183-12.774.183H59.159l.309-.5c.161-.262.873-1.322,1.585-2.356a59.578,59.578,0,0,0,6.528-11.518,6.394,6.394,0,0,1,.806-1.6C68.467-463.464,69.985-462.993,71.758-462.417Zm-12.774,4.058L61.4-456l-.242.432c-.134.236-.725,1.113-1.3,1.937s-1.531,2.212-2.1,3.089a14.214,14.214,0,0,1-1.115,1.61,15.358,15.358,0,0,1-1.128-1.61c-.578-.877-1.625-2.421-2.324-3.416a15.231,15.231,0,0,1-1.263-1.99,64.375,64.375,0,0,1,4.553-4.764C56.526-460.715,57.655-459.655,58.984-458.359Z" fill="#16becf"/>
    <path id="Path_837" data-name="Path 837" d="M356.349-115.8a1.139,1.139,0,0,0-.349.994,1.139,1.139,0,0,0,.349.994,1.139,1.139,0,0,0,.994.349,1.194,1.194,0,0,0,1.343-1.343,1.139,1.139,0,0,0-.349-.994A1.512,1.512,0,0,0,356.349-115.8Z" transform="translate(-285.934 -343.964)" fill="#16becf"/>
    <path id="Path_838" data-name="Path 838" d="M391.389-96.65A1.113,1.113,0,0,0,391-95.7c0,.537.081.645,1.128,1.733a10.4,10.4,0,0,1,2.163,2.673c.551.94.766,1.1,1.545,1.1a1.344,1.344,0,0,0,1.343-1.276c0-1.088-2.458-4.406-3.962-5.332A1.466,1.466,0,0,0,391.389-96.65Z" transform="translate(-316.233 -360.867)" fill="#16becf"/>
  </g>
</svg>
