<svg xmlns="http://www.w3.org/2000/svg" width="127" height="127" viewBox="0 0 127 127">
  <g id="Group_4164" data-name="Group 4164" transform="translate(-1114 -4023)">
    <circle id="Ellipse_2714" data-name="Ellipse 2714" cx="63.5" cy="63.5" r="63.5" transform="translate(1114 4023)" fill="#ccecff"/>
    <g id="provision" transform="translate(1157 4061)">
      <path id="Path_18954" data-name="Path 18954" d="M124.543-511.521a4.972,4.972,0,0,0-1.011.506c-.243.172-3.166,3.034-6.483,6.362C111.5-499.1,111-498.575,111-498.271a1.51,1.51,0,0,0,.111.556c.061.121.941,1.052,1.942,2.063s1.81,1.861,1.79,1.881-.263.182-.526.354a4.771,4.771,0,0,0-1.922,4.551,4.774,4.774,0,0,0,6.584,3.611,4.674,4.674,0,0,0,2.185-1.922c.131-.192.243-.1,2.043,1.689,1.932,1.912,2.175,2.094,2.731,1.952a55.339,55.339,0,0,0,5.249-5.128,1.278,1.278,0,0,0,.142-.506,1.1,1.1,0,0,0-.678-.941,3.106,3.106,0,0,1-2.185-1.507,3.276,3.276,0,0,1,0-2.437,2.724,2.724,0,0,1,2.407-1.467,2.786,2.786,0,0,1,2.731,2.458,1.1,1.1,0,0,0,.941.678,1.279,1.279,0,0,0,.506-.142,69.541,69.541,0,0,0,5.229-5.3c.192-.647.233-.6-6.3-7.12-5.947-5.937-6.271-6.24-6.847-6.453A4.237,4.237,0,0,0,124.543-511.521Zm1.81,1.992c.263.111,2.1,1.891,5.957,5.745L137.9-498.2l-1.436,1.436c-.8.8-1.467,1.446-1.5,1.446a2.6,2.6,0,0,1-.445-.506,4.764,4.764,0,0,0-7.333.041,4.753,4.753,0,0,0,.9,6.756l.354.283-1.386,1.386-1.4,1.4-2.094-2.094c-1.163-1.143-2.2-2.134-2.326-2.195a.968.968,0,0,0-1.153.182.986.986,0,0,0-.293.536,3,3,0,0,1-.718,1.75,2.655,2.655,0,0,1-4.036-.03,2.617,2.617,0,0,1-.273-3.166,2.78,2.78,0,0,1,1.821-1.254c.87-.131,1.284-.475,1.284-1.062,0-.394-.212-.647-2.336-2.781l-2.114-2.124,5.583-5.583c3.55-3.54,5.725-5.644,5.947-5.735A1.72,1.72,0,0,1,126.353-509.528Z" transform="translate(-105.349 511.669)" fill="#21bdca"/>
      <path id="Path_18955" data-name="Path 18955" d="M84.143-269.606a5.678,5.678,0,0,0-1.173.445,4.687,4.687,0,0,0-2.63,4.673l.061.738H68.153c-13.371,0-12.673-.03-12.926.577-.091.212-.111,2.569-.091,9.133.03,8.8.03,8.85.243,9.3a3.812,3.812,0,0,0,2.387,2.144c.577.172,1.193.182,11.823.182H80.806l.324-.293a.765.765,0,0,0,.334-.718.765.765,0,0,0-.334-.718l-.324-.293H76.457v-3.186c0-3.419-.02-3.59-.516-3.853a.99.99,0,0,0-1.163.131,2.732,2.732,0,0,1-3.843-.3,2.672,2.672,0,0,1,1.679-4.389,2.5,2.5,0,0,1,1.851.475c.8.485,1.234.526,1.659.162l.283-.243.03-3.044.03-3.044h2.872c3.095,0,3.3-.03,3.55-.516.212-.425.172-.748-.182-1.386a2.006,2.006,0,0,1-.334-1.335,2.325,2.325,0,0,1,.89-1.992,2.953,2.953,0,0,1,1.79-.738,2.878,2.878,0,0,1,2.427,1.628,2.731,2.731,0,0,1-.152,2.488c-.4.839-.4,1.052-.01,1.517l.243.283,3.095.03,3.095.03v7.929c0,5.35-.03,8.02-.111,8.213a1.99,1.99,0,0,1-.971,1,6.778,6.778,0,0,1-1.962.142H89.079l-.354.354c-.324.324-.354.4-.3.738a1.149,1.149,0,0,0,.374.657l.3.273h1.709a7.849,7.849,0,0,0,2.316-.182,3.812,3.812,0,0,0,2.387-2.144c.212-.455.212-.506.243-9.3.02-6.564,0-8.921-.091-9.133-.223-.546-.435-.577-3.388-.577-2.5,0-2.69-.01-2.63-.172a7.544,7.544,0,0,0-.04-2.276A4.836,4.836,0,0,0,84.143-269.606ZM74.434-259.8v1.932l-.223-.071A6.63,6.63,0,0,0,72.017-258a4.753,4.753,0,0,0-2.276,1.224,4.345,4.345,0,0,0-1.456,3.692,3.152,3.152,0,0,0,.425,1.719,4.77,4.77,0,0,0,2.225,2.235,3.333,3.333,0,0,0,1.7.415,6.817,6.817,0,0,0,1.376-.051l.425-.1v4.43h-7.94c-6.524,0-8-.02-8.273-.142a1.99,1.99,0,0,1-.971-1c-.081-.192-.111-2.862-.111-8.223v-7.929h17.3Z" transform="translate(-55.129 294.16)" fill="#21bdca"/>
      <path id="Path_18956" data-name="Path 18956" d="M340.921-19.709a1.254,1.254,0,0,0-.435.516c-.182.364-.182.384,0,.759a.959.959,0,0,0,1.851-.394A.988.988,0,0,0,340.921-19.709Z" transform="translate(-311.503 69.558)" fill="#21bdca"/>
    </g>
  </g>
</svg>
