<svg xmlns="http://www.w3.org/2000/svg" width="43.035" height="43.035" viewBox="0 0 43.035 43.035"><g transform="translate(0 17.335) rotate(-34)"><rect width="31" height="31" fill="none"/><g transform="translate(2.561 3.201)"><path d="M30.184,16.652,5.857,5.128,5.28,5A1.28,1.28,0,0,0,4,6.28L7.841,17.8,4,29.328a1.28,1.28,0,0,0,1.28,1.28l.576-.128L30.184,18.956a1.28,1.28,0,0,0,0-2.3ZM7.521,26.831l2.561-7.746H16.8a1.28,1.28,0,1,0,0-2.561H10.082L7.521,8.777,26.6,17.8Z" transform="translate(-4 -5)" fill="#fff"/></g></g></svg>