<svg xmlns="http://www.w3.org/2000/svg" width="77.059" height="86.322" viewBox="0 0 77.059 86.322"><defs><style>.a{fill:#16becf;}</style></defs><g transform="matrix(0.996, 0.087, -0.087, 0.996, 7.016, 0)"><path class="a" d="M389.7,375.8c.174-.288,3.613,1.44,9.627,4.784s14.6,8.3,25.069,14.462l.709.417.087.868c.894,8.994,1.922,19.327,3.036,30.559l.1,1.008-.781.695c-9.2,8.2-19.288,17.2-29.842,26.6l0,0-1.216,1.076-1.375-.846c-11.91-7.339-23.3-14.352-33.735-20.778l-.893-.552-.076-1.014c-.857-11.288-1.638-21.618-2.325-30.645l-.064-.871.625-.535c9.333-7.988,16.985-14.422,22.36-18.795s8.473-6.686,8.7-6.434-2.451,3.045-7.451,7.848-12.316,11.607-21.38,19.9c.182-.451.361-.9.56-1.406.9,9.011,1.924,19.321,3.045,30.587-.319-.518-.639-1.031-.966-1.566,10.481,6.353,21.921,13.282,33.886,20.528-.854.078-1.711.151-2.591.232l0-.006c10.621-9.327,20.775-18.24,30.038-26.371-.235.588-.471,1.179-.681,1.7-.849-11.254-1.633-21.612-2.314-30.623.28.448.557.9.8,1.283-10.26-6.507-18.585-11.89-24.3-15.719S389.523,376.091,389.7,375.8Z" transform="translate(-358.018 -375.774)"/><path class="a" d="M359.623,432.886c-.8-.9,10.4-12.131,25.01-25.072,1.193-1.048,2.37-2.081,3.484-3.064-.244.622-.482,1.218-.72,1.815-1.372-17.3-1.622-30.685-.515-30.78s3.182,13.123,4.837,30.4l.1,1.076-.826.739c-1.109.989-2.274,2.031-3.459,3.09C372.922,424.032,360.424,433.794,359.623,432.886Z" transform="translate(-355.2 -375.754)"/><path class="a" d="M370.309,386.816c.63-1.034,8.714,2.762,18.052,8.47s16.4,11.173,15.77,12.2-8.711-2.759-18.052-8.47S369.679,387.847,370.309,386.816Z" transform="translate(-335.952 -356.193)"/></g></svg>