<svg xmlns="http://www.w3.org/2000/svg" xmlns:xlink="http://www.w3.org/1999/xlink" width="646" height="640.5" viewBox="0 0 646 640.5">
  <defs>
    <filter id="Rectangle_6601" x="61" y="39.5" width="153" height="162" filterUnits="userSpaceOnUse">
      <feOffset dy="3" input="SourceAlpha"/>
      <feGaussianBlur stdDeviation="12.5" result="blur"/>
      <feFlood flood-opacity="0.078"/>
      <feComposite operator="in" in2="blur"/>
      <feComposite in="SourceGraphic"/>
    </filter>
    <filter id="Rectangle_6601-2" x="383" y="6.5" width="153" height="162" filterUnits="userSpaceOnUse">
      <feOffset dy="3" input="SourceAlpha"/>
      <feGaussianBlur stdDeviation="12.5" result="blur-2"/>
      <feFlood flood-opacity="0.078"/>
      <feComposite operator="in" in2="blur-2"/>
      <feComposite in="SourceGraphic"/>
    </filter>
    <filter id="Path_20597" x="374.5" y="0" width="175.786" height="174.089" filterUnits="userSpaceOnUse">
      <feOffset dx="3" dy="3" input="SourceAlpha"/>
      <feGaussianBlur stdDeviation="22" result="blur-3"/>
      <feFlood flood-color="#3fffac"/>
      <feComposite operator="in" in2="blur-3"/>
      <feComposite in="SourceGraphic"/>
    </filter>
    <filter id="Rectangle_8662" x="493" y="270.5" width="153" height="162" filterUnits="userSpaceOnUse">
      <feOffset dy="3" input="SourceAlpha"/>
      <feGaussianBlur stdDeviation="12.5" result="blur-4"/>
      <feFlood flood-opacity="0.078"/>
      <feComposite operator="in" in2="blur-4"/>
      <feComposite in="SourceGraphic"/>
    </filter>
    <filter id="Path_20591" x="516.79" y="294" width="102.816" height="110.316" filterUnits="userSpaceOnUse">
      <feOffset dy="3" input="SourceAlpha"/>
      <feGaussianBlur stdDeviation="13" result="blur-5"/>
      <feFlood flood-color="#3fffac"/>
      <feComposite operator="in" in2="blur-5"/>
      <feComposite in="SourceGraphic"/>
    </filter>
    <filter id="Path_20592" x="535.093" y="294.644" width="83.827" height="83.791" filterUnits="userSpaceOnUse">
      <feOffset dy="3" input="SourceAlpha"/>
      <feGaussianBlur stdDeviation="13" result="blur-6"/>
      <feFlood flood-color="#3fffac"/>
      <feComposite operator="in" in2="blur-6"/>
      <feComposite in="SourceGraphic"/>
    </filter>
    <filter id="Path_20593" x="512.5" y="296.145" width="104.882" height="112.461" filterUnits="userSpaceOnUse">
      <feOffset dy="3" input="SourceAlpha"/>
      <feGaussianBlur stdDeviation="13" result="blur-7"/>
      <feFlood flood-color="#3fffac"/>
      <feComposite operator="in" in2="blur-7"/>
      <feComposite in="SourceGraphic"/>
    </filter>
    <filter id="Path_20594" x="534.07" y="306.951" width="93.02" height="93.007" filterUnits="userSpaceOnUse">
      <feOffset dy="3" input="SourceAlpha"/>
      <feGaussianBlur stdDeviation="13" result="blur-8"/>
      <feFlood flood-color="#3fffac"/>
      <feComposite operator="in" in2="blur-8"/>
      <feComposite in="SourceGraphic"/>
    </filter>
    <filter id="Rectangle_8663" x="307" y="478.5" width="153" height="162" filterUnits="userSpaceOnUse">
      <feOffset dy="3" input="SourceAlpha"/>
      <feGaussianBlur stdDeviation="12.5" result="blur-9"/>
      <feFlood flood-opacity="0.078"/>
      <feComposite operator="in" in2="blur-9"/>
      <feComposite in="SourceGraphic"/>
    </filter>
    <filter id="Path_20460" x="326.672" y="507.898" width="113.036" height="85.322" filterUnits="userSpaceOnUse">
      <feOffset dy="3" input="SourceAlpha"/>
      <feGaussianBlur stdDeviation="13" result="blur-10"/>
      <feFlood flood-color="#3fffac"/>
      <feComposite operator="in" in2="blur-10"/>
      <feComposite in="SourceGraphic"/>
    </filter>
    <filter id="Path_20461" x="326.672" y="517.273" width="113.036" height="98.05" filterUnits="userSpaceOnUse">
      <feOffset dy="3" input="SourceAlpha"/>
      <feGaussianBlur stdDeviation="13" result="blur-11"/>
      <feFlood flood-color="#3fffac"/>
      <feComposite operator="in" in2="blur-11"/>
      <feComposite in="SourceGraphic"/>
    </filter>
    <filter id="Rectangle_8664" x="0" y="357.5" width="153" height="162" filterUnits="userSpaceOnUse">
      <feOffset dy="3" input="SourceAlpha"/>
      <feGaussianBlur stdDeviation="12.5" result="blur-12"/>
      <feFlood flood-opacity="0.078"/>
      <feComposite operator="in" in2="blur-12"/>
      <feComposite in="SourceGraphic"/>
    </filter>
    <filter id="Rectangle_8611" x="22" y="380.5" width="116" height="117" filterUnits="userSpaceOnUse">
      <feOffset dx="3" dy="3" input="SourceAlpha"/>
      <feGaussianBlur stdDeviation="12.5" result="blur-13"/>
      <feFlood flood-color="#3fffac"/>
      <feComposite operator="in" in2="blur-13"/>
      <feComposite in="SourceGraphic"/>
    </filter>
  </defs>
  <g id="Group_5753" data-name="Group 5753" transform="translate(-1167.5 -5448)">
    <g id="Ellipse_2839" data-name="Ellipse 2839" transform="translate(1205 5502)" fill="none" stroke="#fff" stroke-width="1">
      <circle cx="261" cy="261" r="261" stroke="none"/>
      <circle cx="261" cy="261" r="260.5" fill="none"/>
    </g>
    <g id="Group_5747" data-name="Group 5747">
      <circle id="Ellipse_2838" data-name="Ellipse 2838" cx="122.5" cy="122.5" r="122.5" transform="translate(1351 5636)" fill="#21bdca"/>
      <g id="Group_5746" data-name="Group 5746" transform="translate(1396 5724.552)">
        <g id="Layer_1" data-name="Layer 1" transform="translate(0 10.448)">
          <path id="Path_1" data-name="Path 1" d="M2.706,54.174H0V41.5q0-5.11,5.1-5.1h2.1v2.706H5.1a2.119,2.119,0,0,0-2.4,2.4Z" transform="translate(0 -22.478)" fill="#1a1b1d"/>
          <path id="Path_2" data-name="Path 2" d="M25.881,36.4q5.136,0,5.136,5.1v7.6c0,3.387-1.71,5.071-5.136,5.071H19.843q-5.11,0-5.11-5.136V41.5q0-5.11,5.11-5.1Zm-6.038,2.706a2.119,2.119,0,0,0-2.4,2.4v7.534a2.137,2.137,0,0,0,2.4,2.431h6.038A2.124,2.124,0,0,0,28.312,49.1V41.5a2.134,2.134,0,0,0-2.431-2.4Z" transform="translate(-5.08 -22.478)" fill="#1a1b1d"/>
          <path id="Path_3" data-name="Path 3" d="M49.083,45.051a2.137,2.137,0,0,0,2.4,2.431h6.038a2.156,2.156,0,0,0,2.431-2.431V37.517a2.134,2.134,0,0,0-2.431-2.4H50.642V32.413h6.881q5.143,0,5.136,5.1v7.534q0,5.143-5.136,5.136H51.485q-5.11,0-5.11-5.136V24.84h2.713Z" transform="translate(-15.992 -18.492)" fill="#1a1b1d"/>
          <path id="Path_4" data-name="Path 4" d="M89.141,36.4q5.136,0,5.136,5.1v7.6c0,3.387-1.71,5.071-5.136,5.071H83.12q-5.11,0-5.11-5.136V41.5q0-5.11,5.11-5.1ZM83.1,39.106a2.119,2.119,0,0,0-2.4,2.4v7.534a2.137,2.137,0,0,0,2.4,2.431h6.038A2.124,2.124,0,0,0,91.572,49.1V41.5a2.134,2.134,0,0,0-2.431-2.4Z" transform="translate(-26.903 -22.478)" fill="#1a1b1d"/>
          <path id="Path_5" data-name="Path 5" d="M107,32.413h1.421V24.84h2.713v7.573h3.158v2.706h-3.158V50.187h-2.713V35.119H107Z" transform="translate(-36.9 -18.492)" fill="#1a1b1d"/>
          <path id="Path_6" data-name="Path 6" d="M131.824,36.4q5.136,0,5.143,5.1v7.6c0,3.387-1.716,5.071-5.143,5.071h-6.038q-5.1,0-5.1-5.136V41.5q0-5.11,5.1-5.1Zm-6.038,2.706a2.119,2.119,0,0,0-2.4,2.4v7.534a2.137,2.137,0,0,0,2.4,2.431h6.038a2.117,2.117,0,0,0,2.431-2.365V41.5a2.132,2.132,0,0,0-2.431-2.4Z" transform="translate(-41.618 -22.478)" fill="#1a1b1d"/>
          <path id="Path_7" data-name="Path 7" d="M157.54,50.766V48.31h8.712a1.946,1.946,0,0,0,2.2-2.2V41.994a2.306,2.306,0,0,0-.518-1.592,1.966,1.966,0,0,0-1.559-.583H157.54V37.4h8.9a1.952,1.952,0,0,0,2.011-2.234V32.459a1.933,1.933,0,0,0-2.2-2.168h-8.712V27.81h8.712q4.658,0,4.652,4.652v2.68a4.854,4.854,0,0,1-1.159,3.426,4.821,4.821,0,0,1,1.159,3.4v4.114q0,4.658-4.652,4.658Z" transform="translate(-54.329 -19.516)" fill="#fff"/>
          <path id="Path_8" data-name="Path 8" d="M194.221,48.309a1.918,1.918,0,0,0,2.2-2.136V41.993a1.937,1.937,0,0,0-2.2-2.175h-6.257V37.4h6.227q4.645,0,4.652,4.586v4.18q0,4.586-4.652,4.586h-5.477q-4.586,0-4.619-4.658V32.459q0-4.645,4.619-4.652h8.746V30.29h-8.72a1.92,1.92,0,0,0-2.168,2.168V46.107a1.933,1.933,0,0,0,2.168,2.2Z" transform="translate(-63.488 -19.516)" fill="#fff"/>
          <path id="Path_9" data-name="Path 9" d="M212.46,32.459q0-4.645,4.586-4.652h6.827q4.645,0,4.652,4.652V46.173q0,4.586-4.652,4.586h-6.794q-4.586,0-4.586-4.658ZM223.9,48.307a1.916,1.916,0,0,0,2.2-2.136V32.459a1.933,1.933,0,0,0-2.2-2.168h-6.827a1.917,1.917,0,0,0-2.168,2.168V46.107a1.931,1.931,0,0,0,2.168,2.2Z" transform="translate(-73.269 -19.516)" fill="#fff"/>
          <path id="Path_10" data-name="Path 10" d="M79.28,82.983V75.35h1.966V80.7H119.4V75.35h1.966v7.633Z" transform="translate(-27.34 -35.911)" fill="#1a1b1d"/>
          <path id="Path_11" data-name="Path 11" d="M121.3,15.15v7.6h-1.966V17.4H81.206V22.75H79.24v-7.6Z" transform="translate(-27.327 -15.15)" fill="#1a1b1d"/>
          <rect id="Rectangle_1" data-name="Rectangle 1" width="3.44" height="3.44" transform="translate(57.102 19.314)" fill="#16becf"/>
          <rect id="Rectangle_2" data-name="Rectangle 2" width="3.44" height="3.44" transform="translate(85.929 19.314)" fill="#16becf"/>
          <rect id="Rectangle_3" data-name="Rectangle 3" width="7.206" height="1.966" transform="translate(64.283 36.675)" fill="#fff"/>
          <rect id="Rectangle_4" data-name="Rectangle 4" width="7.206" height="1.966" transform="translate(74.162 36.675)" fill="#fff"/>
          <path id="Path_12" data-name="Path 12" d="M112.551,71.32a2.62,2.62,0,1,1-2.62-2.62A2.62,2.62,0,0,1,112.551,71.32Z" transform="translate(-37.007 -33.617)" fill="#1a1b1d"/>
        </g>
      </g>
    </g>
    <g id="Group_3975" data-name="Group 3975" transform="translate(1248 5522.434)">
      <g id="Group_5752" data-name="Group 5752">
        <g transform="matrix(1, 0, 0, 1, -80.5, -74.43)" filter="url(#Rectangle_6601)">
          <rect id="Rectangle_6601-3" data-name="Rectangle 6601" width="78" height="87" rx="12" transform="translate(98.5 74)" fill="#fff"/>
        </g>
        <g id="Group_5674" data-name="Group 5674" transform="translate(40.76 11.566)">
          <g id="Solidity_logo" transform="translate(4.083)">
            <path id="Path_18849" data-name="Path 18849" d="M20.455,0,13.633,12.125H0L6.816,0H20.455" opacity="0.45"/>
            <path id="Path_18850" data-name="Path 18850" d="M137.416,12.125h13.638L144.238,0H130.6Z" transform="translate(-123.784)" opacity="0.6"/>
            <path id="Path_18851" data-name="Path 18851" d="M6.816,24.244l6.816-12.119L6.816,0,0,12.125Z" opacity="0.8"/>
            <path id="Path_18852" data-name="Path 18852" d="M131.9,592.825l6.822-12.125H152.36l-6.822,12.125H131.9" transform="translate(-125.016 -550.391)" opacity="0.45"/>
            <path id="Path_18853" data-name="Path 18853" d="M14.938,580.7H1.3l6.816,12.125H21.755Z" transform="translate(-1.232 -550.391)" opacity="0.6"/>
            <path id="Path_18854" data-name="Path 18854" d="M269.417,348.5,262.6,360.619l6.816,12.125,6.822-12.125Z" transform="translate(-248.894 -330.311)" opacity="0.8"/>
          </g>
          <text id="Solidity" transform="translate(0.24 59.693)" font-size="9" font-family="Poppins-Medium, Poppins" font-weight="500"><tspan x="0" y="0">Solidity</tspan></text>
        </g>
      </g>
    </g>
    <g id="Group_5744" data-name="Group 5744" transform="translate(1570 5489.434)">
      <g id="Group_5751" data-name="Group 5751">
        <g transform="matrix(1, 0, 0, 1, -402.5, -41.43)" filter="url(#Rectangle_6601-2)">
          <rect id="Rectangle_6601-4" data-name="Rectangle 6601" width="78" height="87" rx="12" transform="translate(420.5 41)" fill="#fff"/>
        </g>
        <g id="transaction-_2_" transform="translate(35 21.566)">
          <g transform="matrix(1, 0, 0, 1, -437.5, -63)" filter="url(#Path_20597)">
            <path id="Path_20597-2" data-name="Path 20597" d="M51.6-455.922a5.168,5.168,0,0,0-3.64,3.692c-.242.9-.242,33.452,0,34.357a5.148,5.148,0,0,0,3.682,3.7c.547.137,2.735.158,18.041.158,18.988,0,17.936.032,19.167-.589a5.722,5.722,0,0,0,2.072-2.03c.684-1.283.642-.179.642-18.42,0-14.549-.021-16.653-.158-17.2a5.147,5.147,0,0,0-3.7-3.682C86.805-456.164,52.469-456.153,51.6-455.922ZM63.5-445.739a1.694,1.694,0,0,1,.968,1.925c-.053.326-.305.642-1.294,1.631l-1.22,1.241,9.636.021c9.552.032,9.646.032,9.931.253a1.485,1.485,0,0,1,.726,1.41,1.485,1.485,0,0,1-.726,1.41c-.284.221-.358.221-12.034.253-8.048.021-11.877,0-12.14-.084a1.8,1.8,0,0,1-1.094-1.21c-.168-.894-.126-.947,2.83-3.934,1.515-1.525,2.9-2.83,3.072-2.914A1.757,1.757,0,0,1,63.5-445.739Zm19.461,14.2a1.7,1.7,0,0,1,.968,1.936c-.063.337-.473.789-3.03,3.356-2.882,2.882-2.977,2.967-3.461,3.03a1.69,1.69,0,0,1-1.925-1.915c.063-.452.179-.6,1.4-1.841l1.315-1.346H68.743c-10.372,0-9.91.032-10.457-.621a1.7,1.7,0,0,1,.61-2.6C59.37-431.748,82.471-431.748,82.966-431.537Z" transform="translate(389.72 519.1)" fill="#3efeab"/>
          </g>
        </g>
      </g>
    </g>
    <g id="Group_5750" data-name="Group 5750">
      <g transform="matrix(1, 0, 0, 1, 1167.5, 5448)" filter="url(#Rectangle_8662)">
        <rect id="Rectangle_8662-2" data-name="Rectangle 8662" width="78" height="87" rx="12" transform="translate(530.5 305)" fill="#fff"/>
      </g>
      <g id="documents-_1_" transform="translate(1719 5778)">
        <g transform="matrix(1, 0, 0, 1, -551.5, -330)" filter="url(#Path_20591)">
          <path id="Path_20591-2" data-name="Path 20591" d="M60-495.842v16.158l12.39-.014,12.383-.022.021-1.051.021-1.044-.486-.043c-.272-.021-.808-.093-1.2-.157a9.79,9.79,0,0,1-7.028-5.219,12.176,12.176,0,0,1-.844-2.5,12.222,12.222,0,0,1,0-3.611,9.46,9.46,0,0,1,1.437-3.51,9.683,9.683,0,0,1,7.364-4.34l.715-.05v-2.145l-4.3-.021-4.311-.014V-512H60Zm12.941-8.651v1.072H64.29v-1.022a6.124,6.124,0,0,1,.05-1.072c.021-.029,1.973-.05,4.325-.05h4.275Zm1.072,4.361v1.072l-4.84-.014-4.847-.022-.021-1.058-.021-1.051h9.731Zm-1.072,4.29v1.072l-4.3-.014-4.311-.021-.021-1.058-.021-1.051h8.658Zm0,4.29v1.072H64.29V-491.5a6.125,6.125,0,0,1,.05-1.072c.021-.029,1.973-.05,4.325-.05h4.275Zm0,4.29v1.072H64.29v-1.022a6.125,6.125,0,0,1,.05-1.072c.021-.029,1.973-.05,4.325-.05h4.275Z" transform="translate(495.79 842)" fill="#3efeab"/>
        </g>
        <g transform="matrix(1, 0, 0, 1, -551.5, -330)" filter="url(#Path_20592)">
          <path id="Path_20592-2" data-name="Path 20592" d="M316-500.1v2.9h5.827l-2.9-2.9c-1.594-1.594-2.9-2.9-2.91-2.9S316-501.7,316-500.1Z" transform="translate(258.09 833.64)" fill="#3efeab"/>
        </g>
        <g transform="matrix(1, 0, 0, 1, -551.5, -330)" filter="url(#Path_20593)">
          <path id="Path_20593-2" data-name="Path 20593" d="M0-464.77v17.23H26.882v-2.145H2.145V-482H0Z" transform="translate(551.5 814.14)" fill="#3efeab"/>
        </g>
        <g transform="matrix(1, 0, 0, 1, -551.5, -330)" filter="url(#Path_20594)">
          <path id="Path_20594-2" data-name="Path 20594" d="M308.006-330.792a7.643,7.643,0,0,0-6.113,5.612,5.362,5.362,0,0,0-.193,1.823,5.513,5.513,0,0,0,.186,1.795,7.537,7.537,0,0,0,5.877,5.605,9.348,9.348,0,0,0,2.824.007,7.527,7.527,0,0,0,5.684-9.952,7.563,7.563,0,0,0-5.72-4.855A10.512,10.512,0,0,0,308.006-330.792Zm2.974,8.293-2.538,2.538-1.466-1.466-1.466-1.466.765-.765.772-.772.694.694.7.7,1.766-1.773,1.773-1.766.765.765.772.772Z" transform="translate(271.37 673.8)" fill="#3efeab"/>
        </g>
      </g>
    </g>
    <g id="Group_5749" data-name="Group 5749">
      <g transform="matrix(1, 0, 0, 1, 1167.5, 5448)" filter="url(#Rectangle_8663)">
        <rect id="Rectangle_8663-2" data-name="Rectangle 8663" width="78" height="87" rx="12" transform="translate(344.5 513)" fill="#fff"/>
      </g>
      <g id="programming" transform="translate(1533.172 5991.898)">
        <g transform="matrix(1, 0, 0, 1, -365.67, -543.9)" filter="url(#Path_20460)">
          <path id="Path_20460-2" data-name="Path 20460" d="M0-467.339v3.661H35.036V-471H0Zm7.048-.034v1.027H5V-468.4H7.048Zm4.311,0v1.027H9.306V-468.4h2.053Zm4.243,0v1.027H13.549V-468.4H15.6Z" transform="translate(365.67 1014.9)" fill="#3fffac"/>
        </g>
        <g transform="matrix(1, 0, 0, 1, -365.67, -543.9)" filter="url(#Path_20461)">
          <path id="Path_20461-2" data-name="Path 20461" d="M0-323.975v10.025H35.036V-334H0Zm19-6.6c.52.116.944.219.958.226.027.027-2.867,13.015-2.915,13.07a4.722,4.722,0,0,1-1.02-.171c-.9-.2-.965-.226-.937-.356.021-.082.671-2.99,1.437-6.473s1.416-6.371,1.437-6.419C18-330.8,17.915-330.818,19-330.579Zm-6.72,4.858-1.711,1.711,1.711,1.711,1.711,1.711-.719.719-.719.719-2.429-2.429L7.7-324.009l2.429-2.429,2.429-2.429.719.719.719.719Zm12.625,4.14-2.429,2.429-.719-.719-.719-.719,1.711-1.711,1.711-1.711-1.711-1.711-1.711-1.711.719-.719.719-.719,2.429,2.429,2.429,2.429Z" transform="translate(365.67 887.27)" fill="#3fffac"/>
        </g>
      </g>
    </g>
    <g id="Group_5748" data-name="Group 5748">
      <g transform="matrix(1, 0, 0, 1, 1167.5, 5448)" filter="url(#Rectangle_8664)">
        <rect id="Rectangle_8664-2" data-name="Rectangle 8664" width="78" height="87" rx="12" transform="translate(37.5 392)" fill="#fff"/>
      </g>
      <g id="done_black_24dp_2_" data-name="done_black_24dp (2)" transform="translate(1223.904 5863.447)">
        <g transform="matrix(1, 0, 0, 1, -56.4, -415.45)" filter="url(#Rectangle_8611)">
          <rect id="Rectangle_8611-2" data-name="Rectangle 8611" width="41" height="42" rx="10" transform="translate(56.5 415)" fill="#3fffac"/>
        </g>
        <path id="C" d="M8.231,14.744,4.608,11.121,3.4,12.329,8.231,17.16,18.583,6.808,17.375,5.6Z" transform="translate(9.559 8.971)" fill="#fff"/>
      </g>
    </g>
  </g>
</svg>
