<svg xmlns="http://www.w3.org/2000/svg" xmlns:xlink="http://www.w3.org/1999/xlink" width="1094.43" height="869.271" viewBox="0 0 1094.43 869.271">
  <defs>
    <filter id="Rectangle_8610" x="0" y="42" width="609" height="291" filterUnits="userSpaceOnUse">
      <feOffset dx="3" dy="3" input="SourceAlpha"/>
      <feGaussianBlur stdDeviation="27" result="blur"/>
      <feFlood flood-color="#4c4c4c" flood-opacity="0.09"/>
      <feComposite operator="in" in2="blur"/>
      <feComposite in="SourceGraphic"/>
    </filter>
    <filter id="Rectangle_8611" x="60.499" y="125.5" width="121" height="123" filterUnits="userSpaceOnUse">
      <feOffset dx="3" dy="3" input="SourceAlpha"/>
      <feGaussianBlur stdDeviation="12.5" result="blur-2"/>
      <feFlood flood-color="#3fffac"/>
      <feComposite operator="in" in2="blur-2"/>
      <feComposite in="SourceGraphic"/>
    </filter>
    <filter id="Rectangle_8615" x="81.999" y="109" width="327" height="211" filterUnits="userSpaceOnUse">
      <feOffset dx="3" dy="3" input="SourceAlpha"/>
      <feGaussianBlur stdDeviation="27" result="blur-3"/>
      <feFlood flood-color="#4c4c4c" flood-opacity="0.09"/>
      <feComposite operator="in" in2="blur-3"/>
      <feComposite in="SourceGraphic"/>
    </filter>
    <filter id="Rectangle_8616" x="0" y="0" width="283" height="202" filterUnits="userSpaceOnUse">
      <feOffset dx="3" dy="3" input="SourceAlpha"/>
      <feGaussianBlur stdDeviation="27" result="blur-4"/>
      <feFlood flood-color="#4c4c4c" flood-opacity="0.09"/>
      <feComposite operator="in" in2="blur-4"/>
      <feComposite in="SourceGraphic"/>
    </filter>
    <filter id="Rectangle_8610-2" x="486.379" y="82.995" width="608.051" height="355.935" filterUnits="userSpaceOnUse">
      <feOffset dx="3" dy="3" input="SourceAlpha"/>
      <feGaussianBlur stdDeviation="27" result="blur-5"/>
      <feFlood flood-color="#4c4c4c" flood-opacity="0.09"/>
      <feComposite operator="in" in2="blur-5"/>
      <feComposite in="SourceGraphic"/>
    </filter>
    <filter id="Rectangle_8611-2" x="546.628" y="167.926" width="120.839" height="121.721" filterUnits="userSpaceOnUse">
      <feOffset dx="3" dy="3" input="SourceAlpha"/>
      <feGaussianBlur stdDeviation="12.5" result="blur-6"/>
      <feFlood flood-color="#3fffac"/>
      <feComposite operator="in" in2="blur-6"/>
      <feComposite in="SourceGraphic"/>
    </filter>
    <filter id="Rectangle_8615-2" x="568" y="99" width="304" height="211" filterUnits="userSpaceOnUse">
      <feOffset dx="3" dy="3" input="SourceAlpha"/>
      <feGaussianBlur stdDeviation="27" result="blur-7"/>
      <feFlood flood-color="#4c4c4c" flood-opacity="0.09"/>
      <feComposite operator="in" in2="blur-7"/>
      <feComposite in="SourceGraphic"/>
    </filter>
    <filter id="Rectangle_8615-3" x="568" y="185" width="266" height="211" filterUnits="userSpaceOnUse">
      <feOffset dx="3" dy="3" input="SourceAlpha"/>
      <feGaussianBlur stdDeviation="27" result="blur-8"/>
      <feFlood flood-color="#4c4c4c" flood-opacity="0.09"/>
      <feComposite operator="in" in2="blur-8"/>
      <feComposite in="SourceGraphic"/>
    </filter>
    <filter id="Rectangle_8616-2" x="488.999" y="42" width="412" height="202" filterUnits="userSpaceOnUse">
      <feOffset dx="3" dy="3" input="SourceAlpha"/>
      <feGaussianBlur stdDeviation="27" result="blur-9"/>
      <feFlood flood-color="#4c4c4c" flood-opacity="0.09"/>
      <feComposite operator="in" in2="blur-9"/>
      <feComposite in="SourceGraphic"/>
    </filter>
    <clipPath id="clip-path">
      <rect id="Rectangle_8618" data-name="Rectangle 8618" width="293" height="59" rx="15" transform="translate(0.393 -0.157)" fill="#fff"/>
    </clipPath>
    <clipPath id="clip-path-2">
      <rect id="Rectangle_8618-2" data-name="Rectangle 8618" width="114" height="151" rx="15" transform="translate(-0.184 -0.012)" fill="#fff"/>
    </clipPath>
    <filter id="Rectangle_8610-3" x="266.504" y="394.755" width="608.051" height="474.517" filterUnits="userSpaceOnUse">
      <feOffset dx="3" dy="3" input="SourceAlpha"/>
      <feGaussianBlur stdDeviation="27" result="blur-10"/>
      <feFlood flood-color="#4c4c4c" flood-opacity="0.09"/>
      <feComposite operator="in" in2="blur-10"/>
      <feComposite in="SourceGraphic"/>
    </filter>
    <filter id="Rectangle_8615-4" x="292.001" y="411" width="305" height="211" filterUnits="userSpaceOnUse">
      <feOffset dx="3" dy="3" input="SourceAlpha"/>
      <feGaussianBlur stdDeviation="27" result="blur-11"/>
      <feFlood flood-color="#4c4c4c" flood-opacity="0.09"/>
      <feComposite operator="in" in2="blur-11"/>
      <feComposite in="SourceGraphic"/>
    </filter>
    <filter id="Path_20597" x="314.555" y="433.394" width="164.857" height="163.584" filterUnits="userSpaceOnUse">
      <feOffset dx="3" dy="3" input="SourceAlpha"/>
      <feGaussianBlur stdDeviation="22" result="blur-12"/>
      <feFlood flood-color="#3fffac"/>
      <feComposite operator="in" in2="blur-12"/>
      <feComposite in="SourceGraphic"/>
    </filter>
    <filter id="Rectangle_8615-5" x="590.999" y="470" width="266" height="205" filterUnits="userSpaceOnUse">
      <feOffset dx="3" dy="3" input="SourceAlpha"/>
      <feGaussianBlur stdDeviation="27" result="blur-13"/>
      <feFlood flood-color="#4c4c4c" flood-opacity="0.09"/>
      <feComposite operator="in" in2="blur-13"/>
      <feComposite in="SourceGraphic"/>
    </filter>
    <filter id="Rectangle_8615-6" x="590.999" y="526" width="266" height="205" filterUnits="userSpaceOnUse">
      <feOffset dx="3" dy="3" input="SourceAlpha"/>
      <feGaussianBlur stdDeviation="27" result="blur-14"/>
      <feFlood flood-color="#4c4c4c" flood-opacity="0.09"/>
      <feComposite operator="in" in2="blur-14"/>
      <feComposite in="SourceGraphic"/>
    </filter>
    <filter id="Rectangle_8615-7" x="590.999" y="581" width="266" height="206" filterUnits="userSpaceOnUse">
      <feOffset dx="3" dy="3" input="SourceAlpha"/>
      <feGaussianBlur stdDeviation="27" result="blur-15"/>
      <feFlood flood-color="#4c4c4c" flood-opacity="0.09"/>
      <feComposite operator="in" in2="blur-15"/>
      <feComposite in="SourceGraphic"/>
    </filter>
    <filter id="Rectangle_8615-8" x="590.999" y="636" width="266" height="206" filterUnits="userSpaceOnUse">
      <feOffset dx="3" dy="3" input="SourceAlpha"/>
      <feGaussianBlur stdDeviation="27" result="blur-16"/>
      <feFlood flood-color="#4c4c4c" flood-opacity="0.09"/>
      <feComposite operator="in" in2="blur-16"/>
      <feComposite in="SourceGraphic"/>
    </filter>
    <filter id="Rectangle_8616-3" x="275" y="337" width="367" height="201" filterUnits="userSpaceOnUse">
      <feOffset dx="3" dy="3" input="SourceAlpha"/>
      <feGaussianBlur stdDeviation="27" result="blur-17"/>
      <feFlood flood-color="#4c4c4c" flood-opacity="0.09"/>
      <feComposite operator="in" in2="blur-17"/>
      <feComposite in="SourceGraphic"/>
    </filter>
  </defs>
  <g id="Group_5700" data-name="Group 5700" transform="translate(-273.326 -4012)">
    <g id="Group_5693" data-name="Group 5693" transform="translate(351.727 4090)">
      <g id="Group_5687" data-name="Group 5687" transform="translate(0 41.856)">
        <g id="Group_5677" data-name="Group 5677" transform="translate(0 0)">
          <g id="Group_5644" data-name="Group 5644" transform="translate(0 0)">
            <g transform="matrix(1, 0, 0, 1, -78.4, -119.86)" filter="url(#Rectangle_8610)">
              <rect id="Rectangle_8610-4" data-name="Rectangle 8610" width="447" height="129" rx="25" transform="translate(78 120)" fill="#fff"/>
            </g>
            <g id="done_black_24dp_2_" data-name="done_black_24dp (2)" transform="translate(16.099 39.71)">
              <g transform="matrix(1, 0, 0, 1, -94.5, -159.57)" filter="url(#Rectangle_8611)">
                <rect id="Rectangle_8611-3" data-name="Rectangle 8611" width="46" height="48" rx="10" transform="translate(95 160)" fill="#3fffac"/>
              </g>
              <path id="C" d="M8.8,15.817,4.749,11.769,3.4,13.118l5.4,5.4L20.364,6.949,19.015,5.6Z" transform="translate(11.882 12.477)" fill="#fff"/>
            </g>
          </g>
          <g id="Group_5686" data-name="Group 5686" transform="translate(81.566 67.614)">
            <g transform="matrix(1, 0, 0, 1, -159.97, -187.47)" filter="url(#Rectangle_8615)">
              <rect id="Rectangle_8615-9" data-name="Rectangle 8615" width="165" height="49" rx="18" transform="translate(160 187)" fill="#f5f5f5"/>
            </g>
            <text id="Connect_to_a_wallet" data-name="Connect to a wallet" transform="translate(23.033 28.53)" font-size="12" font-family="Montserrat-SemiBold, Montserrat" font-weight="600"><tspan x="0" y="0">Connect to a wallet</tspan></text>
          </g>
        </g>
        <text id="_0x5a119762B09Ed0bcB3b16075159AE43A62..52" data-name="0x5a119762B09Ed0bcB3b16075159AE43A62..52" transform="translate(91.937 56.619)" font-size="12" font-family="Montserrat-SemiBold, Montserrat" font-weight="600"><tspan x="0" y="0">0x5a119762B09Ed0bcB3b16075159AE43A62..52</tspan></text>
      </g>
      <g id="Group_5688" data-name="Group 5688" transform="translate(0)">
        <g transform="matrix(1, 0, 0, 1, -78.4, -78)" filter="url(#Rectangle_8616)">
          <rect id="Rectangle_8616-4" data-name="Rectangle 8616" width="121" height="40" rx="8" transform="translate(78 78)" fill="#21bdca"/>
        </g>
        <text id="Token_Address" data-name="Token Address" transform="translate(19.6 23)" fill="#fff" font-size="10" font-family="Montserrat-SemiBold, Montserrat" font-weight="600"><tspan x="0" y="0">Token Address</tspan></text>
      </g>
      <g id="Group_5696" data-name="Group 5696" transform="translate(485.978 41.856)">
        <g id="Group_5678" data-name="Group 5678" transform="translate(0 41.138)">
          <g id="Group_5644-2" data-name="Group 5644" transform="translate(0 0)">
            <g transform="matrix(1, 0, 0, 1, -564.38, -160.99)" filter="url(#Rectangle_8610-2)">
              <rect id="Rectangle_8610-5" data-name="Rectangle 8610" width="446.051" height="193.935" rx="25" transform="translate(564.38 160.99)" fill="#fff"/>
            </g>
            <g id="done_black_24dp_2_2" data-name="done_black_24dp (2)" transform="translate(16.749 41.431)">
              <g transform="matrix(1, 0, 0, 1, -581.13, -202.43)" filter="url(#Rectangle_8611-2)">
                <rect id="Rectangle_8611-4" data-name="Rectangle 8611" width="45.839" height="46.721" rx="10" transform="translate(581.13 202.43)" fill="#3fffac"/>
              </g>
              <path id="C-2" data-name="C" d="M8.8,15.817,4.749,11.769,3.4,13.118l5.4,5.4L20.364,6.949,19.015,5.6Z" transform="translate(10.973 11.18)" fill="#fff"/>
            </g>
          </g>
          <g id="Group_5679" data-name="Group 5679" transform="translate(81.762 15.743)">
            <g transform="matrix(1, 0, 0, 1, -646.14, -176.74)" filter="url(#Rectangle_8615-2)">
              <rect id="Rectangle_8615-10" data-name="Rectangle 8615" width="142" height="49" rx="12" transform="translate(646 177)" fill="#f5f5f5"/>
            </g>
            <text id="Wallet_Address" data-name="Wallet Address" transform="translate(17.859 26.262)" font-size="12" font-family="Montserrat-SemiBold, Montserrat" font-weight="600"><tspan x="0" y="0">Wallet Address</tspan></text>
          </g>
          <g id="Group_5680" data-name="Group 5680" transform="translate(81.762 101.602)">
            <g transform="matrix(1, 0, 0, 1, -646.14, -262.6)" filter="url(#Rectangle_8615-3)">
              <rect id="Rectangle_8615-11" data-name="Rectangle 8615" width="104" height="49" rx="12" transform="translate(646 263)" fill="#f5f5f5"/>
            </g>
            <text id="IP_Address" data-name="IP Address" transform="translate(18.859 29.404)" font-size="12" font-family="Montserrat-SemiBold, Montserrat" font-weight="600"><tspan x="0" y="0">IP Address</tspan></text>
          </g>
        </g>
        <text id="_0x5a119762B09Ed0bcB3b16075159AE43A62651383" data-name="0x5a119762B09Ed0bcB3b16075159AE43A62651383" transform="translate(81.982 122.423)" font-size="12" font-family="Montserrat-SemiBold, Montserrat" font-weight="600"><tspan x="0" y="0">0x5a119762B09Ed0bcB3b16075159AE43A62651383</tspan></text>
        <text id="_192.168.98.21" data-name="192.168.98.21" transform="translate(81.982 209.694)" font-size="12" font-family="Montserrat-SemiBold, Montserrat" font-weight="600"><tspan x="0" y="0">192.168.98.21</tspan></text>
        <g id="Group_5689" data-name="Group 5689" transform="translate(2.344 0)">
          <g transform="matrix(1, 0, 0, 1, -566.72, -119.86)" filter="url(#Rectangle_8616-2)">
            <rect id="Rectangle_8616-5" data-name="Rectangle 8616" width="250" height="40" rx="8" transform="translate(567 120)" fill="#21bdca"/>
          </g>
          <text id="The_user_see_s_the_wallet_and_IP_address_" data-name="The user see&apos;s  the wallet and IP address " transform="translate(12.277 23.144)" fill="#fff" font-size="10" font-family="Montserrat-SemiBold, Montserrat" font-weight="600"><tspan x="0" y="0" xml:space="preserve">The user see&apos;s  the wallet and IP address </tspan></text>
        </g>
      </g>
    </g>
    <g id="Group_5697" data-name="Group 5697" transform="translate(559.933 4268.157)">
      <g id="Mask_Group_3" data-name="Mask Group 3" transform="translate(0 0)" clip-path="url(#clip-path)">
        <g id="Rectangle_8617" data-name="Rectangle 8617" transform="translate(12.393 -25.157)" fill="none" stroke="#3efeab" stroke-width="1">
          <rect width="267" height="58" rx="15" stroke="none"/>
          <rect x="0.5" y="0.5" width="266" height="57" rx="14.5" fill="none"/>
        </g>
      </g>
      <rect id="Rectangle_8619" data-name="Rectangle 8619" width="81" height="32" transform="translate(214.393 -0.157)" fill="#fff"/>
    </g>
    <g id="Group_5698" data-name="Group 5698" transform="translate(677.989 4327.185)">
      <g id="Group_5695" data-name="Group 5695" transform="translate(151.326 0) rotate(90)">
        <g id="Mask_Group_3-2" data-name="Mask Group 3" transform="translate(0 0)" clip-path="url(#clip-path-2)">
          <g id="Rectangle_8617-2" data-name="Rectangle 8617" transform="translate(3.815 -65.012)" fill="none" stroke="#3efeab" stroke-width="1">
            <rect width="102" height="151" rx="15" stroke="none"/>
            <rect x="0.5" y="0.5" width="101" height="150" rx="14.5" fill="none"/>
          </g>
        </g>
      </g>
      <rect id="Rectangle_8620" data-name="Rectangle 8620" width="168" height="25" transform="translate(30.338 88.815)" fill="#fff"/>
    </g>
    <g id="Group_5699" data-name="Group 5699" transform="translate(617.831 4426.996)">
      <g id="Group_5691" data-name="Group 5691" transform="translate(0 57.759)">
        <g id="Group_5681" data-name="Group 5681" transform="translate(0 0)">
          <g id="Group_5644-3" data-name="Group 5644" transform="translate(0 0)">
            <g transform="matrix(1, 0, 0, 1, -344.5, -472.76)" filter="url(#Rectangle_8610-3)">
              <rect id="Rectangle_8610-6" data-name="Rectangle 8610" width="446.051" height="312.516" rx="25" transform="translate(344.5 472.76)" fill="#fff"/>
            </g>
          </g>
          <g id="Group_5679-2" data-name="Group 5679" transform="translate(25.817 16.294)">
            <text id="Transactions" transform="translate(48.68 27.951)" font-size="12" font-family="Montserrat-SemiBold, Montserrat" font-weight="600"><tspan x="0" y="0">Transactions</tspan></text>
            <g id="Group_5775" data-name="Group 5775">
              <g transform="matrix(1, 0, 0, 1, -370.32, -489.05)" filter="url(#Rectangle_8615-4)">
                <rect id="Rectangle_8615-12" data-name="Rectangle 8615" width="143" height="49" rx="12" transform="translate(370 489)" fill="#f5f5f5"/>
              </g>
              <g id="transaction-_2_" transform="translate(7.234 7.345)">
                <g transform="matrix(1, 0, 0, 1, -377.56, -496.39)" filter="url(#Path_20597)">
                  <path id="Path_20597-2" data-name="Path 20597" d="M50.643-455.967a3.878,3.878,0,0,0-2.731,2.771c-.182.679-.182,25.1,0,25.782a3.863,3.863,0,0,0,2.763,2.779c.41.1,2.052.118,13.538.118,14.249,0,13.459.024,14.383-.442a4.294,4.294,0,0,0,1.555-1.523c.513-.963.482-.134.482-13.823,0-10.918-.016-12.5-.118-12.907a3.863,3.863,0,0,0-2.779-2.763C77.064-456.148,51.3-456.14,50.643-455.967Zm8.936,7.641a1.271,1.271,0,0,1,.726,1.445c-.039.245-.229.482-.971,1.224l-.916.932,7.231.016c7.168.024,7.239.024,7.452.19a1.115,1.115,0,0,1,.545,1.058A1.115,1.115,0,0,1,73.1-442.4c-.213.166-.268.166-9.031.189-6.039.016-8.912,0-9.11-.063a1.351,1.351,0,0,1-.821-.908c-.126-.671-.095-.71,2.124-2.952,1.137-1.145,2.179-2.124,2.305-2.187A1.318,1.318,0,0,1,59.579-448.325Zm14.6,10.657a1.277,1.277,0,0,1,.726,1.453c-.047.253-.355.592-2.273,2.518-2.163,2.163-2.234,2.226-2.6,2.274a1.268,1.268,0,0,1-1.445-1.437c.047-.339.134-.45,1.05-1.381l.987-1.01H63.51c-7.784,0-7.436.024-7.847-.466a1.273,1.273,0,0,1,.458-1.95C56.476-437.826,73.812-437.826,74.183-437.668Z" transform="translate(329.78 952.49)" fill="#3efeab"/>
                </g>
              </g>
            </g>
          </g>
        </g>
        <text id="_0x5a119762Bfv..." data-name="0x5a119762Bfv..." transform="translate(28.209 97.152)" font-size="11" font-family="Montserrat-SemiBold, Montserrat" font-weight="600"><tspan x="0" y="0">0x5a119762Bfv...</tspan></text>
        <text id="_0x5a119762Bfv...-2" data-name="0x5a119762Bfv..." transform="translate(28.209 152.688)" font-size="11" font-family="Montserrat-SemiBold, Montserrat" font-weight="600"><tspan x="0" y="0">0x5a119762Bfv...</tspan></text>
        <text id="_0x5a119762Bfv...-3" data-name="0x5a119762Bfv..." transform="translate(28.209 208.224)" font-size="11" font-family="Montserrat-SemiBold, Montserrat" font-weight="600"><tspan x="0" y="0">0x5a119762Bfv...</tspan></text>
        <text id="_0x5a119762Bfv...-4" data-name="0x5a119762Bfv..." transform="translate(28.209 263.76)" font-size="11" font-family="Montserrat-SemiBold, Montserrat" font-weight="600"><tspan x="0" y="0">0x5a119762Bfv...</tspan></text>
        <text id="_0x5a119762Bfv...-5" data-name="0x5a119762Bfv..." transform="translate(200.987 97.152)" font-size="11" font-family="Montserrat-SemiBold, Montserrat" font-weight="600"><tspan x="0" y="0">0x5a119762Bfv...</tspan></text>
        <text id="_0x5a119762Bfv...-6" data-name="0x5a119762Bfv..." transform="translate(200.987 152.688)" font-size="11" font-family="Montserrat-SemiBold, Montserrat" font-weight="600"><tspan x="0" y="0">0x5a119762Bfv...</tspan></text>
        <text id="_0x5a119762Bfv...-7" data-name="0x5a119762Bfv..." transform="translate(200.987 208.224)" font-size="11" font-family="Montserrat-SemiBold, Montserrat" font-weight="600"><tspan x="0" y="0">0x5a119762Bfv...</tspan></text>
        <text id="_0x5a119762Bfv...-8" data-name="0x5a119762Bfv..." transform="translate(200.987 263.76)" font-size="11" font-family="Montserrat-SemiBold, Montserrat" font-weight="600"><tspan x="0" y="0">0x5a119762Bfv...</tspan></text>
        <g id="arrow_right_alt_black_24dp" transform="translate(151.622 94.192)">
          <path id="Path_20599" data-name="Path 20599" d="M32.218,10.645H4v1.763H32.218v2.645l3.517-3.526L32.218,8Z" transform="translate(-4 -8)"/>
        </g>
        <g id="arrow_right_alt_black_24dp-2" data-name="arrow_right_alt_black_24dp" transform="translate(151.622 149.728)">
          <path id="Path_20599-2" data-name="Path 20599" d="M32.218,10.645H4v1.763H32.218v2.645l3.517-3.526L32.218,8Z" transform="translate(-4 -8)"/>
        </g>
        <g id="arrow_right_alt_black_24dp-3" data-name="arrow_right_alt_black_24dp" transform="translate(151.622 205.264)">
          <path id="Path_20599-3" data-name="Path 20599" d="M32.218,10.645H4v1.763H32.218v2.645l3.517-3.526L32.218,8Z" transform="translate(-4 -8)"/>
        </g>
        <g id="arrow_right_alt_black_24dp-4" data-name="arrow_right_alt_black_24dp" transform="translate(151.622 260.8)">
          <path id="Path_20599-4" data-name="Path 20599" d="M32.218,10.645H4v1.763H32.218v2.645l3.517-3.526L32.218,8Z" transform="translate(-4 -8)"/>
        </g>
        <g id="Group_5682" data-name="Group 5682" transform="translate(324.175 75.321)">
          <g transform="matrix(1, 0, 0, 1, -668.68, -548.08)" filter="url(#Rectangle_8615-5)">
            <rect id="Rectangle_8615-13" data-name="Rectangle 8615" width="104" height="43" rx="12" transform="translate(669 548)" fill="#f5f5f5"/>
          </g>
          <text id="_0.08_Ether" data-name="0.08 Ether" transform="translate(23.32 25.923)" font-size="11" font-family="Montserrat-SemiBold, Montserrat" font-weight="600"><tspan x="0" y="0">0.08 Ether</tspan></text>
        </g>
        <g id="Group_5683" data-name="Group 5683" transform="translate(324.175 131.13)">
          <g transform="matrix(1, 0, 0, 1, -668.68, -603.88)" filter="url(#Rectangle_8615-6)">
            <rect id="Rectangle_8615-14" data-name="Rectangle 8615" width="104" height="43" rx="12" transform="translate(669 604)" fill="#f5f5f5"/>
          </g>
          <text id="_0.82_Ether" data-name="0.82 Ether" transform="translate(23.32 26.115)" font-size="11" font-family="Montserrat-SemiBold, Montserrat" font-weight="600"><tspan x="0" y="0">0.82 Ether</tspan></text>
        </g>
        <g id="Group_5684" data-name="Group 5684" transform="translate(324.175 185.865)">
          <g transform="matrix(1, 0, 0, 1, -668.68, -658.62)" filter="url(#Rectangle_8615-7)">
            <rect id="Rectangle_8615-15" data-name="Rectangle 8615" width="104" height="44" rx="12" transform="translate(669 659)" fill="#f5f5f5"/>
          </g>
          <text id="_0.65_Ether" data-name="0.65 Ether" transform="translate(24.32 26.38)" font-size="11" font-family="Montserrat-SemiBold, Montserrat" font-weight="600"><tspan x="0" y="0">0.65 Ether</tspan></text>
        </g>
        <g id="Group_5685" data-name="Group 5685" transform="translate(324.175 241.673)">
          <g transform="matrix(1, 0, 0, 1, -668.68, -714.43)" filter="url(#Rectangle_8615-8)">
            <rect id="Rectangle_8615-16" data-name="Rectangle 8615" width="104" height="44" rx="12" transform="translate(669 714)" fill="#f5f5f5"/>
          </g>
          <text id="_0.52_Ether" data-name="0.52 Ether" transform="translate(24.32 25.572)" font-size="11" font-family="Montserrat-SemiBold, Montserrat" font-weight="600"><tspan x="0" y="0">0.52 Ether</tspan></text>
        </g>
      </g>
      <g id="Group_5692" data-name="Group 5692" transform="translate(8.645 0)">
        <g transform="matrix(1, 0, 0, 1, -353.15, -415)" filter="url(#Rectangle_8616-3)">
          <rect id="Rectangle_8616-6" data-name="Rectangle 8616" width="205" height="39" rx="8" transform="translate(353 415)" fill="#21bdca"/>
        </g>
        <text id="Token_distribution_transactions" data-name="Token distribution transactions" transform="translate(13.852 24.004)" fill="#fff" font-size="11" font-family="Montserrat-SemiBold, Montserrat" font-weight="600"><tspan x="0" y="0">Token distribution transactions</tspan></text>
      </g>
    </g>
  </g>
</svg>
