<svg xmlns="http://www.w3.org/2000/svg" width="127" height="127" viewBox="0 0 127 127">
  <g id="Traceability" transform="translate(-1727 -2352)">
    <circle id="Ellipse_2714" data-name="Ellipse 2714" cx="63.5" cy="63.5" r="63.5" transform="translate(1727 2352)" fill="#ccecff"/>
    <g id="traceability-2" data-name="traceability" transform="translate(1765.5 2902.951)">
      <path id="Path_22202" data-name="Path 22202" d="M2.237-511.872a2.7,2.7,0,0,0-1.558,1.324C.509-510.229.5-509.487.5-487.925v22.295l.207.375a2.985,2.985,0,0,0,1.155,1.136c.319.169.92.178,16.052.207,17.282.019,16.184.056,16.916-.544a2.767,2.767,0,0,0,.582-.77l.244-.488v-5.125l.591-.376a3.691,3.691,0,0,1,.676-.375c.056,0,1.718,1.633,3.708,3.623,4.046,4.055,4.065,4.074,5.21,4.074a2.6,2.6,0,0,0,2.675-2.675c0-1.145-.019-1.164-4.074-5.21-1.99-1.99-3.623-3.642-3.623-3.689a9.848,9.848,0,0,1,.573-1.023,15.914,15.914,0,0,0,.676-15.273,16.374,16.374,0,0,0-6.008-6.609l-.4-.253v-3.53a17.541,17.541,0,0,0-.131-3.774c-.207-.385-5.7-5.82-6-5.933S2.612-511.984,2.237-511.872Zm26.284,3.389c0,2.018.038,2.225.507,2.844a2.834,2.834,0,0,0,.732.591c.5.272.5.272,2.4.3l1.9.038v2.628c0,2.459-.009,2.628-.16,2.581-.094-.028-.6-.206-1.117-.385a16.017,16.017,0,0,0-18.427,6.28,16,16,0,0,0,4.825,22.454,15.993,15.993,0,0,0,13.893,1.493c.516-.188.948-.338.967-.338s.019.9.019,2.009c0,1.84-.019,2.028-.178,2.225l-.178.225-15.555.028L2.6-465.489l-.282-.272-.272-.272v-43.782l.272-.272.272-.272H28.521Zm3.051.751,1.408,1.408H31.835c-1.089,0-1.155-.009-1.427-.244l-.291-.244v-1.164a10.99,10.99,0,0,1,.028-1.164C30.154-509.14,30.8-508.511,31.572-507.732Zm-.7,8.946a14.377,14.377,0,0,1,10.5,9.594,14.1,14.1,0,0,1,.385,7.566,14.276,14.276,0,0,1-3.9,7.078,14.267,14.267,0,0,1-14.635,3.511,14.388,14.388,0,0,1-9.6-10.5,17.085,17.085,0,0,1-.141-5.585,13.857,13.857,0,0,1,4.046-7.754,13.984,13.984,0,0,1,7.613-4.027A18.271,18.271,0,0,1,30.868-498.786Zm9.275,26.51-.779.779-.573-.573-.573-.573.76-.77.76-.77.591.563.582.573Zm6.646,5.21a.882.882,0,0,1-.056.986,1.071,1.071,0,0,1-1.117.544c-.282-.047-.7-.432-2.713-2.422l-2.366-2.366.77-.77.779-.779,2.281,2.272C45.624-468.343,46.713-467.207,46.788-467.066Z" fill="#21bdca"/>
      <path id="Path_22203" data-name="Path 22203" d="M95.349-451.737a2.385,2.385,0,0,0,.047,4.271c.385.207.413.207,7.275.235,7.651.028,7.407.047,8.148-.591a2.487,2.487,0,0,0,.638-2.75,2.879,2.879,0,0,0-1.436-1.314c-.272-.084-2.206-.113-7.275-.113h-6.9Zm14.391,1.521a.819.819,0,0,1,.282.413.885.885,0,0,1-.441.9c-.16.056-2.694.094-6.815.094h-6.58l-.272-.272a.713.713,0,0,1-.038-1.089l.225-.235h6.7C109.336-450.4,109.514-450.4,109.739-450.216Z" transform="translate(-84.767 -54.324)" fill="#21bdca"/>
      <path id="Path_22204" data-name="Path 22204" d="M51.272-366.728A.892.892,0,0,0,51-366.2a.892.892,0,0,0,.272.526l.272.272H60.96l.225-.235a.83.83,0,0,0,.113-1c-.272-.357-.413-.366-5.135-.366H51.544Z" transform="translate(-45.759 -131.345)" fill="#21bdca"/>
      <path id="Path_22205" data-name="Path 22205" d="M51.587-323.812a.732.732,0,0,0-.188.9c.225.488.347.507,3.577.507h2.995l.282-.282c.244-.253.282-.338.235-.638-.113-.685-.084-.676-3.577-.676C51.906-324,51.784-323.991,51.587-323.812Z" transform="translate(-46.046 -170.308)" fill="#21bdca"/>
      <path id="Path_22206" data-name="Path 22206" d="M51.746-281.649a.758.758,0,0,0-.207,1.267c.178.178.319.188,2.525.188,2.619,0,2.685-.019,2.788-.667a.609.609,0,0,0-.178-.61l-.235-.272-2.2-.019A8.418,8.418,0,0,0,51.746-281.649Z" transform="translate(-46.018 -208.576)" fill="#21bdca"/>
      <path id="Path_22207" data-name="Path 22207" d="M51.338-238.818a.645.645,0,0,0-.009,1.051l.272.272h1.9c1.877,0,1.887,0,2.112-.235a.829.829,0,0,0,.056-1.089c-.178-.225-.207-.225-2.112-.253L51.62-239.1Z" transform="translate(-45.816 -247.238)" fill="#21bdca"/>
      <path id="Path_22208" data-name="Path 22208" d="M51.656-195.812a.782.782,0,0,0,.169,1.286,14.155,14.155,0,0,0,3.933-.019.749.749,0,0,0,.15-1.22c-.225-.235-.235-.235-2.14-.235C51.984-196,51.844-195.991,51.656-195.812Z" transform="translate(-46.115 -286.293)" fill="#21bdca"/>
      <path id="Path_22209" data-name="Path 22209" d="M51.746-153.649a.758.758,0,0,0-.207,1.267c.178.178.319.188,2.525.188,2.619,0,2.685-.019,2.788-.666a.609.609,0,0,0-.178-.61l-.235-.272-2.2-.019A8.418,8.418,0,0,0,51.746-153.649Z" transform="translate(-46.018 -324.56)" fill="#21bdca"/>
      <path id="Path_22210" data-name="Path 22210" d="M51.272-110.728A.892.892,0,0,0,51-110.2a.892.892,0,0,0,.272.526l.272.272h3.483c3.473,0,3.473,0,3.708-.216a.746.746,0,0,0,.009-1.145L58.519-111H51.544Z" transform="translate(-45.759 -363.313)" fill="#21bdca"/>
      <path id="Path_22211" data-name="Path 22211" d="M51.587-67.812a.732.732,0,0,0-.188.9c.235.507.169.507,5.961.507h5.36l.291-.244a.712.712,0,0,0,.056-1.117L62.843-68H57.313C51.9-68,51.784-68,51.587-67.812Z" transform="translate(-46.046 -402.277)" fill="#21bdca"/>
      <path id="Path_22212" data-name="Path 22212" d="M165.237-357.821a12.977,12.977,0,0,0-8.73,5.6,13.051,13.051,0,0,0-1.906,4.543,18.067,18.067,0,0,0,0,5.032,12.786,12.786,0,0,0,3.53,6.505,12.579,12.579,0,0,0,6.487,3.52,17.309,17.309,0,0,0,5.069.009,12.917,12.917,0,0,0,9.622-8.542,12.421,12.421,0,0,0,.62-4.037,11.754,11.754,0,0,0-.62-3.98,12.807,12.807,0,0,0-6.74-7.585,7.97,7.97,0,0,0-2.75-.835.918.918,0,0,0-.6.779c0,.451.235.638,1.108.9a10.948,10.948,0,0,1,4.515,2.628,11.182,11.182,0,0,1,1.915,13.959,11.3,11.3,0,0,1-11.105,5.294,11.208,11.208,0,0,1-9.481-8.89,14.241,14.241,0,0,1-.141-3.7,10.921,10.921,0,0,1,3.229-6.44,10.954,10.954,0,0,1,6.853-3.239c1.164-.066,1.408-.122,1.615-.329a.842.842,0,0,0-.038-1.1c-.2-.178-.319-.207-1.061-.2A13.5,13.5,0,0,0,165.237-357.821Z" transform="translate(-139.476 -139.575)" fill="#21bdca"/>
      <path id="Path_22213" data-name="Path 22213" d="M244.546-261l-3,2.995-.62-.6c-.648-.629-.967-.751-1.389-.516a.953.953,0,0,0-.357.864,7.361,7.361,0,0,0,1.08,1.23c.826.807,1.08,1,1.3,1s.779-.507,3.717-3.455c3.135-3.135,3.454-3.473,3.454-3.755a.784.784,0,0,0-.817-.77C247.568-264,247.428-263.869,244.546-261Z" transform="translate(-216.26 -224.676)" fill="#21bdca"/>
    </g>
  </g>
</svg>
