<svg xmlns="http://www.w3.org/2000/svg" width="127" height="127" viewBox="0 0 127 127">
  <g id="Transparency" transform="translate(-1114 -4023)">
    <circle id="Ellipse_2714" data-name="Ellipse 2714" cx="63.5" cy="63.5" r="63.5" transform="translate(1114 4023)" fill="#ccecff"/>
    <g id="transparency-_2_" transform="translate(1152.375 4573.633)">
      <path id="Path_22189" data-name="Path 22189" d="M16.461-511.61A17.074,17.074,0,0,0,5.64-506.593a17.255,17.255,0,0,0-4.893,9.72,24.48,24.48,0,0,0,0,4.884A17.107,17.107,0,0,0,5.612-482.3a16.1,16.1,0,0,0,4.826,3.419,17.187,17.187,0,0,0,16.672-1.053l.68-.441,1.082,1.082,1.082,1.073-.421.479c-.469.536-.565.852-.383,1.264.067.153,3.007,3.16,6.521,6.665,6.224,6.2,6.425,6.378,7.105,6.684a4.635,4.635,0,0,0,4.185-.077,4.714,4.714,0,0,0,2.145-6.253c-.306-.68-.488-.871-6.732-7.134-4.357-4.376-6.521-6.473-6.722-6.54-.383-.134-.642-.029-1.2.46l-.44.393-1.073-1.082-1.082-1.082.44-.68A17.21,17.21,0,0,0,33.353-501.8a16.159,16.159,0,0,0-3.419-4.817,17.111,17.111,0,0,0-9.643-4.855A29.176,29.176,0,0,0,16.461-511.61Zm2.882,1.953a15.173,15.173,0,0,1,9.26,4.4,15.306,15.306,0,0,1-3.045,24.026,15.339,15.339,0,0,1-19.928-3.917,15.314,15.314,0,0,1,0-18.558A15.346,15.346,0,0,1,19.344-509.657Zm12.65,29.417-.689.7L30.3-480.546l-1.005-1.005.689-.689.7-.7,1.005,1.005,1.005,1.005Zm4.8.728L38.1-478.2l-2.04,2.04-2.03,2.03-1.341-1.341-1.341-1.341,2.011-2.011c1.1-1.111,2.03-2.011,2.059-2.011S36.063-480.24,36.791-479.512Zm10.62,10.888a3.227,3.227,0,0,1,.01,2.356,2.8,2.8,0,0,1-2.566,1.666c-1.283,0-1.178.086-5.535-4.252l-3.9-3.888,2.03-2.03,2.04-2.04,3.85,3.85C46.405-469.888,47.238-469.007,47.411-468.624Z" fill="#21bdca"/>
      <path id="Path_22190" data-name="Path 22190" d="M51.833-471.676a13.365,13.365,0,0,0-11.482,12.094,13.38,13.38,0,0,0,5.181,11.788,13.377,13.377,0,0,0,20.5-5.487,13.494,13.494,0,0,0-.01-10.275A13.388,13.388,0,0,0,51.833-471.676Zm4.089,2.011a11.458,11.458,0,0,1,7.881,5.9,10.493,10.493,0,0,1,1.312,5.353,10.492,10.492,0,0,1-1.293,5.324,11.433,11.433,0,0,1-15.178,4.979,11.472,11.472,0,0,1-6.234-8.1,15.161,15.161,0,0,1-.048-4.213,11.465,11.465,0,0,1,11.6-9.442A14.166,14.166,0,0,1,55.922-469.665Z" transform="translate(-35.87 -36.018)" fill="#21bdca"/>
      <path id="Path_22191" data-name="Path 22191" d="M92.673-431.535a9.642,9.642,0,0,0-6.205,3.9,9.812,9.812,0,0,0-1.283,2.6.937.937,0,0,0,1.1,1.063c.383-.077.632-.373.91-1.082a8.037,8.037,0,0,1,2.854-3.419,7.42,7.42,0,0,1,3.62-1.245c.919-.077,1.226-.191,1.4-.536a.833.833,0,0,0-.134-1.063c-.249-.278-.326-.306-.881-.326A7.168,7.168,0,0,0,92.673-431.535Z" transform="translate(-76.451 -72.329)" fill="#21bdca"/>
      <path id="Path_22192" data-name="Path 22192" d="M81.2-330.764a.91.91,0,0,0,.67,1.57.911.911,0,0,0,.824-1.3A.91.91,0,0,0,81.2-330.764Z" transform="translate(-72.6 -163.293)" fill="#21bdca"/>
    </g>
  </g>
</svg>
