<svg xmlns="http://www.w3.org/2000/svg" width="119" height="119" viewBox="0 0 119 119">
  <g id="_1" data-name="1" transform="translate(-0.479)">
    <circle id="Ellipse_62" data-name="Ellipse 62" cx="59.5" cy="59.5" r="59.5" transform="translate(0.479)" fill="rgba(22,190,207,0.67)"/>
    <g id="money" transform="translate(29.436 29.436)">
      <path id="Path_1043" data-name="Path 1043" d="M27.293-511.463a31.5,31.5,0,0,0-10.826,3.157,18.5,18.5,0,0,0-3.758,2.415,1.3,1.3,0,0,0,.259,1.378c.542.542.919.471,2.368-.436a27.972,27.972,0,0,1,25.091-2.332,28.355,28.355,0,0,1,8.54,5.372c1.084,1,1.449,1.119,2.144.7l.365-.236.059.259c.283,1.166.907,4.594.86,4.641s-4.311-.707-4.759-.86c-.118-.035-.094-.141.094-.459.389-.636.259-1.072-.565-1.849a24.934,24.934,0,0,0-11.921-6.149,23.964,23.964,0,0,0-10.107,0A25.039,25.039,0,0,0,6.514-489.353a28.268,28.268,0,0,0-1.131,5.03c-.035.389-.094.931-.13,1.2l-.059.507H2.367l.071-.8a28.322,28.322,0,0,1,4.229-12.864c.907-1.449.978-1.826.436-2.368a1.3,1.3,0,0,0-1.378-.259,18.491,18.491,0,0,0-2.415,3.758,30.865,30.865,0,0,0-3.157,11c-.247,2.662-.153,3.393.471,3.722a29.541,29.541,0,0,0,6.29.024c.436-.2.648-.671.648-1.473,0-.377.059-1.19.118-1.8a22.611,22.611,0,0,1,12.9-18.212,22.573,22.573,0,0,1,23.654,2.745l.813.648-.471.495c-.836.872-.966,1.508-.4,2.061.294.294.648.389,4.924,1.225,2.544.495,4.771.907,4.971.907a1.1,1.1,0,0,0,1.025-.872c.082-.389-1.567-9.035-1.849-9.765a1.244,1.244,0,0,0-1.037-.671,2.158,2.158,0,0,0-1.343.8l-.448.471-1.2-.954a30.169,30.169,0,0,0-15.208-6.561A47.427,47.427,0,0,0,27.293-511.463Z" transform="translate(-0.026 511.538)" fill="#fff"/>
      <path id="Path_1044" data-name="Path 1044" d="M72.439-439.561a1.018,1.018,0,0,0-.236,1.355,1.253,1.253,0,0,0,1.013.6,1.246,1.246,0,0,0,1.178-1.166,1.257,1.257,0,0,0-.6-1.025A1.018,1.018,0,0,0,72.439-439.561Z" transform="translate(-63.561 448.388)" fill="#fff"/>
      <path id="Path_1045" data-name="Path 1045" d="M133.026-393.692a16.4,16.4,0,0,0-14.277,12.922,19.574,19.574,0,0,0,0,6.526,16.418,16.418,0,0,0,12.946,12.722,20.19,20.19,0,0,0,6.243-.059,16.4,16.4,0,0,0,12.722-12.946,21.051,21.051,0,0,0,0-5.961A16.37,16.37,0,0,0,138-393.409,24.153,24.153,0,0,0,133.026-393.692Zm3.475,2.4a13.8,13.8,0,0,1,7.963,3.993,13.646,13.646,0,0,1,3.734,6.6,10.315,10.315,0,0,1,.306,3.192,9.952,9.952,0,0,1-.318,3.192,13.545,13.545,0,0,1-3.722,6.6,13.753,13.753,0,0,1-6.6,3.734,10.316,10.316,0,0,1-3.192.306,10.848,10.848,0,0,1-3.063-.271,16.109,16.109,0,0,1-4.335-1.8,16.448,16.448,0,0,1-4.217-4.158,13.8,13.8,0,0,1,0-15.2,16.448,16.448,0,0,1,4.217-4.158A14.127,14.127,0,0,1,136.5-391.289Z" transform="translate(-104.522 407.608)" fill="#fff"/>
      <path id="Path_1046" data-name="Path 1046" d="M216.946-346.593a1.4,1.4,0,0,0-.754,1.437c0,.6-.035.7-.212.7a3.629,3.629,0,0,0-.942.365,4.482,4.482,0,0,0-1.991,2.1,3.124,3.124,0,0,0-.33,1.838,3.127,3.127,0,0,0,.342,1.861,4.689,4.689,0,0,0,2.332,2.038l.8.4v6.031l-.436-.082a7.1,7.1,0,0,1-1.414-.554l-.966-.471-.448.212a1.133,1.133,0,0,0-.236,1.979,7.776,7.776,0,0,0,2.733,1.166l.766.13v.683a1.206,1.206,0,0,0,.342,1.06.891.891,0,0,0,.836.389.891.891,0,0,0,.836-.389c.295-.33.342-.471.342-1.119v-.742l.777-.33a5.634,5.634,0,0,0,3.051-3.546,4.589,4.589,0,0,0-2.709-5.548,6.438,6.438,0,0,0-.989-.4,7.75,7.75,0,0,1-.13-2.368v-2.356l.719.377c.942.507,1.449.507,1.908-.012a1.1,1.1,0,0,0-.165-1.673,7.709,7.709,0,0,0-2.274-1.037c-.153,0-.188-.141-.188-.707,0-.6-.047-.754-.318-1.06A1.209,1.209,0,0,0,216.946-346.593Zm-.754,6.314c0,1.178-.035,1.708-.13,1.708a1.791,1.791,0,0,1-.589-.459,1.087,1.087,0,0,1-.459-1,3.289,3.289,0,0,1,.165-.954c.188-.436.683-1,.9-1A5.159,5.159,0,0,1,216.192-340.279Zm3.051,5.725a2.187,2.187,0,0,1,.919,2.05,3.02,3.02,0,0,1-1.4,2.285c-.2.153-.212.024-.212-2.273a16.585,16.585,0,0,1,.094-2.427A2.465,2.465,0,0,1,219.243-334.554Z" transform="translate(-187.217 366.082)" fill="#fff"/>
      <path id="Path_1047" data-name="Path 1047" d="M92.191-265.923c-.424.236-.589.636-.6,1.425A28.57,28.57,0,0,1,91-259.845a22.666,22.666,0,0,1-6.055,10.908,22.652,22.652,0,0,1-20.626,6.161,23.221,23.221,0,0,1-9.4-4.429l-.813-.648.471-.495c.836-.872.966-1.508.4-2.061-.295-.306-.636-.389-4.912-1.225-2.533-.507-4.783-.907-4.995-.907A1.19,1.19,0,0,0,44-251.517c0,.424,1.732,9.176,1.908,9.612a1.244,1.244,0,0,0,1.037.671,2.158,2.158,0,0,0,1.343-.8l.448-.471,1.2.954a29.609,29.609,0,0,0,13.735,6.314A30,30,0,0,0,90.283-243.6,30.014,30.014,0,0,0,99-262.2c.247-2.662.153-3.393-.471-3.722A28.5,28.5,0,0,0,92.191-265.923ZM96.7-263a27.934,27.934,0,0,1-4.5,13.347,27.864,27.864,0,0,1-19.284,12.263,34.841,34.841,0,0,1-7.834.012A27.741,27.741,0,0,1,50.5-244.166c-1.425-1.284-1.732-1.4-2.462-.966l-.365.236-.059-.259c-.283-1.166-.907-4.594-.86-4.641s4.3.707,4.747.848c.106.035.082.165-.094.471-.365.613-.236,1.06.518,1.779a25.13,25.13,0,0,0,19.413,6.644,25.021,25.021,0,0,0,20.073-13.959,25.584,25.584,0,0,0,2.356-8.01c.035-.389.094-.931.13-1.213l.059-.495h2.815Z" transform="translate(-38.82 295.012)" fill="#fff"/>
    </g>
  </g>
</svg>
