<svg width="800" height="600" xmlns="http://www.w3.org/2000/svg" stroke="null" style="vector-effect: non-scaling-stroke;">

 <g stroke="null">
  <title stroke="null">Layer 1</title>
  <metadata stroke="null" style="vector-effect: non-scaling-stroke;">Created by potrace 1.16, written by Peter Selinger 2001-2019</metadata>
  <g stroke="null" id="svg_6">
   <g stroke="null" id="svg_4" fill="#000000" transform="matrix(0.400702 0 0 -0.265642 -3471.32 -829.225)">
    <path stroke="null" id="svg_5" d="m8668.08521,-3227.74518c0,-5 151,-389 335,-853c185,-464 370,-930 412,-1036c42,-105 80,-192 84,-192c6,0 1112,1338 1153,1394c8,12 -26,47 -286,293c-107,102 -122,112 -170,122c-29,6 -372,69 -763,141c-390,71 -722,133 -737,136c-16,3 -28,1 -28,-5zm880,-282c278,-50 508,-95 512,-98c7,-6 -370,-327 -396,-337c-9,-3 -591,467 -646,523c-13,13 -13,15 5,10c11,-3 247,-47 525,-98zm-262,-302l313,-259l-7,-57c-3,-31 -27,-232 -53,-445l-47,-388l-290,731c-264,663 -288,728 -260,704c17,-14 172,-143 344,-286zm1044,47l105,-101l-289,-53c-159,-28 -291,-50 -294,-48c-6,6 358,309 367,306c4,-2 54,-48 111,-104zm-20,-363c-59,-71 -237,-289 -397,-484c-159,-195 -291,-354 -291,-353c-2,1 89,754 98,821c3,18 35,26 338,81c184,34 341,62 347,63c7,0 -36,-57 -95,-128z"/>
   </g>
  </g>
 </g>
</svg>