<svg xmlns="http://www.w3.org/2000/svg" width="85.059" height="106.086" viewBox="0 0 85.059 106.086">
  <g id="Usability_110px" transform="translate(-13 -3)">
    <ellipse id="Oval-Copy-4" cx="9.363" cy="9.355" rx="9.363" ry="9.355" transform="translate(35.962 3)" fill="#16becf"/>
    <ellipse id="Oval-Copy-5" cx="4.77" cy="4.763" rx="4.77" ry="4.763" transform="translate(88.518 16.267)" fill="#16becf"/>
    <ellipse id="Oval-Copy-6" cx="4.77" cy="4.763" rx="4.77" ry="4.763" transform="translate(13 25.451)" fill="#16becf"/>
    <path id="Line-4" d="M20.489,28.334l25.117-15.7,47.82,8.648" transform="translate(0.154 0.198)" fill="none" stroke="#16becf" stroke-linecap="square" stroke-width="2" fill-rule="evenodd"/>
    <path id="Combined-Shape" d="M75.964,42.77l.052.016a6.121,6.121,0,0,1,12.194.81q0,.042,0,.085V54.65q.124,9.823.124,14.416a65.058,65.058,0,0,1-4.372,21.374q-2.356,5.5-.9,17.162l-40.958.211V97.641c0-7.96-13.6-8.9-14.1-17.349a14.026,14.026,0,0,1,.012-1.719Q28,78.391,28,78.21V52.77a6.115,6.115,0,0,1,10.635-4.157q.24-.506.486-1.018l.105.067q0-.034,0-.067l-.1-26.54c0-.016,0-.032,0-.048,0-3.4,2.846-5.006,6.228-5.006s6.123,1.958,6.123,5.362c0,.011,0,.021,0,.032V39.663l.063-.014a6.118,6.118,0,0,1,12.136.114h.095a6.119,6.119,0,0,1,12.151,0h.047Z" transform="translate(0.307 0.267)" fill="#fff" stroke="#16becf" stroke-linecap="round" stroke-width="2" fill-rule="evenodd"/>
    <path id="Line-5" d="M51,37V59.236" transform="translate(0.779 0.697)" fill="none" stroke="#16becf" stroke-linecap="round" stroke-width="2" fill-rule="evenodd"/>
    <path id="Line-5-Copy-3" d="M39,45V67.236" transform="translate(0.533 0.861)" fill="none" stroke="#16becf" stroke-linecap="round" stroke-width="2" fill-rule="evenodd"/>
    <path id="Line-5-Copy" d="M63,38.21v21" transform="translate(1.026 0.722)" fill="none" stroke="#16becf" stroke-linecap="round" stroke-width="2" fill-rule="evenodd"/>
    <path id="Line-5-Copy-2" d="M75,42V59.145" transform="translate(1.272 0.8)" fill="none" stroke="#16becf" stroke-linecap="round" stroke-width="2" fill-rule="evenodd"/>
  </g>
</svg>
