<svg xmlns="http://www.w3.org/2000/svg" width="119" height="119" viewBox="0 0 119 119">
  <g id="_2" data-name="2" transform="translate(0.156)">
    <circle id="Ellipse_62" data-name="Ellipse 62" cx="59.5" cy="59.5" r="59.5" transform="translate(-0.156)" fill="rgba(22,190,207,0.67)"/>
    <g id="validate-_1_" transform="translate(29.798 29.798)">
      <path id="Path_1050" data-name="Path 1050" d="M196.66-511.536a7.761,7.761,0,0,0-5.745,5.15,5.67,5.67,0,0,0-.315,2.394,5.912,5.912,0,0,0,.315,2.417,7.925,7.925,0,0,0,4.893,4.916,5.641,5.641,0,0,0,2.429.3,5.64,5.64,0,0,0,2.429-.3,7.925,7.925,0,0,0,4.893-4.916,5.881,5.881,0,0,0,.315-2.417,5.494,5.494,0,0,0-.327-2.394,7.591,7.591,0,0,0-7.018-5.266A7.905,7.905,0,0,0,196.66-511.536Zm3.363,2.067a5.533,5.533,0,0,1,2.382,1.541,5.3,5.3,0,0,1,1.576,3.935,5.692,5.692,0,0,1-5.745,5.757,5.773,5.773,0,0,1-5.547-4.157,7.05,7.05,0,0,1,0-3.2,5.917,5.917,0,0,1,3.667-3.842A6.326,6.326,0,0,1,200.023-509.469Z" transform="translate(-168.414 511.659)" fill="#fff"/>
      <path id="Path_1051" data-name="Path 1051" d="M229.645-466.424l-1.576,1.576-.607-.607-.619-.619-.677.677-.666.666,1.284,1.284,1.284,1.284,2.184-2.2c1.214-1.2,2.23-2.219,2.277-2.277A5.254,5.254,0,0,0,231.28-468C231.245-468,230.509-467.288,229.645-466.424Z" transform="translate(-199.239 473.098)" fill="#fff"/>
      <path id="Path_1052" data-name="Path 1052" d="M57.8-500.172a3.18,3.18,0,0,0-.525.747c.023.047.841.782,1.822,1.635l1.787,1.541-.852.49a27.816,27.816,0,0,0-10.486,10.614,5.6,5.6,0,0,0-.455.946,11.85,11.85,0,0,0,1.611.771,3.691,3.691,0,0,0,.607-.911,25.445,25.445,0,0,1,10.708-10.287,6.4,6.4,0,0,0,1.471-.9,1.515,1.515,0,0,0,0-.911c-.082-.2-4.776-4.309-5-4.367A2.206,2.206,0,0,0,57.8-500.172Z" transform="translate(-43.423 502.071)" fill="#fff"/>
      <path id="Path_1053" data-name="Path 1053" d="M352.374-462.241a5.356,5.356,0,0,0-.374.864,4.951,4.951,0,0,0,1.086.7A25.328,25.328,0,0,1,363.2-450.05a6.5,6.5,0,0,0,.9,1.46,1.134,1.134,0,0,0,1.2-.257c.514-.49,4.1-4.659,4.1-4.776A5.581,5.581,0,0,0,368-454.8c-.047.023-.782.841-1.635,1.822l-1.541,1.787-.525-.911a26.147,26.147,0,0,0-4.717-6.06,27.985,27.985,0,0,0-4.788-3.76,17.875,17.875,0,0,0-2-1.074A5.263,5.263,0,0,0,352.374-462.241Z" transform="translate(-310.967 468.682)" fill="#fff"/>
      <path id="Path_1054" data-name="Path 1054" d="M188.551-362.641a10.432,10.432,0,0,0-1.868.712,7.143,7.143,0,0,0-2.125,1.623,6.351,6.351,0,0,0-1.658,2.219,8.256,8.256,0,0,0-.9,3.853,8.153,8.153,0,0,0,.876,3.795,8.416,8.416,0,0,0,2.6,3.153,7.152,7.152,0,0,1,1.1,1.028,12.289,12.289,0,0,1,.21,2.884c.058,2.417.082,2.674.327,3.211a4.43,4.43,0,0,0,1.833,1.9,2.725,2.725,0,0,0,1.693.315,2.725,2.725,0,0,0,1.693-.315,4.43,4.43,0,0,0,1.833-1.9c.245-.537.269-.794.327-3.211a12.2,12.2,0,0,1,.21-2.884,5.818,5.818,0,0,1,.934-.9,8.689,8.689,0,0,0,3.643-7.041,8.228,8.228,0,0,0-.876-3.83,8.106,8.106,0,0,0-3.97-3.97,10.491,10.491,0,0,0-1.892-.689A10.442,10.442,0,0,0,188.551-362.641Zm3.433,1.81a6.94,6.94,0,0,1,5.43,6.6,7.182,7.182,0,0,1-3.083,5.652,3.868,3.868,0,0,0-1.7,2.709c0,.257-.047.28-.525.28h-.525v-2.966c0-2.919,0-2.978.245-3.048a3.74,3.74,0,0,0,1.425-1.39,3.007,3.007,0,0,0-.537-3.246,2.907,2.907,0,0,0-4.1-.023,2.937,2.937,0,0,0-.572,3.27,3.827,3.827,0,0,0,1.425,1.39c.245.07.245.128.245,3.048v2.966h-1l-.14-.654a3.861,3.861,0,0,0-1.67-2.382,11.487,11.487,0,0,1-1.331-1.191,7.47,7.47,0,0,1-1.693-4.414,7.028,7.028,0,0,1,3.737-6A6.494,6.494,0,0,1,191.984-360.831Zm-.7,5.955a.91.91,0,0,1,.292.642.91.91,0,0,1-.292.642.922.922,0,0,1-1.576-.642.986.986,0,0,1,.934-.934A.91.91,0,0,1,191.283-354.876Zm1.32,12.459c-.058,1.308-.222,1.763-.747,2.184a1.9,1.9,0,0,1-2.429,0c-.525-.42-.689-.876-.747-2.184l-.058-1.191h4.04Z" transform="translate(-160.818 380.233)" fill="#fff"/>
      <path id="Path_1055" data-name="Path 1055" d="M6.4-321.582a7.673,7.673,0,0,0-5.476,5.091A5.494,5.494,0,0,0,.6-314.1,5.494,5.494,0,0,0,.927-311.7a7.722,7.722,0,0,0,4.916,4.916,5.494,5.494,0,0,0,2.394.327,5.881,5.881,0,0,0,2.417-.315,7.925,7.925,0,0,0,4.916-4.893,5.641,5.641,0,0,0,.3-2.429,5.641,5.641,0,0,0-.3-2.429,7.851,7.851,0,0,0-4.916-4.881A8.388,8.388,0,0,0,6.4-321.582Zm3.468,1.962a5.51,5.51,0,0,1,2.44,1.448,5.758,5.758,0,0,1,0,8.151,5.515,5.515,0,0,1-4.075,1.67A5.3,5.3,0,0,1,4.3-309.928,5.3,5.3,0,0,1,2.515-314.1,5.3,5.3,0,0,1,4.3-318.266,5.549,5.549,0,0,1,9.871-319.62Z" transform="translate(-0.6 343.95)" fill="#fff"/>
      <path id="Path_1056" data-name="Path 1056" d="M39.7-276.482a15.649,15.649,0,0,1-1.635,1.518,2.837,2.837,0,0,1-.666-.549l-.56-.56-.677.677-.666.666,1.284,1.284,1.284,1.284,2.277-2.277,2.277-2.277-.642-.642a5.76,5.76,0,0,0-.7-.642C41.245-278,40.533-277.323,39.7-276.482Z" transform="translate(-31.425 305.284)" fill="#fff"/>
      <path id="Path_1057" data-name="Path 1057" d="M386.392-321.517a7.213,7.213,0,0,0-2.651,1.238,7.894,7.894,0,0,0-2.838,3.818,5.642,5.642,0,0,0-.3,2.429,5.641,5.641,0,0,0,.3,2.429,7.925,7.925,0,0,0,4.916,4.893,5.882,5.882,0,0,0,2.417.315,5.494,5.494,0,0,0,2.394-.327,7.774,7.774,0,0,0,4.939-4.963,5.618,5.618,0,0,0,.3-2.347,5.493,5.493,0,0,0-.327-2.394,7.565,7.565,0,0,0-7.076-5.266A6.153,6.153,0,0,0,386.392-321.517Zm3.48,1.962a5.132,5.132,0,0,1,2.3,1.355,5.3,5.3,0,0,1,1.787,4.145,5.243,5.243,0,0,1-1.483,3.877,5.345,5.345,0,0,1-4.227,1.88,5.664,5.664,0,0,1-5.768-5.733A5.734,5.734,0,0,1,389.871-319.556Z" transform="translate(-336.228 343.885)" fill="#fff"/>
      <path id="Path_1058" data-name="Path 1058" d="M419.645-276.424l-1.576,1.576-.607-.607-.619-.619-.677.677-.666.666,1.284,1.284,1.284,1.284,2.277-2.277,2.277-2.277-.642-.642a5.766,5.766,0,0,0-.7-.642C421.245-278,420.509-277.288,419.645-276.424Z" transform="translate(-367.052 305.284)" fill="#fff"/>
      <path id="Path_1059" data-name="Path 1059" d="M15.1-172.735c-.514.5-4.1,4.671-4.1,4.788a5.581,5.581,0,0,0,1.4,1.179c.047-.023.782-.841,1.635-1.822l1.541-1.787.49.852a27.654,27.654,0,0,0,10.614,10.486,5.6,5.6,0,0,0,.946.455,11.86,11.86,0,0,0,.771-1.611,3.77,3.77,0,0,0-.9-.607,25.294,25.294,0,0,1-10.3-10.719,6.5,6.5,0,0,0-.9-1.46A1.153,1.153,0,0,0,15.1-172.735Z" transform="translate(-9.786 212.596)" fill="#fff"/>
      <path id="Path_1060" data-name="Path 1060" d="M351.09-158.926a25.435,25.435,0,0,1-10.941,10.287,4.312,4.312,0,0,0-1.144.724,1.127,1.127,0,0,0,.257,1.214c.49.514,4.659,4.1,4.776,4.1a5.836,5.836,0,0,0,1.179-1.4c-.023-.047-.841-.782-1.822-1.635l-1.775-1.541,1.226-.724a28.2,28.2,0,0,0,8.945-8.477,19.848,19.848,0,0,0,1.611-2.849A11.859,11.859,0,0,0,351.79-160,5.052,5.052,0,0,0,351.09-158.926Z" transform="translate(-299.419 201.063)" fill="#fff"/>
      <path id="Path_1061" data-name="Path 1061" d="M196.777-131.585a7.881,7.881,0,0,0-5.862,5.173A5.912,5.912,0,0,0,190.6-124a5.67,5.67,0,0,0,.315,2.394,7.818,7.818,0,0,0,4.974,4.939,5.618,5.618,0,0,0,2.347.3,5.494,5.494,0,0,0,2.394-.327,7.721,7.721,0,0,0,4.916-4.916,5.494,5.494,0,0,0,.327-2.394,5.881,5.881,0,0,0-.315-2.417,7.854,7.854,0,0,0-4.893-4.9,6.541,6.541,0,0,0-2.137-.339A9.961,9.961,0,0,0,196.777-131.585Zm3.094,2.067a5.81,5.81,0,0,1,3.912,3.923,6.225,6.225,0,0,1-.561,4.519,7.6,7.6,0,0,1-1.938,1.973,5.944,5.944,0,0,1-6.1,0,7.249,7.249,0,0,1-2-2.09,6.022,6.022,0,0,1-.012-5.6A5.772,5.772,0,0,1,199.872-129.518Z" transform="translate(-168.414 176.035)" fill="#fff"/>
      <path id="Path_1062" data-name="Path 1062" d="M229.7-86.482a15.655,15.655,0,0,1-1.635,1.518,2.838,2.838,0,0,1-.666-.549l-.561-.561-.677.677-.666.666,1.284,1.284,1.284,1.284,2.277-2.277,2.277-2.277-.642-.642a5.76,5.76,0,0,0-.7-.642C231.245-88,230.533-87.323,229.7-86.482Z" transform="translate(-199.239 137.47)" fill="#fff"/>
    </g>
  </g>
</svg>
