<svg xmlns="http://www.w3.org/2000/svg" width="50" height="50" viewBox="0 0 50 50">
  <g id="Verifiability" transform="translate(-0.4 -0.3)">
    <path id="Path_656" data-name="Path 656" d="M26.259,25.3,21.4,30.159l4.859,4.859" transform="translate(11.659 13.871)" fill="none" stroke="#fff" stroke-miterlimit="10" stroke-width="2"/>
    <path id="Path_657" data-name="Path 657" d="M1.4,26.975V4.3H17.6" transform="translate(0 1.859)" fill="none" stroke="#fff" stroke-linejoin="round" stroke-miterlimit="10" stroke-width="2"/>
    <path id="Path_658" data-name="Path 658" d="M8.4,11.018l4.859-4.859L8.4,1.3" transform="translate(4.081)" fill="none" stroke="#fff" stroke-miterlimit="10" stroke-width="2"/>
    <path id="Path_659" data-name="Path 659" d="M21.4,36.975H37.6V14.3" transform="translate(11.393 7.055)" fill="none" stroke="#fff" stroke-linejoin="round" stroke-miterlimit="10" stroke-width="2"/>
    <line id="Line_32" data-name="Line 32" x2="9" transform="translate(36.4 6.3)" fill="none" stroke="#fff" stroke-miterlimit="10" stroke-width="2"/>
    <line id="Line_33" data-name="Line 33" x2="9" transform="translate(36.4 9.3)" fill="none" stroke="#fff" stroke-miterlimit="10" stroke-width="2"/>
    <line id="Line_34" data-name="Line 34" x2="6" transform="translate(36.4 12.076)" fill="none" stroke="#fff" stroke-miterlimit="10" stroke-width="2"/>
    <line id="Line_35" data-name="Line 35" x2="10" transform="translate(4.4 37.545)" fill="none" stroke="#fff" stroke-miterlimit="10" stroke-width="2"/>
    <line id="Line_36" data-name="Line 36" x2="10" transform="translate(4.4 40.3)" fill="none" stroke="#fff" stroke-miterlimit="10" stroke-width="2"/>
    <line id="Line_37" data-name="Line 37" x2="7" transform="translate(4.4 44.3)" fill="none" stroke="#fff" stroke-miterlimit="10" stroke-width="2"/>
    <line id="Line_38" data-name="Line 38" y2="3" transform="translate(24.91 23.8)" fill="none" stroke="#fff" stroke-linecap="round" stroke-linejoin="round" stroke-miterlimit="10" stroke-width="2"/>
    <circle id="Ellipse_812" data-name="Ellipse 812" cx="1.5" cy="1.5" r="1.5" transform="translate(23.9 21.843)" fill="#fff"/>
    <g id="lock_1_" transform="translate(21.151 9.2)">
      <path id="Path_660" data-name="Path 660" d="M22,14.4V10.349a4.049,4.049,0,0,0-8.1,0V14.4" transform="translate(-13.9 -6.3)" fill="none" stroke="#fff" stroke-linecap="round" stroke-linejoin="round" stroke-miterlimit="10" stroke-width="2"/>
    </g>
    <rect id="Rectangle_6294" data-name="Rectangle 6294" width="16" height="17" transform="translate(1.4 32.3)" fill="none" stroke="#fff" stroke-linejoin="round" stroke-miterlimit="10" stroke-width="2"/>
    <rect id="Rectangle_6295" data-name="Rectangle 6295" width="16" height="16" transform="translate(16.915 16.815)" fill="none" stroke="#fff" stroke-linejoin="round" stroke-miterlimit="10" stroke-width="2"/>
    <rect id="Rectangle_6296" data-name="Rectangle 6296" width="17" height="16" transform="translate(32.4 1.3)" fill="none" stroke="#fff" stroke-linejoin="round" stroke-miterlimit="10" stroke-width="2"/>
  </g>
</svg>
