<svg xmlns="http://www.w3.org/2000/svg" width="54.629" height="67" viewBox="0 0 54.629 67">
  <g id="verified" transform="translate(-40.126 511.903)">
    <path id="Path_831" data-name="Path 831" d="M60.753-509.351c-3.242,1.4-8.941,3.847-12.664,5.443-7.231,3.1-7.586,3.3-7.864,4.279-.089.327-.114,3.258-.089,9.434.063,9.918.076,10.154,1.013,14.393A43.7,43.7,0,0,0,65.426-445.51c1.8.811,2.318.811,4.09-.013a43.373,43.373,0,0,0,21.706-22.349,47.251,47.251,0,0,0,3.242-11.593c.279-1.845.291-2.172.291-11.07v-9.172l-.355-.471a3.751,3.751,0,0,0-.659-.694c-.177-.118-5.99-2.643-12.93-5.626-12.081-5.182-12.664-5.417-13.4-5.4C66.7-511.89,66.122-511.667,60.753-509.351Zm17.97,7.8,11.068,4.75-.076,6.935c-.076,7.367-.165,8.636-.785,11.763A39.2,39.2,0,0,1,75.8-455.716c-2.267,1.884-7.535,5.169-8.308,5.169-.519,0-3.66-1.753-5.863-3.284A38.853,38.853,0,0,1,46.518-475.8c-1.076-4.292-1.216-5.731-1.3-14.066l-.076-6.935,11-4.737c6.053-2.6,11.119-4.737,11.258-4.737S72.632-504.157,78.723-501.553Z" transform="translate(0 0)" fill="#16becf"/>
    <path id="Path_832" data-name="Path 832" d="M179.719-336.526a4.138,4.138,0,0,0-.7.253c-.177.089-2.811,2.647-5.851,5.686l-5.547,5.534-2.748-2.748a23.846,23.846,0,0,0-3.229-2.938,2.711,2.711,0,0,0-3.28.912,2.111,2.111,0,0,0-.367,1.418,1.992,1.992,0,0,0,.367,1.406c.469.722,7.548,7.75,8.08,8.016a3.546,3.546,0,0,0,2.292.013c.646-.266,13.474-13.082,13.829-13.816a2.858,2.858,0,0,0-.114-2.621A2.667,2.667,0,0,0,179.719-336.526Z" transform="translate(-102.946 -152.097)" fill="#16becf"/>
  </g>
</svg>
