<svg xmlns="http://www.w3.org/2000/svg" xmlns:xlink="http://www.w3.org/1999/xlink" width="452.536" height="453.411" viewBox="0 0 452.536 453.411">
  <defs>
    <linearGradient id="linear-gradient" x1="1.086" y1="1.014" x2="0.335" y2="0.363" gradientUnits="objectBoundingBox">
      <stop offset="0" stop-color="#3fffac"/>
      <stop offset="1" stop-color="#e6fff4"/>
    </linearGradient>
    <linearGradient id="linear-gradient-2" x1="0.107" y1="0.026" x2="1.132" y2="1.339" gradientUnits="objectBoundingBox">
      <stop offset="0" stop-color="#09005d"/>
      <stop offset="1" stop-color="#1a0f91"/>
    </linearGradient>
    <linearGradient id="linear-gradient-3" x1="-1.194" y1="11.479" x2="-4.215" y2="15.124" xlink:href="#linear-gradient-2"/>
    <linearGradient id="linear-gradient-4" x1="0.043" y1="17.717" x2="-1.036" y2="23.635" xlink:href="#linear-gradient-2"/>
    <linearGradient id="linear-gradient-5" x1="0.154" y1="16.938" x2="-0.291" y2="22.464" xlink:href="#linear-gradient-2"/>
    <linearGradient id="linear-gradient-6" x1="1.354" y1="-0.384" x2="-1.373" y2="2.438" gradientUnits="objectBoundingBox">
      <stop offset="0" stop-color="#d1ffeb"/>
      <stop offset="1" stop-color="#dbffef"/>
    </linearGradient>
    <linearGradient id="linear-gradient-7" x1="0.46" y1="0.027" x2="0.554" y2="1.08" xlink:href="#linear-gradient-2"/>
    <linearGradient id="linear-gradient-8" x1="0.498" y1="1.823" x2="0.509" y2="-5.507" xlink:href="#linear-gradient-2"/>
    <linearGradient id="linear-gradient-9" x1="0.878" y1="-0.071" x2="-1.173" y2="3.028" gradientUnits="objectBoundingBox">
      <stop offset="0" stop-color="#3fffac"/>
      <stop offset="1" stop-color="#fe7062"/>
    </linearGradient>
    <linearGradient id="linear-gradient-11" x1="35.908" y1="0.238" x2="35.073" y2="0.678" gradientUnits="objectBoundingBox">
      <stop offset="0" stop-color="#febbba"/>
      <stop offset="1" stop-color="#ff928e"/>
    </linearGradient>
    <linearGradient id="linear-gradient-12" x1="-38.649" y1="-43.611" x2="-38.839" y2="-39.89" xlink:href="#linear-gradient-2"/>
    <linearGradient id="linear-gradient-13" x1="42.425" y1="0.225" x2="45.829" y2="-1.251" xlink:href="#linear-gradient-11"/>
    <linearGradient id="linear-gradient-14" x1="-34.883" y1="-49.85" x2="-35.104" y2="-46.741" xlink:href="#linear-gradient-2"/>
    <linearGradient id="linear-gradient-15" x1="10.687" y1="1.349" x2="10.696" y2="-0.574" gradientUnits="objectBoundingBox">
      <stop offset="0" stop-color="#ff928e"/>
      <stop offset="1" stop-color="#fe7062"/>
    </linearGradient>
    <linearGradient id="linear-gradient-16" x1="2.201" y1="-0.241" x2="1.512" y2="0.537" xlink:href="#linear-gradient-2"/>
    <linearGradient id="linear-gradient-17" x1="45.909" y1="-1.972" x2="43.373" y2="0.652" xlink:href="#linear-gradient-15"/>
    <linearGradient id="linear-gradient-18" x1="0.71" y1="-0.846" x2="0.244" y2="2.777" xlink:href="#linear-gradient-11"/>
    <linearGradient id="linear-gradient-19" x1="1.424" y1="1.285" x2="0.261" y2="0.369" xlink:href="#linear-gradient-11"/>
    <linearGradient id="linear-gradient-20" x1="-96.069" y1="-13.776" x2="-94.502" y2="-16.051" xlink:href="#linear-gradient-11"/>
    <linearGradient id="linear-gradient-21" x1="53.274" y1="-176.992" x2="50.495" y2="-173.418" xlink:href="#linear-gradient-2"/>
    <linearGradient id="linear-gradient-22" x1="-394.01" y1="-44.828" x2="-387.606" y2="-52.273" xlink:href="#linear-gradient-11"/>
    <linearGradient id="linear-gradient-23" x1="-27.927" y1="-13.225" x2="-28.666" y2="-10.788" xlink:href="#linear-gradient-2"/>
    <linearGradient id="linear-gradient-24" x1="0.974" y1="1.068" x2="0.175" y2="0.186" xlink:href="#linear-gradient-2"/>
    <linearGradient id="linear-gradient-25" x1="-241.587" y1="-0.281" x2="-243.565" y2="1.55" gradientUnits="objectBoundingBox">
      <stop offset="0" stop-color="#4042e2"/>
      <stop offset="1" stop-color="#4f52ff"/>
    </linearGradient>
  </defs>
  <g id="wallet" transform="translate(-412.44 -454.997)">
    <g id="Illustration" transform="translate(412.44 454.997)">
      <path id="Path_16995" data-name="Path 16995" d="M867.282,782.381c-43.194,101.707-158.255,158.682-258.036,143.31-16.237-2.5-60.749-9.951-100.158-45.095C433.222,812.939,417,678.97,478.2,584.558c44.543-68.714,124.388-107.667,200.257-105.719,16.342.419,78.973,3.005,134.014,48.392a206.643,206.643,0,0,1,41.986,47.637C892.189,633.881,895.432,716.1,867.282,782.381Z" transform="translate(-436.153 -474.92)" fill="url(#linear-gradient)"/>
      <path id="Path_16996" data-name="Path 16996" d="M1380.6,751.159,1613,757.313a24.084,24.084,0,0,1,23.44,23.488l8.231,337.386a17.761,17.761,0,0,1-17.9,18.193l-266.481-2.215a16.859,16.859,0,0,1-16.713-17.3l8.981-339.1A27.337,27.337,0,0,1,1380.6,751.159Z" transform="translate(-1192.784 -703.193)" fill="url(#linear-gradient-2)"/>
      <path id="Path_16997" data-name="Path 16997" d="M1443.288,2748.391h-.023l-29.8-1.176a18.3,18.3,0,0,1-17.5-18.7l1.192-45a.547.547,0,0,1,.547-.533h.015a.547.547,0,0,1,.533.562l-1.192,45a17.192,17.192,0,0,0,16.451,17.573l29.8,1.176a.547.547,0,0,1-.021,1.095Z" transform="translate(-1236.697 -2322.206)" fill="#fff"/>
      <path id="Path_16998" data-name="Path 16998" d="M1406.242,2560.3h0a.549.549,0,0,1-.533-.562l.193-7.287a.547.547,0,0,1,.547-.533h.015a.549.549,0,0,1,.533.562l-.193,7.287a.547.547,0,0,1-.562.533Z" transform="translate(-1244.867 -2212.36)" fill="#fff"/>
      <path id="Path_16999" data-name="Path 16999" d="M1491.534,733.921c31.622,5.145,140.4,21.346,230.809,16.81a7.342,7.342,0,0,1,7.721,7.125l9.02,338.9a8.45,8.45,0,0,1-8.171,8.673c-38.007,1.24-194.518,5.781-250.108-1.535a6.694,6.694,0,0,1-5.812-6.774L1482.32,741.6a7.935,7.935,0,0,1,9.214-7.679Z" transform="translate(-1302.93 -688.667)" fill="#0db69f"/>
      <path id="Path_17000" data-name="Path 17000" d="M1551.626,843.343c29.488,4.8,130.922,19.906,215.231,15.677a6.846,6.846,0,0,1,7.2,6.651l8.411,316.032a7.88,7.88,0,0,1-7.619,8.087c-35.442,1.156-181.39,5.391-233.226-1.432a6.243,6.243,0,0,1-5.42-6.323l6.832-331.531a7.405,7.405,0,0,1,8.592-7.161Z" transform="translate(-1354.228 -780.377)" fill="rgba(255,255,255,0.5)"/>
      <path id="Path_17001" data-name="Path 17001" d="M2239.842,460.485c-8.239-6.061-15.545-6.14-20.727-4.759a10.252,10.252,0,0,0-7.564,10.582l1.576,24.245,26.306,3.038S2256,472.374,2239.842,460.485Zm-12.112,19.205a6.578,6.578,0,1,1,6.749-6.395A6.578,6.578,0,0,1,2227.729,479.69Z" transform="translate(-1920.197 -454.997)" fill="url(#linear-gradient-3)"/>
      <path id="Path_17002" data-name="Path 17002" d="M2228.625,496.2a1.306,1.306,0,0,1-.823-1.134l-.251-3.862a1.307,1.307,0,0,1,2.607-.162l.251,3.862a1.307,1.307,0,0,1-1.781,1.3Zm-.486-7.567a1.305,1.305,0,0,1-.823-1.134l-.191-2.931a10.458,10.458,0,0,1,7.705-10.772,20.392,20.392,0,0,1,9.972-.146,1.307,1.307,0,1,1-.593,2.546,17.794,17.794,0,0,0-8.707.125,7.837,7.837,0,0,0-5.77,8.077l.191,2.933a1.307,1.307,0,0,1-1.781,1.3Z" transform="translate(-1933.25 -470.172)" fill="#bdd0fb"/>
      <path id="Path_17003" data-name="Path 17003" d="M1996.64,664.881l.324-12.159a7.423,7.423,0,0,1,7.87-7.212l83.761,5.088a7.219,7.219,0,0,1,6.777,6.963l.39,11.7Z" transform="translate(-1740.107 -614.648)" fill="url(#linear-gradient-4)"/>
      <path id="Path_17004" data-name="Path 17004" d="M2018.152,675.889a1.307,1.307,0,0,1-.824-1.25l.13-4.92a7.567,7.567,0,0,1,7.763-7.363l13.256.351a1.307,1.307,0,0,1-.07,2.614l-13.256-.351a4.958,4.958,0,0,0-5.081,4.819l-.131,4.92a1.307,1.307,0,0,1-1.786,1.181Z" transform="translate(-1757.444 -628.776)" fill="#bdd0fb"/>
      <path id="Path_17005" data-name="Path 17005" d="M1790.62,733.406l146.607,3.886a10.84,10.84,0,0,1,10.443,9.266l.105.721a9.31,9.31,0,0,1-9.458,10.65l-150.409-3.985a6.053,6.053,0,0,1-5.875-6.5l.5-6.723A7.9,7.9,0,0,1,1790.62,733.406Z" transform="translate(-1560.237 -688.32)" fill="url(#linear-gradient-5)"/>
      <g id="Group_3734" data-name="Group 3734" transform="translate(196.583 87.365)" opacity="0.89">
        <path id="Path_17006" data-name="Path 17006" d="M1839.6,1308.3l-1.3-72.076a1.4,1.4,0,0,0-1.365-1.376l-209.079-5.531a1.4,1.4,0,0,0-1.438,1.469l3.543,74.417a1.337,1.337,0,0,0,1.38,1.255l206.841,3.307h.023a1.34,1.34,0,0,0,1.415-1.307A.6.6,0,0,0,1839.6,1308.3Zm-4.081-70.685.266,14.736L1630,1247.136l-.713-14.977ZM1632.7,1303.754l-2.562-53.8,205.7,5.224.936,51.928Z" transform="translate(-1626.42 -1191.294)" fill="#fff"/>
        <path id="Path_17007" data-name="Path 17007" d="M1720.275,1436.009l93.4,1.49a3.077,3.077,0,0,0,3.151-3.307l-.021-.353a3.652,3.652,0,0,0-3.527-3.4L1720.193,1429a3.2,3.2,0,0,0-3.257,3.271v.35A3.425,3.425,0,0,0,1720.275,1436.009Z" transform="translate(-1702.278 -1358.64)" fill="#fff"/>
        <path id="Path_17008" data-name="Path 17008" d="M1815.272,1543.721l-93.9-1.572a3.239,3.239,0,0,0-3.284,3.326v.356a3.475,3.475,0,0,0,3.365,3.451l94.225,1.619a3.106,3.106,0,0,0,3.177-3.362l-.021-.36A3.7,3.7,0,0,0,1815.272,1543.721Z" transform="translate(-1703.24 -1453.468)" fill="#fff"/>
        <path id="Path_17009" data-name="Path 17009" d="M2561.278,1449.116a3.124,3.124,0,0,0,3.221-3.5,4.057,4.057,0,0,0-3.886-3.6l-41.016-.635a3.179,3.179,0,0,0-3.271,3.478,3.943,3.943,0,0,0,3.792,3.6Z" transform="translate(-2372.209 -1369.016)" fill="#fff"/>
        <path id="Path_17010" data-name="Path 17010" d="M2573.275,1560.018a4.117,4.117,0,0,0-3.922-3.668l-41.384-.693a3.218,3.218,0,0,0-3.3,3.535,4.005,4.005,0,0,0,3.828,3.669l41.527.716A3.163,3.163,0,0,0,2573.275,1560.018Z" transform="translate(-2379.207 -1464.789)" fill="#fff"/>
        <path id="Path_17011" data-name="Path 17011" d="M1850.728,999.285a3.656,3.656,0,0,1-3.562,3.7l-191.5-.374a3.886,3.886,0,0,1-3.886-3.9v-.324a3.87,3.87,0,0,1,3.886-3.877l191.566.746a3.593,3.593,0,0,1,3.49,3.724Z" transform="translate(-1647.673 -994.51)" fill="#fff"/>
        <path id="Path_17012" data-name="Path 17012" d="M1850.613,1102.866a3.67,3.67,0,0,1-3.562,3.707l-191.346.406a3.87,3.87,0,0,1-3.875-3.877v-.324a3.887,3.887,0,0,1,3.886-3.886l191.422-.032a3.573,3.573,0,0,1,3.486,3.7Z" transform="translate(-1647.715 -1081.962)" fill="#fff"/>
        <path id="Path_17013" data-name="Path 17013" d="M1683.253,1885.591h-.074l-27.313-.108a7.4,7.4,0,0,1-7.591-6.26l-2.531-22.9a5.045,5.045,0,0,1,1.171-3.8,6.06,6.06,0,0,1,4.21-2.105h0c2.3-.162,5.475-.458,8.965-.776,7.6-.69,16.209-1.474,21.271-1.564h.112a7.682,7.682,0,0,1,7.63,5.357c1.457,5.261,1.386,15.222,1.174,25.838C1690.208,1882.746,1687.063,1885.57,1683.253,1885.591Zm-31.962-32.958a3.817,3.817,0,0,0-2.664,1.31,2.831,2.831,0,0,0-.669,2.131l2.529,22.9a5.19,5.19,0,0,0,5.386,4.277l27.313.11h.053c2.612-.015,4.762-1.864,4.809-4.142.209-10.441.28-20.227-1.094-25.2a5.525,5.525,0,0,0-5.553-3.724c-4.981.091-13.926.9-21.111,1.555-3.5.324-6.688.607-9,.779Z" transform="translate(-1642.59 -1709.859)" fill="#fff"/>
        <path id="Path_17014" data-name="Path 17014" d="M1680.247,1880.622c5.736-.424,18.2-1.76,24.112-1.867a5.29,5.29,0,0,1,5.313,3.626c1.164,4.21,1.061,12.631.907,20.394a4.546,4.546,0,0,1-4.78,4.184l-21.827-.087a5.035,5.035,0,0,1-5.182-4.21l-2.021-18.3A3.541,3.541,0,0,1,1680.247,1880.622Z" transform="translate(-1668.599 -1735.566)" fill="#fff" opacity="0.6"/>
        <g id="Group_3731" data-name="Group 3731" transform="translate(62.76 151.81)" opacity="0.6">
          <path id="Path_17015" data-name="Path 17015" d="M2015.681,1932a1.559,1.559,0,0,0-1.619,2.074l2.536,9.392a3.017,3.017,0,0,0,2.753,2.105l137.623-.771a2.14,2.14,0,0,0,2.129-2.2l-.162-5.808a2.322,2.322,0,0,0-2.251-2.23Z" transform="translate(-2013.989 -1931.998)" fill="#fff"/>
        </g>
        <path id="Path_17016" data-name="Path 17016" d="M1679.6,2259.6h-.074l-27.313-.108a7.4,7.4,0,0,1-7.592-6.26l-2.531-22.905a5.045,5.045,0,0,1,1.171-3.8,6.058,6.058,0,0,1,4.21-2.1h0c2.3-.162,5.475-.458,8.965-.776,7.6-.69,16.209-1.474,21.271-1.564h.112a7.682,7.682,0,0,1,7.63,5.356c1.457,5.261,1.386,15.222,1.174,25.838C1686.557,2256.752,1683.414,2259.578,1679.6,2259.6Zm-31.962-32.958a3.818,3.818,0,0,0-2.664,1.31,2.832,2.832,0,0,0-.669,2.131l2.529,22.9a5.19,5.19,0,0,0,5.386,4.277l27.313.11h.054c2.612-.014,4.762-1.864,4.809-4.142.209-10.441.28-20.227-1.095-25.2a5.525,5.525,0,0,0-5.553-3.724c-4.981.091-13.926.9-21.111,1.555-3.5.324-6.688.607-9,.779Z" transform="translate(-1639.531 -2023.296)" fill="#fff"/>
        <path id="Path_17017" data-name="Path 17017" d="M1676.6,2254.672c5.736-.424,18.2-1.76,24.112-1.867a5.291,5.291,0,0,1,5.313,3.626c1.164,4.21,1.061,12.631.907,20.394a4.545,4.545,0,0,1-4.78,4.184l-21.827-.087a5.035,5.035,0,0,1-5.182-4.21l-2.021-18.3A3.54,3.54,0,0,1,1676.6,2254.672Z" transform="translate(-1665.54 -2049.045)" fill="#fff" opacity="0.6"/>
        <g id="Group_3732" data-name="Group 3732" transform="translate(62.17 212.387)" opacity="0.6">
          <path id="Path_17018" data-name="Path 17018" d="M2012.041,2306.088a1.559,1.559,0,0,0-1.619,2.074l2.536,9.392a3.016,3.016,0,0,0,2.753,2.105l137.623-.771a2.139,2.139,0,0,0,2.129-2.2l-.162-5.809a2.323,2.323,0,0,0-2.251-2.23Z" transform="translate(-2010.349 -2306.087)" fill="#fff"/>
        </g>
        <path id="Path_17019" data-name="Path 17019" d="M1675.971,2633.656h-.074l-27.313-.109a7.4,7.4,0,0,1-7.591-6.26l-2.529-22.9a5.044,5.044,0,0,1,1.171-3.8,6.059,6.059,0,0,1,4.21-2.105h0c2.3-.162,5.475-.458,8.965-.775,7.6-.69,16.209-1.474,21.271-1.564h.112a7.682,7.682,0,0,1,7.63,5.357c1.457,5.261,1.386,15.222,1.174,25.838C1682.926,2630.811,1679.783,2633.635,1675.971,2633.656Zm-31.962-32.958a3.818,3.818,0,0,0-2.664,1.31,2.833,2.833,0,0,0-.669,2.131l2.531,22.907a5.19,5.19,0,0,0,5.386,4.277l27.313.11h.053c2.612-.015,4.763-1.864,4.809-4.142.209-10.441.28-20.227-1.095-25.2a5.525,5.525,0,0,0-5.553-3.724c-4.981.091-13.926.9-21.111,1.555-3.5.324-6.688.607-9,.779Z" transform="translate(-1636.488 -2336.784)" fill="#fff"/>
        <path id="Path_17020" data-name="Path 17020" d="M1672.957,2628.722c5.736-.424,18.2-1.76,24.112-1.867a5.29,5.29,0,0,1,5.313,3.626c1.164,4.21,1.061,12.631.907,20.394a4.546,4.546,0,0,1-4.78,4.184l-21.827-.087a5.035,5.035,0,0,1-5.182-4.21l-2.021-18.3A3.539,3.539,0,0,1,1672.957,2628.722Z" transform="translate(-1662.49 -2362.524)" fill="#fff" opacity="0.6"/>
        <g id="Group_3733" data-name="Group 3733" transform="translate(61.581 272.958)" opacity="0.6">
          <path id="Path_17021" data-name="Path 17021" d="M2008.4,2680.138a1.559,1.559,0,0,0-1.619,2.074l2.536,9.392a3.016,3.016,0,0,0,2.753,2.105l137.623-.771a2.139,2.139,0,0,0,2.13-2.2l-.162-5.809a2.322,2.322,0,0,0-2.243-2.222Z" transform="translate(-2006.709 -2680.137)" fill="#fff"/>
        </g>
      </g>
      <path id="Path_17022" data-name="Path 17022" d="M918.788,859.793C905.97,817.342,851.946,649.574,773.23,558.552c-5.621-6.5-17.579-4.484-18.538,4.008C749.132,611.826,726.62,766.15,912.3,865.242A4.608,4.608,0,0,0,918.788,859.793Z" transform="translate(-696.06 -538.562)" fill="#a2e6c8"/>
      <path id="Path_17023" data-name="Path 17023" d="M1063.461,1162.519a1.133,1.133,0,0,0,.866-1.867c-59.439-70.356-91.853-133.021-108.59-173.2-18.107-43.479-22.224-70.646-22.262-70.915a1.135,1.135,0,1,0-2.246.324c.04.272,4.2,27.715,22.413,71.459,16.792,40.321,49.326,103.216,108.951,173.794A1.134,1.134,0,0,0,1063.461,1162.519Z" transform="translate(-847.211 -840.982)" fill="#aaffda"/>
      <path id="Path_17024" data-name="Path 17024" d="M665.86,1360.941a4.766,4.766,0,0,0,6.72-4.178c.69-18.663-2.133-71.613-50.661-114.14-40.98-35.913-59.789-59.267-67.594-70.471a2.99,2.99,0,0,0-5.443,1.619C548.022,1205.587,554.137,1310.086,665.86,1360.941Z" transform="translate(-526.734 -1054.944)" fill="#c6ffe6"/>
      <path id="Path_17025" data-name="Path 17025" d="M830.928,1645.471a1.1,1.1,0,0,1-1.007-.664c-.324-.756-32.961-76.27-87.324-128.427a1.1,1.1,0,0,1,1.517-1.581c54.691,52.466,87.5,128.387,87.822,129.148a1.1,1.1,0,0,1-1.007,1.525Z" transform="translate(-688.852 -1342.928)" fill="url(#linear-gradient-6)"/>
      <path id="Path_17026" data-name="Path 17026" d="M919.516,1941.618a6.863,6.863,0,0,1-6.847,6.84h-370.2a6.863,6.863,0,0,1-6.846-6.84l-3.077-212.742c0-3.762,4.432-11.105,12.555-10.553l361.794-9.355a17.251,17.251,0,0,1,17.7,17.651Z" transform="translate(-513.1 -1505.905)" fill="url(#linear-gradient-7)"/>
      <path id="Path_17027" data-name="Path 17027" d="M961.742,1976.97a6.5,6.5,0,0,1-6.477,6.477H600.392a6.5,6.5,0,0,1-6.477-6.477L591,1783.841c.342-11.622,10.526-15.8,16.708-15.546l346.752-9.318a12.124,12.124,0,0,1,12.44,12.407Z" transform="translate(-562.085 -1547.818)" fill="#0db69f"/>
      <path id="Path_17028" data-name="Path 17028" d="M628.627,2449.386a.547.547,0,0,1-.547-.54l-.23-15.662a.547.547,0,0,1,1.095-.016l.23,15.662a.547.547,0,0,1-.539.556Z" transform="translate(-592.968 -2112.387)" fill="#91b3fa"/>
      <path id="Path_17029" data-name="Path 17029" d="M621.778,1900.413a.547.547,0,0,1-.547-.539l-.881-59.986c.018-4.013,1.255-7.219,3.676-9.539,4.4-4.22,11.287-4.006,11.583-4l110.731-2.972a.57.57,0,0,1,.562.533.547.547,0,0,1-.533.562l-110.762,2.972c-.311-.018-6.753-.209-10.822,3.692-2.2,2.105-3.321,5.047-3.339,8.744l.881,59.976a.547.547,0,0,1-.539.555Z" transform="translate(-586.683 -1601.794)" fill="#91b3fa"/>
      <rect id="Rectangle_6428" data-name="Rectangle 6428" width="436.448" height="18.692" rx="7.51" transform="translate(0 434.719)" fill="url(#linear-gradient-8)"/>
      <path id="Path_17030" data-name="Path 17030" d="M1084.037,2011.5H903.031a2.465,2.465,0,0,1-.9-4.758l90.5-35.633a2.465,2.465,0,0,1,1.806,0l90.5,35.635A2.463,2.463,0,0,1,1084.037,2011.5Z" transform="translate(-821.521 -1725.462)" fill="#fff"/>
      <rect id="Rectangle_6429" data-name="Rectangle 6429" width="3.882" height="71.417" transform="translate(87.497 291.314)" fill="#fff"/>
      <rect id="Rectangle_6430" data-name="Rectangle 6430" width="3.882" height="71.417" transform="translate(93.318 291.314)" fill="#fff"/>
      <rect id="Rectangle_6431" data-name="Rectangle 6431" width="3.882" height="71.417" transform="translate(99.14 291.314)" fill="#fff"/>
      <path id="Path_17031" data-name="Path 17031" d="M950.465,2230.01H926.4v1.046l3.493,1.671h17.079l3.493-1.671Z" transform="translate(-843.173 -1942.578)" fill="#fff"/>
      <path id="Path_17032" data-name="Path 17032" d="M951.665,2705.245H927.6v-3.764l3.493-1.671H948.17l3.495,1.671Z" transform="translate(-844.179 -2336.302)" fill="#fff"/>
      <rect id="Rectangle_6432" data-name="Rectangle 6432" width="3.882" height="71.417" transform="translate(118.159 291.314)" fill="#fff"/>
      <rect id="Rectangle_6433" data-name="Rectangle 6433" width="3.882" height="71.417" transform="translate(123.982 291.314)" fill="#fff"/>
      <rect id="Rectangle_6434" data-name="Rectangle 6434" width="3.882" height="71.417" transform="translate(129.803 291.314)" fill="#fff"/>
      <path id="Path_17033" data-name="Path 17033" d="M1139.825,2230.01H1115.76v1.046l3.493,1.671h17.077l3.495-1.671Z" transform="translate(-1001.87 -1942.578)" fill="#fff"/>
      <path id="Path_17034" data-name="Path 17034" d="M1141.015,2705.245H1116.95v-3.764l3.495-1.671h17.077l3.493,1.671Z" transform="translate(-1002.867 -2336.302)" fill="#fff"/>
      <rect id="Rectangle_6435" data-name="Rectangle 6435" width="3.882" height="71.417" transform="translate(148.822 291.314)" fill="#fff"/>
      <rect id="Rectangle_6436" data-name="Rectangle 6436" width="3.882" height="71.417" transform="translate(154.644 291.314)" fill="#fff"/>
      <rect id="Rectangle_6437" data-name="Rectangle 6437" width="3.882" height="71.417" transform="translate(160.467 291.314)" fill="#fff"/>
      <path id="Path_17035" data-name="Path 17035" d="M1329.175,2230.01H1305.11v1.046l3.493,1.671h17.079l3.493-1.671Z" transform="translate(-1160.558 -1942.578)" fill="#fff"/>
      <path id="Path_17036" data-name="Path 17036" d="M1330.375,2705.245H1306.31v-3.764l3.493-1.671h17.079l3.493,1.671Z" transform="translate(-1161.564 -2336.302)" fill="#fff"/>
      <rect id="Rectangle_6438" data-name="Rectangle 6438" width="3.882" height="71.417" transform="translate(179.486 291.314)" fill="#fff"/>
      <rect id="Rectangle_6439" data-name="Rectangle 6439" width="3.882" height="71.417" transform="translate(185.307 291.314)" fill="#fff"/>
      <rect id="Rectangle_6440" data-name="Rectangle 6440" width="3.882" height="71.417" transform="translate(191.129 291.314)" fill="#fff"/>
      <path id="Path_17037" data-name="Path 17037" d="M1518.535,2230.01H1494.47v1.046l3.493,1.671h17.079l3.493-1.671Z" transform="translate(-1319.254 -1942.578)" fill="#fff"/>
      <path id="Path_17038" data-name="Path 17038" d="M1519.735,2705.245H1495.67v-3.764l3.493-1.671h17.077l3.495,1.671Z" transform="translate(-1320.26 -2336.302)" fill="#fff"/>
      <rect id="Rectangle_6441" data-name="Rectangle 6441" width="3.882" height="71.417" transform="translate(210.148 291.314)" fill="#fff"/>
      <rect id="Rectangle_6442" data-name="Rectangle 6442" width="3.882" height="71.417" transform="translate(215.971 291.314)" fill="#fff"/>
      <rect id="Rectangle_6443" data-name="Rectangle 6443" width="3.882" height="71.417" transform="translate(221.792 291.314)" fill="#fff"/>
      <path id="Path_17039" data-name="Path 17039" d="M1707.895,2230.01H1683.83v1.046l3.493,1.671H1704.4l3.494-1.671Z" transform="translate(-1477.951 -1942.578)" fill="#fff"/>
      <path id="Path_17040" data-name="Path 17040" d="M1709.093,2705.245H1685.03v-3.764l3.493-1.671H1705.6l3.493,1.671Z" transform="translate(-1478.957 -2336.302)" fill="#fff"/>
      <rect id="Rectangle_6444" data-name="Rectangle 6444" width="3.882" height="71.417" transform="translate(240.811 291.314)" fill="#fff"/>
      <rect id="Rectangle_6445" data-name="Rectangle 6445" width="3.882" height="71.417" transform="translate(246.633 291.314)" fill="#fff"/>
      <rect id="Rectangle_6446" data-name="Rectangle 6446" width="3.882" height="71.417" transform="translate(252.456 291.314)" fill="#fff"/>
      <path id="Path_17041" data-name="Path 17041" d="M1897.245,2230.01H1873.18v1.046l3.495,1.671h17.077l3.493-1.671Z" transform="translate(-1636.639 -1942.578)" fill="#fff"/>
      <path id="Path_17042" data-name="Path 17042" d="M1898.445,2705.245H1874.38v-3.764l3.493-1.671h17.079l3.493,1.671Z" transform="translate(-1637.645 -2336.302)" fill="#fff"/>
      <rect id="Rectangle_6447" data-name="Rectangle 6447" width="191.234" height="4.167" rx="2.083" transform="translate(77.005 370.547)" fill="#fff"/>
      <rect id="Rectangle_6448" data-name="Rectangle 6448" width="208.828" height="10.65" rx="4.5" transform="translate(67.599 376.798)" fill="#fff"/>
      <rect id="Rectangle_6449" data-name="Rectangle 6449" width="87.056" height="25.636" rx="12.818" transform="translate(292.984 246.487)" fill="#fff" opacity="0.91"/>
      <rect id="Rectangle_6450" data-name="Rectangle 6450" width="87.056" height="25.636" rx="12.818" transform="translate(292.984 281.739)" fill="#fff" opacity="0.91"/>
      <rect id="Rectangle_6451" data-name="Rectangle 6451" width="87.056" height="25.636" rx="12.818" transform="translate(292.984 316.988)" fill="#fff" opacity="0.91"/>
      <rect id="Rectangle_6452" data-name="Rectangle 6452" width="315.647" height="25.636" rx="12.818" transform="translate(67.066 392.829)" fill="#fff"/>
      <circle id="Ellipse_140" data-name="Ellipse 140" cx="37.95" cy="37.95" r="37.95" transform="translate(376.635 376.205)" fill="#3fffac"/>
      <path id="Path_17043" data-name="Path 17043" d="M2776.613,2813.222a.547.547,0,0,1-.486-.794,35.431,35.431,0,0,1,31.782-19.569,35.9,35.9,0,0,1,6.419.579.547.547,0,0,1-.2,1.076,34.839,34.839,0,0,0-6.223-.559,34.341,34.341,0,0,0-30.8,18.967.548.548,0,0,1-.491.3Z" transform="translate(-2393.321 -2414.283)" fill="#fff" opacity="0.8"/>
      <circle id="Ellipse_141" data-name="Ellipse 141" cx="32.121" cy="32.121" r="32.121" transform="translate(383.292 382.862)" fill="#fff" opacity="0.78"/>
      <path id="Path_17044" data-name="Path 17044" d="M2901.4,2923.92v-3.495a28.479,28.479,0,0,1-9.8-2.126,2.021,2.021,0,0,1-1.117-2.389l.887-3.255a2.037,2.037,0,0,1,2.766-1.333,23.648,23.648,0,0,0,9.054,1.906c3.509,0,6.126-1.19,6.126-3.627,0-2.2-2.023-3.509-6.9-4.818-6.963-1.9-11.954-4.936-11.954-11.062,0-5.532,4.048-9.753,11.062-10.883v-3.495a2.036,2.036,0,0,1,2.035-2.036h2.053a2.036,2.036,0,0,1,2.035,2.036v3.138a25.914,25.914,0,0,1,7.773,1.4,2.025,2.025,0,0,1,1.266,2.445l-.81,3.01a2.031,2.031,0,0,1-2.68,1.372,21.208,21.208,0,0,0-7.622-1.385c-4.163,0-5.352,1.725-5.352,3.271,0,1.9,2.5,3.211,7.909,4.877,7.73,2.319,10.943,5.53,10.943,11.3,0,5.293-3.925,10.051-11.538,11.24v3.911a2.036,2.036,0,0,1-2.036,2.035h-2.062A2.036,2.036,0,0,1,2901.4,2923.92Z" transform="translate(-2489.143 -2485.059)" fill="#fff"/>
      <circle id="Ellipse_143" data-name="Ellipse 143" cx="37.95" cy="37.95" r="37.95" transform="translate(334.81 376.205)" fill="url(#linear-gradient-9)"/>
      <path id="Path_17045" data-name="Path 17045" d="M2518.323,2813.222a.547.547,0,0,1-.486-.793,35.428,35.428,0,0,1,31.782-19.57,35.876,35.876,0,0,1,6.42.579.547.547,0,0,1-.2,1.076,34.84,34.84,0,0,0-6.221-.559,34.341,34.341,0,0,0-30.8,18.967.548.548,0,0,1-.492.3Z" transform="translate(-2176.856 -2414.283)" fill="#fff" opacity="0.8"/>
      <circle id="Ellipse_144" data-name="Ellipse 144" cx="32.121" cy="32.121" r="32.121" transform="translate(341.467 382.862)" fill="#fff" opacity="0.78"/>
      <path id="Path_17046" data-name="Path 17046" d="M2643.083,2923.92v-3.495a28.479,28.479,0,0,1-9.8-2.126,2.021,2.021,0,0,1-1.117-2.389l.887-3.255a2.037,2.037,0,0,1,2.766-1.333,23.65,23.65,0,0,0,9.054,1.906c3.509,0,6.126-1.19,6.126-3.627,0-2.2-2.022-3.509-6.9-4.818-6.963-1.9-11.954-4.936-11.954-11.062,0-5.532,4.048-9.753,11.062-10.883v-3.495a2.036,2.036,0,0,1,2.035-2.036h2.055a2.036,2.036,0,0,1,2.036,2.036v3.138a25.912,25.912,0,0,1,7.772,1.4,2.026,2.026,0,0,1,1.267,2.445l-.81,3.01a2.031,2.031,0,0,1-2.68,1.372,21.206,21.206,0,0,0-7.622-1.385c-4.164,0-5.352,1.725-5.352,3.271,0,1.9,2.5,3.211,7.909,4.877,7.731,2.319,10.944,5.53,10.944,11.3,0,5.293-3.925,10.051-11.538,11.24v3.911a2.035,2.035,0,0,1-2.035,2.035h-2.06a2.036,2.036,0,0,1-2.04-2.035Z" transform="translate(-2272.653 -2485.059)" fill="#fff"/>
      <circle id="Ellipse_146" data-name="Ellipse 146" cx="37.95" cy="37.95" r="37.95" transform="translate(292.984 376.205)" fill="url(#linear-gradient-9)"/>
      <path id="Path_17047" data-name="Path 17047" d="M2260.023,2813.222a.547.547,0,0,1-.486-.794,35.431,35.431,0,0,1,31.782-19.569,35.884,35.884,0,0,1,6.42.579.547.547,0,0,1-.2,1.076,34.863,34.863,0,0,0-6.221-.559,34.342,34.342,0,0,0-30.8,18.967.548.548,0,0,1-.492.3Z" transform="translate(-1960.384 -2414.283)" fill="#fff" opacity="0.8"/>
      <circle id="Ellipse_147" data-name="Ellipse 147" cx="32.121" cy="32.121" r="32.121" transform="translate(299.64 382.862)" fill="#fff" opacity="0.78"/>
      <path id="Path_17048" data-name="Path 17048" d="M2384.823,2923.912v-3.495a28.476,28.476,0,0,1-9.8-2.126,2.021,2.021,0,0,1-1.117-2.389l.887-3.255a2.037,2.037,0,0,1,2.766-1.333,23.645,23.645,0,0,0,9.054,1.906c3.509,0,6.126-1.19,6.126-3.627,0-2.2-2.023-3.509-6.9-4.818-6.963-1.9-11.954-4.936-11.954-11.062,0-5.531,4.048-9.753,11.062-10.883v-3.495a2.036,2.036,0,0,1,2.027-2.037h2.053a2.036,2.036,0,0,1,2.036,2.036v3.138a25.912,25.912,0,0,1,7.772,1.4,2.025,2.025,0,0,1,1.266,2.445l-.81,3.01a2.031,2.031,0,0,1-2.68,1.372,21.2,21.2,0,0,0-7.622-1.385c-4.164,0-5.352,1.725-5.352,3.271,0,1.9,2.5,3.211,7.909,4.877,7.731,2.319,10.943,5.53,10.943,11.3,0,5.293-3.925,10.051-11.538,11.24v3.911a2.035,2.035,0,0,1-2.035,2.035h-2.053A2.036,2.036,0,0,1,2384.823,2923.912Z" transform="translate(-2056.214 -2485.051)" fill="#fff"/>
      <circle id="Ellipse_149" data-name="Ellipse 149" cx="49.765" cy="49.765" r="49.765" transform="translate(227.121 352.169)" fill="#3fffac"/>
      <path id="Path_17049" data-name="Path 17049" d="M1866.093,2676.391a.547.547,0,0,1-.486-.793,46.293,46.293,0,0,1,41.524-25.567,46.918,46.918,0,0,1,8.393.756.547.547,0,0,1-.2,1.075,45.826,45.826,0,0,0-8.189-.737,45.206,45.206,0,0,0-40.548,24.965A.548.548,0,0,1,1866.093,2676.391Z" transform="translate(-1630.244 -2294.583)" fill="#fff" opacity="0.8"/>
      <circle id="Ellipse_150" data-name="Ellipse 150" cx="42.12" cy="42.12" r="42.12" transform="translate(235.851 360.898)" fill="#fff" opacity="0.78"/>
      <path id="Path_17050" data-name="Path 17050" d="M2028.9,2820.833v-4.583a37.328,37.328,0,0,1-12.857-2.789,2.65,2.65,0,0,1-1.457-3.132l1.164-4.269a2.672,2.672,0,0,1,3.627-1.749,31.022,31.022,0,0,0,11.871,2.5c4.6,0,8.032-1.559,8.032-4.758,0-2.886-2.651-4.6-9.045-6.315-9.125-2.5-15.675-6.478-15.675-14.506,0-7.253,5.3-12.793,14.506-14.271v-4.583a2.67,2.67,0,0,1,2.67-2.67h2.693a2.67,2.67,0,0,1,2.67,2.67v4.115a34.067,34.067,0,0,1,10.192,1.83,2.657,2.657,0,0,1,1.66,3.208l-1.07,3.948a2.662,2.662,0,0,1-3.516,1.8,27.8,27.8,0,0,0-10-1.815c-5.459,0-7.018,2.267-7.018,4.29,0,2.5,3.276,4.21,10.372,6.395,10.139,3.041,14.351,7.253,14.351,14.817,0,6.94-5.148,13.179-15.129,14.736v5.128a2.67,2.67,0,0,1-2.67,2.67h-2.7a2.67,2.67,0,0,1-2.672-2.665Z" transform="translate(-1755.063 -2386.502)" fill="#fff"/>
      <path id="Path_17051" data-name="Path 17051" d="M960.094,1698.8c.055-.021,29.933-52.343,33.97-57.267a3.13,3.13,0,0,1,2.793-1.124l8.34.994,9.8,21.194-16.321-9.505c1.619,11.173-19.353,27.768-26.542,33.826a1.652,1.652,0,0,0-.131,2.406l2.871,3.005a32.979,32.979,0,0,1-16.29,9.264Z" transform="translate(-870.142 -1448.43)" fill="url(#linear-gradient-11)"/>
      <path id="Path_17052" data-name="Path 17052" d="M963.695,1951.13a4.236,4.236,0,0,1,2.453,2.223,1.867,1.867,0,0,1-.7,2.152c-3.017,2.162-12.969,9.139-17.56,10.506a.52.52,0,0,1-.648-.612c.236-1.067,1-3.2,3.454-6.315l-.22.445a.638.638,0,0,0,.884.842C954.422,1958.637,960.678,1954.841,963.695,1951.13Z" transform="translate(-860.626 -1708.858)" fill="url(#linear-gradient-12)"/>
      <path id="Path_17053" data-name="Path 17053" d="M1035.065,1742.266c.05-.032,4.534-10.832,4.583-10.864a190.137,190.137,0,0,1,17.1-52.094,3.131,3.131,0,0,1,2.508-1.665l8.367-.714L1081.5,1695.7l-17.905-6c3.843,10.611-13.332,31.11-19.148,38.5a1.652,1.652,0,0,0,.359,2.382l3.42,2.363a32.967,32.967,0,0,1-14.078,12.368Z" transform="translate(-933.475 -1479.059)" fill="url(#linear-gradient-13)"/>
      <path id="Path_17054" data-name="Path 17054" d="M1040.513,2015.07a4.229,4.229,0,0,1,2.852,1.681,1.867,1.867,0,0,1-.253,2.249c-2.516,2.727-10.85,11.575-15.071,13.842a.52.52,0,0,1-.761-.468c.014-1.093.324-3.333,2.1-6.884l-.126.486a.638.638,0,0,0,1.035.648C1032.952,2024.3,1038.311,2019.316,1040.513,2015.07Z" transform="translate(-927.717 -1762.443)" fill="url(#linear-gradient-14)"/>
      <path id="Path_17055" data-name="Path 17055" d="M1207.086,1650.811s7.57,11.259,8.191,16.4-2.094,6.911-10.016,7.567c-23.577,1.943-35.2-5.117-35.2-5.117-1.619-10.284-2.753-12.9-16.23-18.491,0,0,17.037,1.352,20.467.023S1207.086,1650.811,1207.086,1650.811Z" transform="translate(-1033.775 -1456.893)" fill="url(#linear-gradient-15)"/>
      <path id="Path_17056" data-name="Path 17056" d="M1220.912,1179.74c-4.294-.036-8.765,1.092-10.6-1.47-2.693-3.767,1.406-14,8.275-16.661,7.17-2.78,12.158,4.7,19.821,1.959,5.992-2.144,5.525-7.635,11.105-11.779,9.258-6.874,27.728-4.534,34.636,4.625,11.292,14.972-8.1,48.471-22.777,48.874C1248.345,1205.649,1241.087,1179.9,1220.912,1179.74Z" transform="translate(-1080.415 -1035.62)" fill="url(#linear-gradient-16)"/>
      <path id="Path_17057" data-name="Path 17057" d="M1275.336,1432.081s-8.816-8.393-13.154-13.954a11.8,11.8,0,0,1-2-10.616c1.98-6.675,5.506-13.586,5.83-14.663.486-1.648,10.377-1.581,10.377-1.581s19.45,12.631,27.091,34.006l-8.582,2.672s-5.078-8.519-10.1-13.936c0,0,8.683,11.469,8.987,16.166Z" transform="translate(-1122.496 -1239.655)" fill="url(#linear-gradient-17)"/>
      <path id="Path_17058" data-name="Path 17058" d="M1252.58,1611.4l6.623-7.206,7.65,2.06s8.918,1.381,14.022,0l5.1-1.381,11.534-3.592,1.812,5.12a3.077,3.077,0,0,1-1.134,3.542,20.375,20.375,0,0,1-2.915,1.815c-1.519.664-34.992.211-34.992.211Z" transform="translate(-1116.534 -1415.659)" fill="url(#linear-gradient-18)"/>
      <path id="Path_17059" data-name="Path 17059" d="M1290.625,1312.932l6.639,12.352c-.439,2.7-7.23,2.772-8.28,1.163a1.589,1.589,0,0,1-.209-.544l-3.974-8.259c-.17-.81,2.035-3.517,2.763-3.9l2.641-1.406C1291.226,1311.8,1286.983,1311.757,1290.625,1312.932Z" transform="translate(-1143.53 -1173.202)" fill="url(#linear-gradient-19)"/>
      <path id="Path_17060" data-name="Path 17060" d="M1237.408,1284.427s-.75,4.173,2.531,9.48,6.547,5.067,8.207,3.174a11.665,11.665,0,0,0,2.743-10.336C1249.985,1281.453,1238.54,1279.1,1237.408,1284.427Z" transform="translate(-1103.757 -1147.594)" fill="url(#linear-gradient-20)"/>
      <path id="Path_17061" data-name="Path 17061" d="M1235.083,1261.96s-5.311-6.976-9.392-.9l.068,2.1s-3.048,1.679-2.473-3.209,2.649-10.153,8.651-8.484,9.509,3.572,10.187,7.739-2.725,3.486-2.725,3.486-1.3-2.876-2.87-3.077-1,2.078-1,2.078Z" transform="translate(-1091.924 -1122.236)" fill="url(#linear-gradient-21)"/>
      <path id="Path_17062" data-name="Path 17062" d="M1297.273,1293.937s-2.753-3.562-.246-4.311,2.411,3.5,2.248,5.075Z" transform="translate(-1152.901 -1154.4)" fill="url(#linear-gradient-22)"/>
      <path id="Path_17063" data-name="Path 17063" d="M1222.909,1667.091h-.07l-30.466-.034a1.363,1.363,0,1,1,0-2.727l30.466.032a1.363,1.363,0,0,1,.066,2.725Z" transform="translate(-1064.934 -1468.5)" fill="url(#linear-gradient-23)"/>
      <path id="Path_17064" data-name="Path 17064" d="M1019.784,1510.56h25.38a4.835,4.835,0,0,1,4.372,2.771l11.731,24.872h-31.538a2.939,2.939,0,0,1-2.733-1.859l-9.1-23.016a2.026,2.026,0,0,1,1.885-2.769Z" transform="translate(-919.737 -1339.63)" fill="url(#linear-gradient-24)"/>
      <ellipse id="Ellipse_151" data-name="Ellipse 151" cx="1.998" cy="3.25" rx="1.998" ry="3.25" transform="translate(113.113 181.827) rotate(-17.84)" fill="url(#linear-gradient-25)"/>
      <path id="Path_17065" data-name="Path 17065" d="M1323.77,1218.518h-.243c-3.167-.1-6.419-1.632-9.941-4.7-5.483-4.78-7.57-5.564-11.9-5.564h-.384v-.177h.363c4.333,0,6.548.819,12.04,5.608,3.488,3.041,6.7,4.565,9.831,4.659,3.372.1,6.885-1.971,9.629-5.685a48.223,48.223,0,0,0,3.164-5.146,52.076,52.076,0,0,1,2.944-4.845,10.8,10.8,0,0,1,3.825-3.562,5,5,0,0,1,5.075.207l-.1.142a4.822,4.822,0,0,0-4.893-.191,10.673,10.673,0,0,0-3.759,3.512,51.111,51.111,0,0,0-2.932,4.829,48.567,48.567,0,0,1-3.176,5.166C1330.592,1216.425,1327.13,1218.518,1323.77,1218.518Z" transform="translate(-1157.365 -1078.123)" fill="#91b3fa"/>
      <path id="Path_17066" data-name="Path 17066" d="M1414.425,1257.37a8.478,8.478,0,0,1-.983-.057c-2.061-.24-4.464-1.5-5.182-3.771l.162-.053c.7,2.2,3.033,3.417,5.038,3.65a11.931,11.931,0,0,0,8.236-2.651,39.766,39.766,0,0,0,4.894-4.552c.505-.525,1.027-1.069,1.55-1.593a59.894,59.894,0,0,1,7.449-6.338c1.75-1.258,3.655-2.414,5.745-2.414h.21a4.577,4.577,0,0,1,3.333,1.741,3.015,3.015,0,0,1,.615,2.525l-.172-.041a2.827,2.827,0,0,0-.585-2.377,4.393,4.393,0,0,0-3.2-1.673c-2.125-.078-4.063,1.1-5.846,2.377a59.7,59.7,0,0,0-7.428,6.315c-.521.523-1.043,1.065-1.548,1.592a39.788,39.788,0,0,1-4.916,4.571A12.6,12.6,0,0,1,1414.425,1257.37Z" transform="translate(-1247.005 -1112.539)" fill="#91b3fa"/>
      <path id="Path_17067" data-name="Path 17067" d="M1446.745,1311.386a5.271,5.271,0,0,1-2.4-.554l.079-.162c2.806,1.417,6.166-.4,7.481-1.244a43.147,43.147,0,0,0,4.2-3.222,25.36,25.36,0,0,1,7.24-4.764,7.632,7.632,0,0,1,3.825-.5,4.3,4.3,0,0,1,3.163,2.105l-.162.083a4.127,4.127,0,0,0-3.035-2.011,7.544,7.544,0,0,0-3.737.486,25.168,25.168,0,0,0-7.187,4.735,43.825,43.825,0,0,1-4.21,3.239A10.262,10.262,0,0,1,1446.745,1311.386Z" transform="translate(-1277.242 -1163.894)" fill="#91b3fa"/>
    </g>
  </g>
</svg>
