<svg xmlns="http://www.w3.org/2000/svg" width="114.891" height="48.903" viewBox="0 0 114.891 48.903">
  <g id="web3-foundation" transform="translate(-0.625 -0.719)">
    <path id="Path_986" data-name="Path 986" d="M25.039,16.566V12.951a3.262,3.262,0,0,0-2.006-3L.625.719V2.724L20.607,10.97a.827.827,0,0,1,0,1.535L.625,20.75V28.8l12.034-4.977,7.923,3.268a.827.827,0,0,1,0,1.535L.625,36.87V49.622l22.409-9.236a3.236,3.236,0,0,0,2.006-3V29.095a3.262,3.262,0,0,0-2.006-3L15.085,22.83l7.948-3.268A3.236,3.236,0,0,0,25.039,16.566Z" fill="#c6c6c6"/>
    <path id="Path_987" data-name="Path 987" d="M62,18.685l1.783,6.958,2.006-6.958h1.907l1.882,6.958,1.857-6.958h1.411l-2.4,8.394H68.659l-1.981-7.23-2.055,7.23H62.816l-2.327-8.394Z" transform="translate(-19.106 -5.734)" fill="#c6c6c6"/>
    <path id="Path_988" data-name="Path 988" d="M81.092,23.163a3.456,3.456,0,0,0,.347,1.486,2.652,2.652,0,0,0,2.3,1.312,2.1,2.1,0,0,0,2.2-1.609h1.56a3.519,3.519,0,0,1-3.788,2.823c-2.526,0-4.135-1.733-4.135-4.457,0-2.649,1.609-4.432,4.011-4.432,2.55,0,3.937,1.733,3.937,4.853H81.092ZM85.6,20.587a2.329,2.329,0,0,0-2.006-1.065c-1.411,0-2.3.891-2.476,2.5H86A2.938,2.938,0,0,0,85.6,20.587Z" transform="translate(-25.2 -5.606)" fill="#c6c6c6"/>
    <path id="Path_989" data-name="Path 989" d="M93.328,13.993h1.436V18.45a2.784,2.784,0,0,1,2.6-1.461c2.08,0,3.565,1.808,3.565,4.407s-1.411,4.358-3.541,4.358a2.982,2.982,0,0,1-2.674-1.56v1.387H93.328Zm1.461,7.354c0,1.832,1.04,3.194,2.4,3.194,1.312,0,2.179-1.238,2.179-3.145,0-2.006-.867-3.244-2.228-3.244S94.789,19.465,94.789,21.347Z" transform="translate(-29.588 -4.237)" fill="#c6c6c6"/>
    <path id="Path_990" data-name="Path 990" d="M107.569,22.191a2.251,2.251,0,0,0,2.4,2.451,2.1,2.1,0,0,0,2.3-2.006c0-1.189-.916-1.907-2.4-1.907a3.865,3.865,0,0,0-.5.025V19.468h.372c1.535,0,2.426-.669,2.426-1.857,0-1.114-.867-1.832-2.179-1.832a2.133,2.133,0,0,0-2.277,2.327h-1.535a3.511,3.511,0,0,1,3.838-3.64c2.154,0,3.664,1.238,3.664,3.021a2.7,2.7,0,0,1-1.981,2.575,2.573,2.573,0,0,1,2.13,2.674c0,1.882-1.609,3.219-3.888,3.219a3.655,3.655,0,0,1-3.962-3.764Z" transform="translate(-33.627 -4.388)" fill="#c6c6c6"/>
    <path id="Path_991" data-name="Path 991" d="M62.108,41.971H60.6V40.807h1.51a5.421,5.421,0,0,1,.248-2.179,2.106,2.106,0,0,1,2.2-1.213c.223,0,.421.025.792.049v1.288a2.13,2.13,0,0,0-.718-.1.951.951,0,0,0-.99.693,4.422,4.422,0,0,0-.1,1.436h1.808v1.164H63.544v7.23H62.108Z" transform="translate(-19.141 -11.712)" fill="#c6c6c6"/>
    <path id="Path_992" data-name="Path 992" d="M76.176,46.465c0,2.7-1.609,4.457-4.086,4.457-2.427,0-4.036-1.808-4.036-4.482,0-2.649,1.634-4.407,4.086-4.407C74.542,42.058,76.176,43.841,76.176,46.465Zm-6.562-.074c0,2.055.916,3.318,2.451,3.318s2.55-1.263,2.55-3.219c0-1.981-.99-3.244-2.526-3.244S69.615,44.46,69.615,46.391Z" transform="translate(-21.521 -13.186)" fill="#c6c6c6"/>
    <path id="Path_993" data-name="Path 993" d="M87.651,49.8a2.821,2.821,0,0,1-2.526,1.188A2.868,2.868,0,0,1,82.55,49.7a4.585,4.585,0,0,1-.421-2.526V42.4h1.436v5.051c0,1.585.594,2.328,1.808,2.328a2.195,2.195,0,0,0,1.882-.99c.248-.4.3-.867.3-2.352V42.422h1.436v8.394H87.6V49.8Z" transform="translate(-26.013 -13.302)" fill="#c6c6c6"/>
    <path id="Path_994" data-name="Path 994" d="M96.182,43.331a3.273,3.273,0,0,1,5.126.1,4.584,4.584,0,0,1,.421,2.526v4.779h-1.461V45.683c0-1.609-.594-2.328-1.808-2.328a2.131,2.131,0,0,0-1.881,1.015c-.248.4-.3.842-.3,2.352v4.011H94.82V42.341h1.362Z" transform="translate(-30.064 -13.221)" fill="#c6c6c6"/>
    <path id="Path_995" data-name="Path 995" d="M113.293,49.294V47.907a2.961,2.961,0,0,1-2.674,1.56c-2.1,0-3.541-1.758-3.541-4.333,0-2.625,1.461-4.432,3.566-4.432a2.784,2.784,0,0,1,2.6,1.461V37.706h1.436V49.269h-1.386Zm-4.656-4.16c0,1.907.842,3.145,2.179,3.145,1.362,0,2.4-1.362,2.4-3.194,0-1.882-.966-3.194-2.328-3.194S108.638,43.128,108.638,45.134Z" transform="translate(-33.976 -11.805)" fill="#c6c6c6"/>
    <path id="Path_996" data-name="Path 996" d="M126.185,50.675c-.074-.446-.1-.594-.148-1.04a3.2,3.2,0,0,1-2.7,1.238c-1.808,0-3.021-1.04-3.021-2.55a2.254,2.254,0,0,1,1.857-2.253,11.942,11.942,0,0,1,1.783-.347c.47-.074,1.015-.149,1.956-.223-.025-1.089-.074-1.411-.372-1.733a1.969,1.969,0,0,0-1.461-.52c-1.238,0-1.857.545-1.931,1.684h-1.511a2.842,2.842,0,0,1,.891-2.03,3.823,3.823,0,0,1,2.55-.867,3.185,3.185,0,0,1,2.8,1.238c.446.619.52,1.238.495,3.912a13.04,13.04,0,0,0,.273,3.491Zm-4.308-2.3c0,.842.643,1.337,1.684,1.337a2.25,2.25,0,0,0,2.006-.966,3.157,3.157,0,0,0,.347-1.808v-.3C122.916,46.837,121.876,47.282,121.876,48.372Z" transform="translate(-38.201 -13.186)" fill="#c6c6c6"/>
    <path id="Path_997" data-name="Path 997" d="M134.85,41.47h1.882v1.164H134.85v4.482c0,.941.025,1.114.174,1.312a1.14,1.14,0,0,0,.891.322,2.829,2.829,0,0,0,.817-.124v1.238a6.086,6.086,0,0,1-1.263.149,2.044,2.044,0,0,1-1.782-.916,2.912,2.912,0,0,1-.272-1.535V42.609h-1.535V41.445h1.535v-2.03h1.436Z" transform="translate(-41.892 -12.35)" fill="#c6c6c6"/>
    <path id="Path_998" data-name="Path 998" d="M140.9,37.742h1.437v1.684H140.9Zm1.461,3.194V49.33h-1.436V40.936Z" transform="translate(-44.77 -11.816)" fill="#c6c6c6"/>
    <path id="Path_999" data-name="Path 999" d="M153.278,46.465c0,2.7-1.609,4.457-4.086,4.457-2.426,0-4.036-1.808-4.036-4.482,0-2.649,1.635-4.407,4.086-4.407C151.644,42.058,153.278,43.841,153.278,46.465Zm-6.562-.074c0,2.055.916,3.318,2.452,3.318s2.55-1.263,2.55-3.219c0-1.981-.991-3.244-2.526-3.244S146.716,44.46,146.716,46.391Z" transform="translate(-46.129 -13.186)" fill="#c6c6c6"/>
    <path id="Path_1000" data-name="Path 1000" d="M160.613,43.331a3.273,3.273,0,0,1,5.126.1,4.59,4.59,0,0,1,.421,2.526v4.779h-1.437V45.683c0-1.609-.594-2.328-1.807-2.328a2.13,2.13,0,0,0-1.882,1.015c-.248.4-.3.842-.3,2.352v4.011H159.3V42.341h1.362v.99Z" transform="translate(-50.644 -13.221)" fill="#c6c6c6"/>
  </g>
</svg>
