<svg xmlns="http://www.w3.org/2000/svg" width="347.23" height="63" viewBox="0 0 347.23 63">
  <g id="_02" data-name="02" transform="translate(1 -0.211)">
    <text id="Launch_your_current_game_on_Blockchain" data-name="Launch your current 
game on Blockchain" transform="translate(244 22.211)" font-size="23" font-family="Montserrat-Medium, Montserrat" font-weight="500"><tspan x="-244.49" y="0">Launch your current </tspan><tspan x="-240.258" y="35">game on Blockchain</tspan></text>
    <g id="console" transform="translate(272.712 7.435)">
      <g id="Group_3657" data-name="Group 3657" transform="translate(0 0)">
        <path id="Path_8" data-name="Path 8" d="M17.249-423.443a10.372,10.372,0,0,0-3.8,1.425C7.91-418.7,3.708-410.007,1.535-397.412a54.042,54.042,0,0,0-.935,10.5,24.634,24.634,0,0,0,.734,7.5c1.3,4.708,4.447,6.868,8.634,5.923,3.367-.75,7.353-3.374,13.009-8.547a14.907,14.907,0,0,1,5.353-3.539c6.217-2.459,15.484-1.919,20.506,1.185a29.021,29.021,0,0,1,2.892,2.354c7.224,6.613,11.944,9.207,15.8,8.667,3.382-.465,5.468-3.164,6.317-8.217a57.245,57.245,0,0,0,.014-11.021c-1.065-9.177-3.54-17.889-6.476-22.792-2.619-4.349-5.368-6.808-8.807-7.827a9.9,9.9,0,0,0-3.382-.345c-2.576,0-3.324.135-9.238,1.649-4.634,1.17-6.994,1.619-8.605,1.619-1.569,0-3.77-.4-8.577-1.6-2.13-.525-4.619-1.11-5.526-1.275A18.3,18.3,0,0,0,17.249-423.443Zm6.792,3.914c.95.21,2.763.66,4.015.99,5.67,1.484,8.389,1.9,10.634,1.634a51.2,51.2,0,0,0,7.44-1.5c5.828-1.44,6.447-1.559,8.634-1.544a7.431,7.431,0,0,1,3.094.39c3.151,1.095,5.468,3.569,7.7,8.2,2.187,4.544,3.7,10.212,4.778,17.874a58.2,58.2,0,0,1,.086,11.816c-.849,4.094-2.4,5.458-5.353,4.739-2.734-.675-6.217-3.029-11.023-7.5-2.777-2.564-4.331-3.614-6.807-4.543a25.167,25.167,0,0,0-8.879-1.65,27.3,27.3,0,0,0-10.289,1.41c-2.993,1-5.166,2.384-8.346,5.368a42.273,42.273,0,0,1-7.411,5.623c-3.54,1.859-5.77,1.724-7.008-.435a9.772,9.772,0,0,1-1.137-3.839,57.657,57.657,0,0,1,.216-11.126c1.338-9.942,4.173-18.264,7.684-22.522a10.612,10.612,0,0,1,5.641-3.689A17.244,17.244,0,0,1,24.042-419.529Z" transform="translate(-0.6 423.592)" fill="#16becf"/>
        <path id="Path_9" data-name="Path 9" d="M75.145-360.178a5.072,5.072,0,0,0-2.8,1.394,5.527,5.527,0,0,0-1.408,2.627c0,.362-.214.523-.7.523a4.21,4.21,0,0,0-1.113.4,4.872,4.872,0,0,0-2.694,5.59,4.809,4.809,0,0,0,3.619,3.66c.791.228.818.241.912.764a5.151,5.151,0,0,0,2.8,3.445,4.95,4.95,0,0,0,6.676-2.8,4.33,4.33,0,0,0,.281-.992c0-.188.134-.268.55-.335a5.163,5.163,0,0,0,3.579-2.868,5.3,5.3,0,0,0,.054-3.847,5.093,5.093,0,0,0-3.794-3.07c-.282-.067-.375-.174-.442-.576A4.964,4.964,0,0,0,79.3-358.77,4.9,4.9,0,0,0,75.145-360.178Zm1.649,3.284c.563.349.737.8.845,2.131.134,1.8.563,2.212,2.279,2.212,1.113,0,1.635.214,2.011.845a1.833,1.833,0,0,1-.63,2.507,6.39,6.39,0,0,1-1.515.241c-1.716.094-2.145.509-2.145,2.1s-.617,2.346-1.89,2.346c-1.139,0-1.729-.764-1.729-2.212,0-1.729-.59-2.346-2.252-2.346-1.542,0-2.306-.59-2.306-1.783,0-1.086.777-1.7,2.172-1.716,1.823-.013,2.279-.456,2.386-2.332.067-1.166.107-1.3.469-1.676A1.81,1.81,0,0,1,76.794-356.894Z" transform="translate(-57.478 368.716)" fill="#16becf"/>
        <path id="Path_10" data-name="Path 10" d="M346.663-356.627a3,3,0,0,0-.308,5.214,2.166,2.166,0,0,0,1.568.375,2.2,2.2,0,0,0,1.582-.375,3.621,3.621,0,0,0,.938-.925,2.184,2.184,0,0,0,.375-1.582,2.184,2.184,0,0,0-.375-1.582,2.763,2.763,0,0,0-2.359-1.34A2.737,2.737,0,0,0,346.663-356.627Z" transform="translate(-300.838 365.795)" fill="#16becf"/>
        <path id="Path_11" data-name="Path 11" d="M301.692-311.786a3.36,3.36,0,0,0-1.743,1.622,2.94,2.94,0,0,0,2.654,4.142,2.8,2.8,0,0,0,2.721-1.676,2.758,2.758,0,0,0-.456-3.19A2.992,2.992,0,0,0,301.692-311.786Z" transform="translate(-261.369 326.893)" fill="#16becf"/>
        <path id="Path_12" data-name="Path 12" d="M391.975-311.677a2.916,2.916,0,0,0-1.488,3.968,2.708,2.708,0,0,0,2.694,1.689,2.9,2.9,0,0,0,2.9-2.882,2.715,2.715,0,0,0-1.689-2.708A2.778,2.778,0,0,0,391.975-311.677Z" transform="translate(-340.25 326.891)" fill="#16becf"/>
        <path id="Path_13" data-name="Path 13" d="M347.169-266.669a2.979,2.979,0,0,0,.121,5.657,2.958,2.958,0,0,0,3.767-2.815,3,3,0,0,0-2.064-2.842A2.385,2.385,0,0,0,347.169-266.669Z" transform="translate(-301.009 287.862)" fill="#16becf"/>
      </g>
    </g>
  </g>
</svg>
