<svg xmlns="http://www.w3.org/2000/svg" width="230.114" height="63.931" viewBox="0 0 230.114 63.931">
  <g id="_04" data-name="04" transform="translate(1.326)">
    <text id="Game_asset_management" data-name="Game asset 
management" transform="translate(66.788 22)" font-size="23" font-family="Montserrat-Medium, Montserrat" font-weight="500"><tspan x="0" y="0">Game asset </tspan><tspan x="0" y="35">management</tspan></text>
    <g id="coin" transform="translate(-1.326 13.45)">
      <g id="Group_3656" data-name="Group 3656" transform="translate(0 0)">
        <path id="Path_2039" data-name="Path 2039" d="M23.277-511.514a25.831,25.831,0,0,0-13.18,5.3,33.655,33.655,0,0,0-4.278,4.277,28.007,28.007,0,0,0-3.893,6.954,32.258,32.258,0,0,0-1.284,5.136,32.006,32.006,0,0,0,0,7.013,32.392,32.392,0,0,0,1.294,5.146,27.736,27.736,0,0,0,3.883,6.944,35.634,35.634,0,0,0,4.07,4.119,28.458,28.458,0,0,0,7.153,4.04,32.412,32.412,0,0,0,5.147,1.294,35.362,35.362,0,0,0,6.619.059,25.8,25.8,0,0,0,12.5-5.235,36.332,36.332,0,0,0,4.11-4.069,28.756,28.756,0,0,0,4.041-7.151,32.391,32.391,0,0,0,1.294-5.146,21.983,21.983,0,0,0,.178-3.507,20.47,20.47,0,0,0-.731-6.183,22.48,22.48,0,0,0-1.828-4.929,25.314,25.314,0,0,0-8.694-9.917,25.111,25.111,0,0,0-10.423-4.01A36.558,36.558,0,0,0,23.277-511.514Zm4.446,2.953a22.357,22.357,0,0,1,18.031,12.485,21.622,21.622,0,0,1,2.035,6.529,27.906,27.906,0,0,1,0,6.42,21.622,21.622,0,0,1-2.035,6.529,22.255,22.255,0,0,1-10.324,10.322,21.751,21.751,0,0,1-6.521,2.025,27.933,27.933,0,0,1-6.422,0,22.7,22.7,0,0,1-11.214-5.077,22.527,22.527,0,0,1-7.9-17.009,22.576,22.576,0,0,1,7.9-17.018A22.506,22.506,0,0,1,27.723-508.561Z" transform="translate(-0.45 511.582)" fill="#16becf"/>
        <path id="Path_2040" data-name="Path 2040" d="M77.473-451.47a19.569,19.569,0,0,0-11.243,5.318,19.554,19.554,0,0,0-2.112,26.129,25.491,25.491,0,0,0,3.791,3.79,20.1,20.1,0,0,0,7.954,3.609,19.64,19.64,0,0,0,15.8-3.609,25.49,25.49,0,0,0,3.791-3.79,19.575,19.575,0,0,0,0-23.787,25.359,25.359,0,0,0-3.781-3.78,19.952,19.952,0,0,0-8.568-3.74A23.575,23.575,0,0,0,77.473-451.47Zm4.1,2.976a16.72,16.72,0,0,1,13.294,9.471,16.686,16.686,0,0,1-6.064,21.133,16.681,16.681,0,0,1-20.313-1.769A16.652,16.652,0,0,1,63.2-433.705,16.725,16.725,0,0,1,81.576-448.494Z" transform="translate(-54.538 457.159)" fill="#16becf"/>
        <path id="Path_2041" data-name="Path 2041" d="M139.956-390.763a2.738,2.738,0,0,0-.439.251c-.063.065-.909,1.516-1.86,3.227s-1.755,3.125-1.755,3.134-1.693.223-3.73.484-3.856.521-4.044.577a1.363,1.363,0,0,0-.92,1.628c.073.372-.1.2,3.615,3.46l2.163,1.888-.658,3.395c-.7,3.637-.711,3.841-.24,4.288a1.5,1.5,0,0,0,1.285.465,25.716,25.716,0,0,0,3.856-1.637l3.417-1.6,3.406,1.6a27.34,27.34,0,0,0,3.845,1.646,1.476,1.476,0,0,0,1.6-1.051c.073-.3-.042-1.042-.564-3.739l-.648-3.376,2.111-1.832c3.751-3.283,3.594-3.134,3.668-3.506a1.316,1.316,0,0,0-.8-1.572c-.188-.074-2.038-.363-4.106-.623s-3.772-.493-3.783-.5-.8-1.432-1.776-3.172c-1.661-2.958-1.8-3.172-2.184-3.367A1.637,1.637,0,0,0,139.956-390.763Zm1.985,6.706c1.014,1.786,1.317,2.241,1.567,2.372a20.442,20.442,0,0,0,2.926.5c1.442.177,2.633.353,2.654.372a22.407,22.407,0,0,1-1.9,1.721c-1.536,1.321-1.975,1.748-2.069,2.037s-.063.679.324,2.688a22.777,22.777,0,0,1,.4,2.381,10.4,10.4,0,0,1-1.452-.614c-2.79-1.311-3.406-1.572-3.762-1.572a12.983,12.983,0,0,0-2.748,1.116c-1.317.614-2.424,1.1-2.445,1.07a22.775,22.775,0,0,1,.4-2.381c.387-2.009.428-2.39.324-2.688-.094-.279-.543-.725-2.069-2.037-1.076-.93-1.933-1.7-1.9-1.721s1.212-.186,2.644-.372a16.867,16.867,0,0,0,2.926-.5c.261-.13.554-.567,1.578-2.372.69-1.209,1.275-2.2,1.306-2.2S141.251-385.267,141.941-384.058Z" transform="translate(-115.388 403.473)" fill="#16becf"/>
      </g>
    </g>
  </g>
</svg>
