<svg xmlns="http://www.w3.org/2000/svg" width="206.809" height="66.711" viewBox="0 0 206.809 66.711">
  <g id="_03" data-name="03" transform="translate(0 3.711)">
    <text id="NFTs_Crypto_Collectibles" data-name="NFTs/Crypto
Collectibles" transform="translate(144 22)" font-size="23" font-family="Montserrat-Medium, Montserrat" font-weight="500"><tspan x="-143.842" y="0">NFTs/Crypto</tspan><tspan x="-134.573" y="35">Collectibles</tspan></text>
    <g id="ethereum" transform="translate(172.463 -3.711)">
      <g id="Group_3655" data-name="Group 3655" transform="translate(0 0)">
        <path id="Path_2037" data-name="Path 2037" d="M129.475-496.145c-4.568,7.957-8.3,14.465-8.276,14.49.049.061,16.319,7.76,16.491,7.822s16.761-7.785,16.7-7.883c-.012-.037-3.708-6.447-8.19-14.244s-8.215-14.281-8.289-14.4C137.813-510.548,136.291-507.97,129.475-496.145Zm13.065,1.253c2.566,4.433,4.642,8.092,4.617,8.1s-2.137-.958-4.7-2.173l-4.666-2.21-4.654,2.2c-2.554,1.216-4.666,2.186-4.691,2.161s8.522-15.03,9.148-16c.1-.16.209-.258.246-.233S139.987-499.337,142.541-494.892Zm3.217,11.592a6.932,6.932,0,0,1,1.6.872c-.11.111-9.455,4.519-9.566,4.519-.16,0-9.6-4.482-9.615-4.556,0-.037,2.161-1.093,4.814-2.345l4.814-2.272,3.131,1.5C142.664-484.774,144.837-483.743,145.758-483.3Z" transform="translate(-120.572 510.373)" fill="#16becf"/>
        <path id="Path_2038" data-name="Path 2038" d="M124.659-229.931c4.7,8.24,8.608,14.956,8.657,14.944.11-.037,17.191-29.814,17.13-29.863-.025-.012-3.843,1.793-8.51,4s-8.534,4.04-8.62,4.04-3.708-1.695-8.043-3.758-8.178-3.893-8.534-4.052l-.639-.282Zm5.17-4.372,3.475,1.658,4-1.9c2.2-1.044,4-1.879,4.028-1.854s-1.768,3.193-3.966,7.061-4.064,6.975-4.114,6.926c-.1-.111-7.834-13.618-7.92-13.863C125.248-236.489,125.408-236.415,129.828-234.3Z" transform="translate(-116.1 277.499)" fill="#16becf"/>
      </g>
    </g>
  </g>
</svg>
