<svg xmlns="http://www.w3.org/2000/svg" width="293.164" height="64.196" viewBox="0 0 293.164 64.196">
  <g id="_06" data-name="06" transform="translate(3 6.68)">
    <text id="Payment_gateway" data-name="Payment gateway" transform="translate(184.164 30.037)" font-size="23" font-family="Montserrat-Medium, Montserrat" font-weight="500"><tspan x="-105.857" y="0">Payment gateway</tspan></text>
    <g id="coin" transform="translate(-3 -6.68)">
      <g id="payment" transform="translate(0 0)">
        <path id="Path_2044" data-name="Path 2044" d="M43.5-509.824c-13.19,6.689-12.211,6.162-12.512,6.714-.264.464-.289.653-.289,2.8,0,2.058.025,2.347.251,2.786.389.753.979,1,2.384,1h1.129v3.765H26.726L26.45-493.9a13.312,13.312,0,0,0-9.739-9.789,15.525,15.525,0,0,0-6.087-.013,13.631,13.631,0,0,0-6.287,3.526A13.7,13.7,0,0,0,.8-493.885a16.754,16.754,0,0,0,0,6.024,13.7,13.7,0,0,0,3.539,6.287,13.63,13.63,0,0,0,6.287,3.527,15.468,15.468,0,0,0,6.074-.013,13.309,13.309,0,0,0,9.751-9.789l.276-1.142h7.743v7.53H33.34a3.215,3.215,0,0,0-1.631.251,1.981,1.981,0,0,0-1,1.632,1.981,1.981,0,0,0,1,1.631c.477.238.728.251,7.279.251h6.777v3.853l-1.142.276a13.269,13.269,0,0,0-9.789,9.751,9.992,9.992,0,0,0-.289,3.125,10.345,10.345,0,0,0,.339,3.263,13.213,13.213,0,0,0,14.834,9.789,13.315,13.315,0,0,0,10.692-9.826,9.867,9.867,0,0,0,.326-3.288,11.14,11.14,0,0,0-.866-4.919l-.226-.6.389-.4a1.979,1.979,0,0,0,.54-2.485,2.005,2.005,0,0,0-1.657-1,2.4,2.4,0,0,0-.916.288l-.5.289-.816-.74a13.567,13.567,0,0,0-6-3.238l-1.155-.276V-477.7h6.84c6.614,0,6.865-.013,7.342-.251a1.981,1.981,0,0,0,1-1.631,1.981,1.981,0,0,0-1-1.632,3.349,3.349,0,0,0-1.694-.251H60.824v-15.06h1.192c1.468,0,2.058-.238,2.447-1,.226-.439.251-.728.251-2.786,0-2.146-.025-2.334-.289-2.8s-.59-.665-8.182-4.505c-6.062-3.05-8.044-4-8.471-4.041C47.245-511.706,46.931-511.568,43.5-509.824ZM54.3-504.364c6.564,3.288,6.651,3.326,6.651,3.7v.377H34.456l.038-.389c.038-.364.226-.477,6.564-3.69,3.589-1.82,6.538-3.313,6.564-3.326S50.646-506.2,54.3-504.364Zm-38.816,4.279a9.163,9.163,0,0,1,4.794,2.6,9.5,9.5,0,0,1,2.485,4.279,12.693,12.693,0,0,1,0,4.669,9.566,9.566,0,0,1-7.266,6.877A9.431,9.431,0,0,1,4.425-492.731,9.427,9.427,0,0,1,15.481-500.085Zm30.283,11.094v7.53h-7.53v-15.06h7.53Zm11.295,0v7.53h-7.53v-15.06h7.53ZM49.5-469.965a9.4,9.4,0,0,1,4.694,2.51l.6.615-3.577,3.577-3.577,3.577-1.28-1.28c-1.368-1.343-1.857-1.669-2.485-1.669a1.981,1.981,0,0,0-1.631,1,1.741,1.741,0,0,0-.013,1.732,37.123,37.123,0,0,0,4.618,4.593,1.755,1.755,0,0,0,1.581,0c.226-.113,2.159-1.958,4.3-4.091s3.941-3.84,3.978-3.778a9.791,9.791,0,0,1,.339,2.523,10.194,10.194,0,0,1-.2,1.757,9.566,9.566,0,0,1-6.7,7.317,10,10,0,0,1-5.02,0,8.846,8.846,0,0,1-4.016-2.4,8.965,8.965,0,0,1-2.686-4.92A9.422,9.422,0,0,1,49.5-469.965Z" transform="translate(-0.525 511.664)" fill="#16becf"/>
        <path id="Path_2045" data-name="Path 2045" d="M54.377-402.818c-.389.213-5.961,5.785-6.162,6.162a2.323,2.323,0,0,0-.038,1.644c.2.389,5.76,5.961,6.162,6.187a2.146,2.146,0,0,0,.853.176,2.146,2.146,0,0,0,.853-.176c.4-.226,5.961-5.8,6.162-6.187a2.323,2.323,0,0,0-.038-1.644c-.226-.4-5.8-5.961-6.187-6.162A2.513,2.513,0,0,0,54.377-402.818Zm2.2,5.7,1.318,1.318-1.355,1.355L55.193-393.1l-1.343-1.343L52.495-395.8l1.318-1.318c.728-.728,1.343-1.318,1.38-1.318S55.846-397.849,56.573-397.121Z" transform="translate(-42.082 416.593)" fill="#16becf"/>
      </g>
    </g>
  </g>
</svg>
