<svg xmlns="http://www.w3.org/2000/svg" width="251.191" height="50.487" viewBox="0 0 251.191 50.487">
  <g id="_01" data-name="01" transform="translate(1.001 7.688)">
    <text id="Fantasy_Sports" data-name="Fantasy Sports" transform="translate(85.999 29.523)" font-size="23" font-family="Montserrat-Medium, Montserrat" font-weight="500"><tspan x="-86.296" y="0">Fantasy Sports</tspan></text>
    <g id="Group_3654" data-name="Group 3654" transform="translate(199.783 -7.688)">
      <g id="rugby" transform="translate(0 0)">
        <path id="Path_2034" data-name="Path 2034" d="M39.133-511.631a45.154,45.154,0,0,0-13.186,2.914c-11.941,4.553-20.08,13.68-23.547,26.431A40.863,40.863,0,0,0,.9-471.1c-.01,4.069.662,6.894,1.906,8.06a8.933,8.933,0,0,0,4.543,1.689,40.5,40.5,0,0,0,7.586,0,43.1,43.1,0,0,0,22.293-9.205,43.829,43.829,0,0,0,5.037-5.1,42.725,42.725,0,0,0,8.168-17.67c1.047-4.929,1.166-10.322.286-13.63-.761-2.9-2.064-3.9-5.857-4.5A50.063,50.063,0,0,0,39.133-511.631Zm3.892,2.41c2.489.178,4.326.7,4.761,1.343a6.669,6.669,0,0,1,.889,2.657,32.2,32.2,0,0,1,.168,5.413l-.079.375-4.84-4.869-4.84-4.869.444-.059A20.383,20.383,0,0,1,43.025-509.222Zm-.711,6.687,6.2,6.2-.237,1.284c-.286,1.511-.928,4.129-1.353,5.472a41.2,41.2,0,0,1-5.077,10.331,36.781,36.781,0,0,1-6.005,6.6,40.432,40.432,0,0,1-18.579,8.415l-1.373.267-6.153-6.163-6.153-6.153.286-1.531a40.133,40.133,0,0,1,7.892-17.976,42.663,42.663,0,0,1,4.484-4.573,39.409,39.409,0,0,1,18.144-8.257,7.619,7.619,0,0,1,1.58-.2C36.052-508.777,38.906-505.952,42.314-502.535Zm-29.72,38.876a29.112,29.112,0,0,1-5.264-.178,7.4,7.4,0,0,1-2.766-.909,5.177,5.177,0,0,1-1.175-3.141,27.429,27.429,0,0,1-.158-4.435l.069-.78,4.672,4.672C10.549-465.851,12.623-463.708,12.593-463.659Z" transform="translate(-0.899 511.657)" fill="#16becf"/>
        <path id="Path_2035" data-name="Path 2035" d="M99.808-439.351a31.957,31.957,0,0,0-14.292,10.973c-1.452,2.074-2.716,4.543-2.716,5.294a1.051,1.051,0,0,0,1.185,1.126c.682,0,.9-.237,1.679-1.827A22.057,22.057,0,0,1,89.121-429a31.471,31.471,0,0,1,12.149-8.326c1.067-.4,1.264-.533,1.472-1.007a1.2,1.2,0,0,0-.375-1.343C101.892-440.072,101.468-440.023,99.808-439.351Z" transform="translate(-74.711 447.011)" fill="#16becf"/>
        <path id="Path_2036" data-name="Path 2036" d="M156.388-366.753a1.324,1.324,0,0,0-.622,1.007c0,.474.3.849,2,2.558l1.8,1.808-1.827,1.827-1.817,1.827-1.9-1.877-1.887-1.877h-.5a1.157,1.157,0,0,0-1.2.849c-.178.642-.02.869,1.916,2.805L154.186-356l-1.827,1.827-1.827,1.817-1.847-1.827c-1.926-1.906-2.114-2.035-2.766-1.906a1.153,1.153,0,0,0-.919,1.215c0,.444,0,.444,1.9,2.351l1.9,1.906-1.254,1.274-1.254,1.274v.514a.9.9,0,0,0,.336.849.865.865,0,0,0,.751.336,1.716,1.716,0,0,0,.622-.109,13.628,13.628,0,0,0,1.373-1.254l1.165-1.156,1.906,1.906c1.887,1.877,1.916,1.9,2.331,1.9a1.185,1.185,0,0,0,1.245-1.462c-.059-.3-.375-.681-1.906-2.222l-1.837-1.847,1.817-1.827,1.817-1.827,1.837,1.817c1.975,1.966,2.163,2.084,2.894,1.847a1.068,1.068,0,0,0,.761-.78c.188-.662,0-.938-1.906-2.864l-1.788-1.8,1.817-1.827,1.827-1.827,1.877,1.877c1.887,1.877,1.887,1.877,2.331,1.877a1.184,1.184,0,0,0,1.136-1.758,26.376,26.376,0,0,0-1.877-2l-1.738-1.728,1.077-1.086c1.294-1.314,1.393-1.452,1.393-2.005a1.093,1.093,0,0,0-.77-1.116c-.652-.188-.919-.039-2.252,1.294l-1.225,1.235-1.8-1.788c-1-.988-1.906-1.847-2.025-1.906A1.28,1.28,0,0,0,156.388-366.753Z" transform="translate(-130.767 381.199)" fill="#16becf"/>
      </g>
    </g>
  </g>
</svg>
