<svg xmlns="http://www.w3.org/2000/svg" width="159.474" height="51.482" viewBox="0 0 159.474 51.482">
  <g id="_05" data-name="05" transform="translate(0 3.862)">
    <text id="Rewards" transform="translate(108.474 31.59)" font-size="23" font-family="Montserrat-Medium, Montserrat" font-weight="500"><tspan x="-50.485" y="0">Rewards</tspan></text>
    <g id="coin" transform="translate(0 -3.862)">
      <g id="badge_1" transform="translate(0 0)">
        <path id="Path_2042" data-name="Path 2042" d="M72.436-511.767a20.643,20.643,0,0,0-17.489,15.1,20.066,20.066,0,0,0,3.39,17.125,21.618,21.618,0,0,0,4.278,4.216l.735.543v13.342l.235.342a1.459,1.459,0,0,0,1.348.664c.235-.03,2.41-.936,5.187-2.163l4.768-2.123,4.778,2.123c2.767,1.227,4.942,2.133,5.176,2.163a1.459,1.459,0,0,0,1.348-.664l.235-.342v-13.342l.745-.543a20.088,20.088,0,0,0,6.994-23.393,20.7,20.7,0,0,0-19.45-13.191C74.049-511.9,73.028-511.838,72.436-511.767Zm5,3.018a17.867,17.867,0,0,1,9.015,4.115,17.127,17.127,0,0,1,.939,25.164,17.872,17.872,0,0,1-9.5,4.95,24.138,24.138,0,0,1-6.024,0,17.872,17.872,0,0,1-9.5-4.95A17.068,17.068,0,0,1,58.407-497.6a17.7,17.7,0,0,1,11.986-10.756A19.781,19.781,0,0,1,77.438-508.749Zm-10.4,35.91a21.471,21.471,0,0,0,6.391,1.469,21.24,21.24,0,0,0,9.311-1.469,3.983,3.983,0,0,1,.633-.242c.051,0,.092,1.962.092,4.427,0,2.435-.02,4.427-.051,4.427s-1.858-.8-4.063-1.781c-3.277-1.459-4.084-1.781-4.462-1.781s-1.184.322-4.462,1.781c-2.205.976-4.033,1.781-4.063,1.781s-.051-1.992-.051-4.427c0-2.465.041-4.427.092-4.427A3.982,3.982,0,0,1,67.035-472.839Z" transform="translate(-54.292 511.909)" fill="#16becf"/>
        <path id="Path_2043" data-name="Path 2043" d="M150.848-442.756c-.435.212-.478.261-2.314,2.944-.86,1.255-1.6,2.307-1.645,2.336s-1.518.087-3.3.145c-3.5.126-3.726.164-4.15.7a1.647,1.647,0,0,0-.265.7c-.064.463-.011.569,1.9,3.813l1.168,1.979-.287.541c-.159.29-.839,1.467-1.507,2.606-1.369,2.317-1.475,2.635-1.093,3.253.425.7.573.734,3.5.82,1.433.048,2.94.106,3.344.135l.743.048,1.592,2.336c.881,1.274,1.73,2.471,1.889,2.645a1.606,1.606,0,0,0,2.272,0c.159-.174,1.019-1.371,1.889-2.645l1.592-2.336.743-.048c.414-.029,1.911-.087,3.344-.135,2.93-.087,3.078-.116,3.5-.82.382-.618.276-.936-1.093-3.253-.669-1.139-1.348-2.317-1.507-2.606l-.287-.541,1.168-1.979c1.911-3.243,1.964-3.349,1.9-3.813a1.647,1.647,0,0,0-.265-.7c-.425-.541-.637-.57-4.161-.7a18.973,18.973,0,0,1-3.354-.222c-.074-.068-.732-1-1.475-2.095s-1.518-2.2-1.709-2.461A1.666,1.666,0,0,0,150.848-442.756Zm1.974,5.763c1.189,1.757,1.433,2.046,1.889,2.259a20.068,20.068,0,0,0,2.632.193c1.316.039,2.409.1,2.431.116s-.467.907-1.083,1.969c-.966,1.631-1.136,2-1.136,2.365s.18.734,1.136,2.365a7.606,7.606,0,0,1,1.008,1.959c-.074.01-1.178.058-2.473.1-2.112.077-2.388.106-2.707.29a8.3,8.3,0,0,0-1.624,2.037,20.56,20.56,0,0,1-1.337,1.844,20.559,20.559,0,0,1-1.337-1.844,8.3,8.3,0,0,0-1.624-2.037c-.318-.183-.594-.212-2.707-.29-1.295-.039-2.4-.087-2.473-.1a7.605,7.605,0,0,1,1.008-1.959c.955-1.631,1.136-2,1.136-2.365s-.17-.734-1.136-2.365c-.616-1.062-1.1-1.95-1.083-1.969s1.115-.077,2.431-.116a20.068,20.068,0,0,0,2.632-.193c.456-.212.7-.5,1.889-2.259.669-.975,1.231-1.776,1.263-1.776S152.154-437.968,152.823-436.993Z" transform="translate(-130.966 449.581)" fill="#16becf"/>
      </g>
    </g>
  </g>
</svg>
