<svg xmlns="http://www.w3.org/2000/svg" width="94" height="94" viewBox="0 0 94 94">
  <g id="_01_transparent" data-name="01 transparent" transform="translate(17857.258 338.972)">
    <rect id="Rectangle_234" data-name="Rectangle 234" width="94" height="94" rx="36" transform="translate(-17857.258 -338.972)" fill="#f0fbf7"/>
    <g id="Group_3684" data-name="Group 3684">
      <path id="Path_876" data-name="Path 876" d="M192.07,160.747,179.827,172.99" transform="translate(-18000.943 -454.589)" fill="none" stroke="#46d39a" stroke-linecap="round" stroke-linejoin="round" stroke-width="2"/>
      <path id="Path_877" data-name="Path 877" d="M182.377,165.217l-6-1.417a.866.866,0,0,1-.414-1.455l4.769-4.769a1.73,1.73,0,0,1,1.211-.507l5.377-.047" transform="translate(-18002.172 -455.702)" fill="none" stroke="#46d39a" stroke-linecap="round" stroke-linejoin="round" stroke-width="2"/>
      <path id="Path_878" data-name="Path 878" d="M203.833,160.236l1.4-6.733a2.6,2.6,0,0,0-3.073-3.073l-6.733,1.4a10.377,10.377,0,0,0-5.232,2.826l-5.524,5.523a13.853,13.853,0,0,0-3.912,7.793l-.02.13a6.02,6.02,0,0,0,6.829,6.827l.13-.018A13.853,13.853,0,0,0,195.492,171l5.523-5.523a10.378,10.378,0,0,0,2.826-5.232Z" transform="translate(-18000.689 -457.688)" fill="none" stroke="#46d39a" stroke-linecap="round" stroke-linejoin="round" stroke-width="2"/>
      <path id="Path_879" data-name="Path 879" d="M189.867,152.285a38.857,38.857,0,0,1,10.193,10.193" transform="translate(-17997.943 -457.118)" fill="none" stroke="#46d39a" stroke-linecap="round" stroke-linejoin="round" stroke-width="2"/>
      <path id="Path_880" data-name="Path 880" d="M186.667,170.294l1.416,6a.866.866,0,0,0,1.455.414l4.769-4.769a1.731,1.731,0,0,0,.508-1.211l.047-5.377" transform="translate(-17998.898 -453.214)" fill="none" stroke="#46d39a" stroke-linecap="round" stroke-linejoin="round" stroke-width="2"/>
    </g>
  </g>
</svg>
