<svg xmlns="http://www.w3.org/2000/svg" width="94" height="94" viewBox="0 0 94 94">
  <g id="_02_More_socialization" data-name="02 More socialization" transform="translate(17857.258 338.662)">
    <rect id="Rectangle_234" data-name="Rectangle 234" width="94" height="94" rx="36" transform="translate(-17857.258 -338.661)" fill="#fff7f2"/>
    <g id="twitch" transform="translate(-17826.252 204.282)">
      <path id="Path_16357" data-name="Path 16357" d="M3.206-511.849a5.474,5.474,0,0,0-.887.343,3.353,3.353,0,0,0-1.071.814,3.353,3.353,0,0,0-.814,1.071c-.471.961-.441.208-.441,10.829,0,10.591-.024,9.869.428,10.8a4.215,4.215,0,0,0,1.927,1.933c.912.447.893.44,4.044.471l2.827.018.024,1.634c.024,1.53.037,1.658.171,2a2.25,2.25,0,0,0,1.181,1.181,2.477,2.477,0,0,0,1.615.006c.33-.122.52-.294,2.71-2.478l2.362-2.349H18.96c2.716-.006,3.512-.122,4.68-.7a8.875,8.875,0,0,0,2.447-1.842c1.309-1.23,3.781-3.769,4.16-4.277a4.978,4.978,0,0,0,.875-1.8l.165-.587.018-6.742c.018-7.562.043-7.134-.428-8.094a3.353,3.353,0,0,0-.814-1.071,3.353,3.353,0,0,0-1.071-.814c-.973-.471.086-.441-13.368-.434C5.341-511.935,3.518-511.923,3.206-511.849Zm24.13,1.187a3.115,3.115,0,0,1,2.643,2.294c.128.453.128,11.967,0,12.42a3.115,3.115,0,0,1-2.643,2.294c-.306.037-3.634.061-8.2.061H11.447l-.159.19a.635.635,0,0,0,0,.844l.159.19,8.143-.006c7.623,0,8.174-.006,8.547-.11.22-.061.453-.129.52-.159.208-.079-4,4.111-4.576,4.564a5.83,5.83,0,0,1-1.909,1,14.488,14.488,0,0,1-3.451.214H16.733l-2.484,2.478-2.484,2.478h-.306a.868.868,0,0,1-.8-.441c-.1-.177-.116-.428-.141-2.2-.031-1.982-.031-2.007-.171-2.141l-.141-.141-3.224-.031c-3.071-.031-3.243-.043-3.6-.165a3.105,3.105,0,0,1-2.1-2.594c-.031-.281-.061-1.291-.061-2.245V-493.6l.324.281a4.634,4.634,0,0,0,1.695.863,13.881,13.881,0,0,0,3.4-.006.69.69,0,0,0,.208-.722c-.1-.367-.232-.4-1.352-.4A5.34,5.34,0,0,1,3-493.929a3.091,3.091,0,0,1-1.725-2.435c-.08-.655-.08-10.933,0-11.588a3.085,3.085,0,0,1,2.612-2.7C4.509-510.729,26.712-510.736,27.336-510.662Z" transform="translate(0)" fill="#ffbc8b"/>
      <path id="Path_16358" data-name="Path 16358" d="M80.732-455.864a2.22,2.22,0,0,0-1.285,1.12,2.985,2.985,0,0,0-.165.679l-.037.4-.4.037a2,2,0,0,0-1.334.673A1.8,1.8,0,0,0,77-451.624a1.96,1.96,0,0,0,1.921,2.007h.324l.031.392a2.007,2.007,0,0,0,1.132,1.7,2,2,0,0,0,2.215-.294,1.976,1.976,0,0,0,.667-1.37l.031-.428h.324a2,2,0,0,0,1.915-2.349,1.865,1.865,0,0,0-.551-1.083,2.161,2.161,0,0,0-1.3-.587l-.4-.037-.024-.41a2.016,2.016,0,0,0-1.358-1.744A2.762,2.762,0,0,0,80.732-455.864Zm.918,1.328c.3.177.367.379.367,1.065,0,.985.1,1.1,1.028,1.1.783,0,.991.086,1.175.459a.493.493,0,0,1,.049.489c-.135.4-.318.483-1.15.52-.7.031-.74.037-.9.2s-.171.2-.2.9c-.037.838-.116,1.009-.532,1.156a.461.461,0,0,1-.483-.031c-.361-.177-.453-.416-.453-1.169,0-.606-.006-.636-.177-.826l-.177-.2-.728-.031a3.13,3.13,0,0,1-.857-.11.746.746,0,0,1-.2-1.016c.22-.281.422-.343,1.12-.343.587,0,.655-.012.814-.147s.171-.171.2-.875a3.945,3.945,0,0,1,.1-.857A.728.728,0,0,1,81.65-454.536Z" transform="translate(-72.295 -52.602)" fill="#ffbc8b"/>
      <path id="Path_16359" data-name="Path 16359" d="M315.764-445.793a1.962,1.962,0,0,0-1.328,1.872,1.891,1.891,0,0,0,.5,1.377l.275.306-.22.245a2.067,2.067,0,0,0,.618,3.285,1.582,1.582,0,0,0,.838.165,1.64,1.64,0,0,0,.863-.165,2.628,2.628,0,0,0,.593-.392l.226-.22.312.281a1.909,1.909,0,0,0,1.346.5,1.908,1.908,0,0,0,1.346-.5,1.83,1.83,0,0,0,.661-1.383,1.85,1.85,0,0,0-.428-1.438l-.3-.392.214-.232a1.621,1.621,0,0,0,.5-1.377,1.68,1.68,0,0,0-.147-.918,1.977,1.977,0,0,0-1.689-1.12,1.961,1.961,0,0,0-1.468.447l-.337.275-.349-.269a2.989,2.989,0,0,0-.648-.367A2.378,2.378,0,0,0,315.764-445.793Zm1.083,1.273a6.2,6.2,0,0,1,.587.52c.4.379.465.416.7.416s.294-.037.728-.453c.526-.508.649-.587.924-.587a.755.755,0,0,1,.667,1.058,6.092,6.092,0,0,1-.52.6c-.416.434-.453.489-.453.728s.037.294.416.7c.551.569.624.685.624.991a.758.758,0,0,1-.893.722,2.829,2.829,0,0,1-.673-.52c-.753-.716-.942-.716-1.676.031a2.344,2.344,0,0,1-.593.471.778.778,0,0,1-.948-.893,2.269,2.269,0,0,1,.508-.673c.71-.74.716-.912.018-1.621-.508-.526-.612-.746-.5-1.089A.765.765,0,0,1,316.847-444.52Z" transform="translate(-295.194 -62)" fill="#ffbc8b"/>
      <path id="Path_16360" data-name="Path 16360" d="M202.981-313.669a2.081,2.081,0,0,0-1.34,1.083,1.723,1.723,0,0,0-.141.9,1.415,1.415,0,0,0,.184.942,2.075,2.075,0,0,0,1.046.924,6.26,6.26,0,0,0,2.1.122,6.26,6.26,0,0,0,2.1-.122,2.075,2.075,0,0,0,1.046-.924,1.415,1.415,0,0,0,.184-.942,1.724,1.724,0,0,0-.141-.9,2.247,2.247,0,0,0-.991-.961c-.337-.159-.343-.159-2.08-.171A18.508,18.508,0,0,0,202.981-313.669Zm3.506,1.309a.76.76,0,0,1,.33,1.058c-.208.3-.337.318-1.982.318s-1.774-.018-1.982-.318a.849.849,0,0,1,0-.777,1.242,1.242,0,0,1,.294-.257c.171-.1.318-.116,1.676-.116A5.526,5.526,0,0,1,206.486-312.36Z" transform="translate(-189.178 -186.097)" fill="#ffbc8b"/>
      <path id="Path_16361" data-name="Path 16361" d="M137.159-211.81a.607.607,0,0,0-.159.422.607.607,0,0,0,.159.422.434.434,0,0,0,.428.19.9.9,0,0,0,.422-.1.644.644,0,0,0,.214-.722.585.585,0,0,0-.636-.4A.434.434,0,0,0,137.159-211.81Z" transform="translate(-128.624 -281.592)" fill="#ffbc8b"/>
    </g>
  </g>
</svg>
