<svg xmlns="http://www.w3.org/2000/svg" width="94" height="94" viewBox="0 0 94 94">
  <g id="_03_All_in_one_solution" data-name="03 All in one solution" transform="translate(17597.258 275.933)">
    <rect id="Rectangle_238" data-name="Rectangle 238" width="94" height="94" rx="36" transform="translate(-17597.258 -275.933)" fill="#fef1f2"/>
    <path id="Path_886" data-name="Path 886" d="M453.741,238.632,452,231.667" transform="translate(-17997.014 -451.912)" fill="none" stroke="#f5808b" stroke-linecap="round" stroke-linejoin="round" stroke-width="2"/>
    <path id="Path_887" data-name="Path 887" d="M442.667,238.632l1.741-6.965" transform="translate(-17999.871 -451.912)" fill="none" stroke="#f5808b" stroke-linecap="round" stroke-linejoin="round" stroke-width="2"/>
    <path id="Path_888" data-name="Path 888" d="M463.732,237.381H439.614A3.614,3.614,0,0,1,436,233.767V216.614A3.614,3.614,0,0,1,439.614,213h24.117a3.614,3.614,0,0,1,3.615,3.614v17.153a3.614,3.614,0,0,1-3.614,3.614Z" transform="translate(-18001.912 -457.626)" fill="none" stroke="#f5808b" stroke-linecap="round" stroke-linejoin="round" stroke-width="2"/>
    <path id="Path_889" data-name="Path 889" d="M442,227.445V222.7" transform="translate(-18000.074 -454.657)" fill="none" stroke="#f5808b" stroke-linecap="round" stroke-linejoin="round" stroke-width="2"/>
    <path id="Path_890" data-name="Path 890" d="M446,228.782V218.333" transform="translate(-17998.852 -455.993)" fill="none" stroke="#f5808b" stroke-linecap="round" stroke-linejoin="round" stroke-width="2"/>
    <path id="Path_891" data-name="Path 891" d="M450,227.69V221.9" transform="translate(-17997.627 -454.901)" fill="none" stroke="#f5808b" stroke-linecap="round" stroke-linejoin="round" stroke-width="2"/>
    <path id="Path_892" data-name="Path 892" d="M454,228.559v-9.5" transform="translate(-17996.402 -455.77)" fill="none" stroke="#f5808b" stroke-linecap="round" stroke-linejoin="round" stroke-width="2"/>
  </g>
</svg>
