<svg xmlns="http://www.w3.org/2000/svg" width="94" height="94" viewBox="0 0 94 94">
  <g id="_04_secured" data-name="04 secured" transform="translate(-309 -6296.689)">
    <g id="Feature_Icon_3" data-name="Feature Icon 3" transform="translate(18166.258 6635.661)">
      <rect id="Rectangle_234" data-name="Rectangle 234" width="94" height="94" rx="36" transform="translate(-17857.258 -338.972)" fill="#ebfbff"/>
      <g id="Group_3686" data-name="Group 3686" transform="translate(6 -242.661)">
        <path id="Path_863" data-name="Path 863" d="M198.667,416v15.062" transform="translate(-17999.449 -460.3)" fill="none" stroke="#ffbc8b" stroke-linecap="round" stroke-linejoin="round" stroke-width="2"/>
        <path id="Path_864" data-name="Path 864" d="M191.6,419.56v10.033" transform="translate(-18002.361 -458.833)" fill="none" stroke="#ffbc8b" stroke-linecap="round" stroke-linejoin="round" stroke-width="2"/>
        <path id="Path_865" data-name="Path 865" d="M177.333,422.667v5.648" transform="translate(-18008.238 -457.553)" fill="none" stroke="#ffbc8b" stroke-linecap="round" stroke-linejoin="round" stroke-width="2"/>
        <path id="Path_866" data-name="Path 866" d="M184.4,418.133v12.05" transform="translate(-18005.328 -459.421)" fill="none" stroke="#ffbc8b" stroke-linecap="round" stroke-linejoin="round" stroke-width="2"/>
        <path id="Path_867" data-name="Path 867" d="M194.894,411.627a3.294,3.294,0,1,1-4.659,0A3.294,3.294,0,0,1,194.894,411.627Z" transform="translate(-18003.32 -462.499)" fill="none" stroke="#ffbc8b" stroke-linecap="round" stroke-linejoin="round" stroke-width="2"/>
        <path id="Path_868" data-name="Path 868" d="M202.1,405.623a3.294,3.294,0,1,1-4.659,0,3.294,3.294,0,0,1,4.659,0Z" transform="translate(-18000.354 -464.973)" fill="none" stroke="#ffbc8b" stroke-linecap="round" stroke-linejoin="round" stroke-width="2"/>
        <path id="Path_869" data-name="Path 869" d="M180.484,412.819a3.293,3.293,0,1,1-2.33-.966,3.294,3.294,0,0,1,2.33.966" transform="translate(-18009.258 -462.008)" fill="none" stroke="#ffbc8b" stroke-linecap="round" stroke-linejoin="round" stroke-width="2"/>
        <path id="Path_870" data-name="Path 870" d="M187.69,406.815a3.294,3.294,0,1,1-4.659,0,3.294,3.294,0,0,1,4.659,0Z" transform="translate(-18006.289 -464.481)" fill="none" stroke="#ffbc8b" stroke-linecap="round" stroke-linejoin="round" stroke-width="2"/>
        <path id="Path_871" data-name="Path 871" d="M198.527,408.48l-5.14,4.274" transform="translate(-18001.625 -463.398)" fill="none" stroke="#ffbc8b" stroke-linecap="round" stroke-linejoin="round" stroke-width="2"/>
        <path id="Path_872" data-name="Path 872" d="M191.021,412.624l-4.688-3.144" transform="translate(-18004.531 -462.986)" fill="none" stroke="#ffbc8b" stroke-linecap="round" stroke-linejoin="round" stroke-width="2"/>
        <path id="Path_873" data-name="Path 873" d="M178.987,413.954l5.12-4.274" transform="translate(-18007.557 -462.903)" fill="none" stroke="#ffbc8b" stroke-linecap="round" stroke-linejoin="round" stroke-width="2"/>
      </g>
    </g>
    <g id="Group_3685" data-name="Group 3685" transform="translate(18172.258 6393)">
      <path id="Path_863-2" data-name="Path 863" d="M198.667,416v15.062" transform="translate(-17999.449 -460.3)" fill="none" stroke="#4ddffd" stroke-linecap="round" stroke-linejoin="round" stroke-width="2"/>
      <path id="Path_864-2" data-name="Path 864" d="M191.6,419.56v10.033" transform="translate(-18002.361 -458.833)" fill="none" stroke="#4ddffd" stroke-linecap="round" stroke-linejoin="round" stroke-width="2"/>
      <path id="Path_865-2" data-name="Path 865" d="M177.333,422.667v5.648" transform="translate(-18008.238 -457.553)" fill="none" stroke="#4ddffd" stroke-linecap="round" stroke-linejoin="round" stroke-width="2"/>
      <path id="Path_866-2" data-name="Path 866" d="M184.4,418.133v12.05" transform="translate(-18005.328 -459.421)" fill="none" stroke="#4ddffd" stroke-linecap="round" stroke-linejoin="round" stroke-width="2"/>
      <path id="Path_867-2" data-name="Path 867" d="M194.894,411.627a3.294,3.294,0,1,1-4.659,0A3.294,3.294,0,0,1,194.894,411.627Z" transform="translate(-18003.32 -462.499)" fill="none" stroke="#4ddffd" stroke-linecap="round" stroke-linejoin="round" stroke-width="2"/>
      <path id="Path_868-2" data-name="Path 868" d="M202.1,405.623a3.294,3.294,0,1,1-4.659,0,3.294,3.294,0,0,1,4.659,0Z" transform="translate(-18000.354 -464.973)" fill="none" stroke="#4ddffd" stroke-linecap="round" stroke-linejoin="round" stroke-width="2"/>
      <path id="Path_869-2" data-name="Path 869" d="M180.484,412.819a3.293,3.293,0,1,1-2.33-.966,3.294,3.294,0,0,1,2.33.966" transform="translate(-18009.258 -462.008)" fill="none" stroke="#4ddffd" stroke-linecap="round" stroke-linejoin="round" stroke-width="2"/>
      <path id="Path_870-2" data-name="Path 870" d="M187.69,406.815a3.294,3.294,0,1,1-4.659,0,3.294,3.294,0,0,1,4.659,0Z" transform="translate(-18006.289 -464.481)" fill="none" stroke="#4ddffd" stroke-linecap="round" stroke-linejoin="round" stroke-width="2"/>
      <path id="Path_871-2" data-name="Path 871" d="M198.527,408.48l-5.14,4.274" transform="translate(-18001.625 -463.398)" fill="none" stroke="#4ddffd" stroke-linecap="round" stroke-linejoin="round" stroke-width="2"/>
      <path id="Path_872-2" data-name="Path 872" d="M191.021,412.624l-4.688-3.144" transform="translate(-18004.531 -462.986)" fill="none" stroke="#4ddffd" stroke-linecap="round" stroke-linejoin="round" stroke-width="2"/>
      <path id="Path_873-2" data-name="Path 873" d="M178.987,413.954l5.12-4.274" transform="translate(-18007.557 -462.903)" fill="none" stroke="#4ddffd" stroke-linecap="round" stroke-linejoin="round" stroke-width="2"/>
    </g>
  </g>
</svg>
