<svg xmlns="http://www.w3.org/2000/svg" width="180" height="54.574" viewBox="0 0 180 54.574">
  <g id="loog-dark" transform="translate(0 -10.448)">
    <g id="Layer_1" data-name="Layer 1" transform="translate(0 10.448)">
      <path id="Path_1" data-name="Path 1" d="M3.137,57.007H0V42.317Q0,36.392,5.917,36.4H8.355v3.137H5.917a2.457,2.457,0,0,0-2.78,2.78Z" transform="translate(0 -20.259)" fill="#1a1b1d"/>
      <path id="Path_2" data-name="Path 2" d="M27.658,36.4q5.955,0,5.955,5.917v8.811c0,3.927-1.982,5.879-5.955,5.879h-7q-5.925,0-5.925-5.955V42.317q0-5.925,5.925-5.917Zm-7,3.137a2.457,2.457,0,0,0-2.78,2.78v8.735a2.478,2.478,0,0,0,2.78,2.818h7q2.81,0,2.818-2.742V42.317q0-2.78-2.818-2.78Z" transform="translate(-3.542 -20.259)" fill="#1a1b1d"/>
      <path id="Path_3" data-name="Path 3" d="M49.515,48.272a2.478,2.478,0,0,0,2.78,2.818h7a2.5,2.5,0,0,0,2.818-2.818V39.537q0-2.78-2.818-2.78H51.322V33.62H59.3q5.963,0,5.955,5.917v8.735q0,5.963-5.955,5.955h-7q-5.925,0-5.925-5.955V24.84h3.145Z" transform="translate(-11.149 -17.48)" fill="#1a1b1d"/>
      <path id="Path_4" data-name="Path 4" d="M90.915,36.4q5.955,0,5.955,5.917v8.811c0,3.927-1.982,5.879-5.955,5.879h-6.98q-5.925,0-5.925-5.955V42.317q0-5.925,5.925-5.917Zm-7,3.137a2.457,2.457,0,0,0-2.78,2.78v8.735a2.478,2.478,0,0,0,2.78,2.818h7q2.81,0,2.818-2.742V42.317q0-2.78-2.818-2.78Z" transform="translate(-18.757 -20.259)" fill="#1a1b1d"/>
      <path id="Path_5" data-name="Path 5" d="M107,33.62h1.648V24.84h3.145v8.78h3.661v3.137h-3.661v17.47h-3.145V36.757H107Z" transform="translate(-25.727 -17.48)" fill="#1a1b1d"/>
      <path id="Path_6" data-name="Path 6" d="M133.6,36.4q5.955,0,5.963,5.917v8.811c0,3.927-1.99,5.879-5.963,5.879h-7q-5.909,0-5.917-5.955V42.317q0-5.925,5.917-5.917Zm-7,3.137a2.457,2.457,0,0,0-2.78,2.78v8.735a2.478,2.478,0,0,0,2.78,2.818h7c1.884,0,2.818-.911,2.818-2.742V42.317c0-1.853-.934-2.78-2.818-2.78Z" transform="translate(-29.017 -20.259)" fill="#1a1b1d"/>
      <path id="Path_7" data-name="Path 7" d="M157.54,54.425V51.577h10.1a2.256,2.256,0,0,0,2.552-2.552v-4.77a2.674,2.674,0,0,0-.6-1.846,2.279,2.279,0,0,0-1.808-.676H157.54v-2.8h10.322a2.263,2.263,0,0,0,2.332-2.59V33.2a2.241,2.241,0,0,0-2.552-2.514h-10.1V27.81h10.1q5.4,0,5.393,5.393v3.107a5.628,5.628,0,0,1-1.344,3.972,5.59,5.59,0,0,1,1.344,3.942v4.77q0,5.4-5.393,5.4Z" transform="translate(-37.879 -18.194)" fill="#16becf"/>
      <path id="Path_8" data-name="Path 8" d="M195.835,51.577a2.224,2.224,0,0,0,2.552-2.476V44.254a2.246,2.246,0,0,0-2.552-2.522h-7.254v-2.8H195.8q5.385,0,5.393,5.317v4.846q0,5.317-5.393,5.317h-6.35q-5.317,0-5.355-5.4V33.2q0-5.385,5.355-5.393h10.14v2.879h-10.11a2.226,2.226,0,0,0-2.514,2.514V49.024a2.241,2.241,0,0,0,2.514,2.552Z" transform="translate(-44.265 -18.194)" fill="#16becf"/>
      <path id="Path_9" data-name="Path 9" d="M212.46,33.2q0-5.385,5.317-5.393h7.915q5.385,0,5.393,5.393V49.1q0,5.317-5.393,5.317h-7.877q-5.317,0-5.317-5.4Zm13.269,18.374c1.7,0,2.552-.82,2.552-2.476V33.2a2.241,2.241,0,0,0-2.552-2.514h-7.915A2.223,2.223,0,0,0,215.3,33.2V49.024a2.239,2.239,0,0,0,2.514,2.552Z" transform="translate(-51.084 -18.194)" fill="#16becf"/>
      <path id="Path_10" data-name="Path 10" d="M79.28,84.2V75.35h2.279v6.2H125.8v-6.2h2.279V84.2Z" transform="translate(-19.062 -29.625)" fill="#1a1b1d"/>
      <path id="Path_11" data-name="Path 11" d="M128,15.15v8.811h-2.279v-6.2H81.519v6.2H79.24V15.15Z" transform="translate(-19.053 -15.15)" fill="#1a1b1d"/>
      <rect id="Rectangle_1" data-name="Rectangle 1" width="3.988" height="3.988" transform="translate(66.203 22.392)" fill="#16becf"/>
      <rect id="Rectangle_2" data-name="Rectangle 2" width="3.988" height="3.988" transform="translate(99.624 22.392)" fill="#16becf"/>
      <rect id="Rectangle_3" data-name="Rectangle 3" width="8.355" height="2.279" transform="translate(74.528 42.52)" fill="#fff"/>
      <rect id="Rectangle_4" data-name="Rectangle 4" width="8.355" height="2.279" transform="translate(85.982 42.52)" fill="#fff"/>
      <path id="Path_12" data-name="Path 12" d="M113.386,71.738a3.038,3.038,0,1,1-3.038-3.038A3.038,3.038,0,0,1,113.386,71.738Z" transform="translate(-25.802 -28.026)" fill="#1a1b1d"/>
    </g>
  </g>
</svg>
